<?xml version="1.0" encoding="utf-8"?>
<!-- Generator: Adobe Illustrator 14.0.0, SVG Export Plug-In . SVG Version: 6.00 Build 43363)  -->
<!DOCTYPE svg PUBLIC "-//W3C//DTD SVG 1.0//EN" "http://www.w3.org/TR/2001/REC-SVG-20010904/DTD/svg10.dtd">
<svg version="1.0" id="Camada_1" xmlns="http://www.w3.org/2000/svg" xmlns:xlink="http://www.w3.org/1999/xlink" x="0px" y="0px"
	 width="253.333px" height="192.667px" viewBox="0 0 253.333 192.667" enable-background="new 0 0 253.333 192.667"
	 xml:space="preserve">
<g>
	<g>
		<defs>
			<path id="SVGID_1_" d="M168.791,67.533c1.16,9.678-2.822,26.242-13.449,38.342c0.555,3.631,0.34,2.283,0.34,6.252
				c0,17.238-13.971,31.206-31.207,31.206c-17.232,0-31.205-13.968-31.205-31.206c0-16.998,13.592-30.81,30.5-31.188
				c-6.697-5.332-22.129-14.716-45.166-11.802c-10.543,11.243-17.002,26.36-17.002,42.989c0,34.725,28.15,62.875,62.873,62.875
				c34.725,0,62.873-28.15,62.873-62.875C187.347,91.45,180.929,80.372,168.791,67.533z"/>
		</defs>
		<use xlink:href="#SVGID_1_"  overflow="visible" fill="#D3EAF7"/>
		<clipPath id="SVGID_2_">
			<use xlink:href="#SVGID_1_"  overflow="visible"/>
		</clipPath>
		<g clip-path="url(#SVGID_2_)">
			<path opacity="0.26" fill="#587BB7" d="M124.496,165.639c0,2.143-1.736,3.879-3.877,3.879c-2.145,0-3.879-1.736-3.879-3.879
				c0-2.145,1.734-3.88,3.879-3.88C122.759,161.759,124.496,163.494,124.496,165.639z"/>
			<circle opacity="0.26" fill="#587BB7" cx="105.837" cy="167.942" r="3.879"/>
			<circle opacity="0.75" fill="#587BB7" cx="120.619" cy="156.615" r="5.143"/>
			<circle opacity="0.26" fill="#587BB7" cx="109.717" cy="164.064" r="5.144"/>
			<path opacity="0.26" fill="#587BB7" d="M104.671,154.436c0,2.84-2.305,5.143-5.143,5.143c-2.84,0-5.145-2.303-5.145-5.143
				c0-2.844,2.305-5.145,5.145-5.145C102.367,149.291,104.671,151.592,104.671,154.436z"/>
			<path opacity="0.49" fill="#D3EAF7" d="M99.529,157.842c0,2.844-2.305,5.146-5.145,5.146c-2.842,0-5.145-2.303-5.145-5.146
				c0-2.838,2.303-5.143,5.145-5.143C97.224,152.699,99.529,155.004,99.529,157.842z"/>
			<path opacity="0.49" fill="#D3EAF7" d="M74.111,132.718c0,2.841-2.305,5.144-5.143,5.144c-2.844,0-5.146-2.303-5.146-5.144
				c0-2.843,2.303-5.146,5.146-5.146C71.806,127.572,74.111,129.875,74.111,132.718z"/>
			<path opacity="0.75" fill="#587BB7" d="M114.396,154.436c0,3.434-2.781,6.219-6.219,6.219c-3.434,0-6.219-2.785-6.219-6.219
				c0-3.438,2.785-6.223,6.219-6.223C111.615,148.213,114.396,150.998,114.396,154.436z"/>
			<path opacity="0.26" fill="#587BB7" d="M120.619,157.842c0,3.438-2.787,6.223-6.223,6.223c-3.434,0-6.219-2.785-6.219-6.223
				c0-3.434,2.785-6.219,6.219-6.219C117.832,151.623,120.619,154.408,120.619,157.842z"/>
			<circle opacity="0.26" fill="#587BB7" cx="106.512" cy="143.071" r="6.219"/>
			<circle opacity="0.49" fill="#D3EAF7" cx="101.958" cy="162.836" r="6.22"/>
			<circle opacity="0.26" fill="#587BB7" cx="154.237" cy="158.321" r="3.88"/>
			<path opacity="0.26" fill="#587BB7" d="M143.335,160.625c0,2.142-1.734,3.879-3.881,3.879c-2.141,0-3.877-1.737-3.877-3.879
				s1.736-3.879,3.877-3.879C141.601,156.746,143.335,158.483,143.335,160.625z"/>
			<circle opacity="0.75" fill="#587BB7" cx="154.237" cy="149.297" r="5.144"/>
			<circle opacity="0.26" fill="#587BB7" cx="143.335" cy="156.746" r="5.143"/>
			<path opacity="0.26" fill="#587BB7" d="M138.289,147.115c0,2.84-2.301,5.144-5.145,5.144c-2.838,0-5.143-2.304-5.143-5.144
				s2.305-5.144,5.143-5.144C135.988,141.972,138.289,144.275,138.289,147.115z"/>
			<circle opacity="0.26" fill="#587BB7" cx="124.476" cy="148.959" r="5.145"/>
			<path opacity="0.49" fill="#D3EAF7" d="M133.144,150.525c0,2.842-2.299,5.145-5.141,5.145c-2.844,0-5.146-2.303-5.146-5.145
				c0-2.84,2.303-5.142,5.146-5.142C130.845,145.384,133.144,147.686,133.144,150.525z"/>
			<path opacity="0.49" fill="#D3EAF7" d="M129.642,148.959c0,2.841-2.307,5.145-5.146,5.145c-2.838,0-5.143-2.304-5.143-5.145
				s2.305-5.145,5.143-5.145C127.335,143.814,129.642,146.118,129.642,148.959z"/>
			<circle opacity="0.75" fill="#587BB7" cx="141.797" cy="147.115" r="6.22"/>
			<path opacity="0.26" fill="#587BB7" d="M154.236,150.525c0,3.438-2.785,6.221-6.219,6.221c-3.438,0-6.219-2.783-6.219-6.221
				c0-3.437,2.781-6.218,6.219-6.218C151.451,144.308,154.236,147.089,154.236,150.525z"/>
			<circle opacity="0.49" fill="#D3EAF7" cx="135.578" cy="155.518" r="6.221"/>
			<circle opacity="0.49" fill="#D3EAF7" cx="116.74" cy="149.291" r="6.221"/>
			<circle opacity="0.49" fill="#D3EAF7" cx="119.33" cy="146.292" r="6.221"/>
			<path opacity="0.26" fill="#587BB7" d="M73.486,136.309c-2.037,0.666-4.229-0.443-4.895-2.479
				c-0.666-2.034,0.443-4.228,2.479-4.896c2.033-0.667,4.225,0.441,4.893,2.479C76.63,133.447,75.523,135.639,73.486,136.309z"/>
			<circle opacity="0.26" fill="#587BB7" cx="62.907" cy="113.474" r="3.879"/>
			<path opacity="0.26" fill="#587BB7" d="M66.691,122.979c-2.035,0.667-4.227-0.441-4.895-2.476
				c-0.668-2.037,0.441-4.229,2.48-4.896c2.031-0.668,4.225,0.442,4.891,2.477C69.835,120.121,68.728,122.313,66.691,122.979z"/>
			<path opacity="0.75" fill="#587BB7" d="M82.453,134.699c-2.697,0.884-5.604-0.59-6.49-3.287
				c-0.883-2.698,0.588-5.604,3.287-6.491c2.699-0.886,5.604,0.585,6.486,3.287C86.623,130.905,85.154,133.813,82.453,134.699z"/>
			<circle opacity="0.26" fill="#587BB7" cx="70.376" cy="121.771" r="5.144"/>
			<path opacity="0.26" fill="#587BB7" d="M77.957,113.975c-2.701,0.888-5.605-0.586-6.492-3.283
				c-0.883-2.698,0.586-5.605,3.287-6.488c2.701-0.889,5.605,0.584,6.488,3.284C82.126,110.185,80.654,113.092,77.957,113.975z"/>
			<path opacity="0.49" fill="#D3EAF7" d="M73.115,110.15c-2.701,0.887-5.605-0.586-6.492-3.285
				c-0.883-2.698,0.586-5.605,3.287-6.49c2.697-0.885,5.604,0.586,6.49,3.287C77.285,106.359,75.812,109.267,73.115,110.15z"/>
			<path opacity="0.26" fill="#587BB7" d="M79.685,130.192c-3.268,1.069-6.779-0.709-7.848-3.974
				c-1.074-3.262,0.707-6.777,3.969-7.847c3.266-1.069,6.779,0.707,7.85,3.971C84.726,125.608,82.949,129.121,79.685,130.192z"/>
			<circle opacity="0.49" fill="#D3EAF7" cx="69.129" cy="114.015" r="6.22"/>
			<path opacity="0.26" fill="#587BB7" d="M84.119,152.646c-2.037,0.664-4.229-0.443-4.896-2.479s0.443-4.225,2.479-4.896
				c2.037-0.667,4.229,0.443,4.896,2.479S86.154,151.976,84.119,152.646z"/>
			<path opacity="0.26" fill="#587BB7" d="M89.406,156.322c-2.697,0.887-5.605-0.585-6.488-3.283
				c-0.887-2.701,0.586-5.604,3.283-6.489c2.701-0.884,5.605,0.584,6.488,3.283C93.576,152.533,92.107,155.439,89.406,156.322z"/>
			<circle opacity="0.26" fill="#587BB7" cx="81.814" cy="117.353" r="5.144"/>
			<path opacity="0.26" fill="#587BB7" d="M95.382,143.642c-2.699,0.888-5.604-0.585-6.488-3.284
				c-0.887-2.699,0.586-5.607,3.283-6.492c2.701-0.885,5.605,0.588,6.492,3.286C99.552,139.85,98.083,142.758,95.382,143.642z"/>
			<circle opacity="0.26" fill="#587BB7" cx="99.182" cy="135.058" r="5.144"/>
			<circle opacity="0.26" fill="#587BB7" cx="94.865" cy="128.89" r="5.143"/>
			<path opacity="0.49" fill="#D3EAF7" d="M90.541,139.817c-2.699,0.884-5.605-0.588-6.492-3.286
				c-0.883-2.699,0.59-5.605,3.287-6.489s5.605,0.587,6.49,3.283C94.71,136.025,93.238,138.932,90.541,139.817z"/>
			<path opacity="0.75" fill="#587BB7" d="M98.414,152.884c-3.266,1.07-6.779-0.708-7.848-3.972
				c-1.07-3.262,0.707-6.777,3.973-7.846c3.264-1.072,6.779,0.707,7.846,3.971C103.457,148.3,101.677,151.816,98.414,152.884z"/>
			<circle opacity="0.49" fill="#D3EAF7" cx="86.555" cy="143.681" r="6.22"/>
			<circle opacity="0.49" fill="#D3EAF7" cx="78.466" cy="138.755" r="6.221"/>
			<path opacity="0.49" fill="#D3EAF7" d="M75.445,146.112c-3.264,1.071-6.777-0.708-7.846-3.971
				c-1.07-3.267,0.707-6.779,3.971-7.85c3.266-1.068,6.779,0.709,7.848,3.972C80.488,141.529,78.71,145.042,75.445,146.112z"/>
			<path opacity="0.49" fill="#D3EAF7" d="M68.291,130.574c-3.264,1.07-6.775-0.707-7.848-3.97c-1.07-3.267,0.709-6.78,3.973-7.851
				c3.266-1.07,6.779,0.709,7.846,3.972C73.333,125.99,71.554,129.504,68.291,130.574z"/>
			<circle opacity="0.26" fill="#587BB7" cx="171.296" cy="128.838" r="3.88"/>
			<circle opacity="0.26" fill="#587BB7" cx="173.601" cy="143.617" r="3.879"/>
			<circle opacity="0.75" fill="#587BB7" cx="162.273" cy="128.837" r="5.144"/>
			<circle opacity="0.26" fill="#587BB7" cx="169.724" cy="139.74" r="5.144"/>
			<circle opacity="0.26" fill="#587BB7" cx="160.093" cy="149.929" r="5.146"/>
			<path opacity="0.49" fill="#D3EAF7" d="M163.505,149.928c2.84,0,5.143,2.303,5.143,5.146c0,2.838-2.303,5.143-5.143,5.143
				c-2.842,0-5.146-2.305-5.146-5.143C158.359,152.23,160.664,149.928,163.505,149.928z"/>
			<circle opacity="0.26" fill="#587BB7" cx="149.683" cy="166.564" r="3.879"/>
			<path opacity="0.26" fill="#587BB7" d="M155.542,153.029c2.84,0,5.143,2.303,5.143,5.143c0,2.842-2.303,5.145-5.143,5.145
				c-2.844,0-5.146-2.303-5.146-5.145C150.396,155.332,152.699,153.029,155.542,153.029z"/>
			<circle opacity="0.49" fill="#D3EAF7" cx="158.951" cy="163.316" r="5.145"/>
			<circle opacity="0.75" fill="#587BB7" cx="160.093" cy="141.277" r="6.219"/>
			<path opacity="0.26" fill="#587BB7" d="M163.505,128.838c3.434,0,6.217,2.784,6.217,6.221c0,3.434-2.783,6.219-6.217,6.219
				c-3.438,0-6.223-2.785-6.223-6.219C157.283,131.622,160.068,128.838,163.505,128.838z"/>
			<path opacity="0.49" fill="#D3EAF7" d="M168.496,141.277c3.434,0,6.219,2.783,6.219,6.219s-2.785,6.221-6.219,6.221
				c-3.438,0-6.223-2.785-6.223-6.221S165.058,141.277,168.496,141.277z"/>
			<circle opacity="0.26" fill="#587BB7" cx="131.841" cy="171.066" r="3.881"/>
			<path opacity="0.26" fill="#587BB7" d="M120.941,173.371c0,2.143-1.738,3.881-3.877,3.881c-2.145,0-3.883-1.738-3.883-3.881
				c0-2.141,1.738-3.879,3.883-3.879C119.203,169.492,120.941,171.23,120.941,173.371z"/>
			<path opacity="0.26" fill="#587BB7" d="M103.06,141.277c0,2.143-1.736,3.879-3.877,3.879c-2.145,0-3.879-1.736-3.879-3.879
				c0-2.141,1.734-3.882,3.879-3.882C101.324,137.396,103.06,139.137,103.06,141.277z"/>
			<circle opacity="0.75" fill="#587BB7" cx="131.842" cy="162.045" r="5.144"/>
			<circle opacity="0.26" fill="#587BB7" cx="120.94" cy="169.492" r="5.144"/>
			<path opacity="0.26" fill="#587BB7" d="M131.841,163.273c0,3.436-2.785,6.219-6.219,6.219s-6.221-2.783-6.221-6.219
				c0-3.438,2.787-6.219,6.221-6.219S131.841,159.836,131.841,163.273z"/>
			<path opacity="0.26" fill="#587BB7" d="M132.304,158.321c0,3.433-2.783,6.218-6.221,6.218c-3.434,0-6.219-2.785-6.219-6.218
				c0-3.438,2.785-6.221,6.219-6.221C129.521,152.101,132.304,154.884,132.304,158.321z"/>
			<path opacity="0.26" fill="#587BB7" d="M130.718,171.066c0,3.438-2.787,6.219-6.223,6.219c-3.434,0-6.219-2.781-6.219-6.219
				c0-3.433,2.785-6.219,6.219-6.219C127.931,164.848,130.718,167.634,130.718,171.066z"/>
			<path opacity="0.26" fill="#587BB7" d="M139.365,171.066c0,3.438-2.783,6.219-6.219,6.219s-6.219-2.781-6.219-6.219
				c0-3.433,2.783-6.219,6.219-6.219S139.365,167.634,139.365,171.066z"/>
			<circle opacity="0.26" fill="#587BB7" cx="145.806" cy="167.942" r="6.221"/>
			<circle opacity="0.49" fill="#D3EAF7" cx="113.182" cy="168.264" r="6.22"/>
			<circle opacity="0.26" fill="#587BB7" cx="137.699" cy="162.676" r="5.145"/>
			<path opacity="0.49" fill="#D3EAF7" d="M141.107,162.675c2.84,0,5.145,2.302,5.145,5.142c0,2.844-2.305,5.146-5.145,5.146
				s-5.143-2.303-5.143-5.146C135.964,164.977,138.267,162.675,141.107,162.675z"/>
			<circle opacity="0.49" fill="#D3EAF7" cx="152.32" cy="164.064" r="5.144"/>
			<circle opacity="0.49" fill="#D3EAF7" cx="146.099" cy="160.245" r="6.22"/>
			<circle opacity="0.49" fill="#D3EAF7" cx="95.941" cy="164.542" r="6.22"/>
			<circle opacity="0.49" fill="#D3EAF7" cx="103.353" cy="169.207" r="6.219"/>
			<path opacity="0.49" fill="#D3EAF7" d="M76.158,141.993c3.434,0,6.219,2.786,6.219,6.22s-2.785,6.223-6.219,6.223
				c-3.438,0-6.219-2.789-6.219-6.223S72.72,141.993,76.158,141.993z"/>
			<path opacity="0.49" fill="#D3EAF7" d="M83.474,148.852c3.434,0,6.219,2.785,6.219,6.223c0,3.434-2.785,6.218-6.219,6.218
				c-3.438,0-6.223-2.784-6.223-6.218C77.251,151.637,80.037,148.852,83.474,148.852z"/>
			<path opacity="0.49" fill="#D3EAF7" d="M86.96,153.996c3.438,0,6.219,2.785,6.219,6.221c0,3.434-2.781,6.219-6.219,6.219
				s-6.219-2.785-6.219-6.219C80.742,156.781,83.523,153.996,86.96,153.996z"/>
			<circle opacity="0.49" fill="#D3EAF7" cx="126.083" cy="146.424" r="6.22"/>
			<path opacity="0.49" fill="#D3EAF7" d="M150.396,132.533c3.434,0,6.219,2.788,6.219,6.221c0,3.435-2.785,6.221-6.219,6.221
				c-3.438,0-6.219-2.786-6.219-6.221C144.177,135.321,146.958,132.533,150.396,132.533z"/>
			<path opacity="0.26" fill="#587BB7" d="M176.746,118.619c2.139-0.036,3.906,1.67,3.945,3.813c0.035,2.141-1.67,3.908-3.811,3.944
				c-2.145,0.037-3.912-1.669-3.945-3.812C172.894,120.424,174.601,118.656,176.746,118.619z"/>
			<circle opacity="0.75" fill="#587BB7" cx="170.098" cy="123.173" r="5.145"/>
			<circle opacity="0.26" fill="#587BB7" cx="173.976" cy="85.721" r="3.879"/>
			<path opacity="0.26" fill="#587BB7" d="M176.468,96.58c2.145-0.037,3.908,1.67,3.945,3.812s-1.67,3.908-3.811,3.946
				c-2.145,0.037-3.91-1.67-3.945-3.812C172.621,98.385,174.328,96.617,176.468,96.58z"/>
			<path opacity="0.75" fill="#587BB7" d="M164.865,80.734c2.842-0.051,5.184,2.213,5.23,5.053c0.053,2.842-2.211,5.184-5.053,5.233
				c-2.84,0.047-5.182-2.216-5.232-5.054C159.761,83.125,162.025,80.781,164.865,80.734z"/>
			<path opacity="0.26" fill="#587BB7" d="M172.501,91.506c2.842-0.049,5.182,2.213,5.232,5.053
				c0.049,2.842-2.215,5.184-5.057,5.233c-2.84,0.047-5.182-2.216-5.23-5.056S169.662,91.553,172.501,91.506z"/>
			<circle opacity="0.26" fill="#587BB7" cx="163.136" cy="107.002" r="5.144"/>
			<circle opacity="0.26" fill="#587BB7" cx="165.13" cy="115.64" r="5.144"/>
			<circle opacity="0.49" fill="#D3EAF7" cx="166.636" cy="112.086" r="5.144"/>
			<path opacity="0.49" fill="#D3EAF7" d="M165.041,110.475c2.84-0.049,5.182,2.213,5.232,5.055c0.051,2.839-2.213,5.182-5.055,5.23
				c-2.84,0.053-5.182-2.214-5.232-5.053C159.937,112.867,162.199,110.523,165.041,110.475z"/>
			<path opacity="0.75" fill="#587BB7" d="M162.88,92.134c3.436-0.06,6.266,2.677,6.326,6.11c0.059,3.436-2.676,6.268-6.109,6.327
				c-3.438,0.059-6.268-2.676-6.328-6.11C156.71,95.023,159.447,92.193,162.88,92.134z"/>
			<path opacity="0.26" fill="#587BB7" d="M166.183,85.857c3.434-0.062,6.268,2.676,6.326,6.109
				c0.061,3.435-2.676,6.267-6.111,6.325c-3.434,0.062-6.266-2.675-6.326-6.108C160.013,88.748,162.748,85.913,166.183,85.857z"/>
			<path opacity="0.49" fill="#D3EAF7" d="M171.388,98.208c3.434-0.06,6.268,2.677,6.328,6.11c0.057,3.436-2.68,6.268-6.111,6.327
				c-3.438,0.06-6.27-2.677-6.33-6.11C165.216,101.1,167.951,98.267,171.388,98.208z"/>
			<path opacity="0.49" fill="#D3EAF7" d="M154.843,124.668c3.432-0.06,6.266,2.678,6.324,6.111
				c0.061,3.434-2.676,6.267-6.111,6.324c-3.434,0.061-6.266-2.674-6.324-6.111C148.671,127.559,151.406,124.726,154.843,124.668z"
				/>
			<circle opacity="0.26" fill="#587BB7" cx="162.99" cy="64.978" r="3.879"/>
			<circle opacity="0.26" fill="#587BB7" cx="175.33" cy="79.013" r="3.879"/>
			<path opacity="0.26" fill="#587BB7" d="M150.751,106.696c-0.047-2.842,2.217-5.184,5.057-5.232
				c2.838-0.048,5.184,2.214,5.23,5.053c0.051,2.842-2.213,5.183-5.053,5.233C153.144,111.8,150.802,109.535,150.751,106.696z"/>
			<circle opacity="0.26" fill="#587BB7" cx="165.484" cy="80.01" r="5.143"/>
			<path opacity="0.49" fill="#D3EAF7" d="M165.421,76.6c-0.047-2.838,2.217-5.182,5.057-5.23c2.842-0.049,5.184,2.213,5.234,5.053
				c0.047,2.841-2.217,5.184-5.057,5.232C167.818,81.704,165.476,79.441,165.421,76.6z"/>
			<circle opacity="0.49" fill="#D3EAF7" cx="178.89" cy="85.966" r="5.143"/>
			<path opacity="0.26" fill="#587BB7" d="M182.232,86.251c2.141-0.036,3.908,1.67,3.945,3.812c0.037,2.143-1.67,3.909-3.811,3.949
				c-2.145,0.034-3.91-1.673-3.947-3.814C178.382,88.055,180.089,86.289,182.232,86.251z"/>
			<circle opacity="0.26" fill="#587BB7" cx="173.805" cy="84.42" r="5.144"/>
			<path opacity="0.49" fill="#D3EAF7" d="M178.89,110.496c-0.049-2.84,2.215-5.183,5.053-5.232
				c2.844-0.047,5.186,2.216,5.232,5.055c0.051,2.842-2.213,5.184-5.053,5.234C181.285,115.6,178.939,113.338,178.89,110.496z"/>
			<circle opacity="0.75" fill="#587BB7" cx="161.168" cy="93.986" r="6.219"/>
			<path opacity="0.49" fill="#D3EAF7" d="M158.736,72.534c-0.061-3.437,2.678-6.271,6.109-6.326
				c3.436-0.062,6.268,2.676,6.326,6.109c0.061,3.437-2.676,6.267-6.109,6.327C161.626,78.703,158.794,75.968,158.736,72.534z"/>
			<path opacity="0.26" fill="#587BB7" d="M169.423,151.192c2.143-0.036,3.91,1.67,3.945,3.812c0.037,2.142-1.67,3.909-3.809,3.946
				c-2.145,0.037-3.912-1.669-3.945-3.812C165.576,152.998,167.283,151.23,169.423,151.192z"/>
			<path opacity="0.75" fill="#587BB7" d="M177.998,102.905c2.838-0.051,5.184,2.212,5.234,5.054
				c0.047,2.841-2.217,5.183-5.057,5.232c-2.842,0.049-5.184-2.216-5.23-5.053C172.894,105.299,175.158,102.954,177.998,102.905z"/>
			<circle opacity="0.26" fill="#587BB7" cx="176.812" cy="130.504" r="5.143"/>
			<path opacity="0.26" fill="#587BB7" d="M182.191,120.16c3.436-0.061,6.268,2.676,6.326,6.11c0.061,3.435-2.678,6.265-6.111,6.325
				c-3.438,0.059-6.268-2.679-6.328-6.111C176.019,123.05,178.755,120.219,182.191,120.16z"/>
			<circle opacity="0.26" fill="#587BB7" cx="174.462" cy="113.87" r="6.22"/>
			<path opacity="0.26" fill="#587BB7" d="M175.603,130.631c3.434-0.06,6.27,2.678,6.326,6.111c0.063,3.434-2.676,6.267-6.109,6.328
				c-3.436,0.057-6.268-2.68-6.324-6.112C169.435,133.521,172.169,130.689,175.603,130.631z"/>
			<path opacity="0.26" fill="#587BB7" d="M180.757,126.498c3.438-0.06,6.268,2.677,6.326,6.11c0.061,3.435-2.676,6.267-6.109,6.329
				c-3.438,0.057-6.268-2.679-6.328-6.113C174.585,129.391,177.324,126.559,180.757,126.498z"/>
			<path opacity="0.26" fill="#587BB7" d="M183.636,87.767c3.434-0.059,6.266,2.676,6.326,6.112
				c0.057,3.432-2.678,6.268-6.111,6.325c-3.438,0.06-6.27-2.677-6.328-6.111C177.464,90.659,180.201,87.826,183.636,87.767z"/>
			<path opacity="0.26" fill="#587BB7" d="M173.472,102.271c-0.047-2.841,2.215-5.183,5.057-5.229
				c2.84-0.051,5.182,2.211,5.229,5.052c0.051,2.841-2.213,5.183-5.053,5.232C175.865,107.373,173.521,105.111,173.472,102.271z"/>
			<path opacity="0.49" fill="#D3EAF7" d="M178.556,118.413c-0.049-2.839,2.215-5.181,5.055-5.231
				c2.838-0.049,5.182,2.214,5.232,5.053c0.049,2.842-2.215,5.183-5.053,5.232C180.949,123.517,178.605,121.255,178.556,118.413z"/>
			<path opacity="0.49" fill="#D3EAF7" d="M170.033,92.367c-0.047-2.841,2.215-5.184,5.057-5.232
				c2.838-0.047,5.182,2.214,5.229,5.054c0.051,2.842-2.211,5.183-5.053,5.232C172.425,97.472,170.083,95.209,170.033,92.367z"/>
			<circle opacity="0.49" fill="#D3EAF7" cx="183.7" cy="102.652" r="6.221"/>
			<path opacity="0.49" fill="#D3EAF7" d="M154.121,121.563c-0.061-3.435,2.676-6.268,6.111-6.326
				c3.434-0.058,6.266,2.675,6.326,6.112c0.061,3.435-2.676,6.266-6.113,6.325C157.013,127.734,154.181,124.998,154.121,121.563z"/>
			<path opacity="0.49" fill="#D3EAF7" d="M152.14,113.046c-0.059-3.434,2.676-6.267,6.113-6.327
				c3.434-0.061,6.268,2.677,6.324,6.11c0.061,3.438-2.676,6.271-6.111,6.329C155.033,119.217,152.201,116.479,152.14,113.046z"/>
			<circle opacity="0.26" fill="#587BB7" cx="89.904" cy="73.311" r="3.879"/>
			<circle opacity="0.26" fill="#587BB7" cx="68.13" cy="89.846" r="3.879"/>
			<path opacity="0.75" fill="#587BB7" d="M93.384,83.099c-2.154-1.856-2.396-5.104-0.541-7.256c1.852-2.153,5.102-2.396,7.252-0.54
				c2.156,1.854,2.395,5.102,0.541,7.255C98.783,84.709,95.537,84.951,93.384,83.099z"/>
			<circle opacity="0.26" fill="#587BB7" cx="98.211" cy="66.079" r="5.143"/>
			<circle opacity="0.26" fill="#587BB7" cx="68.966" cy="85.031" r="5.143"/>
			<circle opacity="0.49" fill="#D3EAF7" cx="90.617" cy="106.237" r="5.144"/>
			<path opacity="0.75" fill="#587BB7" d="M102.455,75.909c-2.607-2.241-2.896-6.167-0.656-8.771c2.24-2.604,6.17-2.896,8.771-0.653
				c2.604,2.241,2.896,6.168,0.654,8.771C108.982,77.858,105.054,78.151,102.455,75.909z"/>
			<path opacity="0.26" fill="#587BB7" d="M95.81,78.398c-2.605-2.243-2.896-6.17-0.654-8.773c2.238-2.602,6.168-2.893,8.77-0.654
				c2.604,2.242,2.896,6.17,0.656,8.771C102.337,80.348,98.41,80.639,95.81,78.398z"/>
			<path opacity="0.49" fill="#D3EAF7" d="M74.406,87.755c-2.604-2.241-2.896-6.169-0.654-8.771c2.242-2.604,6.17-2.897,8.773-0.653
				c2.604,2.241,2.896,6.17,0.65,8.771C80.937,89.704,77.009,89.997,74.406,87.755z"/>
			<circle opacity="0.26" fill="#587BB7" cx="73.508" cy="103.559" r="3.88"/>
			<path opacity="0.26" fill="#587BB7" d="M64.257,97.475c-1.625-1.399-1.807-3.848-0.408-5.473
				c1.396-1.622,3.848-1.805,5.469-0.406c1.625,1.397,1.807,3.85,0.406,5.471C68.33,98.688,65.878,98.872,64.257,97.475z"/>
			<circle opacity="0.26" fill="#587BB7" cx="81.407" cy="90.856" r="3.878"/>
			<circle opacity="0.75" fill="#587BB7" cx="80.344" cy="109.448" r="5.144"/>
			<path opacity="0.26" fill="#587BB7" d="M78.458,100.224c-2.152-1.853-2.396-5.102-0.541-7.253
				c1.854-2.154,5.104-2.396,7.256-0.543c2.152,1.855,2.391,5.105,0.541,7.256C83.859,101.834,80.613,102.078,78.458,100.224z"/>
			<circle opacity="0.26" fill="#587BB7" cx="95.763" cy="94.891" r="5.144"/>
			<circle opacity="0.26" fill="#587BB7" cx="100.023" cy="87.119" r="5.143"/>
			<circle opacity="0.49" fill="#D3EAF7" cx="96.535" cy="88.768" r="5.143"/>
			<path opacity="0.49" fill="#D3EAF7" d="M96.652,91.033c-2.152-1.857-2.393-5.102-0.541-7.256c1.854-2.152,5.102-2.394,7.256-0.54
				c2.152,1.854,2.391,5.101,0.541,7.255C102.054,92.645,98.804,92.885,96.652,91.033z"/>
			<circle opacity="0.75" fill="#587BB7" cx="87.804" cy="114.233" r="6.221"/>
			<path opacity="0.26" fill="#587BB7" d="M79.416,108.646c-2.604-2.243-2.896-6.171-0.658-8.771
				c2.246-2.604,6.174-2.898,8.775-0.654c2.602,2.242,2.895,6.17,0.652,8.772C85.945,110.594,82.019,110.888,79.416,108.646z"/>
			<circle opacity="0.49" fill="#D3EAF7" cx="87.809" cy="91.25" r="6.219"/>
			<path opacity="0.49" fill="#D3EAF7" d="M100.763,85.752c-2.604-2.239-2.896-6.168-0.654-8.771
				c2.242-2.602,6.17-2.895,8.773-0.652c2.602,2.24,2.895,6.17,0.652,8.771C107.292,87.704,103.367,87.994,100.763,85.752z"/>
			<circle opacity="0.49" fill="#D3EAF7" cx="105.403" cy="84.961" r="6.22"/>
			<circle opacity="0.75" fill="#587BB7" cx="74.111" cy="78.743" r="5.145"/>
			<circle opacity="0.26" fill="#587BB7" cx="80.833" cy="74.493" r="6.219"/>
			<circle opacity="0.26" fill="#587BB7" cx="92.767" cy="102.357" r="3.88"/>
			<circle opacity="0.26" fill="#587BB7" cx="87.803" cy="99.68" r="5.144"/>
			<circle opacity="0.26" fill="#587BB7" cx="118.074" cy="79.199" r="5.144"/>
			<path opacity="0.49" fill="#D3EAF7" d="M107.408,75.439c1.088-2.621,4.102-3.863,6.725-2.772
				c2.623,1.092,3.865,4.104,2.773,6.725c-1.09,2.625-4.104,3.866-6.727,2.775C107.558,81.075,106.316,78.064,107.408,75.439z"/>
			<circle opacity="0.75" fill="#587BB7" cx="89.719" cy="84.26" r="6.218"/>
			<circle opacity="0.49" fill="#D3EAF7" cx="110.519" cy="83.625" r="6.219"/>
			<circle opacity="0.26" fill="#587BB7" cx="84.712" cy="135.727" r="3.879"/>
			<circle opacity="0.26" fill="#587BB7" cx="72.009" cy="127.828" r="3.879"/>
			<circle opacity="0.75" fill="#587BB7" cx="90.601" cy="128.891" r="5.145"/>
			<path opacity="0.75" fill="#587BB7" d="M95.494,123.811c-1.855,2.152-5.102,2.395-7.254,0.541
				c-2.152-1.854-2.395-5.104-0.541-7.253c1.855-2.156,5.102-2.396,7.254-0.541C97.105,118.409,97.347,121.658,95.494,123.811z"/>
			<circle opacity="0.75" fill="#587BB7" cx="66.366" cy="107.794" r="5.144"/>
			<path opacity="0.26" fill="#587BB7" d="M81.376,130.775c-1.857,2.152-5.104,2.396-7.252,0.541
				c-2.152-1.854-2.395-5.102-0.541-7.256c1.854-2.148,5.102-2.391,7.254-0.537C82.988,125.377,83.232,128.623,81.376,130.775z"/>
			<path opacity="0.26" fill="#587BB7" d="M79.943,116.83c-1.857,2.153-5.104,2.395-7.256,0.541
				c-2.15-1.854-2.393-5.104-0.539-7.254c1.852-2.153,5.102-2.396,7.254-0.542C81.554,111.43,81.796,114.676,79.943,116.83z"/>
			<path opacity="0.26" fill="#587BB7" d="M70.267,104.318c-1.854,2.156-5.102,2.398-7.256,0.544
				c-2.152-1.857-2.395-5.104-0.541-7.255c1.855-2.153,5.102-2.395,7.254-0.541C71.878,98.921,72.119,102.167,70.267,104.318z"/>
			<path opacity="0.26" fill="#587BB7" d="M67.699,97.67c-1.619-1.4-1.805-3.85-0.406-5.473c1.4-1.623,3.848-1.806,5.471-0.406
				c1.625,1.396,1.807,3.847,0.408,5.468C71.771,98.884,69.324,99.066,67.699,97.67z"/>
			<circle opacity="0.26" fill="#587BB7" cx="85.085" cy="125.763" r="6.218"/>
			<path opacity="0.26" fill="#587BB7" d="M75.933,81.211c-1.621-1.398-1.807-3.848-0.408-5.471c1.4-1.623,3.848-1.806,5.473-0.407
				c1.621,1.397,1.805,3.847,0.406,5.472C80.005,82.426,77.558,82.609,75.933,81.211z"/>
			<path opacity="0.26" fill="#587BB7" d="M83.832,68.509c-1.621-1.4-1.805-3.851-0.408-5.472c1.4-1.624,3.852-1.807,5.471-0.407
				c1.625,1.396,1.807,3.847,0.41,5.471C87.906,69.722,85.457,69.904,83.832,68.509z"/>
			<path opacity="0.75" fill="#587BB7" d="M81.941,88.059c-2.148-1.854-2.393-5.104-0.537-7.254c1.854-2.154,5.1-2.396,7.254-0.542
				c2.152,1.853,2.395,5.103,0.541,7.255C87.343,89.668,84.097,89.912,81.941,88.059z"/>
			<path opacity="0.26" fill="#587BB7" d="M83.416,74.938c-2.152-1.854-2.395-5.104-0.539-7.256c1.85-2.151,5.1-2.395,7.252-0.54
				s2.395,5.103,0.541,7.255C88.816,76.55,85.568,76.792,83.416,74.938z"/>
			<path opacity="0.26" fill="#587BB7" d="M84.371,83.358c-2.604-2.241-2.896-6.169-0.654-8.771c2.242-2.604,6.17-2.896,8.773-0.656
				c2.602,2.243,2.893,6.169,0.65,8.772C90.902,85.307,86.974,85.6,84.371,83.358z"/>
			<circle opacity="0.49" fill="#D3EAF7" cx="92.766" cy="65.963" r="6.22"/>
			<path opacity="0.26" fill="#587BB7" d="M84.898,91.542c-1.852,2.153-5.102,2.396-7.252,0.541
				c-2.152-1.854-2.396-5.101-0.545-7.254c1.857-2.154,5.104-2.396,7.256-0.542C86.511,86.142,86.753,89.392,84.898,91.542z"/>
			<circle opacity="0.49" fill="#D3EAF7" cx="74.878" cy="87.415" r="5.144"/>
			<path opacity="0.49" fill="#D3EAF7" d="M82.074,100.196c-2.242,2.604-6.17,2.896-8.773,0.653c-2.6-2.241-2.896-6.168-0.654-8.771
				c2.246-2.604,6.17-2.896,8.773-0.653C84.019,93.666,84.316,97.593,82.074,100.196z"/>
		</g>
	</g>
	<g>
		<defs>
			<path id="SVGID_3_" d="M82.369,65.604c27.201-2.187,44.355,14.988,44.355,14.988c11.914,0.377,19.244,8.391,19.244,8.391
				c1.658-27.394-23.484-39.095-23.484-39.095c-25.371-1.767-40.191,14.967-40.191,14.967"/>
		</defs>
		<use xlink:href="#SVGID_3_"  overflow="visible" opacity="0.53" fill="#D5001E"/>
		<clipPath id="SVGID_4_">
			<use xlink:href="#SVGID_3_"  overflow="visible" opacity="0.53"/>
		</clipPath>
		<g clip-path="url(#SVGID_4_)">
			<circle opacity="0.26" fill="#D5001E" cx="124.529" cy="58.401" r="3.879"/>
			<circle opacity="0.26" fill="#D5001E" cx="139.309" cy="56.098" r="3.878"/>
			<path opacity="0.75" fill="#D5001E" d="M119.386,67.425c0-2.839,2.303-5.146,5.145-5.146c2.838,0,5.143,2.307,5.143,5.146
				c0,2.842-2.305,5.146-5.143,5.146C121.689,72.57,119.386,70.267,119.386,67.425z"/>
			<circle opacity="0.26" fill="#D5001E" cx="135.431" cy="59.977" r="5.143"/>
			<circle opacity="0.26" fill="#D5001E" cx="145.62" cy="69.607" r="5.144"/>
			<circle opacity="0.49" fill="#D5001E" cx="150.764" cy="66.196" r="5.144"/>
			<path opacity="0.75" fill="#D5001E" d="M130.75,69.607c0-3.436,2.785-6.221,6.219-6.221c3.438,0,6.219,2.785,6.219,6.221
				c0,3.434-2.781,6.221-6.219,6.221C133.535,75.828,130.75,73.041,130.75,69.607z"/>
			<circle opacity="0.26" fill="#D5001E" cx="130.75" cy="66.196" r="6.219"/>
			<circle opacity="0.26" fill="#D5001E" cx="138.637" cy="80.971" r="6.219"/>
			<circle opacity="0.49" fill="#D5001E" cx="143.189" cy="61.204" r="6.221"/>
			<circle opacity="0.26" fill="#D5001E" cx="90.913" cy="65.721" r="3.88"/>
			<path opacity="0.26" fill="#D5001E" d="M101.812,63.417c0-2.146,1.736-3.88,3.881-3.88c2.141,0,3.877,1.734,3.877,3.88
				c0,2.142-1.736,3.876-3.877,3.876C103.548,67.293,101.812,65.559,101.812,63.417z"/>
			<path opacity="0.75" fill="#D5001E" d="M85.769,74.742c0-2.838,2.303-5.144,5.143-5.144c2.842,0,5.145,2.302,5.145,5.144
				c0,2.844-2.303,5.146-5.145,5.146C88.072,79.889,85.769,77.586,85.769,74.742z"/>
			<circle opacity="0.26" fill="#D5001E" cx="101.813" cy="67.293" r="5.144"/>
			<circle opacity="0.26" fill="#D5001E" cx="112.001" cy="76.924" r="5.143"/>
			<path opacity="0.26" fill="#D5001E" d="M115.531,75.08c0-2.838,2.301-5.145,5.143-5.145c2.838,0,5.143,2.307,5.143,5.145
				c0,2.844-2.305,5.145-5.143,5.145C117.832,80.225,115.531,77.924,115.531,75.08z"/>
			<circle opacity="0.49" fill="#D5001E" cx="117.146" cy="73.514" r="5.145"/>
			<path opacity="0.49" fill="#D5001E" d="M115.507,75.08c0-2.838,2.303-5.145,5.143-5.145c2.842,0,5.145,2.307,5.145,5.145
				c0,2.844-2.303,5.145-5.145,5.145C117.81,80.225,115.507,77.924,115.507,75.08z"/>
			<circle opacity="0.75" fill="#D5001E" cx="103.351" cy="76.924" r="6.219"/>
			<circle opacity="0.26" fill="#D5001E" cx="97.13" cy="73.514" r="6.219"/>
			<path opacity="0.49" fill="#D5001E" d="M103.349,68.521c0-3.434,2.787-6.219,6.221-6.219c3.438,0,6.223,2.785,6.223,6.219
				c0,3.438-2.785,6.221-6.223,6.221C106.136,74.742,103.349,71.959,103.349,68.521z"/>
			<path opacity="0.49" fill="#D5001E" d="M122.191,74.748c0-3.435,2.785-6.218,6.217-6.218c3.436,0,6.221,2.783,6.221,6.218
				c0,3.437-2.785,6.221-6.221,6.221C124.976,80.969,122.191,78.185,122.191,74.748z"/>
			<circle opacity="0.49" fill="#D5001E" cx="125.817" cy="77.748" r="6.22"/>
			<path opacity="0.26" fill="#D5001E" d="M149.765,80.396c2.699-0.883,5.605,0.588,6.49,3.287c0.885,2.697-0.584,5.605-3.285,6.491
				c-2.701,0.884-5.604-0.587-6.49-3.287C145.595,84.189,147.064,81.283,149.765,80.396z"/>
			<circle opacity="0.26" fill="#D5001E" cx="145.967" cy="88.982" r="5.145"/>
			<path opacity="0.75" fill="#D5001E" d="M146.732,71.154c3.266-1.068,6.781,0.709,7.85,3.972c1.072,3.266-0.709,6.78-3.973,7.851
				c-3.266,1.069-6.777-0.71-7.848-3.973C141.693,75.738,143.47,72.226,146.732,71.154z"/>
			<circle opacity="0.26" fill="#D5001E" cx="71.544" cy="80.421" r="3.878"/>
			<path opacity="0.26" fill="#D5001E" d="M75.423,89.443c-2.84,0-5.143-2.301-5.143-5.144c0-2.837,2.303-5.144,5.143-5.144
				c2.842,0,5.145,2.307,5.145,5.144C80.568,87.143,78.265,89.443,75.423,89.443z"/>
			<circle opacity="0.26" fill="#D5001E" cx="85.054" cy="74.113" r="5.145"/>
			<circle opacity="0.49" fill="#D5001E" cx="81.644" cy="68.969" r="5.144"/>
			<path opacity="0.26" fill="#D5001E" d="M91.587,57.475c0-2.141,1.736-3.877,3.877-3.877c2.145,0,3.879,1.736,3.879,3.877
				c0,2.143-1.734,3.88-3.879,3.88C93.324,61.354,91.587,59.617,91.587,57.475z"/>
			<path opacity="0.26" fill="#D5001E" d="M89.607,71.013c-2.838,0-5.145-2.305-5.145-5.147c0-2.839,2.307-5.142,5.145-5.142
				c2.84,0,5.145,2.303,5.145,5.142C94.751,68.708,92.447,71.013,89.607,71.013z"/>
			<path opacity="0.49" fill="#D5001E" d="M86.199,65.865c-2.844,0-5.146-2.302-5.146-5.142c0-2.841,2.303-5.145,5.146-5.145
				c2.838,0,5.141,2.304,5.141,5.145C91.339,63.563,89.037,65.865,86.199,65.865z"/>
			<path opacity="0.75" fill="#D5001E" d="M85.054,88.982c-3.434,0-6.219-2.783-6.219-6.219c0-3.435,2.785-6.221,6.219-6.221
				c3.438,0,6.219,2.786,6.219,6.221C91.273,86.199,88.492,88.982,85.054,88.982z"/>
			<circle opacity="0.49" fill="#D5001E" cx="76.654" cy="76.544" r="6.22"/>
			<circle opacity="0.26" fill="#D5001E" cx="113.306" cy="52.975" r="3.879"/>
			<circle opacity="0.26" fill="#D5001E" cx="128.088" cy="50.668" r="3.88"/>
			<circle opacity="0.26" fill="#D5001E" cx="145.965" cy="82.764" r="3.88"/>
			<circle opacity="0.75" fill="#D5001E" cx="113.306" cy="61.996" r="5.145"/>
			<circle opacity="0.26" fill="#D5001E" cx="124.208" cy="54.546" r="5.144"/>
			<circle opacity="0.26" fill="#D5001E" cx="119.526" cy="60.767" r="6.22"/>
			<circle opacity="0.26" fill="#D5001E" cx="119.064" cy="65.721" r="6.221"/>
			<circle opacity="0.26" fill="#D5001E" cx="120.65" cy="52.972" r="6.219"/>
			<circle opacity="0.26" fill="#D5001E" cx="112.001" cy="52.972" r="6.219"/>
			<circle opacity="0.26" fill="#D5001E" cx="99.344" cy="56.098" r="6.22"/>
			<path opacity="0.49" fill="#D5001E" d="M125.746,55.775c0-3.434,2.785-6.221,6.219-6.221c3.438,0,6.219,2.787,6.219,6.221
				c0,3.438-2.781,6.221-6.219,6.221C128.531,61.996,125.746,59.213,125.746,55.775z"/>
			<path opacity="0.26" fill="#D5001E" d="M107.449,66.508c-2.84,0-5.143-2.304-5.143-5.143c0-2.842,2.303-5.145,5.143-5.145
				c2.844,0,5.145,2.303,5.145,5.145C112.593,64.204,110.292,66.508,107.449,66.508z"/>
			<circle opacity="0.49" fill="#D5001E" cx="104.039" cy="56.221" r="5.145"/>
			<circle opacity="0.49" fill="#D5001E" cx="92.83" cy="59.977" r="5.144"/>
			<path opacity="0.49" fill="#D5001E" d="M99.048,70.016c-3.434,0-6.219-2.786-6.219-6.22s2.785-6.22,6.219-6.22
				c3.438,0,6.219,2.786,6.219,6.22S102.486,70.016,99.048,70.016z"/>
			<path opacity="0.49" fill="#D5001E" d="M149.207,65.721c-3.434,0-6.219-2.787-6.219-6.221s2.785-6.221,6.219-6.221
				c3.438,0,6.223,2.787,6.223,6.221S152.644,65.721,149.207,65.721z"/>
			<path opacity="0.49" fill="#D5001E" d="M141.796,61.053c-3.438,0-6.223-2.786-6.223-6.22c0-3.435,2.785-6.22,6.223-6.22
				c3.434,0,6.219,2.785,6.219,6.22C148.015,58.267,145.23,61.053,141.796,61.053z"/>
			<path opacity="0.49" fill="#D5001E" d="M119.064,83.836c-3.434,0-6.221-2.786-6.221-6.219c0-3.438,2.787-6.219,6.221-6.219
				c3.436,0,6.221,2.781,6.221,6.219C125.285,81.05,122.5,83.836,119.064,83.836z"/>
			<circle opacity="0.49" fill="#D5001E" cx="94.751" cy="85.286" r="6.22"/>
			<path opacity="0.26" fill="#D5001E" d="M75.722,72.848c-2.143,0.037-3.906-1.67-3.943-3.811c-0.037-2.145,1.67-3.911,3.809-3.947
				c2.145-0.035,3.912,1.67,3.945,3.813C79.57,71.045,77.867,72.813,75.722,72.848z"/>
		</g>
	</g>
	<g>
		<defs>
			<path id="SVGID_5_" d="M128.408,49.361c25.963,17.452,19.521,42.015,19.521,42.015c1.922,1.786,1.922,1.786,1.922,1.786
				c10.439-19.107-0.473-38.664-0.473-38.664C135.341,48.667,128.408,49.361,128.408,49.361z"/>
		</defs>
		<clipPath id="SVGID_6_">
			<use xlink:href="#SVGID_5_"  overflow="visible"/>
		</clipPath>
		<g clip-path="url(#SVGID_6_)">
			<path opacity="0.26" fill="#DB6714" d="M151.39,66.925c1.514-1.515,3.971-1.515,5.484,0c1.516,1.515,1.516,3.971,0,5.484
				c-1.514,1.519-3.971,1.519-5.484,0C149.875,70.896,149.875,68.439,151.39,66.925z"/>
			<circle opacity="0.26" fill="#DB6714" cx="166.213" cy="78.49" r="3.88"/>
			<path opacity="0.75" fill="#DB6714" d="M144.115,72.409c2.01-2.008,5.266-2.005,7.275,0c2.008,2.011,2.008,5.269,0,7.275
				c-2.01,2.011-5.266,2.011-7.275,0C142.107,77.678,142.105,74.42,144.115,72.409z"/>
			<circle opacity="0.26" fill="#DB6714" cx="160.727" cy="78.49" r="5.143"/>
			<circle opacity="0.26" fill="#DB6714" cx="161.123" cy="92.503" r="5.144"/>
			<path opacity="0.49" fill="#DB6714" d="M163.533,90.092c2.01-2.009,5.268-2.009,7.275,0c2.01,2.008,2.01,5.267,0,7.275
				c-2.01,2.008-5.268,2.008-7.275,0C161.527,95.358,161.527,92.1,163.533,90.092z"/>
			<circle opacity="0.75" fill="#DB6714" cx="155.005" cy="86.387" r="6.22"/>
			<circle opacity="0.26" fill="#DB6714" cx="153.019" cy="79.577" r="6.22"/>
			<path opacity="0.26" fill="#DB6714" d="M144.226,90.775c2.666-2.167,6.582-1.764,8.75,0.902c2.168,2.662,1.764,6.581-0.902,8.748
				c-2.664,2.168-6.584,1.763-8.75-0.9C141.158,96.859,141.56,92.942,144.226,90.775z"/>
			<circle opacity="0.49" fill="#DB6714" cx="165.345" cy="84.845" r="6.22"/>
			<circle opacity="0.26" fill="#DB6714" cx="125.186" cy="51.07" r="3.88"/>
			<path opacity="0.26" fill="#DB6714" d="M134.525,57.148c1.512-1.515,3.969-1.515,5.484,0c1.518,1.515,1.518,3.973,0,5.488
				c-1.516,1.512-3.973,1.512-5.484,0C133.009,61.119,133.009,58.663,134.525,57.148z"/>
			<circle opacity="0.75" fill="#DB6714" cx="118.806" cy="57.451" r="5.143"/>
			<circle opacity="0.26" fill="#DB6714" cx="131.781" cy="59.892" r="5.143"/>
			<circle opacity="0.26" fill="#DB6714" cx="132.176" cy="73.906" r="5.145"/>
			<circle opacity="0.26" fill="#DB6714" cx="139.611" cy="78.735" r="5.143"/>
			<circle opacity="0.49" fill="#DB6714" cx="138.225" cy="75.132" r="5.143"/>
			<circle opacity="0.49" fill="#DB6714" cx="139.595" cy="78.72" r="5.144"/>
			<path opacity="0.75" fill="#DB6714" d="M121.664,63.392c2.426-2.429,6.367-2.429,8.793,0c2.43,2.427,2.432,6.367,0.002,8.796
				c-2.428,2.43-6.369,2.428-8.799,0C119.234,69.759,119.234,65.82,121.664,63.392z"/>
			<path opacity="0.26" fill="#DB6714" d="M119.673,56.583c2.43-2.429,6.367-2.429,8.797,0c2.43,2.426,2.43,6.367,0,8.793
				c-2.43,2.433-6.367,2.433-8.797,0.003C117.246,62.95,117.246,59.012,119.673,56.583z"/>
			<circle opacity="0.49" fill="#DB6714" cx="136.398" cy="66.248" r="6.22"/>
			<circle opacity="0.49" fill="#DB6714" cx="145.316" cy="83.97" r="6.22"/>
			<path opacity="0.49" fill="#DB6714" d="M136.964,79.859c2.428-2.428,6.367-2.428,8.795,0c2.432,2.428,2.432,6.37,0.002,8.796
				c-2.43,2.433-6.369,2.429-8.797,0C134.537,86.229,134.535,82.289,136.964,79.859z"/>
			<circle opacity="0.26" fill="#DB6714" cx="154.099" cy="107.656" r="5.145"/>
			<circle opacity="0.26" fill="#DB6714" cx="147.667" cy="106.45" r="5.143"/>
			<path opacity="0.75" fill="#DB6714" d="M160.814,94.387c3.066,1.551,4.295,5.295,2.744,8.357
				c-1.555,3.064-5.293,4.293-8.361,2.74c-3.066-1.551-4.291-5.293-2.738-8.358C154.009,94.063,157.75,92.836,160.814,94.387z"/>
			<circle opacity="0.26" fill="#DB6714" cx="101.096" cy="47.773" r="3.88"/>
			<circle opacity="0.26" fill="#DB6714" cx="101.095" cy="53.259" r="5.143"/>
			<path opacity="0.26" fill="#DB6714" d="M111.472,56.5c-2.008-2.008-2.008-5.264,0-7.274c2.01-2.009,5.268-2.009,7.277,0
				c2.006,2.011,2.006,5.267,0,7.274C116.74,58.508,113.482,58.508,111.472,56.5z"/>
			<circle opacity="0.49" fill="#DB6714" cx="116.335" cy="46.816" r="5.143"/>
			<path opacity="0.26" fill="#DB6714" d="M131.492,45.717c1.516-1.513,3.971-1.516,5.488,0c1.514,1.516,1.514,3.971,0,5.484
				c-1.518,1.518-3.973,1.518-5.488,0C129.976,49.688,129.976,47.232,131.492,45.717z"/>
			<path opacity="0.26" fill="#DB6714" d="M120.521,53.891c-2.008-2.01-2.008-5.268,0-7.275c2.01-2.007,5.268-2.007,7.277,0
				c2.006,2.008,2.006,5.266,0,7.276C125.789,55.9,122.531,55.9,120.521,53.891z"/>
			<circle opacity="0.49" fill="#DB6714" cx="125.384" cy="44.204" r="5.144"/>
			<circle opacity="0.75" fill="#DB6714" cx="108.994" cy="58.981" r="6.22"/>
			<path opacity="0.49" fill="#DB6714" d="M103.052,53.039c-2.43-2.428-2.43-6.365,0-8.795s6.367-2.43,8.797,0
				c2.428,2.43,2.428,6.368,0,8.795C109.419,55.471,105.482,55.471,103.052,53.039z"/>
			<path opacity="0.26" fill="#DB6714" d="M147.292,55.15c1.514-1.517,3.973-1.517,5.484,0c1.516,1.514,1.516,3.969,0,5.486
				c-1.512,1.514-3.971,1.514-5.484,0C145.775,59.119,145.775,56.664,147.292,55.15z"/>
			<circle opacity="0.26" fill="#DB6714" cx="162.117" cy="66.713" r="3.879"/>
			<circle opacity="0.26" fill="#DB6714" cx="152.063" cy="102.051" r="3.879"/>
			<path opacity="0.75" fill="#DB6714" d="M140.017,60.634c2.008-2.008,5.266-2.008,7.275,0c2.008,2.009,2.01,5.267,0,7.276
				s-5.268,2.008-7.275-0.001C138.011,65.9,138.007,62.643,140.017,60.634z"/>
			<path opacity="0.26" fill="#DB6714" d="M152.994,63.078c2.01-2.01,5.266-2.01,7.275,0c2.006,2.008,2.006,5.265,0,7.271
				c-2.01,2.01-5.266,2.01-7.277,0.002C150.984,68.343,150.984,65.086,152.994,63.078z"/>
			<path opacity="0.26" fill="#DB6714" d="M144.525,63.404c2.428-2.43,6.367-2.429,8.797,0c2.426,2.429,2.426,6.366,0,8.795
				c-2.43,2.43-6.369,2.43-8.797,0C142.093,69.773,142.093,65.833,144.525,63.404z"/>
			<path opacity="0.26" fill="#DB6714" d="M140.695,66.58c2.43-2.432,6.367-2.43,8.797,0c2.43,2.428,2.43,6.367,0,8.795
				c-2.43,2.432-6.369,2.432-8.797,0.001C138.267,72.949,138.267,69.008,140.695,66.58z"/>
			<path opacity="0.26" fill="#DB6714" d="M150.828,58.688c2.434-2.429,6.367-2.429,8.801,0c2.428,2.43,2.428,6.367,0,8.796
				c-2.434,2.43-6.371,2.429-8.801,0C148.402,65.057,148.4,61.117,150.828,58.688z"/>
			<path opacity="0.26" fill="#DB6714" d="M144.714,52.572c2.43-2.43,6.371-2.428,8.797,0s2.43,6.367,0,8.797
				c-2.43,2.428-6.367,2.428-8.797,0C142.287,58.941,142.287,55.001,144.714,52.572z"/>
			<path opacity="0.26" fill="#DB6714" d="M133.556,45.83c2.428-2.429,6.367-2.428,8.793,0c2.432,2.43,2.432,6.367,0,8.795
				c-2.426,2.43-6.367,2.43-8.793,0C131.126,52.199,131.126,48.262,133.556,45.83z"/>
			<path opacity="0.49" fill="#DB6714" d="M156.851,68.671c2.426-2.429,6.367-2.429,8.793,0c2.428,2.429,2.428,6.368,0.002,8.796
				c-2.428,2.429-6.369,2.429-8.795,0C154.417,75.039,154.417,71.1,156.851,68.671z"/>
			<circle opacity="0.26" fill="#DB6714" cx="139.959" cy="59.685" r="5.143"/>
			<path opacity="0.49" fill="#DB6714" d="M137.548,57.275c-2.01-2.012-2.01-5.267,0-7.277c2.008-2.006,5.266-2.006,7.275,0
				c2.008,2.011,2.008,5.269,0,7.277C142.814,59.283,139.556,59.283,137.548,57.275z"/>
			<path opacity="0.49" fill="#DB6714" d="M126.964,52.001c-2.008-2.007-2.008-5.264,0-7.272c2.01-2.008,5.268-2.008,7.273,0
				c2.01,2.009,2.01,5.266,0,7.272C132.232,54.013,128.974,54.013,126.964,52.001z"/>
			<circle opacity="0.49" fill="#DB6714" cx="132.299" cy="55.464" r="6.221"/>
			<path opacity="0.49" fill="#DB6714" d="M166.41,92.292c-2.434-2.43-2.43-6.367,0-8.796c2.426-2.429,6.365-2.429,8.795,0
				s2.428,6.369,0,8.796C172.775,94.721,168.835,94.721,166.41,92.292z"/>
			<circle opacity="0.49" fill="#DB6714" cx="168.863" cy="79.352" r="6.22"/>
			<path opacity="0.49" fill="#DB6714" d="M132.285,83.788c-2.432-2.43-2.43-6.367,0-8.796c2.426-2.43,6.367-2.43,8.793,0
				c2.43,2.43,2.43,6.366,0,8.796C138.652,86.215,134.712,86.217,132.285,83.788z"/>
			<path opacity="0.49" fill="#DB6714" d="M109.667,72.02c-2.43-2.431-2.43-6.368,0-8.795c2.428-2.43,6.367-2.43,8.795,0
				c2.434,2.428,2.43,6.367,0,8.795C116.037,74.449,112.095,74.449,109.667,72.02z"/>
			<circle opacity="0.26" fill="#DB6714" cx="112.101" cy="42.582" r="3.879"/>
		</g>
	</g>
	<g>
		<defs>
			<path id="SVGID_7_" d="M154.093,56.695c8.227,27.209-2.666,39.696-2.666,39.696c1.543,2.122,1.543,2.122,1.543,2.122
				c11.895-17.779,5.756-39.063,5.756-39.063C155.869,57.685,154.093,56.695,154.093,56.695z"/>
		</defs>
		<clipPath id="SVGID_8_">
			<use xlink:href="#SVGID_7_"  overflow="visible"/>
		</clipPath>
		<g clip-path="url(#SVGID_8_)">
			<circle opacity="0.26" fill="#DE9D04" cx="165.249" cy="75.413" r="3.879"/>
			<circle opacity="0.26" fill="#DE9D04" cx="177.329" cy="84.236" r="3.88"/>
			<path opacity="0.75" fill="#DE9D04" d="M155.23,78.155c2.008-2.009,5.266-2.009,7.271,0c2.01,2.009,2.01,5.267,0.004,7.276
				c-2.01,2.01-5.268,2.007-7.277,0C153.22,83.424,153.22,80.166,155.23,78.155z"/>
			<path opacity="0.26" fill="#DE9D04" d="M168.205,80.6c2.01-2.01,5.268-2.01,7.275,0c2.01,2.008,2.01,5.264,0,7.273
				c-2.008,2.01-5.266,2.008-7.275,0C166.199,85.863,166.199,82.607,168.205,80.6z"/>
			<circle opacity="0.26" fill="#DE9D04" cx="172.238" cy="98.25" r="5.144"/>
			<path opacity="0.49" fill="#DE9D04" d="M174.652,95.839c2.006-2.01,5.264-2.01,7.271,0c2.01,2.007,2.01,5.266,0.002,7.274
				c-2.01,2.009-5.268,2.008-7.277,0C172.642,101.107,172.642,97.846,174.652,95.839z"/>
			<circle opacity="0.75" fill="#DE9D04" cx="166.121" cy="92.132" r="6.219"/>
			<path opacity="0.26" fill="#DE9D04" d="M159.736,80.928c2.43-2.432,6.367-2.431,8.797,0c2.428,2.426,2.432,6.364,0,8.793
				c-2.43,2.43-6.367,2.43-8.797,0C157.306,87.292,157.306,83.354,159.736,80.928z"/>
			<circle opacity="0.26" fill="#DE9D04" cx="159.264" cy="101.349" r="6.22"/>
			<path opacity="0.49" fill="#DE9D04" d="M172.06,86.191c2.43-2.428,6.367-2.428,8.797,0c2.43,2.43,2.43,6.367,0,8.796
				c-2.43,2.433-6.367,2.433-8.797,0C169.632,92.561,169.632,88.621,172.06,86.191z"/>
			<circle opacity="0.26" fill="#DE9D04" cx="136.301" cy="56.817" r="3.879"/>
			<path opacity="0.26" fill="#DE9D04" d="M145.638,62.896c1.518-1.516,3.973-1.516,5.486,0c1.516,1.515,1.516,3.97,0,5.488
				c-1.514,1.512-3.969,1.512-5.486,0C144.125,66.865,144.125,64.41,145.638,62.896z"/>
			<circle opacity="0.75" fill="#DE9D04" cx="129.921" cy="63.197" r="5.143"/>
			<circle opacity="0.26" fill="#DE9D04" cx="142.895" cy="65.638" r="5.143"/>
			<circle opacity="0.26" fill="#DE9D04" cx="143.291" cy="79.653" r="5.144"/>
			<circle opacity="0.26" fill="#DE9D04" cx="150.726" cy="84.48" r="5.144"/>
			<circle opacity="0.49" fill="#DE9D04" cx="149.34" cy="80.878" r="5.143"/>
			<path opacity="0.49" fill="#DE9D04" d="M147.074,80.828c2.01-2.01,5.264-2.01,7.273,0c2.01,2.008,2.01,5.266,0,7.275
				c-2.01,2.006-5.264,2.006-7.273,0C145.064,86.094,145.064,82.836,147.074,80.828z"/>
			<circle opacity="0.75" fill="#DE9D04" cx="137.175" cy="73.536" r="6.22"/>
			<path opacity="0.26" fill="#DE9D04" d="M130.791,62.326c2.428-2.426,6.367-2.426,8.795,0c2.43,2.429,2.43,6.367,0,8.799
				c-2.43,2.43-6.367,2.43-8.797,0C128.359,68.696,128.359,64.755,130.791,62.326z"/>
			<path opacity="0.49" fill="#DE9D04" d="M143.115,67.593c2.43-2.429,6.367-2.426,8.795,0c2.43,2.433,2.432,6.368,0,8.799
				c-2.428,2.427-6.365,2.427-8.795,0C140.685,73.963,140.685,70.025,143.115,67.593z"/>
			<path opacity="0.49" fill="#DE9D04" d="M152.033,85.317c2.428-2.426,6.369-2.426,8.795,0c2.43,2.43,2.43,6.367,0,8.798
				c-2.426,2.428-6.367,2.428-8.795,0C149.603,91.685,149.603,87.747,152.033,85.317z"/>
			<circle opacity="0.49" fill="#DE9D04" cx="151.429" cy="93.162" r="6.221"/>
			<circle opacity="0.26" fill="#DE9D04" cx="165.213" cy="113.401" r="5.143"/>
			<circle opacity="0.26" fill="#DE9D04" cx="158.781" cy="112.197" r="5.143"/>
			<path opacity="0.75" fill="#DE9D04" d="M171.929,100.134c3.066,1.55,4.293,5.292,2.742,8.358
				c-1.553,3.064-5.293,4.291-8.361,2.74c-3.064-1.555-4.289-5.295-2.738-8.359S168.865,98.583,171.929,100.134z"/>
			<path opacity="0.26" fill="#DE9D04" d="M109.468,56.264c-1.516-1.518-1.516-3.972,0-5.488c1.516-1.516,3.971-1.516,5.484,0
				c1.516,1.517,1.516,3.971,0,5.488C113.439,57.776,110.984,57.776,109.468,56.264z"/>
			<circle opacity="0.26" fill="#DE9D04" cx="112.21" cy="59.004" r="5.143"/>
			<path opacity="0.26" fill="#DE9D04" d="M122.589,62.248c-2.01-2.011-2.01-5.268,0-7.274c2.008-2.011,5.264-2.011,7.273,0
				c2.008,2.007,2.008,5.264,0,7.274C127.853,64.254,124.597,64.259,122.589,62.248z"/>
			<path opacity="0.49" fill="#DE9D04" d="M123.812,56.197c-2.006-2.009-2.006-5.264,0-7.273c2.01-2.007,5.268-2.007,7.275,0
				c2.01,2.01,2.01,5.266,0,7.273C129.08,58.208,125.822,58.208,123.812,56.197z"/>
			<circle opacity="0.26" fill="#DE9D04" cx="145.35" cy="54.206" r="3.879"/>
			<path opacity="0.26" fill="#DE9D04" d="M131.638,59.638c-2.01-2.011-2.01-5.269,0-7.275c2.008-2.011,5.266-2.011,7.271,0
				c2.014,2.007,2.014,5.267,0,7.275C136.904,61.645,133.646,61.646,131.638,59.638z"/>
			<path opacity="0.49" fill="#DE9D04" d="M132.861,53.588c-2.01-2.009-2.006-5.267,0-7.275c2.01-2.008,5.27-2.008,7.279,0
				c2.006,2.009,2.006,5.267,0,7.275C138.13,55.596,134.871,55.599,132.861,53.588z"/>
			<circle opacity="0.75" fill="#DE9D04" cx="120.109" cy="64.726" r="6.219"/>
			<circle opacity="0.49" fill="#DE9D04" cx="118.565" cy="54.389" r="6.22"/>
			<path opacity="0.26" fill="#DE9D04" d="M158.406,60.896c1.516-1.516,3.973-1.516,5.486,0c1.518,1.515,1.518,3.972,0,5.484
				c-1.514,1.519-3.971,1.519-5.486,0C156.892,64.867,156.892,62.412,158.406,60.896z"/>
			<path opacity="0.26" fill="#DE9D04" d="M170.49,69.717c1.512-1.513,3.969-1.513,5.484,0c1.516,1.516,1.516,3.973,0,5.486
				s-3.973,1.514-5.484,0C168.972,73.689,168.972,71.232,170.49,69.717z"/>
			<circle opacity="0.26" fill="#DE9D04" cx="163.178" cy="107.798" r="3.879"/>
			<circle opacity="0.75" fill="#DE9D04" cx="154.769" cy="70.018" r="5.144"/>
			<path opacity="0.26" fill="#DE9D04" d="M164.107,68.824c2.012-2.01,5.268-2.01,7.277,0c2.006,2.005,2.006,5.265,0,7.273
				c-2.01,2.01-5.266,2.01-7.277,0C162.099,74.089,162.099,70.833,164.107,68.824z"/>
			<path opacity="0.26" fill="#DE9D04" d="M155.64,69.15c2.428-2.43,6.363-2.43,8.795,0c2.428,2.429,2.428,6.367,0,8.796
				c-2.432,2.43-6.367,2.427-8.795,0C153.21,75.518,153.208,71.579,155.64,69.15z"/>
			<path opacity="0.26" fill="#DE9D04" d="M151.81,72.326c2.43-2.431,6.367-2.431,8.797,0c2.426,2.428,2.426,6.366,0,8.795
				c-2.43,2.43-6.371,2.43-8.797,0C149.38,78.695,149.38,74.755,151.81,72.326z"/>
			<circle opacity="0.26" fill="#DE9D04" cx="166.344" cy="68.833" r="6.219"/>
			<circle opacity="0.26" fill="#DE9D04" cx="160.228" cy="62.716" r="6.22"/>
			<circle opacity="0.26" fill="#DE9D04" cx="149.068" cy="55.974" r="6.22"/>
			<path opacity="0.49" fill="#DE9D04" d="M167.962,74.417c2.432-2.429,6.369-2.429,8.795,0c2.43,2.431,2.43,6.368,0.004,8.797
				c-2.43,2.429-6.367,2.429-8.799,0C165.537,80.785,165.533,76.848,167.962,74.417z"/>
			<circle opacity="0.26" fill="#DE9D04" cx="151.074" cy="65.431" r="5.143"/>
			<circle opacity="0.49" fill="#DE9D04" cx="152.3" cy="59.383" r="5.143"/>
			<circle opacity="0.49" fill="#DE9D04" cx="141.719" cy="54.111" r="5.144"/>
			<path opacity="0.49" fill="#DE9D04" d="M139.019,65.608c-2.432-2.429-2.432-6.368,0-8.796c2.426-2.429,6.363-2.43,8.795,0
				c2.43,2.428,2.426,6.367,0,8.796C145.384,68.037,141.447,68.037,139.019,65.608z"/>
			<circle opacity="0.49" fill="#DE9D04" cx="181.92" cy="93.641" r="6.22"/>
			<path opacity="0.49" fill="#DE9D04" d="M175.582,89.496c-2.432-2.429-2.432-6.367,0-8.796c2.428-2.43,6.365-2.43,8.795,0
				c2.432,2.429,2.428,6.367,0,8.796C181.947,91.925,178.011,91.925,175.582,89.496z"/>
			<circle opacity="0.49" fill="#DE9D04" cx="147.796" cy="85.135" r="6.22"/>
			<path opacity="0.49" fill="#DE9D04" d="M120.781,77.764c-2.428-2.43-2.428-6.365,0-8.796c2.43-2.426,6.367-2.426,8.797,0
				c2.432,2.431,2.43,6.37,0,8.796C127.148,80.193,123.21,80.195,120.781,77.764z"/>
			<circle opacity="0.26" fill="#DE9D04" cx="123.216" cy="48.326" r="3.88"/>
		</g>
	</g>
	<g>
		<defs>
			<path id="SVGID_9_" d="M162.351,61.788c4.113,28.129-8.502,38.867-8.502,38.867c0.906,2.983,1.211,2.327,1.211,2.327
				c14.393-15.824,11.467-37.783,11.467-37.783C163.964,63.033,162.351,61.788,162.351,61.788z"/>
		</defs>
		<clipPath id="SVGID_10_">
			<use xlink:href="#SVGID_9_"  overflow="visible"/>
		</clipPath>
		<g clip-path="url(#SVGID_10_)">
			<path opacity="0.26" fill="#F6D448" d="M168.308,78.836c1.723-1.275,4.154-0.911,5.428,0.81c1.273,1.722,0.91,4.15-0.813,5.425
				c-1.723,1.275-4.15,0.912-5.426-0.813C166.224,82.538,166.587,80.108,168.308,78.836z"/>
			<path opacity="0.26" fill="#F6D448" d="M178.953,89.346c1.723-1.275,4.152-0.912,5.426,0.813c1.273,1.719,0.912,4.15-0.813,5.425
				c-1.719,1.274-4.148,0.91-5.424-0.813C176.869,93.049,177.23,90.619,178.953,89.346z"/>
			<path opacity="0.75" fill="#F6D448" d="M160.302,83.184c2.285-1.689,5.508-1.207,7.195,1.074
				c1.689,2.284,1.209,5.506-1.076,7.199c-2.283,1.688-5.504,1.203-7.195-1.077C157.537,88.096,158.019,84.875,160.302,83.184z"/>
			<path opacity="0.26" fill="#F6D448" d="M172.775,87.518c2.281-1.688,5.506-1.208,7.193,1.075
				c1.691,2.283,1.211,5.506-1.076,7.195c-2.281,1.688-5.504,1.208-7.193-1.075C170.009,92.428,170.492,89.205,172.775,87.518z"/>
			<circle opacity="0.26" fill="#F6D448" cx="174.153" cy="105.57" r="5.144"/>
			<path opacity="0.49" fill="#F6D448" d="M176.896,103.545c2.281-1.691,5.502-1.211,7.193,1.076
				c1.689,2.281,1.207,5.504-1.074,7.191c-2.287,1.691-5.508,1.208-7.197-1.075S174.611,105.232,176.896,103.545z"/>
			<circle opacity="0.75" fill="#F6D448" cx="169.007" cy="98.617" r="6.22"/>
			<circle opacity="0.26" fill="#F6D448" cx="168.05" cy="91.588" r="6.219"/>
			<circle opacity="0.26" fill="#F6D448" cx="160.865" cy="106.716" r="6.221"/>
			<circle opacity="0.49" fill="#F6D448" cx="179.46" cy="98.62" r="6.22"/>
			<path opacity="0.26" fill="#F6D448" d="M142.431,56.159c1.721-1.272,4.152-0.909,5.428,0.813c1.271,1.724,0.91,4.151-0.813,5.427
				c-1.725,1.273-4.152,0.91-5.426-0.813C140.345,59.865,140.708,57.438,142.431,56.159z"/>
			<path opacity="0.26" fill="#F6D448" d="M153.076,66.671c1.723-1.274,4.148-0.909,5.426,0.813c1.273,1.722,0.91,4.151-0.813,5.425
				s-4.15,0.91-5.426-0.809C150.99,70.375,151.353,67.945,153.076,66.671z"/>
			<path opacity="0.75" fill="#F6D448" d="M134.425,60.51c2.285-1.688,5.506-1.207,7.195,1.076c1.686,2.283,1.207,5.504-1.078,7.195
				c-2.285,1.689-5.506,1.209-7.193-1.077C131.66,65.421,132.138,62.2,134.425,60.51z"/>
			<circle opacity="0.26" fill="#F6D448" cx="149.956" cy="68.98" r="5.144"/>
			<path opacity="0.26" fill="#F6D448" d="M145.216,78.763c2.283-1.688,5.504-1.206,7.191,1.075
				c1.691,2.283,1.209,5.504-1.072,7.195c-2.285,1.691-5.504,1.207-7.195-1.075C142.449,83.675,142.933,80.453,145.216,78.763z"/>
			<path opacity="0.26" fill="#F6D448" d="M151.855,84.639c2.283-1.691,5.504-1.209,7.193,1.074
				c1.691,2.281,1.211,5.506-1.074,7.193c-2.285,1.693-5.508,1.211-7.195-1.074C149.091,89.55,149.57,86.326,151.855,84.639z"/>
			<circle opacity="0.49" fill="#F6D448" cx="154.076" cy="85.005" r="5.144"/>
			<path opacity="0.49" fill="#F6D448" d="M151.841,84.619c2.283-1.689,5.502-1.207,7.195,1.077
				c1.688,2.282,1.205,5.504-1.076,7.194c-2.287,1.688-5.504,1.207-7.195-1.076C149.078,89.529,149.558,86.31,151.841,84.619z"/>
			<path opacity="0.75" fill="#F6D448" d="M139.429,70.943c2.764-2.043,6.656-1.46,8.699,1.301c2.047,2.761,1.463,6.656-1.297,8.701
				c-2.762,2.042-6.658,1.459-8.701-1.301C136.087,76.881,136.667,72.984,139.429,70.943z"/>
			<path opacity="0.26" fill="#F6D448" d="M138.474,63.914c2.76-2.041,6.654-1.457,8.699,1.3c2.041,2.762,1.459,6.658-1.301,8.702
				c-2.762,2.043-6.66,1.46-8.701-1.301C135.126,69.854,135.71,65.958,138.474,63.914z"/>
			<path opacity="0.49" fill="#F6D448" d="M149.884,70.946c2.762-2.044,6.654-1.46,8.699,1.3c2.041,2.764,1.461,6.658-1.301,8.701
				c-2.762,2.041-6.656,1.461-8.701-1.302C146.541,76.884,147.121,72.99,149.884,70.946z"/>
			<circle opacity="0.49" fill="#F6D448" cx="159.783" cy="94.794" r="6.219"/>
			<circle opacity="0.49" fill="#F6D448" cx="154.522" cy="99.324" r="6.22"/>
			<path opacity="0.26" fill="#F6D448" d="M167.945,115.322c2.314,1.645,2.859,4.854,1.217,7.17
				c-1.645,2.317-4.855,2.863-7.17,1.221c-2.318-1.645-2.865-4.855-1.219-7.174C162.412,114.224,165.625,113.678,167.945,115.322z"
				/>
			<path opacity="0.26" fill="#F6D448" d="M161.759,113.178c2.314,1.644,2.861,4.853,1.219,7.172
				c-1.645,2.316-4.855,2.861-7.172,1.219c-2.318-1.643-2.863-4.855-1.219-7.172C156.228,112.082,159.441,111.535,161.759,113.178z"
				/>
			<circle opacity="0.75" fill="#F6D448" cx="169.972" cy="112.461" r="6.219"/>
			<circle opacity="0.26" fill="#F6D448" cx="121.4" cy="52.455" r="3.88"/>
			<path opacity="0.26" fill="#F6D448" d="M116.453,60.939c-1.688-2.285-1.207-5.505,1.076-7.193
				c2.285-1.688,5.506-1.208,7.193,1.075c1.693,2.283,1.211,5.504-1.074,7.195C121.367,63.704,118.144,63.225,116.453,60.939z"/>
			<circle opacity="0.26" fill="#F6D448" cx="134.507" cy="59.563" r="5.143"/>
			<circle opacity="0.49" fill="#F6D448" cx="136.616" cy="53.762" r="5.144"/>
			<circle opacity="0.26" fill="#F6D448" cx="154.074" cy="58.036" r="3.879"/>
			<circle opacity="0.26" fill="#F6D448" cx="143.844" cy="58.319" r="5.145"/>
			<path opacity="0.49" fill="#F6D448" d="M141.814,55.578c-1.688-2.285-1.207-5.506,1.078-7.195
				c2.283-1.688,5.506-1.208,7.195,1.075c1.688,2.284,1.205,5.505-1.078,7.196C146.728,58.342,143.507,57.862,141.814,55.578z"/>
			<circle opacity="0.75" fill="#F6D448" cx="127.553" cy="64.707" r="6.218"/>
			<path opacity="0.49" fill="#F6D448" d="M122.558,57.954c-2.045-2.762-1.459-6.657,1.299-8.699c2.762-2.042,6.658-1.46,8.701,1.3
				c2.043,2.762,1.459,6.658-1.299,8.7C128.494,61.299,124.601,60.715,122.558,57.954z"/>
			<circle opacity="0.26" fill="#F6D448" cx="168.305" cy="69.701" r="3.879"/>
			<path opacity="0.26" fill="#F6D448" d="M176.642,77.094c1.723-1.272,4.148-0.91,5.426,0.811c1.273,1.722,0.912,4.153-0.813,5.429
				c-1.723,1.271-4.15,0.907-5.426-0.813C174.556,80.797,174.917,78.367,176.642,77.094z"/>
			<path opacity="0.26" fill="#F6D448" d="M161.474,110.558c1.723-1.274,4.15-0.912,5.426,0.81c1.277,1.723,0.912,4.15-0.813,5.426
				c-1.721,1.275-4.15,0.911-5.424-0.81C159.39,114.259,159.751,111.832,161.474,110.558z"/>
			<circle opacity="0.75" fill="#F6D448" cx="161.051" cy="75.067" r="5.143"/>
			<path opacity="0.26" fill="#F6D448" d="M170.462,75.267c2.287-1.69,5.504-1.208,7.197,1.076c1.689,2.282,1.205,5.505-1.074,7.191
				c-2.287,1.691-5.506,1.208-7.195-1.075C167.699,80.175,168.181,76.954,170.462,75.267z"/>
			<circle opacity="0.26" fill="#F6D448" cx="165.74" cy="79.338" r="6.22"/>
			<path opacity="0.26" fill="#F6D448" d="M157.781,76.909c2.766-2.04,6.658-1.459,8.701,1.302c2.043,2.763,1.463,6.66-1.299,8.701
				c-2.762,2.043-6.658,1.46-8.701-1.301C154.439,82.85,155.019,78.954,157.781,76.909z"/>
			<path opacity="0.26" fill="#F6D448" d="M168.976,70.605c2.762-2.043,6.654-1.46,8.697,1.3c2.045,2.761,1.461,6.657-1.301,8.699
				c-2.764,2.044-6.656,1.462-8.701-1.3C165.63,76.543,166.214,72.646,168.976,70.605z"/>
			<circle opacity="0.26" fill="#F6D448" cx="167.53" cy="68.652" r="6.22"/>
			<circle opacity="0.26" fill="#F6D448" cx="157.49" cy="60.334" r="6.218"/>
			<circle opacity="0.49" fill="#F6D448" cx="177.149" cy="86.369" r="6.22"/>
			<circle opacity="0.26" fill="#F6D448" cx="158.076" cy="69.984" r="5.143"/>
			<circle opacity="0.49" fill="#F6D448" cx="160.181" cy="64.184" r="5.144"/>
			<path opacity="0.49" fill="#F6D448" d="M146.361,60.463c-1.691-2.283-1.209-5.505,1.076-7.193
				c2.283-1.69,5.504-1.207,7.195,1.076c1.688,2.283,1.207,5.504-1.076,7.191C151.271,63.229,148.05,62.748,146.361,60.463z"/>
			<circle opacity="0.49" fill="#F6D448" cx="151.125" cy="64.675" r="6.22"/>
			<path opacity="0.49" fill="#F6D448" d="M179.412,106.145c-2.043-2.761-1.461-6.657,1.301-8.702
				c2.758-2.041,6.656-1.458,8.699,1.302c2.043,2.764,1.461,6.66-1.301,8.701C185.349,109.487,181.453,108.905,179.412,106.145z"/>
			<path opacity="0.49" fill="#F6D448" d="M178.755,97.406c-2.045-2.761-1.461-6.656,1.301-8.695
				c2.762-2.047,6.654-1.465,8.697,1.301c2.045,2.76,1.461,6.652-1.301,8.697C184.691,100.752,180.796,100.17,178.755,97.406z"/>
			<circle opacity="0.49" fill="#F6D448" cx="151.918" cy="88.986" r="6.219"/>
			<path opacity="0.49" fill="#F6D448" d="M126.291,77.703c-2.041-2.762-1.461-6.657,1.305-8.699
				c2.76-2.043,6.654-1.459,8.697,1.301c2.045,2.762,1.459,6.654-1.301,8.699C132.232,81.046,128.335,80.465,126.291,77.703z"/>
			<circle opacity="0.26" fill="#F6D448" cx="133.053" cy="48.947" r="3.88"/>
		</g>
	</g>
</g>
<g>
	<g>
		<path fill="#FFFFFF" d="M21.084,144.849c0,0.811-0.251,1.482-0.753,2.017c-0.502,0.534-1.154,0.802-1.956,0.802
			c-0.774,0-1.403-0.268-1.887-0.802c-0.484-0.534-0.726-1.206-0.726-2.017v-1.179c0-0.808,0.242-1.479,0.726-2.017
			c0.484-0.537,1.113-0.807,1.887-0.807c0.801,0,1.453,0.269,1.956,0.804c0.502,0.536,0.753,1.209,0.753,2.02V144.849z
			 M20.188,143.661c0-0.607-0.164-1.105-0.492-1.494c-0.328-0.388-0.768-0.582-1.32-0.582c-0.522,0-0.938,0.194-1.25,0.582
			c-0.311,0.389-0.467,0.887-0.467,1.494v1.188c0,0.613,0.156,1.114,0.467,1.503c0.311,0.388,0.728,0.582,1.25,0.582
			c0.556,0,0.997-0.193,1.323-0.58s0.489-0.889,0.489-1.505V143.661z"/>
		<path fill="#FFFFFF" d="M25.382,146.843c-0.155,0.264-0.354,0.468-0.597,0.61s-0.523,0.214-0.842,0.214
			c-0.537,0-0.956-0.172-1.256-0.515s-0.451-0.877-0.451-1.603v-2.904h0.897v2.913c0,0.525,0.077,0.887,0.232,1.084
			s0.396,0.296,0.724,0.296c0.318,0,0.582-0.064,0.79-0.193c0.208-0.129,0.365-0.312,0.471-0.549v-3.551h0.897v4.926h-0.806
			L25.382,146.843z"/>
		<path fill="#FFFFFF" d="M28.801,141.457v1.188h0.933v0.665h-0.933v2.99c0,0.231,0.048,0.394,0.144,0.487
			c0.095,0.095,0.222,0.142,0.38,0.142c0.052,0,0.109-0.007,0.173-0.021c0.064-0.014,0.117-0.028,0.16-0.044l0.123,0.615
			c-0.067,0.055-0.166,0.1-0.296,0.134c-0.13,0.035-0.259,0.053-0.387,0.053c-0.364,0-0.654-0.11-0.87-0.33
			s-0.323-0.565-0.323-1.036v-2.99h-0.783v-0.665h0.783v-1.188H28.801z"/>
		<path fill="#FFFFFF" d="M33.026,143.438l-0.46-0.027c-0.237,0-0.436,0.057-0.599,0.169c-0.162,0.112-0.288,0.27-0.375,0.473v3.52
			h-0.897v-4.926h0.801l0.086,0.719c0.14-0.255,0.312-0.453,0.517-0.596c0.205-0.143,0.44-0.214,0.708-0.214
			c0.067,0,0.131,0.005,0.191,0.016s0.111,0.022,0.15,0.034L33.026,143.438z"/>
		<path fill="#FFFFFF" d="M36.986,147.571c-0.03-0.148-0.054-0.28-0.07-0.394c-0.017-0.114-0.027-0.229-0.03-0.344
			c-0.167,0.236-0.384,0.435-0.653,0.594c-0.269,0.159-0.558,0.239-0.867,0.239c-0.513,0-0.903-0.131-1.172-0.394
			c-0.269-0.263-0.403-0.625-0.403-1.086c0-0.471,0.19-0.839,0.571-1.104s0.898-0.398,1.55-0.398h0.974v-0.486
			c0-0.289-0.088-0.518-0.264-0.686c-0.176-0.168-0.425-0.253-0.747-0.253c-0.292,0-0.527,0.073-0.706,0.219
			c-0.179,0.146-0.269,0.32-0.269,0.523l-0.851,0.009l-0.009-0.027c-0.021-0.357,0.146-0.686,0.503-0.982
			c0.357-0.298,0.817-0.446,1.382-0.446c0.559,0,1.008,0.142,1.348,0.426c0.34,0.283,0.51,0.692,0.51,1.227v2.372
			c0,0.176,0.009,0.346,0.027,0.51s0.052,0.324,0.1,0.482H36.986z M35.498,146.916c0.325,0,0.617-0.084,0.878-0.251
			s0.431-0.357,0.51-0.573v-0.802H35.88c-0.361,0-0.65,0.092-0.867,0.273c-0.217,0.183-0.326,0.396-0.326,0.642
			c0,0.219,0.068,0.392,0.205,0.52C35.029,146.852,35.231,146.916,35.498,146.916z"/>
		<path fill="#FFFFFF" d="M41.949,146.246c0-0.197-0.075-0.357-0.226-0.482c-0.15-0.124-0.435-0.233-0.854-0.327
			c-0.58-0.125-1.025-0.299-1.336-0.524c-0.312-0.224-0.467-0.524-0.467-0.901c0-0.4,0.171-0.743,0.512-1.028
			s0.784-0.428,1.327-0.428c0.558,0,1.011,0.151,1.356,0.455c0.346,0.304,0.511,0.657,0.496,1.061l-0.009,0.027h-0.856
			c0-0.212-0.093-0.405-0.28-0.578c-0.187-0.173-0.423-0.26-0.708-0.26c-0.316,0-0.552,0.071-0.708,0.214s-0.234,0.313-0.234,0.51
			c0,0.194,0.067,0.345,0.203,0.451c0.135,0.106,0.413,0.203,0.835,0.291c0.604,0.128,1.062,0.309,1.375,0.542
			s0.469,0.539,0.469,0.915c0,0.438-0.177,0.794-0.531,1.07s-0.815,0.414-1.386,0.414c-0.628,0-1.123-0.159-1.484-0.479
			c-0.361-0.318-0.533-0.69-0.515-1.115l0.009-0.027h0.856c0.015,0.319,0.133,0.552,0.355,0.699s0.481,0.221,0.778,0.221
			c0.319,0,0.568-0.067,0.749-0.202C41.858,146.628,41.949,146.456,41.949,146.246z"/>
	</g>
	<g>
		<path fill="#FFFFFF" d="M21.084,157.485c0,0.811-0.251,1.482-0.753,2.017c-0.502,0.534-1.154,0.802-1.956,0.802
			c-0.774,0-1.403-0.268-1.887-0.802c-0.484-0.534-0.726-1.206-0.726-2.017v-1.179c0-0.808,0.242-1.479,0.726-2.017
			c0.484-0.537,1.113-0.807,1.887-0.807c0.801,0,1.453,0.269,1.956,0.804c0.502,0.536,0.753,1.209,0.753,2.02V157.485z
			 M20.188,156.298c0-0.607-0.164-1.105-0.492-1.494c-0.328-0.388-0.768-0.582-1.32-0.582c-0.522,0-0.938,0.194-1.25,0.582
			c-0.311,0.389-0.467,0.887-0.467,1.494v1.188c0,0.613,0.156,1.114,0.467,1.503c0.311,0.388,0.728,0.582,1.25,0.582
			c0.556,0,0.997-0.193,1.323-0.58s0.489-0.889,0.489-1.505V156.298z"/>
		<path fill="#FFFFFF" d="M25.91,158.537c0-0.301-0.108-0.552-0.323-0.756c-0.215-0.203-0.595-0.376-1.138-0.519
			c-0.674-0.167-1.2-0.413-1.577-0.737c-0.378-0.325-0.567-0.733-0.567-1.225c0-0.52,0.203-0.952,0.61-1.298s0.935-0.52,1.584-0.52
			c0.698,0,1.254,0.198,1.668,0.595c0.414,0.396,0.615,0.858,0.603,1.386l-0.014,0.027h-0.855c0-0.376-0.131-0.688-0.394-0.933
			c-0.263-0.246-0.599-0.369-1.008-0.369c-0.419,0-0.74,0.102-0.963,0.305c-0.223,0.204-0.334,0.468-0.334,0.793
			c0,0.288,0.122,0.528,0.366,0.721c0.244,0.193,0.641,0.362,1.19,0.508c0.668,0.173,1.176,0.428,1.525,0.765
			c0.349,0.337,0.523,0.753,0.523,1.248c0,0.534-0.21,0.964-0.63,1.288c-0.42,0.325-0.969,0.487-1.646,0.487
			c-0.64,0-1.206-0.179-1.696-0.537s-0.728-0.838-0.712-1.438l0.009-0.027h0.855c0,0.416,0.158,0.736,0.474,0.963
			c0.315,0.226,0.672,0.339,1.07,0.339c0.425,0,0.761-0.096,1.008-0.287C25.787,159.124,25.91,158.865,25.91,158.537z"/>
		<path fill="#FFFFFF" d="M32.807,158.087l0.009,0.027c0.012,0.622-0.207,1.143-0.656,1.562c-0.449,0.418-1.042,0.628-1.78,0.628
			c-0.75,0-1.361-0.266-1.833-0.797c-0.472-0.531-0.708-1.205-0.708-2.021v-1.179c0-0.816,0.236-1.491,0.708-2.023
			c0.472-0.533,1.083-0.8,1.833-0.8c0.75,0,1.346,0.2,1.789,0.6c0.443,0.398,0.659,0.928,0.646,1.586l-0.009,0.027h-0.86
			c0-0.464-0.137-0.831-0.41-1.102s-0.659-0.405-1.156-0.405c-0.501,0-0.9,0.202-1.197,0.605c-0.298,0.403-0.446,0.904-0.446,1.503
			v1.188c0,0.604,0.148,1.108,0.446,1.512c0.297,0.403,0.696,0.605,1.197,0.605c0.498,0,0.883-0.135,1.156-0.403
			s0.41-0.64,0.41-1.112H32.807z"/>
		<path fill="#FFFFFF" d="M36.723,158.883c0-0.197-0.075-0.357-0.226-0.482c-0.15-0.124-0.435-0.233-0.854-0.327
			c-0.58-0.125-1.025-0.299-1.336-0.524c-0.312-0.224-0.467-0.524-0.467-0.901c0-0.4,0.171-0.743,0.512-1.028
			s0.784-0.428,1.327-0.428c0.558,0,1.011,0.151,1.356,0.455c0.346,0.304,0.511,0.657,0.496,1.061l-0.009,0.027h-0.856
			c0-0.212-0.093-0.405-0.28-0.578c-0.187-0.173-0.423-0.26-0.708-0.26c-0.316,0-0.552,0.071-0.708,0.214s-0.234,0.313-0.234,0.51
			c0,0.194,0.067,0.345,0.203,0.451c0.135,0.106,0.413,0.203,0.835,0.291c0.604,0.128,1.062,0.309,1.375,0.542
			s0.469,0.539,0.469,0.915c0,0.438-0.177,0.794-0.531,1.07s-0.815,0.414-1.386,0.414c-0.628,0-1.123-0.159-1.484-0.479
			c-0.361-0.318-0.533-0.69-0.515-1.115l0.009-0.027h0.856c0.015,0.319,0.133,0.552,0.355,0.699s0.481,0.221,0.778,0.221
			c0.319,0,0.568-0.067,0.749-0.202C36.632,159.265,36.723,159.093,36.723,158.883z"/>
	</g>
	<g>
		<path fill="#FFFFFF" d="M20.23,167.069c-0.838,0.995-1.404,1.874-1.698,2.636c-0.295,0.762-0.442,1.616-0.442,2.563v0.724h-0.896
			v-0.724c0-1.002,0.185-1.904,0.554-2.707c0.368-0.803,0.901-1.634,1.6-2.492h-3.515v-0.706h4.398V167.069z"/>
		<path fill="#FFFFFF" d="M25.237,168.058c0,0.346-0.097,0.649-0.291,0.912s-0.452,0.459-0.773,0.59
			c0.376,0.131,0.678,0.339,0.905,0.624s0.342,0.614,0.342,0.987c0,0.61-0.198,1.082-0.594,1.416
			c-0.396,0.334-0.901,0.501-1.514,0.501c-0.65,0-1.181-0.167-1.592-0.501s-0.616-0.806-0.616-1.416
			c0-0.373,0.115-0.702,0.348-0.987s0.546-0.495,0.94-0.629c-0.34-0.127-0.608-0.322-0.806-0.585s-0.296-0.566-0.296-0.912
			c0-0.58,0.186-1.023,0.558-1.33c0.371-0.307,0.856-0.46,1.454-0.46c0.564,0,1.028,0.154,1.391,0.463
			C25.056,167.038,25.237,167.48,25.237,168.058z M24.527,171.153c0-0.361-0.117-0.659-0.353-0.893s-0.526-0.351-0.872-0.351
			c-0.376,0-0.688,0.117-0.933,0.351c-0.246,0.233-0.369,0.531-0.369,0.893c0,0.373,0.122,0.672,0.366,0.896s0.56,0.337,0.945,0.337
			c0.346,0,0.635-0.113,0.867-0.339C24.411,171.821,24.527,171.523,24.527,171.153z M24.34,168.071c0-0.319-0.1-0.582-0.298-0.788
			c-0.199-0.206-0.445-0.31-0.74-0.31c-0.324,0-0.592,0.1-0.801,0.298c-0.21,0.199-0.314,0.466-0.314,0.8
			c0,0.336,0.106,0.609,0.318,0.819c0.213,0.209,0.481,0.313,0.807,0.313c0.294,0,0.539-0.104,0.734-0.313
			C24.243,168.681,24.34,168.407,24.34,168.071z"/>
		<path fill="#FFFFFF" d="M26.362,167.639c0-0.386,0.124-0.711,0.373-0.975s0.581-0.396,0.997-0.396s0.748,0.132,0.997,0.395
			s0.373,0.588,0.373,0.977v0.351c0,0.385-0.123,0.708-0.371,0.97c-0.247,0.261-0.577,0.392-0.99,0.392
			c-0.419,0-0.753-0.131-1.004-0.392c-0.25-0.262-0.375-0.585-0.375-0.97V167.639z M27.026,167.989c0,0.225,0.062,0.415,0.185,0.571
			s0.3,0.234,0.53,0.234c0.222,0,0.394-0.078,0.515-0.232c0.121-0.155,0.183-0.346,0.183-0.573v-0.351
			c0-0.225-0.062-0.417-0.185-0.576s-0.297-0.239-0.521-0.239c-0.228,0-0.402,0.08-0.523,0.239s-0.183,0.352-0.183,0.576V167.989z
			 M27.973,172.491l-0.496-0.305l3.237-5.181l0.496,0.305L27.973,172.491z M29.571,171.367c0-0.386,0.125-0.71,0.374-0.973
			c0.249-0.262,0.581-0.394,0.997-0.394c0.412,0,0.744,0.132,0.994,0.394c0.251,0.263,0.376,0.587,0.376,0.973v0.354
			c0,0.389-0.125,0.714-0.373,0.975c-0.249,0.261-0.578,0.392-0.988,0.392c-0.419,0-0.754-0.131-1.004-0.392
			s-0.376-0.586-0.376-0.975V171.367z M30.236,171.722c0,0.228,0.062,0.42,0.185,0.576s0.3,0.234,0.53,0.234
			c0.222,0,0.393-0.078,0.515-0.234c0.121-0.156,0.182-0.349,0.182-0.576v-0.354c0-0.225-0.062-0.416-0.187-0.574
			c-0.124-0.157-0.297-0.236-0.519-0.236c-0.225,0-0.398,0.079-0.521,0.236c-0.123,0.158-0.185,0.35-0.185,0.574V171.722z"/>
	</g>
</g>
<g>
	<g>
		<path fill="#FFFFFF" d="M30.912,70.165v4.402c0,0.729-0.237,1.298-0.71,1.708c-0.474,0.409-1.083,0.614-1.83,0.614
			c-0.719,0-1.308-0.206-1.767-0.617c-0.458-0.411-0.687-0.979-0.687-1.705v-4.402h0.896v4.402c0,0.507,0.145,0.904,0.435,1.19
			c0.29,0.287,0.664,0.431,1.122,0.431c0.485,0,0.881-0.144,1.186-0.431c0.305-0.286,0.458-0.684,0.458-1.19v-4.402H30.912z"/>
		<path fill="#FFFFFF" d="M33.229,74.135v2.659h-0.897v-6.629h2.536c0.708,0,1.257,0.183,1.65,0.547s0.59,0.844,0.59,1.438
			c0,0.601-0.197,1.082-0.59,1.443s-0.943,0.541-1.65,0.541H33.229z M33.229,73.435h1.639c0.449,0,0.785-0.121,1.006-0.362
			c0.221-0.241,0.332-0.546,0.332-0.913s-0.111-0.674-0.334-0.919c-0.223-0.246-0.558-0.369-1.004-0.369h-1.639V73.435z"/>
		<path fill="#FFFFFF" d="M41.951,73.862h-2.795v2.932h-0.897v-6.629h4.156v0.706h-3.259v2.285h2.795V73.862z"/>
	</g>
	<g>
		<path fill="#FFFFFF" d="M28.48,89.435h-0.901v-5.8l-1.443,0.014v-0.692l2.345-0.246V89.435z"/>
		<path fill="#FFFFFF" d="M34.563,87.204h0.915v0.701h-0.915v1.529H33.67v-1.529h-2.846v-0.506l2.791-4.594h0.947V87.204z
			 M31.786,87.204h1.885v-3.109l-0.027-0.005l-0.087,0.228L31.786,87.204z"/>
		<path fill="#FFFFFF" d="M36.22,84.081c0-0.386,0.124-0.711,0.373-0.975s0.581-0.396,0.997-0.396s0.748,0.132,0.997,0.395
			s0.373,0.588,0.373,0.977v0.351c0,0.385-0.124,0.708-0.371,0.97c-0.248,0.261-0.578,0.392-0.99,0.392
			c-0.419,0-0.753-0.131-1.004-0.392c-0.25-0.262-0.375-0.585-0.375-0.97V84.081z M36.884,84.432c0,0.225,0.062,0.415,0.185,0.571
			c0.123,0.156,0.299,0.234,0.53,0.234c0.221,0,0.393-0.077,0.514-0.232c0.122-0.154,0.182-0.346,0.182-0.573v-0.351
			c0-0.225-0.062-0.417-0.184-0.576c-0.123-0.159-0.297-0.239-0.521-0.239c-0.228,0-0.402,0.08-0.523,0.239
			c-0.122,0.159-0.182,0.352-0.182,0.576V84.432z M37.831,88.934l-0.496-0.305l3.237-5.181l0.496,0.305L37.831,88.934z
			 M39.429,87.81c0-0.386,0.125-0.71,0.373-0.973c0.249-0.262,0.582-0.394,0.997-0.394c0.413,0,0.745,0.132,0.995,0.394
			c0.25,0.263,0.376,0.587,0.376,0.973v0.354c0,0.389-0.125,0.714-0.374,0.975s-0.578,0.392-0.988,0.392
			c-0.419,0-0.753-0.131-1.004-0.392s-0.375-0.586-0.375-0.975V87.81z M40.094,88.164c0,0.228,0.062,0.42,0.185,0.576
			c0.123,0.156,0.299,0.234,0.53,0.234c0.222,0,0.393-0.078,0.514-0.234c0.122-0.156,0.182-0.349,0.182-0.576V87.81
			c0-0.225-0.062-0.416-0.187-0.574c-0.125-0.157-0.297-0.236-0.519-0.236c-0.225,0-0.398,0.079-0.521,0.236
			c-0.123,0.158-0.185,0.35-0.185,0.574V88.164z"/>
	</g>
</g>
<g>
	<g>
		<path fill="#FFFFFF" d="M31.084,19.459c0,0.811-0.251,1.482-0.753,2.017c-0.502,0.534-1.154,0.802-1.956,0.802
			c-0.774,0-1.403-0.268-1.887-0.802c-0.484-0.534-0.726-1.206-0.726-2.017V18.28c0-0.808,0.242-1.479,0.726-2.017
			c0.484-0.537,1.113-0.807,1.887-0.807c0.801,0,1.453,0.269,1.956,0.804c0.502,0.536,0.753,1.209,0.753,2.02V19.459z
			 M30.188,18.271c0-0.607-0.164-1.105-0.492-1.494c-0.328-0.388-0.768-0.582-1.32-0.582c-0.522,0-0.938,0.194-1.25,0.582
			c-0.311,0.389-0.467,0.887-0.467,1.494v1.188c0,0.613,0.156,1.114,0.467,1.503c0.311,0.388,0.728,0.582,1.25,0.582
			c0.556,0,0.997-0.193,1.323-0.58s0.489-0.889,0.489-1.505V18.271z"/>
		<path fill="#FFFFFF" d="M35.91,20.511c0-0.301-0.108-0.552-0.323-0.756c-0.215-0.203-0.595-0.376-1.138-0.519
			c-0.674-0.167-1.2-0.413-1.577-0.737c-0.378-0.325-0.567-0.733-0.567-1.225c0-0.52,0.203-0.952,0.61-1.298s0.935-0.52,1.584-0.52
			c0.698,0,1.254,0.198,1.668,0.595c0.414,0.396,0.615,0.858,0.603,1.386l-0.014,0.027h-0.855c0-0.376-0.131-0.688-0.394-0.933
			c-0.263-0.246-0.599-0.369-1.008-0.369c-0.419,0-0.74,0.102-0.963,0.305c-0.223,0.204-0.334,0.468-0.334,0.793
			c0,0.288,0.122,0.528,0.366,0.721c0.244,0.193,0.641,0.362,1.19,0.508c0.668,0.173,1.176,0.428,1.525,0.765
			c0.349,0.337,0.523,0.753,0.523,1.248c0,0.534-0.21,0.964-0.63,1.288c-0.42,0.325-0.969,0.487-1.646,0.487
			c-0.64,0-1.206-0.179-1.696-0.537s-0.728-0.838-0.712-1.438l0.009-0.027h0.855c0,0.416,0.158,0.736,0.474,0.963
			c0.315,0.226,0.672,0.339,1.07,0.339c0.425,0,0.761-0.096,1.008-0.287C35.787,21.098,35.91,20.839,35.91,20.511z"/>
		<path fill="#FFFFFF" d="M42.807,20.061l0.009,0.027c0.012,0.622-0.207,1.143-0.656,1.562c-0.449,0.418-1.042,0.628-1.78,0.628
			c-0.75,0-1.361-0.266-1.833-0.797c-0.472-0.531-0.708-1.205-0.708-2.021V18.28c0-0.816,0.236-1.491,0.708-2.023
			c0.472-0.533,1.083-0.8,1.833-0.8c0.75,0,1.346,0.2,1.789,0.6c0.443,0.398,0.659,0.928,0.646,1.586l-0.009,0.027h-0.86
			c0-0.464-0.137-0.831-0.41-1.102s-0.659-0.405-1.156-0.405c-0.501,0-0.9,0.202-1.197,0.605c-0.298,0.403-0.446,0.904-0.446,1.503
			v1.188c0,0.604,0.148,1.108,0.446,1.512c0.297,0.403,0.696,0.605,1.197,0.605c0.498,0,0.883-0.135,1.156-0.403
			s0.41-0.64,0.41-1.112H42.807z"/>
		<path fill="#FFFFFF" d="M44.975,22.182h-0.902v-6.629h0.902V22.182z"/>
		<path fill="#FFFFFF" d="M47.515,19.523v2.658h-0.897v-6.629h2.536c0.708,0,1.257,0.183,1.65,0.547s0.59,0.844,0.59,1.438
			c0,0.601-0.197,1.082-0.59,1.443s-0.943,0.542-1.65,0.542H47.515z M47.515,18.822h1.639c0.449,0,0.785-0.121,1.006-0.362
			c0.221-0.241,0.332-0.546,0.332-0.913s-0.111-0.674-0.334-0.919c-0.223-0.246-0.558-0.369-1.004-0.369h-1.639V18.822z"/>
	</g>
	<g>
		<path fill="#FFFFFF" d="M28.166,28.095c0.261,0,0.519,0.026,0.774,0.078c0.255,0.052,0.466,0.116,0.633,0.195l-0.191,0.688
			c-0.173-0.076-0.355-0.137-0.546-0.185c-0.191-0.047-0.414-0.07-0.669-0.07c-0.416,0-0.753,0.178-1.013,0.533
			c-0.26,0.354-0.389,0.804-0.389,1.347v0.515c0.185-0.185,0.404-0.331,0.658-0.437c0.253-0.106,0.526-0.16,0.817-0.16
			c0.57,0,1.022,0.191,1.354,0.574c0.333,0.382,0.499,0.885,0.499,1.507c0,0.68-0.186,1.223-0.558,1.628
			c-0.372,0.404-0.873,0.607-1.504,0.607c-0.613,0-1.126-0.233-1.539-0.699c-0.413-0.466-0.619-1.103-0.619-1.909v-1.525
			c0-0.777,0.221-1.419,0.663-1.926S27.52,28.095,28.166,28.095z M27.952,31.269c-0.282,0-0.524,0.06-0.726,0.18
			s-0.356,0.281-0.462,0.484v0.46c0,0.562,0.122,1.006,0.366,1.332c0.245,0.326,0.544,0.489,0.899,0.489
			c0.373,0,0.661-0.142,0.863-0.426c0.202-0.283,0.303-0.653,0.303-1.108c0-0.431-0.109-0.774-0.326-1.029
			C28.652,31.396,28.347,31.269,27.952,31.269z"/>
		<path fill="#FFFFFF" d="M30.971,29.466c0-0.386,0.124-0.711,0.373-0.975s0.581-0.396,0.997-0.396s0.748,0.132,0.997,0.395
			s0.373,0.588,0.373,0.977v0.351c0,0.385-0.124,0.708-0.371,0.97c-0.248,0.261-0.578,0.392-0.99,0.392
			c-0.419,0-0.753-0.131-1.004-0.392c-0.25-0.262-0.375-0.585-0.375-0.97V29.466z M31.635,29.816c0,0.225,0.062,0.415,0.185,0.571
			c0.123,0.156,0.299,0.234,0.53,0.234c0.221,0,0.393-0.077,0.514-0.232c0.122-0.154,0.182-0.346,0.182-0.573v-0.351
			c0-0.225-0.062-0.417-0.184-0.576c-0.123-0.159-0.297-0.239-0.521-0.239c-0.228,0-0.402,0.08-0.523,0.239
			c-0.122,0.159-0.182,0.352-0.182,0.576V29.816z M32.582,34.318l-0.496-0.305l3.237-5.181l0.496,0.305L32.582,34.318z
			 M34.18,33.194c0-0.386,0.125-0.71,0.373-0.973c0.249-0.262,0.582-0.394,0.997-0.394c0.413,0,0.745,0.132,0.995,0.394
			c0.25,0.263,0.376,0.587,0.376,0.973v0.354c0,0.389-0.125,0.714-0.374,0.975s-0.578,0.392-0.988,0.392
			c-0.419,0-0.753-0.131-1.004-0.392s-0.375-0.586-0.375-0.975V33.194z M34.845,33.549c0,0.228,0.062,0.42,0.185,0.576
			c0.123,0.156,0.299,0.234,0.53,0.234c0.222,0,0.393-0.078,0.514-0.234c0.122-0.156,0.182-0.349,0.182-0.576v-0.354
			c0-0.225-0.062-0.416-0.187-0.574c-0.125-0.157-0.297-0.236-0.519-0.236c-0.225,0-0.398,0.079-0.521,0.236
			c-0.123,0.158-0.185,0.35-0.185,0.574V33.549z"/>
	</g>
</g>
<g>
	<g>
		<path fill="#FFFFFF" d="M205.038,19.633l0.009,0.027c0.013,0.622-0.206,1.143-0.655,1.562c-0.449,0.418-1.042,0.628-1.78,0.628
			c-0.749,0-1.36-0.266-1.832-0.797s-0.708-1.205-0.708-2.021v-1.179c0-0.816,0.236-1.491,0.708-2.023
			c0.472-0.533,1.083-0.8,1.832-0.8c0.75,0,1.347,0.2,1.789,0.6c0.443,0.398,0.659,0.928,0.646,1.586l-0.009,0.027h-0.86
			c0-0.464-0.137-0.831-0.41-1.102c-0.272-0.271-0.658-0.405-1.156-0.405c-0.5,0-0.899,0.202-1.197,0.605
			c-0.297,0.403-0.446,0.904-0.446,1.503v1.188c0,0.604,0.149,1.108,0.446,1.512c0.298,0.403,0.697,0.605,1.197,0.605
			c0.498,0,0.884-0.135,1.156-0.403c0.273-0.269,0.41-0.64,0.41-1.112H205.038z"/>
		<path fill="#FFFFFF" d="M209.832,18.681h-2.723v2.372h3.187v0.701h-4.083v-6.629h4.033v0.706h-3.137v2.145h2.723V18.681z"/>
		<path fill="#FFFFFF" d="M211.357,21.754v-6.629h2.162c0.691,0,1.233,0.15,1.625,0.449s0.588,0.747,0.588,1.345
			c0,0.285-0.089,0.541-0.265,0.768c-0.176,0.226-0.409,0.398-0.701,0.517c0.435,0.061,0.778,0.249,1.031,0.564
			c0.254,0.315,0.38,0.688,0.38,1.115c0,0.607-0.197,1.07-0.592,1.391s-0.929,0.48-1.603,0.48H211.357z M212.253,17.943h1.452
			c0.334,0,0.605-0.092,0.814-0.275c0.21-0.184,0.314-0.439,0.314-0.767c0-0.358-0.113-0.626-0.339-0.804
			c-0.227-0.178-0.552-0.267-0.977-0.267h-1.266V17.943z M212.253,18.645v2.408h1.729c0.41,0,0.728-0.101,0.954-0.303
			s0.339-0.487,0.339-0.858c0-0.367-0.115-0.663-0.346-0.888s-0.542-0.344-0.934-0.359h-0.059H212.253z"/>
		<path fill="#FFFFFF" d="M220.708,20.047h-2.494l-0.593,1.707h-0.915l2.391-6.629h0.77l2.34,6.629h-0.915L220.708,20.047z
			 M218.472,19.296h1.98l-0.965-2.846h-0.027L218.472,19.296z"/>
		<path fill="#FFFFFF" d="M226.712,20.083c0-0.301-0.107-0.552-0.323-0.756c-0.216-0.203-0.595-0.376-1.138-0.519
			c-0.674-0.167-1.2-0.413-1.578-0.737c-0.378-0.325-0.566-0.733-0.566-1.225c0-0.52,0.203-0.952,0.61-1.298
			c0.406-0.346,0.935-0.52,1.584-0.52c0.698,0,1.254,0.198,1.668,0.595c0.415,0.396,0.616,0.858,0.604,1.386l-0.014,0.027h-0.855
			c0-0.376-0.132-0.688-0.394-0.933c-0.263-0.246-0.6-0.369-1.009-0.369c-0.419,0-0.74,0.102-0.963,0.305
			c-0.223,0.204-0.335,0.468-0.335,0.793c0,0.288,0.122,0.528,0.367,0.721c0.244,0.193,0.641,0.362,1.19,0.508
			c0.667,0.173,1.176,0.428,1.524,0.765c0.35,0.337,0.523,0.753,0.523,1.248c0,0.534-0.21,0.964-0.63,1.288
			c-0.421,0.325-0.969,0.487-1.646,0.487c-0.641,0-1.206-0.179-1.696-0.537s-0.728-0.838-0.713-1.438l0.01-0.027h0.855
			c0,0.416,0.158,0.736,0.474,0.963c0.315,0.226,0.672,0.339,1.07,0.339c0.425,0,0.761-0.096,1.008-0.287
			S226.712,20.411,226.712,20.083z"/>
	</g>
	<g>
		<path fill="#FFFFFF" d="M204.333,34.392h-4.116v-0.614l2.081-2.481c0.37-0.449,0.621-0.807,0.753-1.072s0.198-0.533,0.198-0.804
			c0-0.307-0.09-0.558-0.269-0.753c-0.179-0.196-0.427-0.294-0.742-0.294c-0.392,0-0.689,0.12-0.895,0.359
			c-0.205,0.24-0.308,0.539-0.308,0.897h-0.864l-0.01-0.027c-0.015-0.54,0.166-0.998,0.542-1.373s0.888-0.563,1.534-0.563
			c0.592,0,1.058,0.164,1.397,0.492s0.51,0.751,0.51,1.271c0,0.349-0.096,0.69-0.289,1.024c-0.192,0.333-0.486,0.752-0.881,1.256
			l-1.671,1.958l0.01,0.022h3.019V34.392z"/>
		<path fill="#FFFFFF" d="M205.256,29.038c0-0.386,0.124-0.711,0.373-0.975s0.581-0.396,0.997-0.396s0.748,0.132,0.997,0.395
			s0.373,0.588,0.373,0.977v0.351c0,0.385-0.123,0.708-0.371,0.97c-0.247,0.261-0.577,0.392-0.99,0.392
			c-0.419,0-0.753-0.131-1.004-0.392c-0.25-0.262-0.375-0.585-0.375-0.97V29.038z M205.92,29.389c0,0.225,0.062,0.415,0.185,0.571
			s0.3,0.234,0.53,0.234c0.222,0,0.394-0.077,0.515-0.232c0.121-0.154,0.183-0.346,0.183-0.573v-0.351
			c0-0.225-0.062-0.417-0.185-0.576s-0.297-0.239-0.521-0.239c-0.228,0-0.402,0.08-0.523,0.239s-0.183,0.352-0.183,0.576V29.389z
			 M206.868,33.891l-0.496-0.305l3.237-5.181l0.496,0.305L206.868,33.891z M208.465,32.767c0-0.386,0.125-0.71,0.374-0.973
			c0.248-0.262,0.581-0.394,0.997-0.394c0.412,0,0.744,0.132,0.994,0.394c0.251,0.263,0.376,0.587,0.376,0.973v0.354
			c0,0.389-0.125,0.714-0.373,0.975c-0.249,0.261-0.578,0.392-0.988,0.392c-0.419,0-0.754-0.131-1.004-0.392
			s-0.376-0.586-0.376-0.975V32.767z M209.13,33.121c0,0.228,0.062,0.42,0.185,0.576s0.3,0.234,0.53,0.234
			c0.222,0,0.393-0.078,0.515-0.234c0.121-0.156,0.182-0.349,0.182-0.576v-0.354c0-0.225-0.063-0.416-0.187-0.574
			c-0.124-0.157-0.298-0.236-0.519-0.236c-0.225,0-0.398,0.079-0.521,0.236c-0.123,0.158-0.185,0.35-0.185,0.574V33.121z"/>
	</g>
</g>
<g>
	<g>
		<path fill="#FFFFFF" d="M209.68,60.567l0.009,0.027c0.013,0.622-0.206,1.143-0.655,1.562c-0.449,0.418-1.042,0.628-1.78,0.628
			c-0.749,0-1.36-0.266-1.832-0.797s-0.708-1.205-0.708-2.021v-1.179c0-0.816,0.236-1.491,0.708-2.023
			c0.472-0.533,1.083-0.8,1.832-0.8c0.75,0,1.347,0.2,1.789,0.6c0.443,0.398,0.659,0.928,0.646,1.586l-0.009,0.027h-0.86
			c0-0.464-0.137-0.831-0.41-1.102c-0.272-0.271-0.658-0.405-1.156-0.405c-0.5,0-0.899,0.202-1.197,0.605
			c-0.297,0.403-0.446,0.904-0.446,1.503v1.188c0,0.604,0.149,1.108,0.446,1.512c0.298,0.403,0.697,0.605,1.197,0.605
			c0.498,0,0.884-0.135,1.156-0.403c0.273-0.269,0.41-0.64,0.41-1.112H209.68z"/>
		<path fill="#FFFFFF" d="M215.867,62.688h-0.896l-3.191-5.063l-0.027,0.009v5.054h-0.896V56.06h0.896l3.191,5.059l0.027-0.01V56.06
			h0.896V62.688z"/>
		<path fill="#FFFFFF" d="M221.04,59.615h-2.723v2.372h3.187v0.701h-4.083V56.06h4.033v0.706h-3.137v2.145h2.723V59.615z"/>
		<path fill="#FFFFFF" d="M225.988,60.981h-2.494l-0.593,1.707h-0.915l2.391-6.629h0.77l2.34,6.629h-0.915L225.988,60.981z
			 M223.752,60.23h1.98l-0.965-2.846h-0.027L223.752,60.23z"/>
	</g>
	<g>
		<path fill="#FFFFFF" d="M208.975,75.324h-4.116V74.71l2.081-2.481c0.37-0.449,0.621-0.807,0.753-1.072s0.198-0.533,0.198-0.804
			c0-0.307-0.09-0.558-0.269-0.753c-0.179-0.196-0.427-0.294-0.742-0.294c-0.392,0-0.689,0.12-0.895,0.359
			c-0.205,0.24-0.308,0.539-0.308,0.897h-0.864l-0.01-0.027c-0.015-0.54,0.166-0.998,0.542-1.373s0.888-0.563,1.534-0.563
			c0.592,0,1.058,0.164,1.397,0.492s0.51,0.751,0.51,1.271c0,0.349-0.096,0.69-0.289,1.024c-0.192,0.333-0.486,0.752-0.881,1.256
			l-1.671,1.958l0.01,0.022h3.019V75.324z"/>
		<path fill="#FFFFFF" d="M209.899,69.971c0-0.386,0.124-0.711,0.373-0.975s0.581-0.396,0.997-0.396s0.748,0.132,0.997,0.395
			s0.373,0.588,0.373,0.977v0.351c0,0.385-0.123,0.708-0.371,0.97c-0.247,0.261-0.577,0.392-0.99,0.392
			c-0.419,0-0.753-0.131-1.004-0.392c-0.25-0.262-0.375-0.585-0.375-0.97V69.971z M210.563,70.321c0,0.225,0.062,0.415,0.185,0.571
			s0.3,0.234,0.53,0.234c0.222,0,0.394-0.077,0.515-0.232c0.121-0.154,0.183-0.346,0.183-0.573v-0.351
			c0-0.225-0.062-0.417-0.185-0.576s-0.297-0.239-0.521-0.239c-0.228,0-0.402,0.08-0.523,0.239s-0.183,0.352-0.183,0.576V70.321z
			 M211.51,74.823l-0.496-0.305l3.237-5.181l0.496,0.305L211.51,74.823z M213.108,73.699c0-0.386,0.125-0.71,0.374-0.973
			c0.248-0.262,0.581-0.394,0.997-0.394c0.412,0,0.744,0.132,0.994,0.394c0.251,0.263,0.376,0.587,0.376,0.973v0.354
			c0,0.389-0.125,0.714-0.373,0.975c-0.249,0.261-0.578,0.392-0.988,0.392c-0.419,0-0.754-0.131-1.004-0.392
			s-0.376-0.586-0.376-0.975V73.699z M213.773,74.054c0,0.228,0.062,0.42,0.185,0.576s0.3,0.234,0.53,0.234
			c0.222,0,0.393-0.078,0.515-0.234c0.121-0.156,0.182-0.349,0.182-0.576v-0.354c0-0.225-0.063-0.416-0.187-0.574
			c-0.124-0.157-0.298-0.236-0.519-0.236c-0.225,0-0.398,0.079-0.521,0.236c-0.123,0.158-0.185,0.35-0.185,0.574V74.054z"/>
	</g>
</g>
<g>
	<line fill="#D3EAF7" stroke="#D3EAF7" x1="55.878" y1="144.297" x2="84.45" y2="144.297"/>
	<path fill="#D3EAF7" d="M53.681,141.883c-1.335,0-2.416,1.08-2.416,2.414c0,1.335,1.081,2.418,2.416,2.418
		c1.332,0,2.414-1.083,2.414-2.418C56.095,142.963,55.013,141.883,53.681,141.883z M53.681,145.537c-0.686,0-1.242-0.553-1.242-1.24
		c0-0.684,0.557-1.238,1.242-1.238c0.684,0,1.239,0.555,1.239,1.238C54.92,144.984,54.365,145.537,53.681,145.537z"/>
</g>
<g>
	<line fill="#DB6714" stroke="#DB6714" x1="65.439" y1="18.586" x2="141.796" y2="18.586"/>
	<path fill="#DB6714" d="M63.242,16.171c-1.334,0-2.416,1.08-2.416,2.415c0,1.334,1.082,2.416,2.416,2.416
		c1.332,0,2.414-1.082,2.414-2.416C65.656,17.251,64.574,16.171,63.242,16.171z M63.242,19.825c-0.686,0-1.242-0.555-1.242-1.239
		c0-0.686,0.557-1.24,1.242-1.24c0.684,0,1.238,0.555,1.238,1.24C64.48,19.271,63.925,19.825,63.242,19.825z"/>
</g>
<g>
	<line fill="#DE9D04" stroke="#DE9D04" x1="179.974" y1="18.586" x2="155.869" y2="18.586"/>
	<path fill="#DE9D04" d="M179.757,18.586c0,1.334,1.078,2.416,2.414,2.416c1.334,0,2.414-1.082,2.414-2.416
		c0-1.335-1.08-2.415-2.414-2.415C180.835,16.171,179.757,17.251,179.757,18.586z M180.931,18.586c0-0.686,0.557-1.24,1.24-1.24
		c0.686,0,1.238,0.555,1.238,1.24c0,0.685-0.553,1.239-1.238,1.239C181.488,19.825,180.931,19.271,180.931,18.586z"/>
</g>
<path fill="#F6D448" d="M193.933,63.464c0,1.335,1.08,2.415,2.414,2.415c1.336,0,2.418-1.08,2.418-2.415
	c0-1.333-1.082-2.414-2.418-2.414C195.013,61.05,193.933,62.131,193.933,63.464z M195.109,63.464c0-0.684,0.555-1.239,1.238-1.239
	c0.688,0,1.24,0.556,1.24,1.239c0,0.685-0.553,1.24-1.24,1.24C195.664,64.704,195.109,64.148,195.109,63.464z"/>
<g>
	<line fill="#D5001E" stroke="#D5001E" x1="55.572" y1="73.408" x2="64.128" y2="73.408"/>
	<path fill="#D5001E" d="M53.375,70.99c-1.332,0-2.414,1.082-2.414,2.418c0,1.332,1.082,2.414,2.414,2.414
		c1.334,0,2.416-1.082,2.416-2.414C55.791,72.072,54.708,70.99,53.375,70.99z M53.375,74.646c-0.686,0-1.24-0.555-1.24-1.238
		c0-0.688,0.555-1.241,1.24-1.241c0.684,0,1.24,0.554,1.24,1.241C54.615,74.092,54.058,74.646,53.375,74.646z"/>
</g>
<line fill="none" stroke="#D5001E" x1="64.128" y1="73.408" x2="64.128" y2="58.083"/>
<line fill="none" stroke="#D5001E" x1="64.128" y1="58.083" x2="91.587" y2="58.083"/>
<line fill="none" stroke="#DB6714" x1="141.796" y1="18.854" x2="141.796" y2="57.396"/>
<line fill="none" stroke="#DE9D04" x1="155.869" y1="18.586" x2="155.869" y2="54.785"/>
<line fill="none" stroke="#F6D448" x1="164.182" y1="63.652" x2="197.699" y2="63.652"/>
</svg>
