<?xml version="1.0" encoding="utf-8"?>
<!-- Generator: Adobe Illustrator 16.0.0, SVG Export Plug-In . SVG Version: 6.00 Build 0)  -->
<!DOCTYPE svg PUBLIC "-//W3C//DTD SVG 1.1//EN" "http://www.w3.org/Graphics/SVG/1.1/DTD/svg11.dtd">
<svg version="1.1" xmlns="http://www.w3.org/2000/svg" xmlns:xlink="http://www.w3.org/1999/xlink" x="0px" y="0px" width="219px"
	 height="190px" viewBox="0 0 219 190" enable-background="new 0 0 219 190" xml:space="preserve">
<g id="Camada_1" display="none">
	<line display="inline" fill="none" stroke="#1B171B" x1="81.62" y1="4.218" x2="81.62" y2="184.046"/>
	<rect x="83.193" y="137.21" display="inline" fill="#043988" width="88.394" height="29.796"/>
	<rect x="83.193" y="16.643" display="inline" fill="#F6D448" width="30.939" height="29.797"/>
	<rect x="83.193" y="76.463" display="inline" fill="#DB6714" width="30.939" height="29.795"/>
	<rect x="83.193" y="106.887" display="inline" fill="#D5001E" width="37.567" height="29.793"/>
	<rect x="83.193" y="46.534" display="inline" fill="#DE9D04" width="35.355" height="29.794"/>
	<g display="inline">
		<g>
			<path fill="#F6D448" d="M134.154,35.281h-1.603v-6.616h-1.655v-1.228l3.258-0.286V35.281z"/>
			<path fill="#F6D448" d="M141.498,32.297h0.902v1.244h-0.902v1.739h-1.607v-1.739h-3.264l-0.077-0.963l3.324-5.312h1.624V32.297
				L141.498,32.297z M138.008,32.297h1.883v-2.912l-0.033-0.006l-0.164,0.358L138.008,32.297z"/>
			<path fill="#F6D448" d="M143.23,28.808c0-0.474,0.153-0.868,0.461-1.184c0.307-0.315,0.732-0.473,1.279-0.473
				c0.555,0,0.983,0.157,1.288,0.471c0.304,0.313,0.456,0.709,0.456,1.186v0.424c0,0.473-0.152,0.866-0.456,1.178
				c-0.305,0.312-0.729,0.468-1.276,0.468c-0.551,0-0.979-0.156-1.289-0.468c-0.309-0.312-0.463-0.705-0.463-1.178V28.808
				L143.23,28.808z M144.3,29.231c0,0.213,0.06,0.392,0.177,0.537s0.285,0.217,0.506,0.217c0.213,0,0.377-0.072,0.492-0.217
				c0.116-0.145,0.174-0.324,0.174-0.537v-0.424c0-0.213-0.059-0.394-0.176-0.542c-0.117-0.149-0.285-0.223-0.5-0.223
				c-0.218,0-0.384,0.074-0.498,0.223c-0.117,0.148-0.175,0.329-0.175,0.542V29.231z M145.246,34.681l-0.781-0.413l3.914-6.264
				l0.781,0.413L145.246,34.681z M147.063,33.316c0-0.47,0.154-0.862,0.463-1.178c0.31-0.315,0.736-0.473,1.283-0.473
				c0.551,0,0.979,0.157,1.284,0.47c0.308,0.314,0.46,0.708,0.46,1.181v0.424c0,0.477-0.152,0.872-0.457,1.183
				c-0.305,0.312-0.729,0.468-1.275,0.468c-0.551,0-0.981-0.157-1.291-0.47c-0.312-0.314-0.467-0.708-0.467-1.181V33.316z
				 M148.131,33.74c0,0.209,0.063,0.388,0.189,0.537c0.127,0.148,0.293,0.223,0.498,0.223c0.238,0,0.408-0.069,0.513-0.207
				c0.103-0.137,0.153-0.322,0.153-0.553v-0.424c0-0.209-0.06-0.388-0.176-0.537c-0.117-0.148-0.285-0.223-0.502-0.223
				c-0.22,0-0.388,0.074-0.502,0.223c-0.117,0.149-0.175,0.328-0.175,0.537L148.131,33.74L148.131,33.74z"/>
		</g>
	</g>
	<g display="inline">
		<g>
			<path fill="#DE9D04" d="M134.156,65.173h-1.604v-6.616h-1.656v-1.228l3.26-0.286V65.173z"/>
			<path fill="#DE9D04" d="M139.925,57.043c0.312,0,0.601,0.028,0.867,0.085s0.528,0.141,0.789,0.25l-0.286,1.178
				c-0.249-0.084-0.473-0.148-0.671-0.19s-0.429-0.063-0.688-0.063c-0.47,0-0.849,0.18-1.137,0.54
				c-0.287,0.36-0.432,0.86-0.432,1.503v0.258c0.213-0.209,0.467-0.372,0.762-0.487c0.296-0.116,0.625-0.173,0.988-0.173
				c0.688,0,1.222,0.243,1.607,0.729c0.385,0.486,0.577,1.12,0.577,1.902c0,0.804-0.25,1.457-0.749,1.959
				c-0.498,0.503-1.15,0.754-1.953,0.754c-0.836,0-1.52-0.286-2.045-0.859c-0.527-0.572-0.791-1.356-0.791-2.35V60.4
				c0-1.016,0.299-1.83,0.896-2.441S139.012,57.043,139.925,57.043z M139.583,61.16c-0.29,0-0.536,0.047-0.74,0.14
				c-0.202,0.094-0.362,0.223-0.476,0.388v0.429c0,0.617,0.111,1.094,0.338,1.431c0.227,0.338,0.523,0.507,0.895,0.507
				c0.334,0,0.602-0.141,0.799-0.421c0.197-0.281,0.297-0.634,0.297-1.06c0-0.44-0.1-0.786-0.299-1.038
				C140.195,61.284,139.925,61.16,139.583,61.16z"/>
			<path fill="#DE9D04" d="M143.232,58.7c0-0.474,0.152-0.868,0.459-1.184c0.308-0.315,0.733-0.473,1.281-0.473
				c0.553,0,0.982,0.157,1.287,0.471c0.305,0.313,0.456,0.709,0.456,1.186v0.424c0,0.473-0.151,0.866-0.456,1.178
				c-0.305,0.312-0.73,0.468-1.277,0.468c-0.551,0-0.979-0.156-1.287-0.468c-0.309-0.313-0.463-0.705-0.463-1.178V58.7L143.232,58.7
				z M144.301,59.124c0,0.213,0.059,0.392,0.176,0.537c0.119,0.145,0.287,0.217,0.508,0.217c0.213,0,0.377-0.072,0.492-0.217
				s0.174-0.324,0.174-0.537V58.7c0-0.213-0.06-0.394-0.176-0.542c-0.119-0.149-0.285-0.223-0.502-0.223s-0.383,0.074-0.498,0.223
				c-0.115,0.148-0.174,0.329-0.174,0.542V59.124z M145.247,64.573l-0.781-0.413l3.914-6.264l0.781,0.413L145.247,64.573z
				 M147.063,63.208c0-0.47,0.154-0.862,0.463-1.178c0.31-0.315,0.736-0.473,1.283-0.473c0.551,0,0.979,0.157,1.284,0.47
				c0.308,0.314,0.46,0.708,0.46,1.181v0.424c0,0.477-0.152,0.872-0.457,1.183c-0.305,0.312-0.729,0.468-1.275,0.468
				c-0.551,0-0.981-0.157-1.291-0.47c-0.312-0.314-0.467-0.708-0.467-1.181V63.208z M148.132,63.632
				c0,0.209,0.063,0.388,0.188,0.537c0.128,0.148,0.293,0.223,0.5,0.223c0.238,0,0.408-0.069,0.512-0.207
				c0.104-0.137,0.154-0.322,0.154-0.553v-0.424c0-0.209-0.061-0.388-0.178-0.537c-0.117-0.148-0.283-0.223-0.5-0.223
				c-0.221,0-0.389,0.074-0.504,0.223s-0.174,0.328-0.174,0.537L148.132,63.632L148.132,63.632z"/>
		</g>
	</g>
	<g display="inline">
		<g>
			<path fill="#DB6714" d="M134.154,98.48h-1.603v-6.616h-1.655v-1.228l3.258-0.286V98.48z"/>
			<path fill="#DB6714" d="M141.498,95.498h0.902v1.244h-0.902v1.738h-1.607v-1.738h-3.264l-0.077-0.965l3.324-5.312h1.624V95.498
				L141.498,95.498z M138.008,95.498h1.883v-2.912l-0.033-0.005l-0.164,0.357L138.008,95.498z"/>
			<path fill="#DB6714" d="M143.23,92.008c0-0.473,0.153-0.867,0.461-1.183c0.307-0.316,0.732-0.474,1.279-0.474
				c0.555,0,0.983,0.157,1.288,0.471c0.304,0.313,0.456,0.709,0.456,1.186v0.424c0,0.474-0.152,0.866-0.456,1.179
				c-0.305,0.312-0.729,0.468-1.276,0.468c-0.551,0-0.979-0.156-1.289-0.468c-0.309-0.313-0.463-0.705-0.463-1.179V92.008
				L143.23,92.008z M144.3,92.432c0,0.213,0.06,0.393,0.177,0.537c0.117,0.146,0.285,0.218,0.506,0.218
				c0.213,0,0.377-0.072,0.492-0.218c0.116-0.145,0.174-0.324,0.174-0.537v-0.424c0-0.212-0.059-0.394-0.176-0.542
				s-0.285-0.223-0.5-0.223c-0.218,0-0.384,0.074-0.498,0.223c-0.117,0.148-0.175,0.33-0.175,0.542V92.432z M145.246,97.882
				l-0.781-0.413l3.914-6.264l0.781,0.412L145.246,97.882z M147.063,96.518c0-0.471,0.154-0.863,0.463-1.179
				c0.31-0.316,0.736-0.474,1.283-0.474c0.551,0,0.979,0.156,1.284,0.471c0.308,0.313,0.46,0.707,0.46,1.182v0.424
				c0,0.477-0.152,0.871-0.457,1.184s-0.729,0.469-1.275,0.469c-0.551,0-0.981-0.158-1.291-0.472
				c-0.312-0.313-0.467-0.707-0.467-1.181V96.518z M148.131,96.939c0,0.209,0.063,0.389,0.189,0.537s0.293,0.224,0.498,0.224
				c0.238,0,0.408-0.069,0.513-0.207c0.103-0.138,0.153-0.321,0.153-0.554v-0.424c0-0.209-0.06-0.389-0.176-0.537
				c-0.117-0.147-0.285-0.223-0.502-0.223c-0.22,0-0.388,0.074-0.502,0.223c-0.117,0.148-0.175,0.328-0.175,0.537L148.131,96.939
				L148.131,96.939z"/>
		</g>
	</g>
	<g display="inline">
		<g>
			<path fill="#D5001E" d="M134.689,128.551h-1.603v-6.615h-1.655v-1.229l3.258-0.286V128.551z"/>
			<path fill="#D5001E" d="M142.521,121.773c-0.906,1.062-1.522,2.017-1.851,2.865c-0.325,0.85-0.489,1.823-0.489,2.92v0.991h-1.606
				v-0.991c0-1.115,0.204-2.133,0.612-3.052c0.41-0.919,1.006-1.829,1.787-2.733h-4.091v-1.237h5.638V121.773L142.521,121.773z"/>
			<path fill="#D5001E" d="M143.203,122.077c0-0.474,0.152-0.867,0.46-1.183c0.308-0.316,0.733-0.475,1.28-0.475
				c0.554,0,0.982,0.157,1.287,0.471s0.457,0.709,0.457,1.187v0.424c0,0.474-0.152,0.866-0.457,1.179s-0.729,0.469-1.276,0.469
				c-0.552,0-0.979-0.156-1.288-0.469s-0.463-0.705-0.463-1.179V122.077L143.203,122.077z M144.271,122.501
				c0,0.213,0.059,0.394,0.176,0.537c0.117,0.146,0.285,0.218,0.507,0.218c0.213,0,0.377-0.072,0.491-0.218
				c0.117-0.146,0.175-0.324,0.175-0.537v-0.424c0-0.212-0.06-0.394-0.177-0.542s-0.284-0.223-0.5-0.223
				c-0.217,0-0.383,0.074-0.498,0.223c-0.116,0.148-0.174,0.33-0.174,0.542V122.501z M145.218,127.951l-0.78-0.413l3.914-6.265
				l0.78,0.412L145.218,127.951z M147.034,126.586c0-0.47,0.153-0.861,0.463-1.178s0.735-0.475,1.282-0.475
				c0.551,0,0.979,0.156,1.285,0.471s0.459,0.707,0.459,1.182v0.424c0,0.477-0.151,0.871-0.457,1.184
				c-0.305,0.313-0.729,0.469-1.275,0.469c-0.551,0-0.98-0.157-1.291-0.471s-0.466-0.707-0.466-1.182V126.586z M148.104,127.01
				c0,0.209,0.063,0.389,0.188,0.536c0.127,0.149,0.293,0.224,0.499,0.224c0.238,0,0.408-0.068,0.512-0.207
				c0.104-0.138,0.154-0.32,0.154-0.553v-0.424c0-0.209-0.061-0.389-0.178-0.537c-0.116-0.148-0.283-0.223-0.5-0.223
				c-0.221,0-0.389,0.074-0.504,0.223s-0.174,0.328-0.174,0.537v0.424H148.104z"/>
		</g>
	</g>
	<g display="inline">
		<g>
			<path fill="#043988" d="M188.354,153.798c0.381,0,0.664-0.099,0.85-0.297s0.277-0.478,0.277-0.837
				c0-0.301-0.098-0.551-0.291-0.749c-0.194-0.196-0.467-0.297-0.814-0.297c-0.294,0-0.54,0.09-0.74,0.271
				c-0.199,0.18-0.3,0.408-0.3,0.688h-1.553l-0.011-0.033c-0.022-0.628,0.22-1.145,0.727-1.552c0.507-0.408,1.132-0.611,1.877-0.611
				c0.829,0,1.488,0.195,1.977,0.586c0.487,0.392,0.731,0.951,0.731,1.683c0,0.367-0.104,0.703-0.315,1.01s-0.5,0.548-0.867,0.725
				c0.418,0.157,0.74,0.396,0.969,0.719c0.229,0.321,0.342,0.709,0.342,1.164c0,0.733-0.266,1.312-0.796,1.73s-1.21,0.63-2.039,0.63
				c-0.729,0-1.369-0.198-1.915-0.594c-0.547-0.396-0.813-0.952-0.793-1.668l0.012-0.033h1.563c0,0.301,0.105,0.554,0.316,0.757
				c0.211,0.204,0.482,0.307,0.816,0.307c0.367,0,0.664-0.108,0.893-0.326c0.228-0.215,0.342-0.488,0.342-0.819
				c0-0.422-0.106-0.733-0.319-0.938c-0.213-0.203-0.524-0.305-0.937-0.305h-0.887v-1.205h0.887V153.798z"/>
			<path fill="#043988" d="M194.563,157.393c0.396,0,0.721-0.148,0.974-0.449c0.254-0.299,0.38-0.715,0.38-1.252v-0.518
				c-0.18,0.23-0.393,0.406-0.639,0.523c-0.245,0.117-0.51,0.176-0.793,0.176c-0.744,0-1.33-0.242-1.754-0.727
				c-0.424-0.485-0.635-1.144-0.635-1.977c0-0.805,0.252-1.47,0.754-1.998c0.502-0.529,1.146-0.793,1.926-0.793
				c0.809,0,1.468,0.271,1.978,0.814c0.511,0.543,0.765,1.295,0.765,2.257v2.157c0,0.924-0.276,1.658-0.834,2.201
				c-0.556,0.543-1.263,0.814-2.121,0.814c-0.278,0-0.565-0.03-0.86-0.092c-0.296-0.061-0.574-0.145-0.834-0.256l0.271-1.16
				c0.23,0.096,0.457,0.164,0.676,0.209C194.033,157.37,194.282,157.393,194.563,157.393z M194.754,154.695
				c0.262,0,0.49-0.055,0.688-0.16c0.199-0.105,0.356-0.249,0.475-0.43v-0.936c0-0.503-0.104-0.889-0.309-1.152
				c-0.205-0.268-0.48-0.399-0.825-0.399c-0.323,0-0.583,0.149-0.781,0.448c-0.198,0.3-0.298,0.666-0.298,1.104
				c0,0.458,0.09,0.827,0.271,1.105C194.152,154.557,194.412,154.695,194.754,154.695z"/>
			<path fill="#043988" d="M198.623,152.036c0-0.474,0.152-0.867,0.46-1.183c0.308-0.316,0.733-0.475,1.28-0.475
				c0.554,0,0.982,0.157,1.287,0.471s0.457,0.709,0.457,1.187v0.424c0,0.474-0.152,0.866-0.457,1.179s-0.729,0.469-1.276,0.469
				c-0.551,0-0.979-0.156-1.288-0.469s-0.463-0.705-0.463-1.179V152.036L198.623,152.036z M199.691,152.46
				c0,0.213,0.059,0.394,0.176,0.537c0.117,0.146,0.285,0.218,0.507,0.218c0.213,0,0.377-0.072,0.492-0.218
				c0.116-0.146,0.174-0.324,0.174-0.537v-0.424c0-0.212-0.06-0.394-0.177-0.542s-0.284-0.223-0.5-0.223
				c-0.217,0-0.383,0.074-0.498,0.223c-0.116,0.148-0.174,0.33-0.174,0.542V152.46z M200.639,157.91l-0.781-0.413l3.914-6.265
				l0.78,0.412L200.639,157.91z M202.454,156.545c0-0.47,0.153-0.861,0.463-1.178s0.735-0.475,1.282-0.475
				c0.551,0,0.979,0.156,1.285,0.471s0.459,0.707,0.459,1.182v0.424c0,0.477-0.151,0.871-0.457,1.184
				c-0.305,0.313-0.729,0.469-1.275,0.469c-0.551,0-0.98-0.157-1.291-0.471s-0.466-0.707-0.466-1.182V156.545z M203.521,156.969
				c0,0.209,0.063,0.389,0.189,0.536c0.127,0.149,0.293,0.224,0.499,0.224c0.238,0,0.408-0.068,0.513-0.207
				c0.103-0.138,0.153-0.32,0.153-0.553v-0.424c0-0.209-0.06-0.389-0.177-0.537s-0.284-0.223-0.502-0.223
				c-0.219,0-0.387,0.074-0.502,0.223c-0.116,0.148-0.174,0.328-0.174,0.537V156.969L203.521,156.969z"/>
		</g>
	</g>
	<g display="inline">
		<g>
			<path fill="#4D4D4D" d="M10.077,36.09h-3.05l-0.701,2.011H5.734l2.553-7.213h0.54l2.534,7.213H10.77L10.077,36.09z M7.209,35.56
				h2.683l-1.317-3.824h-0.03L7.209,35.56z"/>
			<path fill="#4D4D4D" d="M14.191,37.705c0.365,0,0.689-0.112,0.971-0.337c0.281-0.224,0.423-0.537,0.423-0.936h0.511l0.009,0.03
				c0.013,0.495-0.175,0.91-0.563,1.243c-0.389,0.334-0.839,0.5-1.351,0.5c-0.688,0-1.223-0.251-1.606-0.753
				s-0.575-1.145-0.575-1.927v-0.208c0-0.779,0.191-1.42,0.573-1.922s0.916-0.753,1.604-0.753c0.554,0,1.015,0.174,1.384,0.521
				c0.369,0.347,0.547,0.802,0.534,1.367l-0.009,0.03h-0.511c0-0.429-0.136-0.772-0.406-1.028c-0.271-0.256-0.602-0.384-0.992-0.384
				c-0.541,0-0.943,0.207-1.208,0.619c-0.264,0.413-0.396,0.93-0.396,1.551v0.208c0,0.631,0.132,1.152,0.396,1.563
				C13.243,37.5,13.646,37.705,14.191,37.705z"/>
			<path fill="#4D4D4D" d="M17.971,31.206h-0.567v-0.832h0.567V31.206z M17.971,38.102h-0.567v-5.36h0.567V38.102z"/>
			<path fill="#4D4D4D" d="M20.038,32.741l0.052,0.882c0.166-0.31,0.386-0.551,0.661-0.723s0.603-0.258,0.981-0.258
				c0.395,0,0.724,0.099,0.987,0.295c0.265,0.197,0.454,0.496,0.568,0.899c0.156-0.374,0.378-0.666,0.666-0.877
				s0.635-0.317,1.043-0.317c0.55,0,0.976,0.19,1.276,0.57s0.451,0.968,0.451,1.764v3.126H26.15v-3.136
				c0-0.661-0.112-1.127-0.339-1.399c-0.226-0.272-0.537-0.409-0.936-0.409c-0.436,0-0.772,0.138-1.012,0.414
				c-0.238,0.276-0.39,0.631-0.453,1.067c0,0.037,0.001,0.073,0.002,0.109c0.002,0.037,0.003,0.083,0.003,0.139v3.215H22.84v-3.136
				c0-0.647-0.114-1.11-0.342-1.39c-0.228-0.28-0.54-0.418-0.938-0.418c-0.401,0-0.72,0.104-0.957,0.314
				c-0.237,0.209-0.403,0.493-0.499,0.85v3.78h-0.572v-5.36L20.038,32.741L20.038,32.741z"/>
			<path fill="#4D4D4D" d="M31.482,38.102c-0.035-0.188-0.062-0.35-0.079-0.485c-0.018-0.136-0.026-0.274-0.026-0.417
				c-0.178,0.291-0.428,0.531-0.749,0.721c-0.321,0.19-0.69,0.285-1.107,0.285c-0.506,0-0.897-0.14-1.176-0.418
				c-0.279-0.279-0.418-0.658-0.418-1.137s0.202-0.867,0.606-1.164c0.403-0.297,0.929-0.446,1.574-0.446h1.27v-0.664
				c0-0.383-0.116-0.684-0.351-0.901c-0.233-0.218-0.563-0.327-0.99-0.327c-0.392,0-0.707,0.099-0.947,0.297
				c-0.24,0.198-0.36,0.448-0.36,0.748H28.2l-0.01-0.03c-0.02-0.403,0.146-0.757,0.498-1.063s0.811-0.458,1.377-0.458
				s1.021,0.15,1.365,0.451c0.344,0.3,0.516,0.731,0.516,1.293v2.635c0,0.188,0.011,0.372,0.031,0.55
				c0.021,0.179,0.055,0.355,0.103,0.53H31.482z M29.583,37.681c0.438,0,0.819-0.108,1.141-0.325
				c0.322-0.217,0.539-0.495,0.653-0.834v-1.026h-1.273c-0.465,0-0.849,0.115-1.15,0.344c-0.303,0.23-0.454,0.506-0.454,0.83
				c0,0.304,0.097,0.548,0.289,0.733C28.98,37.588,29.245,37.681,29.583,37.681z"/>
			<path fill="#4D4D4D" d="M35.62,35.466c0-0.855,0.175-1.54,0.523-2.053c0.348-0.514,0.834-0.771,1.458-0.771
				c0.353,0,0.662,0.078,0.928,0.233c0.266,0.155,0.486,0.375,0.661,0.659v-3.161h0.573v7.728h-0.468l-0.081-0.778
				c-0.176,0.284-0.398,0.502-0.669,0.654s-0.588,0.228-0.954,0.228c-0.617,0-1.101-0.239-1.448-0.716
				c-0.349-0.477-0.523-1.117-0.523-1.919V35.466L35.62,35.466z M36.193,35.57c0,0.647,0.125,1.162,0.375,1.545
				c0.249,0.383,0.626,0.575,1.128,0.575c0.369,0,0.677-0.085,0.922-0.255c0.245-0.17,0.436-0.405,0.572-0.706v-2.542
				c-0.13-0.304-0.314-0.552-0.554-0.743c-0.238-0.191-0.549-0.287-0.931-0.287c-0.503,0-0.88,0.214-1.133,0.641
				c-0.254,0.428-0.38,0.983-0.38,1.667L36.193,35.57L36.193,35.57z"/>
			<path fill="#4D4D4D" d="M43.248,38.206c-0.668,0-1.211-0.245-1.628-0.736c-0.417-0.49-0.625-1.12-0.625-1.89v-0.272
				c0-0.773,0.211-1.41,0.633-1.912c0.421-0.502,0.943-0.753,1.567-0.753c0.627,0,1.111,0.209,1.453,0.627
				c0.342,0.418,0.514,0.98,0.514,1.687v0.461h-3.594v0.164c0,0.611,0.148,1.118,0.446,1.521c0.297,0.403,0.708,0.604,1.233,0.604
				c0.314,0,0.604-0.054,0.868-0.161c0.265-0.107,0.484-0.252,0.659-0.434l0.243,0.406c-0.182,0.198-0.419,0.362-0.714,0.493
				C44.011,38.14,43.658,38.206,43.248,38.206z M43.195,33.147c-0.439,0-0.8,0.164-1.083,0.491
				c-0.283,0.327-0.449,0.741-0.497,1.243l0.015,0.03h2.959v-0.124c0-0.476-0.12-0.868-0.36-1.177
				C43.989,33.301,43.645,33.147,43.195,33.147z"/>
			<path fill="#4D4D4D" d="M51.085,38.102h-0.573v-6.703l-1.646,0.208v-0.476l2.22-0.347L51.085,38.102L51.085,38.102z"/>
			<path fill="#4D4D4D" d="M58.225,35.555c0,0.822-0.191,1.47-0.575,1.942c-0.384,0.473-0.909,0.708-1.577,0.708
				c-0.668,0-1.196-0.237-1.585-0.711c-0.388-0.474-0.582-1.12-0.582-1.939v-2.12c0-0.816,0.192-1.461,0.577-1.937
				c0.386-0.476,0.912-0.713,1.58-0.713s1.195,0.238,1.582,0.713s0.58,1.121,0.58,1.937V35.555z M57.652,33.341
				c0-0.631-0.138-1.13-0.413-1.499c-0.275-0.369-0.668-0.552-1.177-0.552s-0.901,0.185-1.177,0.555
				c-0.274,0.37-0.412,0.869-0.412,1.496v2.304c0,0.624,0.139,1.124,0.417,1.499c0.278,0.375,0.673,0.562,1.182,0.562
				c0.506,0,0.896-0.187,1.169-0.56c0.273-0.373,0.411-0.874,0.411-1.501V33.341z"/>
			<path fill="#4D4D4D" d="M63.642,35.555c0,0.822-0.191,1.47-0.575,1.942c-0.384,0.473-0.909,0.708-1.577,0.708
				c-0.668,0-1.196-0.237-1.585-0.711c-0.388-0.474-0.582-1.12-0.582-1.939v-2.12c0-0.816,0.192-1.461,0.577-1.937
				c0.386-0.476,0.912-0.713,1.58-0.713s1.195,0.238,1.582,0.713s0.58,1.121,0.58,1.937V35.555z M63.069,33.341
				c0-0.631-0.138-1.13-0.413-1.499c-0.275-0.369-0.668-0.552-1.177-0.552s-0.901,0.185-1.177,0.555
				c-0.274,0.37-0.412,0.869-0.412,1.496v2.304c0,0.624,0.139,1.124,0.417,1.499c0.278,0.375,0.673,0.562,1.182,0.562
				c0.506,0,0.896-0.187,1.169-0.56c0.273-0.373,0.411-0.874,0.411-1.501V33.341z"/>
		</g>
	</g>
	<g display="inline">
		<g>
			<path fill="#4D4D4D" d="M19.91,67.914v-7.213h2.119c0.85,0,1.552,0.294,2.107,0.882c0.555,0.588,0.833,1.342,0.833,2.264v0.927
				c0,0.921-0.278,1.675-0.833,2.261c-0.556,0.586-1.258,0.879-2.107,0.879H19.91z M20.483,61.207v6.207h1.546
				c0.688,0,1.254-0.249,1.699-0.748s0.668-1.129,0.668-1.892v-0.941c0-0.753-0.224-1.379-0.671-1.877
				c-0.446-0.499-1.013-0.748-1.696-0.748L20.483,61.207L20.483,61.207z"/>
			<path fill="#4D4D4D" d="M28.315,68.018c-0.668,0-1.211-0.245-1.628-0.736c-0.417-0.49-0.625-1.12-0.625-1.89V65.12
				c0-0.773,0.211-1.41,0.633-1.912c0.421-0.502,0.943-0.753,1.567-0.753c0.627,0,1.111,0.209,1.453,0.627
				c0.342,0.418,0.514,0.98,0.514,1.687v0.461h-3.594v0.164c0,0.611,0.148,1.118,0.446,1.521c0.297,0.403,0.708,0.604,1.233,0.604
				c0.314,0,0.604-0.054,0.868-0.161c0.265-0.107,0.484-0.252,0.659-0.434l0.243,0.406c-0.182,0.198-0.419,0.362-0.714,0.493
				C29.078,67.953,28.726,68.018,28.315,68.018z M28.263,62.96c-0.439,0-0.8,0.164-1.083,0.491
				c-0.283,0.327-0.449,0.741-0.497,1.243l0.015,0.03h2.959V64.6c0-0.476-0.12-0.868-0.36-1.177
				C29.057,63.114,28.712,62.96,28.263,62.96z"/>
			<path fill="#4D4D4D" d="M37.966,67.914h-4.229v-0.456l2.286-2.77c0.407-0.499,0.688-0.907,0.845-1.226
				c0.155-0.319,0.233-0.633,0.233-0.944c0-0.439-0.113-0.785-0.341-1.038c-0.228-0.253-0.564-0.379-1.01-0.379
				c-0.496,0-0.878,0.153-1.146,0.458c-0.267,0.306-0.4,0.696-0.4,1.172H33.67l-0.009-0.03c-0.017-0.588,0.167-1.086,0.549-1.494
				c0.382-0.408,0.896-0.612,1.541-0.612c0.595,0,1.064,0.173,1.408,0.52c0.344,0.347,0.516,0.816,0.516,1.407
				c0,0.39-0.113,0.78-0.339,1.169c-0.227,0.39-0.559,0.862-0.998,1.417l-1.88,2.279l0.01,0.024h3.498V67.914z"/>
			<path fill="#4D4D4D" d="M43.292,65.368c0,0.822-0.191,1.47-0.575,1.942c-0.384,0.473-0.909,0.708-1.577,0.708
				s-1.196-0.237-1.585-0.711c-0.388-0.474-0.582-1.12-0.582-1.939v-2.12c0-0.816,0.192-1.461,0.577-1.937
				c0.386-0.476,0.912-0.713,1.58-0.713s1.195,0.238,1.582,0.713c0.387,0.475,0.58,1.121,0.58,1.937V65.368L43.292,65.368z
				 M42.72,63.153c0-0.631-0.138-1.13-0.413-1.499c-0.275-0.369-0.668-0.552-1.177-0.552c-0.509,0-0.901,0.185-1.177,0.555
				c-0.274,0.37-0.412,0.869-0.412,1.496v2.304c0,0.624,0.139,1.124,0.417,1.499s0.673,0.562,1.182,0.562
				c0.506,0,0.896-0.187,1.169-0.56s0.411-0.874,0.411-1.501V63.153z"/>
			<path fill="#4D4D4D" d="M50.241,67.914c-0.035-0.188-0.062-0.35-0.079-0.485c-0.018-0.136-0.026-0.274-0.026-0.417
				c-0.178,0.291-0.428,0.531-0.749,0.721c-0.321,0.19-0.69,0.285-1.107,0.285c-0.506,0-0.897-0.14-1.176-0.418
				c-0.279-0.279-0.418-0.658-0.418-1.137s0.202-0.867,0.606-1.164c0.403-0.297,0.929-0.446,1.574-0.446h1.27v-0.664
				c0-0.383-0.116-0.684-0.351-0.901c-0.233-0.218-0.563-0.327-0.99-0.327c-0.392,0-0.707,0.099-0.947,0.297
				c-0.24,0.198-0.36,0.448-0.36,0.748h-0.529l-0.01-0.03c-0.02-0.403,0.146-0.757,0.498-1.063c0.352-0.306,0.811-0.458,1.377-0.458
				c0.566,0,1.021,0.15,1.365,0.451c0.344,0.3,0.516,0.731,0.516,1.293v2.635c0,0.188,0.011,0.372,0.031,0.55
				c0.021,0.179,0.055,0.355,0.103,0.53H50.241z M48.342,67.493c0.438,0,0.819-0.108,1.141-0.325
				c0.322-0.217,0.539-0.495,0.653-0.834v-1.026h-1.273c-0.465,0-0.849,0.115-1.15,0.344c-0.303,0.23-0.454,0.506-0.454,0.83
				c0,0.304,0.097,0.548,0.289,0.733C47.739,67.4,48.004,67.493,48.342,67.493z"/>
			<path fill="#4D4D4D" d="M56.322,67.518c0.509,0,0.914-0.175,1.217-0.525c0.302-0.35,0.453-0.839,0.453-1.466v-1.05
				c-0.169,0.294-0.394,0.52-0.675,0.679c-0.282,0.158-0.593,0.238-0.934,0.238c-0.63,0-1.135-0.217-1.516-0.651
				c-0.38-0.435-0.57-1-0.57-1.697c0-0.704,0.199-1.287,0.597-1.751s0.896-0.696,1.494-0.696c0.655,0,1.186,0.223,1.59,0.668
				c0.403,0.446,0.605,1.08,0.605,1.902v2.348c0,0.783-0.209,1.396-0.627,1.838c-0.419,0.442-0.964,0.664-1.635,0.664
				c-0.239,0-0.48-0.026-0.724-0.079c-0.244-0.053-0.479-0.13-0.709-0.233l0.105-0.48c0.21,0.105,0.416,0.181,0.618,0.225
				C55.815,67.496,56.052,67.518,56.322,67.518z M56.384,64.892c0.404,0,0.745-0.105,1.021-0.317
				c0.276-0.212,0.473-0.472,0.587-0.783v-0.688c0-0.641-0.143-1.135-0.43-1.481c-0.286-0.347-0.67-0.52-1.15-0.52
				c-0.448,0-0.814,0.187-1.098,0.56c-0.283,0.374-0.425,0.834-0.425,1.382c0,0.528,0.133,0.968,0.399,1.32
				C55.555,64.716,55.919,64.892,56.384,64.892z"/>
			<path fill="#4D4D4D" d="M61.739,67.518c0.509,0,0.914-0.175,1.217-0.525c0.302-0.35,0.453-0.839,0.453-1.466v-1.05
				c-0.169,0.294-0.394,0.52-0.675,0.679c-0.282,0.158-0.593,0.238-0.934,0.238c-0.63,0-1.135-0.217-1.516-0.651
				c-0.38-0.435-0.57-1-0.57-1.697c0-0.704,0.199-1.287,0.597-1.751s0.896-0.696,1.494-0.696c0.655,0,1.186,0.223,1.59,0.668
				C63.798,61.713,64,62.347,64,63.169v2.348c0,0.783-0.209,1.396-0.627,1.838c-0.419,0.442-0.964,0.664-1.635,0.664
				c-0.239,0-0.48-0.026-0.724-0.079c-0.244-0.053-0.479-0.13-0.709-0.233l0.105-0.48c0.21,0.105,0.416,0.181,0.618,0.225
				C61.232,67.496,61.469,67.518,61.739,67.518z M61.801,64.892c0.404,0,0.745-0.105,1.021-0.317
				c0.276-0.212,0.473-0.472,0.587-0.783v-0.688c0-0.641-0.143-1.135-0.43-1.481c-0.286-0.347-0.67-0.52-1.15-0.52
				c-0.448,0-0.814,0.187-1.098,0.56c-0.283,0.374-0.425,0.834-0.425,1.382c0,0.528,0.133,0.968,0.399,1.32
				C60.972,64.716,61.336,64.892,61.801,64.892z"/>
		</g>
	</g>
	<g display="inline">
		<g>
			<path fill="#4D4D4D" d="M25.534,97.727v-7.212h2.119c0.85,0,1.552,0.294,2.107,0.882c0.555,0.588,0.833,1.343,0.833,2.264v0.927
				c0,0.921-0.278,1.675-0.833,2.263c-0.556,0.586-1.258,0.879-2.107,0.879h-2.119V97.727z M26.107,91.019v6.208h1.546
				c0.688,0,1.254-0.25,1.699-0.748s0.668-1.129,0.668-1.893v-0.941c0-0.753-0.224-1.379-0.671-1.878
				c-0.446-0.498-1.013-0.748-1.696-0.748H26.107z"/>
			<path fill="#4D4D4D" d="M33.939,97.831c-0.668,0-1.211-0.246-1.628-0.735c-0.417-0.49-0.625-1.121-0.625-1.891v-0.272
				c0-0.772,0.211-1.41,0.633-1.912c0.421-0.502,0.943-0.753,1.567-0.753c0.627,0,1.111,0.209,1.453,0.626
				c0.342,0.418,0.514,0.98,0.514,1.688v0.461H32.26v0.163c0,0.61,0.148,1.118,0.446,1.521c0.297,0.403,0.708,0.604,1.233,0.604
				c0.314,0,0.604-0.054,0.868-0.161c0.265-0.107,0.484-0.252,0.659-0.434l0.243,0.406c-0.182,0.197-0.419,0.362-0.714,0.492
				C34.702,97.766,34.35,97.831,33.939,97.831z M33.887,92.772c-0.439,0-0.8,0.164-1.083,0.49c-0.283,0.327-0.449,0.742-0.497,1.244
				l0.015,0.029h2.959v-0.124c0-0.476-0.12-0.867-0.36-1.177C34.68,92.927,34.336,92.772,33.887,92.772z"/>
			<path fill="#4D4D4D" d="M39.523,94.481l0.382-3.968h3.379v0.55h-2.888l-0.258,2.596c0.176-0.161,0.368-0.289,0.58-0.381
				c0.212-0.093,0.496-0.145,0.853-0.154c0.595-0.01,1.072,0.193,1.434,0.609c0.362,0.416,0.542,0.981,0.542,1.694
				c0,0.73-0.177,1.313-0.53,1.749s-0.883,0.654-1.589,0.654c-0.573,0-1.05-0.166-1.432-0.498s-0.565-0.823-0.549-1.475l0.01-0.029
				h0.515c0,0.484,0.132,0.857,0.396,1.113c0.264,0.259,0.617,0.388,1.06,0.388c0.519,0,0.906-0.161,1.162-0.485
				c0.256-0.322,0.384-0.793,0.384-1.407c0-0.538-0.128-0.966-0.384-1.283c-0.256-0.316-0.616-0.476-1.081-0.476
				c-0.442,0-0.78,0.074-1.015,0.221c-0.233,0.147-0.402,0.369-0.508,0.667L39.523,94.481z"/>
			<path fill="#4D4D4D" d="M50.448,97.727c-0.035-0.188-0.062-0.35-0.079-0.484s-0.026-0.274-0.026-0.416
				c-0.178,0.29-0.428,0.529-0.749,0.721c-0.321,0.189-0.69,0.285-1.107,0.285c-0.506,0-0.897-0.141-1.176-0.419
				c-0.279-0.279-0.418-0.658-0.418-1.138c0-0.479,0.202-0.866,0.606-1.164c0.403-0.298,0.929-0.446,1.574-0.446h1.27v-0.664
				c0-0.383-0.116-0.684-0.351-0.901c-0.233-0.218-0.563-0.327-0.99-0.327c-0.392,0-0.707,0.1-0.947,0.298
				c-0.24,0.197-0.36,0.447-0.36,0.748h-0.529l-0.01-0.03c-0.02-0.402,0.146-0.757,0.498-1.063s0.811-0.458,1.377-0.458
				c0.566,0,1.021,0.15,1.365,0.45c0.344,0.301,0.516,0.731,0.516,1.293v2.636c0,0.188,0.011,0.371,0.031,0.549
				c0.021,0.18,0.055,0.355,0.103,0.531h-0.598V97.727z M48.549,97.307c0.438,0,0.819-0.109,1.141-0.324
				c0.321-0.217,0.539-0.496,0.653-0.836v-1.024H49.07c-0.465,0-0.849,0.114-1.15,0.344c-0.303,0.229-0.454,0.507-0.454,0.83
				c0,0.304,0.097,0.548,0.289,0.733C47.946,97.213,48.211,97.307,48.549,97.307z"/>
			<path fill="#4D4D4D" d="M57.202,97.727h-0.573v-6.703l-1.646,0.208v-0.476l2.22-0.347L57.202,97.727L57.202,97.727z"/>
			<path fill="#4D4D4D" d="M61.946,97.33c0.509,0,0.914-0.176,1.217-0.525c0.302-0.35,0.453-0.839,0.453-1.466v-1.051
				c-0.169,0.294-0.394,0.521-0.675,0.679c-0.282,0.159-0.593,0.238-0.934,0.238c-0.63,0-1.135-0.217-1.516-0.651
				c-0.38-0.435-0.57-1-0.57-1.697c0-0.703,0.199-1.287,0.597-1.751s0.896-0.696,1.494-0.696c0.655,0,1.186,0.224,1.59,0.669
				c0.403,0.446,0.605,1.08,0.605,1.902v2.349c0,0.781-0.209,1.396-0.627,1.838c-0.419,0.441-0.964,0.664-1.635,0.664
				c-0.239,0-0.48-0.027-0.724-0.08c-0.244-0.053-0.479-0.13-0.709-0.232l0.105-0.479c0.21,0.104,0.416,0.181,0.618,0.226
				C61.439,97.309,61.676,97.33,61.946,97.33z M62.008,94.705c0.404,0,0.745-0.106,1.021-0.317c0.276-0.211,0.473-0.473,0.587-0.783
				v-0.688c0-0.641-0.143-1.134-0.43-1.481c-0.286-0.347-0.67-0.52-1.15-0.52c-0.448,0-0.814,0.187-1.098,0.56
				s-0.425,0.834-0.425,1.382c0,0.529,0.133,0.969,0.399,1.32C61.179,94.528,61.543,94.705,62.008,94.705z"/>
		</g>
	</g>
	<g display="inline">
		<g>
			<path fill="#4D4D4D" d="M48.229,125.527h-3.05l-0.701,2.012h-0.592l2.553-7.213h0.54l2.534,7.213h-0.592L48.229,125.527z
				 M45.36,124.998h2.683l-1.317-3.825h-0.029L45.36,124.998z"/>
			<path fill="#4D4D4D" d="M51.264,120.807v1.373H52.4v0.484h-1.136v3.492c0,0.351,0.062,0.6,0.184,0.746
				c0.123,0.146,0.286,0.221,0.489,0.221c0.07,0,0.138-0.004,0.203-0.014c0.065-0.008,0.143-0.021,0.231-0.041l0.086,0.44
				c-0.076,0.039-0.171,0.071-0.284,0.097c-0.113,0.024-0.225,0.037-0.336,0.037c-0.363,0-0.646-0.119-0.848-0.356
				c-0.202-0.237-0.303-0.614-0.303-1.129v-3.493h-0.893v-0.484h0.893v-1.373H51.264z"/>
			<path fill="#4D4D4D" d="M55.479,127.645c-0.668,0-1.211-0.246-1.628-0.736s-0.625-1.12-0.625-1.891v-0.271
				c0-0.771,0.211-1.41,0.633-1.912c0.421-0.502,0.943-0.753,1.567-0.753c0.627,0,1.111,0.209,1.453,0.626
				c0.342,0.418,0.514,0.98,0.514,1.688v0.461h-3.594v0.164c0,0.61,0.148,1.117,0.446,1.521c0.297,0.403,0.708,0.604,1.233,0.604
				c0.314,0,0.604-0.055,0.868-0.162c0.265-0.106,0.484-0.252,0.659-0.434l0.243,0.406c-0.182,0.197-0.419,0.363-0.714,0.492
				C56.241,127.578,55.889,127.645,55.479,127.645z M55.426,122.585c-0.439,0-0.8,0.164-1.083,0.49
				c-0.283,0.327-0.449,0.741-0.497,1.243l0.015,0.029h2.959v-0.123c0-0.477-0.12-0.867-0.36-1.178
				C56.219,122.738,55.875,122.585,55.426,122.585z M56.032,119.9h0.701l0.015,0.029l-1.188,1.287h-0.511L56.032,119.9z"/>
			<path fill="#4D4D4D" d="M64.274,125.216h1.088v0.5h-1.088v1.823h-0.568v-1.823h-3.192v-0.337l3.136-5.053h0.625L64.274,125.216
				L64.274,125.216z M61.191,125.216h2.515v-4.112l-0.028-0.01l-0.243,0.54L61.191,125.216z"/>
		</g>
	</g>
	<g display="inline">
		<g>
			<path fill="#4D4D4D" d="M65.662,154.807c0,0.821-0.191,1.469-0.575,1.94c-0.384,0.474-0.909,0.709-1.577,0.709
				c-0.668,0-1.196-0.237-1.585-0.711c-0.388-0.476-0.582-1.121-0.582-1.938v-2.121c0-0.815,0.192-1.461,0.577-1.938
				c0.386-0.477,0.912-0.714,1.58-0.714s1.195,0.237,1.582,0.714s0.58,1.121,0.58,1.938V154.807L65.662,154.807z M65.09,152.591
				c0-0.631-0.138-1.13-0.413-1.499c-0.275-0.367-0.668-0.552-1.177-0.552s-0.901,0.185-1.177,0.556
				c-0.274,0.369-0.412,0.867-0.412,1.495v2.304c0,0.625,0.139,1.125,0.417,1.498c0.278,0.375,0.673,0.563,1.182,0.563
				c0.506,0,0.896-0.187,1.169-0.56c0.273-0.373,0.411-0.875,0.411-1.502V152.591z"/>
		</g>
	</g>
</g>
<g id="Layer_2">
	<line fill="none" stroke="#1B181C" x1="81.745" y1="4.204" x2="81.745" y2="184.032"/>
	<rect x="83.318" y="137.196" fill="#90C2E9" width="88.395" height="29.795"/>
	<rect x="83.318" y="16.629" fill="#F6D448" width="30.938" height="29.797"/>
	<rect x="83.318" y="76.449" fill="#DA6727" width="30.938" height="29.794"/>
	<rect x="83.318" y="106.872" fill="#D72027" width="37.569" height="29.793"/>
	<rect x="83.318" y="46.52" fill="#DE9E26" width="35.354" height="29.794"/>
	<g>
		<g enable-background="new    ">
			<path fill="#F6D448" d="M134.078,35.267h-1.607v-6.595h-1.629v-1.134l3.236-0.286V35.267z"/>
			<path fill="#F6D448" d="M141.623,32.289h0.908v1.238h-0.908v1.738h-1.602v-1.738h-3.271l-0.07-0.965l3.324-5.312h1.619V32.289
				L141.623,32.289z M138.178,32.289h1.844v-2.891l-0.031-0.012l-0.127,0.228L138.178,32.289z"/>
			<path fill="#F6D448" d="M143.357,28.793c0-0.473,0.154-0.867,0.461-1.183c0.307-0.316,0.73-0.475,1.279-0.475
				c0.555,0,0.982,0.157,1.287,0.472c0.305,0.313,0.457,0.709,0.457,1.186v0.424c0,0.475-0.152,0.866-0.457,1.179
				s-0.73,0.469-1.275,0.469c-0.551,0-0.98-0.156-1.289-0.469s-0.463-0.704-0.463-1.179V28.793z M144.424,29.217
				c0,0.213,0.061,0.394,0.178,0.537c0.117,0.146,0.287,0.218,0.508,0.218c0.213,0,0.377-0.071,0.492-0.218
				c0.113-0.145,0.174-0.324,0.174-0.537v-0.424c0-0.212-0.061-0.394-0.178-0.542s-0.283-0.223-0.5-0.223
				c-0.219,0-0.385,0.073-0.498,0.223c-0.115,0.149-0.176,0.33-0.176,0.542V29.217z M145.373,34.667l-0.781-0.413l3.912-6.264
				l0.783,0.412L145.373,34.667z M147.189,33.302c0-0.47,0.154-0.861,0.463-1.178c0.307-0.316,0.734-0.474,1.281-0.474
				c0.551,0,0.979,0.155,1.285,0.471c0.307,0.313,0.461,0.707,0.461,1.181v0.424c0,0.478-0.152,0.871-0.457,1.185
				c-0.307,0.312-0.73,0.468-1.277,0.468c-0.551,0-0.98-0.157-1.291-0.471c-0.311-0.314-0.465-0.707-0.465-1.182V33.302
				L147.189,33.302z M148.256,33.726c0,0.209,0.064,0.389,0.189,0.536c0.127,0.149,0.293,0.225,0.498,0.225
				c0.238,0,0.41-0.069,0.512-0.207c0.105-0.139,0.154-0.321,0.154-0.554v-0.424c0-0.209-0.059-0.389-0.176-0.537
				c-0.117-0.147-0.285-0.223-0.502-0.223c-0.219,0-0.387,0.074-0.502,0.223c-0.117,0.149-0.174,0.328-0.174,0.537V33.726
				L148.256,33.726z"/>
		</g>
	</g>
	<g>
		<g enable-background="new    ">
			<path fill="#DE9E26" d="M134.078,65.159h-1.607v-6.596h-1.629V57.43l3.236-0.286V65.159z"/>
			<path fill="#DE9E26" d="M140.133,57.029c0.301,0,0.578,0.027,0.834,0.085s0.512,0.141,0.768,0.251l-0.285,1.178
				c-0.242-0.084-0.459-0.147-0.646-0.19c-0.189-0.042-0.408-0.063-0.658-0.063c-0.488,0-0.879,0.183-1.176,0.547
				c-0.295,0.365-0.432,0.871-0.408,1.517l0.016,0.028c0.18-0.188,0.408-0.334,0.684-0.439c0.273-0.106,0.586-0.16,0.93-0.16
				c0.717,0,1.275,0.254,1.682,0.763c0.406,0.508,0.609,1.156,0.609,1.945c0,0.808-0.25,1.474-0.752,1.998
				c-0.5,0.524-1.148,0.787-1.945,0.787c-0.848,0-1.537-0.287-2.07-0.861c-0.531-0.574-0.797-1.369-0.797-2.386v-1.563
				c0-1.05,0.303-1.884,0.908-2.505C138.428,57.339,139.197,57.029,140.133,57.029z M139.764,60.998
				c-0.297,0-0.551,0.048-0.76,0.143c-0.209,0.097-0.371,0.227-0.482,0.392v0.531c0,0.635,0.113,1.121,0.344,1.463
				c0.229,0.341,0.535,0.511,0.916,0.511c0.33,0,0.596-0.15,0.795-0.453c0.201-0.302,0.301-0.668,0.301-1.096
				c0-0.443-0.102-0.804-0.303-1.077C140.371,61.136,140.102,60.998,139.764,60.998z"/>
			<path fill="#DE9E26" d="M143.359,58.686c0-0.473,0.152-0.866,0.459-1.183s0.732-0.474,1.279-0.474
				c0.555,0,0.982,0.156,1.289,0.471c0.305,0.313,0.455,0.709,0.455,1.186v0.425c0,0.474-0.15,0.865-0.455,1.179
				c-0.307,0.312-0.73,0.468-1.277,0.468c-0.551,0-0.98-0.156-1.287-0.468c-0.309-0.313-0.463-0.705-0.463-1.179V58.686z
				 M144.428,59.109c0,0.213,0.059,0.393,0.176,0.536c0.117,0.146,0.285,0.219,0.506,0.219c0.213,0,0.377-0.072,0.492-0.219
				c0.115-0.145,0.174-0.323,0.174-0.536v-0.424c0-0.212-0.061-0.394-0.176-0.542c-0.117-0.147-0.285-0.223-0.502-0.223
				s-0.383,0.074-0.498,0.223c-0.115,0.149-0.172,0.33-0.172,0.542V59.109L144.428,59.109z M145.373,64.56l-0.781-0.413l3.914-6.264
				l0.781,0.412L145.373,64.56z M147.189,63.194c0-0.471,0.154-0.862,0.463-1.179c0.309-0.315,0.736-0.474,1.283-0.474
				c0.551,0,0.979,0.156,1.285,0.471c0.307,0.313,0.459,0.707,0.459,1.182v0.424c0,0.477-0.152,0.871-0.457,1.184
				c-0.307,0.313-0.73,0.468-1.277,0.468c-0.549,0-0.98-0.156-1.289-0.471c-0.311-0.313-0.467-0.707-0.467-1.181V63.194
				L147.189,63.194z M148.256,63.618c0,0.209,0.064,0.388,0.191,0.536c0.125,0.148,0.291,0.224,0.498,0.224
				c0.238,0,0.408-0.069,0.512-0.207s0.154-0.321,0.154-0.553v-0.424c0-0.209-0.059-0.39-0.178-0.537
				c-0.117-0.148-0.283-0.224-0.5-0.224c-0.221,0-0.389,0.074-0.504,0.224c-0.115,0.148-0.174,0.328-0.174,0.537V63.618
				L148.256,63.618z"/>
		</g>
	</g>
	<g>
		<g enable-background="new    ">
			<path fill="#DA6727" d="M134.078,98.468h-1.607v-6.595h-1.629v-1.134l3.236-0.286V98.468z"/>
			<path fill="#DA6727" d="M141.623,95.49h0.908v1.237h-0.908v1.738h-1.602v-1.738h-3.271l-0.07-0.965l3.324-5.311h1.619V95.49
				L141.623,95.49z M138.178,95.49h1.844v-2.892l-0.031-0.011l-0.127,0.228L138.178,95.49z"/>
			<path fill="#DA6727" d="M143.357,91.994c0-0.474,0.154-0.867,0.461-1.184c0.307-0.315,0.73-0.474,1.279-0.474
				c0.555,0,0.982,0.157,1.287,0.471c0.305,0.314,0.457,0.709,0.457,1.187v0.424c0,0.474-0.152,0.866-0.457,1.179
				s-0.73,0.469-1.275,0.469c-0.551,0-0.98-0.156-1.289-0.469s-0.463-0.705-0.463-1.179V91.994z M144.424,92.418
				c0,0.213,0.061,0.393,0.178,0.537c0.117,0.146,0.287,0.218,0.508,0.218c0.213,0,0.377-0.072,0.492-0.218
				c0.113-0.146,0.174-0.324,0.174-0.537v-0.424c0-0.212-0.061-0.395-0.178-0.542c-0.117-0.148-0.283-0.224-0.5-0.224
				c-0.219,0-0.385,0.074-0.498,0.224c-0.115,0.148-0.176,0.33-0.176,0.542V92.418z M145.373,97.868l-0.781-0.414l3.912-6.263
				l0.783,0.411L145.373,97.868z M147.189,96.503c0-0.471,0.154-0.863,0.463-1.178c0.307-0.316,0.734-0.475,1.281-0.475
				c0.551,0,0.979,0.156,1.285,0.472c0.307,0.312,0.461,0.706,0.461,1.181v0.424c0,0.477-0.152,0.871-0.457,1.184
				c-0.307,0.313-0.73,0.469-1.277,0.469c-0.551,0-0.98-0.158-1.291-0.471c-0.311-0.314-0.465-0.707-0.465-1.182V96.503
				L147.189,96.503z M148.256,96.927c0,0.209,0.064,0.389,0.189,0.535c0.127,0.15,0.293,0.225,0.498,0.225
				c0.238,0,0.41-0.068,0.512-0.207c0.105-0.139,0.154-0.32,0.154-0.553v-0.424c0-0.209-0.059-0.389-0.176-0.537
				s-0.285-0.223-0.502-0.223c-0.219,0-0.387,0.074-0.502,0.223c-0.117,0.148-0.174,0.328-0.174,0.537V96.927L148.256,96.927z"/>
		</g>
	</g>
	<g>
		<g enable-background="new    ">
			<path fill="#D72027" d="M134.613,128.536h-1.607v-6.596h-1.629v-1.135l3.236-0.285V128.536z"/>
			<path fill="#D72027" d="M142.896,121.759c-0.857,1.006-1.445,1.943-1.758,2.814c-0.314,0.869-0.539,1.918-0.676,3.146
				l-0.076,0.814h-1.607l0.078-0.814c0.123-1.178,0.393-2.26,0.803-3.244s0.975-1.891,1.689-2.717h-4.117v-1.238h5.664V121.759z"/>
			<path fill="#D72027" d="M143.893,122.062c0-0.473,0.152-0.865,0.461-1.182c0.307-0.316,0.73-0.475,1.277-0.475
				c0.557,0,0.984,0.156,1.289,0.471s0.457,0.709,0.457,1.186v0.426c0,0.473-0.152,0.865-0.457,1.178s-0.73,0.469-1.275,0.469
				c-0.551,0-0.98-0.156-1.289-0.469s-0.463-0.705-0.463-1.178V122.062z M144.959,122.485c0,0.213,0.061,0.393,0.178,0.537
				c0.117,0.146,0.285,0.219,0.508,0.219c0.213,0,0.377-0.072,0.492-0.219c0.113-0.145,0.174-0.324,0.174-0.537v-0.424
				c0-0.213-0.061-0.395-0.178-0.543c-0.117-0.146-0.283-0.223-0.502-0.223c-0.217,0-0.383,0.074-0.498,0.223
				c-0.113,0.15-0.174,0.33-0.174,0.543V122.485z M145.908,127.937l-0.781-0.412l3.912-6.266l0.783,0.412L145.908,127.937z
				 M147.725,126.571c0-0.471,0.152-0.863,0.463-1.18c0.307-0.314,0.734-0.473,1.281-0.473c0.551,0,0.979,0.156,1.285,0.471
				c0.307,0.313,0.459,0.707,0.459,1.182v0.424c0,0.477-0.15,0.871-0.457,1.184c-0.305,0.313-0.729,0.467-1.275,0.467
				c-0.551,0-0.98-0.156-1.291-0.471c-0.313-0.313-0.465-0.707-0.465-1.18V126.571L147.725,126.571z M148.791,126.995
				c0,0.209,0.064,0.387,0.189,0.535c0.127,0.148,0.293,0.225,0.498,0.225c0.238,0,0.41-0.07,0.512-0.207
				c0.105-0.139,0.154-0.322,0.154-0.553v-0.424c0-0.209-0.059-0.391-0.176-0.537c-0.117-0.148-0.285-0.225-0.502-0.225
				c-0.219,0-0.387,0.074-0.504,0.225c-0.115,0.148-0.172,0.328-0.172,0.537V126.995L148.791,126.995z"/>
		</g>
	</g>
	<g>
		<g enable-background="new    ">
			<path fill="#90C2E9" d="M187.459,153.806h0.902c0.381,0,0.664-0.102,0.848-0.301c0.186-0.199,0.275-0.479,0.275-0.834
				c0-0.322-0.092-0.582-0.275-0.775c-0.182-0.193-0.447-0.293-0.799-0.293c-0.301,0-0.553,0.09-0.76,0.266
				c-0.205,0.176-0.307,0.408-0.307,0.693h-1.559l-0.012-0.033c-0.021-0.627,0.219-1.145,0.721-1.553
				c0.504-0.406,1.127-0.609,1.873-0.609c0.828,0,1.49,0.197,1.984,0.594c0.492,0.396,0.738,0.961,0.738,1.695
				c0,0.35-0.109,0.68-0.33,0.994c-0.221,0.313-0.521,0.559-0.908,0.734c0.443,0.156,0.783,0.398,1.016,0.727
				c0.234,0.326,0.352,0.707,0.352,1.139c0,0.734-0.268,1.313-0.803,1.73c-0.533,0.42-1.217,0.631-2.049,0.631
				c-0.746,0-1.385-0.197-1.92-0.592c-0.533-0.395-0.791-0.951-0.771-1.67l0.01-0.033h1.559c0,0.307,0.109,0.561,0.33,0.76
				c0.221,0.197,0.498,0.297,0.836,0.297c0.371,0,0.664-0.104,0.879-0.307c0.215-0.205,0.322-0.484,0.322-0.836
				c0-0.422-0.105-0.729-0.316-0.926c-0.211-0.195-0.521-0.293-0.934-0.293h-0.902V153.806L187.459,153.806z"/>
			<path fill="#90C2E9" d="M194.621,157.372c0.422,0,0.768-0.156,1.033-0.469c0.266-0.314,0.398-0.762,0.398-1.344v-0.395
				c-0.182,0.227-0.395,0.4-0.643,0.518s-0.516,0.176-0.801,0.176c-0.746,0-1.332-0.242-1.76-0.729s-0.641-1.145-0.641-1.973
				c0-0.803,0.252-1.467,0.76-1.996c0.506-0.531,1.15-0.795,1.932-0.795c0.818,0,1.482,0.279,1.992,0.844s0.766,1.355,0.766,2.375
				v1.895c0,0.973-0.285,1.736-0.854,2.297c-0.572,0.557-1.301,0.836-2.186,0.836c-0.277,0-0.564-0.029-0.861-0.086
				c-0.295-0.059-0.568-0.143-0.82-0.252l0.188-1.164c0.238,0.092,0.475,0.156,0.707,0.199
				C194.064,157.351,194.328,157.372,194.621,157.372z M194.879,154.681c0.266,0,0.494-0.051,0.693-0.148
				c0.197-0.1,0.357-0.23,0.48-0.396v-0.736c0-0.588-0.105-1.033-0.311-1.338s-0.484-0.457-0.836-0.457
				c-0.322,0-0.586,0.15-0.791,0.451c-0.203,0.301-0.305,0.668-0.305,1.102c0,0.455,0.094,0.822,0.277,1.104
				C194.275,154.54,194.539,154.681,194.879,154.681z"/>
			<path fill="#90C2E9" d="M198.748,152.021c0-0.473,0.154-0.865,0.459-1.182c0.309-0.316,0.734-0.475,1.281-0.475
				c0.553,0,0.982,0.156,1.287,0.471s0.457,0.709,0.457,1.186v0.426c0,0.473-0.152,0.865-0.457,1.178s-0.73,0.469-1.277,0.469
				c-0.551,0-0.979-0.156-1.287-0.469s-0.463-0.705-0.463-1.178V152.021z M199.818,152.444c0,0.213,0.059,0.393,0.176,0.537
				c0.117,0.146,0.285,0.219,0.506,0.219c0.213,0,0.377-0.072,0.492-0.219c0.115-0.145,0.174-0.324,0.174-0.537v-0.424
				c0-0.213-0.059-0.395-0.176-0.543c-0.117-0.146-0.285-0.223-0.502-0.223c-0.215,0-0.381,0.074-0.498,0.223
				c-0.115,0.15-0.172,0.33-0.172,0.543V152.444L199.818,152.444z M200.764,157.896l-0.781-0.412l3.914-6.266l0.781,0.412
				L200.764,157.896z M202.58,156.53c0-0.471,0.154-0.863,0.463-1.18c0.309-0.314,0.736-0.473,1.283-0.473
				c0.551,0,0.979,0.156,1.285,0.471c0.307,0.313,0.459,0.707,0.459,1.182v0.424c0,0.477-0.152,0.871-0.457,1.184
				s-0.73,0.467-1.277,0.467c-0.549,0-0.98-0.156-1.289-0.471c-0.311-0.313-0.467-0.707-0.467-1.18V156.53L202.58,156.53z
				 M203.648,156.954c0,0.209,0.063,0.387,0.189,0.535c0.125,0.148,0.291,0.225,0.498,0.225c0.238,0,0.408-0.07,0.512-0.207
				c0.104-0.139,0.154-0.322,0.154-0.553v-0.424c0-0.209-0.059-0.391-0.178-0.537c-0.117-0.148-0.283-0.225-0.5-0.225
				c-0.221,0-0.389,0.074-0.504,0.225c-0.115,0.148-0.174,0.328-0.174,0.537v0.424H203.648z"/>
		</g>
	</g>
	<g>
		<g enable-background="new    ">
			<path fill="#FFFFFF" d="M10.321,36.077H7.138l-0.716,2.011H5.831l2.639-7.213h0.54l2.62,7.213h-0.592L10.321,36.077z
				 M7.329,35.546h2.806l-1.384-3.904H8.722L7.329,35.546z"/>
			<path fill="#FFFFFF" d="M14.45,37.687c0.378,0,0.712-0.111,1.002-0.335c0.29-0.223,0.435-0.534,0.435-0.933h0.506l0.01,0.03
				c0.016,0.495-0.175,0.91-0.573,1.243c-0.398,0.334-0.858,0.5-1.379,0.5c-0.703,0-1.247-0.25-1.63-0.75
				c-0.383-0.5-0.575-1.145-0.575-1.931v-0.208c0-0.778,0.192-1.42,0.578-1.922c0.385-0.502,0.926-0.753,1.623-0.753
				c0.566,0,1.038,0.174,1.415,0.521c0.377,0.347,0.559,0.802,0.546,1.366l-0.009,0.03h-0.511c0-0.429-0.139-0.771-0.417-1.028
				c-0.279-0.256-0.62-0.384-1.024-0.384c-0.554,0-0.963,0.206-1.229,0.616c-0.266,0.41-0.398,0.928-0.398,1.551v0.208
				c0,0.633,0.132,1.155,0.396,1.564C13.477,37.482,13.89,37.687,14.45,37.687z"/>
			<path fill="#FFFFFF" d="M18.239,31.192h-0.568V30.36h0.568V31.192z M18.239,38.088h-0.568v-5.36h0.568V38.088z"/>
			<path fill="#FFFFFF" d="M20.301,32.728l0.052,0.888c0.166-0.313,0.386-0.557,0.661-0.729s0.604-0.258,0.985-0.258
				c0.395,0,0.725,0.099,0.99,0.297c0.265,0.198,0.456,0.5,0.57,0.907c0.156-0.376,0.378-0.671,0.666-0.884s0.639-0.32,1.052-0.32
				c0.55,0,0.975,0.19,1.274,0.57C26.85,33.579,27,34.167,27,34.963v3.126h-0.573v-3.143c0-0.662-0.112-1.129-0.336-1.402
				c-0.225-0.273-0.537-0.41-0.938-0.41c-0.442,0-0.784,0.145-1.026,0.433c-0.242,0.287-0.392,0.656-0.449,1.106
				c0,0.023,0,0.056,0.002,0.099c0.001,0.044,0.002,0.075,0.002,0.095v3.222h-0.578v-3.142c0-0.648-0.114-1.113-0.341-1.394
				c-0.228-0.278-0.54-0.419-0.938-0.419c-0.404,0-0.725,0.107-0.961,0.32c-0.237,0.213-0.403,0.5-0.499,0.861v3.771h-0.577v-5.36
				L20.301,32.728L20.301,32.728z"/>
			<path fill="#FFFFFF" d="M31.751,38.088c-0.038-0.182-0.065-0.338-0.081-0.471c-0.016-0.132-0.024-0.267-0.024-0.401
				c-0.191,0.281-0.446,0.514-0.764,0.699c-0.318,0.185-0.676,0.277-1.074,0.277c-0.503,0-0.894-0.14-1.172-0.416
				c-0.278-0.277-0.417-0.649-0.417-1.115c0-0.496,0.206-0.893,0.618-1.189s0.968-0.445,1.668-0.445h1.141v-0.664
				c0-0.384-0.119-0.685-0.355-0.901c-0.237-0.218-0.569-0.327-0.995-0.327c-0.398,0-0.728,0.104-0.991,0.313
				c-0.262,0.208-0.394,0.463-0.394,0.763l-0.525-0.005l-0.01-0.03c-0.019-0.398,0.157-0.757,0.527-1.073
				c0.371-0.314,0.843-0.473,1.415-0.473c0.57,0,1.028,0.15,1.375,0.451c0.347,0.3,0.521,0.73,0.521,1.293v2.635
				c0,0.188,0.01,0.372,0.031,0.55c0.021,0.18,0.055,0.355,0.103,0.53L31.751,38.088L31.751,38.088z M29.875,37.667
				c0.411,0,0.773-0.1,1.088-0.3s0.542-0.455,0.683-0.767v-1.12h-1.15c-0.519,0-0.933,0.115-1.243,0.345s-0.465,0.515-0.465,0.854
				c0,0.291,0.096,0.527,0.289,0.711C29.268,37.575,29.535,37.667,29.875,37.667z"/>
			<path fill="#FFFFFF" d="M35.889,35.452c0-0.855,0.174-1.54,0.522-2.053c0.349-0.515,0.834-0.771,1.458-0.771
				c0.36,0,0.671,0.08,0.936,0.238c0.264,0.159,0.484,0.383,0.659,0.674v-3.18h0.567v7.728h-0.506l-0.048-0.778
				c-0.172,0.284-0.393,0.502-0.663,0.654c-0.271,0.152-0.589,0.229-0.955,0.229c-0.617,0-1.1-0.239-1.449-0.717
				c-0.348-0.477-0.522-1.116-0.522-1.919L35.889,35.452L35.889,35.452z M36.461,35.557c0,0.65,0.125,1.167,0.375,1.553
				c0.25,0.385,0.626,0.576,1.129,0.576c0.369,0,0.677-0.086,0.923-0.259c0.247-0.172,0.438-0.411,0.575-0.716v-2.528
				c-0.13-0.312-0.315-0.563-0.554-0.758c-0.239-0.194-0.55-0.292-0.936-0.292c-0.502,0-0.88,0.215-1.133,0.646
				c-0.253,0.43-0.379,0.987-0.379,1.674V35.557L36.461,35.557z"/>
			<path fill="#FFFFFF" d="M43.491,38.192c-0.646,0-1.183-0.248-1.611-0.743c-0.428-0.495-0.642-1.123-0.642-1.882v-0.272
				c0-0.766,0.212-1.402,0.637-1.907c0.425-0.505,0.939-0.758,1.544-0.758c0.633,0,1.131,0.208,1.494,0.625
				c0.362,0.416,0.544,0.971,0.544,1.665v0.505h-3.646v0.144c0,0.603,0.154,1.106,0.463,1.513s0.714,0.607,1.217,0.607
				c0.356,0,0.66-0.051,0.912-0.152c0.251-0.104,0.466-0.25,0.644-0.441l0.244,0.406c-0.194,0.212-0.44,0.381-0.737,0.506
				C44.255,38.129,43.901,38.192,43.491,38.192z M43.419,33.134c-0.423,0-0.778,0.167-1.064,0.501s-0.453,0.753-0.501,1.257
				l0.01,0.025h3.026v-0.148c0-0.464-0.132-0.853-0.396-1.166C44.229,33.291,43.871,33.134,43.419,33.134z"/>
			<path fill="#FFFFFF" d="M51.447,38.123h-0.573v-6.628l-1.766,0.213v-0.416l2.338-0.437L51.447,38.123L51.447,38.123z"/>
			<path fill="#FFFFFF" d="M58.683,35.289c0,0.931-0.194,1.647-0.582,2.149c-0.389,0.503-0.928,0.754-1.618,0.754
				c-0.687,0-1.228-0.252-1.62-0.756c-0.393-0.504-0.589-1.22-0.589-2.146v-1.61c0-0.928,0.194-1.645,0.582-2.149
				c0.388-0.505,0.927-0.759,1.618-0.759c0.69,0,1.231,0.253,1.623,0.759c0.391,0.505,0.587,1.222,0.587,2.149L58.683,35.289
				L58.683,35.289z M58.11,33.578c0-0.739-0.14-1.309-0.42-1.706c-0.28-0.397-0.686-0.596-1.217-0.596
				c-0.532,0-0.936,0.198-1.212,0.596c-0.277,0.397-0.416,0.966-0.416,1.706v1.797c0,0.732,0.141,1.301,0.422,1.705
				c0.282,0.404,0.687,0.605,1.215,0.605c0.528,0,0.932-0.2,1.21-0.604c0.278-0.402,0.417-0.972,0.417-1.708L58.11,33.578
				L58.11,33.578z"/>
			<path fill="#FFFFFF" d="M64.381,35.289c0,0.931-0.194,1.647-0.582,2.149c-0.389,0.503-0.928,0.754-1.618,0.754
				c-0.687,0-1.228-0.252-1.62-0.756c-0.393-0.504-0.589-1.22-0.589-2.146v-1.61c0-0.928,0.194-1.645,0.582-2.149
				c0.388-0.505,0.927-0.759,1.618-0.759c0.69,0,1.231,0.253,1.623,0.759c0.391,0.505,0.587,1.222,0.587,2.149L64.381,35.289
				L64.381,35.289z M63.809,33.578c0-0.739-0.14-1.309-0.42-1.706c-0.28-0.397-0.686-0.596-1.217-0.596
				c-0.532,0-0.936,0.198-1.212,0.596c-0.277,0.397-0.416,0.966-0.416,1.706v1.797c0,0.732,0.141,1.301,0.422,1.705
				c0.282,0.404,0.687,0.605,1.215,0.605c0.528,0,0.932-0.2,1.21-0.604c0.278-0.402,0.417-0.972,0.417-1.708L63.809,33.578
				L63.809,33.578z"/>
		</g>
	</g>
	<g>
		<g enable-background="new    ">
			<path fill="#FFFFFF" d="M20.059,67.9v-7.214h2.019c0.85,0,1.551,0.294,2.105,0.883c0.554,0.588,0.831,1.342,0.831,2.264v0.927
				c0,0.925-0.277,1.679-0.831,2.265c-0.554,0.585-1.255,0.877-2.105,0.877L20.059,67.9L20.059,67.9z M20.627,61.193v6.201h1.451
				c0.688,0,1.253-0.249,1.697-0.748c0.444-0.497,0.666-1.128,0.666-1.891v-0.939c0-0.753-0.223-1.379-0.668-1.876
				c-0.445-0.499-1.01-0.748-1.694-0.748L20.627,61.193L20.627,61.193z"/>
			<path fill="#FFFFFF" d="M28.254,68.004c-0.646,0-1.183-0.248-1.611-0.743s-0.642-1.123-0.642-1.882v-0.273
				c0-0.766,0.212-1.401,0.637-1.906c0.425-0.505,0.939-0.758,1.544-0.758c0.633,0,1.131,0.208,1.494,0.625
				c0.362,0.416,0.544,0.971,0.544,1.664v0.506h-3.646v0.143c0,0.604,0.154,1.107,0.463,1.513c0.309,0.406,0.714,0.608,1.217,0.608
				c0.356,0,0.66-0.051,0.912-0.153c0.251-0.103,0.466-0.25,0.644-0.44l0.244,0.405c-0.194,0.213-0.44,0.382-0.737,0.507
				C29.018,67.942,28.664,68.004,28.254,68.004z M28.182,62.946c-0.423,0-0.778,0.167-1.064,0.501s-0.453,0.753-0.501,1.257
				l0.01,0.024h3.026v-0.147c0-0.464-0.132-0.854-0.396-1.166C28.992,63.103,28.634,62.946,28.182,62.946z"/>
			<path fill="#FFFFFF" d="M37.942,67.9h-4.314v-0.462l2.276-2.675c0.42-0.492,0.717-0.903,0.89-1.235s0.26-0.649,0.26-0.954
				c0-0.449-0.122-0.81-0.365-1.08c-0.243-0.271-0.588-0.406-1.033-0.406c-0.528,0-0.929,0.152-1.203,0.456s-0.411,0.71-0.411,1.219
				h-0.529l-0.01-0.029c-0.016-0.602,0.172-1.11,0.563-1.526c0.392-0.416,0.921-0.624,1.589-0.624c0.598,0,1.077,0.178,1.437,0.535
				c0.36,0.355,0.54,0.835,0.54,1.437c0,0.396-0.12,0.798-0.36,1.206c-0.24,0.408-0.575,0.863-1.005,1.365l-1.914,2.245l0.009,0.023
				h3.58V67.9z"/>
			<path fill="#FFFFFF" d="M43.445,65.102c0,0.932-0.194,1.648-0.582,2.15c-0.389,0.502-0.928,0.753-1.618,0.753
				c-0.687,0-1.228-0.252-1.62-0.755c-0.393-0.504-0.589-1.22-0.589-2.147v-1.609c0-0.928,0.194-1.646,0.582-2.15
				c0.388-0.505,0.927-0.758,1.618-0.758c0.69,0,1.231,0.252,1.623,0.758c0.391,0.505,0.587,1.223,0.587,2.15v1.608H43.445z
				 M42.872,63.391c0-0.738-0.14-1.308-0.42-1.706c-0.28-0.396-0.686-0.596-1.217-0.596c-0.532,0-0.936,0.199-1.212,0.596
				c-0.277,0.398-0.416,0.967-0.416,1.706v1.797c0,0.732,0.141,1.302,0.422,1.705c0.282,0.404,0.687,0.606,1.215,0.606
				c0.528,0,0.932-0.201,1.21-0.604c0.278-0.401,0.417-0.972,0.417-1.708L42.872,63.391L42.872,63.391z"/>
			<path fill="#FFFFFF" d="M50.489,67.9c-0.038-0.183-0.065-0.339-0.081-0.472c-0.016-0.132-0.024-0.266-0.024-0.4
				c-0.191,0.28-0.446,0.514-0.764,0.698c-0.318,0.186-0.676,0.277-1.074,0.277c-0.503,0-0.894-0.139-1.172-0.416
				s-0.417-0.649-0.417-1.115c0-0.496,0.206-0.892,0.618-1.188s0.968-0.446,1.668-0.446h1.141v-0.664
				c0-0.383-0.119-0.684-0.355-0.901c-0.237-0.218-0.569-0.326-0.995-0.326c-0.398,0-0.728,0.104-0.991,0.312
				c-0.262,0.208-0.394,0.463-0.394,0.763l-0.525-0.005l-0.01-0.029c-0.019-0.399,0.157-0.758,0.527-1.073
				c0.371-0.315,0.843-0.474,1.415-0.474c0.57,0,1.028,0.15,1.375,0.451c0.347,0.301,0.521,0.731,0.521,1.293v2.636
				c0,0.188,0.01,0.372,0.031,0.55c0.021,0.179,0.055,0.354,0.103,0.53L50.489,67.9L50.489,67.9z M48.613,67.479
				c0.411,0,0.773-0.1,1.088-0.3s0.542-0.455,0.683-0.766v-1.12h-1.15c-0.519,0-0.933,0.115-1.243,0.344
				c-0.31,0.23-0.465,0.516-0.465,0.855c0,0.291,0.096,0.526,0.289,0.711C48.006,67.388,48.273,67.479,48.613,67.479z"/>
			<path fill="#FFFFFF" d="M56.537,67.499c0.528,0,0.948-0.183,1.26-0.548s0.468-0.891,0.468-1.572v-0.723
				c-0.168,0.304-0.396,0.538-0.68,0.703c-0.285,0.166-0.602,0.248-0.952,0.248c-0.633,0-1.143-0.229-1.529-0.685
				c-0.387-0.456-0.58-1.045-0.58-1.769c0-0.729,0.203-1.342,0.608-1.833c0.406-0.492,0.908-0.738,1.506-0.738
				c0.671,0,1.209,0.227,1.613,0.681c0.404,0.454,0.606,1.114,0.606,1.979v2.125c0,0.835-0.213,1.482-0.64,1.943
				c-0.426,0.46-0.986,0.691-1.68,0.691c-0.249,0-0.498-0.025-0.747-0.075c-0.25-0.05-0.488-0.126-0.713-0.229l0.105-0.498
				c0.216,0.105,0.43,0.182,0.642,0.228C56.035,67.476,56.272,67.499,56.537,67.499z M56.632,65.102c0.414,0,0.76-0.109,1.038-0.329
				c0.278-0.219,0.477-0.49,0.594-0.813v-0.763c0-0.684-0.144-1.205-0.432-1.566s-0.678-0.542-1.171-0.542
				c-0.449,0-0.818,0.201-1.11,0.604c-0.291,0.401-0.437,0.889-0.437,1.459c0,0.554,0.137,1.018,0.411,1.391
				C55.798,64.915,56.167,65.102,56.632,65.102z"/>
			<path fill="#FFFFFF" d="M61.954,67.499c0.528,0,0.948-0.183,1.26-0.548s0.468-0.891,0.468-1.572v-0.723
				c-0.168,0.304-0.396,0.538-0.68,0.703c-0.285,0.166-0.602,0.248-0.952,0.248c-0.633,0-1.143-0.229-1.529-0.685
				c-0.387-0.456-0.58-1.045-0.58-1.769c0-0.729,0.203-1.342,0.608-1.833c0.406-0.492,0.908-0.738,1.506-0.738
				c0.671,0,1.209,0.227,1.613,0.681c0.404,0.454,0.606,1.114,0.606,1.979v2.125c0,0.835-0.213,1.482-0.64,1.943
				c-0.426,0.46-0.986,0.691-1.68,0.691c-0.249,0-0.498-0.025-0.747-0.075c-0.25-0.05-0.488-0.126-0.713-0.229l0.105-0.498
				c0.216,0.105,0.43,0.182,0.642,0.228C61.452,67.476,61.689,67.499,61.954,67.499z M62.049,65.102c0.414,0,0.76-0.109,1.038-0.329
				c0.278-0.219,0.477-0.49,0.594-0.813v-0.763c0-0.684-0.144-1.205-0.432-1.566s-0.678-0.542-1.171-0.542
				c-0.449,0-0.818,0.201-1.11,0.604c-0.291,0.401-0.437,0.889-0.437,1.459c0,0.554,0.137,1.018,0.411,1.391
				C61.215,64.915,61.584,65.102,62.049,65.102z"/>
		</g>
	</g>
	<g>
		<g enable-background="new    ">
			<path fill="#FFFFFF" d="M25.683,97.712V90.5h2.019c0.85,0,1.551,0.294,2.105,0.882c0.554,0.588,0.831,1.342,0.831,2.264v0.928
				c0,0.925-0.277,1.678-0.831,2.264c-0.554,0.584-1.255,0.877-2.105,0.877h-2.019V97.712z M26.251,91.005v6.203h1.451
				c0.688,0,1.253-0.25,1.697-0.748c0.444-0.498,0.666-1.129,0.666-1.891v-0.94c0-0.753-0.223-1.378-0.668-1.876
				s-1.01-0.748-1.694-0.748H26.251z"/>
			<path fill="#FFFFFF" d="M33.878,97.817c-0.646,0-1.183-0.248-1.611-0.744c-0.428-0.494-0.642-1.123-0.642-1.882v-0.272
				c0-0.766,0.212-1.402,0.637-1.907c0.425-0.505,0.939-0.759,1.544-0.759c0.633,0,1.131,0.209,1.494,0.625
				c0.362,0.416,0.544,0.971,0.544,1.664v0.506h-3.646v0.144c0,0.603,0.154,1.106,0.463,1.513c0.309,0.404,0.714,0.607,1.217,0.607
				c0.356,0,0.66-0.051,0.912-0.152c0.251-0.104,0.466-0.25,0.644-0.441l0.244,0.406c-0.194,0.211-0.44,0.381-0.737,0.506
				C34.642,97.755,34.288,97.817,33.878,97.817z M33.806,92.759c-0.423,0-0.778,0.168-1.064,0.502
				c-0.286,0.334-0.453,0.753-0.501,1.257l0.01,0.024h3.026v-0.148c0-0.464-0.132-0.853-0.396-1.166
				C34.616,92.915,34.258,92.759,33.806,92.759z"/>
			<path fill="#FFFFFF" d="M39.499,94.448l0.387-3.948h3.375v0.55h-2.888l-0.258,2.571c0.175-0.165,0.368-0.292,0.578-0.382
				c0.21-0.089,0.495-0.14,0.854-0.148c0.592-0.01,1.069,0.197,1.432,0.619c0.363,0.423,0.544,0.99,0.544,1.704
				c0,0.728-0.176,1.312-0.527,1.749c-0.351,0.436-0.88,0.654-1.587,0.654c-0.573,0-1.05-0.166-1.432-0.498
				s-0.565-0.824-0.549-1.477l0.009-0.027h0.511c0,0.482,0.133,0.854,0.398,1.109c0.266,0.256,0.62,0.385,1.062,0.385
				c0.516,0,0.901-0.16,1.157-0.482c0.256-0.324,0.384-0.793,0.384-1.405c0-0.538-0.128-0.969-0.384-1.294
				c-0.256-0.324-0.615-0.487-1.076-0.487c-0.445,0-0.785,0.073-1.019,0.222c-0.234,0.147-0.403,0.369-0.508,0.666L39.499,94.448z"
				/>
			<path fill="#FFFFFF" d="M50.415,97.712c-0.038-0.182-0.065-0.338-0.081-0.471c-0.016-0.131-0.024-0.266-0.024-0.4
				c-0.191,0.281-0.446,0.514-0.764,0.699c-0.318,0.184-0.676,0.277-1.074,0.277c-0.503,0-0.894-0.141-1.172-0.416
				c-0.278-0.277-0.417-0.65-0.417-1.115c0-0.496,0.206-0.893,0.618-1.189s0.968-0.444,1.668-0.444h1.141v-0.664
				c0-0.384-0.119-0.685-0.355-0.901c-0.237-0.218-0.569-0.327-0.995-0.327c-0.398,0-0.728,0.104-0.991,0.313
				c-0.262,0.208-0.394,0.463-0.394,0.763l-0.525-0.005l-0.01-0.029c-0.019-0.399,0.157-0.758,0.527-1.073
				c0.37-0.314,0.843-0.474,1.415-0.474c0.57,0,1.028,0.15,1.375,0.451c0.347,0.301,0.521,0.731,0.521,1.293v2.635
				c0,0.189,0.01,0.373,0.031,0.551c0.021,0.18,0.055,0.355,0.103,0.529h-0.597V97.712z M48.539,97.292
				c0.411,0,0.773-0.1,1.088-0.301c0.315-0.199,0.542-0.455,0.683-0.766v-1.12h-1.15c-0.519,0-0.933,0.115-1.243,0.346
				c-0.31,0.229-0.465,0.515-0.465,0.853c0,0.291,0.096,0.527,0.289,0.711C47.934,97.2,48.199,97.292,48.539,97.292z"/>
			<path fill="#FFFFFF" d="M57.259,97.747h-0.573v-6.628l-1.766,0.213v-0.416l2.338-0.438v7.269H57.259z"/>
			<path fill="#FFFFFF" d="M61.879,97.312c0.528,0,0.948-0.184,1.26-0.549s0.468-0.889,0.468-1.57v-0.725
				c-0.168,0.305-0.396,0.539-0.68,0.703c-0.285,0.166-0.602,0.248-0.952,0.248c-0.633,0-1.143-0.228-1.529-0.684
				c-0.387-0.455-0.58-1.045-0.58-1.77c0-0.729,0.203-1.341,0.608-1.833c0.405-0.492,0.908-0.738,1.506-0.738
				c0.671,0,1.209,0.229,1.613,0.683c0.404,0.454,0.606,1.113,0.606,1.979v2.126c0,0.835-0.213,1.483-0.64,1.944
				c-0.427,0.461-0.986,0.691-1.68,0.691c-0.249,0-0.498-0.025-0.747-0.076c-0.25-0.049-0.488-0.127-0.713-0.23l0.105-0.496
				c0.216,0.105,0.43,0.182,0.642,0.229C61.377,97.288,61.615,97.312,61.879,97.312z M61.974,94.914c0.414,0,0.76-0.11,1.038-0.329
				c0.278-0.219,0.477-0.49,0.594-0.814v-0.762c0-0.683-0.144-1.205-0.432-1.565c-0.288-0.36-0.678-0.541-1.171-0.541
				c-0.449,0-0.818,0.2-1.11,0.604c-0.291,0.402-0.437,0.889-0.437,1.459c0,0.555,0.137,1.019,0.411,1.391
				S61.51,94.914,61.974,94.914z"/>
		</g>
	</g>
	<g>
		<g enable-background="new    ">
			<path fill="#FFFFFF" d="M48.473,125.513H45.29l-0.716,2.012h-0.592l2.639-7.213h0.54l2.62,7.213h-0.592L48.473,125.513z
				 M45.48,124.983h2.806l-1.384-3.904h-0.029L45.48,124.983z"/>
			<path fill="#FFFFFF" d="M51.503,120.792v1.371h1.136v0.486h-1.136v3.49c0,0.352,0.061,0.602,0.184,0.746
				c0.123,0.146,0.286,0.223,0.489,0.223c0.092,0,0.182-0.006,0.27-0.014c0.088-0.008,0.188-0.021,0.303-0.043l0.086,0.441
				c-0.096,0.043-0.211,0.076-0.349,0.1c-0.137,0.021-0.273,0.033-0.41,0.033c-0.363,0-0.645-0.117-0.847-0.355
				c-0.202-0.236-0.303-0.613-0.303-1.131v-3.492h-0.893v-0.484h0.893v-1.371H51.503L51.503,120.792z"/>
			<path fill="#FFFFFF" d="M55.789,127.628c-0.646,0-1.183-0.248-1.611-0.742c-0.428-0.496-0.642-1.123-0.642-1.883v-0.273
				c0-0.766,0.212-1.4,0.637-1.906c0.425-0.506,0.939-0.758,1.544-0.758c0.633,0,1.131,0.209,1.494,0.623
				c0.362,0.416,0.544,0.973,0.544,1.666v0.506h-3.646v0.143c0,0.604,0.154,1.107,0.463,1.512c0.309,0.406,0.714,0.609,1.217,0.609
				c0.356,0,0.66-0.053,0.912-0.154c0.251-0.102,0.466-0.25,0.644-0.439l0.244,0.404c-0.194,0.215-0.44,0.383-0.737,0.508
				C56.554,127.565,56.2,127.628,55.789,127.628z M55.718,122.569c-0.423,0-0.778,0.168-1.064,0.502
				c-0.286,0.334-0.453,0.754-0.501,1.258l0.01,0.023h3.026v-0.146c0-0.465-0.132-0.855-0.396-1.166
				C56.529,122.728,56.169,122.569,55.718,122.569z M56.41,120.083h0.702l0.015,0.029l-1.188,1.289h-0.516L56.41,120.083z"/>
			<path fill="#FFFFFF" d="M64.666,125.2h1.088v0.506h-1.088v1.818h-0.568v-1.818h-3.26v-0.34l3.203-5.057h0.625V125.2z
				 M61.516,125.2h2.582v-4.111l-0.028-0.01l-0.244,0.539L61.516,125.2z"/>
		</g>
	</g>
	<g>
		<g enable-background="new    ">
			<path fill="#FFFFFF" d="M65.973,154.538c0,0.932-0.194,1.646-0.582,2.148c-0.389,0.502-0.928,0.752-1.618,0.752
				c-0.687,0-1.228-0.252-1.62-0.754c-0.393-0.504-0.589-1.221-0.589-2.146v-1.611c0-0.928,0.194-1.645,0.582-2.148
				c0.388-0.506,0.927-0.758,1.618-0.758c0.69,0,1.231,0.252,1.623,0.758c0.391,0.506,0.587,1.223,0.587,2.148L65.973,154.538
				L65.973,154.538z M65.4,152.827c0-0.74-0.14-1.309-0.42-1.705c-0.28-0.398-0.686-0.598-1.217-0.598
				c-0.532,0-0.936,0.197-1.212,0.598c-0.277,0.396-0.416,0.965-0.416,1.705v1.797c0,0.73,0.141,1.301,0.422,1.705
				c0.282,0.404,0.687,0.605,1.215,0.605s0.932-0.201,1.21-0.604c0.278-0.402,0.417-0.971,0.417-1.707L65.4,152.827L65.4,152.827z"
				/>
		</g>
	</g>
</g>
</svg>
