<?xml version="1.0" encoding="utf-8"?>
<!-- Generator: Adobe Illustrator 14.0.0, SVG Export Plug-In . SVG Version: 6.00 Build 43363)  -->
<!DOCTYPE svg PUBLIC "-//W3C//DTD SVG 1.0//EN" "http://www.w3.org/TR/2001/REC-SVG-20010904/DTD/svg10.dtd">
<svg version="1.0" id="Camada_1" xmlns="http://www.w3.org/2000/svg" xmlns:xlink="http://www.w3.org/1999/xlink" x="0px" y="0px"
	 width="182px" height="238px" viewBox="0 0 182 238" enable-background="new 0 0 182 238" xml:space="preserve">
<polygon opacity="0.8" fill="#043988" points="155.471,88.137 156.17,88.625 157.007,88.835 157.911,89.392 158.889,89.95 
	160.005,91.068 160.285,91.275 159.936,91.764 158.82,93.299 157.983,94.205 157.286,95.252 156.727,95.32 156.031,95.182 
	155.612,94.693 155.192,94.205 154.912,93.578 154.984,92.949 155.612,92.879 155.958,91.973 156.031,90.649 155.958,89.672 
	155.612,89.113 155.192,88.625 155.192,88.067 "/>
<polygon opacity="0.8" fill="#043988" points="154.912,87.161 155.541,87.51 156.31,87.998 157.075,88.276 157.911,88.696 
	158.402,89.043 159.027,89.392 159.797,89.95 160.422,90.37 161.053,90.578 161.678,90.021 162.726,89.183 163.632,88.067 
	164.329,87.231 164.819,86.742 165.097,85.904 165.236,85.347 164.19,85.069 163.284,85.208 162.656,85.417 162.307,86.394 
	161.54,86.812 160.562,86.952 159.447,86.952 158.402,86.952 157.774,86.673 157.075,86.255 156.658,85.904 156.1,85.904 
	155.471,86.255 155.122,86.742 "/>
<path opacity="0.8" fill="#043988" d="M157.146,69.793h0.628l0.907,0.349l0.836,0.418l1.116,0.071h1.324h1.116l0.977,0.14
	l0.769,0.418l0.487,0.628v0.488l0.419,1.045v0.767l0.14,1.117l-0.211,0.419h-1.184h-1.396l-0.906-0.349l-0.628-0.14l-0.418,0.14
	l-0.488,0.487l-0.072,0.559l-0.14,0.628h-0.694l-0.352-0.488l-0.904,0.068h-0.351l-0.21-0.487l0.561-0.977v-0.697l-1.048-0.208
	l-0.977,0.139l-0.558,0.558l-0.978,0.557c0,0-0.487,0.14-0.694,0.14c-0.212,0-0.697,0.071-0.697-0.14
	c0-0.209,0.626-1.046,0.626-1.046l0.488-0.836l1.047-1.604L157.146,69.793z"/>
<path opacity="0.8" fill="#043988" d="M153.101,76.558l-0.351,0.908l0.142,0.628l0.349,0.557l-0.14,0.838l-0.139,0.627l0.417,0.209
	l0.839,0.07l1.114-0.21l0.906-0.628l1.118-0.697l0.418-0.07L158.889,79l0.139,0.697l-0.277,0.348l-0.348,1.186v0.49l0.208,0.277
	l0.628,0.14l0.489-0.627l0.906-0.629h0.628l1.325-0.208l1.115-0.279l0.839-0.768l0.556-0.419l0.629-0.138h1.187v-0.699
	c0,0,0.067-0.836-0.141-0.906c-0.209-0.071-0.419-0.768-0.419-0.768l-0.349-0.278l-1.675-0.28h-1.115l-0.976-0.069h-0.839
	l-0.347,0.696l-0.559,0.768l-0.836,0.139l-0.631-0.488l-0.697,0.07l-0.487,0.278l-0.486-0.419l-0.489-0.697l0.349-1.046l0.488-0.698
	h-0.629l-0.766,0.418l-0.352,0.559l-0.626,0.278L154.912,76l-0.975,0.07L153.101,76.558z"/>
<path opacity="0.2" fill="#043988" d="M62.96,85.185l11.95,0.186l0.326-0.792l0.418-1.162l0.094-1.162v-0.977l0.186-0.743
	l0.186-0.604l0.326,0.045l0.185,0.232l0.094,0.559l0.419,0.791l0.371,1.254l0.232,1.955l0.559,0.557l3.114,2.559l1.256,0.185
	l5.068,0.188l11.068,0.462l8.044,0.561l-0.046,0.418l-0.326,1.069l-1.116,3.116c0,0-0.138-0.094-0.091,1.348
	c0.045,1.441,0.045,4.467,0.045,4.467l0.278,1.207c0,0,0.048,1.348-0.511,2.092c-0.558,0.744-0.836,2.139-0.836,2.139l-0.419,2.604
	l-0.465,0.744l-0.978,0.512l-0.791,0.744l-0.651,0.93l-0.278,0.838l-0.557,0.324l-0.979,0.652l-0.79,0.699l-0.929,1.533
	l-0.838,1.209l-0.697,0.928l-0.605,0.701l-0.092,0.648l-0.047,0.932l0.325,0.51l-0.046,0.328v0.789H93.93l-0.14-0.51l0.14-0.932
	l-0.14-0.512l-0.372-0.744l-0.698-0.047l-0.743,0.514l-0.419,0.369c0,0-0.652,0-0.932,0c-0.278,0-0.931-0.277-0.931-0.277
	l-0.556,0.092l-1.721,0.094l-1.116-0.467c0,0-0.187-0.184-0.791-0.602c-0.604-0.42-1.069-0.373-1.256-0.373
	s-1.163-0.094-1.628,0.094c-0.465,0.184-0.232,0.232-0.697,0.232s-1.024,0.371-1.162,0.465c-0.14,0.092-0.604,0.836-0.604,0.836
	l-0.278,0.514l-0.839-0.049h-0.324l-0.418-0.418l-0.977-0.605l-0.791-0.186l-0.883-0.605l-0.326-0.463l-0.232-1.582v-0.605
	l0.373-0.277l0.139-0.604v-0.512l-7.161-0.047l-0.139-1.35l-0.28-1.348l-0.232-0.326l-0.417-0.324l-0.234-0.605h0.792l0.138-0.977
	l-0.185-1.395l-0.373-0.557l-0.372-2.467l-0.465-0.371l0.559-0.512l2.093-3.07l0.048-2.883l-0.42-0.559l-0.232-0.789l0.139-0.605
	c0,0,0.278-0.883,0.139-1.068c-0.139-0.188-0.277-0.42-0.417-0.559c-0.14-0.141-1.208-0.418-1.208-0.418s-1.115-0.42-1.256-0.42
	s-3.162,0.047-3.162,0.047l0.094-1.859l-0.421-0.791l0.232-0.977L62.96,85.185z"/>
<path opacity="0.2" fill="#043988" d="M77.561,119.549l0.231,1.07c0,0,0.513,0.648,0.56,0.834c0.046,0.189,0.046,0.932,0.046,0.932
	l-0.651,0.746l-0.094,1.207c0,0,0.234,0.93,0.188,1.068c-0.048,0.141-0.744,1.07-0.744,1.07l-0.65,0.744l-0.094,0.697l0.559,0.697
	l-0.42,0.838c0,0-0.231,0.465-0.277,0.65c-0.048,0.188,0.232,0.604,0.232,0.838c0,0.232,0.371,1.023,0.371,1.162
	s0.232,0.744,0.232,0.744v1.256l0.139,1.721v1.021l1.396,0.141l0.325,0.094h1.768l1.998-0.049l1.304,0.279l0.882,0.281l0.512,0.51
	l0.418,0.838l0.189,1.115v1.021l0.323,0.281l0.371,0.604l0.093,0.836l0.187,1.117l0.325,0.42l1.116-0.094l0.558-0.326l0.651-0.324
	l0.837,0.047l0.372,0.418l0.513,0.092l0.371-0.463l0.094-1.07l0.838-0.652l0.14-0.648l0.51-0.652l0.604-0.697l1.861-0.979
	l0.697-0.697l1.162-1.068l1.86-1.441c0,0,0-0.605,0.046-0.744c0.045-0.139,0.51-0.699,0.51-0.699l0.096-0.836l0.65-1.023
	l0.978-1.348l0.742-0.975l0.745-0.607l0.326-0.232v-2.742l-1.071-0.326l-1.442-0.467c0,0-1.533-0.789-1.766-0.975
	s-0.883-0.465-1.07-0.605c-0.186-0.139-0.928-0.184-1.162-0.184c-0.232,0-0.744,0.092-0.978-0.096c-0.231-0.184,0-1.486,0-1.486
	s-0.836-0.23-0.929-0.42c-0.092-0.186,0.093-0.418-0.186-0.559c-0.28-0.137-0.977-0.137-1.302-0.137c-0.327,0-1.115,0-1.115,0
	l-0.28-0.885l0.373-0.418l0.232-0.559l0.185-0.695l-0.373,0.137l-0.23,0.188l-0.791,0.324h-0.884c0,0-0.882,0.047-1.023,0.047
	c-0.14,0-1.023,0.094-1.023,0.094s-0.79,0-1.068,0c-0.28,0-0.698,0.045-0.978-0.141s-0.836-0.371-0.977-0.418
	c-0.14-0.047-1.069-0.652-1.069-0.652s-0.372-0.184-0.559-0.184c-0.186,0-0.977,0.139-1.114,0.139c-0.139,0-1.163,0.371-1.163,0.371
	l-0.605,0.467l-0.604,0.463l-0.604,0.605l-0.464,0.049c0,0-0.698-0.094-0.885-0.141C78.444,120.059,77.561,119.549,77.561,119.549z"
	/>
<path opacity="0.2" fill="#043988" d="M106.668,100.715l0.839,0.514l0.791,0.604l0.79,0.139l0.791,0.746l0.977,0.277l0.186-1.256
	l0.604-0.371l1.396-0.047l0.139,0.838l0.187,0.604l0.558,0.094l0.977-0.094l0.79,0.094l0.65,0.371l0.326,0.186l1.023,0.047v-0.512
	l0.977-0.23l0.697-0.42l0.977-0.232l0.976-0.279l0.838-0.186l0.558,0.045l0.046,1.443l-0.325,0.186l0.093,2.465l0.326,0.418
	l0.418,0.559l0.279,0.186v1.535l-0.091,0.279l-0.42-0.047l-0.513-0.418l-0.558-0.234l-0.604,0.047l-0.185,0.559v0.463l-0.838,0.188
	l-0.559,0.094v0.604v1.303l0.187,0.51v0.281l0.093,0.557l-0.604,0.049l-0.884,0.09l-0.512,0.979l-0.186,0.744l-0.047,0.744
	l0.187,0.605l0.278,0.322l0.373,0.561l0.046,0.418l-0.558,0.465l-0.512,0.559l-0.186,0.512l0.092,0.557l0.42,0.186l0.186,0.326
	v0.836v0.42l-0.559,0.42l-0.697,0.371l-0.512,0.557l-0.14,0.373l-0.511-0.277l-0.884-0.188h-1.069l-1.208-0.045
	c0,0-0.605,0.137-0.744,0.137c-0.141,0-0.839,0.234-0.839,0.234l-0.556,0.465l-1.117-0.094l-1.49,0.232c0,0-0.65,0.141-0.788,0.141
	c-0.139,0-0.791,0.65-0.791,0.65l-0.697,0.836l-0.513,0.559l-0.836,0.977l-0.882-0.652l-0.979-0.51c0,0-0.558-0.326-0.79-0.326
	c-0.233,0-1.162-0.557-1.301-0.557c-0.14,0-0.791-0.514-0.933-0.559c-0.139-0.049-0.37-0.371-0.789-0.514
	c-0.419-0.139-0.883-0.322-0.883-0.322l-0.418-0.465l-0.096-0.514l-0.695-0.42l-0.186-0.836v-0.744l-0.141-0.65l-0.139-1.301
	l0.604-1.35l0.697-0.373l0.697-0.604l0.326-0.979l1.348-1.578l0.791-0.279l0.883-0.373l0.142-0.465l0.37-1.023l0.697-0.977
	l0.604-0.279l0.838-0.65l0.281-0.789l0.416-1.814l0.512-0.977l0.234-0.979c0,0,0-0.602,0.185-0.975
	c0.187-0.373,0.232-1.256,0.419-1.348c0.188-0.094,0.373-0.977,0.373-0.977L106.668,100.715z"/>
<polygon opacity="0.7" fill="#043988" points="91.744,144.752 91.744,146.521 91.65,147.912 91.65,149.449 91.045,150.146 
	90.767,150.332 91.09,150.518 91.512,150.518 91.835,150.24 92.115,150.377 92.672,151.262 92.997,151.912 93.186,152.797 
	94.066,153.213 95.138,153.4 96.16,153.494 97.276,153.539 98.394,153.68 98.811,154.006 99.786,154.283 101.274,154.609 
	102.437,154.656 102.763,154.33 102.811,153.818 103.091,153.213 104.205,153.168 104.809,153.121 105.321,152.564 105.691,152.236 
	106.668,152.236 107.973,152.236 108.992,152.236 109.229,152.75 109.692,152.982 110.157,152.936 110.762,152.473 111.367,152.33 
	112.018,152.33 112.762,152.33 113.224,152.609 113.552,152.609 113.83,152.1 114.017,151.447 114.481,150.982 114.621,150.563 
	114.946,150.332 114.898,149.633 114.481,149.309 113.877,149.309 113.319,149.262 113.087,149.078 113.133,148.377 113.133,147.82 
	110.528,147.82 110.296,146.799 110.205,145.773 109.785,145.076 109.182,144.566 109.134,143.961 108.992,142.658 108.9,141.637 
	108.298,141.031 107.505,140.938 104.624,140.893 103.927,140.426 103.46,140.146 102.901,140.008 102.437,139.914 101.136,139.822 
	99.647,139.729 99.136,139.729 98.113,139.729 97.323,139.775 96.44,139.775 95.976,139.775 95.185,140.146 94.392,140.799 
	93.604,141.541 93.323,142.193 92.394,143.217 92.067,143.869 "/>
<path fill="#043988" d="M97.136,138.752l1.35,0.094l1.395,0.092h1.115l1.072,0.094l0.837,0.186l0.882,0.559l0.651,0.188h1.304h1.021
	h1.211l0.65,0.139l0.278,0.42l0.419,0.416l0.372,0.371l0.187,0.512v0.746v0.559l0.046,0.605l0.185,0.463l0.234,0.092l0.139,0.467
	l0.326,0.42l0.094,0.51l-0.047,0.744l0.047,0.418l0.976,0.047h1.302l0.418,0.092l0.232,0.465l0.047,0.652l0.14,0.277l0.651,0.047
	l0.651,0.234l0.139,0.23l0.465-0.139l0.465-0.744l0.977-0.559c0,0,0.465-0.371,0.559-0.512c0.093-0.137,1.441-0.928,1.441-0.928
	l0.883-0.791l0.513-0.418l0.929-0.373l0.651-0.232l0.512-0.092l0.606-0.607l2.369-0.047l0.372-0.65l1.07-0.65l0.557-0.23
	l0.932-0.096l0.604-0.137l-0.048-0.422l0.048-0.416l0.559-0.559v-0.836h-0.698l-0.696-0.467h-0.839l-0.788,0.326l-0.745,0.279
	l-0.651,0.324l-0.791,0.279c0,0,0,0.373-0.139,0.418c-0.14,0.049-1.35,0.049-1.35,0.049l-1.068,0.047l-0.512-0.234l-0.419-0.838
	l-0.186-0.604c0,0-0.23-0.605-0.278-0.744s-0.048-1.068-0.048-1.068l-0.046-0.977l0.046-0.65l0.14-0.652l-0.698-0.186
	c0,0-0.696,0-0.836-0.279c-0.139-0.279-0.559-0.836-0.559-0.977c0-0.139-0.232-0.697-0.232-0.928c0-0.234-0.046-0.744-0.046-1.072
	c0-0.324-0.046-0.512-0.046-0.65c0-0.141-0.325-0.93-0.325-0.93l-0.513-0.373l-0.697-0.092l-0.559,0.139l-1.208,0.232h-1.488
	l-0.604,0.047l-0.279,0.605l-0.186,0.465l-0.698-0.326l-0.837-0.326l-0.465-0.697c0,0-0.28-0.418-0.606-0.465
	c-0.323-0.047-0.695-0.047-1.162-0.047c-0.465,0-1.766,0-1.766,0l-0.884-0.279l-0.559-0.045l-0.559,0.277l-0.788,0.42l-0.559,0.746
	l-1.07,0.836l-0.837,1.023l-0.232,0.697l-0.605,0.883l-0.093,0.744l-0.418,0.65l-0.046,0.604l-0.419,0.697l-0.838,0.605
	l-0.883,0.793L97.136,138.752z"/>
<path fill="#043988" d="M129.549,138.658l1.253-0.742l0.745-0.141l1.395-0.092l0.932-0.232h0.511h0.697l0.931-0.279l0.79-0.418
	l0.419-0.188l0.512-0.232l0.371-0.373l0.512-0.604l0.186-0.836l0.186-0.607l0.047-0.555l0.65-0.418l0.28,0.186l0.232,0.512
	c0,0,0.372,0.186,0.512,0.275c0.138,0.096,0.744,0.189,0.744,0.189h0.977h0.418l0.047,1.488l0.232,0.418l-0.047,0.418l-0.419,0.279
	l-0.743,0.418l-0.326,0.186l-0.65,0.186l-0.604,0.467l-0.325,0.604l-0.419,0.65l-0.233,0.373v0.512l-0.882,0.092
	c0,0-1.256,0-1.396,0s-1.116,0-1.116,0l-0.419-0.371v-0.465h-0.651l-0.464,0.047v0.742l-0.325,0.375c0,0-1.116-0.049-1.255-0.049
	c-0.141,0-0.652-0.186-0.652-0.186l-0.697-0.186l-0.371,0.42l-0.374,0.139l-0.232-0.42l0.278-0.65l-0.185-0.512l-0.464-0.186
	L129.549,138.658z"/>
<path fill="#043988" d="M140.708,133.033l0.558,0.232l0.512,0.232l1.487-0.186l0.373-0.418l0.465-0.465l0.373-0.512l0.604-0.744
	l0.557-0.791l0.279-0.51l0.373-0.977l0.186-0.885l0.931-0.465c0,0,0.324-0.188,0.324-0.373s0.141-1.162,0.141-1.162l0.139-1.58
	v-1.211l-0.325-0.93l-0.605-0.371l-0.696-0.51l-0.558-0.143h-1.069l-0.466,0.186l-0.418,0.281l-0.42,0.324v0.559l0.047,0.514
	l0.094,0.695l0.279,0.605l-0.279,0.418l-0.047,0.371v0.699l-0.139,0.883l-0.279,1.068l-0.279,0.605l-0.465,0.559l-0.232,0.604
	l-0.232,0.418l-0.744,0.143l-0.558,0.277l-0.047,0.789l-0.047,0.793l-0.093,0.883L140.708,133.033z"/>
<path fill="#043988" d="M104.589,127.824l0.035,0.422l1.221-0.037h1.185l1.257,0.068l1.673,0.037l0.838,0.418l0.383,0.418
	l0.351,0.42h0.661l0.209-0.279c0,0,0.176-0.246,0.418-0.246c0.245,0,0.873,0.035,1.116,0c0.245-0.033,0.524-0.209,0.663-0.209
	c0.14,0,1.08-0.104,1.08-0.104s0.769-0.139,0.873-0.139s0.941,0,0.941,0l0.594,0.207l0.349,0.35l0.349,0.42l0.209,0.73l0.211,0.768
	v0.768l0.171,0.662l0.106,0.35l0.278,0.455l0.42,0.486l0.487,0.279l0.418,0.104l0.523,0.244l0.175,0.49l-0.033,0.592l-0.071,0.559
	l-0.21,0.488v0.697l0.035,0.66l0.209,0.561l0.176,0.314l0.313,0.488l0.036,0.486l0.069,0.35h0.593l0.871-0.035l0.175-0.453
	l0.384-0.486l0.593-0.211l0.209,0.211c0,0,0.488,0.033,0.595-0.037c0.103-0.07,0.417-0.244,0.417-0.244l0.767-0.244l0.558-0.314
	l0.453-0.244l0.909-0.209l0.767-0.174l0.522-0.209l0.56-0.174l0.802-0.174l0.766-0.105l0.522-0.105l0.594-0.07h1.046l0.733-0.033
	l0.769-0.281c0,0,0.8-0.346,0.8-0.451s0.768-0.594,0.768-0.594l0.42-0.594l0.349-0.871l0.312-0.838l0.28-0.521l0.349-0.629
	l0.386-0.488l0.207-0.697l0.246-0.801l0.451-0.559l1.047-0.037l0.279-0.451l0.349-0.838l0.452-0.592c0,0,0.036-0.453,0.036-0.627
	c0-0.176,0.246-1.188,0.246-1.188l-0.142-0.592l-0.244-0.314l0.104-0.732l0.351-0.209l-0.036-0.627l-0.384-0.281
	c0,0,0.035-0.486,0.035-0.625c0-0.141,0.316-0.701,0.316-0.701l0.173-0.277c0,0,0.035-0.486,0.278-0.629
	c0.243-0.139,0.488-0.209,0.488-0.209l0.279-0.033l0.314,0.068h0.802h0.559l0.068-0.311l-0.767-0.701c0,0-0.453-0.662-0.489-0.766
	c-0.034-0.105,0.071-1.152,0.071-1.152l0.173-1.045l0.385-0.211h0.593l0.07-0.555l0.278-0.664l0.385-0.453l0.347-0.418l0.036-0.838
	l-0.872-0.418l-0.628-0.281l-0.733-0.277c0,0-0.453,0-0.557,0c-0.104,0-0.77,0-0.77,0h-0.484l-0.525,0.209h-0.453l-0.139-0.488
	l-0.142-0.697l-0.556-0.488l-0.351-0.453l-0.383-0.176c0,0-0.488-0.068-0.628-0.068c-0.138,0-0.767,0-0.767,0l-0.349-0.035
	l-0.629-0.244l-1.22-0.664l-0.804-0.625l-0.591-0.488c0,0-0.42-0.035-0.56-0.035s-0.661,0.068-0.661,0.068l-0.071,0.348
	l-0.487,0.035l-0.839-0.035l-0.592-0.627l-0.174-0.418l-0.175-0.383l-0.488-0.314l-0.626-0.105l-0.629,0.037l-1.256,0.869
	l-2.126,1.361l-1.919,0.941l-0.872,0.279l-0.559,0.244l-0.069-0.943c0,0-0.418-0.486-0.522-0.486c-0.105,0-0.664,0-0.664,0
	l-0.418,0.523l-0.593,0.209l-0.349,0.104l0.034,1.012l0.21,0.732l-0.035,0.803l-0.14,0.592l-0.626,0.35l-0.559-0.07l-0.594,0.281
	l-0.07,0.627l-0.069,1.045l0.351,0.488l0.067,0.592l0.07,0.629l-0.07,0.594l-0.521,0.383l-0.245,0.455l0.104,0.557l0.278,0.139
	l0.105,0.594l-0.14,0.801l0.104,0.662c0,0-0.208,0.213-0.278,0.42c-0.07,0.209-0.663,0.768-0.663,0.768l-0.802,0.314l-0.663,0.627
	l-0.383,0.42l-0.453-0.525c0,0-0.559-0.383-0.731-0.383c-0.176,0-0.7,0-0.7,0h-1.046l-0.94-0.033l-0.559,0.104l-0.384,0.455
	l-0.558,0.207l-0.802,0.07l-0.733,0.139l-0.941,0.139l-0.697,0.037c0,0-0.418,0.035-0.524,0.139
	c-0.104,0.104-0.521,0.244-0.626,0.592c-0.105,0.35-1.012,1.395-1.012,1.395s-0.663,0.84-0.769,1.014
	C104.589,127.268,104.589,127.824,104.589,127.824z"/>
<path opacity="0.7" fill="#043988" d="M93.697,154.051v1.023l0.045,1.023l0.092,0.559l0.793,0.047h1.022l0.93,0.047l1.023,0.137
	l1.395,0.373l0.838,0.371l0.649,0.143l0.837,0.277l0.746,0.188l0.604,0.324l3.255,3.115l0.696,0.232l0.931-0.045h1.023
	c0,0,0.278-0.141,0.37,0.139c0.095,0.279,0.281,0.604,0.281,0.604l-0.095,0.559l-0.232,0.514l-0.559,0.602l-0.23,0.512l0.557,0.139
	l0.56,0.236l0.371-0.561l0.791-0.697l0.697-0.605l1.256-0.65c0,0,0.324-0.281,0.371-0.463c0.047-0.188,0.372-1.352,0.372-1.352
	l0.279-1.021l0.093-1.115v-1.072l-0.047-1.252c0,0,0-0.934,0-1.072s-0.046-1.162-0.046-1.162l-0.14-0.648l-0.837-0.652h-0.745
	l-0.604,0.232l-0.371,0.324l-0.42,0.096l-0.79,0.23l-0.418-0.188l-0.279-0.324l-0.28-0.326l-0.697,0.049l-0.605,0.045l-0.929,0.139
	h-0.604l-0.513,0.559l-0.417,0.326l-0.791-0.045l-0.28,0.277l-0.417,0.559l-0.234,0.51h-0.559h-0.649l-0.697-0.09l-0.976-0.096
	l-0.932-0.23l-0.789-0.281l-0.744-0.232l-0.744-0.094h-0.513l-1.162-0.186l-0.883-0.092L93.697,154.051z"/>
<path opacity="0.7" fill="#043988" d="M78.816,169.025l0.743-0.092l0.652-0.42l0.742-0.279l0.697,0.141l0.652,0.697l1.07,0.93
	l0.882,0.979v0.604L84.628,172l0.512-0.139l0.604-0.326l0.42-0.232l0.464,0.422l0.279,0.324l0.418,0.559l0.605,0.51l0.697-0.139
	l0.604,0.605l0.7,0.324l0.51,0.371l0.604,0.697l0.467,0.604l0.695-0.043l0.745,0.557l0.139,0.465l0.513,0.467l0.511,0.695
	c0,0,0.185,0,0.325,0.094c0.141,0.092,0.698,0.465,0.698,0.465l0.371,0.418l-0.046,1.068l-0.371,0.514c0,0-0.604,0.326-0.604,0.465
	s-0.048,1.904-0.048,1.904l0.465-0.371l0.697-0.51l0.978-0.467l0.417-0.789l0.792-0.838l0.279-1.209l0.418-1.162l0.42-0.697v-1.209
	l0.416-0.697l0.559-0.465l0.047-1.072l1.022-0.232l0.514-0.369l0.138-1.117l0.651-0.463l0.465-1.955l0.417-0.232l0.652,0.186
	l0.048,0.324l0.51,0.188l0.374-0.418l0.511-0.139h0.698l-0.047,1.117l-0.465,0.463l-0.559,0.789l-0.977,0.885l-0.466,0.838
	l-0.419,0.65l-0.928,0.604l-1.025,0.652c0,0-0.604,0.279-0.742,0.371c-0.141,0.094-0.514,0.326-0.514,0.326l0.049,0.559l0.37-0.049
	l0.512-0.045l0.79-0.371l0.93-0.697l0.887-0.84l0.882-0.836l0.976-1.117l1.116-1.533l0.697-1.303l0.791-1.627l0.327-0.883
	l0.465-1.068l-0.419-0.281l-0.604-0.141l-0.095-0.883l0.371-0.928l0.513-0.791v-0.371l-1.255,0.094l-1.023-0.234l-0.743-0.186
	l-0.978-0.979l-0.558-0.65l-0.743-0.695c0,0-0.79-0.467-0.976-0.605c-0.188-0.141-1.072-0.373-1.072-0.373s-0.977-0.371-1.255-0.416
	c-0.277-0.049-1.114-0.049-1.395-0.188c-0.278-0.139-1.44-0.326-1.579-0.373c-0.142-0.045-0.84-0.371-1.721-0.326
	c-0.884,0.049-2.001,0.049-2.326,0.049c-0.326,0-1.023,0-1.023,0l-0.697,0.512l-0.791,0.557l-1.068,0.51l-0.836,0.514l-0.747,0.465
	l-0.741,0.418l-8.278,8.371L78.816,169.025z"/>
<path opacity="0.8" fill="#043988" d="M123.77,55.564l0.803,0.068l0.697,0.594l0.593,0.069l0.94,0.035l0.771,0.313l0.485,0.663
	l0.978,0.732c0,0,0.489,0.663,0.489,0.767c0,0.105,0.137,0.593,0.137,0.732s0,0.732-0.104,0.768
	c-0.104,0.034-0.767,0.697-0.767,0.697l-0.173,0.664l0.068,0.836l0.489,0.418l0.627-0.174l0.313-0.697l0.768-0.419h0.628
	l0.314-0.417c0,0,0.313-0.385,0.556-0.385c0.245,0,1.326-0.035,1.326-0.035l0.559-0.28l0.453-0.208l0.873,0.175l0.731,0.348
	l0.873,0.559l0.66,0.314l1.152,0.14l0.662,0.173l-0.068,0.663l-0.49,0.522l-0.766,0.419l-0.314,0.208l-1.115,0.246l-0.489,0.975
	l-0.558,0.977l-0.418,0.732c0,0-0.07,1.256-0.07,1.883c0,0.628,0.314,1.186,0.314,1.43c0,0.244,0.242,0.977,0,1.256
	c-0.244,0.279-0.453,1.151-0.697,1.359c-0.246,0.21-0.141,1.152-0.141,1.152l0.069,0.558l0.664,0.767l-0.14,1.011l-0.419,0.559
	l-0.906,0.07c0,0-0.559-0.245-0.697-0.245c-0.14,0-0.873,0.035-0.873,0.035l-0.801,0.07l-0.524,0.28l-0.768,0.66l-0.662,0.699
	l-0.907,0.872l-0.87,0.349l-1.536,0.42l-0.977,0.836l-0.454,1.045l-0.104,0.7c0,0-0.209,0.871-0.245,1.009
	c-0.034,0.141-0.559,0.908-0.628,1.014c-0.069,0.103-0.418,1.221-0.418,1.324c0,0.105,0.07,1.256,0.07,1.256l0.244,0.559
	c0,0,0.244,0.557,0.14,0.661c-0.105,0.104-0.069,1.5-0.069,1.5l-0.419,0.558c0,0-0.593-0.209-0.732-0.243
	c-0.141-0.034-0.628-0.349-0.628-0.349s-0.314-0.907-0.349-1.116c-0.034-0.209-0.068-1.011-0.21-1.186
	c-0.14-0.174-0.453-0.384-0.628-0.629c-0.174-0.244-0.661-0.8-0.661-0.905c0-0.105,0.07-0.802,0.07-0.907
	c0-0.105,0.417-0.977,0.417-0.977s0.768-0.314,0.907-0.383c0.139-0.07,0.348-1.048,0.348-1.048v-0.906c0,0-0.104-0.14-0.348-0.418
	c-0.245-0.279-1.814-0.139-1.814-0.139l-0.836-0.523l-0.873-1.117c0,0-0.451-0.697-0.418-0.837c0.035-0.14,0.349-1.464,0.349-1.464
	l0.174-3.314l-0.104-1.115l-0.349-0.733c0,0-1.604-1.046-1.743-1.046c-0.14,0-0.977-0.209-0.977-0.209l-0.209-0.454l1.046-1.22
	l1.256-0.627l0.803-0.698l0.836-1.325l1.012-1.641l0.837-1.185l0.733-1.152l0.173-0.696l0.21-0.698l0.139-0.629
	c0,0,0.176-0.452,0.245-0.558c0.069-0.104,0.488-0.871,0.488-0.871s0.244-1.046,0.244-1.15c0-0.105,0.174-0.873,0.174-0.977
	c0-0.105,0.35-1.223,0.35-1.223L123.77,55.564z"/>
<path opacity="0.8" fill="#043988" d="M122.548,95.182l0.071-1.115l0.487-1.047l0.769-0.418l0.487-0.488l0.628-0.699l0.628,0.143
	l0.42,0.625l0.486,0.559l0.629,0.209l0.837,0.42l0.557-0.07l0.838-0.486l0.629-0.281h1.116l0.417-0.488l0.978-0.836l0.627-1.046
	l0.209-0.559v-0.767l-0.139-0.28l-0.07-0.768l0.349-0.486h0.697l0.42,0.278c0,0,0.696-0.069,0.977,0
	c0.278,0.069,0.487,0.418,0.487,0.418h0.976l0.768-0.21l0.977-0.417l1.187-0.279l0.906-0.349l0.559-0.906l0.628-0.418L142.985,85
	l0.559,0.279l0.139,0.418l0.141,0.627l0.139,0.977l0.559,0.486l0.698,0.142l1.255-0.838l0.767-0.767l0.768-0.209l0.559-0.836
	l0.487-0.559l0.559-0.209h0.487l0.489,0.209l0.698,0.28l0.559,0.208l0.904,0.628l0.49,0.419l0.556,0.418l0.561,0.418l0.278,0.977
	l-0.068,0.629l0.139,0.487l0.627,0.35v0.349l-0.071,2.162l-0.556,0.279l-0.559,0.279v0.768l0.138,0.557l0.351,0.697l0.487,0.77
	l0.768,0.697l0.697,0.348l-0.349,1.047l-1.046,1.256l-0.908,1.047l-0.764,0.906l-0.071-0.418l-0.629-0.42l-0.766-0.068l-0.699,0.209
	c0,0-0.278,0.418-0.278,0.627s0.068,0.627,0.068,0.627v0.838l-0.349,0.697l-0.487,0.906l0.139,1.324l0.141,0.699l0.208,0.557
	l-0.068,0.629l-0.14,0.42l0.069,1.883l0.139,1.463l-0.068,0.838l0.28,0.559v0.695l-0.141,1.258l-0.349,0.766l-0.14,1.117
	l-0.28,0.977l-0.349,0.627v1.186l0.28,0.209v0.559l-0.978,0.906l-0.906,1.117l-0.488,0.139l-0.698-0.42l-0.348-0.695l-0.14-0.697
	l-0.559-0.418l-0.349-0.627l-0.139-0.699l0.069-0.559l0.628-0.697l0.488-0.906l0.697-0.699l0.418-0.904v-1.047l-1.115-0.838
	l-1.047-0.418l-0.905-0.348h-0.979h-0.976l-0.487-0.279l-0.21-0.559l-0.768-0.768l-0.627-0.35c0,0-0.768-0.141-1.045-0.141
	c-0.28,0-0.77-0.207-0.77-0.207l-1.046-0.35l-0.836-0.697l-0.838-0.42l-0.487-0.207l-1.048-0.07l-0.766,0.139l-0.559,0.211
	l-0.28-0.559l-0.21-0.697l-0.417-0.559l-1.185-0.209l-0.629,0.07l-1.046,0.277l-1.048,0.77l-1.254,0.627l-1.046,0.697l-0.978,0.488
	l-0.697,0.559l0.071-0.977c0,0,0.138-1.047-0.071-1.256s-0.488-1.047-0.488-1.047l-0.486-0.766l-0.142-1.396l0.142-0.627
	l0.138-1.186v-1.535l-0.279-0.836l-0.21-1.396l0.352-0.697l0.207-0.908l-0.349-1.113L122.548,95.182z"/>
<path opacity="0.8" fill="#043988" d="M140.267,62.051h0.557l0.838,0.278l0.209,0.349l-0.349,0.487l-0.14,0.558l0.07,0.559
	l0.487,0.767l0.349,0.837l0.419,0.766v0.768l0.209,0.836v1.604l0.279,2.442l0.069,1.045l0.141,0.767l0.277,1.396l0.279,0.766
	l0.21,0.559l0.697,0.488l0.21,0.628c0,0-0.139,0.417-0.349,0.486c-0.21,0.071-0.489,0.769-0.489,0.769l0.069,0.977l0.279,0.767
	l0.141,0.696l-0.279,0.838l-1.187,0.698l-1.185,0.907l-0.838,0.766l-0.906,0.977l-0.978,0.559l-0.976,0.07l-0.628,0.417l-0.698,0.21
	h-0.835l-0.56-0.069l-0.836-0.28l-1.046-0.209l-0.559,0.071l-0.349,0.418l-0.49,0.558l-0.068,0.837v0.696l-0.209,0.837l-0.42,0.559
	l-0.556,0.56l-0.768,0.207l-0.768,0.42l-0.767,0.418l-0.77,0.279c0,0-0.278-0.211-0.697-0.279c-0.416-0.07-0.416-0.07-0.416-0.07
	l-0.489-0.629l-0.28-0.486l-0.417-0.279h-0.906l-0.072-1.047l-0.069-0.906v-0.978l-0.207-0.766l-0.142-1.117l0.349-0.906
	l0.419-0.767l0.488-1.117l0.278-1.116l0.211-0.766l0.417-0.42l0.559-0.418l0.629-0.209l0.768-0.28l0.905-0.348l0.906-0.838
	l0.697-0.768l0.629-0.489l0.907-0.138l0.697-0.07l0.768,0.139h0.766l0.839-0.348l0.487-0.907l0.07-0.977l-0.211-0.559l-0.347-0.627
	l0.139-0.906l0.14-0.698l0.279-0.558l0.418-0.559l-0.209-0.698l-0.069-1.046l-0.14-1.255v-0.837l0.14-0.906l0.417-0.698l0.56-0.977
	l0.696-0.21l1.465-0.837l0.628-0.836L140.267,62.051z"/>
<path opacity="0.8" fill="#043988" d="M142.847,62.12l-0.279,0.628l-0.209,0.558l0.07,0.769l0.069,0.348l0.279,0.488l0.279,0.558
	l0.208,0.418v0.697l0.35,0.698l0.068,0.768v1.115l0.071,0.766l0.069,1.188l0.139,1.186l0.071,1.186l0.139,0.907
	c0,0,0.069,0.418,0.139,0.767c0.071,0.35,0.489,1.116,0.489,1.116l0.697,0.349l0.28,0.488l-0.142,0.838c0,0,0.07,0.278-0.139,0.486
	c-0.21,0.211-0.139,0.699-0.139,0.699l0.767,0.07l0.977-0.07l0.906-0.068h0.767l0.628,0.209l0.769,0.487l0.626,0.768l0.559-0.069
	l0.699-0.699l0.417-0.487l-0.209-0.628l-0.208-0.488v-0.907l0.417-0.907l0.14-1.046l0.699-1.187l0.974-1.186l0.7-1.185l0.628-1.116
	l0.558-1.046l0.977-0.628l-1.814-1.604l-1.536-1.187l-0.417-0.627c0,0-0.629-0.419-0.836-0.419c-0.21,0-0.908-0.419-0.908-0.419
	l-0.977-0.697l-1.046-0.697l-1.046-0.558l-1.046-0.557h-1.116h-1.464h-0.699L142.847,62.12z"/>
<polygon opacity="0.8" fill="#043988" points="143.335,84.301 144.103,84.929 144.382,85.486 144.451,85.976 144.8,86.533 
	144.8,86.812 145.009,87.161 145.497,86.881 145.915,86.394 146.334,85.697 147.031,85.697 147.45,85.069 148.079,84.51 
	148.984,83.953 149.682,83.743 150.38,83.882 151.146,84.162 151.914,84.301 152.611,84.858 153.521,85.347 154.006,85.976 
	154.773,85.904 155.541,85.347 156.1,85 156.727,85.417 157.494,85.904 158.191,86.115 159.027,86.464 160.355,86.394 
	161.471,86.324 161.678,85.904 162.168,85.139 162.656,84.79 163.354,84.579 164.119,84.579 164.888,84.579 165.654,84.579 
	165.936,84.092 166.214,83.326 166.494,82.417 166.912,81.093 166.912,80.117 166.353,79.767 165.517,79.697 164.958,80.045 
	164.471,80.466 163.842,80.813 163.284,81.093 162.377,81.231 161.678,81.231 161.053,81.511 160.285,81.86 159.936,82.349 
	159.447,82.906 158.61,82.976 158.121,82.556 157.911,81.791 157.911,81.022 158.053,80.045 158.121,79.697 157.774,79.558 
	157.146,79.697 156.519,80.117 155.682,80.744 155.054,81.093 153.938,81.022 153.449,81.022 152.82,81.022 151.846,81.022 
	150.938,81.093 150.171,81.022 149.544,80.254 148.774,79.837 148.147,79.837 146.822,79.697 145.009,79.628 145.148,80.186 
	145.219,80.675 145.497,81.441 145.497,81.791 145.148,82.417 144.661,82.976 144.033,83.533 "/>
<path opacity="0.1" fill="#043988" d="M15.529,78.023l1.767,1.116c0,0,8.185,2.51,10.045,2.51c0.371,0,0.93,0.467,0.93,0.467
	l1.115,0.743c0,0,10.417,5.673,11.533,5.767c1.117,0.092,1.117-0.371,1.117-0.371l0.651-0.56l0.651-0.65l1.115-0.187l1.303,0.373
	l1.301-0.558h0.838l0.65-0.279l0.28-0.744l1.208-0.279l1.581-0.093l0.372-0.838l0.558-0.372v-0.837l1.21-0.745l0.093-0.838
	l3.721-0.185l0.464,0.93l0.93,0.837l1.208,1.208l1.117-0.093l1.023,0.187h6.138l5.394-0.094l0.931-0.744l0.093-1.859l0.651-1.489
	l0.187-1.581l-0.56-1.301l-0.371-0.93l7.904-15.997l0.373-1.395l0.371-0.743l-1.488,0.372l-1.209-0.837l-1.207-1.023l-3.069-0.279
	l-0.931-1.395c0,0-1.859-2.562-2.046-2.604c-0.278,0.279-0.146-0.742-0.146-0.742L73.259,50.6l-0.174-1.045l-0.686-0.082h-1.141
	l-1.51,0.024l-0.396,0.103l-0.627,0.86l-0.931,1.233l-0.431,0.685c0,0-0.185,0.908-0.197,0.954
	c-0.012,0.046-0.267,0.361-0.267,0.361l-0.581,0.245l-1-0.013l-0.721-0.534l-0.454-0.535l-0.615,0.115c0,0-0.523,0.338-0.558,0.36
	c-0.036,0.023-0.384,0.558-0.384,0.558l-0.047,0.93l-0.083,1.419l-0.545,0.104l-0.617,0.012c0,0-0.604-0.336-0.674-0.371
	c-0.069-0.036-0.418-0.396-0.418-0.396s-0.535-0.476-0.593-0.534c-0.059-0.058-0.454-0.569-0.454-0.569s-0.488-0.477-0.512-0.523
	c-0.022-0.047-0.267-0.453-0.267-0.453v-0.349l0.024-0.825l-0.072-1.616c0,0-0.115-0.629-0.126-0.664
	c-0.012-0.034-0.198-1.093-0.198-1.127c0-0.035-0.023-1.058-0.023-1.058s-0.058-0.861-0.105-0.954
	c-0.044-0.093-0.383-0.639-0.439-0.72c-0.06-0.082-0.431-0.767-0.431-0.767l-0.42-1.035c0,0-0.268-0.744-0.37-0.896
	c-0.106-0.153-0.385-0.732-0.407-0.768c-0.023-0.035-0.14-0.291-0.14-0.291l-1.082-0.012l-0.163-0.244l-0.337,0.105l-0.336,0.313
	l-0.849,0.372l-0.174,0.732l-0.581,0.64l-0.605,0.65l-0.824,0.118l-0.664,0.243l-0.534,0.42l-0.628,0.475l-0.849,0.907l-0.72,0.175
	l-0.676,0.151l-0.417-0.302l-0.036-0.419h-0.534l-0.405,0.081l-0.188,0.489l-0.791-0.012l-0.977-0.011l-0.314-0.222
	c0,0-0.243-0.327-0.279-0.361s-0.5-0.419-0.5-0.419l-0.396-0.301l-1.523-0.127l-0.046-2.21l-0.43-0.673l-0.257-0.384l-0.243-0.244
	l-0.546,0.418l-0.479,0.325l-0.266,0.5l-0.674,0.407l-0.57-0.72l-0.174-0.373l-0.336,0.501l-0.337,0.453l-1.813,0.012l-1.245-0.071
	l-1.766-0.046c0,0-0.372,0.093-0.407,0.105s-0.512,0.266-0.512,0.266s-0.163,0.361-0.151,0.396c0.012,0.036,0.094,0.755,0.094,0.755
	l0.057,0.536c0,0,0.116,0.197,0.28,0.21c0.163,0.01,0.696,0.01,0.696,0.01s0.665,0.036,0.722,0.036c0.058,0,0.302,0.197,0.302,0.197
	s0.244,0.197,0.269,0.244c0.023,0.046,0.279,0.464,0.279,0.464l0.104,0.523c0,0,0,0.489,0,0.524c0,0.035-0.117,0.464-0.117,0.464
	h-0.407l-0.72,0.047l-0.187-0.186l-0.616-0.046l-0.546,0.221l-0.72,0.035l0.011,0.65l-0.021,2.023l0.349,0.336
	c0,0,0.417,0.233,0.463,0.28c0.046,0.046,0.327,0.243,0.396,0.301c0.069,0.059,0.349,0.164,0.349,0.164l0.058,0.988l-0.07,0.476
	l0.5,0.669l0.228,0.646l-0.21,2.546v1.169c0,0-0.298,0.905-0.298,1.062c0,0.158-0.399,1.135-0.399,1.135l-0.018,1.168
	c0,0-0.228,0.348-0.243,0.47c-0.017,0.123-0.054,1.57-0.054,1.57s-0.261,0.696-0.28,0.801c-0.016,0.105,0,1.011,0,1.011
	s-0.383,1.169-0.435,1.257c-0.053,0.086-0.383,0.626-0.454,0.644c-0.069,0.018-0.732-0.018-0.819-0.018
	c-0.087,0-0.767-0.244-0.82-0.297c-0.052-0.052-0.366-0.261-0.366-0.261h-0.785l-0.593,0.228l-0.245,0.435l-0.923,0.366
	l-1.308,0.122l-1.186,0.035l-0.697,0.296l-0.803,0.471l-0.557,0.419c0,0-0.872,0.592-0.872,0.644c0,0.054-0.769,0.995-0.837,1.082
	c-0.07,0.088-0.297,0.873-0.297,0.873l-0.123,0.558l-0.383,0.541c0,0-0.314,0.47-0.331,0.523c-0.018,0.051,0.104,0.802,0.104,0.802
	l0.122,0.505l-0.349,0.925l-0.644,0.592c0,0-0.715,0.384-0.715,0.454C15.971,77.309,15.529,78.023,15.529,78.023z"/>
<path opacity="0.1" fill="#043988" d="M50.811,33.558c0.141,0,1.465,0,1.465,0l0.628,0.663l0.628,0.487l1.325,0.141l0.907,0.104
	l0.348,0.698l0.769,0.068h0.871l0.349-0.522l0.105-0.768l0.628-0.348l0.87-0.244h1.36l0.595-0.174l0.837-0.593l0.802-0.419
	l0.661-0.313l0.978-0.105l0.696-0.837l0.733-0.942l0.105-0.697l1.534,0.069l0.349,0.699l-0.349,0.593l-0.278,0.558l0.033,0.696
	l0.699,0.105l0.73,0.315l0.488,0.801l0.281,0.628l-0.176,0.628l-0.522,0.522l-0.141,0.663l-0.348,1.15l0.035,0.558l-0.211,0.454
	v1.325l0.035,0.697l0.385,0.524l0.348,0.697l0.035,1.081l0.522,0.314l0.837,0.731l0.454,0.629l1.081,0.697l0.313,0.419l0.07,2.058
	v1.15l-0.487,0.209h-1.535l-1.499-0.034c0,0-0.315,0.349-0.454,0.383c-0.138,0.035-0.907,0.942-0.907,0.942l-0.349,0.731v0.42
	l-0.349,0.279l-0.278,0.349l-0.349,0.487l-0.07,0.628l-0.209,0.313l-0.523,0.104l-0.313-0.313l-0.314-0.419l-0.733-0.453
	l-0.558-0.209l-0.627,0.14l-0.489,0.453l-0.486,0.348l-0.524,0.663l-0.104,1.744l-0.243,0.209l-0.524-0.349l-0.802-0.976
	l-0.487-0.559l-0.279-0.279l0.418-0.593v-0.662l-0.139-0.384l-0.313-0.523l-0.106-0.663l-0.104-0.872l-0.104-0.732l-0.07-1.185
	v-1.292L58.414,45.8l-0.418-0.489l-0.351-0.593l-0.382-0.803l-0.28-0.698L56.6,42.346l-0.139-0.383l-0.558-0.488h-0.313l0.035-1.325
	c0,0-0.558,0-0.662-0.035c-0.105-0.035-0.942-0.035-0.942-0.035l-0.454,0.035l-0.731-0.139l-0.246-0.14h-0.313
	c0,0-0.104-2.825-0.104-2.929c0-0.104,0.417-0.593,0.417-0.593l0.246-0.384v-1.047l-0.838-0.558l-0.558-0.174l-0.523-0.174
	l-0.21-0.278L50.811,33.558z"/>
<path opacity="0.1" fill="#043988" d="M73.688,45.834l-0.033,2.651l0.068,1.114c0,0,0.21,1.746,0.21,1.919
	c0,0.175,0.209,0.907,0.209,0.907l0.628,0.453l0.35,0.418l0.173,0.803l0.455,0.592l0.591,0.699l0.559,0.592l0.698,0.069l0.662,0.07
	l0.242,0.105l0.559-0.209l0.49,0.034l0.522,0.35l0.594,0.698l0.731,0.278l0.767,0.454l0.734,0.034l0.383-0.349l0.593-0.104
	l0.662,0.348l-0.069,0.56l-0.07,0.593l-0.349,0.139l-0.349,0.836l-0.21,0.803l-0.521,0.592l-0.769,1.955l-6.521,13.182l0.034,0.524
	l0.488,0.592l0.07,0.559c0,0,0.454,0.417,0.418,0.523c-0.034,0.104,0,0.906,0,0.906l0.418,0.453l0.314,0.454l0.314,0.908
	l0.454,0.523l0.104,0.941l0.035,1.395l0.801,0.593l0.942,0.768l0.628,0.662l0.767,0.662l0.523,0.141l1.465,0.104l1.953,0.21
	l0.522,0.208l4.953,0.209l4.64,0.034l3.066,0.246h3.105l4.22,0.173l1.256,0.036l0.453-1.151l1.046-1.708
	c0,0,0.768-0.767,0.873-0.836c0.104-0.07,0.626-0.698,0.626-0.698l0.386-1.047l0.103-1.081l-0.14-0.733l-0.385-0.418l0.105-1.081
	l0.419-0.595l0.175-0.8l0.21-0.769c0,0,0.278-0.174,0.452-0.279c0.176-0.103,1.083-0.872,1.083-0.872l0.695-0.417l0.349-0.524
	l0.56-1.012l0.035-0.941l-0.035-0.906l-0.384-0.07l-0.697-0.314l-0.28-0.697l0.873-1.047l2.231-1.918l1.187-0.523l0.872-1.115
	l1.744-2.791l1.22-1.638l0.069-1.15l0.279-0.698l0.455-0.802l0.487-1.15l0.173-1.745l0.349-0.454v-1.116l-0.628-0.384h-1.08
	l-0.314-0.559c0,0-1.081-0.139-1.255-0.208c-0.175-0.07-0.872-0.139-0.872-0.139l-1.012-0.106l-0.905-0.174l-0.594,0.069
	l-0.42,0.418l-2.162,2.337l-1.219,1.499l-0.942,0.523l-1.011,0.036l-0.559-0.35l-0.489,0.036l-0.278,0.418l-0.21,0.419l-0.626-0.245
	l-0.594-0.487l-1.674-0.313c0,0-0.521-0.245-0.628-0.314c-0.105-0.07-0.559-0.697-0.559-0.697l-0.522-1.151l-0.278-0.245h-0.804
	l-1.08,0.663l-1.011,0.488l-1.605,0.314l-0.418-0.419l0.209-0.766l0.907-0.176l-0.069-0.417l-1.047-0.139
	c0,0-0.559-0.593-0.697-0.663c-0.141-0.069-0.662-0.907-0.662-0.907l-0.141-0.871l-0.523-0.664l-1.08-1.499
	c0,0-0.176-0.908-0.349-1.187c-0.176-0.279-0.28-0.837-0.28-1.046c0-0.208-0.453-0.837-0.662-1.012
	c-0.21-0.174-0.418-1.012-0.558-1.22s-0.698-0.697-0.698-0.697l-1.08-0.628l-1.117-0.802c0,0-0.837-0.175-0.976-0.279
	c-0.139-0.105-0.943-0.419-1.012-0.559c-0.07-0.14-0.209-1.047-0.209-1.047l-0.105-0.977l-0.417-0.522c0,0-0.768,0-0.873,0
	c-0.104,0-0.906,0.245-0.906,0.245l-0.419,0.313h-0.905l-0.49-0.105l-0.104,0.453l0.034,0.768v0.698l-0.103,0.313h-0.941H83.14
	l-1.639-0.139l-0.836,0.068c0,0-0.942-0.068-1.116-0.034c-0.175,0.034-1.186,0.698-1.186,0.698l-0.906,0.349l-0.942,0.453
	l-1.535,0.522l-0.733,0.523L73.688,45.834z"/>
<path opacity="0.1" fill="#043988" d="M90.081,41.544l1.046,0.348l0.698,0.142l0.626-0.106l0.279-0.314l0.873-0.034h0.731
	l0.628,0.313l0.664,0.07l0.904-0.035l0.907-0.593c0,0,0.385-0.592,0.49-0.767c0.104-0.174,0.766-1.743,0.766-1.743l0.977-1.674
	l0.906-1.395l0.942-1.151l0.732-0.628l0.629,0.489l0.452,0.557c0,0,0.07,0.734,0.07,0.873c0,0.14,0.034,1.779,0.034,1.779
	l0.175,0.523l0.384,0.592c0,0,0.277,0.315,0.277,0.489c0,0.175,0.142,1.012,0.105,1.116c-0.035,0.104,0.245,1.256,0.245,1.256
	l0.313,0.628l0.662,0.697l0.732,0.558l0.838,0.139l0.418,0.418l0.418,0.699l-0.104,0.835c0,0-0.348,0.14-0.453,0.279
	c-0.105,0.141-0.906,0.941-1.29,1.291c-0.385,0.347-1.046,1.325-1.046,1.325l-0.976,0.802c0,0-0.699,0.488-0.979,0.592
	c-0.277,0.105-0.697,0.524-0.697,0.628s-0.452,1.151-0.452,1.151l-0.522,0.732l-0.63,0.802l-0.244,0.975c0,0-0.174,0.21-0.384,0.21
	s-0.766,0-0.766,0s-0.28-0.454-0.385-0.557c-0.106-0.106-0.452-0.733-0.558-1.047c-0.104-0.313-0.629-1.151-0.629-1.151
	s-0.349-0.557-0.523-0.803c-0.174-0.243-0.522-0.941-0.695-1.116c-0.176-0.175-0.488-0.593-0.488-0.593s-0.07-0.767-0.105-0.942
	c-0.035-0.173-0.35-1.22-0.593-1.43c-0.244-0.208-0.663-1.359-0.767-1.464c-0.105-0.104-0.315-0.663-0.629-0.768
	c-0.313-0.104-0.768-0.279-1.046-0.454c-0.277-0.174-0.872-0.383-1.048-0.418c-0.172-0.034-0.521-0.454-0.904-0.522
	c-0.385-0.07-0.594-0.245-0.769-0.384c-0.175-0.14-0.663-0.628-0.663-0.873C89.661,41.649,90.081,41.544,90.081,41.544z"/>
<path opacity="0.1" fill="#043988" d="M65.494,103.344c0,0-1.326-0.244-1.536-0.244c-0.209,0-1.43,0.033-1.673,0
	c-0.244-0.035-1.187-0.105-1.187-0.105l-0.836-0.559l-0.384-0.66l-0.523-0.281l-1.29-0.209l-0.837-0.174l-0.49-0.455l-0.452-0.557
	l-0.28-0.523l-0.383-0.244l-0.662,0.279H54.37l-0.384-0.35l-0.525-0.313l-0.592-0.035l-1.22,0.139l-0.838-0.383l-0.697-0.803
	l-0.976-0.871l-0.558-0.559l-0.524-0.732l-0.382-1.15l0.07-1.568l-0.21-0.734l-0.173-0.906l0.453-0.418l0.036-1.815l-0.315-0.662
	H46.73c0,0-1.395,0.036-1.604,0.036s-1.43,0.313-1.43,0.313l-0.837,0.243L42.686,88.8l0.278-0.384l0.417-0.454
	c0,0,0.56-0.104,0.664-0.104s0.872,0,0.872,0l1.082-0.035l1.116-0.21h1.291l0.523-0.349l0.489-0.661l0.417-0.454h1.815
	c0,0,0.523-0.035,0.593-0.21c0.069-0.172,0.14-0.801,0.14-0.801l0.627-0.384l0.14-0.802l0.312-0.42l0.594-0.034l0.454-0.837
	l0.454-0.383l0.662,0.035h1.08l0.664,0.523l1.011,0.662l0.662,0.733l0.662,0.698l0.524,0.349l0.489,0.068l0.417-0.104h0.524
	l0.324,0.917l-0.092,0.512l0.14,0.697l0.092,0.651l-0.047,1.162l-0.232,0.838l0.14,1.163l0.093,0.604v0.605l-0.045,0.885l0.185,0.23
	l0.094,0.465l1.257-0.094l1.671,0.047h1.629l0.187,0.559l0.884,0.139l0.511,0.232l-0.093,0.42l-0.513,0.559l-0.046,0.65l0.326,0.883
	l0.511,0.885l0.047,1.719l-0.418,0.465l-0.839,1.209L65.494,103.344z"/>
<path opacity="0.1" fill="#043988" d="M114.04,71.328l1.047,0.138l0.836,0.35l1.046,0.417l0.35,0.698l0.348,1.396l-0.139,1.535
	l-0.069,1.395l-0.279,0.697l-0.279,0.697l0.069,0.767l0.838,0.558l0.487,0.699l0.628,0.766l1.047,0.489h1.046l0.279,0.768
	l-0.349,0.628l-0.698,0.348l-0.488,0.627l-0.14,0.768l-0.139,0.767l0.349,0.559l0.627,0.837l0.419,0.628l0.14,0.767l0.209,0.629
	l0.488,0.767l0.418,0.349l0.628,0.419l0.769,0.139l0.28,0.418l-0.49,0.35l-0.627,0.697l-0.419,0.627l-0.488,0.836l-0.07,1.049v0.627
	l0.836,0.559c0,0,0.071,0.139,0,0.418c-0.068,0.277,0,1.463,0,1.463l-0.348,0.488v0.838l0.279,0.49l-0.07,0.836l-0.556,0.07
	l-1.675,0.697l-1.187,0.277l-1.396,0.211l-0.767,0.139l-0.139,0.418l-1.048-0.557l-0.697-0.279l-0.627-0.279l-0.699-0.418
	l-0.557-0.559h-0.558l-1.116,0.07l-0.767,0.557l-0.35,0.697l-0.837-0.277l-0.697-0.279l-0.489-0.559l-0.627-1.117
	c0,0,0.139-0.557-0.142-0.557c-0.276,0-1.043,0.557-1.043,0.557l-0.349-1.254v-2.303l0.277-2.51l0.697-2.023l0.629-1.185
	l0.279-1.256l0.14-1.465l0.418-0.836l1.116-1.186l0.559-0.559l0.557-0.836l0.418-0.907l0.279-1.185v-0.836l-0.279-0.977l0.068-1.046
	l0.282-1.187l1.046-0.558l0.976-0.836l0.697-0.768l0.419-1.046l0.278-1.186v-1.047l-0.627-0.767L114.04,71.328z"/>
<path opacity="0.1" fill="#043988" d="M106.855,56.75l0.419-0.278l0.556-0.14l0.352,0.14l0.419,0.208l0.487-0.278l0.417-0.418
	l0.49-0.28l0.487,0.21l0.349-0.21l0.628-0.558l0.769-0.069l0.627-0.907l0.558-0.838l0.14-0.696l0.209-0.698l-1.115-0.069
	l-0.768-0.139h-0.976l-0.489,0.07h-0.977l-0.629-0.211l-0.835-0.278l-0.698,0.14l-0.28,0.766l-0.067,0.628l-0.071,0.767
	c0,0,0.139,0.768,0,0.977c-0.14,0.209-0.21,1.116-0.21,1.116l-0.068,0.976L106.855,56.75z"/>
<polygon opacity="0.1" fill="#043988" points="109.715,50.89 110.413,50.402 110.132,49.775 109.577,49.845 109.156,50.542 "/>
<path opacity="0.1" fill="#043988" d="M109.088,48.869l-0.349,0.906l-0.07,0.488c0,0-0.419-0.139-0.627-0.139
	c-0.212,0-1.048-0.14-1.048-0.14l0.349-0.628l0.63-0.766L109.088,48.869z"/>
<polygon opacity="0.1" fill="#043988" points="104.903,51.378 104.137,52.215 103.996,51.378 104.205,50.473 104.973,50.053 
	105.67,50.053 105.67,50.473 105.393,51.101 "/>
<polygon opacity="0.1" fill="#043988" points="102.811,53.541 102.182,54.239 101.623,55.146 100.995,55.494 101.414,54.378 
	102.043,53.263 102.53,52.982 "/>
<polygon opacity="0.1" fill="#043988" points="105.321,53.332 104.832,53.472 104.555,53.82 104.973,53.959 105.393,54.169 
	106.158,53.75 105.67,53.192 "/>
<polygon opacity="0.1" fill="#043988" points="105.6,51.937 106.158,51.937 106.229,51.101 105.741,51.309 "/>
<polygon opacity="0.1" fill="#043988" points="105.949,55.354 105.88,55.913 105.251,55.913 105.181,55.285 105.251,54.867 
	105.67,54.867 "/>
<g opacity="0.1">
	<g>
		<path fill="#013889" d="M39.375,14.453l0.458-4.424h4.184v1.144h-3.084l-0.239,2.021c0.156-0.112,0.342-0.207,0.558-0.283
			s0.455-0.116,0.716-0.12c0.737-0.007,1.311,0.223,1.722,0.692c0.41,0.468,0.616,1.117,0.616,1.945
			c0,0.785-0.216,1.422-0.648,1.912s-1.079,0.735-1.939,0.735c-0.697,0-1.287-0.188-1.768-0.564
			c-0.481-0.375-0.713-0.912-0.695-1.609l0.011-0.027l1.242-0.038c0,0.37,0.112,0.66,0.335,0.869
			c0.224,0.209,0.515,0.313,0.875,0.313c0.414,0,0.728-0.14,0.942-0.419c0.214-0.28,0.322-0.667,0.322-1.161
			c0-0.476-0.111-0.858-0.333-1.147c-0.222-0.289-0.538-0.433-0.948-0.433c-0.363,0-0.633,0.058-0.809,0.174
			s-0.304,0.287-0.384,0.512L39.375,14.453z"/>
		<path fill="#013889" d="M45.396,11.555c0-0.465,0.15-0.854,0.45-1.168c0.299-0.314,0.709-0.471,1.229-0.471
			c0.523,0,0.934,0.156,1.234,0.468c0.299,0.313,0.449,0.703,0.449,1.171v0.419c0,0.465-0.15,0.853-0.449,1.163
			c-0.3,0.311-0.708,0.466-1.223,0.466c-0.523,0-0.936-0.155-1.237-0.466s-0.452-0.698-0.452-1.163V11.555z M46.317,11.974
			c0,0.232,0.066,0.43,0.199,0.591c0.132,0.162,0.322,0.242,0.569,0.242c0.24,0,0.424-0.08,0.553-0.24
			c0.129-0.16,0.193-0.357,0.193-0.594v-0.419c0-0.236-0.066-0.436-0.199-0.599c-0.132-0.164-0.319-0.245-0.558-0.245
			c-0.244,0-0.431,0.082-0.562,0.245c-0.131,0.163-0.196,0.363-0.196,0.599V11.974z M47.357,17.368l-0.681-0.392l3.874-6.2
			l0.681,0.393L47.357,17.368z M49.209,16.017c0-0.461,0.151-0.849,0.452-1.163c0.301-0.314,0.71-0.471,1.226-0.471
			c0.523,0,0.934,0.156,1.234,0.468c0.299,0.313,0.449,0.701,0.449,1.166v0.425c0,0.469-0.15,0.858-0.449,1.168
			c-0.3,0.311-0.708,0.466-1.223,0.466c-0.523,0-0.936-0.156-1.237-0.468s-0.452-0.701-0.452-1.166V16.017z M50.13,16.441
			c0,0.232,0.068,0.431,0.204,0.594c0.136,0.164,0.324,0.245,0.564,0.245c0.254,0,0.443-0.079,0.566-0.237
			c0.124-0.158,0.186-0.359,0.186-0.602v-0.425c0-0.232-0.066-0.431-0.199-0.594c-0.132-0.164-0.32-0.245-0.563-0.245
			c-0.244,0-0.431,0.082-0.562,0.245c-0.13,0.163-0.196,0.361-0.196,0.594V16.441z"/>
	</g>
</g>
<g opacity="0.8">
	<g>
		<path fill="#013889" d="M143.171,33.723h-5.116v-0.91l2.479-2.866c0.402-0.476,0.683-0.868,0.839-1.177
			c0.156-0.309,0.234-0.604,0.234-0.888c0-0.338-0.095-0.613-0.283-0.826c-0.189-0.212-0.46-0.318-0.813-0.318
			c-0.41,0-0.725,0.132-0.942,0.397s-0.327,0.599-0.327,1.002h-1.279l-0.012-0.033c-0.018-0.679,0.206-1.254,0.673-1.724
			s1.097-0.706,1.888-0.706c0.76,0,1.353,0.204,1.779,0.61s0.64,0.94,0.64,1.602c0,0.447-0.119,0.866-0.356,1.258
			c-0.238,0.393-0.629,0.917-1.174,1.575l-1.673,1.917l0.011,0.027h3.433V33.723z"/>
		<path fill="#013889" d="M146.822,29.125c0.429,0,0.737-0.107,0.926-0.322c0.189-0.214,0.283-0.514,0.283-0.899
			c0-0.345-0.102-0.625-0.305-0.841c-0.203-0.216-0.498-0.324-0.883-0.324c-0.355,0-0.652,0.106-0.888,0.318
			c-0.236,0.212-0.354,0.479-0.354,0.798h-1.27l-0.011-0.033c-0.021-0.606,0.21-1.116,0.694-1.528
			c0.485-0.412,1.095-0.618,1.828-0.618c0.773,0,1.385,0.19,1.833,0.569c0.449,0.379,0.673,0.933,0.673,1.659
			c0,0.363-0.099,0.697-0.297,1c-0.197,0.303-0.473,0.54-0.825,0.711c0.403,0.16,0.712,0.4,0.926,0.722
			c0.215,0.321,0.322,0.709,0.322,1.163c0,0.73-0.245,1.302-0.735,1.716c-0.491,0.414-1.123,0.621-1.896,0.621
			c-0.697,0-1.31-0.197-1.836-0.591s-0.781-0.933-0.763-1.615l0.011-0.033h1.275c0,0.334,0.122,0.615,0.367,0.842
			s0.561,0.34,0.945,0.34c0.399,0,0.718-0.119,0.953-0.357c0.236-0.238,0.354-0.543,0.354-0.918c0-0.45-0.11-0.786-0.329-1.008
			c-0.221-0.221-0.554-0.332-1-0.332h-0.883v-1.041H146.822z"/>
		<path fill="#013889" d="M150.544,27.316c0-0.465,0.15-0.854,0.45-1.168c0.299-0.314,0.709-0.471,1.229-0.471
			c0.522,0,0.934,0.156,1.233,0.469c0.3,0.312,0.449,0.703,0.449,1.171v0.419c0,0.465-0.149,0.853-0.449,1.164
			c-0.3,0.31-0.707,0.465-1.223,0.465c-0.523,0-0.936-0.155-1.237-0.465c-0.301-0.311-0.452-0.698-0.452-1.164V27.316z
			 M151.465,27.735c0,0.233,0.066,0.43,0.199,0.591s0.322,0.243,0.569,0.243c0.239,0,0.424-0.08,0.553-0.24
			c0.129-0.16,0.193-0.358,0.193-0.594v-0.419c0-0.236-0.066-0.436-0.199-0.599c-0.132-0.164-0.318-0.245-0.558-0.245
			c-0.244,0-0.431,0.082-0.562,0.245s-0.196,0.363-0.196,0.599V27.735z M152.506,33.129l-0.682-0.392l3.874-6.2l0.681,0.392
			L152.506,33.129z M154.357,31.778c0-0.461,0.151-0.849,0.453-1.163c0.301-0.314,0.71-0.471,1.226-0.471
			c0.522,0,0.934,0.156,1.233,0.469c0.3,0.312,0.449,0.701,0.449,1.166v0.425c0,0.468-0.149,0.858-0.449,1.168
			s-0.707,0.466-1.223,0.466c-0.523,0-0.936-0.156-1.236-0.469c-0.302-0.312-0.453-0.701-0.453-1.166V31.778z M155.278,32.203
			c0,0.232,0.068,0.43,0.204,0.594c0.137,0.163,0.324,0.245,0.564,0.245c0.254,0,0.443-0.079,0.566-0.237
			c0.123-0.158,0.186-0.358,0.186-0.602v-0.425c0-0.232-0.066-0.43-0.199-0.594s-0.32-0.245-0.563-0.245s-0.431,0.082-0.562,0.245
			s-0.196,0.361-0.196,0.594V32.203z"/>
	</g>
</g>
<g>
	<g>
		<path fill="#013889" d="M136.757,174.553h1.002v1.068h-1.002v1.759h-1.318v-1.759h-3.318l-0.032-0.813l3.313-5.36h1.356V174.553z
			 M133.379,174.553h2.06v-3.236l-0.033-0.005l-0.125,0.305L133.379,174.553z"/>
		<path fill="#013889" d="M143.094,174.553h1.003v1.068h-1.003v1.759h-1.318v-1.759h-3.317l-0.033-0.813l3.313-5.36h1.356V174.553z
			 M139.716,174.553h2.06v-3.236l-0.032-0.005l-0.126,0.305L139.716,174.553z"/>
		<path fill="#013889" d="M144.953,170.974c0-0.465,0.149-0.854,0.449-1.169c0.3-0.313,0.709-0.471,1.229-0.471
			c0.523,0,0.935,0.156,1.234,0.469c0.299,0.312,0.449,0.702,0.449,1.171v0.419c0,0.466-0.15,0.854-0.449,1.164
			c-0.3,0.311-0.708,0.465-1.224,0.465c-0.522,0-0.936-0.154-1.236-0.465c-0.302-0.311-0.452-0.698-0.452-1.164V170.974z
			 M145.874,171.393c0,0.233,0.065,0.43,0.198,0.592c0.133,0.161,0.322,0.242,0.569,0.242c0.24,0,0.424-0.08,0.553-0.239
			c0.129-0.16,0.193-0.358,0.193-0.595v-0.419c0-0.236-0.065-0.436-0.198-0.6c-0.133-0.163-0.319-0.245-0.559-0.245
			c-0.243,0-0.431,0.082-0.562,0.245c-0.13,0.164-0.195,0.363-0.195,0.6V171.393z M146.914,176.786l-0.681-0.392l3.873-6.2
			l0.681,0.393L146.914,176.786z M148.767,175.436c0-0.461,0.15-0.85,0.452-1.163c0.301-0.314,0.71-0.472,1.226-0.472
			c0.523,0,0.935,0.156,1.234,0.469c0.299,0.313,0.449,0.701,0.449,1.166v0.425c0,0.469-0.15,0.858-0.449,1.169
			c-0.3,0.311-0.708,0.466-1.224,0.466c-0.522,0-0.936-0.156-1.236-0.469c-0.302-0.313-0.452-0.701-0.452-1.166V175.436z
			 M149.688,175.86c0,0.232,0.067,0.431,0.204,0.594c0.136,0.163,0.324,0.245,0.563,0.245c0.254,0,0.443-0.079,0.566-0.237
			c0.124-0.157,0.186-0.358,0.186-0.602v-0.425c0-0.232-0.066-0.431-0.199-0.594c-0.132-0.164-0.32-0.245-0.563-0.245
			s-0.431,0.081-0.562,0.245c-0.13,0.163-0.195,0.361-0.195,0.594V175.86z"/>
	</g>
</g>
<g opacity="0.2">
	<g>
		<path fill="#013889" d="M38.198,113.663c0.309,0,0.606,0.03,0.893,0.09c0.287,0.06,0.545,0.139,0.774,0.237l-0.256,1.023
			c-0.221-0.087-0.439-0.155-0.654-0.204c-0.214-0.049-0.465-0.073-0.751-0.073c-0.483,0-0.873,0.194-1.168,0.583
			c-0.296,0.389-0.444,0.902-0.444,1.542v0.414c0.214-0.215,0.47-0.382,0.766-0.502c0.296-0.119,0.622-0.18,0.978-0.18
			c0.679,0,1.214,0.234,1.604,0.703c0.391,0.469,0.586,1.082,0.586,1.841c0,0.803-0.234,1.451-0.703,1.945
			c-0.468,0.494-1.087,0.741-1.857,0.741c-0.781,0-1.425-0.281-1.931-0.845c-0.507-0.563-0.76-1.333-0.76-2.31v-1.728
			c0-0.973,0.279-1.763,0.836-2.369C36.666,113.966,37.363,113.663,38.198,113.663z M37.904,117.624
			c-0.316,0-0.584,0.057-0.804,0.171s-0.389,0.271-0.509,0.472v0.474c0,0.632,0.129,1.128,0.387,1.487s0.587,0.539,0.986,0.539
			c0.389,0,0.693-0.152,0.913-0.457c0.22-0.306,0.33-0.695,0.33-1.172c0-0.465-0.115-0.833-0.346-1.105
			C38.629,117.76,38.311,117.624,37.904,117.624z"/>
		<path fill="#013889" d="M41.517,115.303c0-0.465,0.15-0.854,0.45-1.169c0.299-0.313,0.709-0.471,1.229-0.471
			c0.523,0,0.934,0.156,1.234,0.469c0.299,0.313,0.449,0.702,0.449,1.171v0.42c0,0.465-0.15,0.853-0.449,1.163
			c-0.3,0.311-0.708,0.466-1.223,0.466c-0.523,0-0.935-0.155-1.237-0.466c-0.301-0.311-0.452-0.698-0.452-1.163V115.303z
			 M42.438,115.723c0,0.232,0.066,0.429,0.199,0.591c0.133,0.161,0.322,0.242,0.569,0.242c0.24,0,0.424-0.08,0.553-0.239
			c0.129-0.16,0.193-0.358,0.193-0.594v-0.42c0-0.236-0.066-0.436-0.199-0.6c-0.132-0.163-0.318-0.245-0.558-0.245
			c-0.244,0-0.431,0.082-0.562,0.245c-0.13,0.164-0.196,0.363-0.196,0.6V115.723z M43.479,121.115l-0.681-0.392l3.874-6.2
			l0.681,0.393L43.479,121.115z M45.331,119.765c0-0.461,0.151-0.849,0.452-1.163c0.302-0.314,0.71-0.472,1.226-0.472
			c0.523,0,0.934,0.156,1.234,0.469c0.299,0.313,0.449,0.701,0.449,1.166v0.425c0,0.469-0.15,0.858-0.449,1.169
			c-0.3,0.311-0.708,0.466-1.223,0.466c-0.523,0-0.935-0.156-1.237-0.469c-0.301-0.313-0.452-0.701-0.452-1.166V119.765z
			 M46.251,120.189c0,0.232,0.068,0.431,0.204,0.594c0.136,0.164,0.324,0.245,0.564,0.245c0.254,0,0.443-0.079,0.566-0.236
			c0.124-0.158,0.186-0.359,0.186-0.603v-0.425c0-0.232-0.066-0.431-0.199-0.594c-0.132-0.163-0.32-0.245-0.563-0.245
			c-0.244,0-0.431,0.082-0.561,0.245c-0.131,0.163-0.196,0.361-0.196,0.594V120.189z"/>
	</g>
</g>
<g opacity="0.7">
	<g>
		<path fill="#013889" d="M45.439,180.232h-5.115v-0.91l2.479-2.865c0.403-0.476,0.683-0.868,0.839-1.177s0.234-0.604,0.234-0.888
			c0-0.338-0.095-0.613-0.283-0.825c-0.189-0.213-0.459-0.319-0.812-0.319c-0.41,0-0.724,0.133-0.942,0.398
			c-0.218,0.265-0.327,0.599-0.327,1.002h-1.28l-0.011-0.032c-0.019-0.68,0.206-1.254,0.672-1.725
			c0.467-0.471,1.096-0.706,1.888-0.706c0.759,0,1.352,0.204,1.779,0.61c0.427,0.407,0.64,0.941,0.64,1.602
			c0,0.447-0.119,0.866-0.357,1.259c-0.238,0.393-0.629,0.917-1.174,1.574l-1.672,1.918l0.011,0.027h3.432V180.232z"/>
		<path fill="#013889" d="M51.777,180.232h-5.116v-0.91l2.479-2.865c0.403-0.476,0.683-0.868,0.839-1.177s0.234-0.604,0.234-0.888
			c0-0.338-0.095-0.613-0.284-0.825c-0.188-0.213-0.459-0.319-0.812-0.319c-0.41,0-0.725,0.133-0.942,0.398
			c-0.218,0.265-0.327,0.599-0.327,1.002h-1.28l-0.011-0.032c-0.018-0.68,0.206-1.254,0.673-1.725s1.096-0.706,1.888-0.706
			c0.759,0,1.352,0.204,1.779,0.61c0.427,0.407,0.64,0.941,0.64,1.602c0,0.447-0.119,0.866-0.357,1.259s-0.629,0.917-1.174,1.574
			l-1.672,1.918l0.011,0.027h3.432V180.232z"/>
		<path fill="#013889" d="M52.813,173.826c0-0.465,0.149-0.854,0.449-1.169s0.709-0.472,1.229-0.472
			c0.523,0,0.935,0.156,1.234,0.469c0.3,0.313,0.45,0.703,0.45,1.172v0.419c0,0.465-0.15,0.853-0.45,1.163
			c-0.299,0.311-0.708,0.466-1.223,0.466c-0.523,0-0.935-0.155-1.236-0.466c-0.302-0.311-0.452-0.698-0.452-1.163V173.826z
			 M53.734,174.245c0,0.232,0.066,0.43,0.199,0.591c0.133,0.162,0.322,0.243,0.569,0.243c0.24,0,0.424-0.08,0.553-0.24
			c0.129-0.159,0.193-0.357,0.193-0.594v-0.419c0-0.236-0.066-0.437-0.199-0.6c-0.133-0.163-0.319-0.245-0.559-0.245
			c-0.243,0-0.43,0.082-0.561,0.245s-0.196,0.363-0.196,0.6V174.245z M54.774,179.639l-0.681-0.393l3.873-6.199l0.681,0.393
			L54.774,179.639z M56.627,178.288c0-0.462,0.15-0.85,0.452-1.163c0.301-0.314,0.71-0.472,1.226-0.472
			c0.523,0,0.935,0.156,1.234,0.469c0.3,0.313,0.45,0.701,0.45,1.166v0.425c0,0.468-0.15,0.857-0.45,1.168
			c-0.299,0.311-0.708,0.466-1.223,0.466c-0.523,0-0.935-0.156-1.236-0.468c-0.302-0.313-0.452-0.701-0.452-1.166V178.288z
			 M57.547,178.713c0,0.232,0.068,0.43,0.205,0.594c0.136,0.163,0.324,0.245,0.563,0.245c0.254,0,0.443-0.079,0.567-0.237
			s0.185-0.358,0.185-0.602v-0.425c0-0.232-0.066-0.431-0.199-0.595c-0.133-0.163-0.321-0.245-0.564-0.245s-0.43,0.082-0.561,0.245
			c-0.131,0.164-0.196,0.362-0.196,0.595V178.713z"/>
	</g>
</g>
<defs>
	<filter id="Adobe_OpacityMaskFilter" filterUnits="userSpaceOnUse" x="20.589" y="210.391" width="143.952" height="13.975">
		<feFlood  style="flood-color:white;flood-opacity:1" result="back"/>
		<feBlend  in="SourceGraphic" in2="back" mode="normal"/>
	</filter>
</defs>
<mask maskUnits="userSpaceOnUse" x="20.589" y="210.391" width="143.952" height="13.975" id="SVGID_1_">
	<g filter="url(#Adobe_OpacityMaskFilter)">
		<defs>
			<filter id="Adobe_OpacityMaskFilter_1_" filterUnits="userSpaceOnUse" x="20.589" y="210.391" width="143.952" height="13.975">
				<feFlood  style="flood-color:white;flood-opacity:1" result="back"/>
				<feBlend  in="SourceGraphic" in2="back" mode="normal"/>
			</filter>
		</defs>
		<mask maskUnits="userSpaceOnUse" x="20.589" y="210.391" width="143.952" height="13.975" id="SVGID_1_">
			<g filter="url(#Adobe_OpacityMaskFilter_1_)">
			</g>
		</mask>
		
			<linearGradient id="SVGID_2_" gradientUnits="userSpaceOnUse" x1="-575.6719" y1="-63.8779" x2="-431.7197" y2="-63.8779" gradientTransform="matrix(-1 0 0 -1 -411.1309 153.5)">
			<stop  offset="0" style="stop-color:#1A1A1A"/>
			<stop  offset="1" style="stop-color:#FFFFFF"/>
		</linearGradient>
		<rect x="20.589" y="210.391" mask="url(#SVGID_1_)" fill="url(#SVGID_2_)" width="143.952" height="13.975"/>
	</g>
</mask>
<linearGradient id="SVGID_3_" gradientUnits="userSpaceOnUse" x1="-575.6719" y1="-63.8779" x2="-431.7197" y2="-63.8779" gradientTransform="matrix(-1 0 0 -1 -411.1309 153.5)">
	<stop  offset="0" style="stop-color:#6366A5"/>
	<stop  offset="1" style="stop-color:#043988"/>
</linearGradient>
<rect x="20.589" y="210.391" fill="url(#SVGID_3_)" width="143.952" height="13.975"/>
<g opacity="0.38">
	<g>
		<path fill="#013889" d="M174.47,217.77h-3.45v-1.146h3.45V217.77z"/>
	</g>
</g>
<g>
	<g>
		<path fill="#013889" d="M10.875,215.466h2.222v1.299h-2.222v2.532h-1.38v-2.532H7.261v-1.299h2.234v-2.368h1.38V215.466z"/>
	</g>
</g>
<line fill="none" stroke="#043988" stroke-width="0.5" x1="138.329" y1="139.689" x2="138.329" y2="165.996"/>
<line opacity="0.8" fill="none" stroke="#043988" stroke-width="0.5" x1="145.079" y1="36.581" x2="145.079" y2="62.888"/>
<line opacity="0.7" fill="none" stroke="#043988" stroke-width="0.5" x1="90.933" y1="176.154" x2="64.624" y2="176.154"/>
<line opacity="0.2" fill="none" stroke="#043988" stroke-width="0.5" x1="76.563" y1="118.154" x2="50.256" y2="118.154"/>
<line opacity="0.1" fill="none" stroke="#043988" stroke-width="0.5" x1="45.323" y1="20.981" x2="45.323" y2="47.289"/>
</svg>
