<?xml version="1.0" encoding="utf-8"?>
<!-- Generator: Adobe Illustrator 14.0.0, SVG Export Plug-In . SVG Version: 6.00 Build 43363)  -->
<!DOCTYPE svg PUBLIC "-//W3C//DTD SVG 1.0//EN" "http://www.w3.org/TR/2001/REC-SVG-20010904/DTD/svg10.dtd">
<svg version="1.0" id="Camada_1" xmlns="http://www.w3.org/2000/svg" xmlns:xlink="http://www.w3.org/1999/xlink" x="0px" y="0px"
	 width="164.5px" height="118px" viewBox="0 0 164.5 118" enable-background="new 0 0 164.5 118" xml:space="preserve">
<g>
	<g>
		<path fill="#F4D256" d="M7.604,80.885v-3.092h23.915v3.092c0,0-2.709,2.208-11.958,2.208C10.313,83.093,7.604,80.885,7.604,80.885
			z"/>
		<path fill="#DC9928" d="M31.519,77.793c0,1.28-5.354,2.317-11.958,2.317c-6.604,0-11.957-1.037-11.957-2.317
			c0-1.283,5.354-2.319,11.957-2.319C26.165,75.474,31.519,76.51,31.519,77.793z"/>
	</g>
	<g>
		<g>
			<path fill="#F4D256" d="M21.095,77.271c-0.22-0.001-0.396,0.035-0.524,0.113c-0.133,0.077-0.259,0.214-0.382,0.412
				c-0.215,0.374-0.479,0.651-0.786,0.83c-0.314,0.181-0.759,0.272-1.322,0.272c-0.52-0.001-0.926-0.093-1.211-0.275
				c-0.275-0.182-0.396-0.431-0.363-0.744l-0.912-0.003l0.14-0.398l0.895,0.004c0.152-0.302,0.399-0.536,0.743-0.704
				c0.333-0.17,0.73-0.248,1.199-0.239l0.018,0.005L18.5,77.257c-0.293-0.002-0.527,0.037-0.7,0.119
				c-0.176,0.081-0.28,0.197-0.311,0.347c-0.032,0.155,0.017,0.27,0.145,0.34c0.127,0.071,0.313,0.106,0.557,0.106
				c0.221,0.001,0.405-0.035,0.546-0.109c0.14-0.074,0.292-0.216,0.455-0.424c0.218-0.367,0.463-0.641,0.738-0.821
				c0.267-0.18,0.627-0.268,1.087-0.264c0.44,0.004,0.808,0.097,1.108,0.276c0.311,0.182,0.53,0.425,0.656,0.734l0.816,0.004
				l0.121,0.391l-0.843-0.003c0.025,0.314-0.104,0.572-0.395,0.774c-0.302,0.204-0.788,0.303-1.454,0.296l-0.028-0.008l-0.055-0.702
				c0.376,0.001,0.638-0.052,0.782-0.153c0.142-0.104,0.198-0.237,0.172-0.4s-0.11-0.283-0.254-0.365
				C21.502,77.313,21.319,77.272,21.095,77.271z"/>
		</g>
	</g>
</g>
<g>
	<g>
		<g>
			<path fill="#F4D256" d="M46.477,81.177v-3.095h23.916v3.095c0,0-2.71,2.208-11.958,2.208S46.477,81.177,46.477,81.177z"/>
			<path fill="#DC9928" d="M70.393,78.082c0,1.283-5.354,2.32-11.958,2.32s-11.958-1.037-11.958-2.32
				c0-1.278,5.354-2.317,11.958-2.317S70.393,76.804,70.393,78.082z"/>
		</g>
		<g>
			<g>
				<path fill="#F4D256" d="M59.969,77.563c-0.221-0.001-0.396,0.037-0.525,0.112c-0.133,0.077-0.258,0.217-0.382,0.414
					c-0.215,0.374-0.478,0.65-0.785,0.831c-0.315,0.18-0.759,0.27-1.322,0.27c-0.519,0-0.927-0.091-1.212-0.272
					c-0.274-0.184-0.394-0.433-0.361-0.744l-0.913-0.003l0.141-0.401l0.894,0.005c0.152-0.302,0.4-0.535,0.743-0.705
					c0.333-0.167,0.73-0.247,1.198-0.237l0.018,0.005l-0.089,0.712c-0.293-0.002-0.527,0.037-0.7,0.12
					c-0.176,0.081-0.28,0.196-0.31,0.345c-0.032,0.157,0.015,0.271,0.144,0.342s0.314,0.106,0.557,0.106
					c0.223,0.001,0.406-0.035,0.546-0.11c0.14-0.073,0.292-0.214,0.456-0.423c0.217-0.367,0.464-0.642,0.738-0.821
					c0.266-0.18,0.628-0.268,1.087-0.264c0.44,0.004,0.809,0.097,1.108,0.276c0.31,0.181,0.529,0.426,0.655,0.734l0.817,0.004
					l0.121,0.39l-0.844-0.003c0.025,0.314-0.104,0.573-0.395,0.775c-0.301,0.204-0.788,0.302-1.454,0.296l-0.028-0.009l-0.054-0.702
					c0.376,0,0.638-0.051,0.782-0.152c0.143-0.104,0.199-0.236,0.173-0.401c-0.026-0.161-0.11-0.283-0.254-0.363
					C60.375,77.605,60.192,77.564,59.969,77.563z"/>
			</g>
		</g>
	</g>
	<g>
		<g>
			<path fill="#F4D256" d="M46.477,77.513v-3.092h23.916v3.092c0,0-2.71,2.21-11.958,2.21S46.477,77.513,46.477,77.513z"/>
			<ellipse fill="#DC9928" cx="58.435" cy="74.421" rx="11.958" ry="2.319"/>
		</g>
		<g>
			<g>
				<path fill="#F4D256" d="M59.969,73.898c-0.221-0.001-0.396,0.037-0.525,0.114c-0.133,0.077-0.258,0.215-0.382,0.413
					c-0.215,0.373-0.478,0.649-0.785,0.831c-0.315,0.179-0.76,0.271-1.322,0.271c-0.52-0.001-0.927-0.093-1.213-0.273
					c-0.274-0.185-0.394-0.432-0.361-0.745l-0.913-0.003l0.141-0.401l0.894,0.005c0.152-0.301,0.4-0.535,0.743-0.704
					c0.333-0.166,0.729-0.246,1.198-0.237l0.018,0.005l-0.089,0.711c-0.293-0.002-0.527,0.039-0.7,0.121
					c-0.176,0.081-0.28,0.196-0.31,0.344c-0.032,0.157,0.015,0.271,0.144,0.343c0.128,0.07,0.314,0.105,0.557,0.105
					c0.223,0.001,0.406-0.035,0.546-0.108c0.14-0.075,0.292-0.216,0.456-0.424c0.217-0.367,0.464-0.641,0.738-0.822
					c0.266-0.18,0.628-0.268,1.087-0.264c0.44,0.004,0.809,0.098,1.108,0.276c0.31,0.181,0.529,0.426,0.655,0.734l0.817,0.004
					l0.121,0.39l-0.844-0.003c0.026,0.316-0.104,0.573-0.395,0.776c-0.301,0.203-0.789,0.301-1.455,0.295l-0.028-0.007l-0.055-0.704
					c0.376,0,0.639-0.05,0.782-0.152c0.143-0.103,0.199-0.236,0.173-0.4c-0.026-0.162-0.11-0.283-0.254-0.363
					C60.375,73.941,60.192,73.9,59.969,73.898z"/>
			</g>
		</g>
	</g>
	<g>
		<g>
			<path fill="#F4D256" d="M46.477,73.849v-3.09h23.916v3.09c0,0-2.71,2.21-11.958,2.21S46.477,73.849,46.477,73.849z"/>
			<ellipse fill="#DC9928" cx="58.435" cy="70.759" rx="11.958" ry="2.317"/>
		</g>
		<g>
			<g>
				<path fill="#F4D256" d="M59.969,70.237c-0.221-0.001-0.396,0.036-0.525,0.112c-0.133,0.078-0.258,0.216-0.382,0.413
					c-0.215,0.375-0.478,0.65-0.785,0.831c-0.315,0.18-0.759,0.271-1.322,0.271c-0.52-0.001-0.927-0.092-1.212-0.273
					c-0.274-0.184-0.394-0.432-0.361-0.744l-0.913-0.003l0.141-0.4l0.894,0.004c0.152-0.301,0.4-0.535,0.744-0.705
					c0.333-0.166,0.729-0.246,1.197-0.237l0.018,0.005l-0.089,0.713c-0.293-0.002-0.527,0.037-0.7,0.119
					c-0.176,0.081-0.28,0.196-0.31,0.346c-0.032,0.156,0.015,0.271,0.144,0.341c0.128,0.071,0.314,0.106,0.557,0.106
					c0.223,0.001,0.406-0.035,0.546-0.109s0.292-0.215,0.456-0.424c0.217-0.367,0.464-0.641,0.738-0.821
					c0.266-0.18,0.628-0.268,1.087-0.264c0.44,0.004,0.809,0.097,1.108,0.277c0.31,0.181,0.529,0.425,0.655,0.733l0.817,0.004
					l0.121,0.391l-0.844-0.003c0.026,0.314-0.104,0.572-0.395,0.774c-0.301,0.204-0.788,0.303-1.454,0.296l-0.028-0.008
					l-0.055-0.703c0.376,0,0.638-0.051,0.782-0.152c0.143-0.104,0.199-0.235,0.173-0.401c-0.026-0.16-0.11-0.282-0.254-0.363
					C60.375,70.279,60.192,70.238,59.969,70.237z"/>
			</g>
		</g>
	</g>
	<g>
		<g>
			<path fill="#F4D256" d="M46.477,70.187v-3.092h23.916v3.092c0,0-2.71,2.211-11.958,2.211S46.477,70.187,46.477,70.187z"/>
			<ellipse fill="#DC9928" cx="58.435" cy="67.095" rx="11.958" ry="2.319"/>
		</g>
		<g>
			<g>
				<path fill="#F4D256" d="M59.969,66.574c-0.22-0.001-0.396,0.037-0.525,0.112c-0.133,0.078-0.258,0.215-0.382,0.413
					c-0.215,0.374-0.478,0.65-0.785,0.831c-0.315,0.18-0.76,0.271-1.322,0.271c-0.52-0.001-0.927-0.092-1.213-0.273
					c-0.274-0.184-0.394-0.432-0.361-0.745l-0.913-0.003l0.141-0.399l0.894,0.004c0.152-0.302,0.401-0.536,0.744-0.704
					c0.333-0.167,0.729-0.247,1.198-0.238l0.018,0.006l-0.089,0.712c-0.293-0.002-0.527,0.038-0.699,0.119
					c-0.176,0.081-0.28,0.196-0.311,0.346c-0.032,0.157,0.016,0.27,0.144,0.342c0.128,0.069,0.314,0.105,0.557,0.106
					c0.223,0,0.406-0.037,0.546-0.11c0.14-0.075,0.292-0.215,0.456-0.424c0.217-0.366,0.464-0.64,0.738-0.822
					c0.266-0.18,0.628-0.268,1.087-0.264c0.44,0.004,0.809,0.098,1.108,0.277c0.31,0.181,0.529,0.425,0.655,0.733l0.817,0.004
					l0.121,0.392l-0.844-0.003c0.025,0.314-0.105,0.571-0.395,0.775c-0.301,0.202-0.789,0.301-1.455,0.294l-0.028-0.007
					l-0.055-0.704c0.376,0,0.639-0.05,0.782-0.152c0.143-0.102,0.199-0.235,0.173-0.4c-0.026-0.161-0.11-0.283-0.254-0.363
					C60.375,66.615,60.193,66.575,59.969,66.574z"/>
			</g>
		</g>
	</g>
</g>
<g>
	<g>
		<g>
			<path fill="#F4D256" d="M86.514,81.635v-3.092h23.914v3.092c0,0-2.71,2.211-11.957,2.211
				C89.223,83.846,86.514,81.635,86.514,81.635z"/>
			<ellipse fill="#DC9928" cx="98.471" cy="78.543" rx="11.957" ry="2.319"/>
		</g>
		<g>
			<g>
				<path fill="#F4D256" d="M100.006,78.021c-0.221-0.001-0.396,0.037-0.526,0.114c-0.132,0.078-0.259,0.215-0.383,0.413
					c-0.213,0.372-0.477,0.65-0.785,0.83c-0.313,0.181-0.758,0.271-1.32,0.271c-0.52-0.001-0.927-0.092-1.212-0.274
					c-0.275-0.183-0.396-0.431-0.362-0.744l-0.913-0.003l0.141-0.399l0.896,0.004c0.151-0.302,0.399-0.536,0.741-0.705
					c0.335-0.167,0.73-0.246,1.199-0.237l0.018,0.005l-0.089,0.711c-0.294-0.002-0.527,0.037-0.7,0.12
					c-0.176,0.082-0.279,0.197-0.311,0.347c-0.031,0.156,0.017,0.27,0.145,0.34c0.128,0.071,0.314,0.106,0.556,0.106
					c0.224,0.001,0.407-0.035,0.548-0.108c0.14-0.075,0.291-0.216,0.455-0.425c0.218-0.365,0.463-0.64,0.737-0.82
					c0.268-0.181,0.628-0.269,1.088-0.265c0.44,0.004,0.808,0.098,1.108,0.276c0.311,0.181,0.53,0.426,0.654,0.734l0.816,0.004
					l0.12,0.39l-0.843-0.003c0.027,0.316-0.103,0.573-0.394,0.775c-0.303,0.204-0.788,0.302-1.455,0.296l-0.028-0.007l-0.055-0.704
					c0.377,0,0.639-0.05,0.783-0.152c0.142-0.104,0.199-0.236,0.173-0.4c-0.026-0.162-0.111-0.283-0.255-0.364
					C100.411,78.063,100.229,78.022,100.006,78.021z"/>
			</g>
		</g>
	</g>
	<g>
		<g>
			<path fill="#F4D256" d="M86.496,77.791l0.025-3.093l23.915,0.191l-0.026,3.095c0,0-2.727,2.188-11.975,2.112
				S86.496,77.791,86.496,77.791z"/>
			<ellipse transform="matrix(1 0.008 -0.008 1 0.6018 -0.7858)" fill="#DC9928" cx="98.479" cy="74.794" rx="11.958" ry="2.32"/>
		</g>
		<g>
			<g>
				<path fill="#F4D256" d="M100.027,74.286c-0.22-0.003-0.396,0.035-0.525,0.11c-0.133,0.077-0.262,0.214-0.388,0.411
					c-0.22,0.372-0.487,0.647-0.797,0.826c-0.318,0.18-0.763,0.269-1.325,0.267c-0.519-0.003-0.923-0.097-1.205-0.28
					c-0.271-0.184-0.387-0.434-0.35-0.747l-0.909-0.007l0.146-0.399l0.891,0.008c0.157-0.302,0.406-0.533,0.751-0.701
					c0.334-0.166,0.73-0.243,1.198-0.232l0.019,0.005l-0.099,0.713c-0.294-0.005-0.527,0.034-0.7,0.117
					c-0.177,0.08-0.282,0.194-0.313,0.343c-0.033,0.156,0.013,0.271,0.139,0.342c0.126,0.072,0.313,0.107,0.553,0.109
					c0.223,0.002,0.406-0.034,0.547-0.106c0.143-0.073,0.295-0.215,0.461-0.422c0.223-0.367,0.472-0.638,0.75-0.817
					c0.268-0.179,0.63-0.265,1.09-0.259c0.439,0.006,0.808,0.102,1.107,0.282c0.308,0.182,0.524,0.427,0.646,0.736l0.817,0.008
					l0.117,0.39l-0.847-0.007c0.022,0.316-0.112,0.573-0.406,0.773c-0.307,0.203-0.795,0.299-1.461,0.289l-0.029-0.008l-0.042-0.702
					c0.376,0.001,0.639-0.049,0.785-0.15c0.144-0.101,0.203-0.234,0.178-0.398c-0.022-0.162-0.106-0.283-0.248-0.365
					C100.436,74.33,100.253,74.288,100.027,74.286z"/>
			</g>
		</g>
	</g>
	<g>
		<g>
			<path fill="#F4D256" d="M86.514,74.138v-3.09h23.914v3.09c0,0-2.71,2.211-11.957,2.211
				C89.223,76.349,86.514,74.138,86.514,74.138z"/>
			<ellipse fill="#DC9928" cx="98.471" cy="71.048" rx="11.957" ry="2.317"/>
		</g>
		<g>
			<g>
				<path fill="#F4D256" d="M100.006,70.525c-0.221-0.001-0.396,0.035-0.526,0.113c-0.132,0.077-0.259,0.214-0.383,0.411
					c-0.213,0.373-0.476,0.651-0.785,0.831c-0.313,0.181-0.758,0.271-1.32,0.271c-0.52-0.001-0.927-0.092-1.212-0.274
					c-0.275-0.183-0.396-0.431-0.362-0.744l-0.913-0.003l0.141-0.399l0.896,0.004c0.151-0.301,0.399-0.535,0.741-0.703
					c0.335-0.17,0.731-0.248,1.199-0.24l0.018,0.005l-0.089,0.714c-0.294-0.002-0.527,0.037-0.7,0.118
					c-0.176,0.082-0.279,0.197-0.31,0.347c-0.032,0.157,0.017,0.27,0.144,0.34c0.128,0.071,0.314,0.106,0.556,0.106
					c0.224,0.001,0.407-0.035,0.548-0.108c0.14-0.075,0.291-0.215,0.455-0.425c0.218-0.367,0.463-0.641,0.737-0.821
					c0.268-0.18,0.628-0.267,1.088-0.263c0.44,0.004,0.808,0.096,1.108,0.276c0.311,0.181,0.53,0.425,0.655,0.734l0.815,0.004
					l0.12,0.39l-0.843-0.003c0.027,0.315-0.104,0.572-0.394,0.776c-0.303,0.202-0.788,0.301-1.455,0.294l-0.028-0.007l-0.055-0.703
					c0.377,0.001,0.639-0.051,0.783-0.153c0.142-0.102,0.199-0.235,0.173-0.398c-0.025-0.162-0.112-0.285-0.255-0.366
					C100.411,70.567,100.229,70.526,100.006,70.525z"/>
			</g>
		</g>
	</g>
	<g>
		<g>
			<path fill="#F4D256" d="M86.514,70.392V67.3h23.914v3.092c0,0-2.71,2.208-11.957,2.208C89.223,72.6,86.514,70.392,86.514,70.392z
				"/>
			<path fill="#DC9928" d="M110.428,67.3c0,1.28-5.354,2.317-11.957,2.317S86.514,68.58,86.514,67.3
				c0-1.283,5.354-2.322,11.957-2.322S110.428,66.017,110.428,67.3z"/>
		</g>
		<g>
			<g>
				<path fill="#F4D256" d="M100.006,66.778c-0.221-0.001-0.396,0.036-0.526,0.112c-0.132,0.077-0.259,0.215-0.383,0.413
					c-0.213,0.373-0.476,0.65-0.785,0.831c-0.313,0.18-0.758,0.271-1.32,0.271c-0.52-0.001-0.927-0.092-1.212-0.273
					c-0.275-0.184-0.396-0.432-0.362-0.744l-0.913-0.003l0.141-0.4l0.896,0.004c0.151-0.301,0.399-0.535,0.741-0.703
					c0.335-0.168,0.731-0.248,1.199-0.239l0.018,0.005l-0.089,0.713c-0.294-0.002-0.527,0.037-0.7,0.119
					c-0.176,0.081-0.279,0.197-0.31,0.346c-0.032,0.156,0.016,0.271,0.144,0.341c0.129,0.07,0.314,0.106,0.556,0.106
					c0.224,0.001,0.407-0.036,0.548-0.11c0.14-0.073,0.291-0.214,0.455-0.423c0.218-0.368,0.463-0.642,0.737-0.822
					c0.268-0.179,0.628-0.267,1.088-0.263c0.44,0.004,0.808,0.097,1.108,0.277c0.311,0.179,0.53,0.425,0.654,0.733l0.816,0.004
					l0.12,0.389l-0.843-0.003c0.027,0.316-0.104,0.573-0.394,0.776c-0.303,0.203-0.788,0.303-1.455,0.296l-0.028-0.008l-0.055-0.703
					c0.377,0,0.639-0.051,0.783-0.153c0.142-0.103,0.199-0.236,0.173-0.4c-0.025-0.16-0.111-0.282-0.255-0.363
					C100.411,66.82,100.229,66.779,100.006,66.778z"/>
			</g>
		</g>
	</g>
	<g>
		<g>
			<path fill="#F4D256" d="M86.514,66.644v-3.092h23.914v3.092c0,0-2.71,2.208-11.957,2.208
				C89.223,68.852,86.514,66.644,86.514,66.644z"/>
			<ellipse fill="#DC9928" cx="98.471" cy="63.552" rx="11.957" ry="2.319"/>
		</g>
		<g>
			<g>
				<path fill="#F4D256" d="M100.006,63.03c-0.221-0.002-0.396,0.036-0.526,0.112c-0.132,0.076-0.259,0.216-0.383,0.414
					c-0.213,0.372-0.476,0.649-0.785,0.83c-0.313,0.18-0.758,0.27-1.32,0.27c-0.52,0-0.927-0.091-1.212-0.272
					c-0.275-0.184-0.396-0.433-0.363-0.744l-0.912-0.003l0.141-0.401l0.896,0.005c0.151-0.301,0.398-0.535,0.741-0.705
					c0.334-0.167,0.73-0.247,1.199-0.238l0.018,0.006l-0.089,0.712c-0.294-0.002-0.527,0.037-0.7,0.12
					c-0.176,0.081-0.28,0.197-0.31,0.345c-0.032,0.157,0.016,0.271,0.144,0.342c0.129,0.07,0.314,0.106,0.556,0.106
					c0.224,0.001,0.407-0.037,0.548-0.11c0.14-0.073,0.291-0.214,0.455-0.423c0.218-0.368,0.463-0.643,0.737-0.823
					c0.268-0.178,0.628-0.268,1.088-0.264c0.44,0.004,0.808,0.098,1.108,0.279c0.311,0.179,0.53,0.424,0.655,0.733l0.815,0.004
					l0.121,0.39l-0.843-0.003c0.026,0.314-0.104,0.573-0.395,0.775c-0.303,0.203-0.788,0.302-1.455,0.296l-0.028-0.009l-0.055-0.702
					c0.377,0,0.639-0.051,0.783-0.153c0.142-0.103,0.199-0.235,0.173-0.4c-0.025-0.161-0.111-0.282-0.255-0.363
					C100.411,63.072,100.229,63.031,100.006,63.03z"/>
			</g>
		</g>
	</g>
	<g>
		<g>
			<path fill="#F4D256" d="M86.514,62.896v-3.095h23.914v3.095c0,0-2.71,2.208-11.957,2.208
				C89.223,65.104,86.514,62.896,86.514,62.896z"/>
			<path fill="#DC9928" d="M110.428,59.801c0,1.283-5.354,2.322-11.957,2.322s-11.957-1.039-11.957-2.322
				c0-1.278,5.354-2.32,11.957-2.32S110.428,58.522,110.428,59.801z"/>
		</g>
		<g>
			<g>
				<path fill="#F4D256" d="M100.006,59.281c-0.221-0.001-0.396,0.036-0.526,0.112c-0.132,0.077-0.259,0.216-0.383,0.414
					c-0.213,0.373-0.476,0.649-0.785,0.83c-0.313,0.18-0.758,0.271-1.32,0.271c-0.52-0.001-0.927-0.093-1.212-0.274
					c-0.275-0.184-0.396-0.432-0.362-0.744l-0.913-0.003l0.141-0.4l0.896,0.004c0.151-0.302,0.399-0.536,0.742-0.705
					c0.334-0.166,0.729-0.245,1.198-0.236l0.018,0.004l-0.089,0.713c-0.294-0.002-0.527,0.037-0.7,0.119
					c-0.176,0.081-0.279,0.197-0.31,0.346c-0.032,0.156,0.016,0.271,0.144,0.341c0.129,0.07,0.314,0.106,0.556,0.106
					c0.224,0.001,0.407-0.036,0.548-0.11c0.14-0.073,0.291-0.214,0.455-0.423c0.218-0.368,0.463-0.642,0.737-0.822
					c0.268-0.179,0.628-0.267,1.088-0.263c0.44,0.004,0.808,0.097,1.108,0.277c0.311,0.179,0.53,0.425,0.654,0.733l0.816,0.004
					l0.121,0.391l-0.843-0.003c0.026,0.314-0.104,0.572-0.395,0.774c-0.303,0.203-0.788,0.303-1.455,0.296l-0.028-0.007
					l-0.055-0.704c0.377,0,0.639-0.05,0.783-0.153c0.142-0.103,0.199-0.234,0.173-0.4c-0.025-0.16-0.111-0.282-0.255-0.363
					C100.411,59.323,100.229,59.282,100.006,59.281z"/>
			</g>
		</g>
	</g>
	<g>
		<g>
			<path fill="#F4D256" d="M86.514,59.145v-3.093h23.914v3.093c0,0-2.71,2.21-11.957,2.21
				C89.223,61.354,86.514,59.145,86.514,59.145z"/>
			<path fill="#DC9928" d="M110.428,56.052c0,1.283-5.354,2.322-11.957,2.322s-11.957-1.039-11.957-2.322
				c0-1.278,5.354-2.317,11.957-2.317S110.428,54.773,110.428,56.052z"/>
		</g>
		<g>
			<g>
				<path fill="#F4D256" d="M100.006,55.533c-0.221-0.002-0.396,0.036-0.526,0.111c-0.132,0.077-0.259,0.217-0.383,0.414
					c-0.213,0.373-0.476,0.65-0.785,0.83c-0.313,0.182-0.758,0.272-1.32,0.271c-0.52,0-0.927-0.092-1.212-0.273
					c-0.275-0.184-0.396-0.432-0.362-0.744l-0.913-0.004l0.141-0.4l0.896,0.005c0.151-0.302,0.399-0.536,0.742-0.704
					c0.334-0.168,0.729-0.246,1.198-0.238l0.018,0.005l-0.089,0.712c-0.294-0.002-0.527,0.037-0.7,0.119
					c-0.176,0.082-0.279,0.197-0.31,0.346c-0.032,0.157,0.016,0.271,0.144,0.342c0.129,0.07,0.314,0.106,0.556,0.107
					c0.224,0,0.407-0.036,0.548-0.111c0.14-0.073,0.291-0.215,0.455-0.423c0.218-0.367,0.463-0.642,0.737-0.821
					c0.268-0.18,0.628-0.268,1.088-0.264c0.44,0.004,0.808,0.096,1.108,0.277c0.311,0.18,0.53,0.425,0.654,0.732l0.816,0.004
					l0.12,0.391l-0.843-0.002c0.027,0.313-0.103,0.572-0.394,0.775c-0.303,0.202-0.788,0.301-1.455,0.295l-0.028-0.007l-0.055-0.704
					c0.377,0,0.639-0.05,0.783-0.154c0.142-0.102,0.199-0.234,0.173-0.399c-0.025-0.161-0.112-0.283-0.255-0.363
					C100.411,55.574,100.229,55.534,100.006,55.533z"/>
			</g>
		</g>
	</g>
	<g>
		<g>
			<path fill="#F4D256" d="M86.514,55.398v-3.09h23.914v3.09c0,0-2.71,2.21-11.957,2.21C89.223,57.608,86.514,55.398,86.514,55.398z
				"/>
			<path fill="#DC9928" d="M110.428,52.309c0,1.278-5.354,2.317-11.957,2.317s-11.957-1.039-11.957-2.317
				c0-1.283,5.354-2.32,11.957-2.32S110.428,51.025,110.428,52.309z"/>
		</g>
		<g>
			<g>
				<path fill="#F4D256" d="M100.006,51.784c-0.221-0.001-0.396,0.036-0.526,0.113c-0.132,0.079-0.259,0.215-0.383,0.413
					c-0.213,0.373-0.477,0.65-0.785,0.83c-0.313,0.182-0.758,0.271-1.32,0.271c-0.52,0-0.927-0.091-1.212-0.274
					c-0.275-0.182-0.396-0.431-0.362-0.744l-0.913-0.003l0.141-0.399l0.896,0.005c0.151-0.301,0.399-0.535,0.742-0.705
					c0.334-0.168,0.73-0.247,1.198-0.239l0.018,0.005l-0.089,0.713c-0.294-0.002-0.527,0.037-0.7,0.119
					c-0.176,0.082-0.279,0.197-0.31,0.347c-0.032,0.157,0.016,0.271,0.144,0.341s0.314,0.105,0.556,0.105
					c0.224,0.001,0.407-0.035,0.548-0.107c0.14-0.075,0.291-0.217,0.455-0.426c0.218-0.367,0.463-0.641,0.737-0.82
					c0.268-0.181,0.628-0.268,1.088-0.264c0.44,0.004,0.808,0.096,1.108,0.276c0.311,0.181,0.53,0.425,0.654,0.733l0.816,0.004
					l0.12,0.391l-0.843-0.003c0.027,0.315-0.103,0.573-0.394,0.775c-0.303,0.204-0.788,0.302-1.455,0.296l-0.028-0.008l-0.055-0.703
					c0.377,0.001,0.639-0.051,0.783-0.152c0.142-0.104,0.199-0.236,0.173-0.4c-0.026-0.162-0.112-0.283-0.255-0.365
					C100.411,51.826,100.229,51.785,100.006,51.784z"/>
			</g>
		</g>
	</g>
	<g>
		<g>
			<path fill="#F4D256" d="M86.514,51.652V48.56h23.914v3.093c0,0-2.71,2.208-11.957,2.208
				C89.223,53.86,86.514,51.652,86.514,51.652z"/>
			<ellipse fill="#DC9928" cx="98.471" cy="48.56" rx="11.957" ry="2.317"/>
		</g>
		<g>
			<g>
				<path fill="#F4D256" d="M100.006,48.037c-0.221-0.002-0.396,0.036-0.526,0.113c-0.132,0.078-0.259,0.215-0.383,0.413
					c-0.213,0.374-0.476,0.649-0.785,0.83c-0.313,0.181-0.758,0.271-1.32,0.271c-0.52,0-0.927-0.091-1.211-0.273
					c-0.276-0.183-0.396-0.431-0.363-0.744l-0.913-0.004l0.141-0.398l0.896,0.004c0.151-0.301,0.399-0.535,0.742-0.704
					c0.334-0.168,0.73-0.248,1.198-0.238l0.018,0.004l-0.089,0.712c-0.294-0.002-0.526,0.037-0.7,0.119
					c-0.176,0.083-0.279,0.197-0.31,0.348c-0.032,0.155,0.017,0.27,0.144,0.34c0.129,0.071,0.314,0.105,0.556,0.106
					c0.224,0.001,0.407-0.035,0.548-0.109c0.14-0.074,0.291-0.215,0.455-0.425c0.218-0.365,0.463-0.64,0.737-0.82
					c0.268-0.179,0.628-0.267,1.088-0.263c0.44,0.004,0.808,0.095,1.108,0.276c0.311,0.181,0.53,0.424,0.655,0.735l0.815,0.004
					l0.12,0.389l-0.843-0.002c0.027,0.314-0.104,0.572-0.394,0.774c-0.303,0.204-0.788,0.302-1.455,0.297l-0.028-0.009l-0.055-0.702
					c0.377,0.001,0.639-0.051,0.783-0.153c0.142-0.102,0.199-0.236,0.173-0.4c-0.026-0.162-0.112-0.283-0.255-0.365
					C100.411,48.079,100.229,48.038,100.006,48.037z"/>
			</g>
		</g>
	</g>
	<g>
		<g>
			<path fill="#F4D256" d="M86.514,47.903v-3.092h23.914v3.092c0,0-2.71,2.208-11.957,2.208
				C89.223,50.111,86.514,47.903,86.514,47.903z"/>
			<path fill="#DC9928" d="M110.428,44.812c0,1.278-5.354,2.317-11.957,2.317s-11.957-1.039-11.957-2.317
				c0-1.283,5.354-2.322,11.957-2.322S110.428,43.528,110.428,44.812z"/>
		</g>
		<g>
			<g>
				<path fill="#F4D256" d="M100.006,44.289c-0.221-0.001-0.396,0.037-0.526,0.113c-0.132,0.077-0.259,0.215-0.383,0.412
					c-0.213,0.375-0.476,0.651-0.785,0.831c-0.313,0.181-0.758,0.271-1.32,0.271c-0.52,0-0.927-0.091-1.211-0.274
					c-0.276-0.182-0.396-0.43-0.363-0.744l-0.913-0.003l0.141-0.399L95.54,44.5c0.151-0.301,0.398-0.536,0.741-0.706
					c0.335-0.167,0.731-0.248,1.199-0.238l0.018,0.005l-0.089,0.712c-0.294-0.002-0.527,0.039-0.7,0.121
					c-0.176,0.082-0.28,0.197-0.31,0.346c-0.032,0.155,0.017,0.27,0.144,0.341c0.129,0.07,0.314,0.105,0.556,0.105
					c0.224,0.001,0.407-0.035,0.548-0.11c0.14-0.073,0.291-0.215,0.455-0.423c0.218-0.368,0.463-0.641,0.737-0.822
					c0.268-0.179,0.628-0.268,1.088-0.264c0.44,0.004,0.808,0.097,1.108,0.277c0.311,0.18,0.53,0.425,0.655,0.734l0.815,0.004
					l0.12,0.389l-0.843-0.003c0.027,0.316-0.104,0.573-0.394,0.777c-0.303,0.203-0.788,0.3-1.455,0.295l-0.028-0.01l-0.055-0.702
					c0.377,0.001,0.639-0.05,0.783-0.153c0.142-0.103,0.199-0.236,0.173-0.4c-0.026-0.162-0.111-0.282-0.255-0.365
					C100.411,44.332,100.229,44.29,100.006,44.289z"/>
			</g>
		</g>
	</g>
</g>
<g>
	<g>
		<g>
			<path fill="#F4D256" d="M129.074,81.698v-3.092h23.916v3.092c0,0-2.71,2.211-11.958,2.211S129.074,81.698,129.074,81.698z"/>
			<ellipse fill="#DC9928" cx="141.032" cy="78.606" rx="11.958" ry="2.319"/>
		</g>
		<g>
			<g>
				<path fill="#F4D256" d="M142.566,78.086c-0.221-0.001-0.396,0.036-0.525,0.113c-0.132,0.078-0.258,0.215-0.382,0.413
					c-0.215,0.373-0.478,0.65-0.785,0.83c-0.315,0.181-0.758,0.271-1.321,0.271c-0.52-0.001-0.926-0.092-1.211-0.274
					c-0.275-0.183-0.396-0.43-0.363-0.744l-0.912-0.003l0.141-0.399l0.894,0.004c0.152-0.301,0.401-0.535,0.744-0.704
					c0.332-0.167,0.73-0.247,1.198-0.238l0.017,0.006l-0.089,0.711c-0.294-0.002-0.527,0.038-0.699,0.119
					c-0.177,0.082-0.28,0.197-0.311,0.347c-0.032,0.157,0.016,0.27,0.144,0.341c0.129,0.07,0.314,0.105,0.557,0.105
					c0.223,0.001,0.405-0.035,0.546-0.108c0.14-0.073,0.291-0.216,0.456-0.424c0.219-0.366,0.464-0.64,0.738-0.82
					c0.266-0.181,0.628-0.269,1.087-0.265c0.439,0.004,0.808,0.097,1.108,0.276c0.311,0.181,0.53,0.425,0.655,0.734l0.816,0.004
					l0.12,0.39l-0.844-0.003c0.026,0.315-0.103,0.574-0.395,0.776c-0.301,0.203-0.787,0.302-1.453,0.295l-0.029-0.008l-0.055-0.703
					c0.378,0.001,0.639-0.049,0.783-0.153c0.143-0.102,0.199-0.234,0.172-0.4c-0.025-0.161-0.11-0.283-0.254-0.363
					C142.974,78.129,142.791,78.087,142.566,78.086z"/>
			</g>
		</g>
	</g>
	<g>
		<g>
			<path fill="#F4D256" d="M129.074,77.955v-3.093h23.916v3.093c0,0-2.71,2.208-11.958,2.208S129.074,77.955,129.074,77.955z"/>
			<ellipse fill="#DC9928" cx="141.032" cy="74.862" rx="11.958" ry="2.32"/>
		</g>
		<g>
			<g>
				<path fill="#F4D256" d="M142.566,74.342c-0.221-0.001-0.396,0.036-0.525,0.112c-0.132,0.077-0.258,0.215-0.382,0.413
					c-0.215,0.372-0.478,0.649-0.785,0.83c-0.315,0.18-0.758,0.271-1.321,0.271c-0.52-0.001-0.926-0.093-1.212-0.274
					c-0.274-0.184-0.395-0.432-0.362-0.744l-0.913-0.003l0.141-0.399l0.895,0.004c0.152-0.302,0.401-0.536,0.743-0.704
					c0.333-0.168,0.73-0.247,1.199-0.237l0.017,0.004l-0.089,0.713c-0.295-0.002-0.528,0.037-0.699,0.118
					c-0.177,0.081-0.28,0.197-0.311,0.347c-0.032,0.156,0.015,0.271,0.144,0.34c0.128,0.071,0.314,0.106,0.557,0.106
					c0.223,0.001,0.405-0.035,0.546-0.109c0.14-0.073,0.291-0.214,0.456-0.423c0.219-0.367,0.464-0.641,0.738-0.821
					c0.266-0.181,0.628-0.269,1.087-0.265c0.439,0.004,0.808,0.097,1.108,0.277c0.311,0.181,0.53,0.425,0.655,0.733l0.816,0.004
					l0.121,0.391l-0.844-0.003c0.025,0.315-0.104,0.573-0.396,0.776c-0.301,0.202-0.787,0.301-1.453,0.294l-0.029-0.007
					l-0.055-0.704c0.378,0.001,0.639-0.049,0.783-0.153c0.143-0.101,0.199-0.234,0.173-0.398c-0.026-0.162-0.11-0.283-0.254-0.364
					C142.974,74.383,142.791,74.343,142.566,74.342z"/>
			</g>
		</g>
	</g>
	<g>
		<g>
			<path fill="#F4D256" d="M129.074,74.209v-3.093h23.916v3.093c0,0-2.71,2.21-11.958,2.21S129.074,74.209,129.074,74.209z"/>
			<ellipse fill="#DC9928" cx="141.032" cy="71.116" rx="11.958" ry="2.32"/>
		</g>
		<g>
			<g>
				<path fill="#F4D256" d="M142.566,70.596c-0.221-0.001-0.396,0.037-0.525,0.113c-0.132,0.077-0.258,0.217-0.382,0.414
					c-0.215,0.373-0.478,0.65-0.785,0.83c-0.315,0.181-0.758,0.272-1.321,0.272c-0.52-0.001-0.926-0.093-1.211-0.275
					c-0.275-0.183-0.396-0.432-0.363-0.745l-0.912-0.003l0.141-0.399l0.895,0.005c0.152-0.302,0.4-0.535,0.743-0.705
					c0.332-0.168,0.73-0.247,1.198-0.237l0.017,0.005l-0.089,0.711c-0.294-0.002-0.527,0.038-0.699,0.12
					c-0.177,0.082-0.28,0.197-0.311,0.346c-0.032,0.157,0.016,0.271,0.144,0.342c0.129,0.07,0.314,0.106,0.557,0.106
					c0.223,0.001,0.405-0.035,0.546-0.11c0.14-0.073,0.291-0.215,0.456-0.423c0.219-0.367,0.464-0.642,0.738-0.821
					c0.266-0.18,0.628-0.268,1.087-0.264c0.439,0.004,0.808,0.095,1.108,0.275c0.311,0.182,0.53,0.425,0.655,0.735l0.816,0.004
					l0.12,0.39l-0.844-0.003c0.026,0.314-0.103,0.573-0.395,0.775c-0.301,0.204-0.787,0.302-1.453,0.296l-0.029-0.009l-0.055-0.702
					c0.378,0,0.639-0.05,0.783-0.152c0.143-0.104,0.198-0.237,0.172-0.401c-0.025-0.162-0.11-0.283-0.254-0.365
					C142.974,70.64,142.791,70.598,142.566,70.596z"/>
			</g>
		</g>
	</g>
	<g>
		<g>
			<path fill="#F4D256" d="M129.074,70.465v-3.092h23.916v3.092c0,0-2.71,2.208-11.958,2.208S129.074,70.465,129.074,70.465z"/>
			<ellipse fill="#DC9928" cx="141.032" cy="67.373" rx="11.958" ry="2.317"/>
		</g>
		<g>
			<g>
				<path fill="#F4D256" d="M142.566,66.851c-0.221-0.001-0.396,0.037-0.525,0.114c-0.132,0.077-0.258,0.215-0.382,0.412
					c-0.215,0.373-0.478,0.65-0.785,0.831c-0.315,0.18-0.758,0.271-1.321,0.271c-0.52-0.001-0.926-0.093-1.211-0.274
					c-0.275-0.184-0.396-0.433-0.363-0.744l-0.913-0.003l0.142-0.401l0.895,0.005c0.151-0.301,0.4-0.535,0.742-0.704
					c0.333-0.167,0.731-0.248,1.199-0.238l0.017,0.006l-0.089,0.711c-0.295-0.002-0.528,0.039-0.699,0.12
					c-0.177,0.082-0.28,0.197-0.311,0.345c-0.032,0.157,0.016,0.271,0.144,0.342c0.129,0.07,0.314,0.107,0.557,0.107
					c0.222,0.001,0.405-0.038,0.546-0.11c0.14-0.074,0.291-0.215,0.456-0.423c0.219-0.368,0.464-0.642,0.738-0.822
					c0.266-0.18,0.628-0.268,1.087-0.264c0.439,0.004,0.808,0.098,1.108,0.276c0.311,0.181,0.53,0.426,0.655,0.734l0.816,0.004
					l0.12,0.39l-0.844-0.003c0.026,0.314-0.103,0.573-0.395,0.776c-0.301,0.203-0.787,0.301-1.453,0.295l-0.029-0.007l-0.055-0.704
					c0.378,0,0.639-0.051,0.783-0.153c0.143-0.102,0.198-0.235,0.172-0.399c-0.025-0.162-0.109-0.283-0.254-0.364
					C142.974,66.894,142.791,66.853,142.566,66.851z"/>
			</g>
		</g>
	</g>
	<g>
		<g>
			<path fill="#F4D256" d="M129.074,66.721v-3.094h23.916v3.094c0,0-2.71,2.208-11.958,2.208S129.074,66.721,129.074,66.721z"/>
			<ellipse fill="#DC9928" cx="141.032" cy="63.627" rx="11.958" ry="2.321"/>
		</g>
		<g>
			<g>
				<path fill="#F4D256" d="M142.566,63.105c-0.221-0.001-0.396,0.038-0.525,0.115c-0.132,0.077-0.258,0.215-0.382,0.412
					c-0.215,0.374-0.478,0.65-0.785,0.83c-0.315,0.181-0.758,0.271-1.321,0.271c-0.52-0.001-0.926-0.092-1.211-0.274
					c-0.275-0.183-0.396-0.431-0.363-0.743l-0.913-0.003l0.141-0.4l0.895,0.004c0.152-0.301,0.401-0.536,0.744-0.705
					c0.332-0.168,0.73-0.247,1.198-0.237l0.017,0.004l-0.089,0.712c-0.294-0.002-0.527,0.039-0.699,0.121
					c-0.177,0.081-0.28,0.197-0.311,0.346c-0.032,0.156,0.016,0.27,0.144,0.341c0.129,0.07,0.314,0.105,0.557,0.105
					c0.223,0.001,0.405-0.035,0.546-0.109c0.14-0.073,0.291-0.214,0.456-0.423c0.219-0.367,0.464-0.642,0.738-0.822
					c0.266-0.179,0.628-0.267,1.087-0.263c0.439,0.004,0.808,0.095,1.108,0.276c0.311,0.18,0.53,0.425,0.655,0.734l0.816,0.004
					l0.12,0.389l-0.844-0.003c0.026,0.316-0.103,0.574-0.395,0.776c-0.301,0.203-0.787,0.303-1.453,0.296l-0.029-0.008l-0.055-0.703
					c0.378,0,0.639-0.05,0.783-0.153c0.143-0.103,0.198-0.236,0.172-0.4c-0.025-0.162-0.109-0.282-0.254-0.364
					C142.974,63.149,142.791,63.107,142.566,63.105z"/>
			</g>
		</g>
	</g>
	<g>
		<g>
			<path fill="#F4D256" d="M129.074,62.975v-3.092h23.916v3.092c0,0-2.71,2.211-11.958,2.211S129.074,62.975,129.074,62.975z"/>
			<ellipse fill="#DC9928" cx="141.032" cy="59.883" rx="11.958" ry="2.317"/>
		</g>
		<g>
			<g>
				<path fill="#F4D256" d="M142.566,59.361c-0.221-0.002-0.396,0.036-0.525,0.113c-0.132,0.077-0.258,0.215-0.382,0.412
					c-0.215,0.374-0.478,0.65-0.785,0.831c-0.315,0.18-0.758,0.271-1.321,0.271c-0.52-0.001-0.926-0.092-1.211-0.273
					c-0.275-0.184-0.396-0.431-0.363-0.744l-0.913-0.003l0.142-0.401l0.895,0.005c0.151-0.301,0.4-0.535,0.742-0.704
					c0.333-0.167,0.731-0.248,1.199-0.238l0.017,0.005l-0.089,0.712c-0.295-0.002-0.528,0.039-0.699,0.12
					c-0.177,0.081-0.28,0.196-0.311,0.345c-0.032,0.157,0.016,0.271,0.144,0.342c0.129,0.07,0.314,0.106,0.557,0.106
					c0.223,0.001,0.405-0.037,0.546-0.109c0.14-0.074,0.291-0.215,0.456-0.423c0.219-0.368,0.464-0.642,0.738-0.822
					c0.266-0.18,0.628-0.268,1.087-0.264c0.439,0.004,0.808,0.097,1.108,0.277c0.311,0.18,0.53,0.425,0.655,0.733l0.816,0.004
					l0.12,0.39l-0.844-0.003c0.026,0.314-0.103,0.573-0.395,0.776c-0.301,0.203-0.787,0.302-1.453,0.295l-0.029-0.008l-0.055-0.703
					c0.378,0,0.639-0.051,0.783-0.153c0.143-0.102,0.198-0.235,0.172-0.399c-0.025-0.162-0.11-0.284-0.254-0.364
					C142.974,59.403,142.791,59.362,142.566,59.361z"/>
			</g>
		</g>
	</g>
	<g>
		<g>
			<path fill="#F4D256" d="M129.074,59.229v-3.092h23.916v3.092c0,0-2.71,2.208-11.958,2.208S129.074,59.229,129.074,59.229z"/>
			<ellipse fill="#DC9928" cx="141.032" cy="56.137" rx="11.958" ry="2.319"/>
		</g>
		<g>
			<g>
				<path fill="#F4D256" d="M142.566,55.616c-0.221-0.001-0.396,0.036-0.525,0.112c-0.132,0.076-0.258,0.215-0.382,0.413
					c-0.215,0.374-0.478,0.65-0.785,0.829c-0.315,0.182-0.758,0.272-1.321,0.271c-0.52,0-0.926-0.092-1.211-0.273
					c-0.275-0.182-0.396-0.431-0.363-0.744l-0.913-0.004l0.141-0.398l0.895,0.004c0.152-0.301,0.401-0.536,0.743-0.705
					c0.333-0.168,0.731-0.248,1.199-0.238l0.017,0.005l-0.089,0.714c-0.295-0.002-0.528,0.037-0.699,0.117
					c-0.177,0.082-0.28,0.197-0.311,0.348c-0.032,0.155,0.016,0.27,0.144,0.341c0.128,0.07,0.314,0.104,0.557,0.106
					c0.223,0,0.405-0.036,0.546-0.11c0.14-0.074,0.291-0.214,0.456-0.423c0.219-0.368,0.464-0.642,0.738-0.822
					c0.266-0.18,0.628-0.268,1.087-0.264c0.439,0.004,0.808,0.098,1.108,0.277c0.311,0.18,0.53,0.425,0.655,0.734l0.816,0.004
					l0.12,0.389l-0.844-0.002c0.026,0.313-0.103,0.572-0.395,0.775c-0.301,0.203-0.787,0.301-1.453,0.295l-0.029-0.007l-0.055-0.704
					c0.378,0.002,0.639-0.05,0.783-0.152c0.143-0.103,0.198-0.236,0.172-0.4c-0.025-0.16-0.109-0.283-0.254-0.364
					C142.974,55.656,142.791,55.617,142.566,55.616z"/>
			</g>
		</g>
	</g>
	<g>
		<g>
			<path fill="#F4D256" d="M129.074,55.482v-3.09h23.916v3.09c0,0-2.71,2.21-11.958,2.21S129.074,55.482,129.074,55.482z"/>
			<ellipse fill="#DC9928" cx="141.032" cy="52.393" rx="11.958" ry="2.317"/>
		</g>
		<g>
			<g>
				<path fill="#F4D256" d="M142.566,51.869c-0.221-0.001-0.396,0.037-0.525,0.113c-0.132,0.079-0.258,0.216-0.382,0.414
					c-0.215,0.373-0.478,0.65-0.785,0.83c-0.315,0.182-0.758,0.271-1.321,0.271c-0.52,0-0.926-0.091-1.211-0.275
					c-0.275-0.182-0.396-0.43-0.363-0.743l-0.912-0.003l0.14-0.399l0.895,0.005c0.152-0.301,0.401-0.536,0.744-0.705
					c0.332-0.168,0.73-0.247,1.198-0.238l0.017,0.005l-0.089,0.711c-0.294-0.002-0.527,0.039-0.699,0.121
					c-0.177,0.081-0.28,0.196-0.311,0.346c-0.032,0.156,0.016,0.27,0.144,0.341c0.129,0.07,0.314,0.106,0.557,0.107
					c0.223,0,0.405-0.037,0.546-0.109c0.14-0.075,0.291-0.217,0.456-0.425c0.219-0.366,0.464-0.641,0.738-0.821
					c0.266-0.18,0.628-0.268,1.087-0.264c0.439,0.004,0.808,0.096,1.108,0.275c0.311,0.181,0.53,0.426,0.655,0.735l0.816,0.004
					l0.12,0.39l-0.844-0.004c0.026,0.316-0.103,0.574-0.395,0.777c-0.301,0.203-0.787,0.301-1.453,0.295l-0.029-0.008l-0.055-0.703
					c0.378,0,0.639-0.051,0.783-0.152c0.143-0.104,0.199-0.236,0.172-0.401c-0.025-0.162-0.11-0.283-0.254-0.364
					C142.974,51.914,142.791,51.871,142.566,51.869z"/>
			</g>
		</g>
	</g>
	<g>
		<g>
			<path fill="#F4D256" d="M129.074,51.738v-3.092h23.916v3.092c0,0-2.71,2.208-11.958,2.208S129.074,51.738,129.074,51.738z"/>
			<ellipse fill="#DC9928" cx="141.032" cy="48.646" rx="11.958" ry="2.319"/>
		</g>
		<g>
			<g>
				<path fill="#F4D256" d="M142.566,48.126c-0.221-0.001-0.396,0.035-0.525,0.112c-0.132,0.077-0.258,0.215-0.382,0.414
					c-0.215,0.371-0.478,0.648-0.785,0.829c-0.315,0.181-0.758,0.271-1.321,0.271c-0.52,0-0.926-0.092-1.212-0.273
					c-0.274-0.184-0.396-0.431-0.362-0.744l-0.913-0.003l0.141-0.399l0.895,0.004c0.152-0.301,0.401-0.536,0.743-0.704
					c0.333-0.167,0.73-0.247,1.199-0.238l0.017,0.004l-0.089,0.714c-0.295-0.002-0.528,0.037-0.699,0.118
					c-0.177,0.081-0.28,0.196-0.311,0.347c-0.032,0.155,0.016,0.27,0.144,0.34c0.129,0.07,0.314,0.106,0.557,0.107
					c0.223,0,0.405-0.036,0.546-0.109c0.14-0.075,0.291-0.215,0.456-0.424c0.219-0.367,0.464-0.642,0.738-0.822
					c0.266-0.18,0.628-0.268,1.087-0.264c0.439,0.004,0.808,0.097,1.108,0.277c0.311,0.181,0.53,0.425,0.655,0.734l0.816,0.004
					l0.121,0.391l-0.844-0.003c0.025,0.315-0.104,0.572-0.396,0.776c-0.301,0.202-0.787,0.3-1.453,0.294l-0.029-0.007l-0.055-0.704
					c0.378,0,0.639-0.05,0.783-0.152c0.143-0.102,0.199-0.236,0.172-0.4c-0.025-0.162-0.109-0.283-0.253-0.363
					C142.974,48.168,142.791,48.127,142.566,48.126z"/>
			</g>
		</g>
	</g>
	<g>
		<g>
			<path fill="#F4D256" d="M129.074,47.992V44.9h23.916v3.092c0,0-2.71,2.211-11.958,2.211S129.074,47.992,129.074,47.992z"/>
			<ellipse fill="#DC9928" cx="141.032" cy="44.9" rx="11.958" ry="2.319"/>
		</g>
		<g>
			<g>
				<path fill="#F4D256" d="M142.566,44.38c-0.221-0.001-0.396,0.036-0.525,0.113c-0.132,0.078-0.258,0.216-0.382,0.414
					c-0.215,0.373-0.478,0.65-0.785,0.83c-0.315,0.181-0.758,0.272-1.321,0.272c-0.52,0-0.926-0.092-1.211-0.275
					c-0.275-0.182-0.396-0.431-0.363-0.744l-0.912-0.003l0.141-0.399l0.894,0.004c0.152-0.301,0.401-0.536,0.744-0.705
					c0.332-0.168,0.73-0.247,1.198-0.238l0.017,0.005l-0.089,0.711c-0.294-0.001-0.527,0.039-0.699,0.121
					c-0.177,0.081-0.28,0.195-0.311,0.345c-0.032,0.157,0.016,0.271,0.144,0.341c0.128,0.071,0.314,0.106,0.557,0.106
					c0.223,0,0.405-0.036,0.546-0.109c0.14-0.074,0.291-0.216,0.456-0.424c0.219-0.367,0.464-0.641,0.738-0.821
					c0.266-0.18,0.628-0.268,1.087-0.264c0.439,0.004,0.808,0.096,1.108,0.275c0.311,0.182,0.53,0.425,0.655,0.735l0.816,0.004
					l0.121,0.39l-0.844-0.003c0.025,0.314-0.104,0.573-0.396,0.775c-0.301,0.204-0.787,0.301-1.453,0.295l-0.029-0.008l-0.055-0.703
					c0.378,0.001,0.639-0.049,0.783-0.152c0.143-0.104,0.198-0.237,0.172-0.402c-0.025-0.162-0.11-0.283-0.254-0.364
					C142.974,44.423,142.791,44.381,142.566,44.38z"/>
			</g>
		</g>
	</g>
	<g>
		<g>
			<path fill="#F4D256" d="M129.074,44.249v-3.093h23.916v3.093c0,0-2.71,2.208-11.958,2.208S129.074,44.249,129.074,44.249z"/>
			<ellipse fill="#DC9928" cx="141.032" cy="41.156" rx="11.958" ry="2.32"/>
		</g>
		<g>
			<g>
				<path fill="#F4D256" d="M142.566,40.635c-0.221-0.001-0.396,0.037-0.525,0.113c-0.132,0.077-0.258,0.215-0.382,0.413
					c-0.215,0.373-0.478,0.65-0.785,0.831c-0.315,0.18-0.758,0.271-1.321,0.271c-0.52,0-0.926-0.092-1.212-0.274
					c-0.274-0.183-0.395-0.432-0.362-0.744l-0.913-0.003l0.142-0.4l0.894,0.004c0.152-0.301,0.401-0.536,0.743-0.704
					c0.333-0.168,0.731-0.248,1.199-0.239l0.017,0.006l-0.089,0.711c-0.295-0.001-0.528,0.039-0.7,0.121
					c-0.176,0.081-0.279,0.196-0.31,0.344c-0.032,0.157,0.015,0.272,0.144,0.341c0.129,0.07,0.314,0.107,0.557,0.108
					c0.222,0,0.405-0.037,0.546-0.111c0.14-0.074,0.291-0.215,0.456-0.423c0.219-0.368,0.464-0.642,0.738-0.823
					c0.266-0.18,0.628-0.268,1.087-0.263c0.439,0.004,0.808,0.097,1.108,0.277c0.311,0.18,0.53,0.425,0.655,0.734l0.816,0.004
					l0.121,0.39l-0.844-0.003c0.025,0.314-0.104,0.573-0.396,0.776c-0.301,0.203-0.787,0.3-1.453,0.294l-0.029-0.007l-0.055-0.704
					c0.378,0.001,0.639-0.051,0.783-0.153c0.143-0.101,0.199-0.235,0.173-0.399c-0.026-0.162-0.11-0.283-0.255-0.365
					C142.974,40.677,142.791,40.636,142.566,40.635z"/>
			</g>
		</g>
	</g>
	<g>
		<g>
			<path fill="#F4D256" d="M129.074,40.505V37.41h23.916v3.095c0,0-2.71,2.208-11.958,2.208S129.074,40.505,129.074,40.505z"/>
			<ellipse fill="#DC9928" cx="141.032" cy="37.41" rx="11.958" ry="2.322"/>
		</g>
		<g>
			<g>
				<path fill="#F4D256" d="M142.566,36.89c-0.221-0.001-0.396,0.036-0.525,0.113c-0.132,0.077-0.258,0.215-0.382,0.414
					c-0.215,0.373-0.478,0.65-0.785,0.83c-0.315,0.182-0.758,0.271-1.321,0.271c-0.52,0-0.926-0.091-1.211-0.274
					c-0.275-0.182-0.396-0.431-0.363-0.743l-0.913-0.003l0.142-0.4l0.894,0.004c0.153-0.302,0.401-0.536,0.744-0.705
					c0.332-0.168,0.73-0.247,1.198-0.238l0.017,0.005l-0.089,0.711c-0.294-0.001-0.527,0.039-0.699,0.121
					c-0.177,0.082-0.28,0.197-0.311,0.345c-0.032,0.157,0.016,0.27,0.144,0.341c0.129,0.07,0.314,0.105,0.557,0.105
					c0.223,0,0.405-0.036,0.546-0.108c0.14-0.074,0.291-0.216,0.456-0.424c0.219-0.367,0.464-0.641,0.738-0.821
					c0.266-0.18,0.628-0.268,1.087-0.264c0.439,0.004,0.808,0.095,1.108,0.275c0.311,0.181,0.53,0.426,0.655,0.735l0.816,0.004
					l0.12,0.389l-0.844-0.003c0.026,0.315-0.103,0.574-0.395,0.776c-0.301,0.203-0.787,0.301-1.453,0.295l-0.029-0.008l-0.055-0.703
					c0.378,0.001,0.639-0.051,0.783-0.153c0.143-0.103,0.198-0.236,0.173-0.399c-0.026-0.163-0.11-0.283-0.255-0.366
					C142.974,36.933,142.791,36.891,142.566,36.89z"/>
			</g>
		</g>
	</g>
	<g>
		<g>
			<path fill="#F4D256" d="M129.074,36.759v-3.093h23.916v3.093c0,0-2.71,2.21-11.958,2.21S129.074,36.759,129.074,36.759z"/>
			<ellipse fill="#DC9928" cx="141.032" cy="33.666" rx="11.958" ry="2.317"/>
		</g>
		<g>
			<g>
				<path fill="#F4D256" d="M142.566,33.145c-0.221-0.001-0.396,0.037-0.525,0.113c-0.132,0.077-0.258,0.215-0.382,0.413
					c-0.215,0.373-0.478,0.65-0.785,0.831c-0.315,0.18-0.758,0.271-1.321,0.271c-0.52,0-0.926-0.092-1.212-0.274
					c-0.274-0.183-0.395-0.431-0.362-0.744l-0.913-0.003l0.142-0.4l0.894,0.004c0.152-0.301,0.401-0.536,0.743-0.704
					c0.333-0.168,0.731-0.248,1.199-0.239l0.017,0.005l-0.089,0.712c-0.295-0.001-0.528,0.039-0.7,0.121
					c-0.176,0.08-0.279,0.196-0.31,0.344c-0.032,0.157,0.016,0.271,0.144,0.341c0.129,0.07,0.314,0.106,0.557,0.106
					c0.223,0,0.405-0.037,0.546-0.109c0.14-0.074,0.291-0.215,0.456-0.423c0.219-0.368,0.464-0.642,0.738-0.822
					c0.266-0.18,0.628-0.268,1.087-0.264c0.439,0.004,0.808,0.096,1.108,0.277c0.311,0.18,0.53,0.425,0.655,0.734l0.816,0.004
					l0.121,0.39l-0.844-0.003c0.025,0.314-0.104,0.573-0.396,0.776c-0.301,0.203-0.787,0.3-1.453,0.294l-0.029-0.007l-0.055-0.704
					c0.378,0.001,0.639-0.051,0.783-0.153c0.143-0.101,0.199-0.235,0.173-0.399c-0.026-0.162-0.11-0.283-0.255-0.365
					C142.974,33.188,142.791,33.146,142.566,33.145z"/>
			</g>
		</g>
	</g>
	<g>
		<g>
			<path fill="#F4D256" d="M129.074,33.013v-3.09h23.916v3.09c0,0-2.71,2.21-11.958,2.21S129.074,33.013,129.074,33.013z"/>
			<path fill="#DC9928" d="M152.99,29.923c0,1.278-5.354,2.317-11.958,2.317c-6.604,0-11.958-1.039-11.958-2.317
				c0-1.283,5.354-2.32,11.958-2.32C147.637,27.603,152.99,28.64,152.99,29.923z"/>
		</g>
		<g>
			<g>
				<path fill="#F4D256" d="M142.566,29.401c-0.221-0.001-0.396,0.037-0.525,0.113c-0.132,0.077-0.258,0.213-0.382,0.412
					c-0.215,0.373-0.478,0.651-0.785,0.83c-0.315,0.182-0.758,0.271-1.321,0.271c-0.52,0-0.926-0.091-1.211-0.274
					c-0.275-0.182-0.396-0.431-0.363-0.744l-0.912-0.003l0.141-0.399l0.895,0.005c0.151-0.3,0.4-0.535,0.742-0.704
					c0.333-0.169,0.731-0.248,1.199-0.239l0.017,0.005l-0.089,0.712c-0.295-0.002-0.527,0.037-0.699,0.119
					c-0.177,0.082-0.28,0.197-0.311,0.346c-0.032,0.157,0.016,0.271,0.144,0.342c0.129,0.07,0.314,0.104,0.557,0.105
					c0.223,0,0.405-0.036,0.546-0.108c0.14-0.074,0.291-0.215,0.456-0.424c0.219-0.367,0.464-0.642,0.738-0.821
					c0.266-0.18,0.628-0.268,1.087-0.264c0.439,0.004,0.808,0.095,1.108,0.277c0.311,0.179,0.53,0.423,0.655,0.733l0.816,0.004
					l0.12,0.389l-0.844-0.002c0.026,0.315-0.103,0.574-0.395,0.776c-0.301,0.203-0.787,0.301-1.453,0.295l-0.029-0.009l-0.055-0.703
					c0.378,0.001,0.639-0.05,0.783-0.153c0.143-0.102,0.198-0.236,0.172-0.399c-0.025-0.162-0.11-0.284-0.254-0.366
					C142.974,29.443,142.791,29.402,142.566,29.401z"/>
			</g>
		</g>
	</g>
	<g>
		<g>
			<path fill="#F4D256" d="M129.074,29.269v-3.092h23.916v3.092c0,0-2.71,2.208-11.958,2.208S129.074,29.269,129.074,29.269z"/>
			<ellipse fill="#DC9928" cx="141.032" cy="26.177" rx="11.958" ry="2.317"/>
		</g>
		<g>
			<g>
				<path fill="#F4D256" d="M142.566,25.655c-0.221-0.001-0.396,0.037-0.525,0.112c-0.132,0.078-0.258,0.216-0.382,0.413
					c-0.215,0.375-0.478,0.651-0.785,0.831c-0.315,0.182-0.758,0.272-1.321,0.271c-0.52,0-0.926-0.091-1.211-0.274
					c-0.275-0.183-0.396-0.432-0.363-0.744l-0.913-0.003l0.142-0.401l0.895,0.005c0.151-0.3,0.4-0.535,0.743-0.705
					c0.332-0.167,0.73-0.247,1.198-0.238l0.017,0.005l-0.089,0.712c-0.295-0.002-0.528,0.039-0.7,0.121
					c-0.176,0.08-0.279,0.195-0.31,0.344c-0.032,0.157,0.016,0.271,0.144,0.343c0.129,0.069,0.314,0.105,0.557,0.106
					c0.223,0,0.405-0.037,0.546-0.11c0.14-0.074,0.291-0.215,0.456-0.424c0.219-0.367,0.464-0.641,0.738-0.821
					c0.266-0.18,0.628-0.268,1.087-0.264c0.439,0.004,0.808,0.097,1.108,0.277c0.311,0.18,0.53,0.425,0.655,0.733l0.816,0.004
					l0.12,0.391l-0.844-0.003c0.026,0.314-0.103,0.573-0.395,0.776c-0.301,0.203-0.787,0.3-1.453,0.294l-0.029-0.009l-0.055-0.703
					c0.378,0.001,0.639-0.05,0.783-0.152c0.143-0.103,0.198-0.236,0.172-0.401c-0.025-0.161-0.11-0.283-0.254-0.363
					C142.974,25.697,142.791,25.656,142.566,25.655z"/>
			</g>
		</g>
	</g>
	<g>
		<g>
			<path fill="#F4D256" d="M129.074,25.522v-3.092h23.916v3.092c0,0-2.71,2.208-11.958,2.208S129.074,25.522,129.074,25.522z"/>
			<ellipse fill="#DC9928" cx="141.032" cy="22.431" rx="11.958" ry="2.319"/>
		</g>
		<g>
			<g>
				<path fill="#F4D256" d="M142.566,21.909c-0.221-0.001-0.396,0.037-0.525,0.113c-0.132,0.077-0.258,0.215-0.382,0.414
					c-0.215,0.373-0.478,0.649-0.785,0.831c-0.315,0.179-0.758,0.271-1.321,0.27c-0.52,0-0.926-0.092-1.212-0.273
					c-0.274-0.185-0.396-0.432-0.362-0.745l-0.913-0.003l0.142-0.401l0.895,0.005c0.151-0.3,0.4-0.535,0.742-0.704
					c0.333-0.167,0.73-0.247,1.199-0.238l0.017,0.004l-0.089,0.712c-0.295-0.002-0.528,0.039-0.699,0.12
					c-0.177,0.083-0.28,0.197-0.311,0.345c-0.032,0.157,0.016,0.271,0.144,0.343c0.129,0.069,0.314,0.105,0.557,0.106
					c0.223,0,0.405-0.036,0.546-0.11c0.14-0.074,0.291-0.215,0.456-0.423c0.219-0.367,0.464-0.642,0.738-0.822
					c0.266-0.18,0.628-0.268,1.087-0.264c0.439,0.004,0.808,0.098,1.108,0.277c0.311,0.18,0.53,0.425,0.655,0.733l0.816,0.004
					l0.12,0.391l-0.844-0.003c0.026,0.315-0.103,0.573-0.395,0.776c-0.301,0.203-0.787,0.3-1.453,0.294l-0.029-0.007l-0.055-0.705
					c0.378,0.001,0.639-0.049,0.783-0.153c0.143-0.101,0.198-0.235,0.172-0.399c-0.025-0.162-0.109-0.283-0.253-0.363
					C142.974,21.951,142.791,21.91,142.566,21.909z"/>
			</g>
		</g>
	</g>
	<g>
		<g>
			<path fill="#F4D256" d="M129.074,21.776v-3.092h23.916v3.092c0,0-2.71,2.21-11.958,2.21S129.074,21.776,129.074,21.776z"/>
			<ellipse fill="#DC9928" cx="141.032" cy="18.685" rx="11.958" ry="2.319"/>
		</g>
		<g>
			<g>
				<path fill="#F4D256" d="M142.566,18.164c-0.221-0.001-0.396,0.037-0.525,0.113c-0.132,0.077-0.258,0.216-0.382,0.414
					c-0.215,0.374-0.478,0.651-0.785,0.83c-0.315,0.182-0.758,0.273-1.321,0.272c-0.52,0-0.926-0.092-1.211-0.275
					c-0.275-0.181-0.396-0.43-0.363-0.744l-0.912-0.003l0.14-0.398l0.895,0.004c0.152-0.303,0.401-0.538,0.744-0.706
					c0.332-0.168,0.73-0.247,1.198-0.238l0.017,0.005l-0.089,0.711c-0.294-0.002-0.527,0.039-0.699,0.12
					c-0.177,0.083-0.28,0.197-0.311,0.348c-0.032,0.155,0.016,0.27,0.144,0.34c0.128,0.072,0.314,0.105,0.557,0.106
					c0.223,0,0.405-0.035,0.546-0.11c0.14-0.073,0.291-0.215,0.456-0.423c0.219-0.367,0.464-0.642,0.738-0.821
					c0.266-0.18,0.628-0.268,1.087-0.264c0.439,0.004,0.808,0.095,1.108,0.276c0.311,0.182,0.53,0.425,0.655,0.735l0.816,0.004
					l0.121,0.391l-0.844-0.003c0.025,0.315-0.104,0.573-0.396,0.775c-0.301,0.203-0.787,0.302-1.453,0.296l-0.029-0.008
					l-0.055-0.702c0.378,0.001,0.639-0.051,0.783-0.153c0.143-0.104,0.198-0.238,0.172-0.402c-0.025-0.162-0.11-0.283-0.254-0.364
					C142.974,18.208,142.791,18.165,142.566,18.164z"/>
			</g>
		</g>
	</g>
	<g>
		<g>
			<path fill="#F4D256" d="M129.074,18.032V14.94h23.916v3.092c0,0-2.71,2.208-11.958,2.208S129.074,18.032,129.074,18.032z"/>
			<path fill="#DC9928" d="M152.99,14.94c0,1.283-5.354,2.317-11.958,2.317c-6.604,0-11.958-1.034-11.958-2.317
				c0-1.281,5.354-2.32,11.958-2.32C147.637,12.62,152.99,13.659,152.99,14.94z"/>
		</g>
		<g>
			<g>
				<path fill="#F4D256" d="M142.566,14.418c-0.221-0.001-0.396,0.037-0.525,0.113c-0.132,0.078-0.258,0.215-0.382,0.413
					c-0.215,0.374-0.478,0.65-0.785,0.831c-0.315,0.18-0.758,0.271-1.321,0.271c-0.52,0-0.926-0.092-1.211-0.274
					c-0.275-0.183-0.396-0.431-0.363-0.744l-0.913-0.003l0.142-0.401l0.895,0.004c0.151-0.3,0.4-0.535,0.742-0.704
					c0.333-0.168,0.731-0.248,1.199-0.239l0.017,0.006l-0.089,0.711c-0.295-0.001-0.527,0.038-0.699,0.12
					c-0.177,0.083-0.28,0.197-0.311,0.345c-0.032,0.157,0.015,0.272,0.144,0.343c0.129,0.069,0.314,0.106,0.557,0.106
					c0.222,0,0.405-0.038,0.546-0.11c0.14-0.074,0.291-0.215,0.456-0.424c0.219-0.367,0.464-0.641,0.738-0.82
					c0.266-0.181,0.628-0.269,1.087-0.265c0.439,0.004,0.808,0.096,1.108,0.277c0.311,0.18,0.53,0.425,0.655,0.734l0.816,0.004
					l0.121,0.392l-0.844-0.003c0.025,0.313-0.104,0.573-0.396,0.775c-0.301,0.203-0.787,0.302-1.453,0.294l-0.029-0.007
					l-0.055-0.705c0.378,0.001,0.639-0.05,0.783-0.153c0.143-0.101,0.199-0.233,0.172-0.399c-0.025-0.162-0.11-0.283-0.254-0.364
					C142.974,14.461,142.791,14.42,142.566,14.418z"/>
			</g>
		</g>
	</g>
	<g>
		<g>
			<path fill="#F4D256" d="M129.074,14.289v-3.093h23.916v3.093c0,0-2.71,2.208-11.958,2.208S129.074,14.289,129.074,14.289z"/>
			<ellipse fill="#DC9928" cx="141.032" cy="11.196" rx="11.958" ry="2.319"/>
		</g>
		<g>
			<g>
				<path fill="#F4D256" d="M142.566,10.673c-0.221-0.001-0.396,0.037-0.525,0.113c-0.132,0.077-0.258,0.215-0.382,0.413
					c-0.215,0.374-0.478,0.65-0.785,0.83c-0.315,0.181-0.758,0.271-1.321,0.271c-0.52,0-0.926-0.091-1.211-0.274
					c-0.275-0.182-0.396-0.43-0.363-0.743l-0.913-0.003l0.141-0.4l0.895,0.004c0.152-0.301,0.401-0.535,0.744-0.705
					c0.332-0.167,0.73-0.246,1.198-0.237l0.017,0.005l-0.089,0.711c-0.294-0.002-0.527,0.039-0.699,0.121
					c-0.177,0.083-0.28,0.197-0.311,0.346c-0.032,0.156,0.016,0.27,0.144,0.341c0.129,0.07,0.314,0.105,0.557,0.105
					c0.223,0.001,0.405-0.035,0.546-0.11c0.14-0.073,0.291-0.215,0.456-0.423c0.219-0.368,0.464-0.641,0.738-0.822
					c0.266-0.179,0.628-0.267,1.087-0.263c0.439,0.004,0.808,0.097,1.108,0.277c0.311,0.179,0.53,0.425,0.655,0.733l0.816,0.004
					l0.12,0.389l-0.844-0.003c0.026,0.316-0.104,0.573-0.395,0.777c-0.301,0.203-0.787,0.3-1.453,0.295l-0.029-0.008l-0.055-0.703
					c0.378,0.001,0.639-0.05,0.783-0.153c0.143-0.103,0.198-0.236,0.172-0.4c-0.025-0.161-0.109-0.282-0.254-0.365
					C142.974,10.717,142.791,10.674,142.566,10.673z"/>
			</g>
		</g>
	</g>
	<g>
		<g>
			<path fill="#F4D256" d="M129.074,10.542V7.45h23.916v3.092c0,0-2.71,2.211-11.958,2.211S129.074,10.542,129.074,10.542z"/>
			<ellipse fill="#DC9928" cx="141.032" cy="7.45" rx="11.958" ry="2.319"/>
		</g>
		<g>
			<g>
				<path fill="#F4D256" d="M142.566,6.929c-0.221-0.001-0.396,0.036-0.525,0.113c-0.132,0.077-0.258,0.215-0.382,0.412
					c-0.215,0.374-0.478,0.65-0.785,0.831c-0.315,0.181-0.758,0.271-1.321,0.271c-0.52,0-0.926-0.091-1.212-0.274
					c-0.274-0.183-0.395-0.431-0.362-0.744l-0.913-0.003l0.142-0.4l0.895,0.004c0.151-0.301,0.4-0.536,0.743-0.704
					c0.332-0.168,0.73-0.248,1.198-0.239l0.017,0.005l-0.089,0.712c-0.294-0.001-0.527,0.039-0.699,0.121
					c-0.177,0.08-0.28,0.195-0.311,0.344c-0.032,0.156,0.016,0.271,0.144,0.342c0.129,0.069,0.314,0.105,0.557,0.105
					c0.223,0,0.405-0.036,0.546-0.109c0.14-0.073,0.291-0.215,0.456-0.423c0.219-0.368,0.464-0.642,0.738-0.823
					c0.266-0.18,0.628-0.267,1.087-0.262c0.439,0.004,0.808,0.095,1.108,0.275c0.311,0.181,0.53,0.425,0.654,0.733l0.817,0.004
					l0.12,0.391l-0.844-0.003c0.026,0.314-0.103,0.573-0.395,0.776c-0.301,0.203-0.787,0.3-1.453,0.294l-0.029-0.008l-0.055-0.704
					c0.377,0.001,0.639-0.049,0.783-0.152c0.143-0.103,0.198-0.235,0.172-0.4c-0.025-0.162-0.11-0.283-0.254-0.364
					C142.974,6.972,142.791,6.93,142.566,6.929z"/>
			</g>
		</g>
	</g>
</g>
<g>
	<path fill="#231F20" d="M13.087,91.761h-2.09v2.21h-0.864v-5.183h3.317v0.694h-2.453v1.584h2.09V91.761z"/>
	<path fill="#231F20" d="M15.104,93.971H14.24v-5.183h0.864V93.971z"/>
	<path fill="#231F20" d="M20.313,93.971h-0.865l-2.296-3.733l-0.021,0.007v3.727h-0.864v-5.183h0.864l2.296,3.734l0.021-0.008
		v-3.727h0.865V93.971z"/>
	<path fill="#231F20" d="M24.295,91.64h-2.029v1.641h2.393v0.69h-3.257v-5.183h3.231v0.694h-2.367v1.463h2.029V91.64z"/>
	<path fill="#231F20" d="M26.302,92.006v1.965h-0.864v-5.183h1.985c0.572,0,1.021,0.147,1.344,0.443
		c0.324,0.296,0.486,0.684,0.486,1.166c0,0.486-0.162,0.876-0.486,1.169c-0.323,0.293-0.771,0.439-1.344,0.439H26.302z
		 M26.302,91.312h1.121c0.32,0,0.562-0.085,0.723-0.256c0.162-0.171,0.242-0.388,0.242-0.651s-0.08-0.482-0.242-0.658
		c-0.161-0.176-0.402-0.264-0.723-0.264h-1.121V91.312z"/>
	<path fill="#231F20" d="M15.761,100.889c0,0.591-0.144,1.056-0.43,1.395c-0.285,0.34-0.678,0.51-1.176,0.51
		s-0.893-0.171-1.182-0.511c-0.29-0.341-0.435-0.806-0.435-1.394v-1.523c0-0.586,0.144-1.051,0.431-1.392
		c0.287-0.342,0.68-0.513,1.179-0.513c0.498,0,0.892,0.171,1.18,0.513c0.288,0.341,0.433,0.806,0.433,1.392V100.889z M15.333,99.297
		c0-0.453-0.103-0.812-0.308-1.076s-0.498-0.397-0.877-0.397c-0.38,0-0.673,0.134-0.878,0.399s-0.308,0.624-0.308,1.074v1.655
		c0,0.448,0.104,0.808,0.312,1.077c0.207,0.27,0.501,0.403,0.881,0.403c0.377,0,0.668-0.134,0.872-0.401
		c0.204-0.269,0.306-0.628,0.306-1.079V99.297z"/>
	<path fill="#231F20" d="M17.135,102.653l-0.378,0.982h-0.291l0.245-0.993v-0.594h0.424V102.653z"/>
	<path fill="#231F20" d="M19.911,102.718h-0.427v-4.815l-1.229,0.149V97.71l1.655-0.249V102.718z"/>
	<path fill="#231F20" d="M21.996,98.532c0-0.302,0.093-0.556,0.279-0.762c0.187-0.207,0.432-0.31,0.735-0.31
		c0.301,0,0.545,0.103,0.731,0.31c0.186,0.206,0.279,0.46,0.279,0.762v0.273c0,0.3-0.093,0.552-0.278,0.757
		c-0.185,0.205-0.427,0.308-0.726,0.308c-0.306,0-0.553-0.103-0.74-0.308s-0.281-0.457-0.281-0.757V98.532z M22.338,98.806
		c0,0.209,0.059,0.387,0.176,0.534c0.118,0.147,0.285,0.221,0.504,0.221c0.211,0,0.374-0.073,0.489-0.221s0.173-0.325,0.173-0.534
		v-0.273c0-0.209-0.059-0.389-0.175-0.538s-0.281-0.224-0.494-0.224c-0.214,0-0.379,0.074-0.497,0.224
		c-0.117,0.149-0.176,0.329-0.176,0.538V98.806z M23.121,102.287l-0.264-0.171l2.53-4.051l0.264,0.171L23.121,102.287z
		 M24.602,101.447c0-0.299,0.093-0.552,0.279-0.759c0.187-0.206,0.432-0.31,0.735-0.31c0.301,0,0.545,0.104,0.732,0.31
		c0.188,0.207,0.281,0.46,0.281,0.759v0.277c0,0.302-0.093,0.555-0.279,0.76c-0.186,0.205-0.429,0.309-0.728,0.309
		c-0.307,0-0.553-0.104-0.74-0.309s-0.281-0.458-0.281-0.76V101.447z M24.946,101.725c0,0.211,0.059,0.391,0.175,0.537
		c0.116,0.147,0.283,0.221,0.502,0.221c0.211,0,0.374-0.073,0.489-0.221c0.115-0.146,0.173-0.326,0.173-0.537v-0.277
		c0-0.216-0.059-0.396-0.175-0.541s-0.281-0.218-0.494-0.218c-0.214,0-0.379,0.073-0.495,0.22c-0.116,0.146-0.175,0.325-0.175,0.539
		V101.725z"/>
</g>
<g>
	<path fill="#231F20" d="M43.167,93.28h2.428v0.69h-3.292v-5.183h0.864V93.28z"/>
	<path fill="#231F20" d="M47.872,94.046c-0.562,0-1.002-0.178-1.318-0.532c-0.316-0.355-0.475-0.814-0.475-1.38v-0.142
		c0-0.565,0.158-1.031,0.475-1.397s0.726-0.549,1.227-0.547c0.517,0,0.908,0.16,1.174,0.479c0.267,0.319,0.399,0.745,0.399,1.279
		v0.466h-2.382l-0.007,0.019c0.01,0.315,0.093,0.571,0.249,0.769c0.157,0.197,0.393,0.295,0.708,0.295
		c0.235,0,0.438-0.028,0.611-0.085c0.172-0.057,0.331-0.139,0.479-0.246l0.281,0.566c-0.147,0.128-0.342,0.236-0.584,0.324
		S48.188,94.046,47.872,94.046z M47.78,90.742c-0.226,0-0.406,0.081-0.541,0.244c-0.136,0.162-0.22,0.374-0.253,0.635l0.007,0.019
		h1.506v-0.068c0-0.246-0.058-0.446-0.173-0.6C48.211,90.819,48.029,90.742,47.78,90.742z"/>
	<path fill="#231F20" d="M50.977,89.177h-0.865v-0.759h0.865V89.177z M50.977,93.971h-0.865v-3.852h0.865V93.971z"/>
	<path fill="#231F20" d="M53.601,92.099c0-0.614,0.131-1.11,0.395-1.486s0.634-0.564,1.11-0.564c0.209,0,0.396,0.043,0.561,0.127
		s0.309,0.204,0.429,0.361v-2.118h0.865v5.553h-0.701l-0.104-0.487c-0.123,0.183-0.272,0.322-0.448,0.418s-0.378,0.145-0.608,0.145
		c-0.473,0-0.84-0.173-1.104-0.517s-0.395-0.796-0.395-1.356V92.099z M54.465,92.173c0,0.356,0.068,0.64,0.205,0.851
		c0.136,0.212,0.353,0.317,0.649,0.317c0.183,0,0.338-0.039,0.465-0.117c0.127-0.079,0.23-0.19,0.311-0.335v-1.68
		c-0.08-0.143-0.185-0.254-0.313-0.333s-0.28-0.119-0.456-0.119c-0.294,0-0.511,0.124-0.651,0.372c-0.14,0.248-0.21,0.571-0.21,0.97
		V92.173z"/>
	<path fill="#231F20" d="M59.521,94.046c-0.562,0-1.002-0.178-1.318-0.532c-0.316-0.355-0.475-0.814-0.475-1.38v-0.142
		c0-0.565,0.158-1.031,0.475-1.397s0.726-0.549,1.227-0.547c0.517,0,0.908,0.16,1.174,0.479c0.267,0.319,0.399,0.745,0.399,1.279
		v0.466h-2.382l-0.007,0.019c0.01,0.315,0.093,0.571,0.249,0.769c0.157,0.197,0.393,0.295,0.708,0.295
		c0.235,0,0.438-0.028,0.611-0.085c0.172-0.057,0.331-0.139,0.479-0.246l0.281,0.566c-0.147,0.128-0.342,0.236-0.584,0.324
		S59.838,94.046,59.521,94.046z M59.43,90.742c-0.226,0-0.406,0.081-0.541,0.244c-0.136,0.162-0.22,0.374-0.253,0.635l0.007,0.019
		h1.506v-0.068c0-0.246-0.058-0.446-0.173-0.6C59.86,90.819,59.679,90.742,59.43,90.742z"/>
	<path fill="#231F20" d="M64.544,93.971H63.68v-5.183h0.864V93.971z"/>
	<path fill="#231F20" d="M66.398,90.119l0.05,0.556c0.126-0.197,0.284-0.351,0.476-0.461s0.406-0.166,0.646-0.166
		c0.401,0,0.714,0.124,0.938,0.371c0.225,0.246,0.336,0.632,0.336,1.156v2.396h-0.864v-2.389c0-0.299-0.059-0.511-0.175-0.637
		s-0.292-0.188-0.526-0.188c-0.186,0-0.346,0.035-0.48,0.104c-0.136,0.07-0.244,0.167-0.324,0.29v2.819h-0.865v-3.852H66.398z"/>
	<path fill="#231F20" d="M71.314,93.354c0.197,0,0.363-0.062,0.5-0.185s0.205-0.28,0.205-0.47h0.782l0.008,0.021
		c0.009,0.36-0.134,0.671-0.43,0.933c-0.295,0.261-0.65,0.392-1.065,0.392c-0.556,0-0.983-0.184-1.285-0.551
		c-0.301-0.366-0.452-0.828-0.452-1.386v-0.125c0-0.555,0.151-1.017,0.452-1.385c0.302-0.367,0.729-0.552,1.281-0.552
		c0.448,0,0.813,0.135,1.093,0.404s0.415,0.611,0.406,1.027l-0.008,0.021H72.02c0-0.212-0.065-0.391-0.196-0.538
		c-0.131-0.146-0.302-0.221-0.513-0.221c-0.309,0-0.53,0.119-0.665,0.358c-0.136,0.238-0.203,0.533-0.203,0.884v0.125
		c0,0.358,0.067,0.655,0.201,0.892S71.001,93.354,71.314,93.354z"/>
	<path fill="#231F20" d="M74.486,93.971h-0.861v-0.829h0.861V93.971z"/>
	<path fill="#231F20" d="M49.367,100.387h-2.029v1.641h2.393v0.69h-3.257v-5.183h3.231v0.694h-2.367v1.463h2.029V100.387z"/>
	<path fill="#231F20" d="M52.585,101.664c0-0.133-0.057-0.242-0.17-0.329c-0.112-0.087-0.325-0.164-0.639-0.233
		c-0.453-0.092-0.8-0.229-1.039-0.409c-0.24-0.18-0.359-0.422-0.359-0.726c0-0.323,0.136-0.599,0.409-0.828
		c0.272-0.229,0.632-0.344,1.078-0.344c0.461,0,0.831,0.118,1.112,0.354s0.416,0.521,0.404,0.853l-0.007,0.021h-0.83
		c0-0.156-0.062-0.293-0.185-0.407c-0.123-0.115-0.288-0.173-0.495-0.173c-0.209,0-0.367,0.047-0.477,0.143
		c-0.109,0.095-0.164,0.211-0.164,0.349c0,0.13,0.051,0.234,0.153,0.313c0.102,0.078,0.312,0.147,0.63,0.21
		c0.473,0.095,0.828,0.234,1.068,0.418c0.239,0.184,0.359,0.43,0.359,0.738c0,0.347-0.144,0.63-0.43,0.849
		c-0.285,0.22-0.662,0.33-1.13,0.33c-0.5,0-0.896-0.129-1.185-0.385c-0.29-0.257-0.428-0.551-0.413-0.883l0.007-0.021h0.805
		c0.009,0.224,0.09,0.386,0.242,0.487c0.151,0.103,0.337,0.153,0.555,0.153c0.221,0,0.393-0.044,0.515-0.132
		S52.585,101.809,52.585,101.664z"/>
	<path fill="#231F20" d="M57.586,100.92c0,0.561-0.132,1.013-0.396,1.356s-0.63,0.517-1.1,0.517c-0.219,0-0.412-0.04-0.58-0.118
		c-0.169-0.078-0.313-0.193-0.435-0.345v1.868h-0.864v-5.332h0.729l0.085,0.484c0.123-0.181,0.272-0.318,0.447-0.413
		c0.174-0.095,0.376-0.143,0.606-0.143c0.475,0,0.844,0.188,1.108,0.564s0.397,0.872,0.397,1.486V100.92z M56.725,100.846
		c0-0.394-0.074-0.716-0.223-0.967c-0.148-0.25-0.37-0.375-0.664-0.375c-0.181,0-0.333,0.038-0.459,0.115s-0.227,0.185-0.303,0.322
		v1.74c0.076,0.136,0.177,0.239,0.303,0.312s0.281,0.108,0.466,0.108c0.295,0,0.515-0.108,0.661-0.325
		c0.146-0.217,0.219-0.503,0.219-0.856V100.846z"/>
	<path fill="#231F20" d="M58.181,100.757c0-0.574,0.156-1.045,0.471-1.411c0.314-0.367,0.745-0.551,1.291-0.551
		c0.553,0,0.986,0.184,1.301,0.551c0.314,0.366,0.472,0.837,0.472,1.411v0.074c0,0.579-0.157,1.051-0.472,1.415
		s-0.746,0.547-1.294,0.547c-0.551,0-0.983-0.184-1.298-0.549s-0.471-0.836-0.471-1.413V100.757z M59.045,100.831
		c0,0.378,0.073,0.684,0.221,0.919c0.147,0.234,0.375,0.352,0.684,0.352c0.302,0,0.527-0.117,0.678-0.354
		c0.151-0.236,0.227-0.542,0.227-0.917v-0.074c0-0.368-0.075-0.671-0.227-0.909c-0.15-0.239-0.379-0.358-0.685-0.358
		c-0.302,0-0.526,0.119-0.675,0.358c-0.148,0.238-0.223,0.541-0.223,0.909V100.831z"/>
	<path fill="#231F20" d="M64.388,99.646l-0.37-0.015c-0.169,0-0.31,0.035-0.422,0.106s-0.2,0.173-0.262,0.303v2.677H62.47v-3.852
		h0.79l0.057,0.56c0.098-0.197,0.223-0.352,0.376-0.463c0.152-0.111,0.329-0.168,0.528-0.168c0.052,0,0.101,0.005,0.146,0.013
		c0.045,0.009,0.087,0.019,0.125,0.03L64.388,99.646z"/>
	<path fill="#231F20" d="M66.195,97.931v0.936h0.69v0.641h-0.69v2.129c0,0.159,0.034,0.272,0.104,0.34
		c0.068,0.067,0.16,0.102,0.273,0.102c0.048,0,0.094-0.004,0.14-0.013c0.045-0.008,0.087-0.02,0.128-0.033l0.093,0.633
		c-0.074,0.041-0.161,0.072-0.262,0.095c-0.102,0.022-0.206,0.034-0.315,0.034c-0.318,0-0.567-0.094-0.749-0.28
		c-0.182-0.186-0.272-0.479-0.272-0.877v-2.129h-0.587v-0.641h0.587v-0.936H66.195z"/>
	<path fill="#231F20" d="M69.217,102.793c-0.562,0-1.002-0.178-1.318-0.532c-0.316-0.355-0.475-0.814-0.475-1.38v-0.142
		c0-0.565,0.158-1.031,0.475-1.397s0.726-0.549,1.227-0.547c0.517,0,0.908,0.16,1.174,0.479c0.267,0.319,0.399,0.745,0.399,1.279
		v0.466h-2.382l-0.007,0.019c0.01,0.315,0.093,0.571,0.249,0.769c0.157,0.197,0.393,0.295,0.708,0.295
		c0.235,0,0.438-0.028,0.611-0.085c0.172-0.057,0.331-0.139,0.479-0.246l0.281,0.566c-0.147,0.128-0.342,0.236-0.584,0.324
		S69.533,102.793,69.217,102.793z M69.125,99.489c-0.226,0-0.406,0.081-0.541,0.244c-0.136,0.162-0.22,0.374-0.253,0.635
		l0.007,0.019h1.506v-0.068c0-0.246-0.058-0.446-0.173-0.6C69.556,99.566,69.374,99.489,69.125,99.489z"/>
	<path fill="#231F20" d="M54.636,109.637c0,0.591-0.144,1.056-0.43,1.395c-0.285,0.34-0.678,0.51-1.176,0.51
		s-0.893-0.171-1.182-0.511c-0.29-0.341-0.435-0.806-0.435-1.394v-1.523c0-0.586,0.144-1.051,0.431-1.392
		c0.287-0.342,0.68-0.513,1.179-0.513c0.498,0,0.892,0.171,1.18,0.513c0.288,0.341,0.433,0.806,0.433,1.392V109.637z
		 M54.208,108.045c0-0.453-0.103-0.812-0.308-1.076s-0.498-0.397-0.877-0.397c-0.38,0-0.673,0.134-0.878,0.399
		s-0.308,0.624-0.308,1.074v1.655c0,0.448,0.104,0.808,0.312,1.077c0.207,0.27,0.501,0.403,0.881,0.403
		c0.377,0,0.668-0.134,0.872-0.401c0.204-0.269,0.306-0.628,0.306-1.079V108.045z"/>
	<path fill="#231F20" d="M56.01,111.401l-0.378,0.982h-0.291l0.245-0.993v-0.594h0.424V111.401z"/>
	<path fill="#231F20" d="M59.501,109.797h0.812v0.359h-0.812v1.31h-0.423v-1.31h-2.382v-0.242l2.339-3.631h0.466V109.797z
		 M57.202,109.797h1.876v-2.955l-0.021-0.007l-0.182,0.388L57.202,109.797z"/>
	<path fill="#231F20" d="M60.871,107.28c0-0.302,0.093-0.556,0.279-0.762c0.187-0.207,0.432-0.31,0.735-0.31
		c0.301,0,0.545,0.103,0.731,0.31c0.186,0.206,0.279,0.46,0.279,0.762v0.273c0,0.3-0.093,0.552-0.278,0.757
		c-0.185,0.205-0.427,0.308-0.726,0.308c-0.306,0-0.553-0.103-0.74-0.308s-0.281-0.457-0.281-0.757V107.28z M61.213,107.554
		c0,0.209,0.059,0.387,0.176,0.534c0.118,0.147,0.285,0.221,0.504,0.221c0.211,0,0.374-0.073,0.489-0.221s0.173-0.325,0.173-0.534
		v-0.273c0-0.209-0.059-0.389-0.175-0.538s-0.281-0.224-0.494-0.224c-0.214,0-0.379,0.074-0.497,0.224
		c-0.117,0.149-0.176,0.329-0.176,0.538V107.554z M61.996,111.035l-0.264-0.171l2.53-4.051l0.264,0.171L61.996,111.035z
		 M63.477,110.195c0-0.299,0.093-0.552,0.279-0.759c0.187-0.206,0.432-0.31,0.735-0.31c0.301,0,0.545,0.104,0.732,0.31
		c0.188,0.207,0.281,0.46,0.281,0.759v0.277c0,0.302-0.093,0.555-0.279,0.76c-0.186,0.205-0.429,0.309-0.728,0.309
		c-0.307,0-0.553-0.104-0.74-0.309s-0.281-0.458-0.281-0.76V110.195z M63.821,110.473c0,0.211,0.059,0.391,0.175,0.537
		c0.116,0.147,0.283,0.221,0.502,0.221c0.211,0,0.374-0.073,0.489-0.221c0.115-0.146,0.173-0.326,0.173-0.537v-0.277
		c0-0.216-0.059-0.396-0.175-0.541s-0.281-0.218-0.494-0.218c-0.214,0-0.379,0.073-0.495,0.22c-0.116,0.146-0.175,0.325-0.175,0.539
		V110.473z"/>
</g>
<g>
	<path fill="#231F20" d="M88.806,92.64c0-0.216-0.076-0.393-0.229-0.53s-0.424-0.261-0.813-0.37
		c-0.558-0.154-0.987-0.356-1.29-0.607c-0.303-0.25-0.454-0.577-0.454-0.98c0-0.417,0.166-0.762,0.499-1.032
		c0.332-0.271,0.759-0.405,1.281-0.405c0.56,0,1.008,0.149,1.344,0.45c0.335,0.3,0.497,0.671,0.485,1.112l-0.007,0.021h-0.833
		c0-0.273-0.091-0.49-0.272-0.651c-0.182-0.162-0.423-0.242-0.725-0.242c-0.291,0-0.517,0.068-0.674,0.206
		c-0.158,0.138-0.237,0.315-0.237,0.534c0,0.199,0.087,0.363,0.26,0.493c0.174,0.129,0.461,0.252,0.861,0.368
		c0.544,0.151,0.958,0.358,1.242,0.621c0.285,0.262,0.428,0.598,0.428,1.006c0,0.429-0.169,0.771-0.506,1.028
		c-0.337,0.256-0.779,0.385-1.327,0.385c-0.527,0-0.986-0.141-1.378-0.421c-0.392-0.279-0.581-0.675-0.569-1.185l0.007-0.021h0.833
		c0,0.311,0.107,0.545,0.322,0.703c0.215,0.157,0.477,0.236,0.785,0.236c0.306,0,0.544-0.064,0.714-0.194
		C88.721,93.035,88.806,92.86,88.806,92.64z"/>
	<path fill="#231F20" d="M91.493,93.971h-0.864v-5.183h0.864V93.971z"/>
	<path fill="#231F20" d="M96.7,93.971h-0.865l-2.296-3.733l-0.021,0.007v3.727h-0.864v-5.183h0.864l2.296,3.734l0.021-0.008v-3.727
		H96.7V93.971z"/>
	<path fill="#231F20" d="M101.577,92.276l0.007,0.021c0.01,0.522-0.16,0.943-0.509,1.266c-0.349,0.321-0.82,0.482-1.413,0.482
		c-0.603,0-1.092-0.204-1.467-0.611c-0.375-0.406-0.563-0.927-0.563-1.561v-0.985c0-0.632,0.186-1.151,0.556-1.562
		c0.37-0.409,0.853-0.613,1.448-0.613c0.61,0,1.09,0.155,1.44,0.466c0.35,0.312,0.52,0.737,0.511,1.278l-0.008,0.021h-0.836
		c0-0.346-0.094-0.611-0.281-0.795s-0.463-0.276-0.826-0.276c-0.351,0-0.629,0.14-0.834,0.419c-0.206,0.278-0.309,0.63-0.309,1.055
		v0.993c0,0.43,0.104,0.784,0.313,1.063c0.209,0.279,0.493,0.418,0.854,0.418c0.354,0,0.622-0.092,0.806-0.277
		c0.185-0.185,0.276-0.452,0.276-0.801H101.577z"/>
	<path fill="#231F20" d="M106.488,91.846c0,0.634-0.198,1.158-0.596,1.575c-0.397,0.416-0.914,0.625-1.551,0.625
		c-0.619,0-1.123-0.209-1.513-0.625c-0.389-0.417-0.583-0.941-0.583-1.575v-0.933c0-0.631,0.193-1.155,0.582-1.573
		c0.388-0.417,0.893-0.626,1.514-0.626c0.634,0,1.15,0.209,1.549,0.626c0.398,0.418,0.598,0.942,0.598,1.573V91.846z
		 M105.624,90.906c0-0.432-0.115-0.787-0.346-1.064s-0.542-0.416-0.937-0.416c-0.382,0-0.683,0.139-0.901,0.416
		c-0.22,0.277-0.33,0.633-0.33,1.064v0.939c0,0.437,0.11,0.794,0.331,1.073s0.521,0.418,0.9,0.418c0.396,0,0.709-0.139,0.938-0.416
		c0.229-0.277,0.344-0.636,0.344-1.075V90.906z"/>
	<path fill="#231F20" d="M108.994,92.564l0.093,0.378h0.021l0.089-0.37l1.239-3.784h0.922l-1.852,5.183h-0.822l-1.847-5.183h0.922
		L108.994,92.564z"/>
	<path fill="#231F20" d="M96.103,102.718h-0.427v-4.815l-1.229,0.149V97.71l1.655-0.249V102.718z"/>
	<path fill="#231F20" d="M98.188,98.532c0-0.302,0.093-0.556,0.279-0.762c0.187-0.207,0.432-0.31,0.735-0.31
		c0.301,0,0.545,0.103,0.731,0.31c0.186,0.206,0.279,0.46,0.279,0.762v0.273c0,0.3-0.093,0.552-0.278,0.757
		c-0.185,0.205-0.427,0.308-0.726,0.308c-0.306,0-0.553-0.103-0.74-0.308s-0.281-0.457-0.281-0.757V98.532z M98.53,98.806
		c0,0.209,0.059,0.387,0.176,0.534c0.118,0.147,0.285,0.221,0.504,0.221c0.211,0,0.374-0.073,0.489-0.221s0.173-0.325,0.173-0.534
		v-0.273c0-0.209-0.059-0.389-0.175-0.538s-0.281-0.224-0.494-0.224c-0.214,0-0.379,0.074-0.497,0.224
		c-0.117,0.149-0.176,0.329-0.176,0.538V98.806z M99.313,102.287l-0.264-0.171l2.53-4.051l0.264,0.171L99.313,102.287z
		 M100.794,101.447c0-0.299,0.093-0.552,0.279-0.759c0.187-0.206,0.432-0.31,0.735-0.31c0.301,0,0.545,0.104,0.732,0.31
		c0.188,0.207,0.281,0.46,0.281,0.759v0.277c0,0.302-0.093,0.555-0.279,0.76c-0.186,0.205-0.429,0.309-0.728,0.309
		c-0.307,0-0.553-0.104-0.74-0.309s-0.281-0.458-0.281-0.76V101.447z M101.139,101.725c0,0.211,0.059,0.391,0.175,0.537
		c0.116,0.147,0.283,0.221,0.502,0.221c0.211,0,0.374-0.073,0.489-0.221c0.115-0.146,0.173-0.326,0.173-0.537v-0.277
		c0-0.216-0.059-0.396-0.175-0.541s-0.281-0.218-0.494-0.218c-0.214,0-0.379,0.073-0.495,0.22c-0.116,0.146-0.175,0.325-0.175,0.539
		V101.725z"/>
</g>
<g>
	<path fill="#231F20" d="M125.764,93.28h2.428v0.69h-3.292v-5.183h0.864V93.28z"/>
	<path fill="#231F20" d="M130.469,94.046c-0.562,0-1.002-0.178-1.318-0.532c-0.316-0.355-0.475-0.814-0.475-1.38v-0.142
		c0-0.565,0.158-1.031,0.475-1.397s0.726-0.549,1.227-0.547c0.517,0,0.908,0.16,1.174,0.479c0.267,0.319,0.399,0.745,0.399,1.279
		v0.466h-2.382l-0.007,0.019c0.01,0.315,0.093,0.571,0.249,0.769c0.157,0.197,0.393,0.295,0.708,0.295
		c0.235,0,0.438-0.028,0.611-0.085c0.172-0.057,0.331-0.139,0.479-0.246l0.281,0.566c-0.147,0.128-0.342,0.236-0.584,0.324
		S130.785,94.046,130.469,94.046z M130.377,90.742c-0.226,0-0.406,0.081-0.541,0.244c-0.136,0.162-0.22,0.374-0.253,0.635
		l0.007,0.019h1.506v-0.068c0-0.246-0.058-0.446-0.173-0.6C130.808,90.819,130.626,90.742,130.377,90.742z"/>
	<path fill="#231F20" d="M133.573,89.177h-0.865v-0.759h0.865V89.177z M133.573,93.971h-0.865v-3.852h0.865V93.971z"/>
	<path fill="#231F20" d="M136.197,92.099c0-0.614,0.131-1.11,0.395-1.486s0.634-0.564,1.11-0.564c0.209,0,0.396,0.043,0.561,0.127
		s0.309,0.204,0.429,0.361v-2.118h0.865v5.553h-0.701l-0.104-0.487c-0.123,0.183-0.272,0.322-0.448,0.418s-0.378,0.145-0.608,0.145
		c-0.473,0-0.84-0.173-1.104-0.517s-0.395-0.796-0.395-1.356V92.099z M137.062,92.173c0,0.356,0.068,0.64,0.205,0.851
		c0.136,0.212,0.353,0.317,0.649,0.317c0.183,0,0.338-0.039,0.465-0.117c0.127-0.079,0.23-0.19,0.311-0.335v-1.68
		c-0.08-0.143-0.185-0.254-0.313-0.333s-0.28-0.119-0.456-0.119c-0.294,0-0.511,0.124-0.651,0.372c-0.14,0.248-0.21,0.571-0.21,0.97
		V92.173z"/>
	<path fill="#231F20" d="M142.118,94.046c-0.562,0-1.002-0.178-1.318-0.532c-0.316-0.355-0.475-0.814-0.475-1.38v-0.142
		c0-0.565,0.158-1.031,0.475-1.397s0.726-0.549,1.227-0.547c0.517,0,0.908,0.16,1.174,0.479c0.267,0.319,0.399,0.745,0.399,1.279
		v0.466h-2.382l-0.007,0.019c0.01,0.315,0.093,0.571,0.249,0.769c0.157,0.197,0.393,0.295,0.708,0.295
		c0.235,0,0.438-0.028,0.611-0.085c0.172-0.057,0.331-0.139,0.479-0.246l0.281,0.566c-0.147,0.128-0.342,0.236-0.584,0.324
		S142.435,94.046,142.118,94.046z M142.026,90.742c-0.226,0-0.406,0.081-0.541,0.244c-0.136,0.162-0.22,0.374-0.253,0.635
		l0.007,0.019h1.506v-0.068c0-0.246-0.058-0.446-0.173-0.6C142.457,90.819,142.275,90.742,142.026,90.742z"/>
	<path fill="#231F20" d="M147.141,93.971h-0.864v-5.183h0.864V93.971z"/>
	<path fill="#231F20" d="M148.995,90.119l0.05,0.556c0.126-0.197,0.284-0.351,0.476-0.461s0.406-0.166,0.646-0.166
		c0.401,0,0.714,0.124,0.938,0.371c0.225,0.246,0.336,0.632,0.336,1.156v2.396h-0.864v-2.389c0-0.299-0.059-0.511-0.175-0.637
		s-0.292-0.188-0.526-0.188c-0.186,0-0.346,0.035-0.48,0.104c-0.136,0.07-0.244,0.167-0.324,0.29v2.819h-0.865v-3.852H148.995z"/>
	<path fill="#231F20" d="M153.911,93.354c0.197,0,0.363-0.062,0.5-0.185s0.205-0.28,0.205-0.47h0.782l0.008,0.021
		c0.009,0.36-0.134,0.671-0.43,0.933c-0.295,0.261-0.65,0.392-1.065,0.392c-0.556,0-0.983-0.184-1.285-0.551
		c-0.301-0.366-0.452-0.828-0.452-1.386v-0.125c0-0.555,0.151-1.017,0.452-1.385c0.302-0.367,0.729-0.552,1.281-0.552
		c0.448,0,0.813,0.135,1.093,0.404s0.415,0.611,0.406,1.027l-0.008,0.021h-0.782c0-0.212-0.065-0.391-0.196-0.538
		c-0.131-0.146-0.302-0.221-0.513-0.221c-0.309,0-0.53,0.119-0.665,0.358c-0.136,0.238-0.203,0.533-0.203,0.884v0.125
		c0,0.358,0.067,0.655,0.201,0.892S153.598,93.354,153.911,93.354z"/>
	<path fill="#231F20" d="M157.083,93.971h-0.861v-0.829h0.861V93.971z"/>
	<path fill="#231F20" d="M133.468,101.023l0.007,0.021c0.01,0.522-0.16,0.943-0.509,1.266c-0.349,0.321-0.82,0.482-1.413,0.482
		c-0.603,0-1.092-0.204-1.467-0.611c-0.375-0.406-0.563-0.927-0.563-1.561v-0.985c0-0.632,0.186-1.151,0.556-1.562
		c0.37-0.409,0.853-0.613,1.448-0.613c0.61,0,1.09,0.155,1.44,0.466c0.35,0.312,0.52,0.737,0.511,1.278l-0.008,0.021h-0.836
		c0-0.346-0.094-0.611-0.281-0.795s-0.463-0.276-0.826-0.276c-0.351,0-0.629,0.14-0.834,0.419c-0.206,0.278-0.309,0.63-0.309,1.055
		v0.993c0,0.43,0.104,0.784,0.313,1.063c0.209,0.279,0.493,0.418,0.854,0.418c0.354,0,0.622-0.092,0.806-0.277
		c0.185-0.185,0.276-0.452,0.276-0.801H133.468z"/>
	<path fill="#231F20" d="M136.621,102.148c-0.119,0.206-0.271,0.365-0.458,0.477c-0.186,0.111-0.401,0.168-0.646,0.168
		c-0.413,0-0.735-0.137-0.969-0.408c-0.232-0.271-0.349-0.693-0.349-1.265v-2.254h0.861v2.261c0,0.367,0.054,0.62,0.16,0.756
		c0.107,0.137,0.273,0.205,0.499,0.205c0.208,0,0.384-0.037,0.524-0.112c0.142-0.074,0.252-0.184,0.333-0.325v-2.784h0.865v3.852
		h-0.744L136.621,102.148z"/>
	<path fill="#231F20" d="M139.27,102.718h-0.865v-5.553h0.865V102.718z"/>
	<path fill="#231F20" d="M141.344,97.931v0.936h0.69v0.641h-0.69v2.129c0,0.159,0.034,0.272,0.104,0.34
		c0.068,0.067,0.16,0.102,0.273,0.102c0.048,0,0.094-0.004,0.14-0.013c0.045-0.008,0.087-0.02,0.128-0.033l0.093,0.633
		c-0.074,0.041-0.161,0.072-0.262,0.095c-0.102,0.022-0.206,0.034-0.315,0.034c-0.318,0-0.567-0.094-0.749-0.28
		c-0.182-0.186-0.272-0.479-0.272-0.877v-2.129h-0.587v-0.641h0.587v-0.936H141.344z"/>
	<path fill="#231F20" d="M145.135,102.148c-0.119,0.206-0.271,0.365-0.458,0.477c-0.186,0.111-0.401,0.168-0.646,0.168
		c-0.413,0-0.735-0.137-0.969-0.408c-0.232-0.271-0.349-0.693-0.349-1.265v-2.254h0.861v2.261c0,0.367,0.054,0.62,0.16,0.756
		c0.107,0.137,0.273,0.205,0.499,0.205c0.208,0,0.384-0.037,0.524-0.112c0.142-0.074,0.252-0.184,0.333-0.325v-2.784h0.865v3.852
		h-0.744L145.135,102.148z"/>
	<path fill="#231F20" d="M148.779,99.646l-0.37-0.015c-0.169,0-0.31,0.035-0.422,0.106s-0.2,0.173-0.262,0.303v2.677h-0.864v-3.852
		h0.79l0.057,0.56c0.098-0.197,0.223-0.352,0.376-0.463c0.152-0.111,0.329-0.168,0.528-0.168c0.052,0,0.101,0.005,0.146,0.013
		c0.045,0.009,0.087,0.019,0.125,0.03L148.779,99.646z"/>
	<path fill="#231F20" d="M151.741,102.718c-0.031-0.098-0.057-0.192-0.076-0.285c-0.021-0.092-0.034-0.185-0.041-0.277
		c-0.116,0.181-0.272,0.332-0.467,0.454s-0.411,0.184-0.651,0.184c-0.4,0-0.709-0.104-0.924-0.311
		c-0.215-0.206-0.321-0.489-0.321-0.851c0-0.372,0.146-0.662,0.44-0.87c0.295-0.207,0.709-0.312,1.242-0.312h0.673v-0.338
		c0-0.201-0.059-0.359-0.176-0.474c-0.117-0.113-0.288-0.171-0.511-0.171c-0.197,0-0.354,0.047-0.47,0.141s-0.175,0.216-0.175,0.365
		l-0.833,0.004l-0.003-0.021c-0.017-0.304,0.119-0.573,0.407-0.809c0.288-0.234,0.664-0.353,1.127-0.353
		c0.448,0,0.81,0.114,1.085,0.342c0.275,0.229,0.413,0.556,0.413,0.982v1.712c0,0.159,0.011,0.312,0.032,0.458
		c0.021,0.146,0.056,0.289,0.104,0.429H151.741z M150.684,102.099c0.216,0,0.411-0.055,0.586-0.164s0.29-0.233,0.347-0.374v-0.569
		h-0.687c-0.252,0-0.448,0.063-0.591,0.188c-0.143,0.124-0.214,0.271-0.214,0.439c0,0.146,0.048,0.264,0.145,0.351
		C150.365,102.056,150.504,102.099,150.684,102.099z"/>
	<path fill="#231F20" d="M140.018,111.466h-3.153v-0.327l1.704-1.99c0.304-0.358,0.515-0.651,0.631-0.881
		c0.116-0.229,0.174-0.455,0.174-0.678c0-0.315-0.085-0.564-0.254-0.746c-0.17-0.182-0.421-0.272-0.753-0.272
		c-0.37,0-0.655,0.11-0.854,0.33c-0.199,0.219-0.299,0.5-0.299,0.842h-0.398l-0.008-0.021c-0.012-0.423,0.125-0.78,0.409-1.073
		c0.285-0.293,0.668-0.439,1.15-0.439c0.443,0,0.794,0.124,1.05,0.373c0.256,0.25,0.385,0.587,0.385,1.012
		c0,0.279-0.085,0.56-0.253,0.84c-0.169,0.279-0.417,0.619-0.744,1.018l-1.402,1.638l0.007,0.018h2.609V111.466z"/>
	<path fill="#231F20" d="M140.751,107.28c0-0.302,0.093-0.556,0.279-0.762c0.187-0.207,0.432-0.31,0.735-0.31
		c0.301,0,0.545,0.103,0.731,0.31c0.186,0.206,0.279,0.46,0.279,0.762v0.273c0,0.3-0.093,0.552-0.278,0.757
		c-0.185,0.205-0.427,0.308-0.726,0.308c-0.306,0-0.553-0.103-0.74-0.308s-0.281-0.457-0.281-0.757V107.28z M141.093,107.554
		c0,0.209,0.059,0.387,0.176,0.534c0.118,0.147,0.285,0.221,0.504,0.221c0.211,0,0.374-0.073,0.489-0.221s0.173-0.325,0.173-0.534
		v-0.273c0-0.209-0.059-0.389-0.175-0.538s-0.281-0.224-0.494-0.224c-0.214,0-0.379,0.074-0.497,0.224
		c-0.117,0.149-0.176,0.329-0.176,0.538V107.554z M141.876,111.035l-0.264-0.171l2.53-4.051l0.264,0.171L141.876,111.035z
		 M143.356,110.195c0-0.299,0.093-0.552,0.279-0.759c0.187-0.206,0.432-0.31,0.735-0.31c0.301,0,0.545,0.104,0.732,0.31
		c0.188,0.207,0.281,0.46,0.281,0.759v0.277c0,0.302-0.093,0.555-0.279,0.76c-0.186,0.205-0.429,0.309-0.728,0.309
		c-0.307,0-0.553-0.104-0.74-0.309s-0.281-0.458-0.281-0.76V110.195z M143.701,110.473c0,0.211,0.059,0.391,0.175,0.537
		c0.116,0.147,0.283,0.221,0.502,0.221c0.211,0,0.374-0.073,0.489-0.221c0.115-0.146,0.173-0.326,0.173-0.537v-0.277
		c0-0.216-0.059-0.396-0.175-0.541s-0.281-0.218-0.494-0.218c-0.214,0-0.379,0.073-0.495,0.22c-0.116,0.146-0.175,0.325-0.175,0.539
		V110.473z"/>
</g>
</svg>
