<?xml version="1.0" encoding="utf-8"?>
<!-- Generator: Adobe Illustrator 14.0.0, SVG Export Plug-In . SVG Version: 6.00 Build 43363)  -->
<!DOCTYPE svg PUBLIC "-//W3C//DTD SVG 1.0//EN" "http://www.w3.org/TR/2001/REC-SVG-20010904/DTD/svg10.dtd">
<svg version="1.0" id="Camada_1" xmlns="http://www.w3.org/2000/svg" xmlns:xlink="http://www.w3.org/1999/xlink" x="0px" y="0px"
	 width="219px" height="190px" viewBox="0 0 219 190" enable-background="new 0 0 219 190" xml:space="preserve">
<circle opacity="0.47" fill="#043988" cx="106.181" cy="67.541" r="48.357"/>
<path opacity="0.88" fill="#F6D448" d="M187.202,121.166c0,26.703-21.649,48.354-48.356,48.354
	c-26.705,0-48.356-21.65-48.356-48.354c0-26.709,21.651-48.359,48.356-48.359C165.553,72.807,187.202,94.457,187.202,121.166z"/>
<path opacity="0.47" fill="#D5001E" d="M125.724,121.166c0,26.703-21.649,48.354-48.358,48.354
	c-26.704,0-48.354-21.65-48.354-48.354c0-26.709,21.651-48.359,48.354-48.359C104.074,72.807,125.724,94.457,125.724,121.166z"/>
<g>
	<g>
		<path fill="#FFFFFF" d="M95.674,36.661h-1.754v5.45h-1.541v-5.45h-1.723v-1.186h5.018V36.661z"/>
		<path fill="#FFFFFF" d="M97.875,42.111H96.33v-4.931h1.545V42.111z M97.287,35.166h1.691l0.009,0.027l-1.28,1.185h-1.358
			L97.287,35.166z"/>
		<path fill="#FFFFFF" d="M100.637,35.954v1.227h0.779v1.066h-0.779v2.26c0,0.177,0.036,0.304,0.107,0.381
			c0.071,0.077,0.167,0.116,0.289,0.116c0.079,0,0.142-0.003,0.189-0.009c0.047-0.007,0.107-0.019,0.18-0.037l0.105,1.14
			c-0.155,0.039-0.295,0.067-0.419,0.084s-0.272,0.025-0.442,0.025c-0.507,0-0.893-0.135-1.155-0.405s-0.394-0.699-0.394-1.285
			v-2.27h-0.688v-1.066h0.688v-1.227H100.637z"/>
		<path fill="#FFFFFF" d="M105.135,41.373c-0.146,0.268-0.335,0.474-0.567,0.617c-0.232,0.145-0.5,0.217-0.804,0.217
			c-0.51,0-0.911-0.18-1.201-0.538c-0.291-0.358-0.436-0.913-0.436-1.663v-2.825h1.536v2.834c0,0.386,0.049,0.65,0.148,0.793
			c0.099,0.144,0.251,0.215,0.458,0.215c0.164,0,0.309-0.023,0.433-0.068c0.125-0.046,0.231-0.114,0.319-0.205v-3.568h1.541v4.931
			h-1.24L105.135,41.373z"/>
		<path fill="#FFFFFF" d="M109.022,42.111h-1.545v-7.109h1.545V42.111z"/>
		<path fill="#FFFFFF" d="M109.761,39.601c0-0.741,0.21-1.346,0.629-1.812c0.419-0.467,1.004-0.7,1.755-0.7
			c0.753,0,1.34,0.233,1.759,0.7c0.419,0.466,0.629,1.07,0.629,1.812v0.096c0,0.744-0.21,1.349-0.629,1.813s-1.003,0.697-1.75,0.697
			c-0.757,0-1.345-0.232-1.764-0.697s-0.629-1.069-0.629-1.813V39.601z M111.301,39.696c0,0.413,0.064,0.737,0.194,0.973
			c0.129,0.235,0.349,0.354,0.658,0.354c0.301,0,0.517-0.119,0.647-0.355c0.13-0.237,0.195-0.561,0.195-0.971v-0.096
			c0-0.401-0.065-0.723-0.195-0.964c-0.131-0.242-0.35-0.362-0.656-0.362c-0.304,0-0.521,0.121-0.649,0.364
			c-0.13,0.243-0.194,0.563-0.194,0.962V39.696z"/>
		<path fill="#FFFFFF" d="M117.781,40.726c0-0.121-0.069-0.229-0.207-0.325c-0.139-0.096-0.39-0.182-0.755-0.258
			c-0.574-0.112-1.007-0.286-1.299-0.521c-0.291-0.235-0.438-0.561-0.438-0.974c0-0.435,0.183-0.803,0.547-1.104
			c0.365-0.303,0.858-0.454,1.481-0.454c0.656,0,1.179,0.146,1.567,0.44c0.39,0.293,0.574,0.672,0.557,1.137l-0.01,0.027h-1.494
			c0-0.194-0.049-0.342-0.146-0.442c-0.097-0.1-0.257-0.15-0.479-0.15c-0.161,0-0.296,0.044-0.405,0.133
			c-0.109,0.088-0.164,0.2-0.164,0.337c0,0.131,0.063,0.241,0.189,0.333c0.126,0.091,0.38,0.173,0.763,0.246
			c0.604,0.118,1.052,0.295,1.34,0.53c0.289,0.235,0.434,0.569,0.434,1.001c0,0.443-0.197,0.809-0.591,1.096
			s-0.913,0.431-1.561,0.431c-0.672,0-1.202-0.17-1.593-0.511c-0.391-0.34-0.576-0.72-0.559-1.139l0.01-0.027h1.395
			c0.006,0.233,0.076,0.402,0.212,0.506c0.135,0.103,0.327,0.154,0.576,0.154c0.207,0,0.363-0.04,0.47-0.12
			C117.729,40.989,117.781,40.875,117.781,40.726z"/>
		<path fill="#FFFFFF" d="M84.133,51.074l0.009,0.027c0.012,0.756-0.201,1.33-0.64,1.72c-0.439,0.391-1.061,0.586-1.866,0.586
			c-0.82,0-1.479-0.251-1.976-0.752c-0.497-0.501-0.745-1.157-0.745-1.969v-1.386c0-0.808,0.239-1.463,0.718-1.966
			s1.111-0.755,1.898-0.755c0.842,0,1.493,0.196,1.953,0.588c0.46,0.393,0.685,0.962,0.672,1.709l-0.014,0.027h-1.5
			c0-0.407-0.086-0.698-0.26-0.875c-0.173-0.176-0.457-0.264-0.852-0.264c-0.346,0-0.612,0.139-0.797,0.417
			c-0.186,0.277-0.278,0.647-0.278,1.109v1.395c0,0.465,0.102,0.837,0.306,1.116c0.204,0.28,0.495,0.42,0.875,0.42
			c0.353,0,0.607-0.089,0.763-0.265c0.157-0.176,0.235-0.471,0.235-0.884H84.133z"/>
		<path fill="#FFFFFF" d="M87.09,53.407c-0.748,0-1.333-0.227-1.757-0.679c-0.424-0.453-0.636-1.025-0.636-1.719v-0.173
			c0-0.754,0.2-1.367,0.599-1.841c0.399-0.475,0.978-0.71,1.734-0.707c0.665,0,1.181,0.199,1.547,0.598
			c0.366,0.397,0.549,0.943,0.549,1.636v0.807h-2.826l-0.009,0.027c0.024,0.258,0.12,0.467,0.287,0.627
			c0.167,0.159,0.407,0.239,0.72,0.239c0.295,0,0.54-0.024,0.736-0.073c0.196-0.049,0.42-0.126,0.672-0.232l0.369,0.938
			c-0.212,0.155-0.498,0.286-0.856,0.393C87.862,53.354,87.485,53.407,87.09,53.407z M87.031,49.475
			c-0.246,0-0.428,0.078-0.545,0.234c-0.117,0.156-0.185,0.368-0.203,0.636l0.009,0.022h1.331v-0.118
			c0-0.255-0.045-0.448-0.134-0.579C87.399,49.54,87.247,49.475,87.031,49.475z"/>
		<path fill="#FFFFFF" d="M92.504,49.693l-0.501-0.005c-0.176,0-0.321,0.032-0.433,0.098s-0.196,0.157-0.25,0.276v3.249h-1.541
			v-4.931h1.449l0.055,0.725c0.104-0.259,0.24-0.459,0.41-0.602c0.17-0.144,0.369-0.215,0.597-0.215c0.07,0,0.132,0.005,0.187,0.014
			c0.055,0.01,0.113,0.023,0.173,0.041L92.504,49.693z"/>
		<path fill="#FFFFFF" d="M94.915,47.154v1.227h0.779v1.066h-0.779v2.26c0,0.177,0.036,0.304,0.107,0.381
			c0.071,0.077,0.167,0.116,0.289,0.116c0.079,0,0.142-0.003,0.189-0.009c0.047-0.007,0.107-0.019,0.18-0.037l0.105,1.14
			c-0.155,0.039-0.295,0.067-0.419,0.084s-0.272,0.025-0.442,0.025c-0.507,0-0.893-0.135-1.155-0.405s-0.394-0.699-0.394-1.285
			v-2.27h-0.688v-1.066h0.688v-1.227H94.915z"/>
		<path fill="#FFFFFF" d="M98.055,47.236H96.51v-1.034h1.545V47.236z M98.055,53.312H96.51v-4.931h1.545V53.312z"/>
		<path fill="#FFFFFF" d="M99.35,53.312v-3.864h-0.716v-1.066h0.716v-0.237c0-0.656,0.202-1.16,0.606-1.511s0.979-0.526,1.723-0.526
			c0.255,0,0.509,0.022,0.761,0.068c0.252,0.046,0.533,0.11,0.843,0.196l-0.209,1.212c-0.261-0.066-0.479-0.117-0.654-0.15
			s-0.391-0.05-0.649-0.05c-0.283,0-0.5,0.065-0.652,0.198c-0.152,0.132-0.228,0.319-0.228,0.563v0.237h0.966v1.066h-0.966v3.864
			H99.35z M103.989,53.312h-1.545v-4.931h1.545V53.312z"/>
		<path fill="#FFFFFF" d="M107.042,52.223c0.21,0,0.366-0.058,0.47-0.171c0.104-0.114,0.155-0.279,0.155-0.495h1.403l0.009,0.027
			c0.013,0.538-0.174,0.977-0.558,1.315c-0.385,0.339-0.878,0.508-1.479,0.508c-0.75,0-1.328-0.231-1.734-0.695
			c-0.406-0.463-0.608-1.066-0.608-1.812v-0.104c0-0.741,0.202-1.345,0.606-1.81c0.404-0.465,0.98-0.697,1.728-0.697
			c0.626,0,1.126,0.174,1.502,0.522c0.375,0.348,0.557,0.824,0.544,1.429l-0.009,0.027h-1.403c0-0.234-0.054-0.425-0.16-0.572
			s-0.264-0.221-0.474-0.221c-0.298,0-0.505,0.119-0.622,0.357c-0.117,0.238-0.176,0.56-0.176,0.964V50.9
			c0,0.413,0.059,0.737,0.176,0.971C106.528,52.105,106.738,52.223,107.042,52.223z"/>
		<path fill="#FFFFFF" d="M112.557,53.307c-0.058-0.103-0.107-0.22-0.148-0.351s-0.072-0.268-0.094-0.41
			c-0.134,0.262-0.298,0.47-0.494,0.627c-0.196,0.156-0.452,0.234-0.768,0.234c-0.517,0-0.919-0.133-1.206-0.398
			c-0.287-0.267-0.431-0.629-0.431-1.087c0-0.489,0.185-0.867,0.552-1.133s0.925-0.398,1.673-0.398h0.633v-0.352
			c0-0.209-0.05-0.37-0.15-0.482c-0.1-0.112-0.253-0.169-0.46-0.169c-0.18,0-0.313,0.042-0.398,0.125
			c-0.087,0.084-0.13,0.214-0.13,0.39l-1.495-0.004l-0.009-0.027c-0.021-0.45,0.166-0.826,0.563-1.128
			c0.396-0.303,0.92-0.454,1.57-0.454c0.61,0,1.104,0.152,1.483,0.456c0.378,0.304,0.567,0.738,0.567,1.304v1.859
			c0,0.261,0.021,0.504,0.065,0.729c0.044,0.226,0.11,0.45,0.198,0.675L112.557,53.307z M111.472,52.309
			c0.188,0,0.354-0.044,0.499-0.132s0.245-0.193,0.303-0.314v-0.651h-0.619c-0.246,0-0.424,0.059-0.533,0.178
			c-0.109,0.118-0.164,0.269-0.164,0.451c0,0.14,0.048,0.253,0.144,0.339C111.196,52.266,111.319,52.309,111.472,52.309z"/>
		<path fill="#FFFFFF" d="M116.768,52.223c0.209,0,0.366-0.058,0.469-0.171c0.104-0.114,0.155-0.279,0.155-0.495h1.403l0.01,0.027
			c0.012,0.538-0.174,0.977-0.559,1.315s-0.877,0.508-1.479,0.508c-0.751,0-1.329-0.231-1.734-0.695
			c-0.405-0.463-0.608-1.066-0.608-1.812v-0.104c0-0.741,0.202-1.345,0.606-1.81c0.403-0.465,0.979-0.697,1.727-0.697
			c0.626,0,1.127,0.174,1.502,0.522c0.375,0.348,0.557,0.824,0.545,1.429l-0.01,0.027h-1.403c0-0.234-0.053-0.425-0.159-0.572
			s-0.265-0.221-0.475-0.221c-0.298,0-0.505,0.119-0.622,0.357c-0.116,0.238-0.175,0.56-0.175,0.964V50.9
			c0,0.413,0.059,0.737,0.175,0.971C116.253,52.105,116.464,52.223,116.768,52.223z M117.359,53.266l-0.045,0.278
			c0.194,0.033,0.356,0.112,0.487,0.237c0.131,0.124,0.196,0.308,0.196,0.551c0,0.347-0.147,0.622-0.442,0.825
			s-0.716,0.306-1.263,0.306l-0.031-0.848c0.124,0,0.223-0.029,0.294-0.087s0.106-0.146,0.106-0.265
			c0-0.115-0.046-0.196-0.139-0.243c-0.093-0.048-0.25-0.077-0.472-0.089l0.142-0.666H117.359z"/>
		<path fill="#FFFFFF" d="M119.229,50.801c0-0.741,0.21-1.346,0.629-1.812c0.419-0.467,1.004-0.7,1.755-0.7
			c0.753,0,1.34,0.233,1.759,0.7c0.419,0.466,0.629,1.07,0.629,1.812v0.096c0,0.744-0.21,1.349-0.629,1.813s-1.003,0.697-1.75,0.697
			c-0.757,0-1.345-0.232-1.764-0.697s-0.629-1.069-0.629-1.813V50.801z M123.385,46.298c0,0.292-0.091,0.542-0.273,0.75
			s-0.41,0.312-0.684,0.312c-0.213,0-0.463-0.063-0.75-0.191c-0.287-0.127-0.51-0.191-0.667-0.191c-0.101,0-0.185,0.05-0.251,0.148
			s-0.101,0.217-0.101,0.354l-0.811-0.229c0-0.285,0.09-0.533,0.271-0.745c0.181-0.211,0.408-0.316,0.682-0.316
			c0.17,0,0.409,0.063,0.718,0.189c0.309,0.126,0.542,0.188,0.699,0.188c0.095,0,0.178-0.048,0.249-0.146s0.106-0.216,0.106-0.355
			L123.385,46.298z M120.769,50.896c0,0.413,0.064,0.737,0.194,0.973c0.129,0.235,0.349,0.354,0.658,0.354
			c0.301,0,0.517-0.119,0.647-0.355c0.13-0.237,0.195-0.561,0.195-0.971v-0.096c0-0.401-0.065-0.723-0.195-0.964
			c-0.131-0.242-0.35-0.362-0.656-0.362c-0.304,0-0.521,0.121-0.649,0.364c-0.13,0.243-0.194,0.563-0.194,0.962V50.896z"/>
		<path fill="#FFFFFF" d="M126.867,53.407c-0.747,0-1.333-0.227-1.757-0.679c-0.424-0.453-0.636-1.025-0.636-1.719v-0.173
			c0-0.754,0.2-1.367,0.6-1.841c0.399-0.475,0.978-0.71,1.733-0.707c0.666,0,1.182,0.199,1.548,0.598
			c0.366,0.397,0.549,0.943,0.549,1.636v0.807h-2.825l-0.01,0.027c0.024,0.258,0.12,0.467,0.287,0.627
			c0.167,0.159,0.407,0.239,0.721,0.239c0.294,0,0.54-0.024,0.735-0.073c0.196-0.049,0.42-0.126,0.673-0.232l0.369,0.938
			c-0.213,0.155-0.499,0.286-0.857,0.393S127.262,53.407,126.867,53.407z M126.808,49.475c-0.246,0-0.428,0.078-0.544,0.234
			c-0.117,0.156-0.185,0.368-0.203,0.636l0.009,0.022h1.331v-0.118c0-0.255-0.045-0.448-0.135-0.579
			C127.177,49.54,127.023,49.475,126.808,49.475z"/>
		<path fill="#FFFFFF" d="M132.126,51.926c0-0.121-0.069-0.229-0.207-0.325c-0.139-0.096-0.39-0.182-0.755-0.258
			c-0.574-0.112-1.007-0.286-1.299-0.521c-0.291-0.235-0.438-0.561-0.438-0.974c0-0.435,0.183-0.803,0.547-1.104
			c0.365-0.303,0.858-0.454,1.481-0.454c0.656,0,1.179,0.146,1.567,0.44c0.39,0.293,0.574,0.672,0.557,1.137l-0.01,0.027h-1.494
			c0-0.194-0.049-0.342-0.146-0.442c-0.097-0.1-0.257-0.15-0.479-0.15c-0.161,0-0.296,0.044-0.405,0.133
			c-0.109,0.088-0.164,0.2-0.164,0.337c0,0.131,0.063,0.241,0.189,0.333c0.126,0.091,0.38,0.173,0.763,0.246
			c0.604,0.118,1.052,0.295,1.34,0.53c0.289,0.235,0.434,0.569,0.434,1.001c0,0.443-0.197,0.809-0.591,1.096
			s-0.913,0.431-1.561,0.431c-0.672,0-1.202-0.17-1.593-0.511c-0.391-0.34-0.576-0.72-0.559-1.139l0.01-0.027h1.395
			c0.006,0.233,0.076,0.402,0.212,0.506c0.135,0.103,0.327,0.154,0.576,0.154c0.207,0,0.363-0.04,0.47-0.12
			C132.073,52.189,132.126,52.075,132.126,51.926z"/>
		<path fill="#FFFFFF" d="M90.629,62.274l0.009,0.027c0.012,0.756-0.201,1.33-0.64,1.72c-0.439,0.391-1.061,0.586-1.866,0.586
			c-0.82,0-1.479-0.251-1.976-0.752c-0.497-0.501-0.745-1.157-0.745-1.969v-1.386c0-0.808,0.239-1.463,0.718-1.966
			s1.111-0.755,1.898-0.755c0.842,0,1.493,0.196,1.953,0.588c0.46,0.393,0.685,0.962,0.672,1.709l-0.014,0.027h-1.5
			c0-0.407-0.086-0.698-0.26-0.875c-0.173-0.176-0.457-0.264-0.852-0.264c-0.346,0-0.612,0.139-0.797,0.417
			c-0.186,0.277-0.278,0.647-0.278,1.109v1.395c0,0.465,0.102,0.837,0.306,1.116c0.204,0.28,0.495,0.42,0.875,0.42
			c0.353,0,0.607-0.089,0.763-0.265c0.157-0.176,0.235-0.471,0.235-0.884H90.629z"/>
		<path fill="#FFFFFF" d="M94.248,64.507c-0.058-0.103-0.107-0.22-0.148-0.351s-0.072-0.268-0.093-0.41
			c-0.134,0.262-0.299,0.47-0.495,0.627c-0.196,0.156-0.452,0.234-0.768,0.234c-0.517,0-0.918-0.133-1.205-0.398
			c-0.287-0.267-0.431-0.629-0.431-1.087c0-0.489,0.184-0.867,0.551-1.133s0.925-0.398,1.672-0.398h0.634v-0.352
			c0-0.209-0.05-0.37-0.15-0.482c-0.101-0.112-0.254-0.169-0.46-0.169c-0.179,0-0.312,0.042-0.399,0.125
			c-0.086,0.084-0.13,0.214-0.13,0.39l-1.495-0.004l-0.009-0.027c-0.021-0.45,0.167-0.826,0.563-1.128
			c0.396-0.303,0.92-0.454,1.57-0.454c0.611,0,1.105,0.152,1.483,0.456c0.378,0.304,0.567,0.738,0.567,1.304v1.859
			c0,0.261,0.022,0.504,0.066,0.729c0.044,0.226,0.11,0.45,0.198,0.675L94.248,64.507z M93.163,63.509
			c0.188,0,0.354-0.044,0.499-0.132s0.245-0.193,0.303-0.314v-0.651h-0.62c-0.246,0-0.424,0.059-0.533,0.178
			c-0.109,0.118-0.164,0.269-0.164,0.451c0,0.14,0.048,0.253,0.144,0.339C92.887,63.466,93.011,63.509,93.163,63.509z"/>
		<path fill="#FFFFFF" d="M96.144,62.056c0-0.769,0.168-1.389,0.503-1.859c0.336-0.472,0.809-0.707,1.42-0.707
			c0.228,0,0.434,0.053,0.617,0.157c0.184,0.105,0.349,0.255,0.495,0.449v-2.693h1.541v7.109H99.37l-0.105-0.602
			c-0.149,0.225-0.323,0.397-0.521,0.518c-0.199,0.12-0.428,0.18-0.686,0.18c-0.607,0-1.079-0.225-1.413-0.675
			c-0.334-0.449-0.501-1.043-0.501-1.781V62.056z M97.684,62.151c0,0.4,0.058,0.713,0.175,0.937c0.117,0.223,0.313,0.335,0.59,0.335
			c0.161,0,0.303-0.03,0.426-0.089c0.123-0.06,0.224-0.146,0.303-0.263V61.08C99.1,60.949,99,60.85,98.878,60.779
			s-0.261-0.104-0.419-0.104c-0.273,0-0.471,0.126-0.592,0.378s-0.182,0.586-0.182,1.003V62.151z"/>
		<path fill="#FFFFFF" d="M104.442,64.507c-0.058-0.103-0.107-0.22-0.148-0.351s-0.072-0.268-0.093-0.41
			c-0.134,0.262-0.299,0.47-0.495,0.627c-0.196,0.156-0.452,0.234-0.768,0.234c-0.517,0-0.918-0.133-1.205-0.398
			c-0.287-0.267-0.431-0.629-0.431-1.087c0-0.489,0.184-0.867,0.551-1.133s0.925-0.398,1.672-0.398h0.634v-0.352
			c0-0.209-0.05-0.37-0.15-0.482c-0.101-0.112-0.254-0.169-0.46-0.169c-0.179,0-0.312,0.042-0.399,0.125
			c-0.086,0.084-0.13,0.214-0.13,0.39l-1.495-0.004l-0.009-0.027c-0.021-0.45,0.167-0.826,0.563-1.128
			c0.396-0.303,0.92-0.454,1.57-0.454c0.611,0,1.105,0.152,1.483,0.456c0.378,0.304,0.567,0.738,0.567,1.304v1.859
			c0,0.261,0.022,0.504,0.066,0.729c0.044,0.226,0.11,0.45,0.198,0.675L104.442,64.507z M103.358,63.509
			c0.188,0,0.354-0.044,0.499-0.132s0.245-0.193,0.303-0.314v-0.651h-0.62c-0.246,0-0.424,0.059-0.533,0.178
			c-0.109,0.118-0.164,0.269-0.164,0.451c0,0.14,0.048,0.253,0.144,0.339C103.082,63.466,103.206,63.509,103.358,63.509z"/>
		<path fill="#FFFFFF" d="M109.114,63.126c0-0.121-0.069-0.229-0.208-0.325c-0.138-0.096-0.39-0.182-0.754-0.258
			c-0.574-0.112-1.007-0.286-1.299-0.521s-0.438-0.561-0.438-0.974c0-0.435,0.182-0.803,0.547-1.104
			c0.364-0.303,0.858-0.454,1.481-0.454c0.656,0,1.179,0.146,1.567,0.44c0.389,0.293,0.574,0.672,0.556,1.137l-0.009,0.027h-1.495
			c0-0.194-0.049-0.342-0.146-0.442c-0.098-0.1-0.257-0.15-0.479-0.15c-0.161,0-0.296,0.044-0.405,0.133
			c-0.109,0.088-0.164,0.2-0.164,0.337c0,0.131,0.063,0.241,0.188,0.333c0.126,0.091,0.381,0.173,0.764,0.246
			c0.604,0.118,1.051,0.295,1.34,0.53c0.288,0.235,0.433,0.569,0.433,1.001c0,0.443-0.196,0.809-0.59,1.096
			s-0.914,0.431-1.561,0.431c-0.672,0-1.203-0.17-1.593-0.511c-0.391-0.34-0.577-0.72-0.558-1.139l0.009-0.027h1.395
			c0.006,0.233,0.077,0.402,0.212,0.506c0.136,0.103,0.327,0.154,0.577,0.154c0.206,0,0.362-0.04,0.469-0.12
			C109.061,63.39,109.114,63.275,109.114,63.126z"/>
		<path fill="#FFFFFF" d="M113.088,58.354v1.227h0.779v1.066h-0.779v2.26c0,0.177,0.035,0.304,0.106,0.381s0.168,0.116,0.29,0.116
			c0.079,0,0.142-0.003,0.188-0.009c0.048-0.007,0.107-0.019,0.181-0.037l0.104,1.14c-0.155,0.039-0.295,0.067-0.419,0.084
			c-0.125,0.017-0.272,0.025-0.442,0.025c-0.508,0-0.893-0.135-1.155-0.405s-0.395-0.699-0.395-1.285v-2.27h-0.688v-1.066h0.688
			v-1.227H113.088z"/>
		<path fill="#FFFFFF" d="M117.34,60.894l-0.502-0.005c-0.176,0-0.32,0.032-0.433,0.098s-0.196,0.157-0.251,0.276v3.249h-1.54
			v-4.931h1.449l0.055,0.725c0.104-0.259,0.24-0.459,0.41-0.602c0.17-0.144,0.369-0.215,0.597-0.215c0.07,0,0.133,0.005,0.188,0.014
			c0.055,0.01,0.112,0.023,0.173,0.041L117.34,60.894z"/>
		<path fill="#FFFFFF" d="M117.608,62.001c0-0.741,0.21-1.346,0.629-1.812c0.419-0.467,1.004-0.7,1.755-0.7
			c0.753,0,1.34,0.233,1.759,0.7c0.419,0.466,0.629,1.07,0.629,1.812v0.096c0,0.744-0.21,1.349-0.629,1.813s-1.003,0.697-1.75,0.697
			c-0.757,0-1.345-0.232-1.764-0.697s-0.629-1.069-0.629-1.813V62.001z M119.148,62.097c0,0.413,0.064,0.737,0.194,0.973
			c0.129,0.235,0.349,0.354,0.658,0.354c0.301,0,0.517-0.119,0.647-0.355c0.13-0.237,0.195-0.561,0.195-0.971v-0.096
			c0-0.401-0.065-0.723-0.195-0.964c-0.131-0.242-0.35-0.362-0.656-0.362c-0.304,0-0.521,0.121-0.649,0.364
			c-0.13,0.243-0.194,0.563-0.194,0.962V62.097z"/>
		<path fill="#FFFFFF" d="M125.63,63.126c0-0.121-0.069-0.229-0.207-0.325c-0.139-0.096-0.39-0.182-0.755-0.258
			c-0.574-0.112-1.007-0.286-1.299-0.521c-0.291-0.235-0.438-0.561-0.438-0.974c0-0.435,0.183-0.803,0.547-1.104
			c0.365-0.303,0.858-0.454,1.481-0.454c0.656,0,1.179,0.146,1.567,0.44c0.39,0.293,0.574,0.672,0.557,1.137l-0.01,0.027h-1.494
			c0-0.194-0.049-0.342-0.146-0.442c-0.097-0.1-0.257-0.15-0.479-0.15c-0.161,0-0.296,0.044-0.405,0.133
			c-0.109,0.088-0.164,0.2-0.164,0.337c0,0.131,0.063,0.241,0.189,0.333c0.126,0.091,0.38,0.173,0.763,0.246
			c0.604,0.118,1.052,0.295,1.34,0.53c0.289,0.235,0.434,0.569,0.434,1.001c0,0.443-0.197,0.809-0.591,1.096
			s-0.913,0.431-1.561,0.431c-0.672,0-1.202-0.17-1.593-0.511c-0.391-0.34-0.576-0.72-0.559-1.139l0.01-0.027h1.395
			c0.006,0.233,0.076,0.402,0.212,0.506c0.135,0.103,0.327,0.154,0.576,0.154c0.207,0,0.363-0.04,0.47-0.12
			C125.577,63.39,125.63,63.275,125.63,63.126z"/>
	</g>
</g>
<g>
	<g>
		<path fill="#FFFFFF" d="M41.738,125.028v2.543h-1.54v-6.636h2.311c0.769,0,1.378,0.178,1.827,0.533
			c0.45,0.355,0.675,0.842,0.675,1.459c0,0.343-0.09,0.638-0.271,0.884c-0.181,0.246-0.447,0.446-0.8,0.602
			c0.407,0.115,0.7,0.308,0.877,0.576c0.178,0.27,0.267,0.604,0.267,1.005v0.42c0,0.173,0.026,0.37,0.078,0.592
			s0.141,0.38,0.269,0.475v0.091h-1.591c-0.122-0.094-0.201-0.26-0.237-0.497c-0.037-0.236-0.055-0.46-0.055-0.67v-0.4
			c0-0.316-0.083-0.558-0.251-0.725c-0.167-0.167-0.412-0.251-0.733-0.251H41.738z M41.738,123.844h0.779
			c0.31,0,0.547-0.071,0.711-0.212c0.164-0.142,0.246-0.345,0.246-0.608c0-0.271-0.084-0.488-0.253-0.654
			c-0.168-0.166-0.406-0.248-0.713-0.248h-0.771V123.844z"/>
		<path fill="#FFFFFF" d="M48.246,127.667c-0.748,0-1.333-0.227-1.757-0.679c-0.424-0.453-0.636-1.025-0.636-1.719v-0.173
			c0-0.754,0.2-1.367,0.599-1.841c0.399-0.475,0.978-0.71,1.734-0.707c0.665,0,1.181,0.199,1.547,0.598
			c0.366,0.397,0.549,0.943,0.549,1.636v0.807h-2.826l-0.009,0.027c0.024,0.258,0.12,0.467,0.287,0.627
			c0.167,0.159,0.407,0.239,0.72,0.239c0.295,0,0.54-0.024,0.736-0.073c0.196-0.049,0.42-0.126,0.672-0.232l0.369,0.938
			c-0.212,0.155-0.498,0.286-0.856,0.393C49.018,127.614,48.641,127.667,48.246,127.667z M48.187,123.734
			c-0.246,0-0.428,0.078-0.545,0.234c-0.117,0.156-0.185,0.368-0.203,0.636l0.009,0.022h1.331v-0.118
			c0-0.255-0.045-0.448-0.134-0.579C48.555,123.8,48.402,123.734,48.187,123.734z"/>
		<path fill="#FFFFFF" d="M53.044,126.482c0.21,0,0.366-0.058,0.47-0.171c0.103-0.114,0.155-0.279,0.155-0.495h1.404l0.009,0.027
			c0.012,0.538-0.174,0.977-0.558,1.315s-0.877,0.508-1.479,0.508c-0.75,0-1.328-0.231-1.734-0.695
			c-0.406-0.463-0.608-1.066-0.608-1.812v-0.104c0-0.741,0.202-1.345,0.606-1.81c0.404-0.465,0.98-0.697,1.728-0.697
			c0.625,0,1.126,0.174,1.501,0.522c0.375,0.348,0.557,0.824,0.544,1.429l-0.009,0.027h-1.404c0-0.234-0.053-0.425-0.16-0.572
			c-0.106-0.147-0.264-0.221-0.474-0.221c-0.298,0-0.505,0.119-0.622,0.357c-0.117,0.238-0.176,0.56-0.176,0.964v0.104
			c0,0.413,0.059,0.737,0.176,0.971C52.53,126.365,52.741,126.482,53.044,126.482z"/>
		<path fill="#FFFFFF" d="M58.682,126.833c-0.146,0.268-0.335,0.474-0.567,0.617c-0.232,0.145-0.5,0.217-0.804,0.217
			c-0.51,0-0.911-0.18-1.201-0.538c-0.291-0.358-0.436-0.913-0.436-1.663v-2.825h1.536v2.834c0,0.386,0.049,0.65,0.148,0.793
			c0.099,0.144,0.251,0.215,0.458,0.215c0.164,0,0.309-0.023,0.433-0.068c0.125-0.046,0.231-0.114,0.319-0.205v-3.568h1.541v4.931
			h-1.24L58.682,126.833z"/>
		<path fill="#FFFFFF" d="M63.682,123.953l-0.501-0.005c-0.176,0-0.321,0.032-0.433,0.098s-0.196,0.157-0.25,0.276v3.249h-1.541
			v-4.931h1.449l0.055,0.725c0.104-0.259,0.24-0.459,0.41-0.602c0.17-0.144,0.369-0.215,0.597-0.215c0.07,0,0.132,0.005,0.187,0.014
			c0.055,0.01,0.113,0.023,0.173,0.041L63.682,123.953z"/>
		<path fill="#FFFFFF" d="M66.817,126.186c0-0.121-0.069-0.229-0.208-0.325s-0.39-0.182-0.754-0.258
			c-0.574-0.112-1.007-0.286-1.299-0.521c-0.292-0.235-0.438-0.561-0.438-0.974c0-0.435,0.182-0.803,0.547-1.104
			c0.364-0.303,0.858-0.454,1.481-0.454c0.656,0,1.179,0.146,1.568,0.44c0.389,0.293,0.574,0.672,0.556,1.137l-0.009,0.027h-1.495
			c0-0.194-0.048-0.342-0.146-0.442c-0.097-0.1-0.257-0.15-0.479-0.15c-0.161,0-0.296,0.044-0.406,0.133
			c-0.109,0.088-0.164,0.2-0.164,0.337c0,0.131,0.063,0.241,0.189,0.333c0.126,0.091,0.381,0.173,0.764,0.246
			c0.604,0.118,1.051,0.295,1.34,0.53s0.433,0.569,0.433,1.001c0,0.443-0.196,0.809-0.59,1.096s-0.914,0.431-1.561,0.431
			c-0.671,0-1.203-0.17-1.593-0.511c-0.391-0.34-0.577-0.72-0.558-1.139l0.009-0.027h1.395c0.006,0.233,0.077,0.402,0.212,0.506
			c0.135,0.103,0.328,0.154,0.577,0.154c0.207,0,0.363-0.04,0.469-0.12C66.764,126.449,66.817,126.335,66.817,126.186z"/>
		<path fill="#FFFFFF" d="M68.818,125.061c0-0.741,0.209-1.346,0.629-1.812c0.419-0.467,1.004-0.7,1.754-0.7
			c0.753,0,1.34,0.233,1.759,0.7c0.419,0.466,0.629,1.07,0.629,1.812v0.096c0,0.744-0.209,1.349-0.629,1.813
			s-1.002,0.697-1.75,0.697c-0.756,0-1.344-0.232-1.764-0.697s-0.629-1.069-0.629-1.813V125.061z M70.358,125.156
			c0,0.413,0.064,0.737,0.193,0.973c0.129,0.235,0.349,0.354,0.659,0.354c0.301,0,0.517-0.119,0.647-0.355
			c0.131-0.237,0.196-0.561,0.196-0.971v-0.096c0-0.401-0.065-0.723-0.196-0.964c-0.13-0.242-0.349-0.362-0.656-0.362
			c-0.304,0-0.52,0.121-0.649,0.364c-0.129,0.243-0.193,0.563-0.193,0.962V125.156z"/>
		<path fill="#FFFFFF" d="M76.839,126.186c0-0.121-0.069-0.229-0.208-0.325s-0.39-0.182-0.754-0.258
			c-0.574-0.112-1.007-0.286-1.299-0.521c-0.292-0.235-0.438-0.561-0.438-0.974c0-0.435,0.182-0.803,0.547-1.104
			c0.364-0.303,0.858-0.454,1.481-0.454c0.656,0,1.179,0.146,1.568,0.44c0.389,0.293,0.574,0.672,0.556,1.137l-0.009,0.027h-1.495
			c0-0.194-0.048-0.342-0.146-0.442c-0.097-0.1-0.257-0.15-0.479-0.15c-0.161,0-0.296,0.044-0.406,0.133
			c-0.109,0.088-0.164,0.2-0.164,0.337c0,0.131,0.063,0.241,0.189,0.333c0.126,0.091,0.381,0.173,0.764,0.246
			c0.604,0.118,1.051,0.295,1.34,0.53s0.433,0.569,0.433,1.001c0,0.443-0.196,0.809-0.59,1.096s-0.914,0.431-1.561,0.431
			c-0.671,0-1.203-0.17-1.593-0.511c-0.391-0.34-0.577-0.72-0.558-1.139l0.009-0.027h1.395c0.006,0.233,0.077,0.402,0.212,0.506
			c0.135,0.103,0.328,0.154,0.577,0.154c0.207,0,0.363-0.04,0.469-0.12C76.786,126.449,76.839,126.335,76.839,126.186z"/>
	</g>
</g>
<g>
	<path fill="#FFFFFF" d="M106.068,98.544h0.837v1.492h-0.837v1.749h-1.926v-1.749h-3.298l-0.114-1.185l3.412-5.344v-0.017h1.926
		V98.544z M102.382,98.544h1.76v-2.581l-0.034-0.006l-0.21,0.428L102.382,98.544z"/>
	<path fill="#FFFFFF" d="M107.902,98.14l0.479-4.648h4.859v1.492h-3.299l-0.211,1.726c0.156-0.109,0.354-0.199,0.596-0.268
		s0.504-0.106,0.789-0.113c0.771-0.016,1.364,0.221,1.78,0.709s0.624,1.18,0.624,2.076c0,0.802-0.232,1.467-0.695,1.997
		c-0.464,0.529-1.192,0.795-2.188,0.795c-0.79,0-1.477-0.208-2.06-0.624s-0.863-0.966-0.84-1.649l0.006-0.034l1.885-0.114
		c0,0.293,0.093,0.522,0.276,0.689c0.185,0.167,0.429,0.251,0.732,0.251c0.356,0,0.605-0.108,0.746-0.325
		c0.141-0.216,0.211-0.541,0.211-0.974c0-0.456-0.082-0.814-0.245-1.077c-0.163-0.262-0.422-0.393-0.774-0.393
		c-0.255,0-0.461,0.055-0.618,0.165c-0.158,0.11-0.267,0.249-0.328,0.416L107.902,98.14z"/>
	<path fill="#FFFFFF" d="M102.108,107.271l0.048,0.57c0.136-0.208,0.306-0.368,0.512-0.48c0.206-0.113,0.442-0.17,0.708-0.17
		c0.269,0,0.5,0.059,0.694,0.176s0.34,0.295,0.438,0.534c0.133-0.226,0.304-0.4,0.513-0.524c0.208-0.124,0.453-0.186,0.731-0.186
		c0.42,0,0.75,0.151,0.991,0.453s0.361,0.766,0.361,1.394v2.548h-1.352v-2.548c0-0.309-0.043-0.521-0.129-0.637
		c-0.086-0.115-0.216-0.173-0.389-0.173c-0.13,0-0.245,0.023-0.345,0.069c-0.1,0.047-0.184,0.111-0.253,0.193
		c0,0.046,0.001,0.085,0.004,0.118c0.002,0.033,0.004,0.065,0.004,0.098v2.879h-1.348v-2.548c0-0.312-0.042-0.524-0.128-0.639
		c-0.085-0.114-0.216-0.171-0.395-0.171c-0.123,0-0.233,0.023-0.333,0.069c-0.1,0.047-0.184,0.111-0.253,0.193v3.095h-1.348v-4.314
		H102.108z"/>
	<path fill="#FFFFFF" d="M109.286,106.27h-1.353v-0.905h1.353V106.27z M109.286,111.585h-1.353v-4.314h1.353V111.585z"/>
	<path fill="#FFFFFF" d="M111.523,111.585h-1.353v-6.221h1.353V111.585z"/>
</g>
<g>
	<g>
		<path fill="#FFFFFF" d="M131.293,124.363v2.274h-1.541v-6.636h2.534c0.787,0,1.411,0.201,1.873,0.602
			c0.462,0.401,0.692,0.929,0.692,1.582s-0.23,1.18-0.692,1.579s-1.086,0.599-1.873,0.599H131.293z M131.293,123.179h0.993
			c0.334,0,0.59-0.092,0.766-0.275c0.176-0.185,0.265-0.42,0.265-0.709c0-0.295-0.088-0.536-0.263-0.725s-0.431-0.282-0.768-0.282
			h-0.993V123.179z"/>
		<path fill="#FFFFFF" d="M138.411,126.633c-0.058-0.103-0.107-0.22-0.148-0.351s-0.072-0.268-0.094-0.41
			c-0.134,0.262-0.298,0.47-0.494,0.627c-0.196,0.156-0.452,0.234-0.768,0.234c-0.517,0-0.919-0.133-1.206-0.398
			c-0.287-0.267-0.431-0.629-0.431-1.087c0-0.489,0.185-0.867,0.552-1.133s0.925-0.398,1.673-0.398h0.633v-0.352
			c0-0.209-0.05-0.37-0.15-0.482c-0.1-0.112-0.253-0.169-0.46-0.169c-0.18,0-0.313,0.042-0.398,0.125
			c-0.087,0.084-0.13,0.214-0.13,0.39l-1.495-0.004l-0.009-0.027c-0.021-0.45,0.166-0.826,0.563-1.128
			c0.396-0.303,0.92-0.454,1.57-0.454c0.61,0,1.104,0.152,1.483,0.456c0.378,0.304,0.567,0.738,0.567,1.304v1.859
			c0,0.261,0.021,0.504,0.065,0.729c0.044,0.226,0.11,0.45,0.198,0.675L138.411,126.633z M137.326,125.635
			c0.188,0,0.354-0.044,0.499-0.132s0.245-0.193,0.303-0.314v-0.651h-0.619c-0.246,0-0.424,0.059-0.533,0.178
			c-0.109,0.118-0.164,0.269-0.164,0.451c0,0.14,0.048,0.253,0.144,0.339C137.051,125.592,137.174,125.635,137.326,125.635z"/>
		<path fill="#FFFFFF" d="M143.237,123.02l-0.502-0.005c-0.176,0-0.32,0.032-0.433,0.098s-0.196,0.157-0.251,0.276v3.249h-1.54
			v-4.931h1.449l0.055,0.725c0.104-0.259,0.24-0.459,0.41-0.602c0.17-0.144,0.369-0.215,0.597-0.215c0.07,0,0.133,0.005,0.188,0.014
			c0.055,0.01,0.112,0.023,0.173,0.041L143.237,123.02z"/>
		<path fill="#FFFFFF" d="M145.648,120.48v1.227h0.779v1.066h-0.779v2.26c0,0.177,0.035,0.304,0.106,0.381s0.168,0.116,0.29,0.116
			c0.079,0,0.142-0.003,0.188-0.009c0.048-0.007,0.107-0.019,0.181-0.037l0.104,1.14c-0.155,0.039-0.295,0.067-0.419,0.084
			c-0.125,0.017-0.272,0.025-0.442,0.025c-0.508,0-0.893-0.135-1.155-0.405s-0.395-0.699-0.395-1.285v-2.27h-0.688v-1.066h0.688
			v-1.227H145.648z"/>
		<path fill="#FFFFFF" d="M148.788,120.563h-1.545v-1.034h1.545V120.563z M148.788,126.638h-1.545v-4.931h1.545V126.638z"/>
		<path fill="#FFFFFF" d="M151.842,125.549c0.209,0,0.366-0.058,0.469-0.171c0.104-0.114,0.155-0.279,0.155-0.495h1.403l0.01,0.027
			c0.012,0.538-0.174,0.977-0.559,1.315s-0.877,0.508-1.479,0.508c-0.751,0-1.329-0.231-1.734-0.695
			c-0.405-0.463-0.608-1.066-0.608-1.812v-0.104c0-0.741,0.202-1.345,0.606-1.81c0.403-0.465,0.979-0.697,1.727-0.697
			c0.626,0,1.127,0.174,1.502,0.522c0.375,0.348,0.557,0.824,0.545,1.429l-0.01,0.027h-1.403c0-0.234-0.053-0.425-0.159-0.572
			s-0.265-0.221-0.475-0.221c-0.298,0-0.505,0.119-0.622,0.357c-0.116,0.238-0.175,0.56-0.175,0.964v0.104
			c0,0.413,0.059,0.737,0.175,0.971C151.327,125.432,151.538,125.549,151.842,125.549z"/>
		<path fill="#FFFFFF" d="M156.121,120.563h-1.545v-1.034h1.545V120.563z M156.121,126.638h-1.545v-4.931h1.545V126.638z"/>
		<path fill="#FFFFFF" d="M161.631,124.277c0,0.741-0.167,1.336-0.501,1.784c-0.335,0.448-0.806,0.672-1.413,0.672
			c-0.237,0-0.447-0.046-0.631-0.137c-0.185-0.091-0.345-0.224-0.481-0.396v2.333h-1.54v-6.826h1.454l0.045,0.537
			c0.137-0.2,0.301-0.355,0.49-0.465s0.408-0.164,0.654-0.164c0.61,0,1.084,0.235,1.419,0.707c0.336,0.471,0.504,1.091,0.504,1.859
			V124.277z M160.095,124.182c0-0.417-0.061-0.751-0.182-1.003c-0.122-0.252-0.316-0.378-0.584-0.378
			c-0.173,0-0.319,0.031-0.439,0.096c-0.12,0.063-0.215,0.156-0.285,0.277v2.061c0.073,0.106,0.17,0.185,0.29,0.236
			s0.268,0.078,0.444,0.078c0.271,0,0.464-0.112,0.581-0.335c0.116-0.224,0.175-0.536,0.175-0.937V124.182z"/>
		<path fill="#FFFFFF" d="M165.158,126.633c-0.058-0.103-0.107-0.22-0.148-0.351s-0.072-0.268-0.094-0.41
			c-0.134,0.262-0.298,0.47-0.494,0.627c-0.196,0.156-0.452,0.234-0.768,0.234c-0.517,0-0.919-0.133-1.206-0.398
			c-0.287-0.267-0.431-0.629-0.431-1.087c0-0.489,0.185-0.867,0.552-1.133s0.925-0.398,1.673-0.398h0.633v-0.352
			c0-0.209-0.05-0.37-0.15-0.482c-0.1-0.112-0.253-0.169-0.46-0.169c-0.18,0-0.313,0.042-0.398,0.125
			c-0.087,0.084-0.13,0.214-0.13,0.39l-1.495-0.004l-0.009-0.027c-0.021-0.45,0.166-0.826,0.563-1.128
			c0.396-0.303,0.92-0.454,1.57-0.454c0.61,0,1.104,0.152,1.483,0.456c0.378,0.304,0.567,0.738,0.567,1.304v1.859
			c0,0.261,0.021,0.504,0.065,0.729c0.044,0.226,0.11,0.45,0.198,0.675L165.158,126.633z M164.073,125.635
			c0.188,0,0.354-0.044,0.499-0.132s0.245-0.193,0.303-0.314v-0.651h-0.619c-0.246,0-0.424,0.059-0.533,0.178
			c-0.109,0.118-0.164,0.269-0.164,0.451c0,0.14,0.048,0.253,0.144,0.339C163.798,125.592,163.921,125.635,164.073,125.635z"/>
		<path fill="#FFFFFF" d="M169.369,125.549c0.209,0,0.366-0.058,0.469-0.171c0.104-0.114,0.155-0.279,0.155-0.495h1.403l0.01,0.027
			c0.012,0.538-0.174,0.977-0.559,1.315s-0.877,0.508-1.479,0.508c-0.751,0-1.329-0.231-1.734-0.695
			c-0.405-0.463-0.608-1.066-0.608-1.812v-0.104c0-0.741,0.202-1.345,0.606-1.81c0.403-0.465,0.979-0.697,1.727-0.697
			c0.626,0,1.127,0.174,1.502,0.522c0.375,0.348,0.557,0.824,0.545,1.429l-0.01,0.027h-1.403c0-0.234-0.053-0.425-0.159-0.572
			s-0.265-0.221-0.475-0.221c-0.298,0-0.505,0.119-0.622,0.357c-0.116,0.238-0.175,0.56-0.175,0.964v0.104
			c0,0.413,0.059,0.737,0.175,0.971C168.854,125.432,169.065,125.549,169.369,125.549z M169.961,126.592l-0.045,0.278
			c0.194,0.033,0.356,0.112,0.487,0.237c0.131,0.124,0.196,0.308,0.196,0.551c0,0.347-0.147,0.622-0.442,0.825
			s-0.716,0.306-1.263,0.306l-0.031-0.848c0.124,0,0.223-0.029,0.294-0.087s0.106-0.146,0.106-0.265
			c0-0.115-0.046-0.196-0.139-0.243c-0.093-0.048-0.25-0.077-0.472-0.089l0.142-0.666H169.961z"/>
		<path fill="#FFFFFF" d="M174.884,126.633c-0.058-0.103-0.107-0.22-0.148-0.351s-0.072-0.268-0.094-0.41
			c-0.134,0.262-0.298,0.47-0.494,0.627c-0.196,0.156-0.452,0.234-0.768,0.234c-0.517,0-0.919-0.133-1.206-0.398
			c-0.287-0.267-0.431-0.629-0.431-1.087c0-0.489,0.185-0.867,0.552-1.133s0.925-0.398,1.673-0.398h0.633v-0.352
			c0-0.209-0.05-0.37-0.15-0.482c-0.1-0.112-0.253-0.169-0.46-0.169c-0.18,0-0.313,0.042-0.398,0.125
			c-0.087,0.084-0.13,0.214-0.13,0.39l-1.495-0.004l-0.009-0.027c-0.021-0.45,0.166-0.826,0.563-1.128
			c0.396-0.303,0.92-0.454,1.57-0.454c0.61,0,1.104,0.152,1.483,0.456c0.378,0.304,0.567,0.738,0.567,1.304v1.859
			c0,0.261,0.021,0.504,0.065,0.729c0.044,0.226,0.11,0.45,0.198,0.675L174.884,126.633z M175.831,119.624
			c0,0.292-0.091,0.542-0.273,0.75c-0.182,0.208-0.41,0.312-0.684,0.312c-0.212,0-0.462-0.063-0.749-0.191
			c-0.287-0.127-0.51-0.191-0.668-0.191c-0.101,0-0.184,0.05-0.251,0.148c-0.066,0.099-0.1,0.217-0.1,0.354l-0.812-0.229
			c0-0.285,0.091-0.533,0.271-0.745c0.181-0.211,0.407-0.316,0.681-0.316c0.171,0,0.41,0.063,0.718,0.189
			c0.309,0.126,0.542,0.188,0.7,0.188c0.094,0,0.177-0.048,0.248-0.146s0.107-0.216,0.107-0.355L175.831,119.624z M173.799,125.635
			c0.188,0,0.354-0.044,0.499-0.132s0.245-0.193,0.303-0.314v-0.651h-0.619c-0.246,0-0.424,0.059-0.533,0.178
			c-0.109,0.118-0.164,0.269-0.164,0.451c0,0.14,0.048,0.253,0.144,0.339C173.523,125.592,173.646,125.635,173.799,125.635z"/>
		<path fill="#FFFFFF" d="M176.779,124.127c0-0.741,0.21-1.346,0.629-1.812c0.419-0.467,1.004-0.7,1.755-0.7
			c0.753,0,1.34,0.233,1.759,0.7c0.419,0.466,0.629,1.07,0.629,1.812v0.096c0,0.744-0.21,1.349-0.629,1.813s-1.003,0.697-1.75,0.697
			c-0.757,0-1.345-0.232-1.764-0.697s-0.629-1.069-0.629-1.813V124.127z M178.319,124.223c0,0.413,0.064,0.737,0.194,0.973
			c0.129,0.235,0.349,0.354,0.658,0.354c0.301,0,0.517-0.119,0.647-0.355c0.13-0.237,0.195-0.561,0.195-0.971v-0.096
			c0-0.401-0.065-0.723-0.195-0.964c-0.131-0.242-0.35-0.362-0.656-0.362c-0.304,0-0.521,0.121-0.649,0.364
			c-0.13,0.243-0.194,0.563-0.194,0.962V124.223z"/>
		<path fill="#FFFFFF" d="M133.175,136.079c0-0.237-0.077-0.419-0.232-0.545s-0.436-0.261-0.843-0.403
			c-0.823-0.268-1.436-0.552-1.835-0.854s-0.599-0.737-0.599-1.306c0-0.556,0.232-1.006,0.697-1.349
			c0.465-0.344,1.056-0.516,1.772-0.516c0.757,0,1.365,0.178,1.827,0.531s0.686,0.853,0.67,1.497l-0.009,0.027h-1.495
			c0-0.313-0.085-0.54-0.255-0.682c-0.17-0.141-0.427-0.212-0.771-0.212c-0.279,0-0.499,0.068-0.66,0.205s-0.242,0.306-0.242,0.506
			c0,0.194,0.083,0.351,0.249,0.468c0.165,0.116,0.475,0.264,0.927,0.439c0.769,0.228,1.351,0.506,1.746,0.834
			c0.395,0.328,0.592,0.777,0.592,1.349c0,0.584-0.228,1.04-0.684,1.37c-0.455,0.329-1.06,0.494-1.813,0.494
			c-0.75,0-1.386-0.177-1.907-0.531c-0.521-0.354-0.774-0.91-0.759-1.67l0.009-0.027h1.5c0,0.386,0.095,0.66,0.284,0.822
			c0.19,0.163,0.481,0.244,0.873,0.244c0.322,0,0.563-0.063,0.72-0.191C133.096,136.452,133.175,136.285,133.175,136.079z"/>
		<path fill="#FFFFFF" d="M135.258,135.327c0-0.741,0.21-1.346,0.629-1.812c0.419-0.467,1.004-0.7,1.755-0.7
			c0.753,0,1.34,0.233,1.759,0.7c0.419,0.466,0.629,1.07,0.629,1.812v0.096c0,0.744-0.21,1.349-0.629,1.813s-1.003,0.697-1.75,0.697
			c-0.757,0-1.345-0.232-1.764-0.697s-0.629-1.069-0.629-1.813V135.327z M136.798,135.423c0,0.413,0.064,0.737,0.194,0.973
			c0.129,0.235,0.349,0.354,0.658,0.354c0.301,0,0.517-0.119,0.647-0.355c0.13-0.237,0.195-0.561,0.195-0.971v-0.096
			c0-0.401-0.065-0.723-0.195-0.964c-0.131-0.242-0.35-0.362-0.656-0.362c-0.304,0-0.521,0.121-0.649,0.364
			c-0.13,0.243-0.194,0.563-0.194,0.962V135.423z"/>
		<path fill="#FFFFFF" d="M142.818,136.749c0.209,0,0.366-0.058,0.469-0.171c0.104-0.114,0.155-0.279,0.155-0.495h1.403l0.01,0.027
			c0.012,0.538-0.174,0.977-0.559,1.315s-0.877,0.508-1.479,0.508c-0.751,0-1.329-0.231-1.734-0.695
			c-0.405-0.463-0.608-1.066-0.608-1.812v-0.104c0-0.741,0.202-1.345,0.606-1.81c0.403-0.465,0.979-0.697,1.727-0.697
			c0.626,0,1.127,0.174,1.502,0.522c0.375,0.348,0.557,0.824,0.545,1.429l-0.01,0.027h-1.403c0-0.234-0.053-0.425-0.159-0.572
			s-0.265-0.221-0.475-0.221c-0.298,0-0.505,0.119-0.622,0.357c-0.116,0.238-0.175,0.56-0.175,0.964v0.104
			c0,0.413,0.059,0.737,0.175,0.971C142.304,136.632,142.515,136.749,142.818,136.749z"/>
		<path fill="#FFFFFF" d="M147.098,131.763h-1.545v-1.034h1.545V131.763z M147.098,137.838h-1.545v-4.931h1.545V137.838z"/>
		<path fill="#FFFFFF" d="M150.89,137.833c-0.058-0.103-0.107-0.22-0.148-0.351s-0.072-0.268-0.094-0.41
			c-0.134,0.262-0.298,0.47-0.494,0.627c-0.196,0.156-0.452,0.234-0.768,0.234c-0.517,0-0.919-0.133-1.206-0.398
			c-0.287-0.267-0.431-0.629-0.431-1.087c0-0.489,0.185-0.867,0.552-1.133s0.925-0.398,1.673-0.398h0.633v-0.352
			c0-0.209-0.05-0.37-0.15-0.482c-0.1-0.112-0.253-0.169-0.46-0.169c-0.18,0-0.313,0.042-0.398,0.125
			c-0.087,0.084-0.13,0.214-0.13,0.39l-1.495-0.004l-0.009-0.027c-0.021-0.45,0.166-0.826,0.563-1.128
			c0.396-0.303,0.92-0.454,1.57-0.454c0.61,0,1.104,0.152,1.483,0.456c0.378,0.304,0.567,0.738,0.567,1.304v1.859
			c0,0.261,0.021,0.504,0.065,0.729c0.044,0.226,0.11,0.45,0.198,0.675L150.89,137.833z M149.805,136.835
			c0.188,0,0.354-0.044,0.499-0.132s0.245-0.193,0.303-0.314v-0.651h-0.619c-0.246,0-0.424,0.059-0.533,0.178
			c-0.109,0.118-0.164,0.269-0.164,0.451c0,0.14,0.048,0.253,0.144,0.339C149.529,136.792,149.652,136.835,149.805,136.835z"/>
		<path fill="#FFFFFF" d="M154.604,137.838h-1.545v-7.109h1.545V137.838z"/>
	</g>
</g>
</svg>
