<?xml version="1.0" encoding="utf-8"?>
<!-- Generator: Adobe Illustrator 14.0.0, SVG Export Plug-In . SVG Version: 6.00 Build 43363)  -->
<!DOCTYPE svg PUBLIC "-//W3C//DTD SVG 1.0//EN" "http://www.w3.org/TR/2001/REC-SVG-20010904/DTD/svg10.dtd">
<svg version="1.0" id="Camada_1" xmlns="http://www.w3.org/2000/svg" xmlns:xlink="http://www.w3.org/1999/xlink" x="0px" y="0px"
	 width="270px" height="195px" viewBox="0 0 270 195" enable-background="new 0 0 270 195" xml:space="preserve">
<line fill="#121312" stroke="#1B171B" x1="87.598" y1="7.213" x2="87.598" y2="188.598"/>
<g>
	<g>
		<path fill="#F6D448" d="M105.952,42.813h-1.657v-6.848h-1.715v-1.27l3.372-0.296V42.813z"/>
		<path fill="#F6D448" d="M108.652,36.113c0-0.49,0.159-0.898,0.476-1.225c0.317-0.326,0.759-0.49,1.325-0.49
			c0.573,0,1.018,0.163,1.333,0.487c0.314,0.325,0.473,0.734,0.473,1.228v0.438c0,0.49-0.158,0.896-0.473,1.219
			c-0.315,0.323-0.756,0.484-1.322,0.484c-0.569,0-1.014-0.162-1.333-0.484c-0.318-0.323-0.479-0.729-0.479-1.219V36.113z
			 M109.758,36.552c0,0.22,0.061,0.406,0.183,0.556c0.121,0.15,0.296,0.225,0.523,0.225c0.221,0,0.391-0.075,0.51-0.225
			c0.12-0.15,0.18-0.335,0.18-0.556v-0.438c0-0.22-0.061-0.407-0.183-0.561c-0.121-0.154-0.294-0.231-0.518-0.231
			c-0.225,0-0.396,0.077-0.516,0.231c-0.12,0.154-0.18,0.341-0.18,0.561V36.552z M110.737,42.191l-0.809-0.427l4.05-6.483
			l0.81,0.427L110.737,42.191z M112.617,40.779c0-0.486,0.16-0.893,0.479-1.219c0.319-0.327,0.762-0.49,1.327-0.49
			c0.57,0,1.014,0.162,1.331,0.487c0.316,0.325,0.476,0.732,0.476,1.222v0.438c0,0.494-0.158,0.902-0.474,1.225
			c-0.314,0.323-0.755,0.484-1.321,0.484c-0.569,0-1.015-0.162-1.336-0.487s-0.481-0.732-0.481-1.222V40.779z M113.723,41.217
			c0,0.217,0.065,0.402,0.196,0.556s0.303,0.23,0.516,0.23c0.247,0,0.424-0.071,0.53-0.213c0.105-0.143,0.159-0.333,0.159-0.573
			v-0.438c0-0.216-0.061-0.402-0.183-0.556c-0.121-0.154-0.294-0.23-0.519-0.23c-0.228,0-0.401,0.077-0.521,0.23
			c-0.12,0.154-0.18,0.339-0.18,0.556V41.217z"/>
	</g>
</g>
<g>
	<g>
		<path fill="#A1C8E7" d="M108.88,67.25c0.395,0,0.688-0.103,0.88-0.308c0.191-0.205,0.287-0.494,0.287-0.866
			c0-0.312-0.101-0.57-0.302-0.775s-0.482-0.308-0.843-0.308c-0.304,0-0.56,0.093-0.767,0.279s-0.311,0.423-0.311,0.712h-1.606
			l-0.011-0.034c-0.023-0.649,0.228-1.185,0.752-1.606c0.523-0.421,1.171-0.632,1.942-0.632c0.858,0,1.54,0.202,2.045,0.607
			c0.505,0.404,0.758,0.984,0.758,1.74c0,0.38-0.109,0.728-0.327,1.045c-0.219,0.317-0.518,0.567-0.897,0.749
			c0.433,0.163,0.767,0.411,1.002,0.743c0.236,0.333,0.354,0.734,0.354,1.205c0,0.76-0.274,1.356-0.823,1.792
			c-0.549,0.435-1.252,0.652-2.11,0.652c-0.756,0-1.417-0.206-1.982-0.616c-0.566-0.41-0.84-0.985-0.82-1.726l0.012-0.034h1.617
			c0,0.312,0.109,0.572,0.328,0.783c0.218,0.211,0.5,0.316,0.846,0.316c0.38,0,0.688-0.112,0.923-0.336
			c0.235-0.225,0.354-0.508,0.354-0.85c0-0.437-0.11-0.76-0.331-0.971c-0.22-0.211-0.543-0.316-0.968-0.316h-0.918V67.25H108.88z"/>
		<path fill="#A1C8E7" d="M112.815,65.427c0-0.49,0.159-0.898,0.476-1.225c0.317-0.326,0.759-0.49,1.325-0.49
			c0.573,0,1.018,0.163,1.333,0.487c0.314,0.325,0.473,0.734,0.473,1.228v0.438c0,0.49-0.158,0.896-0.473,1.219
			c-0.315,0.323-0.756,0.484-1.322,0.484c-0.569,0-1.014-0.162-1.333-0.484c-0.318-0.323-0.479-0.729-0.479-1.219V65.427z
			 M113.921,65.865c0,0.22,0.061,0.406,0.183,0.556c0.121,0.15,0.296,0.225,0.523,0.225c0.221,0,0.391-0.075,0.51-0.225
			c0.12-0.15,0.18-0.335,0.18-0.556v-0.438c0-0.22-0.061-0.407-0.183-0.561c-0.121-0.154-0.294-0.231-0.518-0.231
			c-0.225,0-0.396,0.077-0.516,0.231c-0.12,0.154-0.18,0.341-0.18,0.561V65.865z M114.9,71.505l-0.809-0.427l4.05-6.483l0.81,0.427
			L114.9,71.505z M116.78,70.092c0-0.485,0.16-0.892,0.479-1.219c0.319-0.326,0.762-0.49,1.327-0.49c0.57,0,1.014,0.163,1.331,0.487
			c0.316,0.325,0.476,0.732,0.476,1.222v0.439c0,0.493-0.158,0.901-0.474,1.225c-0.314,0.322-0.755,0.484-1.321,0.484
			c-0.569,0-1.015-0.163-1.336-0.487c-0.321-0.325-0.481-0.732-0.481-1.222V70.092z M117.886,70.531
			c0,0.216,0.065,0.401,0.196,0.555c0.131,0.154,0.303,0.231,0.516,0.231c0.247,0,0.424-0.071,0.53-0.214
			c0.105-0.143,0.159-0.333,0.159-0.572v-0.439c0-0.216-0.061-0.401-0.183-0.555c-0.121-0.154-0.294-0.231-0.519-0.231
			c-0.228,0-0.401,0.077-0.521,0.231c-0.12,0.153-0.18,0.339-0.18,0.555V70.531z"/>
	</g>
</g>
<g>
	<g>
		<g>
			<path fill="#DC9928" d="M119.016,97.527c-0.938,1.098-1.576,2.086-1.914,2.965c-0.339,0.88-0.508,1.887-0.508,3.022v1.025h-1.663
				v-1.025c0-1.154,0.212-2.207,0.635-3.159c0.424-0.951,1.04-1.894,1.849-2.828h-4.232v-1.281h5.834V97.527z"/>
			<path fill="#DC9928" d="M120.012,97.841c0-0.49,0.159-0.898,0.476-1.225c0.317-0.327,0.759-0.49,1.325-0.49
				c0.573,0,1.018,0.162,1.333,0.487c0.314,0.324,0.473,0.733,0.473,1.228v0.438c0,0.49-0.158,0.896-0.473,1.219
				c-0.315,0.323-0.756,0.484-1.322,0.484c-0.569,0-1.014-0.161-1.333-0.484c-0.318-0.322-0.479-0.729-0.479-1.219V97.841z
				 M121.117,98.279c0,0.221,0.061,0.405,0.183,0.556c0.121,0.15,0.296,0.225,0.523,0.225c0.221,0,0.391-0.074,0.51-0.225
				c0.12-0.15,0.18-0.335,0.18-0.556v-0.438c0-0.221-0.061-0.407-0.183-0.562c-0.121-0.153-0.294-0.23-0.518-0.23
				c-0.225,0-0.396,0.077-0.516,0.23c-0.12,0.154-0.18,0.341-0.18,0.562V98.279z M122.097,103.919l-0.809-0.427l4.05-6.483
				l0.81,0.428L122.097,103.919z M123.977,102.506c0-0.485,0.16-0.892,0.479-1.219c0.319-0.326,0.762-0.49,1.327-0.49
				c0.57,0,1.014,0.163,1.331,0.487c0.316,0.325,0.476,0.732,0.476,1.222v0.439c0,0.493-0.158,0.901-0.474,1.225
				c-0.314,0.322-0.755,0.484-1.321,0.484c-0.569,0-1.015-0.163-1.336-0.487c-0.321-0.325-0.481-0.732-0.481-1.222V102.506z
				 M125.082,102.945c0,0.216,0.065,0.401,0.196,0.555c0.131,0.154,0.303,0.231,0.516,0.231c0.247,0,0.424-0.071,0.53-0.214
				c0.105-0.143,0.159-0.333,0.159-0.572v-0.439c0-0.216-0.061-0.401-0.183-0.555c-0.121-0.154-0.294-0.231-0.519-0.231
				c-0.228,0-0.401,0.077-0.521,0.231c-0.12,0.153-0.18,0.339-0.18,0.555V102.945z"/>
		</g>
	</g>
</g>
<g>
	<g>
		<path fill="#D5001E" d="M130.93,131.609h-1.657v-6.848h-1.715v-1.271l3.372-0.296V131.609z"/>
		<path fill="#D5001E" d="M133.59,127.952l0.479-4.637h4.626v1.333h-3.265l-0.228,1.937c0.155-0.114,0.351-0.208,0.587-0.282
			c0.235-0.074,0.491-0.114,0.769-0.122c0.771-0.012,1.368,0.227,1.792,0.715c0.423,0.488,0.635,1.173,0.635,2.054
			c0,0.813-0.229,1.479-0.689,1.999c-0.459,0.521-1.162,0.781-2.107,0.781c-0.764,0-1.417-0.203-1.96-0.607s-0.805-0.96-0.786-1.666
			l0.012-0.028l1.601-0.074c0,0.346,0.104,0.615,0.313,0.809c0.209,0.194,0.482,0.291,0.82,0.291c0.395,0,0.683-0.129,0.863-0.388
			c0.18-0.258,0.271-0.627,0.271-1.105s-0.099-0.858-0.297-1.142c-0.197-0.283-0.489-0.425-0.877-0.425
			c-0.319,0-0.563,0.06-0.732,0.177c-0.169,0.118-0.289,0.277-0.361,0.479L133.59,127.952z"/>
		<path fill="#D5001E" d="M139.74,124.91c0-0.49,0.159-0.898,0.476-1.225c0.317-0.327,0.759-0.49,1.325-0.49
			c0.573,0,1.018,0.162,1.333,0.487c0.314,0.324,0.473,0.733,0.473,1.228v0.438c0,0.49-0.158,0.896-0.473,1.219
			c-0.315,0.323-0.756,0.484-1.322,0.484c-0.569,0-1.014-0.161-1.333-0.484c-0.318-0.322-0.479-0.729-0.479-1.219V124.91z
			 M140.846,125.349c0,0.221,0.061,0.405,0.183,0.556c0.121,0.15,0.296,0.225,0.523,0.225c0.221,0,0.391-0.074,0.51-0.225
			c0.12-0.15,0.18-0.335,0.18-0.556v-0.438c0-0.221-0.061-0.407-0.183-0.562c-0.121-0.153-0.294-0.23-0.518-0.23
			c-0.225,0-0.396,0.077-0.516,0.23c-0.12,0.154-0.18,0.341-0.18,0.562V125.349z M141.825,130.988l-0.809-0.427l4.05-6.483
			l0.81,0.428L141.825,130.988z M143.705,129.575c0-0.485,0.16-0.892,0.479-1.219c0.319-0.326,0.762-0.49,1.327-0.49
			c0.57,0,1.014,0.163,1.331,0.487c0.316,0.325,0.476,0.732,0.476,1.222v0.439c0,0.493-0.158,0.901-0.474,1.225
			c-0.314,0.322-0.755,0.484-1.321,0.484c-0.569,0-1.015-0.163-1.336-0.487c-0.321-0.325-0.481-0.732-0.481-1.222V129.575z
			 M144.811,130.015c0,0.216,0.065,0.401,0.196,0.555c0.131,0.154,0.303,0.231,0.516,0.231c0.247,0,0.424-0.071,0.53-0.214
			c0.105-0.143,0.159-0.333,0.159-0.572v-0.439c0-0.216-0.061-0.401-0.183-0.555c-0.121-0.154-0.294-0.231-0.519-0.231
			c-0.228,0-0.401,0.077-0.521,0.231c-0.12,0.153-0.18,0.339-0.18,0.555V130.015z"/>
	</g>
</g>
<g>
	<g>
		<path fill="#043988" d="M246.424,155.558c-0.938,1.098-1.576,2.086-1.914,2.965c-0.339,0.88-0.508,1.887-0.508,3.022v1.025h-1.663
			v-1.025c0-1.154,0.212-2.207,0.635-3.159c0.424-0.951,1.04-1.894,1.849-2.828h-4.232v-1.281h5.834V155.558z"/>
		<path fill="#043988" d="M252.319,159.482h0.935v1.288h-0.935v1.8h-1.663v-1.8h-3.379l-0.079-0.997l3.44-5.497h1.681V159.482z
			 M248.708,159.482h1.948v-3.014l-0.034-0.005l-0.171,0.37L248.708,159.482z"/>
		<path fill="#043988" d="M254.114,155.871c0-0.49,0.159-0.898,0.476-1.225c0.317-0.327,0.759-0.49,1.325-0.49
			c0.573,0,1.018,0.162,1.333,0.487c0.314,0.324,0.473,0.733,0.473,1.228v0.438c0,0.49-0.158,0.896-0.473,1.219
			c-0.315,0.323-0.756,0.484-1.322,0.484c-0.569,0-1.014-0.161-1.333-0.484c-0.318-0.322-0.479-0.729-0.479-1.219V155.871z
			 M255.22,156.31c0,0.221,0.061,0.405,0.183,0.556c0.121,0.15,0.296,0.225,0.523,0.225c0.221,0,0.391-0.074,0.51-0.225
			c0.12-0.15,0.18-0.335,0.18-0.556v-0.438c0-0.221-0.061-0.407-0.183-0.562c-0.121-0.153-0.294-0.23-0.518-0.23
			c-0.225,0-0.396,0.077-0.516,0.23c-0.12,0.154-0.18,0.341-0.18,0.562V156.31z M256.199,161.949l-0.809-0.427l4.05-6.483
			l0.81,0.428L256.199,161.949z M258.079,160.536c0-0.485,0.16-0.892,0.479-1.219c0.319-0.326,0.762-0.49,1.327-0.49
			c0.57,0,1.014,0.163,1.331,0.487c0.316,0.325,0.476,0.732,0.476,1.222v0.439c0,0.493-0.158,0.901-0.474,1.225
			c-0.314,0.322-0.755,0.484-1.321,0.484c-0.569,0-1.015-0.163-1.336-0.487c-0.321-0.325-0.481-0.732-0.481-1.222V160.536z
			 M259.185,160.976c0,0.216,0.065,0.401,0.196,0.555c0.131,0.154,0.303,0.231,0.516,0.231c0.247,0,0.424-0.071,0.53-0.214
			c0.105-0.143,0.159-0.333,0.159-0.572v-0.439c0-0.216-0.061-0.401-0.183-0.555c-0.121-0.154-0.294-0.231-0.519-0.231
			c-0.228,0-0.401,0.077-0.521,0.231c-0.12,0.153-0.18,0.339-0.18,0.555V160.976z"/>
	</g>
</g>
<rect x="88.985" y="142.986" fill="#043988" width="145.544" height="30.057"/>
<rect x="88.985" y="112.934" fill="#D5001E" width="29.502" height="30.053"/>
<rect x="88.985" y="82.879" fill="#DC9928" width="13.768" height="30.055"/>
<rect x="88.985" y="52.823" fill="#A1C8E7" width="5.899" height="30.056"/>
<rect x="88.985" y="22.768" fill="#F6D448" width="1.968" height="30.056"/>
<g>
	<g>
		<path fill="#4D4D4D" d="M18.392,38.114h-3.156l-0.727,2.082h-0.612l2.643-7.465h0.559l2.623,7.465h-0.613L18.392,38.114z
			 M15.423,37.565h2.776l-1.363-3.958h-0.03L15.423,37.565z"/>
		<path fill="#4D4D4D" d="M22.649,39.785c0.379,0,0.714-0.116,1.005-0.349c0.292-0.232,0.438-0.555,0.438-0.969h0.528l0.01,0.031
			c0.014,0.513-0.181,0.942-0.582,1.287c-0.402,0.345-0.868,0.518-1.398,0.518c-0.711,0-1.266-0.26-1.662-0.78
			c-0.396-0.519-0.595-1.184-0.595-1.994v-0.215c0-0.807,0.197-1.47,0.593-1.989c0.395-0.52,0.948-0.779,1.659-0.779
			c0.573,0,1.051,0.179,1.433,0.538s0.566,0.831,0.553,1.415l-0.01,0.031h-0.528c0-0.444-0.14-0.799-0.42-1.063
			c-0.279-0.265-0.622-0.397-1.027-0.397c-0.56,0-0.977,0.213-1.25,0.641s-0.409,0.962-0.409,1.605v0.215
			c0,0.653,0.136,1.192,0.409,1.618C21.668,39.572,22.087,39.785,22.649,39.785z"/>
		<path fill="#4D4D4D" d="M26.562,33.059h-0.588v-0.861h0.588V33.059z M26.562,40.195h-0.588v-5.547h0.588V40.195z"/>
		<path fill="#4D4D4D" d="M28.7,34.648l0.055,0.913c0.171-0.321,0.399-0.571,0.684-0.749c0.285-0.178,0.623-0.267,1.016-0.267
			c0.408,0,0.749,0.102,1.022,0.305c0.273,0.203,0.469,0.513,0.588,0.93c0.161-0.386,0.391-0.688,0.688-0.907
			s0.658-0.328,1.079-0.328c0.57,0,1.011,0.196,1.321,0.589c0.312,0.393,0.467,1.001,0.467,1.825v3.235h-0.593V36.95
			c0-0.684-0.116-1.166-0.351-1.448c-0.233-0.282-0.557-0.423-0.968-0.423c-0.451,0-0.8,0.143-1.047,0.428
			c-0.247,0.285-0.403,0.653-0.47,1.104c0,0.038,0.001,0.075,0.003,0.113c0.001,0.038,0.002,0.085,0.002,0.144v3.328H31.6V36.95
			c0-0.67-0.117-1.149-0.353-1.438c-0.236-0.289-0.56-0.433-0.971-0.433c-0.415,0-0.745,0.108-0.991,0.326
			c-0.245,0.217-0.417,0.51-0.516,0.879v3.912h-0.593v-5.547H28.7z"/>
		<path fill="#4D4D4D" d="M40.545,40.195c-0.036-0.195-0.063-0.362-0.082-0.502c-0.018-0.14-0.026-0.284-0.026-0.431
			c-0.185,0.301-0.443,0.549-0.775,0.746c-0.333,0.196-0.715,0.295-1.146,0.295c-0.523,0-0.93-0.145-1.218-0.434
			c-0.288-0.289-0.432-0.681-0.432-1.177c0-0.495,0.209-0.897,0.627-1.205s0.962-0.461,1.63-0.461h1.314V36.34
			c0-0.396-0.121-0.708-0.363-0.933s-0.584-0.338-1.025-0.338c-0.404,0-0.731,0.103-0.98,0.308
			c-0.248,0.205-0.373,0.463-0.373,0.774h-0.548l-0.01-0.031c-0.02-0.417,0.152-0.783,0.516-1.1
			c0.364-0.316,0.839-0.474,1.426-0.474c0.586,0,1.057,0.155,1.412,0.466s0.534,0.757,0.534,1.338v2.728
			c0,0.195,0.01,0.384,0.031,0.569s0.058,0.368,0.106,0.549H40.545z M38.579,39.759c0.454,0,0.848-0.112,1.181-0.335
			c0.332-0.224,0.558-0.512,0.677-0.864v-1.061h-1.319c-0.48,0-0.878,0.119-1.19,0.356c-0.313,0.237-0.469,0.524-0.469,0.858
			c0,0.315,0.1,0.568,0.299,0.759C37.956,39.664,38.229,39.759,38.579,39.759z"/>
		<path fill="#4D4D4D" d="M44.827,37.468c0-0.885,0.181-1.594,0.541-2.125c0.361-0.532,0.864-0.797,1.51-0.797
			c0.365,0,0.686,0.08,0.96,0.241c0.275,0.161,0.503,0.388,0.685,0.682v-3.271h0.593v7.998h-0.484l-0.084-0.805
			c-0.181,0.294-0.411,0.52-0.691,0.677c-0.28,0.157-0.609,0.236-0.988,0.236c-0.639,0-1.138-0.247-1.499-0.741
			c-0.36-0.494-0.541-1.156-0.541-1.987V37.468z M45.42,37.575c0,0.67,0.13,1.204,0.388,1.6c0.259,0.397,0.648,0.595,1.169,0.595
			c0.382,0,0.699-0.088,0.953-0.264c0.254-0.176,0.451-0.419,0.593-0.731v-2.63c-0.135-0.314-0.326-0.571-0.573-0.769
			s-0.568-0.297-0.963-0.297c-0.521,0-0.911,0.221-1.173,0.664c-0.263,0.442-0.394,1.018-0.394,1.725V37.575z"/>
		<path fill="#4D4D4D" d="M52.721,40.303c-0.691,0-1.253-0.254-1.685-0.762c-0.432-0.507-0.646-1.159-0.646-1.956v-0.282
			c0-0.8,0.218-1.459,0.654-1.979s0.977-0.779,1.622-0.779c0.649,0,1.15,0.216,1.505,0.648c0.354,0.433,0.53,1.014,0.53,1.746v0.477
			h-3.719v0.169c0,0.633,0.153,1.157,0.462,1.574c0.308,0.417,0.733,0.625,1.276,0.625c0.326,0,0.626-0.056,0.899-0.167
			c0.272-0.111,0.5-0.261,0.682-0.449l0.252,0.42c-0.188,0.205-0.435,0.375-0.739,0.51C53.51,40.235,53.146,40.303,52.721,40.303z
			 M52.666,35.068c-0.454,0-0.828,0.169-1.121,0.507s-0.464,0.768-0.514,1.287l0.015,0.031h3.063v-0.128
			c0-0.492-0.124-0.898-0.373-1.217C53.487,35.228,53.131,35.068,52.666,35.068z"/>
		<path fill="#4D4D4D" d="M60.831,40.195h-0.593v-6.937l-1.704,0.215v-0.492l2.297-0.359V40.195z"/>
		<path fill="#4D4D4D" d="M68.221,37.56c0,0.851-0.198,1.521-0.595,2.01c-0.397,0.489-0.941,0.733-1.633,0.733
			s-1.238-0.246-1.64-0.736c-0.402-0.491-0.603-1.16-0.603-2.007v-2.194c0-0.844,0.199-1.513,0.598-2.005s0.943-0.738,1.635-0.738
			s1.237,0.246,1.638,0.738c0.399,0.492,0.6,1.161,0.6,2.005V37.56z M67.628,35.268c0-0.653-0.143-1.169-0.427-1.551
			c-0.285-0.381-0.691-0.572-1.218-0.572c-0.527,0-0.933,0.191-1.218,0.574s-0.427,0.899-0.427,1.548v2.384
			c0,0.646,0.144,1.163,0.432,1.551c0.288,0.388,0.695,0.582,1.223,0.582c0.523,0,0.927-0.193,1.21-0.58
			c0.283-0.386,0.425-0.904,0.425-1.553V35.268z"/>
		<path fill="#4D4D4D" d="M73.827,37.56c0,0.851-0.198,1.521-0.595,2.01c-0.397,0.489-0.941,0.733-1.633,0.733
			s-1.238-0.246-1.64-0.736c-0.402-0.491-0.603-1.16-0.603-2.007v-2.194c0-0.844,0.199-1.513,0.598-2.005s0.943-0.738,1.635-0.738
			s1.237,0.246,1.638,0.738c0.399,0.492,0.6,1.161,0.6,2.005V37.56z M73.234,35.268c0-0.653-0.143-1.169-0.427-1.551
			c-0.285-0.381-0.691-0.572-1.218-0.572c-0.527,0-0.933,0.191-1.218,0.574s-0.427,0.899-0.427,1.548v2.384
			c0,0.646,0.144,1.163,0.432,1.551c0.288,0.388,0.695,0.582,1.223,0.582c0.523,0,0.927-0.193,1.21-0.58
			c0.283-0.386,0.425-0.904,0.425-1.553V35.268z"/>
	</g>
</g>
<g>
	<g>
		<path fill="#4D4D4D" d="M28.567,71.049v-7.465h2.193c0.879,0,1.605,0.304,2.181,0.913c0.574,0.608,0.861,1.389,0.861,2.343v0.959
			c0,0.954-0.287,1.734-0.861,2.34c-0.575,0.606-1.302,0.91-2.181,0.91H28.567z M29.16,64.107v6.424h1.601
			c0.711,0,1.297-0.258,1.758-0.774c0.461-0.516,0.691-1.169,0.691-1.958v-0.974c0-0.779-0.231-1.427-0.693-1.943
			c-0.463-0.516-1.048-0.774-1.756-0.774H29.16z"/>
		<path fill="#4D4D4D" d="M37.266,71.156c-0.691,0-1.253-0.254-1.685-0.761c-0.432-0.508-0.646-1.16-0.646-1.956v-0.282
			c0-0.8,0.218-1.459,0.654-1.979s0.977-0.779,1.622-0.779c0.649,0,1.15,0.216,1.505,0.648c0.354,0.433,0.53,1.014,0.53,1.746v0.477
			h-3.719v0.17c0,0.632,0.153,1.157,0.462,1.573c0.308,0.418,0.733,0.626,1.276,0.626c0.326,0,0.626-0.056,0.899-0.167
			c0.272-0.11,0.5-0.26,0.682-0.448l0.252,0.42c-0.188,0.205-0.435,0.376-0.739,0.511S37.69,71.156,37.266,71.156z M37.211,65.922
			c-0.454,0-0.828,0.169-1.121,0.507s-0.464,0.768-0.514,1.287l0.015,0.031h3.063v-0.128c0-0.492-0.124-0.898-0.373-1.217
			C38.032,66.082,37.676,65.922,37.211,65.922z"/>
		<path fill="#4D4D4D" d="M47.253,71.049h-4.376v-0.472l2.366-2.866c0.421-0.516,0.713-0.939,0.874-1.269
			c0.161-0.33,0.242-0.656,0.242-0.977c0-0.455-0.118-0.813-0.354-1.074c-0.235-0.262-0.584-0.393-1.045-0.393
			c-0.514,0-0.908,0.158-1.186,0.475c-0.276,0.316-0.414,0.72-0.414,1.212h-0.554l-0.01-0.031c-0.017-0.608,0.173-1.124,0.568-1.546
			c0.395-0.422,0.927-0.633,1.595-0.633c0.616,0,1.102,0.18,1.457,0.539c0.356,0.359,0.534,0.844,0.534,1.456
			c0,0.403-0.117,0.807-0.351,1.21c-0.234,0.403-0.578,0.892-1.032,1.466l-1.946,2.358l0.01,0.026h3.62V71.049z"/>
		<path fill="#4D4D4D" d="M52.766,68.413c0,0.852-0.198,1.521-0.595,2.01c-0.397,0.489-0.941,0.733-1.633,0.733
			s-1.238-0.245-1.64-0.735c-0.402-0.49-0.603-1.159-0.603-2.008v-2.194c0-0.844,0.199-1.513,0.598-2.005s0.943-0.738,1.635-0.738
			s1.237,0.246,1.638,0.738c0.399,0.492,0.6,1.161,0.6,2.005V68.413z M52.173,66.122c0-0.653-0.143-1.169-0.427-1.551
			c-0.285-0.381-0.691-0.572-1.218-0.572c-0.527,0-0.933,0.191-1.218,0.574s-0.427,0.899-0.427,1.548v2.384
			c0,0.646,0.144,1.163,0.432,1.551s0.695,0.582,1.223,0.582c0.523,0,0.927-0.193,1.21-0.579c0.283-0.387,0.425-0.904,0.425-1.554
			V66.122z"/>
		<path fill="#4D4D4D" d="M59.958,71.049c-0.036-0.195-0.063-0.362-0.082-0.503c-0.018-0.14-0.026-0.283-0.026-0.431
			c-0.185,0.302-0.443,0.55-0.775,0.746c-0.333,0.197-0.715,0.295-1.146,0.295c-0.523,0-0.93-0.145-1.218-0.433
			c-0.288-0.289-0.432-0.682-0.432-1.177c0-0.496,0.209-0.897,0.627-1.205s0.962-0.462,1.63-0.462h1.314v-0.687
			c0-0.396-0.121-0.708-0.363-0.933s-0.584-0.338-1.025-0.338c-0.404,0-0.731,0.103-0.98,0.308
			c-0.248,0.205-0.373,0.463-0.373,0.774H56.56l-0.01-0.031c-0.02-0.417,0.152-0.783,0.516-1.1c0.364-0.316,0.839-0.474,1.426-0.474
			c0.586,0,1.057,0.155,1.412,0.466s0.534,0.757,0.534,1.338v2.727c0,0.195,0.01,0.385,0.031,0.569s0.058,0.368,0.106,0.549H59.958z
			 M57.992,70.613c0.454,0,0.848-0.112,1.181-0.336c0.332-0.224,0.558-0.512,0.677-0.864v-1.062H58.53
			c-0.48,0-0.878,0.119-1.19,0.356c-0.313,0.238-0.469,0.524-0.469,0.859c0,0.314,0.1,0.567,0.299,0.759
			S57.643,70.613,57.992,70.613z"/>
		<path fill="#4D4D4D" d="M66.25,70.639c0.527,0,0.946-0.181,1.26-0.544c0.313-0.361,0.469-0.867,0.469-1.518v-1.086
			c-0.174,0.304-0.407,0.539-0.698,0.703c-0.292,0.164-0.613,0.246-0.966,0.246c-0.652,0-1.175-0.225-1.568-0.674
			s-0.591-1.035-0.591-1.756c0-0.728,0.206-1.332,0.618-1.812c0.411-0.48,0.927-0.721,1.546-0.721c0.678,0,1.227,0.231,1.645,0.692
			s0.628,1.118,0.628,1.969v2.43c0,0.81-0.217,1.444-0.65,1.902c-0.433,0.458-0.996,0.687-1.691,0.687
			c-0.247,0-0.496-0.027-0.748-0.082s-0.497-0.135-0.733-0.241l0.108-0.497c0.217,0.109,0.431,0.188,0.64,0.233
			S65.97,70.639,66.25,70.639z M66.314,67.921c0.418,0,0.771-0.109,1.057-0.328c0.287-0.219,0.489-0.489,0.607-0.81V66.07
			c0-0.663-0.147-1.174-0.444-1.533c-0.296-0.359-0.693-0.539-1.19-0.539c-0.464,0-0.843,0.193-1.136,0.58s-0.439,0.863-0.439,1.43
			c0,0.547,0.137,1.002,0.412,1.367C65.456,67.739,65.833,67.921,66.314,67.921z"/>
		<path fill="#4D4D4D" d="M71.856,70.639c0.527,0,0.946-0.181,1.26-0.544c0.313-0.361,0.469-0.867,0.469-1.518v-1.086
			c-0.174,0.304-0.407,0.539-0.698,0.703c-0.292,0.164-0.613,0.246-0.966,0.246c-0.652,0-1.175-0.225-1.568-0.674
			s-0.591-1.035-0.591-1.756c0-0.728,0.206-1.332,0.618-1.812c0.411-0.48,0.927-0.721,1.546-0.721c0.678,0,1.227,0.231,1.645,0.692
			s0.628,1.118,0.628,1.969v2.43c0,0.81-0.217,1.444-0.65,1.902c-0.433,0.458-0.996,0.687-1.691,0.687
			c-0.247,0-0.496-0.027-0.748-0.082s-0.497-0.135-0.733-0.241l0.108-0.497c0.217,0.109,0.431,0.188,0.64,0.233
			S71.576,70.639,71.856,70.639z M71.921,67.921c0.418,0,0.771-0.109,1.057-0.328c0.287-0.219,0.489-0.489,0.607-0.81V66.07
			c0-0.663-0.147-1.174-0.444-1.533c-0.296-0.359-0.693-0.539-1.19-0.539c-0.464,0-0.843,0.193-1.136,0.58s-0.439,0.863-0.439,1.43
			c0,0.547,0.137,1.002,0.412,1.367C71.063,67.739,71.439,67.921,71.921,67.921z"/>
	</g>
</g>
<g>
	<g>
		<path fill="#4D4D4D" d="M34.388,101.902v-7.465h2.193c0.879,0,1.605,0.304,2.181,0.912c0.574,0.608,0.861,1.39,0.861,2.344v0.958
			c0,0.954-0.287,1.734-0.861,2.341c-0.575,0.606-1.302,0.91-2.181,0.91H34.388z M34.98,94.96v6.425h1.601
			c0.711,0,1.297-0.258,1.758-0.774c0.461-0.516,0.691-1.169,0.691-1.959v-0.974c0-0.779-0.231-1.427-0.693-1.943
			c-0.463-0.516-1.048-0.774-1.756-0.774H34.98z"/>
		<path fill="#4D4D4D" d="M43.086,102.01c-0.691,0-1.253-0.254-1.685-0.761c-0.432-0.508-0.646-1.16-0.646-1.956v-0.282
			c0-0.8,0.218-1.46,0.654-1.979s0.977-0.779,1.622-0.779c0.649,0,1.15,0.217,1.505,0.649c0.354,0.432,0.53,1.014,0.53,1.745v0.477
			h-3.719v0.17c0,0.632,0.153,1.157,0.462,1.573c0.308,0.418,0.733,0.626,1.276,0.626c0.326,0,0.626-0.056,0.899-0.167
			c0.272-0.11,0.5-0.26,0.682-0.448l0.252,0.42c-0.188,0.205-0.435,0.376-0.739,0.511S43.511,102.01,43.086,102.01z M43.031,96.775
			c-0.454,0-0.828,0.169-1.121,0.508c-0.293,0.338-0.464,0.767-0.514,1.286l0.015,0.031h3.063v-0.128
			c0-0.492-0.124-0.898-0.373-1.218C43.853,96.936,43.496,96.775,43.031,96.775z"/>
		<path fill="#4D4D4D" d="M48.865,98.544l0.395-4.106h3.498v0.569h-2.989l-0.267,2.687c0.182-0.168,0.382-0.3,0.601-0.396
			s0.513-0.148,0.882-0.158c0.615-0.011,1.11,0.199,1.484,0.63c0.373,0.431,0.561,1.016,0.561,1.754c0,0.756-0.183,1.358-0.549,1.81
			c-0.365,0.451-0.913,0.677-1.645,0.677c-0.593,0-1.087-0.172-1.481-0.515c-0.396-0.344-0.585-0.853-0.568-1.525l0.01-0.031h0.533
			c0,0.503,0.137,0.887,0.41,1.153s0.639,0.4,1.097,0.4c0.537,0,0.938-0.167,1.203-0.503c0.265-0.334,0.397-0.82,0.397-1.456
			c0-0.557-0.133-0.999-0.397-1.327c-0.266-0.328-0.639-0.492-1.119-0.492c-0.458,0-0.808,0.076-1.05,0.228
			c-0.242,0.152-0.417,0.382-0.526,0.689L48.865,98.544z"/>
		<path fill="#4D4D4D" d="M60.172,101.902c-0.036-0.195-0.063-0.362-0.082-0.503c-0.018-0.14-0.026-0.283-0.026-0.431
			c-0.185,0.302-0.443,0.55-0.775,0.746c-0.333,0.197-0.715,0.295-1.146,0.295c-0.523,0-0.93-0.145-1.218-0.433
			c-0.288-0.289-0.432-0.682-0.432-1.177c0-0.496,0.209-0.897,0.627-1.205s0.962-0.462,1.63-0.462h1.314v-0.687
			c0-0.396-0.121-0.708-0.363-0.934s-0.584-0.338-1.025-0.338c-0.404,0-0.731,0.103-0.98,0.308
			c-0.248,0.205-0.373,0.463-0.373,0.774h-0.548l-0.01-0.031c-0.02-0.417,0.152-0.783,0.516-1.1
			c0.364-0.316,0.839-0.475,1.426-0.475c0.586,0,1.057,0.156,1.412,0.467c0.355,0.312,0.534,0.757,0.534,1.338v2.728
			c0,0.195,0.01,0.385,0.031,0.569s0.058,0.368,0.106,0.549H60.172z M58.206,101.467c0.454,0,0.848-0.112,1.181-0.336
			c0.332-0.224,0.558-0.512,0.677-0.864v-1.062h-1.319c-0.48,0-0.878,0.119-1.19,0.356c-0.313,0.238-0.469,0.524-0.469,0.859
			c0,0.314,0.1,0.567,0.299,0.759S57.856,101.467,58.206,101.467z"/>
		<path fill="#4D4D4D" d="M67.161,101.902h-0.593v-6.937l-1.704,0.215v-0.492l2.297-0.358V101.902z"/>
		<path fill="#4D4D4D" d="M72.07,101.492c0.527,0,0.946-0.181,1.26-0.544c0.313-0.361,0.469-0.867,0.469-1.518v-1.087
			c-0.174,0.305-0.407,0.539-0.698,0.703c-0.292,0.164-0.613,0.246-0.966,0.246c-0.652,0-1.175-0.225-1.568-0.675
			c-0.394-0.449-0.591-1.034-0.591-1.756c0-0.728,0.206-1.332,0.618-1.813c0.411-0.479,0.927-0.72,1.546-0.72
			c0.678,0,1.227,0.23,1.645,0.691c0.418,0.462,0.628,1.118,0.628,1.969v2.431c0,0.81-0.217,1.444-0.65,1.902
			c-0.433,0.458-0.996,0.687-1.691,0.687c-0.247,0-0.496-0.027-0.748-0.082s-0.497-0.135-0.733-0.241l0.108-0.497
			c0.217,0.109,0.431,0.188,0.64,0.233S71.79,101.492,72.07,101.492z M72.135,98.774c0.418,0,0.771-0.109,1.057-0.328
			c0.287-0.218,0.489-0.488,0.607-0.81v-0.713c0-0.663-0.147-1.174-0.444-1.533c-0.296-0.358-0.693-0.538-1.19-0.538
			c-0.464,0-0.843,0.193-1.136,0.579c-0.293,0.387-0.439,0.863-0.439,1.431c0,0.547,0.137,1.003,0.412,1.366
			C71.276,98.593,71.653,98.774,72.135,98.774z"/>
	</g>
</g>
<g>
	<g>
		<path fill="#4D4D4D" d="M57.875,130.675h-3.156l-0.727,2.082H53.38l2.643-7.465h0.559l2.623,7.465h-0.613L57.875,130.675z
			 M54.906,130.127h2.776l-1.363-3.958h-0.03L54.906,130.127z"/>
		<path fill="#4D4D4D" d="M61.017,125.789v1.42h1.176v0.503h-1.176v3.614c0,0.362,0.063,0.62,0.19,0.771
			c0.127,0.152,0.295,0.229,0.506,0.229c0.072,0,0.143-0.004,0.21-0.013s0.147-0.023,0.239-0.044l0.09,0.456
			c-0.079,0.042-0.178,0.075-0.294,0.101c-0.117,0.025-0.233,0.038-0.349,0.038c-0.375,0-0.668-0.123-0.877-0.369
			s-0.313-0.636-0.313-1.169v-3.614h-0.924v-0.503h0.924v-1.42H61.017z"/>
		<path fill="#4D4D4D" d="M65.378,132.864c-0.691,0-1.253-0.254-1.685-0.761c-0.432-0.508-0.646-1.16-0.646-1.956v-0.282
			c0-0.8,0.218-1.46,0.654-1.979s0.977-0.779,1.622-0.779c0.649,0,1.15,0.217,1.505,0.649c0.354,0.432,0.53,1.014,0.53,1.745v0.477
			H63.64v0.17c0,0.632,0.153,1.157,0.462,1.573c0.308,0.418,0.733,0.626,1.276,0.626c0.326,0,0.626-0.056,0.899-0.167
			c0.272-0.11,0.5-0.26,0.682-0.448l0.252,0.42c-0.188,0.205-0.435,0.376-0.739,0.511S65.803,132.864,65.378,132.864z
			 M65.323,127.63c-0.454,0-0.828,0.169-1.121,0.508c-0.293,0.338-0.464,0.767-0.514,1.286l0.015,0.031h3.063v-0.128
			c0-0.492-0.124-0.898-0.373-1.218C66.145,127.79,65.788,127.63,65.323,127.63z M65.951,124.851h0.726l0.015,0.031l-1.229,1.333
			h-0.528L65.951,124.851z"/>
		<path fill="#4D4D4D" d="M74.481,130.353h1.126v0.518h-1.126v1.887h-0.588v-1.887h-3.305v-0.349l3.245-5.229h0.647V130.353z
			 M71.29,130.353h2.604v-4.256l-0.029-0.01l-0.252,0.559L71.29,130.353z"/>
	</g>
</g>
<g>
	<g>
		<path fill="#4D4D4D" d="M75.918,160.975c0,0.852-0.198,1.521-0.595,2.01c-0.397,0.489-0.941,0.733-1.633,0.733
			s-1.238-0.245-1.64-0.735c-0.402-0.49-0.603-1.159-0.603-2.008v-2.194c0-0.844,0.199-1.512,0.598-2.004s0.943-0.738,1.635-0.738
			s1.237,0.246,1.638,0.738c0.399,0.492,0.6,1.16,0.6,2.004V160.975z M75.325,158.684c0-0.653-0.143-1.17-0.427-1.551
			c-0.285-0.382-0.691-0.572-1.218-0.572c-0.527,0-0.933,0.191-1.218,0.574s-0.427,0.899-0.427,1.549v2.384
			c0,0.646,0.144,1.163,0.432,1.551s0.695,0.582,1.223,0.582c0.523,0,0.927-0.193,1.21-0.579c0.283-0.387,0.425-0.904,0.425-1.554
			V158.684z"/>
	</g>
</g>
</svg>
