<?xml version="1.0" encoding="utf-8"?>
<!-- Generator: Adobe Illustrator 14.0.0, SVG Export Plug-In . SVG Version: 6.00 Build 43363)  -->
<!DOCTYPE svg PUBLIC "-//W3C//DTD SVG 1.0//EN" "http://www.w3.org/TR/2001/REC-SVG-20010904/DTD/svg10.dtd">
<svg version="1.0" id="Camada_1" xmlns="http://www.w3.org/2000/svg" xmlns:xlink="http://www.w3.org/1999/xlink" x="0px" y="0px"
	 width="205px" height="215.5px" viewBox="0 0 205 215.5" enable-background="new 0 0 205 215.5" xml:space="preserve">
<g>
	<g>
		<path fill="#4D4D4D" d="M28.734,12.396v4.958c0,0.82-0.242,1.461-0.726,1.922c-0.484,0.462-1.106,0.692-1.867,0.692
			c-0.751,0-1.364-0.231-1.84-0.694c-0.477-0.463-0.714-1.104-0.714-1.92v-4.958h0.593v4.958c0,0.643,0.184,1.152,0.551,1.53
			s0.837,0.566,1.41,0.566c0.586,0,1.066-0.188,1.442-0.564c0.375-0.375,0.563-0.887,0.563-1.532v-4.958H28.734z"/>
		<path fill="#4D4D4D" d="M31.062,16.76v3.102h-0.593v-7.465h2.479c0.754,0,1.338,0.2,1.751,0.6c0.413,0.4,0.62,0.927,0.62,1.579
			c0,0.663-0.207,1.193-0.62,1.59s-0.997,0.595-1.751,0.595H31.062z M31.062,16.236h1.887c0.593,0,1.037-0.156,1.334-0.469
			c0.296-0.313,0.444-0.707,0.444-1.182c0-0.479-0.148-0.876-0.444-1.192c-0.297-0.316-0.741-0.475-1.334-0.475h-1.887V16.236z"/>
		<path fill="#4D4D4D" d="M40.604,16.364H37.3v3.497h-0.593v-7.465h4.4v0.522H37.3v2.918h3.305V16.364z"/>
		<path fill="#4D4D4D" d="M45.341,18.441c0-0.26-0.104-0.486-0.309-0.68c-0.206-0.193-0.577-0.352-1.114-0.475
			c-0.632-0.136-1.103-0.323-1.41-0.561c-0.308-0.238-0.462-0.57-0.462-0.998c0-0.424,0.172-0.782,0.517-1.076
			c0.344-0.294,0.799-0.441,1.365-0.441c0.596,0,1.072,0.157,1.428,0.47s0.525,0.698,0.509,1.156l-0.01,0.03h-0.549
			c0-0.304-0.126-0.569-0.378-0.795s-0.585-0.338-1-0.338c-0.428,0-0.751,0.098-0.968,0.292c-0.218,0.195-0.326,0.422-0.326,0.682
			c0,0.253,0.093,0.463,0.279,0.629c0.186,0.165,0.557,0.312,1.113,0.438c0.626,0.144,1.1,0.344,1.421,0.601
			c0.32,0.256,0.481,0.602,0.481,1.035c0,0.462-0.181,0.837-0.541,1.126c-0.36,0.288-0.838,0.433-1.43,0.433
			c-0.649,0-1.159-0.16-1.529-0.481s-0.546-0.704-0.526-1.148l0.01-0.031h0.544c0.022,0.4,0.181,0.69,0.472,0.872
			c0.291,0.181,0.635,0.271,1.03,0.271c0.428,0,0.766-0.099,1.012-0.298C45.217,18.956,45.341,18.718,45.341,18.441z"/>
	</g>
	<g>
		<g>
			<polygon fill="#274391" points="29.192,52.435 13.032,74.552 22.397,72.797 27.54,79.467 37.322,54.909 			"/>
			<polygon fill="#274391" points="40.369,52.435 56.525,74.552 47.164,72.797 42.021,79.467 32.238,54.909 			"/>
			<g>
				<g>
					<path fill="#FFFFFF" stroke="#DD9A28" stroke-width="2" d="M52.899,47.176c-0.41,9.791-8.675,17.395-18.466,16.982
						c-9.79-0.405-17.396-8.675-16.983-18.462c0.405-9.791,8.675-17.396,18.464-16.989C45.706,29.128,53.308,37.391,52.899,47.176z"
						/>
				</g>
			</g>
		</g>
		<g>
			<g>
				<path fill="#043988" d="M32.563,47.504h0.935v1.288h-0.935v1.8h-1.663v-1.8h-3.379l-0.079-0.997l3.44-5.497h1.681V47.504z
					 M28.951,47.504h1.948V44.49l-0.034-0.005l-0.171,0.37L28.951,47.504z"/>
				<path fill="#043988" d="M34.356,43.893c0-0.49,0.159-0.898,0.476-1.225c0.317-0.327,0.759-0.49,1.325-0.49
					c0.573,0,1.018,0.162,1.333,0.487c0.314,0.324,0.473,0.733,0.473,1.228v0.438c0,0.49-0.158,0.896-0.473,1.219
					c-0.315,0.323-0.756,0.484-1.322,0.484c-0.569,0-1.014-0.161-1.333-0.484c-0.318-0.322-0.479-0.729-0.479-1.219V43.893z
					 M35.462,44.331c0,0.221,0.061,0.405,0.183,0.556c0.121,0.15,0.296,0.225,0.523,0.225c0.221,0,0.391-0.074,0.51-0.225
					c0.12-0.15,0.18-0.335,0.18-0.556v-0.438c0-0.221-0.061-0.407-0.183-0.562c-0.121-0.153-0.294-0.23-0.518-0.23
					c-0.225,0-0.396,0.077-0.516,0.23c-0.12,0.154-0.18,0.341-0.18,0.562V44.331z M36.441,49.971l-0.809-0.427l4.05-6.483
					l0.81,0.428L36.441,49.971z M38.321,48.558c0-0.485,0.16-0.892,0.479-1.219c0.319-0.326,0.762-0.49,1.327-0.49
					c0.57,0,1.014,0.163,1.331,0.487c0.316,0.325,0.476,0.732,0.476,1.222v0.439c0,0.493-0.158,0.901-0.474,1.225
					c-0.314,0.322-0.755,0.484-1.321,0.484c-0.569,0-1.015-0.163-1.336-0.487c-0.321-0.325-0.481-0.732-0.481-1.222V48.558z
					 M39.427,48.997c0,0.216,0.065,0.401,0.196,0.555c0.131,0.154,0.303,0.231,0.516,0.231c0.247,0,0.424-0.071,0.53-0.214
					c0.105-0.143,0.159-0.333,0.159-0.572v-0.439c0-0.216-0.061-0.401-0.183-0.555c-0.121-0.154-0.294-0.231-0.519-0.231
					c-0.228,0-0.401,0.077-0.521,0.231c-0.12,0.153-0.18,0.339-0.18,0.555V48.997z"/>
			</g>
		</g>
	</g>
</g>
<g>
	<g>
		<path fill="#4D4D4D" d="M97.266,16.739c0,0.964-0.255,1.743-0.764,2.338s-1.191,0.892-2.047,0.892
			c-0.844,0-1.516-0.297-2.018-0.892c-0.503-0.595-0.754-1.374-0.754-2.338v-1.216c0-0.96,0.25-1.739,0.751-2.338
			c0.501-0.598,1.172-0.896,2.016-0.896c0.855,0,1.539,0.299,2.05,0.896c0.51,0.599,0.766,1.378,0.766,2.338V16.739z M96.678,15.514
			c0-0.807-0.197-1.456-0.591-1.948s-0.938-0.738-1.637-0.738c-0.686,0-1.219,0.246-1.601,0.738s-0.573,1.142-0.573,1.948v1.226
			c0,0.813,0.192,1.466,0.575,1.958c0.384,0.492,0.918,0.738,1.604,0.738c0.701,0,1.247-0.245,1.637-0.735
			c0.391-0.49,0.586-1.145,0.586-1.961V15.514z"/>
		<path fill="#4D4D4D" d="M102.852,18.046c0-0.382-0.146-0.698-0.439-0.948c-0.293-0.249-0.79-0.483-1.491-0.702
			c-0.768-0.219-1.352-0.491-1.751-0.817c-0.4-0.327-0.601-0.771-0.601-1.331c0-0.57,0.224-1.04,0.672-1.407s1.02-0.551,1.714-0.551
			c0.731,0,1.319,0.207,1.764,0.623c0.444,0.415,0.66,0.942,0.646,1.581l-0.01,0.031h-0.553c0-0.492-0.172-0.901-0.517-1.226
			c-0.344-0.325-0.787-0.487-1.331-0.487c-0.56,0-0.998,0.138-1.316,0.413c-0.317,0.275-0.477,0.612-0.477,1.013
			c0,0.379,0.145,0.691,0.433,0.936s0.796,0.473,1.523,0.685c0.758,0.229,1.335,0.511,1.733,0.846s0.598,0.779,0.598,1.333
			c0,0.581-0.232,1.049-0.698,1.402s-1.053,0.53-1.761,0.53s-1.326-0.187-1.853-0.562c-0.527-0.374-0.782-0.92-0.766-1.638
			l0.01-0.031h0.548c0,0.578,0.209,1.008,0.628,1.29c0.418,0.282,0.896,0.423,1.433,0.423c0.55,0,0.997-0.131,1.343-0.393
			C102.679,18.798,102.852,18.46,102.852,18.046z"/>
		<path fill="#4D4D4D" d="M109.856,17.528l0.01,0.031c0.014,0.731-0.217,1.315-0.691,1.753s-1.097,0.656-1.867,0.656
			c-0.8,0-1.445-0.3-1.937-0.899c-0.49-0.6-0.735-1.377-0.735-2.33v-1.216c0-0.95,0.245-1.727,0.735-2.33
			c0.491-0.603,1.137-0.904,1.937-0.904c0.78,0,1.405,0.213,1.875,0.641c0.469,0.427,0.697,1.015,0.684,1.764l-0.01,0.03h-0.554
			c0-0.602-0.177-1.07-0.53-1.407c-0.354-0.336-0.843-0.505-1.465-0.505c-0.629,0-1.134,0.253-1.514,0.759
			c-0.381,0.506-0.57,1.153-0.57,1.943v1.226c0,0.8,0.189,1.451,0.57,1.956c0.38,0.504,0.885,0.756,1.514,0.756
			c0.622,0,1.11-0.164,1.465-0.492c0.354-0.328,0.53-0.805,0.53-1.431H109.856z"/>
		<path fill="#4D4D4D" d="M112.134,19.861h-0.593v-7.465h0.593V19.861z"/>
		<path fill="#4D4D4D" d="M114.717,16.76v3.102h-0.593v-7.465h2.479c0.754,0,1.338,0.2,1.751,0.6c0.413,0.4,0.62,0.927,0.62,1.579
			c0,0.663-0.207,1.193-0.62,1.59s-0.997,0.595-1.751,0.595H114.717z M114.717,16.236h1.887c0.593,0,1.037-0.156,1.334-0.469
			c0.296-0.313,0.444-0.707,0.444-1.182c0-0.479-0.148-0.876-0.444-1.192c-0.297-0.316-0.741-0.475-1.334-0.475h-1.887V16.236z"/>
		<path fill="#4D4D4D" d="M123.425,18.441c0-0.26-0.104-0.486-0.309-0.68c-0.206-0.193-0.577-0.352-1.114-0.475
			c-0.632-0.136-1.103-0.323-1.41-0.561c-0.308-0.238-0.462-0.57-0.462-0.998c0-0.424,0.172-0.782,0.517-1.076
			c0.344-0.294,0.799-0.441,1.365-0.441c0.596,0,1.072,0.157,1.428,0.47s0.525,0.698,0.509,1.156l-0.01,0.03h-0.549
			c0-0.304-0.126-0.569-0.378-0.795s-0.585-0.338-1-0.338c-0.428,0-0.751,0.098-0.968,0.292c-0.218,0.195-0.326,0.422-0.326,0.682
			c0,0.253,0.093,0.463,0.279,0.629c0.186,0.165,0.557,0.312,1.113,0.438c0.626,0.144,1.1,0.344,1.421,0.601
			c0.32,0.256,0.481,0.602,0.481,1.035c0,0.462-0.181,0.837-0.541,1.126c-0.36,0.288-0.838,0.433-1.43,0.433
			c-0.649,0-1.159-0.16-1.529-0.481s-0.546-0.704-0.526-1.148l0.01-0.031h0.544c0.022,0.4,0.181,0.69,0.472,0.872
			c0.291,0.181,0.635,0.271,1.03,0.271c0.428,0,0.766-0.099,1.012-0.298C123.301,18.956,123.425,18.718,123.425,18.441z"/>
	</g>
	<g>
		<g>
			<polygon fill="#F6D448" points="102.244,52.435 86.086,74.552 95.449,72.797 100.592,79.467 110.377,54.909 			"/>
			<polygon fill="#F6D448" points="113.421,52.435 129.577,74.552 120.219,72.797 115.075,79.467 105.291,54.909 			"/>
			<g>
				<g>
					<path fill="#FFFFFF" stroke="#DD9A28" stroke-width="2" d="M125.951,47.176c-0.41,9.791-8.675,17.395-18.466,16.982
						c-9.789-0.405-17.394-8.675-16.983-18.462c0.408-9.791,8.676-17.396,18.465-16.989
						C118.758,29.128,126.361,37.391,125.951,47.176z"/>
				</g>
			</g>
		</g>
		<g>
			<g>
				<path fill="#F6D448" d="M106.407,50.592h-5.565v-1.088l2.568-2.905c0.384-0.452,0.656-0.835,0.817-1.148
					c0.162-0.313,0.242-0.601,0.242-0.862c0-0.342-0.085-0.615-0.256-0.82s-0.428-0.308-0.77-0.308c-0.36,0-0.64,0.131-0.837,0.393
					s-0.296,0.595-0.296,0.997h-1.618l-0.012-0.034c-0.019-0.737,0.225-1.36,0.729-1.871s1.183-0.767,2.033-0.767
					s1.512,0.218,1.982,0.652c0.472,0.435,0.707,1.019,0.707,1.752c0,0.497-0.132,0.951-0.396,1.361
					c-0.264,0.41-0.719,0.978-1.364,1.703l-1.367,1.641l0.012,0.028h3.39V50.592z"/>
				<path fill="#F6D448" d="M107.409,43.893c0-0.49,0.159-0.898,0.476-1.225c0.317-0.327,0.759-0.49,1.325-0.49
					c0.573,0,1.018,0.162,1.333,0.487c0.314,0.324,0.473,0.733,0.473,1.228v0.438c0,0.49-0.158,0.896-0.473,1.219
					c-0.315,0.323-0.756,0.484-1.322,0.484c-0.569,0-1.014-0.161-1.333-0.484c-0.318-0.322-0.479-0.729-0.479-1.219V43.893z
					 M108.515,44.331c0,0.221,0.061,0.405,0.183,0.556c0.121,0.15,0.296,0.225,0.523,0.225c0.221,0,0.391-0.074,0.51-0.225
					c0.12-0.15,0.18-0.335,0.18-0.556v-0.438c0-0.221-0.061-0.407-0.183-0.562c-0.121-0.153-0.294-0.23-0.518-0.23
					c-0.225,0-0.396,0.077-0.516,0.23c-0.12,0.154-0.18,0.341-0.18,0.562V44.331z M109.494,49.971l-0.809-0.427l4.05-6.483
					l0.81,0.428L109.494,49.971z M111.374,48.558c0-0.485,0.16-0.892,0.479-1.219c0.319-0.326,0.762-0.49,1.327-0.49
					c0.57,0,1.014,0.163,1.331,0.487c0.316,0.325,0.476,0.732,0.476,1.222v0.439c0,0.493-0.158,0.901-0.474,1.225
					c-0.314,0.322-0.755,0.484-1.321,0.484c-0.569,0-1.015-0.163-1.336-0.487c-0.321-0.325-0.481-0.732-0.481-1.222V48.558z
					 M112.479,48.997c0,0.216,0.065,0.401,0.196,0.555c0.131,0.154,0.303,0.231,0.516,0.231c0.247,0,0.424-0.071,0.53-0.214
					c0.105-0.143,0.159-0.333,0.159-0.572v-0.439c0-0.216-0.061-0.401-0.183-0.555c-0.121-0.154-0.294-0.231-0.519-0.231
					c-0.228,0-0.401,0.077-0.521,0.231c-0.12,0.153-0.18,0.339-0.18,0.555V48.997z"/>
			</g>
		</g>
	</g>
</g>
<g>
	<g>
		<path fill="#4D4D4D" d="M168.001,17.529l0.01,0.031c0.014,0.731-0.217,1.315-0.691,1.753s-1.097,0.656-1.867,0.656
			c-0.8,0-1.445-0.3-1.937-0.899c-0.49-0.6-0.735-1.377-0.735-2.33v-1.216c0-0.95,0.245-1.727,0.735-2.33
			c0.491-0.603,1.137-0.904,1.937-0.904c0.78,0,1.405,0.213,1.875,0.641c0.469,0.427,0.697,1.015,0.684,1.764l-0.01,0.03h-0.554
			c0-0.602-0.177-1.07-0.53-1.407c-0.354-0.336-0.843-0.505-1.465-0.505c-0.629,0-1.134,0.253-1.514,0.759
			c-0.381,0.506-0.57,1.153-0.57,1.943v1.226c0,0.8,0.189,1.451,0.57,1.956c0.38,0.504,0.885,0.756,1.514,0.756
			c0.622,0,1.11-0.164,1.465-0.492c0.354-0.328,0.53-0.805,0.53-1.431H168.001z"/>
		<path fill="#4D4D4D" d="M174.832,19.862h-0.593l-4.085-6.389l-0.029,0.006v6.383h-0.593v-7.465h0.593l4.085,6.373l0.029-0.006
			v-6.367h0.593V19.862z"/>
		<path fill="#4D4D4D" d="M180.488,16.248h-3.226v3.097h3.729v0.518h-4.322v-7.465h4.297v0.522h-3.704v2.805h3.226V16.248z"/>
		<path fill="#4D4D4D" d="M186.011,17.78h-3.156l-0.727,2.082h-0.612l2.643-7.465h0.559l2.623,7.465h-0.613L186.011,17.78z
			 M183.042,17.232h2.776l-1.363-3.958h-0.03L183.042,17.232z"/>
	</g>
	<g>
		<g>
			<polygon fill="#D5001E" points="169.448,52.435 153.288,74.552 162.653,72.797 167.799,79.467 177.581,54.909 			"/>
			<polygon fill="#D5001E" points="180.625,52.435 196.781,74.552 187.42,72.797 182.279,79.467 172.497,54.909 			"/>
			<g>
				<path fill="#FFFFFF" stroke="#DD9A28" stroke-width="2" d="M193.155,47.176c-0.41,9.791-8.675,17.395-18.466,16.982
					c-9.789-0.405-17.394-8.675-16.98-18.462c0.405-9.791,8.672-17.396,18.461-16.989C185.962,29.128,193.563,37.391,193.155,47.176
					z"/>
			</g>
		</g>
		<g>
			<path fill="#D5001E" d="M168.681,47.59c0,0.972-0.256,1.735-0.767,2.29s-1.188,0.832-2.03,0.832
				c-0.851,0-1.532-0.277-2.045-0.832s-0.77-1.318-0.77-2.29v-2.284c0-0.969,0.256-1.732,0.767-2.29
				c0.511-0.559,1.189-0.838,2.036-0.838c0.844,0,1.522,0.279,2.037,0.838c0.515,0.558,0.771,1.321,0.771,2.29V47.59z
				 M167.023,45.135c0-0.532-0.103-0.944-0.306-1.236c-0.203-0.293-0.484-0.438-0.846-0.438c-0.364,0-0.646,0.146-0.846,0.438
				c-0.199,0.292-0.299,0.704-0.299,1.236v2.614c0,0.543,0.101,0.96,0.302,1.251c0.201,0.29,0.486,0.436,0.854,0.436
				c0.36,0,0.641-0.146,0.84-0.436c0.199-0.291,0.3-0.708,0.3-1.251V45.135z"/>
			<path fill="#D5001E" d="M171.598,50.518l-0.906,1.795h-1.11l0.398-1.846v-1.299h1.618V50.518z"/>
			<path fill="#D5001E" d="M178.462,50.592h-5.565v-1.088l2.568-2.905c0.384-0.452,0.656-0.835,0.817-1.148
				c0.162-0.313,0.242-0.601,0.242-0.862c0-0.342-0.085-0.615-0.256-0.82s-0.428-0.308-0.77-0.308c-0.36,0-0.64,0.131-0.837,0.393
				s-0.296,0.595-0.296,0.997h-1.618l-0.012-0.034c-0.019-0.737,0.225-1.36,0.729-1.871s1.183-0.767,2.033-0.767
				s1.512,0.218,1.982,0.652c0.472,0.435,0.707,1.019,0.707,1.752c0,0.497-0.132,0.951-0.396,1.361
				c-0.264,0.41-0.719,0.978-1.364,1.703l-1.367,1.641l0.012,0.028h3.39V50.592z"/>
			<path fill="#D5001E" d="M179.465,43.893c0-0.49,0.159-0.898,0.476-1.225c0.317-0.327,0.759-0.49,1.325-0.49
				c0.573,0,1.018,0.162,1.333,0.487c0.314,0.324,0.473,0.733,0.473,1.228v0.438c0,0.49-0.158,0.896-0.473,1.219
				c-0.315,0.323-0.756,0.484-1.322,0.484c-0.569,0-1.014-0.161-1.333-0.484c-0.318-0.322-0.479-0.729-0.479-1.219V43.893z
				 M180.57,44.331c0,0.221,0.061,0.405,0.183,0.556c0.121,0.15,0.296,0.225,0.523,0.225c0.221,0,0.391-0.074,0.51-0.225
				c0.12-0.15,0.18-0.335,0.18-0.556v-0.438c0-0.221-0.061-0.407-0.183-0.562c-0.121-0.153-0.294-0.23-0.518-0.23
				c-0.225,0-0.396,0.077-0.516,0.23c-0.12,0.154-0.18,0.341-0.18,0.562V44.331z M181.55,49.971l-0.809-0.427l4.05-6.483l0.81,0.428
				L181.55,49.971z M183.43,48.558c0-0.485,0.16-0.892,0.479-1.219c0.319-0.326,0.762-0.49,1.327-0.49
				c0.57,0,1.014,0.163,1.331,0.487c0.316,0.325,0.476,0.732,0.476,1.222v0.439c0,0.493-0.158,0.901-0.474,1.225
				c-0.314,0.322-0.755,0.484-1.321,0.484c-0.569,0-1.015-0.163-1.336-0.487c-0.321-0.325-0.481-0.732-0.481-1.222V48.558z
				 M184.535,48.997c0,0.216,0.065,0.401,0.196,0.555c0.131,0.154,0.303,0.231,0.516,0.231c0.247,0,0.424-0.071,0.53-0.214
				c0.105-0.143,0.159-0.333,0.159-0.572v-0.439c0-0.216-0.061-0.401-0.183-0.555c-0.121-0.154-0.294-0.231-0.519-0.231
				c-0.228,0-0.401,0.077-0.521,0.231c-0.12,0.153-0.18,0.339-0.18,0.555V48.997z"/>
		</g>
	</g>
</g>
<g>
	<g>
		<g>
			<path fill="#4D4D4D" d="M165.603,125.341l0.01,0.031c0.014,0.731-0.217,1.315-0.691,1.753s-1.097,0.656-1.867,0.656
				c-0.8,0-1.445-0.3-1.937-0.899c-0.49-0.6-0.735-1.377-0.735-2.33v-1.216c0-0.95,0.245-1.727,0.735-2.33
				c0.491-0.603,1.137-0.904,1.937-0.904c0.78,0,1.405,0.213,1.875,0.641c0.469,0.427,0.697,1.015,0.684,1.764l-0.01,0.03h-0.554
				c0-0.602-0.177-1.07-0.53-1.407c-0.354-0.336-0.843-0.505-1.465-0.505c-0.629,0-1.134,0.253-1.514,0.759
				c-0.381,0.506-0.57,1.153-0.57,1.943v1.226c0,0.8,0.189,1.451,0.57,1.956c0.38,0.504,0.885,0.756,1.514,0.756
				c0.622,0,1.11-0.164,1.465-0.492c0.354-0.328,0.53-0.805,0.53-1.431H165.603z"/>
			<path fill="#4D4D4D" d="M170.952,124.06h-3.226v3.097h3.729v0.518h-4.322v-7.465h4.297v0.522h-3.704v2.805h3.226V124.06z"/>
			<path fill="#4D4D4D" d="M172.711,127.674v-7.465h2.099c0.748,0,1.331,0.163,1.749,0.489c0.418,0.327,0.627,0.818,0.627,1.475
				c0,0.372-0.101,0.698-0.304,0.979c-0.202,0.28-0.475,0.479-0.817,0.595c0.455,0.059,0.826,0.264,1.114,0.615
				c0.288,0.353,0.432,0.765,0.432,1.236c0,0.666-0.208,1.179-0.624,1.538c-0.417,0.358-0.975,0.538-1.673,0.538H172.711z
				 M173.304,123.557h1.729c0.497-0.01,0.882-0.134,1.153-0.371c0.271-0.238,0.407-0.582,0.407-1.033
				c0-0.472-0.151-0.826-0.454-1.064c-0.303-0.237-0.746-0.356-1.329-0.356h-1.506V123.557z M173.304,124.074v3.082h2.01
				c0.53,0,0.947-0.136,1.25-0.408c0.303-0.271,0.454-0.651,0.454-1.141c0-0.447-0.148-0.811-0.446-1.089
				c-0.299-0.279-0.697-0.427-1.198-0.444h-0.079H173.304z"/>
			<path fill="#4D4D4D" d="M182.713,125.592h-3.156l-0.727,2.082h-0.612l2.643-7.465h0.559l2.623,7.465h-0.613L182.713,125.592z
				 M179.744,125.044h2.776l-1.363-3.958h-0.03L179.744,125.044z"/>
			<path fill="#4D4D4D" d="M189.208,125.858c0-0.382-0.146-0.698-0.439-0.948c-0.293-0.249-0.79-0.483-1.491-0.702
				c-0.768-0.219-1.352-0.491-1.751-0.817c-0.4-0.327-0.601-0.771-0.601-1.331c0-0.57,0.224-1.04,0.672-1.407
				s1.02-0.551,1.714-0.551c0.731,0,1.319,0.207,1.764,0.623c0.444,0.415,0.66,0.942,0.646,1.581l-0.01,0.031h-0.553
				c0-0.492-0.172-0.901-0.517-1.226c-0.344-0.325-0.787-0.487-1.331-0.487c-0.56,0-0.998,0.138-1.316,0.413
				c-0.317,0.275-0.477,0.612-0.477,1.013c0,0.379,0.145,0.691,0.433,0.936s0.796,0.473,1.523,0.685
				c0.758,0.229,1.335,0.511,1.733,0.846s0.598,0.779,0.598,1.333c0,0.581-0.232,1.049-0.698,1.402s-1.053,0.53-1.761,0.53
				s-1.326-0.187-1.853-0.562c-0.527-0.374-0.782-0.92-0.766-1.638l0.01-0.031h0.548c0,0.578,0.209,1.008,0.628,1.29
				c0.418,0.282,0.896,0.423,1.433,0.423c0.55,0,0.997-0.131,1.343-0.393C189.035,126.61,189.208,126.272,189.208,125.858z"/>
			<path fill="#4D4D4D" d="M168.593,139.382h0.03l2.677-6.572h0.722v7.465h-0.593v-6.271l-0.03-0.005l-2.578,6.275h-0.425
				l-2.638-6.43l-0.029,0.006v6.424h-0.593v-7.465h0.79L168.593,139.382z"/>
			<path fill="#4D4D4D" d="M173.858,140.274v-7.465h2.193c0.879,0,1.605,0.304,2.181,0.912c0.574,0.608,0.861,1.39,0.861,2.344
				v0.958c0,0.954-0.287,1.734-0.861,2.341c-0.575,0.606-1.302,0.91-2.181,0.91H173.858z M174.451,133.332v6.425h1.601
				c0.711,0,1.297-0.258,1.758-0.774c0.461-0.516,0.691-1.169,0.691-1.959v-0.974c0-0.779-0.231-1.427-0.693-1.943
				c-0.463-0.516-1.048-0.774-1.756-0.774H174.451z"/>
			<path fill="#4D4D4D" d="M184.72,138.459c0-0.382-0.146-0.698-0.439-0.948c-0.293-0.249-0.79-0.483-1.491-0.702
				c-0.768-0.219-1.352-0.491-1.751-0.817c-0.4-0.327-0.601-0.771-0.601-1.331c0-0.57,0.224-1.04,0.672-1.407
				s1.02-0.551,1.714-0.551c0.731,0,1.319,0.207,1.764,0.623c0.444,0.415,0.66,0.942,0.646,1.581l-0.01,0.031h-0.553
				c0-0.492-0.172-0.901-0.517-1.226c-0.344-0.325-0.787-0.487-1.331-0.487c-0.56,0-0.998,0.138-1.316,0.413
				c-0.317,0.275-0.477,0.612-0.477,1.013c0,0.379,0.145,0.691,0.433,0.936s0.796,0.473,1.523,0.685
				c0.758,0.229,1.335,0.511,1.733,0.846s0.598,0.779,0.598,1.333c0,0.581-0.232,1.049-0.698,1.402s-1.053,0.53-1.761,0.53
				s-1.326-0.187-1.853-0.562c-0.527-0.374-0.782-0.92-0.766-1.638l0.01-0.031h0.548c0,0.578,0.209,1.008,0.628,1.29
				c0.418,0.282,0.896,0.423,1.433,0.423c0.55,0,0.997-0.131,1.343-0.393C184.547,139.211,184.72,138.873,184.72,138.459z"/>
		</g>
	</g>
	<g>
		<g>
			<g>
				<polygon fill="#89181B" points="169.125,178.406 153.235,200.168 162.442,198.437 167.499,205.006 177.124,180.84 				"/>
			</g>
			<g>
				<polygon fill="#89181B" points="180.131,178.406 196.015,200.168 186.805,198.437 181.752,205.006 172.128,180.84 				"/>
			</g>
			<g>
				<g>
					<path fill="#DA1F27" d="M196.441,176.875c0.05-0.045,0.106-0.084,0.143-0.127c0.208-0.188,0.411-0.29,0.411-0.29l-0.143-0.018
						c0.616-0.741,0.978-1.7,0.978-2.746c0-1.379-0.64-2.609-1.631-3.399l0.008,0.002c0,0-0.526-0.511-0.582-1.048
						c-0.009-0.092,0.005-0.196,0.042-0.292c0.16-0.251,0.301-0.521,0.417-0.809c0.089-0.112,0.149-0.191,0.149-0.191l-0.1,0.031
						c0.35-0.984,0.35-2.099-0.082-3.133c-0.451-1.062-1.263-1.848-2.234-2.283l0.089-0.012c0,0-0.901-0.407-1.072-0.927
						c-0.179-0.518,0.099-1.196,0.099-1.196l-0.069,0.052c0.168-1.289-0.237-2.646-1.233-3.639
						c-1.025-1.028-2.447-1.432-3.775-1.213c-0.2-0.002-0.432-0.05-0.62-0.144c-0.253-0.141-0.442-0.458-0.566-0.74
						c-0.343-1.267-1.243-2.356-2.551-2.887c-1.148-0.475-2.373-0.41-3.425,0.059l0.016-0.024c0,0-0.092,0.055-0.227,0.127
						c-0.032,0.012-0.058,0.03-0.095,0.041c-0.296,0.135-0.73,0.301-1.049,0.215c-0.293-0.08-0.548-0.301-0.715-0.475
						c-0.793-1.137-2.107-1.884-3.583-1.884c-1.314,0-2.477,0.583-3.275,1.492v-0.084c0,0-0.405,0.61-0.938,0.752
						c-0.524,0.139-1.368-0.383-1.368-0.383l0.047,0.091c-0.969-0.344-2.055-0.351-3.082,0.068
						c-1.089,0.444-1.892,1.283-2.337,2.283l-0.026-0.077c0,0-0.027,0.164-0.096,0.39c-0.023,0.075-0.055,0.146-0.073,0.226
						c-0.092,0.26-0.234,0.533-0.436,0.67c-0.451,0.31-1.176,0.229-1.176,0.229l0.02,0.003c-1.223-0.08-2.458,0.342-3.384,1.265
						c-0.898,0.904-1.325,2.11-1.262,3.29l-0.039-0.038c0,0,0.191,0.713-0.051,1.198c-0.096,0.191-0.298,0.355-0.506,0.474
						c-1.31,0.317-2.466,1.235-3.006,2.589c-0.549,1.326-0.388,2.755,0.299,3.896l-0.11-0.055c0,0,0.396,0.617,0.312,1.16
						c-0.076,0.537-0.901,1.091-0.901,1.091h0.024c-0.876,0.798-1.437,1.953-1.437,3.238c0,1.39,0.663,2.634,1.684,3.434
						c0.172,0.171,0.393,0.429,0.461,0.723c0.124,0.524-0.413,1.354-0.413,1.354l0.042-0.019c-0.424,1.037-0.458,2.231,0.008,3.339
						c0.622,1.481,1.961,2.432,3.44,2.632c0.13,0.066,0.265,0.144,0.365,0.251c0.11,0.109,0.173,0.264,0.226,0.426
						c-0.047,1.181,0.377,2.36,1.275,3.256c0.864,0.873,2.014,1.29,3.146,1.27l-0.003,0.012c0,0,0.017,0,0.032-0.012
						c0.146-0.002,0.293-0.014,0.442-0.029c0.309-0.005,0.7,0.027,0.933,0.209c0.253,0.189,0.405,0.511,0.49,0.743
						c0.016,0.063,0.046,0.114,0.058,0.173c0.024,0.08,0.034,0.135,0.034,0.135l0.006-0.019c0.411,1.099,1.265,2.028,2.438,2.502
						c0.923,0.388,1.904,0.415,2.804,0.169l-0.014,0.009c0,0,0.023-0.004,0.05-0.018c0.19-0.06,0.38-0.121,0.56-0.203
						c0.268-0.066,0.561-0.109,0.793-0.027c0.11,0.041,0.215,0.104,0.306,0.183c0.782,1.173,2.115,1.952,3.639,1.952
						c1.259,0,2.393-0.54,3.191-1.398v0.041c0,0,0.039-0.062,0.097-0.157c0.076-0.094,0.161-0.188,0.234-0.292
						c0.148-0.157,0.325-0.308,0.528-0.385c0.51-0.191,1.396,0.25,1.396,0.25l-0.055-0.089c1.004,0.386,2.14,0.408,3.214-0.034
						c1.128-0.451,1.961-1.333,2.391-2.374l0.014,0.075c0,0,0.239-0.964,0.711-1.235c0.474-0.273,1.19-0.13,1.19-0.13l-0.064-0.052
						c1.185,0.048,2.37-0.365,3.27-1.268c0.861-0.858,1.283-1.982,1.272-3.104l0.028,0.025c0,0-0.018-0.07-0.034-0.178
						c0-0.116-0.008-0.237-0.026-0.349c0-0.219,0.026-0.465,0.135-0.675c0.247-0.485,1.202-0.756,1.202-0.756l-0.059-0.017
						c1.131-0.396,2.101-1.258,2.588-2.461c0.479-1.169,0.399-2.429-0.09-3.488c-0.068-0.263-0.105-0.552-0.019-0.782
						C196.215,177.14,196.32,177.001,196.441,176.875z M184.99,182.928c-0.857,0.859-1.281,1.978-1.275,3.112
						c-1.033-0.448-2.231-0.492-3.357-0.034c-1.17,0.477-2.023,1.415-2.435,2.512c-0.767-0.682-1.778-1.097-2.883-1.097
						c-0.951,0-1.824,0.299-2.532,0.81c-0.445-0.976-1.247-1.784-2.313-2.225c-1.151-0.465-2.382-0.41-3.432,0.064
						c0.006-1.138-0.413-2.279-1.272-3.143c-0.88-0.87-2.023-1.294-3.159-1.273c0.15-0.818,0.079-1.685-0.266-2.505
						c-0.472-1.116-1.362-1.935-2.403-2.358c0.801-0.791,1.297-1.882,1.297-3.097c0-1.427-0.686-2.682-1.748-3.479
						c1.281-0.342,2.377-1.256,2.907-2.559c0.459-1.124,0.413-2.329-0.034-3.366c1.085-0.022,2.171-0.439,3.001-1.271
						c0.858-0.856,1.28-1.991,1.272-3.112c1.027,0.442,2.24,0.485,3.367,0.029c1.137-0.46,1.972-1.36,2.396-2.413
						c0.774,0.695,1.794,1.124,2.92,1.124c1.299,0,2.461-0.572,3.262-1.479c0.374,1.21,1.263,2.254,2.529,2.769
						c1.118,0.456,2.322,0.413,3.354-0.029c-0.007,1.121,0.419,2.256,1.276,3.112c0.795,0.791,1.811,1.21,2.849,1.265
						c-0.693,1.148-0.861,2.616-0.296,3.956c0.472,1.114,1.352,1.93,2.398,2.347c-0.802,0.789-1.292,1.89-1.292,3.108
						c0,0.95,0.301,1.82,0.813,2.536c-0.751,0.463-1.385,1.167-1.74,2.053c-0.46,1.128-0.419,2.336,0.026,3.375
						C187.054,181.62,185.883,182.037,184.99,182.928z"/>
				</g>
				<g>
					<g>
						<g>
							<path fill="#FFFFFF" d="M189.949,173.64c-0.33,7.987-7.154,14.196-15.24,13.861c-8.083-0.344-14.356-7.089-14.015-15.076
								c0.333-7.988,7.16-14.196,15.245-13.865C184.015,158.901,190.289,165.646,189.949,173.64z"/>
							<path fill="#B52125" d="M175.333,188.535c-0.219,0-0.441-0.007-0.662-0.014c-4.185-0.178-8.055-1.948-10.891-4.994
								c-2.833-3.052-4.294-7.008-4.124-11.147c0.364-8.545,7.594-15.206,16.319-14.841c8.643,0.357,15.37,7.604,15.009,16.142
								C190.632,182.007,183.762,188.535,175.333,188.535L175.333,188.535z M175.312,159.571c-7.314,0-13.284,5.667-13.583,12.899
								c-0.156,3.589,1.119,7.022,3.578,9.666c2.458,2.648,5.817,4.187,9.446,4.341c7.583,0.308,13.853-5.46,14.165-12.886
								c0.313-7.41-5.53-13.69-13.029-14.005C175.698,159.573,175.504,159.571,175.312,159.571L175.312,159.571z"/>
						</g>
					</g>
				</g>
			</g>
		</g>
		<g>
			<path fill="#D5001E" d="M171.913,177.117h-1.657v-6.848h-1.715v-1.271l3.372-0.296V177.117z"/>
			<path fill="#D5001E" d="M174.613,170.418c0-0.49,0.159-0.898,0.476-1.225c0.317-0.327,0.759-0.49,1.325-0.49
				c0.573,0,1.018,0.162,1.333,0.487c0.314,0.324,0.473,0.733,0.473,1.228v0.438c0,0.49-0.158,0.896-0.473,1.219
				c-0.315,0.323-0.756,0.484-1.322,0.484c-0.569,0-1.014-0.161-1.333-0.484c-0.318-0.322-0.479-0.729-0.479-1.219V170.418z
				 M175.719,170.856c0,0.221,0.061,0.405,0.183,0.556c0.121,0.15,0.296,0.225,0.523,0.225c0.221,0,0.391-0.074,0.51-0.225
				c0.12-0.15,0.18-0.335,0.18-0.556v-0.438c0-0.221-0.061-0.407-0.183-0.562c-0.121-0.153-0.294-0.23-0.518-0.23
				c-0.225,0-0.396,0.077-0.516,0.23c-0.12,0.154-0.18,0.341-0.18,0.562V170.856z M176.698,176.496l-0.809-0.427l4.05-6.483
				l0.81,0.428L176.698,176.496z M178.578,175.083c0-0.485,0.16-0.892,0.479-1.219c0.319-0.326,0.762-0.49,1.327-0.49
				c0.57,0,1.014,0.163,1.331,0.487c0.316,0.325,0.476,0.732,0.476,1.222v0.439c0,0.493-0.158,0.901-0.474,1.225
				c-0.314,0.322-0.755,0.484-1.321,0.484c-0.569,0-1.015-0.163-1.336-0.487c-0.321-0.325-0.481-0.732-0.481-1.222V175.083z
				 M179.684,175.522c0,0.216,0.065,0.401,0.196,0.555c0.131,0.154,0.303,0.231,0.516,0.231c0.247,0,0.424-0.071,0.53-0.214
				c0.105-0.143,0.159-0.333,0.159-0.572v-0.439c0-0.216-0.061-0.401-0.183-0.555c-0.121-0.154-0.294-0.231-0.519-0.231
				c-0.228,0-0.401,0.077-0.521,0.231c-0.12,0.153-0.18,0.339-0.18,0.555V175.522z"/>
		</g>
	</g>
</g>
<g>
	<g>
		<g>
			<path fill="#4D4D4D" d="M98.399,125.341l0.01,0.031c0.014,0.731-0.217,1.315-0.691,1.753s-1.097,0.656-1.867,0.656
				c-0.8,0-1.445-0.3-1.937-0.899c-0.49-0.6-0.735-1.377-0.735-2.33v-1.216c0-0.95,0.245-1.727,0.735-2.33
				c0.491-0.603,1.137-0.904,1.937-0.904c0.78,0,1.405,0.213,1.875,0.641c0.469,0.427,0.697,1.015,0.684,1.764l-0.01,0.03h-0.554
				c0-0.602-0.177-1.07-0.53-1.407c-0.354-0.336-0.843-0.505-1.465-0.505c-0.629,0-1.134,0.253-1.514,0.759
				c-0.381,0.506-0.57,1.153-0.57,1.943v1.226c0,0.8,0.189,1.451,0.57,1.956c0.38,0.504,0.885,0.756,1.514,0.756
				c0.622,0,1.11-0.164,1.465-0.492c0.354-0.328,0.53-0.805,0.53-1.431H98.399z"/>
			<path fill="#4D4D4D" d="M103.749,124.06h-3.226v3.097h3.729v0.518h-4.322v-7.465h4.297v0.522h-3.704v2.805h3.226V124.06z"/>
			<path fill="#4D4D4D" d="M105.508,127.674v-7.465h2.099c0.748,0,1.331,0.163,1.749,0.489c0.418,0.327,0.627,0.818,0.627,1.475
				c0,0.372-0.101,0.698-0.304,0.979c-0.202,0.28-0.475,0.479-0.817,0.595c0.455,0.059,0.826,0.264,1.114,0.615
				c0.288,0.353,0.432,0.765,0.432,1.236c0,0.666-0.208,1.179-0.624,1.538c-0.417,0.358-0.975,0.538-1.673,0.538H105.508z
				 M106.101,123.557h1.729c0.497-0.01,0.882-0.134,1.153-0.371c0.271-0.238,0.407-0.582,0.407-1.033
				c0-0.472-0.151-0.826-0.454-1.064c-0.303-0.237-0.746-0.356-1.329-0.356h-1.506V123.557z M106.101,124.074v3.082h2.01
				c0.53,0,0.947-0.136,1.25-0.408c0.303-0.271,0.454-0.651,0.454-1.141c0-0.447-0.148-0.811-0.446-1.089
				c-0.299-0.279-0.697-0.427-1.198-0.444h-0.079H106.101z"/>
			<path fill="#4D4D4D" d="M115.51,125.592h-3.156l-0.727,2.082h-0.612l2.643-7.465h0.559l2.623,7.465h-0.613L115.51,125.592z
				 M112.541,125.044h2.776l-1.363-3.958h-0.03L112.541,125.044z"/>
			<path fill="#4D4D4D" d="M122.005,125.858c0-0.382-0.146-0.698-0.439-0.948c-0.293-0.249-0.79-0.483-1.491-0.702
				c-0.768-0.219-1.352-0.491-1.751-0.817c-0.4-0.327-0.601-0.771-0.601-1.331c0-0.57,0.224-1.04,0.672-1.407
				s1.02-0.551,1.714-0.551c0.731,0,1.319,0.207,1.764,0.623c0.444,0.415,0.66,0.942,0.646,1.581l-0.01,0.031h-0.553
				c0-0.492-0.172-0.901-0.517-1.226c-0.344-0.325-0.787-0.487-1.331-0.487c-0.56,0-0.998,0.138-1.316,0.413
				c-0.317,0.275-0.477,0.612-0.477,1.013c0,0.379,0.145,0.691,0.433,0.936s0.796,0.473,1.523,0.685
				c0.758,0.229,1.335,0.511,1.733,0.846s0.598,0.779,0.598,1.333c0,0.581-0.232,1.049-0.698,1.402s-1.053,0.53-1.761,0.53
				s-1.326-0.187-1.853-0.562c-0.527-0.374-0.782-0.92-0.766-1.638l0.01-0.031h0.548c0,0.578,0.209,1.008,0.628,1.29
				c0.418,0.282,0.896,0.423,1.433,0.423c0.55,0,0.997-0.131,1.343-0.393C121.832,126.61,122.005,126.272,122.005,125.858z"/>
			<path fill="#4D4D4D" d="M98.799,138.459c0-0.382-0.146-0.698-0.439-0.948c-0.293-0.249-0.79-0.483-1.491-0.702
				c-0.768-0.219-1.352-0.491-1.751-0.817c-0.4-0.327-0.601-0.771-0.601-1.331c0-0.57,0.224-1.04,0.672-1.407
				s1.02-0.551,1.714-0.551c0.731,0,1.319,0.207,1.764,0.623c0.444,0.415,0.66,0.942,0.646,1.581l-0.01,0.031H98.75
				c0-0.492-0.172-0.901-0.517-1.226c-0.344-0.325-0.787-0.487-1.331-0.487c-0.56,0-0.998,0.138-1.316,0.413
				c-0.317,0.275-0.477,0.612-0.477,1.013c0,0.379,0.145,0.691,0.433,0.936s0.796,0.473,1.523,0.685
				c0.758,0.229,1.335,0.511,1.733,0.846s0.598,0.779,0.598,1.333c0,0.581-0.232,1.049-0.698,1.402s-1.053,0.53-1.761,0.53
				s-1.326-0.187-1.853-0.562c-0.527-0.374-0.782-0.92-0.766-1.638l0.01-0.031h0.548c0,0.578,0.209,1.008,0.628,1.29
				c0.418,0.282,0.896,0.423,1.433,0.423c0.55,0,0.997-0.131,1.343-0.393C98.626,139.211,98.799,138.873,98.799,138.459z"/>
			<path fill="#4D4D4D" d="M104.095,140.274c-0.036-0.195-0.063-0.362-0.082-0.503c-0.018-0.14-0.026-0.283-0.026-0.431
				c-0.185,0.302-0.443,0.55-0.775,0.746c-0.333,0.197-0.715,0.295-1.146,0.295c-0.523,0-0.93-0.145-1.218-0.433
				c-0.288-0.289-0.432-0.682-0.432-1.177c0-0.496,0.209-0.897,0.627-1.205s0.962-0.462,1.63-0.462h1.314v-0.687
				c0-0.396-0.121-0.708-0.363-0.934s-0.584-0.338-1.025-0.338c-0.404,0-0.731,0.103-0.98,0.308
				c-0.248,0.205-0.373,0.463-0.373,0.774h-0.548l-0.01-0.031c-0.02-0.417,0.152-0.783,0.516-1.1
				c0.364-0.316,0.839-0.475,1.426-0.475c0.586,0,1.057,0.156,1.412,0.467c0.355,0.312,0.534,0.757,0.534,1.338v2.728
				c0,0.195,0.01,0.385,0.031,0.569s0.058,0.368,0.106,0.549H104.095z M102.129,139.839c0.454,0,0.848-0.112,1.181-0.336
				c0.332-0.224,0.558-0.512,0.677-0.864v-1.062h-1.319c-0.48,0-0.878,0.119-1.19,0.356c-0.313,0.238-0.469,0.524-0.469,0.859
				c0,0.314,0.1,0.567,0.299,0.759S101.779,139.839,102.129,139.839z"/>
			<path fill="#4D4D4D" d="M109.646,139.372c-0.171,0.325-0.4,0.574-0.688,0.748c-0.288,0.175-0.63,0.262-1.025,0.262
				c-0.563,0-1.004-0.198-1.323-0.595c-0.32-0.396-0.479-1.012-0.479-1.846v-3.215h0.593v3.226c0,0.677,0.111,1.162,0.333,1.456
				c0.223,0.294,0.538,0.44,0.946,0.44c0.444,0,0.799-0.104,1.064-0.31c0.265-0.207,0.452-0.49,0.561-0.849v-3.964h0.593v5.548
				h-0.523L109.646,139.372z M108.911,132.481h0.726l0.015,0.03l-1.229,1.333h-0.528L108.911,132.481z"/>
			<path fill="#4D4D4D" d="M111.548,137.547c0-0.885,0.181-1.594,0.541-2.125c0.361-0.531,0.864-0.798,1.51-0.798
				c0.365,0,0.686,0.081,0.96,0.241c0.275,0.161,0.503,0.388,0.685,0.682v-3.271h0.593v7.998h-0.484l-0.084-0.805
				c-0.181,0.294-0.411,0.52-0.691,0.677s-0.609,0.235-0.988,0.235c-0.639,0-1.138-0.247-1.499-0.74
				c-0.36-0.494-0.541-1.156-0.541-1.987V137.547z M112.141,137.654c0,0.67,0.13,1.203,0.388,1.6
				c0.259,0.396,0.648,0.595,1.169,0.595c0.382,0,0.699-0.088,0.953-0.264s0.451-0.42,0.593-0.73v-2.631
				c-0.135-0.314-0.326-0.57-0.573-0.769s-0.568-0.298-0.963-0.298c-0.521,0-0.911,0.222-1.173,0.664
				c-0.263,0.443-0.394,1.018-0.394,1.726V137.654z"/>
			<path fill="#4D4D4D" d="M119.441,140.382c-0.691,0-1.253-0.254-1.685-0.761c-0.432-0.508-0.646-1.16-0.646-1.956v-0.282
				c0-0.8,0.218-1.46,0.654-1.979s0.977-0.779,1.622-0.779c0.649,0,1.15,0.217,1.505,0.649c0.354,0.432,0.53,1.014,0.53,1.745v0.477
				h-3.719v0.17c0,0.632,0.153,1.157,0.462,1.573c0.308,0.418,0.733,0.626,1.276,0.626c0.326,0,0.626-0.056,0.899-0.167
				c0.272-0.11,0.5-0.26,0.682-0.448l0.252,0.42c-0.188,0.205-0.435,0.376-0.739,0.511S119.866,140.382,119.441,140.382z
				 M119.387,135.147c-0.454,0-0.828,0.169-1.121,0.508c-0.293,0.338-0.464,0.767-0.514,1.286l0.015,0.031h3.063v-0.128
				c0-0.492-0.124-0.898-0.373-1.218C120.208,135.308,119.852,135.147,119.387,135.147z"/>
		</g>
	</g>
	<g>
		<g>
			<g>
				<polygon fill="#DC9928" points="101.896,178.404 85.932,200.264 95.178,198.525 100.255,205.122 109.926,180.854 				"/>
			</g>
			<g>
				<polygon fill="#DC9928" points="112.94,178.404 128.905,200.264 119.648,198.525 114.574,205.122 104.91,180.854 				"/>
			</g>
			<g>
				<g>
					<path fill="#F4D256" d="M129.336,176.873c0.036-0.041,0.093-0.082,0.137-0.139c0.208-0.178,0.413-0.285,0.413-0.285
						l-0.15-0.012c0.622-0.749,0.991-1.709,0.991-2.766c0-1.381-0.643-2.616-1.644-3.414l0.018,0.005c0,0-0.542-0.513-0.59-1.053
						c-0.009-0.094,0.002-0.196,0.034-0.292c0.166-0.257,0.31-0.526,0.415-0.813c0.091-0.109,0.159-0.187,0.159-0.187l-0.096,0.025
						c0.349-0.989,0.349-2.105-0.089-3.145c-0.444-1.069-1.27-1.857-2.242-2.295l0.089-0.012c0,0-0.907-0.407-1.078-0.932
						c-0.182-0.515,0.103-1.201,0.103-1.201l-0.068,0.055c0.169-1.296-0.246-2.659-1.244-3.657
						c-1.027-1.034-2.454-1.438-3.787-1.219c-0.207-0.012-0.438-0.046-0.626-0.146c-0.254-0.141-0.449-0.462-0.559-0.74
						c-0.355-1.271-1.261-2.367-2.575-2.907c-1.148-0.463-2.381-0.406-3.432,0.062l0.007-0.021c0,0-0.091,0.055-0.228,0.123
						c-0.025,0.022-0.058,0.027-0.089,0.05c-0.297,0.139-0.734,0.301-1.056,0.21c-0.291-0.071-0.554-0.294-0.722-0.477
						c-0.793-1.137-2.105-1.885-3.599-1.885c-1.314,0-2.488,0.579-3.292,1.49l0.004-0.077c0,0-0.405,0.61-0.937,0.75
						c-0.53,0.139-1.376-0.386-1.376-0.386l0.043,0.085c-0.966-0.34-2.06-0.34-3.09,0.075c-1.094,0.451-1.909,1.292-2.35,2.294
						l-0.033-0.077c0,0-0.03,0.169-0.082,0.392c-0.037,0.071-0.063,0.153-0.085,0.226c-0.091,0.263-0.226,0.538-0.433,0.673
						c-0.451,0.316-1.188,0.223-1.188,0.223l0.014,0.012c-1.217-0.077-2.449,0.344-3.384,1.271
						c-0.907,0.914-1.333,2.117-1.278,3.309l-0.036-0.041c0,0,0.188,0.718-0.053,1.206c-0.089,0.188-0.289,0.349-0.504,0.472
						c-1.319,0.318-2.475,1.248-3.03,2.595c-0.542,1.338-0.376,2.778,0.314,3.915l-0.114-0.053c0,0,0.399,0.627,0.319,1.167
						c-0.087,0.54-0.909,1.099-0.909,1.099h0.032c-0.889,0.8-1.447,1.959-1.447,3.247c0,1.401,0.656,2.647,1.687,3.445
						c0.175,0.18,0.39,0.439,0.465,0.731c0.123,0.53-0.42,1.357-0.42,1.357l0.037-0.021c-0.42,1.047-0.447,2.254,0.022,3.364
						c0.617,1.48,1.964,2.438,3.459,2.643c0.123,0.058,0.253,0.14,0.355,0.244c0.107,0.111,0.176,0.269,0.224,0.431
						c-0.041,1.176,0.376,2.372,1.278,3.27c0.877,0.88,2.025,1.302,3.167,1.283l0,0c0,0,0.014,0,0.036,0
						c0.144-0.005,0.285-0.021,0.434-0.036c0.314-0.005,0.706,0.031,0.945,0.214c0.253,0.187,0.403,0.511,0.488,0.75
						c0.022,0.052,0.036,0.106,0.059,0.166c0.019,0.08,0.032,0.137,0.032,0.137l0.007-0.021c0.412,1.105,1.267,2.037,2.449,2.522
						c0.928,0.374,1.916,0.41,2.816,0.162l-0.014,0.011c0,0,0.021-0.009,0.055-0.024c0.188-0.053,0.365-0.121,0.557-0.201
						c0.262-0.068,0.563-0.118,0.795-0.027c0.111,0.039,0.212,0.107,0.31,0.176c0.786,1.183,2.124,1.962,3.65,1.962
						c1.27,0,2.402-0.54,3.206-1.396v0.041c0,0,0.039-0.064,0.096-0.157c0.087-0.099,0.16-0.189,0.235-0.292
						c0.141-0.157,0.33-0.314,0.537-0.385c0.518-0.196,1.404,0.25,1.404,0.25l-0.066-0.091c1.014,0.39,2.16,0.408,3.233-0.027
						c1.137-0.467,1.967-1.342,2.399-2.395l0.019,0.075c0,0,0.232-0.962,0.711-1.235c0.477-0.275,1.196-0.13,1.196-0.13
						l-0.058-0.053c1.179,0.048,2.377-0.371,3.279-1.278c0.863-0.858,1.285-1.991,1.278-3.112l0.032,0.016
						c0,0-0.025-0.063-0.039-0.173c-0.004-0.116-0.009-0.234-0.025-0.349c0-0.226,0.021-0.465,0.135-0.675
						c0.242-0.487,1.201-0.766,1.201-0.766l-0.053-0.014c1.133-0.398,2.105-1.265,2.601-2.472c0.475-1.172,0.4-2.438-0.092-3.505
						c-0.068-0.265-0.104-0.557-0.024-0.784C129.101,177.138,129.213,176.994,129.336,176.873z M117.826,182.943
						c-0.861,0.866-1.285,1.996-1.281,3.131c-1.036-0.444-2.246-0.494-3.377-0.034c-1.173,0.485-2.021,1.411-2.438,2.516
						c-0.775-0.686-1.789-1.104-2.901-1.104c-0.952,0-1.82,0.316-2.552,0.822c-0.438-0.973-1.24-1.793-2.313-2.233
						c-1.162-0.472-2.391-0.407-3.453,0.064c0.019-1.142-0.407-2.286-1.277-3.161c-0.869-0.865-2.023-1.299-3.173-1.275
						c0.155-0.816,0.08-1.693-0.269-2.514c-0.472-1.121-1.355-1.951-2.408-2.363c0.807-0.798,1.308-1.896,1.308-3.119
						c0-1.427-0.692-2.691-1.752-3.491c1.267-0.349,2.374-1.258,2.912-2.577c0.462-1.123,0.421-2.333-0.034-3.372
						c1.096-0.025,2.183-0.447,3.012-1.278c0.864-0.864,1.288-2.001,1.281-3.131c1.037,0.448,2.254,0.499,3.377,0.034
						c1.144-0.463,1.98-1.363,2.408-2.425c0.777,0.697,1.803,1.126,2.933,1.126c1.311,0,2.475-0.577,3.277-1.479
						c0.369,1.213,1.269,2.256,2.529,2.778c1.135,0.465,2.345,0.414,3.384-0.034c-0.005,1.132,0.414,2.267,1.287,3.131
						c0.786,0.793,1.81,1.212,2.855,1.269c-0.709,1.16-0.868,2.623-0.303,3.972c0.482,1.119,1.364,1.938,2.42,2.361
						c-0.81,0.8-1.311,1.897-1.311,3.117c0,0.952,0.305,1.832,0.822,2.547c-0.766,0.479-1.388,1.176-1.754,2.064
						c-0.461,1.138-0.415,2.348,0.033,3.387C119.902,181.629,118.724,182.053,117.826,182.943z"/>
				</g>
				<g>
					<g>
						<g>
							<path fill="#FFFFFF" d="M122.47,173.621c-0.333,8.021-7.109,14.256-15.142,13.919c-8.019-0.338-14.258-7.11-13.921-15.143
								c0.335-8.022,7.112-14.257,15.145-13.92C116.577,158.813,122.805,165.589,122.47,173.621z"/>
							<path fill="#DD9A28" d="M107.952,188.581c-0.219,0-0.439-0.007-0.663-0.012c-4.158-0.171-7.996-1.962-10.808-5.02
								c-2.821-3.063-4.279-7.032-4.097-11.193c0.355-8.586,7.537-15.278,16.208-14.907c8.572,0.363,15.267,7.63,14.905,16.211
								C123.146,182.032,116.317,188.581,107.952,188.581L107.952,188.581z M107.928,159.489c-7.26,0-13.191,5.692-13.495,12.954
								c-0.147,3.611,1.117,7.062,3.56,9.717c2.44,2.654,5.774,4.197,9.379,4.352c7.533,0.314,13.754-5.48,14.073-12.938
								c0.31-7.441-5.491-13.754-12.94-14.068C108.311,159.494,108.119,159.489,107.928,159.489L107.928,159.489z"/>
						</g>
					</g>
				</g>
			</g>
		</g>
		<g>
			<path fill="#F6D448" d="M102.112,174.046c0,0.875-0.229,1.563-0.689,2.062s-1.069,0.748-1.828,0.748
				c-0.766,0-1.379-0.249-1.84-0.748c-0.462-0.499-0.692-1.187-0.692-2.062v-2.056c0-0.872,0.229-1.559,0.689-2.062
				c0.46-0.502,1.07-0.753,1.833-0.753c0.759,0,1.369,0.251,1.833,0.753c0.463,0.503,0.694,1.189,0.694,2.062V174.046z
				 M100.62,171.836c0-0.479-0.091-0.849-0.274-1.112c-0.183-0.263-0.437-0.395-0.761-0.395c-0.328,0-0.582,0.132-0.762,0.395
				c-0.18,0.264-0.269,0.634-0.269,1.112v2.354c0,0.489,0.09,0.864,0.271,1.126c0.181,0.261,0.438,0.392,0.769,0.392
				c0.325,0,0.577-0.131,0.757-0.392c0.179-0.262,0.269-0.637,0.269-1.126V171.836z"/>
			<path fill="#F6D448" d="M104.737,176.682l-0.814,1.615h-1l0.358-1.662v-1.169h1.456V176.682z"/>
			<path fill="#F6D448" d="M110.203,173.969h0.841v1.159h-0.841v1.62h-1.497v-1.62h-3.04l-0.072-0.897l3.097-4.947h1.513V173.969z
				 M106.952,173.969h1.754v-2.712l-0.031-0.005l-0.153,0.333L106.952,173.969z"/>
			<path fill="#F6D448" d="M111.818,170.719c0-0.441,0.143-0.809,0.428-1.103s0.683-0.44,1.192-0.44
				c0.516,0,0.916,0.146,1.199,0.438c0.284,0.292,0.426,0.66,0.426,1.104v0.395c0,0.441-0.142,0.807-0.426,1.098
				c-0.283,0.29-0.68,0.436-1.189,0.436c-0.513,0-0.912-0.146-1.199-0.436c-0.287-0.291-0.431-0.656-0.431-1.098V170.719z
				 M112.813,171.113c0,0.198,0.055,0.365,0.164,0.5s0.267,0.202,0.472,0.202c0.198,0,0.352-0.067,0.459-0.202
				s0.162-0.302,0.162-0.5v-0.395c0-0.198-0.055-0.366-0.164-0.505c-0.11-0.139-0.266-0.208-0.467-0.208
				c-0.202,0-0.356,0.069-0.464,0.208c-0.108,0.139-0.162,0.307-0.162,0.505V171.113z M113.694,176.189l-0.728-0.385l3.646-5.835
				l0.728,0.385L113.694,176.189z M115.387,174.918c0-0.438,0.144-0.804,0.431-1.098s0.686-0.44,1.194-0.44
				c0.513,0,0.912,0.146,1.197,0.438c0.285,0.292,0.428,0.658,0.428,1.1v0.395c0,0.444-0.142,0.812-0.425,1.103
				c-0.284,0.29-0.681,0.436-1.189,0.436c-0.513,0-0.914-0.146-1.203-0.438c-0.288-0.292-0.433-0.659-0.433-1.1V174.918z
				 M116.381,175.313c0,0.194,0.06,0.361,0.177,0.5c0.118,0.139,0.273,0.207,0.465,0.207c0.222,0,0.381-0.063,0.477-0.191
				c0.096-0.129,0.144-0.301,0.144-0.516v-0.395c0-0.195-0.055-0.361-0.164-0.5s-0.265-0.208-0.467-0.208
				c-0.205,0-0.361,0.069-0.469,0.208c-0.108,0.139-0.162,0.305-0.162,0.5V175.313z"/>
		</g>
	</g>
</g>
<g>
	<g>
		<g>
			<path fill="#4D4D4D" d="M25.347,125.341l0.01,0.031c0.014,0.731-0.217,1.315-0.691,1.753s-1.097,0.656-1.867,0.656
				c-0.8,0-1.445-0.3-1.937-0.899c-0.49-0.6-0.735-1.377-0.735-2.33v-1.216c0-0.95,0.245-1.727,0.735-2.33
				c0.491-0.603,1.137-0.904,1.937-0.904c0.78,0,1.405,0.213,1.875,0.641c0.469,0.427,0.697,1.015,0.684,1.764l-0.01,0.03h-0.554
				c0-0.602-0.177-1.07-0.53-1.407c-0.354-0.336-0.843-0.505-1.465-0.505c-0.629,0-1.134,0.253-1.514,0.759
				c-0.381,0.506-0.57,1.153-0.57,1.943v1.226c0,0.8,0.189,1.451,0.57,1.956c0.38,0.504,0.885,0.756,1.514,0.756
				c0.622,0,1.11-0.164,1.465-0.492c0.354-0.328,0.53-0.805,0.53-1.431H25.347z"/>
			<path fill="#4D4D4D" d="M30.696,124.06h-3.226v3.097H31.2v0.518h-4.322v-7.465h4.297v0.522h-3.704v2.805h3.226V124.06z"/>
			<path fill="#4D4D4D" d="M32.455,127.674v-7.465h2.099c0.748,0,1.331,0.163,1.749,0.489c0.418,0.327,0.627,0.818,0.627,1.475
				c0,0.372-0.101,0.698-0.304,0.979c-0.202,0.28-0.475,0.479-0.817,0.595c0.455,0.059,0.826,0.264,1.114,0.615
				c0.288,0.353,0.432,0.765,0.432,1.236c0,0.666-0.208,1.179-0.624,1.538c-0.417,0.358-0.975,0.538-1.673,0.538H32.455z
				 M33.048,123.557h1.729c0.497-0.01,0.882-0.134,1.153-0.371c0.271-0.238,0.407-0.582,0.407-1.033
				c0-0.472-0.151-0.826-0.454-1.064c-0.303-0.237-0.746-0.356-1.329-0.356h-1.506V123.557z M33.048,124.074v3.082h2.01
				c0.53,0,0.947-0.136,1.25-0.408c0.303-0.271,0.454-0.651,0.454-1.141c0-0.447-0.148-0.811-0.446-1.089
				c-0.299-0.279-0.697-0.427-1.198-0.444h-0.079H33.048z"/>
			<path fill="#4D4D4D" d="M42.457,125.592h-3.156l-0.727,2.082h-0.612l2.643-7.465h0.559l2.623,7.465h-0.613L42.457,125.592z
				 M39.488,125.044h2.776l-1.363-3.958h-0.03L39.488,125.044z"/>
			<path fill="#4D4D4D" d="M48.952,125.858c0-0.382-0.146-0.698-0.439-0.948c-0.293-0.249-0.79-0.483-1.491-0.702
				c-0.768-0.219-1.352-0.491-1.751-0.817c-0.4-0.327-0.601-0.771-0.601-1.331c0-0.57,0.224-1.04,0.672-1.407
				s1.02-0.551,1.714-0.551c0.731,0,1.319,0.207,1.764,0.623c0.444,0.415,0.66,0.942,0.646,1.581l-0.01,0.031h-0.553
				c0-0.492-0.172-0.901-0.517-1.226c-0.344-0.325-0.787-0.487-1.331-0.487c-0.56,0-0.998,0.138-1.316,0.413
				c-0.317,0.275-0.477,0.612-0.477,1.013c0,0.379,0.145,0.691,0.433,0.936s0.796,0.473,1.523,0.685
				c0.758,0.229,1.335,0.511,1.733,0.846s0.598,0.779,0.598,1.333c0,0.581-0.232,1.049-0.698,1.402s-1.053,0.53-1.761,0.53
				s-1.326-0.187-1.853-0.562c-0.527-0.374-0.782-0.92-0.766-1.638l0.01-0.031h0.548c0,0.578,0.209,1.008,0.628,1.29
				c0.418,0.282,0.896,0.423,1.433,0.423c0.55,0,0.997-0.131,1.343-0.393C48.779,126.61,48.952,126.272,48.952,125.858z"/>
			<path fill="#4D4D4D" d="M17.684,136.66h-3.226v3.097h3.729v0.518h-4.322v-7.465h4.297v0.522h-3.704v2.805h3.226V136.66z"/>
			<path fill="#4D4D4D" d="M18.977,137.547c0-0.885,0.181-1.594,0.541-2.125c0.361-0.531,0.864-0.798,1.51-0.798
				c0.365,0,0.686,0.081,0.96,0.241c0.275,0.161,0.503,0.388,0.685,0.682v-3.271h0.593v7.998H22.78l-0.084-0.805
				c-0.181,0.294-0.411,0.52-0.691,0.677s-0.609,0.235-0.988,0.235c-0.639,0-1.138-0.247-1.499-0.74
				c-0.36-0.494-0.541-1.156-0.541-1.987V137.547z M19.569,137.654c0,0.67,0.13,1.203,0.388,1.6
				c0.259,0.396,0.648,0.595,1.169,0.595c0.382,0,0.699-0.088,0.953-0.264s0.451-0.42,0.593-0.73v-2.631
				c-0.135-0.314-0.326-0.57-0.573-0.769s-0.568-0.298-0.963-0.298c-0.521,0-0.911,0.222-1.173,0.664
				c-0.263,0.443-0.394,1.018-0.394,1.726V137.654z"/>
			<path fill="#4D4D4D" d="M28.338,139.372c-0.171,0.325-0.4,0.574-0.688,0.748c-0.288,0.175-0.63,0.262-1.025,0.262
				c-0.563,0-1.004-0.198-1.323-0.595c-0.32-0.396-0.479-1.012-0.479-1.846v-3.215h0.593v3.226c0,0.677,0.111,1.162,0.333,1.456
				c0.223,0.294,0.538,0.44,0.946,0.44c0.444,0,0.799-0.104,1.064-0.31c0.265-0.207,0.452-0.49,0.561-0.849v-3.964h0.593v5.548
				h-0.523L28.338,139.372z"/>
			<path fill="#4D4D4D" d="M32.428,139.864c0.379,0,0.714-0.116,1.005-0.349c0.292-0.232,0.438-0.556,0.438-0.969h0.528l0.01,0.03
				c0.014,0.513-0.181,0.942-0.582,1.287c-0.402,0.346-0.868,0.518-1.398,0.518c-0.711,0-1.266-0.26-1.662-0.779
				s-0.595-1.185-0.595-1.994v-0.216c0-0.807,0.197-1.47,0.593-1.989c0.395-0.52,0.948-0.779,1.659-0.779
				c0.573,0,1.051,0.18,1.433,0.539c0.382,0.358,0.566,0.83,0.553,1.415l-0.01,0.03H33.87c0-0.444-0.14-0.799-0.42-1.063
				c-0.279-0.265-0.622-0.397-1.027-0.397c-0.56,0-0.977,0.214-1.25,0.641c-0.273,0.428-0.409,0.962-0.409,1.604v0.216
				c0,0.653,0.136,1.192,0.409,1.617C31.446,139.651,31.865,139.864,32.428,139.864z"/>
			<path fill="#4D4D4D" d="M39.062,140.274c-0.036-0.195-0.063-0.362-0.082-0.503c-0.018-0.14-0.026-0.283-0.026-0.431
				c-0.185,0.302-0.443,0.55-0.775,0.746c-0.333,0.197-0.715,0.295-1.146,0.295c-0.523,0-0.93-0.145-1.218-0.433
				c-0.288-0.289-0.432-0.682-0.432-1.177c0-0.496,0.209-0.897,0.627-1.205s0.962-0.462,1.63-0.462h1.314v-0.687
				c0-0.396-0.121-0.708-0.363-0.934s-0.584-0.338-1.025-0.338c-0.404,0-0.731,0.103-0.98,0.308
				c-0.248,0.205-0.373,0.463-0.373,0.774h-0.548l-0.01-0.031c-0.02-0.417,0.152-0.783,0.516-1.1
				c0.364-0.316,0.839-0.475,1.426-0.475c0.586,0,1.057,0.156,1.412,0.467c0.355,0.312,0.534,0.757,0.534,1.338v2.728
				c0,0.195,0.01,0.385,0.031,0.569s0.058,0.368,0.106,0.549H39.062z M37.096,139.839c0.454,0,0.848-0.112,1.181-0.336
				c0.332-0.224,0.558-0.512,0.677-0.864v-1.062h-1.319c-0.48,0-0.878,0.119-1.19,0.356c-0.313,0.238-0.469,0.524-0.469,0.859
				c0,0.314,0.1,0.567,0.299,0.759S36.746,139.839,37.096,139.839z"/>
			<path fill="#4D4D4D" d="M43.072,139.864c0.379,0,0.714-0.116,1.005-0.349c0.292-0.232,0.438-0.556,0.438-0.969h0.528l0.01,0.03
				c0.014,0.513-0.181,0.942-0.582,1.287c-0.402,0.346-0.868,0.518-1.398,0.518c-0.711,0-1.266-0.26-1.662-0.779
				s-0.595-1.185-0.595-1.994v-0.216c0-0.807,0.197-1.47,0.593-1.989c0.395-0.52,0.948-0.779,1.659-0.779
				c0.573,0,1.051,0.18,1.433,0.539c0.382,0.358,0.566,0.83,0.553,1.415l-0.01,0.03h-0.528c0-0.444-0.14-0.799-0.42-1.063
				c-0.279-0.265-0.622-0.397-1.027-0.397c-0.56,0-0.977,0.214-1.25,0.641c-0.273,0.428-0.409,0.962-0.409,1.604v0.216
				c0,0.653,0.136,1.192,0.409,1.617C42.091,139.651,42.51,139.864,43.072,139.864z M43.216,140.32l-0.06,0.328
				c0.26,0.031,0.47,0.114,0.63,0.249s0.239,0.344,0.239,0.628c0,0.311-0.13,0.56-0.39,0.746c-0.261,0.187-0.633,0.279-1.116,0.279
				l-0.035-0.399c0.297,0,0.546-0.053,0.749-0.157c0.202-0.104,0.304-0.257,0.304-0.458c0-0.195-0.068-0.331-0.205-0.408
				s-0.377-0.129-0.719-0.156l0.143-0.651H43.216z"/>
			<path fill="#4D4D4D" d="M49.706,140.274c-0.036-0.195-0.063-0.362-0.082-0.503c-0.018-0.14-0.026-0.283-0.026-0.431
				c-0.185,0.302-0.443,0.55-0.775,0.746c-0.333,0.197-0.715,0.295-1.146,0.295c-0.523,0-0.93-0.145-1.218-0.433
				c-0.288-0.289-0.432-0.682-0.432-1.177c0-0.496,0.209-0.897,0.627-1.205s0.962-0.462,1.63-0.462h1.314v-0.687
				c0-0.396-0.121-0.708-0.363-0.934s-0.584-0.338-1.025-0.338c-0.404,0-0.731,0.103-0.98,0.308
				c-0.248,0.205-0.373,0.463-0.373,0.774h-0.548l-0.01-0.031c-0.02-0.417,0.152-0.783,0.516-1.1
				c0.364-0.316,0.839-0.475,1.426-0.475c0.586,0,1.057,0.156,1.412,0.467c0.355,0.312,0.534,0.757,0.534,1.338v2.728
				c0,0.195,0.01,0.385,0.031,0.569s0.058,0.368,0.106,0.549H49.706z M49.805,132.579c0,0.301-0.091,0.55-0.271,0.748
				c-0.182,0.198-0.407,0.298-0.677,0.298c-0.244,0-0.492-0.095-0.746-0.282c-0.254-0.188-0.469-0.282-0.646-0.282
				c-0.155,0-0.285,0.06-0.391,0.18c-0.105,0.119-0.158,0.271-0.158,0.456l-0.396-0.092c0-0.294,0.09-0.541,0.268-0.741
				s0.403-0.3,0.677-0.3c0.214,0,0.456,0.094,0.726,0.282c0.271,0.188,0.492,0.281,0.667,0.281c0.151,0,0.281-0.062,0.391-0.185
				c0.108-0.123,0.162-0.278,0.162-0.466L49.805,132.579z M47.74,139.839c0.454,0,0.848-0.112,1.181-0.336
				c0.332-0.224,0.558-0.512,0.677-0.864v-1.062h-1.319c-0.48,0-0.878,0.119-1.19,0.356c-0.313,0.238-0.469,0.524-0.469,0.859
				c0,0.314,0.1,0.567,0.299,0.759S47.391,139.839,47.74,139.839z"/>
			<path fill="#4D4D4D" d="M51.43,137.419c0-0.817,0.216-1.487,0.647-2.01c0.432-0.523,1.003-0.785,1.714-0.785
				c0.715,0,1.287,0.262,1.719,0.785c0.432,0.522,0.647,1.192,0.647,2.01v0.169c0,0.82-0.215,1.491-0.645,2.013
				c-0.43,0.521-1.001,0.781-1.712,0.781c-0.718,0-1.292-0.261-1.724-0.781c-0.432-0.521-0.647-1.192-0.647-2.013V137.419z
				 M52.022,137.588c0,0.643,0.156,1.183,0.47,1.62c0.313,0.438,0.749,0.656,1.309,0.656c0.55,0,0.982-0.219,1.297-0.656
				s0.472-0.978,0.472-1.62v-0.169c0-0.633-0.158-1.169-0.475-1.61c-0.315-0.44-0.75-0.661-1.304-0.661
				c-0.553,0-0.986,0.221-1.299,0.661c-0.313,0.441-0.47,0.978-0.47,1.61V137.588z"/>
		</g>
	</g>
	<g>
		<g>
			<g>
				<polygon fill="#274391" points="28.878,178.402 13.029,200.108 22.216,198.386 27.26,204.936 36.864,180.834 				"/>
			</g>
			<g>
				<polygon fill="#274391" points="39.854,178.402 55.709,200.108 46.521,198.386 41.472,204.936 31.877,180.834 				"/>
			</g>
			<g>
				<g>
					<path fill="#91C1E4" d="M56.138,176.878c0.047-0.041,0.092-0.085,0.137-0.13c0.21-0.183,0.409-0.287,0.409-0.287l-0.147-0.014
						c0.62-0.745,0.984-1.707,0.984-2.746c0-1.374-0.637-2.596-1.634-3.391l0.016,0.002c0,0-0.531-0.501-0.58-1.048
						c-0.012-0.091,0-0.185,0.03-0.287c0.169-0.251,0.31-0.521,0.418-0.809c0.091-0.112,0.15-0.185,0.15-0.185l-0.096,0.027
						c0.353-0.982,0.353-2.088-0.079-3.127c-0.451-1.057-1.268-1.843-2.232-2.278l0.086-0.009c0,0-0.895-0.408-1.074-0.928
						c-0.174-0.515,0.112-1.194,0.112-1.194l-0.074,0.055c0.162-1.285-0.245-2.632-1.236-3.625c-1.021-1.03-2.434-1.427-3.758-1.217
						c-0.209-0.01-0.432-0.046-0.622-0.144c-0.255-0.137-0.439-0.458-0.567-0.736c-0.344-1.26-1.241-2.354-2.547-2.885
						c-1.14-0.465-2.366-0.405-3.409,0.063l0.009-0.024c0,0-0.092,0.057-0.223,0.123c-0.027,0.018-0.063,0.024-0.094,0.043
						c-0.287,0.139-0.729,0.301-1.048,0.214c-0.289-0.075-0.545-0.291-0.721-0.474c-0.779-1.135-2.087-1.875-3.57-1.875
						c-1.304,0-2.466,0.571-3.269,1.483l0.005-0.078c0,0-0.402,0.613-0.932,0.748c-0.526,0.134-1.363-0.388-1.363-0.388l0.039,0.087
						c-0.959-0.338-2.045-0.345-3.065,0.077c-1.088,0.444-1.899,1.28-2.337,2.276l-0.029-0.08c0,0-0.03,0.178-0.093,0.39
						c-0.023,0.078-0.051,0.15-0.074,0.23c-0.098,0.255-0.231,0.526-0.428,0.668c-0.454,0.308-1.181,0.221-1.181,0.221l0.015,0.009
						c-1.211-0.079-2.444,0.342-3.364,1.268c-0.902,0.896-1.326,2.094-1.267,3.279l-0.041-0.037c0,0,0.191,0.709-0.041,1.196
						c-0.1,0.185-0.301,0.345-0.504,0.47c-1.317,0.316-2.461,1.235-3.016,2.577c-0.534,1.321-0.369,2.757,0.312,3.885l-0.11-0.052
						c0,0,0.399,0.619,0.313,1.162c-0.082,0.535-0.901,1.096-0.901,1.096l0.031-0.002c-0.885,0.797-1.44,1.937-1.44,3.222
						c0,1.395,0.658,2.627,1.677,3.425c0.174,0.171,0.388,0.433,0.456,0.72c0.136,0.531-0.41,1.358-0.41,1.358l0.042-0.021
						c-0.416,1.03-0.45,2.222,0.013,3.332c0.62,1.479,1.955,2.422,3.427,2.622c0.135,0.064,0.271,0.144,0.375,0.253
						c0.097,0.105,0.165,0.258,0.22,0.424c-0.049,1.174,0.369,2.354,1.264,3.245c0.87,0.875,2.011,1.285,3.151,1.273l-0.007,0.005
						c0,0,0.02-0.005,0.038-0.005c0.141,0,0.288-0.022,0.428-0.034c0.311-0.002,0.705,0.027,0.939,0.208
						c0.252,0.187,0.4,0.506,0.485,0.745c0.018,0.057,0.038,0.109,0.059,0.166c0.023,0.087,0.038,0.137,0.038,0.137l0.007-0.025
						c0.404,1.101,1.257,2.028,2.428,2.509c0.92,0.381,1.897,0.408,2.792,0.16l-0.005,0.014c0,0,0.021-0.014,0.048-0.021
						c0.187-0.058,0.377-0.126,0.556-0.201c0.258-0.068,0.559-0.113,0.784-0.034c0.116,0.044,0.221,0.109,0.313,0.188
						c0.779,1.176,2.109,1.945,3.625,1.945c1.263,0,2.394-0.537,3.181-1.395l0.007,0.048c0,0,0.037-0.063,0.099-0.154
						c0.078-0.099,0.159-0.196,0.232-0.297c0.141-0.157,0.321-0.305,0.527-0.383c0.509-0.191,1.396,0.244,1.396,0.244l-0.056-0.091
						c0.997,0.385,2.138,0.41,3.202-0.023c1.124-0.455,1.954-1.333,2.379-2.379l0.021,0.078c0,0,0.229-0.967,0.703-1.23
						c0.479-0.271,1.189-0.128,1.189-0.128l-0.056-0.046c1.172,0.041,2.362-0.373,3.255-1.273c0.859-0.854,1.283-1.98,1.276-3.099
						l0.025,0.024c0,0-0.019-0.063-0.03-0.171c-0.009-0.12-0.019-0.236-0.031-0.355c0-0.216,0.031-0.458,0.132-0.665
						c0.255-0.487,1.198-0.761,1.198-0.761l-0.049-0.012c1.125-0.396,2.084-1.256,2.572-2.447c0.479-1.174,0.401-2.432-0.09-3.491
						c-0.068-0.262-0.109-0.552-0.018-0.774C55.908,177.145,56.016,176.996,56.138,176.878z M44.705,182.909
						c-0.854,0.864-1.271,1.985-1.266,3.106c-1.035-0.442-2.236-0.49-3.357-0.032c-1.167,0.48-2.012,1.406-2.424,2.502
						c-0.769-0.679-1.771-1.096-2.881-1.096c-0.942,0-1.81,0.308-2.521,0.815c-0.448-0.969-1.245-1.786-2.313-2.222
						c-1.142-0.463-2.378-0.405-3.421,0.068c0.012-1.133-0.41-2.276-1.274-3.143c-0.865-0.865-2.015-1.292-3.151-1.271
						c0.158-0.809,0.083-1.67-0.268-2.495c-0.463-1.114-1.348-1.93-2.395-2.35c0.804-0.79,1.303-1.88,1.303-3.092
						c0-1.424-0.69-2.68-1.736-3.475c1.262-0.342,2.354-1.244,2.887-2.55c0.463-1.119,0.41-2.322-0.036-3.356
						c1.091-0.021,2.169-0.444,3.001-1.268c0.848-0.863,1.271-1.984,1.266-3.107c1.029,0.448,2.231,0.492,3.355,0.034
						c1.14-0.463,1.969-1.358,2.398-2.409c0.767,0.695,1.781,1.119,2.904,1.119c1.299,0,2.459-0.57,3.255-1.47
						c0.375,1.205,1.263,2.242,2.52,2.76c1.123,0.458,2.324,0.414,3.354-0.034c-0.002,1.123,0.417,2.244,1.27,3.107
						c0.792,0.786,1.81,1.203,2.846,1.256c-0.697,1.155-0.858,2.616-0.295,3.946c0.466,1.117,1.35,1.938,2.39,2.354
						c-0.796,0.79-1.292,1.877-1.292,3.092c0,0.943,0.308,1.818,0.815,2.527c-0.761,0.472-1.382,1.166-1.742,2.055
						c-0.459,1.121-0.406,2.332,0.032,3.359C46.769,181.604,45.601,182.025,44.705,182.909z"/>
				</g>
				<g>
					<g>
						<g>
							<path fill="#FFFFFF" d="M49.319,173.646c-0.33,7.967-7.063,14.16-15.034,13.827c-7.969-0.328-14.162-7.063-13.825-15.032
								c0.331-7.971,7.069-14.169,15.034-13.836C43.465,158.947,49.652,165.678,49.319,173.646z"/>
							<path fill="#274391" d="M34.9,188.506c-0.216,0-0.438-0.007-0.661-0.012c-4.12-0.168-7.937-1.945-10.732-4.985
								c-2.803-3.033-4.243-6.984-4.074-11.115c0.362-8.527,7.49-15.169,16.104-14.81c8.521,0.362,15.161,7.588,14.801,16.105
								C49.992,181.998,43.215,188.506,34.9,188.506L34.9,188.506z M34.877,159.614c-7.214,0-13.095,5.66-13.398,12.865
								c-0.154,3.58,1.105,7.007,3.527,9.648c2.425,2.641,5.736,4.177,9.322,4.327c7.478,0.31,13.665-5.448,13.969-12.85
								c0.312-7.401-5.454-13.665-12.85-13.975C35.256,159.621,35.071,159.614,34.877,159.614L34.877,159.614z"/>
						</g>
					</g>
				</g>
			</g>
		</g>
		<g>
			<path fill="#043988" d="M29.059,174.046c0,0.875-0.229,1.563-0.689,2.062s-1.069,0.748-1.828,0.748
				c-0.766,0-1.379-0.249-1.84-0.748c-0.462-0.499-0.692-1.187-0.692-2.062v-2.056c0-0.872,0.229-1.559,0.689-2.062
				c0.46-0.502,1.07-0.753,1.833-0.753c0.759,0,1.369,0.251,1.833,0.753c0.463,0.503,0.694,1.189,0.694,2.062V174.046z
				 M27.566,171.836c0-0.479-0.091-0.849-0.274-1.112c-0.183-0.263-0.437-0.395-0.761-0.395c-0.328,0-0.582,0.132-0.762,0.395
				c-0.18,0.264-0.269,0.634-0.269,1.112v2.354c0,0.489,0.09,0.864,0.271,1.126c0.181,0.261,0.438,0.392,0.769,0.392
				c0.325,0,0.577-0.131,0.757-0.392c0.179-0.262,0.269-0.637,0.269-1.126V171.836z"/>
			<path fill="#043988" d="M31.684,176.682l-0.814,1.615h-1l0.358-1.662v-1.169h1.456V176.682z"/>
			<path fill="#043988" d="M37.149,173.969h0.841v1.159h-0.841v1.62h-1.497v-1.62h-3.04l-0.072-0.897l3.097-4.947h1.513V173.969z
				 M33.898,173.969h1.754v-2.712l-0.031-0.005l-0.153,0.333L33.898,173.969z"/>
			<path fill="#043988" d="M38.765,170.719c0-0.441,0.143-0.809,0.428-1.103s0.683-0.44,1.192-0.44c0.516,0,0.916,0.146,1.199,0.438
				c0.284,0.292,0.426,0.66,0.426,1.104v0.395c0,0.441-0.142,0.807-0.426,1.098c-0.283,0.29-0.68,0.436-1.189,0.436
				c-0.513,0-0.912-0.146-1.199-0.436c-0.287-0.291-0.431-0.656-0.431-1.098V170.719z M39.759,171.113
				c0,0.198,0.055,0.365,0.164,0.5s0.267,0.202,0.472,0.202c0.198,0,0.352-0.067,0.459-0.202s0.162-0.302,0.162-0.5v-0.395
				c0-0.198-0.055-0.366-0.164-0.505c-0.11-0.139-0.266-0.208-0.467-0.208c-0.202,0-0.356,0.069-0.464,0.208
				c-0.108,0.139-0.162,0.307-0.162,0.505V171.113z M40.641,176.189l-0.728-0.385l3.646-5.835l0.728,0.385L40.641,176.189z
				 M42.333,174.918c0-0.438,0.144-0.804,0.431-1.098s0.686-0.44,1.194-0.44c0.513,0,0.912,0.146,1.197,0.438
				c0.285,0.292,0.428,0.658,0.428,1.1v0.395c0,0.444-0.142,0.812-0.425,1.103c-0.284,0.29-0.681,0.436-1.189,0.436
				c-0.513,0-0.914-0.146-1.203-0.438c-0.288-0.292-0.433-0.659-0.433-1.1V174.918z M43.327,175.313c0,0.194,0.06,0.361,0.177,0.5
				c0.118,0.139,0.273,0.207,0.465,0.207c0.222,0,0.381-0.063,0.477-0.191c0.096-0.129,0.144-0.301,0.144-0.516v-0.395
				c0-0.195-0.055-0.361-0.164-0.5s-0.265-0.208-0.467-0.208c-0.205,0-0.361,0.069-0.469,0.208c-0.108,0.139-0.162,0.305-0.162,0.5
				V175.313z"/>
		</g>
	</g>
</g>
</svg>
