<?xml version="1.0" encoding="utf-8"?>
<!-- Generator: Adobe Illustrator 14.0.0, SVG Export Plug-In . SVG Version: 6.00 Build 43363)  -->
<!DOCTYPE svg PUBLIC "-//W3C//DTD SVG 1.0//EN" "http://www.w3.org/TR/2001/REC-SVG-20010904/DTD/svg10.dtd">
<svg version="1.0" id="Camada_1" xmlns="http://www.w3.org/2000/svg" xmlns:xlink="http://www.w3.org/1999/xlink" x="0px" y="0px"
	 width="282px" height="118px" viewBox="0 0 282 118" enable-background="new 0 0 282 118" xml:space="preserve">
<path opacity="0.7" fill="#043988" d="M44.289,11.222c11.045,0,19.998,7.273,19.998,16.244c0,8.976-8.953,16.247-19.998,16.247
	c-1.057,0-2.101-0.068-3.116-0.195c-4.294,4.295-9.421,5.063-14.377,5.177v-1.051c2.677-1.31,4.998-3.7,4.998-6.43
	c0-0.379-0.03-0.755-0.085-1.122c-4.521-2.976-7.413-7.526-7.413-12.626C24.296,18.495,33.248,11.222,44.289,11.222"/>
<g>
	<g>
		<path fill="#4D4D4D" d="M13.236,68.657v3.102h-0.593v-7.465h2.479c0.754,0,1.338,0.2,1.751,0.6c0.413,0.4,0.62,0.927,0.62,1.579
			c0,0.663-0.207,1.193-0.62,1.59s-0.997,0.595-1.751,0.595H13.236z M13.236,68.134h1.887c0.593,0,1.037-0.156,1.334-0.469
			c0.296-0.313,0.444-0.707,0.444-1.182c0-0.479-0.148-0.876-0.444-1.192c-0.297-0.316-0.741-0.475-1.334-0.475h-1.887V68.134z"/>
		<path fill="#4D4D4D" d="M22.073,71.759c-0.036-0.195-0.063-0.362-0.082-0.503c-0.018-0.14-0.026-0.283-0.026-0.431
			c-0.185,0.302-0.443,0.55-0.775,0.746c-0.333,0.197-0.715,0.295-1.146,0.295c-0.523,0-0.93-0.145-1.218-0.433
			c-0.288-0.289-0.432-0.682-0.432-1.177c0-0.496,0.209-0.897,0.627-1.205s0.962-0.462,1.63-0.462h1.314v-0.687
			c0-0.396-0.121-0.708-0.363-0.934s-0.584-0.338-1.025-0.338c-0.404,0-0.731,0.103-0.98,0.308
			c-0.248,0.205-0.373,0.463-0.373,0.774h-0.548l-0.01-0.031c-0.02-0.417,0.152-0.783,0.516-1.1
			c0.364-0.316,0.839-0.475,1.426-0.475c0.586,0,1.057,0.156,1.412,0.467c0.355,0.312,0.534,0.757,0.534,1.338v2.728
			c0,0.195,0.01,0.385,0.031,0.569s0.058,0.368,0.106,0.549H22.073z M20.107,71.323c0.454,0,0.848-0.112,1.181-0.336
			c0.332-0.224,0.558-0.512,0.677-0.864v-1.062h-1.319c-0.48,0-0.878,0.119-1.19,0.356c-0.313,0.238-0.469,0.524-0.469,0.859
			c0,0.314,0.1,0.567,0.299,0.759S19.758,71.323,20.107,71.323z"/>
		<path fill="#4D4D4D" d="M26.568,66.739l-0.42-0.03c-0.372,0-0.678,0.108-0.916,0.325c-0.239,0.217-0.409,0.516-0.512,0.895v3.83
			h-0.593v-5.548h0.519l0.074,0.923v0.062c0.155-0.342,0.362-0.608,0.622-0.8c0.261-0.191,0.57-0.287,0.929-0.287
			c0.072,0,0.142,0.007,0.208,0.019c0.065,0.012,0.12,0.024,0.163,0.038L26.568,66.739z"/>
		<path fill="#4D4D4D" d="M28.588,64.791v1.42h1.176v0.503h-1.176v3.614c0,0.362,0.063,0.62,0.19,0.771
			c0.127,0.152,0.295,0.229,0.506,0.229c0.072,0,0.143-0.004,0.21-0.013s0.147-0.023,0.239-0.044l0.09,0.456
			c-0.079,0.042-0.178,0.075-0.294,0.101c-0.117,0.025-0.233,0.038-0.349,0.038c-0.375,0-0.668-0.123-0.877-0.369
			s-0.313-0.636-0.313-1.169v-3.614h-0.924v-0.503h0.924v-1.42H28.588z"/>
		<path fill="#4D4D4D" d="M31.581,64.622h-0.588v-0.861h0.588V64.622z M31.581,71.759h-0.588v-5.548h0.588V71.759z"/>
		<path fill="#4D4D4D" d="M35.172,71.349c0.379,0,0.714-0.116,1.005-0.349c0.292-0.232,0.438-0.556,0.438-0.969h0.528l0.01,0.03
			c0.014,0.513-0.181,0.942-0.582,1.287c-0.402,0.346-0.868,0.518-1.398,0.518c-0.711,0-1.266-0.26-1.662-0.779
			s-0.595-1.185-0.595-1.994v-0.216c0-0.807,0.197-1.47,0.593-1.989c0.395-0.52,0.948-0.779,1.659-0.779
			c0.573,0,1.051,0.18,1.433,0.539c0.382,0.358,0.566,0.83,0.553,1.415l-0.01,0.03h-0.528c0-0.444-0.14-0.799-0.42-1.063
			c-0.279-0.265-0.622-0.397-1.027-0.397c-0.56,0-0.977,0.214-1.25,0.641c-0.273,0.428-0.409,0.962-0.409,1.604v0.216
			c0,0.653,0.136,1.192,0.409,1.617C34.19,71.136,34.609,71.349,35.172,71.349z"/>
		<path fill="#4D4D4D" d="M39.084,64.622h-0.588v-0.861h0.588V64.622z M39.084,71.759h-0.588v-5.548h0.588V71.759z"/>
		<path fill="#4D4D4D" d="M45.021,69.139c0,0.831-0.182,1.493-0.544,1.987c-0.362,0.493-0.861,0.74-1.496,0.74
			c-0.372,0-0.699-0.073-0.98-0.221c-0.282-0.146-0.512-0.354-0.689-0.625v2.871h-0.593v-7.681h0.455l0.108,0.867
			c0.178-0.308,0.408-0.546,0.691-0.716c0.283-0.169,0.615-0.254,0.998-0.254c0.642,0,1.144,0.267,1.506,0.798
			s0.544,1.24,0.544,2.125V69.139z M44.429,69.031c0-0.704-0.136-1.278-0.405-1.723c-0.271-0.444-0.665-0.667-1.186-0.667
			c-0.392,0-0.712,0.098-0.961,0.293c-0.248,0.194-0.437,0.447-0.565,0.759v2.687c0.139,0.301,0.334,0.537,0.588,0.71
			s0.569,0.259,0.948,0.259c0.518,0,0.91-0.201,1.179-0.605c0.268-0.402,0.402-0.938,0.402-1.604V69.031z"/>
		<path fill="#4D4D4D" d="M49.734,71.759c-0.036-0.195-0.063-0.362-0.082-0.503c-0.018-0.14-0.026-0.283-0.026-0.431
			c-0.185,0.302-0.443,0.55-0.775,0.746c-0.333,0.197-0.715,0.295-1.146,0.295c-0.523,0-0.93-0.145-1.218-0.433
			c-0.288-0.289-0.432-0.682-0.432-1.177c0-0.496,0.209-0.897,0.627-1.205s0.962-0.462,1.63-0.462h1.314v-0.687
			c0-0.396-0.121-0.708-0.363-0.934s-0.584-0.338-1.025-0.338c-0.404,0-0.731,0.103-0.98,0.308
			c-0.248,0.205-0.373,0.463-0.373,0.774h-0.548l-0.01-0.031c-0.02-0.417,0.152-0.783,0.516-1.1
			c0.364-0.316,0.839-0.475,1.426-0.475c0.586,0,1.057,0.156,1.412,0.467c0.355,0.312,0.534,0.757,0.534,1.338v2.728
			c0,0.195,0.01,0.385,0.031,0.569s0.058,0.368,0.106,0.549H49.734z M47.769,71.323c0.454,0,0.848-0.112,1.181-0.336
			c0.332-0.224,0.558-0.512,0.677-0.864v-1.062h-1.319c-0.48,0-0.878,0.119-1.19,0.356c-0.313,0.238-0.469,0.524-0.469,0.859
			c0,0.314,0.1,0.567,0.299,0.759S47.419,71.323,47.769,71.323z"/>
		<path fill="#4D4D4D" d="M53.744,71.349c0.379,0,0.714-0.116,1.005-0.349c0.292-0.232,0.438-0.556,0.438-0.969h0.528l0.01,0.03
			c0.014,0.513-0.181,0.942-0.582,1.287c-0.402,0.346-0.868,0.518-1.398,0.518c-0.711,0-1.266-0.26-1.662-0.779
			s-0.595-1.185-0.595-1.994v-0.216c0-0.807,0.197-1.47,0.593-1.989c0.395-0.52,0.948-0.779,1.659-0.779
			c0.573,0,1.051,0.18,1.433,0.539c0.382,0.358,0.566,0.83,0.553,1.415l-0.01,0.03h-0.528c0-0.444-0.14-0.799-0.42-1.063
			c-0.279-0.265-0.622-0.397-1.027-0.397c-0.56,0-0.977,0.214-1.25,0.641c-0.273,0.428-0.409,0.962-0.409,1.604v0.216
			c0,0.653,0.136,1.192,0.409,1.617C52.763,71.136,53.182,71.349,53.744,71.349z M53.888,71.805l-0.06,0.328
			c0.26,0.031,0.47,0.114,0.63,0.249s0.239,0.344,0.239,0.628c0,0.311-0.13,0.56-0.39,0.746c-0.261,0.187-0.633,0.279-1.116,0.279
			l-0.035-0.399c0.297,0,0.546-0.053,0.749-0.157c0.202-0.104,0.304-0.257,0.304-0.458c0-0.195-0.068-0.331-0.205-0.408
			s-0.377-0.129-0.719-0.156l0.143-0.651H53.888z"/>
		<path fill="#4D4D4D" d="M60.379,71.759c-0.036-0.195-0.063-0.362-0.082-0.503c-0.018-0.14-0.026-0.283-0.026-0.431
			c-0.185,0.302-0.443,0.55-0.775,0.746c-0.333,0.197-0.715,0.295-1.146,0.295c-0.523,0-0.93-0.145-1.218-0.433
			c-0.288-0.289-0.432-0.682-0.432-1.177c0-0.496,0.209-0.897,0.627-1.205s0.962-0.462,1.63-0.462h1.314v-0.687
			c0-0.396-0.121-0.708-0.363-0.934s-0.584-0.338-1.025-0.338c-0.404,0-0.731,0.103-0.98,0.308
			c-0.248,0.205-0.373,0.463-0.373,0.774H56.98l-0.01-0.031c-0.02-0.417,0.152-0.783,0.516-1.1c0.364-0.316,0.839-0.475,1.426-0.475
			c0.586,0,1.057,0.156,1.412,0.467c0.355,0.312,0.534,0.757,0.534,1.338v2.728c0,0.195,0.01,0.385,0.031,0.569
			s0.058,0.368,0.106,0.549H60.379z M60.478,64.063c0,0.301-0.091,0.55-0.271,0.748c-0.182,0.198-0.407,0.298-0.677,0.298
			c-0.244,0-0.492-0.095-0.746-0.282c-0.254-0.188-0.469-0.282-0.646-0.282c-0.155,0-0.285,0.06-0.391,0.18
			c-0.105,0.119-0.158,0.271-0.158,0.456l-0.396-0.092c0-0.294,0.09-0.541,0.268-0.741s0.403-0.3,0.677-0.3
			c0.214,0,0.456,0.094,0.726,0.282c0.271,0.188,0.492,0.281,0.667,0.281c0.151,0,0.281-0.062,0.391-0.185
			c0.108-0.123,0.162-0.278,0.162-0.466L60.478,64.063z M58.413,71.323c0.454,0,0.848-0.112,1.181-0.336
			c0.332-0.224,0.558-0.512,0.677-0.864v-1.062h-1.319c-0.48,0-0.878,0.119-1.19,0.356c-0.313,0.238-0.469,0.524-0.469,0.859
			c0,0.314,0.1,0.567,0.299,0.759S58.063,71.323,58.413,71.323z"/>
		<path fill="#4D4D4D" d="M62.102,68.903c0-0.817,0.216-1.487,0.647-2.01c0.432-0.523,1.003-0.785,1.714-0.785
			c0.715,0,1.287,0.262,1.719,0.785c0.432,0.522,0.647,1.192,0.647,2.01v0.169c0,0.82-0.215,1.491-0.645,2.013
			c-0.43,0.521-1.001,0.781-1.712,0.781c-0.718,0-1.292-0.261-1.724-0.781c-0.432-0.521-0.647-1.192-0.647-2.013V68.903z
			 M62.694,69.072c0,0.643,0.156,1.183,0.47,1.62c0.313,0.438,0.749,0.656,1.309,0.656c0.55,0,0.982-0.219,1.297-0.656
			s0.472-0.978,0.472-1.62v-0.169c0-0.633-0.158-1.169-0.475-1.61c-0.315-0.44-0.75-0.661-1.304-0.661
			c-0.553,0-0.986,0.221-1.299,0.661c-0.313,0.441-0.47,0.978-0.47,1.61V69.072z"/>
		<path fill="#4D4D4D" d="M14.535,84.467c-0.691,0-1.253-0.254-1.685-0.761c-0.432-0.508-0.646-1.16-0.646-1.956v-0.282
			c0-0.8,0.218-1.46,0.654-1.979s0.977-0.779,1.622-0.779c0.649,0,1.15,0.217,1.505,0.649c0.354,0.432,0.53,1.014,0.53,1.745v0.477
			h-3.719v0.17c0,0.632,0.153,1.157,0.462,1.573c0.308,0.418,0.733,0.626,1.276,0.626c0.326,0,0.626-0.056,0.899-0.167
			c0.272-0.11,0.5-0.26,0.682-0.448l0.252,0.42c-0.188,0.205-0.435,0.376-0.739,0.511S14.96,84.467,14.535,84.467z M14.48,79.232
			c-0.454,0-0.828,0.169-1.121,0.508c-0.293,0.338-0.464,0.767-0.514,1.286l0.015,0.031h3.063V80.93
			c0-0.492-0.124-0.898-0.373-1.218C15.302,79.393,14.945,79.232,14.48,79.232z"/>
		<path fill="#4D4D4D" d="M18.215,78.812l0.055,0.913c0.171-0.321,0.399-0.571,0.684-0.749c0.285-0.178,0.623-0.267,1.016-0.267
			c0.408,0,0.749,0.103,1.022,0.306s0.469,0.514,0.588,0.931c0.161-0.387,0.391-0.689,0.688-0.908s0.658-0.328,1.079-0.328
			c0.57,0,1.011,0.197,1.321,0.59c0.312,0.394,0.467,1.002,0.467,1.825v3.235h-0.593v-3.245c0-0.684-0.116-1.167-0.351-1.448
			c-0.233-0.282-0.557-0.424-0.968-0.424c-0.451,0-0.8,0.144-1.047,0.429s-0.403,0.653-0.47,1.104c0,0.038,0.001,0.075,0.003,0.113
			c0.001,0.037,0.002,0.085,0.002,0.144v3.327h-0.598v-3.245c0-0.67-0.117-1.149-0.353-1.438c-0.236-0.289-0.56-0.434-0.971-0.434
			c-0.415,0-0.745,0.109-0.991,0.326c-0.245,0.217-0.417,0.51-0.516,0.879v3.912h-0.593v-5.548H18.215z"/>
		<path fill="#4D4D4D" d="M34.229,82.026l0.01,0.031c0.014,0.731-0.217,1.315-0.691,1.753s-1.097,0.656-1.867,0.656
			c-0.8,0-1.445-0.3-1.937-0.899c-0.49-0.6-0.735-1.377-0.735-2.33v-1.216c0-0.95,0.245-1.727,0.735-2.33
			c0.491-0.603,1.137-0.904,1.937-0.904c0.78,0,1.405,0.213,1.875,0.641c0.469,0.427,0.697,1.015,0.684,1.764l-0.01,0.03h-0.554
			c0-0.602-0.177-1.07-0.53-1.407c-0.354-0.336-0.843-0.505-1.465-0.505c-0.629,0-1.134,0.253-1.514,0.759
			c-0.381,0.506-0.57,1.153-0.57,1.943v1.226c0,0.8,0.189,1.451,0.57,1.956c0.38,0.504,0.885,0.756,1.514,0.756
			c0.622,0,1.11-0.164,1.465-0.492c0.354-0.328,0.53-0.805,0.53-1.431H34.229z"/>
		<path fill="#4D4D4D" d="M35.291,81.504c0-0.817,0.216-1.487,0.647-2.01c0.432-0.523,1.003-0.785,1.714-0.785
			c0.715,0,1.287,0.262,1.719,0.785c0.432,0.522,0.647,1.192,0.647,2.01v0.169c0,0.82-0.215,1.491-0.645,2.013
			c-0.43,0.521-1.001,0.781-1.712,0.781c-0.718,0-1.292-0.261-1.724-0.781c-0.432-0.521-0.647-1.192-0.647-2.013V81.504z
			 M35.884,81.673c0,0.643,0.156,1.183,0.47,1.62c0.313,0.438,0.749,0.656,1.309,0.656c0.55,0,0.982-0.219,1.297-0.656
			s0.472-0.978,0.472-1.62v-0.169c0-0.633-0.158-1.169-0.475-1.61c-0.315-0.44-0.75-0.661-1.304-0.661
			c-0.553,0-0.986,0.221-1.299,0.661c-0.313,0.441-0.47,0.978-0.47,1.61V81.673z"/>
		<path fill="#4D4D4D" d="M41.776,78.812l0.055,0.964c0.175-0.338,0.406-0.601,0.696-0.786c0.29-0.187,0.634-0.28,1.032-0.28
			c0.58,0,1.021,0.185,1.324,0.552s0.454,0.94,0.454,1.72v3.379h-0.593v-3.374c0-0.636-0.114-1.085-0.343-1.348
			c-0.229-0.264-0.555-0.396-0.976-0.396c-0.422,0-0.762,0.108-1.021,0.323c-0.259,0.216-0.445,0.504-0.561,0.866v3.928h-0.593
			v-5.548H41.776z"/>
		<path fill="#4D4D4D" d="M50.085,82.939c0-0.26-0.104-0.486-0.309-0.68c-0.206-0.193-0.577-0.352-1.114-0.475
			c-0.632-0.136-1.103-0.323-1.41-0.561c-0.308-0.238-0.462-0.57-0.462-0.998c0-0.424,0.172-0.782,0.517-1.076
			c0.344-0.294,0.799-0.441,1.365-0.441c0.596,0,1.072,0.157,1.428,0.47s0.525,0.698,0.509,1.156l-0.01,0.03H50.05
			c0-0.304-0.126-0.569-0.378-0.795s-0.585-0.338-1-0.338c-0.428,0-0.751,0.098-0.968,0.292c-0.218,0.195-0.326,0.422-0.326,0.682
			c0,0.253,0.093,0.463,0.279,0.629c0.186,0.165,0.557,0.312,1.113,0.438c0.626,0.144,1.1,0.344,1.421,0.601
			c0.32,0.256,0.481,0.602,0.481,1.035c0,0.462-0.181,0.837-0.541,1.126c-0.36,0.288-0.838,0.433-1.43,0.433
			c-0.649,0-1.159-0.16-1.529-0.481s-0.546-0.704-0.526-1.148l0.01-0.031H47.2c0.022,0.4,0.181,0.69,0.472,0.872
			c0.291,0.181,0.635,0.271,1.03,0.271c0.428,0,0.766-0.099,1.012-0.298C49.961,83.454,50.085,83.216,50.085,82.939z"/>
		<path fill="#4D4D4D" d="M54.065,84.467c-0.691,0-1.253-0.254-1.685-0.761c-0.432-0.508-0.646-1.16-0.646-1.956v-0.282
			c0-0.8,0.218-1.46,0.654-1.979s0.977-0.779,1.622-0.779c0.649,0,1.15,0.217,1.505,0.649c0.354,0.432,0.53,1.014,0.53,1.745v0.477
			h-3.719v0.17c0,0.632,0.153,1.157,0.462,1.573c0.308,0.418,0.733,0.626,1.276,0.626c0.326,0,0.626-0.056,0.899-0.167
			c0.272-0.11,0.5-0.26,0.682-0.448l0.252,0.42c-0.188,0.205-0.435,0.376-0.739,0.511S54.49,84.467,54.065,84.467z M54.011,79.232
			c-0.454,0-0.828,0.169-1.121,0.508c-0.293,0.338-0.464,0.767-0.514,1.286l0.015,0.031h3.063V80.93
			c0-0.492-0.124-0.898-0.373-1.218C54.832,79.393,54.476,79.232,54.011,79.232z"/>
		<path fill="#4D4D4D" d="M57.903,84.359h-0.588v-7.998h0.588V84.359z"/>
		<path fill="#4D4D4D" d="M60.131,79.755c0.182-0.331,0.419-0.588,0.714-0.771c0.295-0.183,0.64-0.274,1.035-0.274
			c0.563,0,0.995,0.182,1.296,0.544c0.302,0.362,0.452,0.925,0.452,1.687v3.42h-0.593v-3.43c0-0.602-0.114-1.033-0.343-1.295
			c-0.229-0.262-0.545-0.393-0.946-0.393c-0.415,0-0.757,0.105-1.024,0.315c-0.269,0.211-0.466,0.491-0.591,0.844v3.958h-0.593
			v-7.998h0.593V79.755z"/>
		<path fill="#4D4D4D" d="M64.839,81.504c0-0.817,0.216-1.487,0.647-2.01c0.432-0.523,1.003-0.785,1.714-0.785
			c0.715,0,1.287,0.262,1.719,0.785c0.432,0.522,0.647,1.192,0.647,2.01v0.169c0,0.82-0.215,1.491-0.645,2.013
			c-0.43,0.521-1.001,0.781-1.712,0.781c-0.718,0-1.292-0.261-1.724-0.781c-0.432-0.521-0.647-1.192-0.647-2.013V81.504z
			 M65.432,81.673c0,0.643,0.156,1.183,0.47,1.62c0.313,0.438,0.749,0.656,1.309,0.656c0.55,0,0.982-0.219,1.297-0.656
			s0.472-0.978,0.472-1.62v-0.169c0-0.633-0.158-1.169-0.475-1.61c-0.315-0.44-0.75-0.661-1.304-0.661
			c-0.553,0-0.986,0.221-1.299,0.661c-0.313,0.441-0.47,0.978-0.47,1.61V81.673z"/>
		<path fill="#4D4D4D" d="M74.002,82.939c0-0.26-0.104-0.486-0.309-0.68c-0.206-0.193-0.577-0.352-1.114-0.475
			c-0.632-0.136-1.103-0.323-1.41-0.561c-0.308-0.238-0.462-0.57-0.462-0.998c0-0.424,0.172-0.782,0.517-1.076
			c0.344-0.294,0.799-0.441,1.365-0.441c0.596,0,1.072,0.157,1.428,0.47s0.525,0.698,0.509,1.156l-0.01,0.03h-0.549
			c0-0.304-0.126-0.569-0.378-0.795s-0.585-0.338-1-0.338c-0.428,0-0.751,0.098-0.968,0.292c-0.218,0.195-0.326,0.422-0.326,0.682
			c0,0.253,0.093,0.463,0.279,0.629c0.186,0.165,0.557,0.312,1.113,0.438c0.626,0.144,1.1,0.344,1.421,0.601
			c0.32,0.256,0.481,0.602,0.481,1.035c0,0.462-0.181,0.837-0.541,1.126c-0.36,0.288-0.838,0.433-1.43,0.433
			c-0.649,0-1.159-0.16-1.529-0.481s-0.546-0.704-0.526-1.148l0.01-0.031h0.544c0.022,0.4,0.18,0.69,0.472,0.872
			c0.291,0.181,0.635,0.271,1.03,0.271c0.428,0,0.766-0.099,1.012-0.298C73.878,83.454,74.002,83.216,74.002,82.939z"/>
		<path fill="#4D4D4D" d="M76.511,84.267l-0.523,1.416h-0.405l0.341-1.431v-0.856h0.588V84.267z"/>
		<path fill="#4D4D4D" d="M17.598,94.626l0.01,0.031c0.014,0.731-0.217,1.315-0.691,1.753s-1.097,0.656-1.867,0.656
			c-0.8,0-1.445-0.3-1.937-0.899c-0.49-0.6-0.735-1.377-0.735-2.33v-1.216c0-0.95,0.245-1.727,0.735-2.33
			c0.491-0.603,1.137-0.904,1.937-0.904c0.78,0,1.405,0.213,1.875,0.641c0.469,0.427,0.697,1.015,0.684,1.764l-0.01,0.03h-0.554
			c0-0.602-0.177-1.07-0.53-1.407c-0.354-0.336-0.843-0.505-1.465-0.505c-0.629,0-1.134,0.253-1.514,0.759
			c-0.381,0.506-0.57,1.153-0.57,1.943v1.226c0,0.8,0.189,1.451,0.57,1.956c0.38,0.504,0.885,0.756,1.514,0.756
			c0.622,0,1.11-0.164,1.465-0.492c0.354-0.328,0.53-0.805,0.53-1.431H17.598z"/>
		<path fill="#4D4D4D" d="M18.659,94.104c0-0.817,0.216-1.487,0.647-2.01c0.432-0.523,1.003-0.785,1.714-0.785
			c0.715,0,1.287,0.262,1.719,0.785c0.432,0.522,0.647,1.192,0.647,2.01v0.169c0,0.82-0.215,1.491-0.645,2.013
			c-0.43,0.521-1.001,0.781-1.712,0.781c-0.718,0-1.292-0.261-1.724-0.781c-0.432-0.521-0.647-1.192-0.647-2.013V94.104z
			 M19.252,94.272c0,0.643,0.156,1.183,0.47,1.62c0.313,0.438,0.749,0.656,1.309,0.656c0.55,0,0.982-0.219,1.297-0.656
			s0.472-0.978,0.472-1.62v-0.169c0-0.633-0.158-1.169-0.475-1.61c-0.315-0.44-0.75-0.661-1.304-0.661
			c-0.553,0-0.986,0.221-1.299,0.661c-0.313,0.441-0.47,0.978-0.47,1.61V94.272z"/>
		<path fill="#4D4D4D" d="M25.125,91.411l0.055,0.913c0.171-0.321,0.399-0.571,0.684-0.749c0.285-0.178,0.623-0.267,1.016-0.267
			c0.408,0,0.749,0.103,1.022,0.306s0.469,0.514,0.588,0.931c0.161-0.387,0.391-0.689,0.688-0.908s0.658-0.328,1.079-0.328
			c0.57,0,1.011,0.197,1.321,0.59c0.312,0.394,0.467,1.002,0.467,1.825v3.235h-0.593v-3.245c0-0.684-0.116-1.167-0.351-1.448
			c-0.233-0.282-0.557-0.424-0.968-0.424c-0.451,0-0.8,0.144-1.047,0.429s-0.403,0.653-0.47,1.104c0,0.038,0.001,0.075,0.003,0.113
			c0.001,0.037,0.002,0.085,0.002,0.144v3.327h-0.598v-3.245c0-0.67-0.117-1.149-0.353-1.438c-0.236-0.289-0.56-0.434-0.971-0.434
			c-0.415,0-0.745,0.109-0.991,0.326c-0.245,0.217-0.417,0.51-0.516,0.879v3.912h-0.593v-5.548H25.125z"/>
		<path fill="#4D4D4D" d="M34.249,89.822h-0.588v-0.861h0.588V89.822z M34.249,96.959h-0.588v-5.548h0.588V96.959z"/>
		<path fill="#4D4D4D" d="M39.085,95.539c0-0.26-0.104-0.486-0.309-0.68c-0.206-0.193-0.577-0.352-1.114-0.475
			c-0.632-0.136-1.103-0.323-1.41-0.561c-0.308-0.238-0.462-0.57-0.462-0.998c0-0.424,0.172-0.782,0.517-1.076
			c0.344-0.294,0.799-0.441,1.365-0.441c0.596,0,1.072,0.157,1.428,0.47s0.525,0.698,0.509,1.156l-0.01,0.03H39.05
			c0-0.304-0.126-0.569-0.378-0.795s-0.585-0.338-1-0.338c-0.428,0-0.751,0.098-0.968,0.292c-0.218,0.195-0.326,0.422-0.326,0.682
			c0,0.253,0.093,0.463,0.279,0.629c0.186,0.165,0.557,0.312,1.113,0.438c0.626,0.144,1.1,0.344,1.421,0.601
			c0.32,0.256,0.481,0.602,0.481,1.035c0,0.462-0.181,0.837-0.541,1.126c-0.36,0.288-0.838,0.433-1.43,0.433
			c-0.649,0-1.159-0.16-1.529-0.481s-0.546-0.704-0.526-1.148l0.01-0.031H36.2c0.022,0.4,0.181,0.69,0.472,0.872
			c0.291,0.181,0.635,0.271,1.03,0.271c0.428,0,0.766-0.099,1.012-0.298C38.961,96.054,39.085,95.815,39.085,95.539z"/>
		<path fill="#4D4D4D" d="M44.236,95.539c0-0.26-0.104-0.486-0.309-0.68c-0.206-0.193-0.577-0.352-1.114-0.475
			c-0.632-0.136-1.103-0.323-1.41-0.561c-0.308-0.238-0.462-0.57-0.462-0.998c0-0.424,0.172-0.782,0.517-1.076
			c0.344-0.294,0.799-0.441,1.365-0.441c0.596,0,1.072,0.157,1.428,0.47s0.525,0.698,0.509,1.156l-0.01,0.03h-0.549
			c0-0.304-0.126-0.569-0.378-0.795s-0.585-0.338-1-0.338c-0.428,0-0.751,0.098-0.968,0.292c-0.218,0.195-0.326,0.422-0.326,0.682
			c0,0.253,0.093,0.463,0.279,0.629c0.186,0.165,0.557,0.312,1.113,0.438c0.626,0.144,1.1,0.344,1.421,0.601
			c0.32,0.256,0.481,0.602,0.481,1.035c0,0.462-0.181,0.837-0.541,1.126c-0.36,0.288-0.838,0.433-1.43,0.433
			c-0.649,0-1.159-0.16-1.529-0.481s-0.546-0.704-0.526-1.148l0.01-0.031h0.544c0.022,0.4,0.18,0.69,0.472,0.872
			c0.291,0.181,0.635,0.271,1.03,0.271c0.428,0,0.766-0.099,1.012-0.298C44.112,96.054,44.236,95.815,44.236,95.539z"/>
		<path fill="#4D4D4D" d="M45.856,94.104c0-0.817,0.216-1.487,0.647-2.01c0.432-0.523,1.003-0.785,1.714-0.785
			c0.715,0,1.287,0.262,1.719,0.785c0.432,0.522,0.647,1.192,0.647,2.01v0.169c0,0.82-0.215,1.491-0.645,2.013
			c-0.43,0.521-1.001,0.781-1.712,0.781c-0.718,0-1.292-0.261-1.724-0.781c-0.432-0.521-0.647-1.192-0.647-2.013V94.104z
			 M46.449,94.272c0,0.643,0.156,1.183,0.47,1.62c0.313,0.438,0.749,0.656,1.309,0.656c0.55,0,0.982-0.219,1.297-0.656
			s0.472-0.978,0.472-1.62v-0.169c0-0.633-0.158-1.169-0.475-1.61c-0.315-0.44-0.75-0.661-1.304-0.661
			c-0.553,0-0.986,0.221-1.299,0.661c-0.313,0.441-0.47,0.978-0.47,1.61V94.272z M49.862,89.269c0,0.301-0.09,0.55-0.271,0.748
			c-0.181,0.198-0.406,0.298-0.677,0.298c-0.243,0-0.492-0.094-0.746-0.282c-0.253-0.188-0.469-0.282-0.646-0.282
			c-0.155,0-0.285,0.061-0.391,0.18c-0.105,0.12-0.158,0.271-0.158,0.456l-0.395-0.092c0-0.294,0.089-0.541,0.267-0.741
			c0.178-0.199,0.403-0.3,0.677-0.3c0.214,0,0.456,0.094,0.726,0.282c0.271,0.188,0.492,0.282,0.667,0.282
			c0.151,0,0.282-0.062,0.391-0.185s0.163-0.279,0.163-0.467L49.862,89.269z"/>
		<path fill="#4D4D4D" d="M53.849,97.066c-0.691,0-1.253-0.254-1.685-0.761c-0.432-0.508-0.646-1.16-0.646-1.956v-0.282
			c0-0.8,0.218-1.46,0.654-1.979s0.977-0.779,1.622-0.779c0.649,0,1.15,0.217,1.505,0.649c0.354,0.432,0.53,1.014,0.53,1.745v0.477
			H52.11v0.17c0,0.632,0.153,1.157,0.462,1.573c0.308,0.418,0.733,0.626,1.276,0.626c0.326,0,0.626-0.056,0.899-0.167
			c0.272-0.11,0.5-0.26,0.682-0.448l0.252,0.42c-0.188,0.205-0.435,0.376-0.739,0.511S54.273,97.066,53.849,97.066z M53.794,91.832
			c-0.454,0-0.828,0.169-1.121,0.508c-0.293,0.338-0.464,0.767-0.514,1.286l0.015,0.031h3.063v-0.128
			c0-0.492-0.124-0.898-0.373-1.218C54.615,91.992,54.259,91.832,53.794,91.832z"/>
		<path fill="#4D4D4D" d="M60.226,95.539c0-0.26-0.104-0.486-0.309-0.68c-0.206-0.193-0.577-0.352-1.114-0.475
			c-0.632-0.136-1.103-0.323-1.41-0.561c-0.308-0.238-0.462-0.57-0.462-0.998c0-0.424,0.172-0.782,0.517-1.076
			c0.344-0.294,0.799-0.441,1.365-0.441c0.596,0,1.072,0.157,1.428,0.47s0.525,0.698,0.509,1.156l-0.01,0.03H60.19
			c0-0.304-0.126-0.569-0.378-0.795s-0.585-0.338-1-0.338c-0.428,0-0.751,0.098-0.968,0.292c-0.218,0.195-0.326,0.422-0.326,0.682
			c0,0.253,0.093,0.463,0.279,0.629c0.186,0.165,0.557,0.312,1.113,0.438c0.626,0.144,1.1,0.344,1.421,0.601
			c0.32,0.256,0.481,0.602,0.481,1.035c0,0.462-0.181,0.837-0.541,1.126c-0.36,0.288-0.838,0.433-1.43,0.433
			c-0.649,0-1.159-0.16-1.529-0.481s-0.546-0.704-0.526-1.148l0.01-0.031h0.544c0.022,0.4,0.181,0.69,0.472,0.872
			c0.291,0.181,0.635,0.271,1.03,0.271c0.428,0,0.766-0.099,1.012-0.298C60.102,96.054,60.226,95.815,60.226,95.539z"/>
		<path fill="#4D4D4D" d="M66.666,97.066c-0.691,0-1.253-0.254-1.685-0.761c-0.432-0.508-0.646-1.16-0.646-1.956v-0.282
			c0-0.8,0.218-1.46,0.654-1.979s0.977-0.779,1.622-0.779c0.649,0,1.15,0.217,1.505,0.649c0.354,0.432,0.53,1.014,0.53,1.745v0.477
			h-3.719v0.17c0,0.632,0.153,1.157,0.462,1.573c0.308,0.418,0.733,0.626,1.276,0.626c0.326,0,0.626-0.056,0.899-0.167
			c0.272-0.11,0.5-0.26,0.682-0.448l0.252,0.42c-0.188,0.205-0.435,0.376-0.739,0.511S67.091,97.066,66.666,97.066z M66.611,91.832
			c-0.454,0-0.828,0.169-1.121,0.508c-0.293,0.338-0.464,0.767-0.514,1.286l0.015,0.031h3.063v-0.128
			c0-0.492-0.124-0.898-0.373-1.218C67.433,91.992,67.076,91.832,66.611,91.832z"/>
		<path fill="#4D4D4D" d="M17.598,107.227l0.01,0.031c0.014,0.731-0.217,1.315-0.691,1.753s-1.097,0.656-1.867,0.656
			c-0.8,0-1.445-0.3-1.937-0.899c-0.49-0.6-0.735-1.377-0.735-2.33v-1.216c0-0.95,0.245-1.727,0.735-2.33
			c0.491-0.603,1.137-0.904,1.937-0.904c0.78,0,1.405,0.213,1.875,0.641c0.469,0.427,0.697,1.015,0.684,1.764l-0.01,0.03h-0.554
			c0-0.602-0.177-1.07-0.53-1.407c-0.354-0.336-0.843-0.505-1.465-0.505c-0.629,0-1.134,0.253-1.514,0.759
			c-0.381,0.506-0.57,1.153-0.57,1.943v1.226c0,0.8,0.189,1.451,0.57,1.956c0.38,0.504,0.885,0.756,1.514,0.756
			c0.622,0,1.11-0.164,1.465-0.492c0.354-0.328,0.53-0.805,0.53-1.431H17.598z"/>
		<path fill="#4D4D4D" d="M18.659,106.704c0-0.817,0.216-1.487,0.647-2.01c0.432-0.523,1.003-0.785,1.714-0.785
			c0.715,0,1.287,0.262,1.719,0.785c0.432,0.522,0.647,1.192,0.647,2.01v0.169c0,0.82-0.215,1.491-0.645,2.013
			c-0.43,0.521-1.001,0.781-1.712,0.781c-0.718,0-1.292-0.261-1.724-0.781c-0.432-0.521-0.647-1.192-0.647-2.013V106.704z
			 M19.252,106.873c0,0.643,0.156,1.183,0.47,1.62c0.313,0.438,0.749,0.656,1.309,0.656c0.55,0,0.982-0.219,1.297-0.656
			s0.472-0.978,0.472-1.62v-0.169c0-0.633-0.158-1.169-0.475-1.61c-0.315-0.44-0.75-0.661-1.304-0.661
			c-0.553,0-0.986,0.221-1.299,0.661c-0.313,0.441-0.47,0.978-0.47,1.61V106.873z"/>
		<path fill="#4D4D4D" d="M25.125,104.012l0.055,0.913c0.171-0.321,0.399-0.571,0.684-0.749c0.285-0.178,0.623-0.267,1.016-0.267
			c0.408,0,0.749,0.103,1.022,0.306s0.469,0.514,0.588,0.931c0.161-0.387,0.391-0.689,0.688-0.908s0.658-0.328,1.079-0.328
			c0.57,0,1.011,0.197,1.321,0.59c0.312,0.394,0.467,1.002,0.467,1.825v3.235h-0.593v-3.245c0-0.684-0.116-1.167-0.351-1.448
			c-0.233-0.282-0.557-0.424-0.968-0.424c-0.451,0-0.8,0.144-1.047,0.429s-0.403,0.653-0.47,1.104c0,0.038,0.001,0.075,0.003,0.113
			c0.001,0.037,0.002,0.085,0.002,0.144v3.327h-0.598v-3.245c0-0.67-0.117-1.149-0.353-1.438c-0.236-0.289-0.56-0.434-0.971-0.434
			c-0.415,0-0.745,0.109-0.991,0.326c-0.245,0.217-0.417,0.51-0.516,0.879v3.912h-0.593v-5.548H25.125z"/>
		<path fill="#4D4D4D" d="M34.249,102.423h-0.588v-0.861h0.588V102.423z M34.249,109.56h-0.588v-5.548h0.588V109.56z"/>
		<path fill="#4D4D4D" d="M36.808,102.592v1.42h1.176v0.503h-1.176v3.614c0,0.362,0.063,0.62,0.19,0.771
			c0.127,0.152,0.295,0.229,0.506,0.229c0.072,0,0.143-0.004,0.21-0.013s0.147-0.023,0.239-0.044l0.09,0.456
			c-0.079,0.042-0.178,0.075-0.294,0.101c-0.117,0.025-0.233,0.038-0.349,0.038c-0.375,0-0.668-0.123-0.877-0.369
			s-0.313-0.636-0.313-1.169v-3.614h-0.924v-0.503h0.924v-1.42H36.808z"/>
		<path fill="#4D4D4D" d="M41.169,109.667c-0.691,0-1.253-0.254-1.685-0.761c-0.432-0.508-0.646-1.16-0.646-1.956v-0.282
			c0-0.8,0.218-1.46,0.654-1.979s0.977-0.779,1.622-0.779c0.649,0,1.15,0.217,1.505,0.649c0.354,0.432,0.53,1.014,0.53,1.745v0.477
			h-3.719v0.17c0,0.632,0.153,1.157,0.462,1.573c0.308,0.418,0.733,0.626,1.276,0.626c0.326,0,0.626-0.056,0.899-0.167
			c0.272-0.11,0.5-0.26,0.682-0.448l0.252,0.42c-0.188,0.205-0.435,0.376-0.739,0.511S41.594,109.667,41.169,109.667z
			 M41.114,104.433c-0.454,0-0.828,0.169-1.121,0.508c-0.293,0.338-0.464,0.767-0.514,1.286l0.015,0.031h3.063v-0.128
			c0-0.492-0.124-0.898-0.373-1.218C41.936,104.593,41.579,104.433,41.114,104.433z M42.443,102.904v0.093H41.89l-0.824-0.861
			l-0.82,0.861h-0.543v-0.107l1.121-1.134h0.484L42.443,102.904z"/>
		<path fill="#4D4D4D" d="M47.546,108.14c0-0.26-0.104-0.486-0.309-0.68c-0.206-0.193-0.577-0.352-1.114-0.475
			c-0.632-0.136-1.103-0.323-1.41-0.561c-0.308-0.238-0.462-0.57-0.462-0.998c0-0.424,0.172-0.782,0.517-1.076
			c0.344-0.294,0.799-0.441,1.365-0.441c0.596,0,1.072,0.157,1.428,0.47s0.525,0.698,0.509,1.156l-0.01,0.03h-0.549
			c0-0.304-0.126-0.569-0.378-0.795s-0.585-0.338-1-0.338c-0.428,0-0.751,0.098-0.968,0.292c-0.218,0.195-0.326,0.422-0.326,0.682
			c0,0.253,0.093,0.463,0.279,0.629c0.186,0.165,0.557,0.312,1.113,0.438c0.626,0.144,1.1,0.344,1.421,0.601
			c0.32,0.256,0.481,0.602,0.481,1.035c0,0.462-0.181,0.837-0.541,1.126c-0.36,0.288-0.838,0.433-1.43,0.433
			c-0.649,0-1.159-0.16-1.529-0.481s-0.546-0.704-0.526-1.148l0.01-0.031h0.544c0.022,0.4,0.181,0.69,0.472,0.872
			c0.291,0.181,0.635,0.271,1.03,0.271c0.428,0,0.766-0.099,1.012-0.298C47.422,108.654,47.546,108.416,47.546,108.14z"/>
	</g>
</g>
<g>
	<path fill="#FFFFFF" d="M36.665,28.663c0,1.167-0.307,2.083-0.919,2.748c-0.613,0.665-1.426,0.998-2.438,0.998
		c-1.021,0-1.839-0.333-2.454-0.998s-0.923-1.581-0.923-2.748v-2.741c0-1.162,0.307-2.078,0.92-2.748
		c0.612-0.67,1.427-1.005,2.443-1.005c1.012,0,1.826,0.335,2.444,1.005c0.617,0.67,0.926,1.586,0.926,2.748V28.663z M34.676,25.717
		c0-0.638-0.122-1.133-0.365-1.483c-0.244-0.351-0.583-0.526-1.016-0.526c-0.438,0-0.775,0.176-1.015,0.526
		s-0.359,0.846-0.359,1.483v3.138c0,0.651,0.121,1.151,0.362,1.5s0.583,0.523,1.025,0.523c0.433,0,0.77-0.175,1.009-0.523
		s0.358-0.849,0.358-1.5V25.717z"/>
	<path fill="#FFFFFF" d="M40.165,32.177l-1.087,2.153h-1.333l0.479-2.215v-1.559h1.941V32.177z"/>
	<path fill="#FFFFFF" d="M48.402,32.266h-6.679V30.96l3.083-3.486c0.46-0.542,0.787-1.002,0.981-1.378
		c0.193-0.376,0.29-0.721,0.29-1.035c0-0.41-0.103-0.738-0.308-0.984s-0.513-0.369-0.923-0.369c-0.433,0-0.768,0.157-1.005,0.472
		s-0.355,0.713-0.355,1.196h-1.941l-0.014-0.041c-0.022-0.884,0.269-1.633,0.875-2.246c0.606-0.612,1.42-0.919,2.44-0.919
		s1.813,0.261,2.379,0.782c0.565,0.522,0.848,1.223,0.848,2.103c0,0.597-0.158,1.142-0.475,1.634
		c-0.317,0.492-0.863,1.174-1.638,2.044L44.321,30.7l0.014,0.034h4.067V32.266z"/>
	<path fill="#FFFFFF" d="M49.605,24.227c0-0.588,0.19-1.078,0.571-1.47c0.38-0.392,0.91-0.588,1.589-0.588
		c0.688,0,1.222,0.194,1.6,0.584s0.567,0.881,0.567,1.474v0.526c0,0.588-0.189,1.075-0.567,1.463s-0.907,0.581-1.586,0.581
		c-0.684,0-1.217-0.193-1.6-0.581s-0.574-0.875-0.574-1.463V24.227z M50.932,24.753c0,0.265,0.073,0.486,0.219,0.666
		c0.146,0.181,0.355,0.271,0.629,0.271c0.265,0,0.469-0.09,0.612-0.271c0.144-0.18,0.215-0.401,0.215-0.666v-0.526
		c0-0.265-0.073-0.489-0.219-0.674s-0.354-0.276-0.622-0.276s-0.475,0.092-0.618,0.276s-0.216,0.409-0.216,0.674V24.753z
		 M52.107,31.521l-0.971-0.513l4.86-7.779l0.971,0.513L52.107,31.521z M54.363,29.825c0-0.583,0.191-1.071,0.574-1.463
		s0.914-0.588,1.593-0.588c0.684,0,1.216,0.194,1.597,0.584c0.38,0.39,0.57,0.879,0.57,1.467v0.526c0,0.593-0.189,1.082-0.567,1.47
		s-0.907,0.581-1.586,0.581c-0.684,0-1.218-0.195-1.603-0.585c-0.386-0.39-0.578-0.878-0.578-1.466V29.825z M55.689,30.352
		c0,0.26,0.079,0.481,0.236,0.666s0.363,0.277,0.618,0.277c0.296,0,0.508-0.086,0.636-0.257s0.191-0.399,0.191-0.687v-0.526
		c0-0.26-0.073-0.482-0.219-0.667s-0.354-0.276-0.622-0.276c-0.273,0-0.481,0.092-0.625,0.276s-0.216,0.407-0.216,0.667V30.352z"/>
</g>
<g>
	<path opacity="0.7" fill="#D5001E" d="M115.401,11.222c11.043,0,19.996,7.273,19.996,16.244c0,8.976-8.953,16.247-19.996,16.247
		c-1.059,0-2.102-0.068-3.117-0.195c-4.294,4.295-9.423,5.063-14.379,5.177v-1.051c2.678-1.31,4.999-3.7,4.999-6.43
		c0-0.379-0.03-0.755-0.085-1.122c-4.52-2.976-7.412-7.526-7.412-12.626C95.407,18.495,104.358,11.222,115.401,11.222"/>
	<g>
		<g>
			<path fill="#4D4D4D" d="M99.725,72.01h-3.156l-0.727,2.082h-0.612l2.643-7.465h0.559l2.623,7.465h-0.613L99.725,72.01z
				 M96.756,71.462h2.776l-1.363-3.958h-0.03L96.756,71.462z"/>
			<path fill="#4D4D4D" d="M105.228,72.672c0-0.26-0.104-0.486-0.309-0.68c-0.206-0.193-0.577-0.352-1.114-0.475
				c-0.632-0.136-1.103-0.323-1.41-0.561c-0.308-0.238-0.462-0.57-0.462-0.998c0-0.424,0.172-0.782,0.517-1.076
				c0.344-0.294,0.799-0.441,1.365-0.441c0.596,0,1.072,0.157,1.428,0.47s0.525,0.698,0.509,1.156l-0.01,0.03h-0.549
				c0-0.304-0.126-0.569-0.378-0.795s-0.585-0.338-1-0.338c-0.428,0-0.751,0.098-0.968,0.292c-0.218,0.195-0.326,0.422-0.326,0.682
				c0,0.253,0.093,0.463,0.279,0.629c0.186,0.165,0.557,0.312,1.113,0.438c0.626,0.144,1.1,0.344,1.421,0.601
				c0.32,0.256,0.481,0.602,0.481,1.035c0,0.462-0.181,0.837-0.541,1.126c-0.36,0.288-0.838,0.433-1.43,0.433
				c-0.649,0-1.159-0.16-1.529-0.481s-0.546-0.704-0.526-1.148l0.01-0.031h0.544c0.022,0.4,0.181,0.69,0.472,0.872
				c0.291,0.181,0.635,0.271,1.03,0.271c0.428,0,0.766-0.099,1.012-0.298C105.104,73.187,105.228,72.948,105.228,72.672z"/>
			<path fill="#4D4D4D" d="M110.379,72.672c0-0.26-0.104-0.486-0.309-0.68c-0.206-0.193-0.577-0.352-1.114-0.475
				c-0.632-0.136-1.103-0.323-1.41-0.561c-0.308-0.238-0.462-0.57-0.462-0.998c0-0.424,0.172-0.782,0.517-1.076
				c0.344-0.294,0.799-0.441,1.365-0.441c0.596,0,1.072,0.157,1.428,0.47s0.525,0.698,0.509,1.156l-0.01,0.03h-0.549
				c0-0.304-0.126-0.569-0.378-0.795s-0.585-0.338-1-0.338c-0.428,0-0.751,0.098-0.968,0.292c-0.218,0.195-0.326,0.422-0.326,0.682
				c0,0.253,0.093,0.463,0.279,0.629c0.186,0.165,0.557,0.312,1.113,0.438c0.626,0.144,1.1,0.344,1.421,0.601
				c0.32,0.256,0.481,0.602,0.481,1.035c0,0.462-0.181,0.837-0.541,1.126c-0.36,0.288-0.838,0.433-1.43,0.433
				c-0.649,0-1.159-0.16-1.529-0.481s-0.546-0.704-0.526-1.148l0.01-0.031h0.544c0.022,0.4,0.18,0.69,0.472,0.872
				c0.291,0.181,0.635,0.271,1.03,0.271c0.428,0,0.766-0.099,1.012-0.298C110.255,73.187,110.379,72.948,110.379,72.672z"/>
			<path fill="#4D4D4D" d="M114.36,74.199c-0.691,0-1.253-0.254-1.685-0.761c-0.432-0.508-0.646-1.16-0.646-1.956V71.2
				c0-0.8,0.218-1.46,0.654-1.979s0.977-0.779,1.622-0.779c0.649,0,1.15,0.217,1.505,0.649c0.354,0.432,0.53,1.014,0.53,1.745v0.477
				h-3.719v0.17c0,0.632,0.153,1.157,0.462,1.573c0.308,0.418,0.733,0.626,1.276,0.626c0.326,0,0.626-0.056,0.899-0.167
				c0.272-0.11,0.5-0.26,0.682-0.448l0.252,0.42c-0.188,0.205-0.435,0.376-0.739,0.511S114.785,74.199,114.36,74.199z
				 M114.306,68.965c-0.454,0-0.828,0.169-1.121,0.508c-0.293,0.338-0.464,0.767-0.514,1.286l0.015,0.031h3.063v-0.128
				c0-0.492-0.124-0.898-0.373-1.218C115.127,69.125,114.771,68.965,114.306,68.965z"/>
			<path fill="#4D4D4D" d="M118.06,68.544l0.055,0.964c0.175-0.338,0.406-0.601,0.696-0.786c0.29-0.187,0.634-0.28,1.032-0.28
				c0.58,0,1.021,0.185,1.324,0.552s0.454,0.94,0.454,1.72v3.379h-0.593v-3.374c0-0.636-0.114-1.085-0.343-1.348
				c-0.229-0.264-0.555-0.396-0.976-0.396c-0.422,0-0.762,0.108-1.021,0.323c-0.259,0.216-0.445,0.504-0.561,0.866v3.928h-0.593
				v-5.548H118.06z"/>
			<path fill="#4D4D4D" d="M124.091,67.124v1.42h1.176v0.503h-1.176v3.614c0,0.362,0.063,0.62,0.19,0.771
				c0.127,0.152,0.295,0.229,0.506,0.229c0.072,0,0.143-0.004,0.21-0.013s0.147-0.023,0.239-0.044l0.09,0.456
				c-0.079,0.042-0.178,0.075-0.294,0.101c-0.117,0.025-0.233,0.038-0.349,0.038c-0.375,0-0.668-0.123-0.877-0.369
				s-0.313-0.636-0.313-1.169v-3.614h-0.924v-0.503h0.924v-1.42H124.091z"/>
			<path fill="#4D4D4D" d="M126.091,71.236c0-0.817,0.216-1.487,0.647-2.01c0.432-0.523,1.003-0.785,1.714-0.785
				c0.715,0,1.287,0.262,1.719,0.785c0.432,0.522,0.647,1.192,0.647,2.01v0.169c0,0.82-0.215,1.491-0.645,2.013
				c-0.43,0.521-1.001,0.781-1.712,0.781c-0.718,0-1.292-0.261-1.724-0.781c-0.432-0.521-0.647-1.192-0.647-2.013V71.236z
				 M126.684,71.405c0,0.643,0.156,1.183,0.47,1.62c0.313,0.438,0.749,0.656,1.309,0.656c0.55,0,0.982-0.219,1.297-0.656
				s0.472-0.978,0.472-1.62v-0.169c0-0.633-0.158-1.169-0.475-1.61c-0.315-0.44-0.75-0.661-1.304-0.661
				c-0.553,0-0.986,0.221-1.299,0.661c-0.313,0.441-0.47,0.978-0.47,1.61V71.405z"/>
			<path fill="#4D4D4D" d="M135.255,72.672c0-0.26-0.104-0.486-0.309-0.68c-0.206-0.193-0.577-0.352-1.114-0.475
				c-0.632-0.136-1.103-0.323-1.41-0.561c-0.308-0.238-0.462-0.57-0.462-0.998c0-0.424,0.172-0.782,0.517-1.076
				c0.344-0.294,0.799-0.441,1.365-0.441c0.596,0,1.072,0.157,1.428,0.47s0.525,0.698,0.509,1.156l-0.01,0.03h-0.549
				c0-0.304-0.126-0.569-0.378-0.795s-0.585-0.338-1-0.338c-0.428,0-0.751,0.098-0.968,0.292c-0.218,0.195-0.326,0.422-0.326,0.682
				c0,0.253,0.093,0.463,0.279,0.629c0.186,0.165,0.557,0.312,1.113,0.438c0.626,0.144,1.1,0.344,1.421,0.601
				c0.32,0.256,0.481,0.602,0.481,1.035c0,0.462-0.181,0.837-0.541,1.126c-0.36,0.288-0.838,0.433-1.43,0.433
				c-0.649,0-1.159-0.16-1.529-0.481s-0.546-0.704-0.526-1.148l0.01-0.031h0.544c0.022,0.4,0.181,0.69,0.472,0.872
				c0.291,0.181,0.635,0.271,1.03,0.271c0.428,0,0.766-0.099,1.012-0.298C135.131,73.187,135.255,72.948,135.255,72.672z"/>
		</g>
	</g>
	<g>
		<path fill="#FFFFFF" d="M104.304,27.877l0.574-5.564h5.551v1.6h-3.917l-0.273,2.324c0.187-0.137,0.422-0.25,0.704-0.339
			s0.59-0.138,0.923-0.146c0.925-0.014,1.642,0.272,2.15,0.857c0.508,0.586,0.762,1.407,0.762,2.465
			c0,0.976-0.275,1.775-0.827,2.399s-1.395,0.937-2.529,0.937c-0.916,0-1.7-0.243-2.352-0.729s-0.966-1.151-0.943-1.999l0.014-0.034
			l1.921-0.089c0,0.415,0.125,0.738,0.376,0.971s0.579,0.349,0.984,0.349c0.474,0,0.819-0.155,1.036-0.465
			c0.216-0.31,0.324-0.752,0.324-1.326s-0.118-1.031-0.355-1.371c-0.237-0.339-0.588-0.509-1.053-0.509
			c-0.383,0-0.676,0.07-0.878,0.212c-0.203,0.142-0.348,0.333-0.435,0.574L104.304,27.877z"/>
		<path fill="#FFFFFF" d="M112.336,27.877l0.574-5.564h5.551v1.6h-3.917l-0.273,2.324c0.187-0.137,0.422-0.25,0.704-0.339
			s0.59-0.138,0.923-0.146c0.925-0.014,1.642,0.272,2.15,0.857c0.508,0.586,0.762,1.407,0.762,2.465
			c0,0.976-0.275,1.775-0.827,2.399s-1.395,0.937-2.529,0.937c-0.916,0-1.7-0.243-2.352-0.729s-0.966-1.151-0.943-1.999l0.014-0.034
			l1.921-0.089c0,0.415,0.125,0.738,0.376,0.971s0.579,0.349,0.984,0.349c0.474,0,0.819-0.155,1.036-0.465
			c0.216-0.31,0.324-0.752,0.324-1.326s-0.118-1.031-0.355-1.371c-0.237-0.339-0.588-0.509-1.053-0.509
			c-0.383,0-0.676,0.07-0.878,0.212c-0.203,0.142-0.348,0.333-0.435,0.574L112.336,27.877z"/>
		<path fill="#FFFFFF" d="M123.376,26.414c0.474,0,0.826-0.123,1.057-0.369c0.229-0.246,0.345-0.593,0.345-1.039
			c0-0.374-0.121-0.684-0.362-0.93s-0.579-0.369-1.012-0.369c-0.364,0-0.671,0.111-0.919,0.335
			c-0.249,0.224-0.373,0.508-0.373,0.854h-1.928l-0.014-0.041c-0.027-0.779,0.273-1.422,0.902-1.928s1.406-0.759,2.331-0.759
			c1.03,0,1.848,0.242,2.454,0.728s0.909,1.182,0.909,2.089c0,0.456-0.131,0.874-0.393,1.254c-0.263,0.381-0.621,0.681-1.077,0.899
			c0.52,0.196,0.921,0.493,1.203,0.892c0.282,0.399,0.424,0.881,0.424,1.446c0,0.911-0.329,1.628-0.987,2.149
			c-0.659,0.522-1.503,0.783-2.533,0.783c-0.907,0-1.7-0.246-2.379-0.738s-1.007-1.183-0.984-2.071l0.014-0.041h1.941
			c0,0.374,0.131,0.687,0.394,0.939c0.262,0.253,0.6,0.38,1.015,0.38c0.456,0,0.825-0.135,1.107-0.403s0.424-0.608,0.424-1.019
			c0-0.524-0.132-0.913-0.396-1.166s-0.651-0.379-1.162-0.379h-1.101v-1.497H123.376z"/>
	</g>
</g>
<g>
	<path opacity="0.7" fill="#DB6714" d="M181.844,10.146c11.044,0,19.997,7.273,19.997,16.243c0,8.976-8.953,16.247-19.997,16.247
		c-1.059,0-2.101-0.066-3.116-0.196c-4.295,4.293-9.421,5.065-14.378,5.177v-1.05c2.676-1.311,4.999-3.701,4.999-6.431
		c0-0.379-0.032-0.755-0.085-1.121c-4.521-2.977-7.414-7.526-7.414-12.626C161.85,17.419,170.802,10.146,181.844,10.146"/>
	<g>
		<g>
			<path fill="#4D4D4D" d="M163.133,70.887c0-0.382-0.146-0.698-0.439-0.948c-0.293-0.249-0.79-0.483-1.491-0.702
				c-0.768-0.219-1.352-0.491-1.751-0.817c-0.4-0.327-0.601-0.771-0.601-1.331c0-0.57,0.224-1.04,0.672-1.407
				s1.02-0.551,1.714-0.551c0.731,0,1.319,0.207,1.764,0.623c0.444,0.415,0.66,0.942,0.646,1.581l-0.01,0.031h-0.553
				c0-0.492-0.172-0.901-0.517-1.226c-0.344-0.325-0.787-0.487-1.331-0.487c-0.56,0-0.998,0.138-1.316,0.413
				c-0.317,0.275-0.477,0.612-0.477,1.013c0,0.379,0.145,0.691,0.433,0.936s0.796,0.473,1.523,0.685
				c0.758,0.229,1.335,0.511,1.733,0.846s0.598,0.779,0.598,1.333c0,0.581-0.232,1.049-0.698,1.402s-1.053,0.53-1.761,0.53
				s-1.326-0.187-1.853-0.562c-0.527-0.374-0.782-0.92-0.766-1.638l0.01-0.031h0.548c0,0.578,0.209,1.008,0.628,1.29
				c0.418,0.282,0.896,0.423,1.433,0.423c0.55,0,0.997-0.131,1.343-0.393C162.96,71.639,163.133,71.301,163.133,70.887z"/>
			<path fill="#4D4D4D" d="M168.542,71.8c-0.171,0.325-0.4,0.574-0.688,0.748c-0.288,0.175-0.63,0.262-1.025,0.262
				c-0.563,0-1.004-0.198-1.323-0.595c-0.32-0.396-0.479-1.012-0.479-1.846v-3.215h0.593v3.226c0,0.677,0.111,1.162,0.333,1.456
				c0.223,0.294,0.538,0.44,0.946,0.44c0.444,0,0.799-0.104,1.064-0.31c0.265-0.207,0.452-0.49,0.561-0.849v-3.964h0.593v5.548
				h-0.523L168.542,71.8z"/>
			<path fill="#4D4D4D" d="M174.979,70.082c0,0.831-0.182,1.493-0.544,1.987c-0.362,0.493-0.861,0.74-1.496,0.74
				c-0.372,0-0.699-0.073-0.98-0.221c-0.282-0.146-0.512-0.354-0.689-0.625v2.871h-0.593v-7.681h0.455l0.108,0.867
				c0.178-0.308,0.408-0.546,0.691-0.716c0.283-0.169,0.615-0.254,0.998-0.254c0.642,0,1.144,0.267,1.506,0.798
				s0.544,1.24,0.544,2.125V70.082z M174.386,69.975c0-0.704-0.136-1.278-0.405-1.723c-0.271-0.444-0.665-0.667-1.186-0.667
				c-0.392,0-0.712,0.098-0.961,0.293c-0.248,0.194-0.437,0.447-0.565,0.759v2.687c0.139,0.301,0.334,0.537,0.588,0.71
				s0.569,0.259,0.948,0.259c0.518,0,0.91-0.201,1.179-0.605c0.268-0.402,0.402-0.938,0.402-1.604V69.975z"/>
			<path fill="#4D4D4D" d="M176.969,72.702h-0.588v-7.998h0.588V72.702z"/>
			<path fill="#4D4D4D" d="M180.634,72.81c-0.691,0-1.253-0.254-1.685-0.761c-0.432-0.508-0.646-1.16-0.646-1.956v-0.282
				c0-0.8,0.218-1.46,0.654-1.979s0.977-0.779,1.622-0.779c0.649,0,1.15,0.217,1.505,0.649c0.354,0.432,0.53,1.014,0.53,1.745v0.477
				h-3.719v0.17c0,0.632,0.153,1.157,0.462,1.573c0.308,0.418,0.733,0.626,1.276,0.626c0.326,0,0.626-0.056,0.899-0.167
				c0.272-0.11,0.5-0.26,0.682-0.448l0.252,0.42c-0.188,0.205-0.435,0.376-0.739,0.511S181.059,72.81,180.634,72.81z
				 M180.579,67.575c-0.454,0-0.828,0.169-1.121,0.508c-0.293,0.338-0.464,0.767-0.514,1.286l0.015,0.031h3.063v-0.128
				c0-0.492-0.124-0.898-0.373-1.218C181.4,67.735,181.044,67.575,180.579,67.575z M181.908,66.047v0.093h-0.554l-0.824-0.861
				l-0.82,0.861h-0.543v-0.107l1.121-1.134h0.484L181.908,66.047z"/>
			<path fill="#4D4D4D" d="M184.333,67.154l0.055,0.964c0.175-0.338,0.406-0.601,0.696-0.786c0.29-0.187,0.634-0.28,1.032-0.28
				c0.58,0,1.021,0.185,1.324,0.552s0.454,0.94,0.454,1.72v3.379h-0.593v-3.374c0-0.636-0.114-1.085-0.343-1.348
				c-0.229-0.264-0.555-0.396-0.976-0.396c-0.422,0-0.762,0.108-1.021,0.323c-0.259,0.216-0.445,0.504-0.561,0.866v3.928h-0.593
				v-5.548H184.333z"/>
			<path fill="#4D4D4D" d="M191.396,72.292c0.379,0,0.714-0.116,1.005-0.349c0.292-0.232,0.438-0.556,0.438-0.969h0.528l0.01,0.03
				c0.014,0.513-0.181,0.942-0.582,1.287c-0.402,0.346-0.868,0.518-1.398,0.518c-0.711,0-1.266-0.26-1.662-0.779
				s-0.595-1.185-0.595-1.994V69.82c0-0.807,0.197-1.47,0.593-1.989c0.395-0.52,0.948-0.779,1.659-0.779
				c0.573,0,1.051,0.18,1.433,0.539c0.382,0.358,0.566,0.83,0.553,1.415l-0.01,0.03h-0.528c0-0.444-0.14-0.799-0.42-1.063
				c-0.279-0.265-0.622-0.397-1.027-0.397c-0.56,0-0.977,0.214-1.25,0.641c-0.273,0.428-0.409,0.962-0.409,1.604v0.216
				c0,0.653,0.136,1.192,0.409,1.617C190.415,72.079,190.834,72.292,191.396,72.292z"/>
			<path fill="#4D4D4D" d="M195.309,65.565h-0.588v-0.861h0.588V65.565z M195.309,72.702h-0.588v-5.548h0.588V72.702z"/>
			<path fill="#4D4D4D" d="M200.327,72.702c-0.036-0.195-0.063-0.362-0.082-0.503c-0.018-0.14-0.026-0.283-0.026-0.431
				c-0.185,0.302-0.443,0.55-0.775,0.746c-0.333,0.197-0.715,0.295-1.146,0.295c-0.523,0-0.93-0.145-1.218-0.433
				c-0.288-0.289-0.432-0.682-0.432-1.177c0-0.496,0.209-0.897,0.627-1.205s0.962-0.462,1.63-0.462h1.314v-0.687
				c0-0.396-0.121-0.708-0.363-0.934s-0.584-0.338-1.025-0.338c-0.404,0-0.731,0.103-0.98,0.308
				c-0.248,0.205-0.373,0.463-0.373,0.774h-0.548l-0.01-0.031c-0.02-0.417,0.152-0.783,0.516-1.1
				c0.364-0.316,0.839-0.475,1.426-0.475c0.586,0,1.057,0.156,1.412,0.467c0.355,0.312,0.534,0.757,0.534,1.338v2.728
				c0,0.195,0.01,0.385,0.031,0.569s0.058,0.368,0.106,0.549H200.327z M198.361,72.267c0.454,0,0.848-0.112,1.181-0.336
				c0.332-0.224,0.558-0.512,0.677-0.864v-1.062h-1.319c-0.48,0-0.878,0.119-1.19,0.356c-0.313,0.238-0.469,0.524-0.469,0.859
				c0,0.314,0.1,0.567,0.299,0.759S198.012,72.267,198.361,72.267z"/>
			<path fill="#4D4D4D" d="M205.583,71.282c0-0.26-0.104-0.486-0.309-0.68c-0.206-0.193-0.577-0.352-1.114-0.475
				c-0.632-0.136-1.103-0.323-1.41-0.561c-0.308-0.238-0.462-0.57-0.462-0.998c0-0.424,0.172-0.782,0.517-1.076
				c0.344-0.294,0.799-0.441,1.365-0.441c0.596,0,1.072,0.157,1.428,0.47s0.525,0.698,0.509,1.156l-0.01,0.03h-0.549
				c0-0.304-0.126-0.569-0.378-0.795s-0.585-0.338-1-0.338c-0.428,0-0.751,0.098-0.968,0.292c-0.218,0.195-0.326,0.422-0.326,0.682
				c0,0.253,0.093,0.463,0.279,0.629c0.186,0.165,0.557,0.312,1.113,0.438c0.626,0.144,1.1,0.344,1.421,0.601
				c0.32,0.256,0.481,0.602,0.481,1.035c0,0.462-0.181,0.837-0.541,1.126c-0.36,0.288-0.838,0.433-1.43,0.433
				c-0.649,0-1.159-0.16-1.529-0.481s-0.546-0.704-0.526-1.148l0.01-0.031h0.544c0.022,0.4,0.181,0.69,0.472,0.872
				c0.291,0.181,0.635,0.271,1.03,0.271c0.428,0,0.766-0.099,1.012-0.298C205.459,71.797,205.583,71.559,205.583,71.282z"/>
		</g>
	</g>
	<g>
		<path fill="#FFFFFF" d="M175.236,32.044h-1.989v-8.217h-2.058v-1.524l4.047-0.355V32.044z"/>
		<path fill="#FFFFFF" d="M185.046,24.675c0,0.492-0.128,0.929-0.383,1.309c-0.255,0.381-0.606,0.679-1.053,0.893
			c0.542,0.224,0.973,0.543,1.292,0.96s0.479,0.895,0.479,1.433c0,0.921-0.32,1.637-0.96,2.149c-0.641,0.513-1.46,0.77-2.458,0.77
			c-1.044,0-1.9-0.257-2.57-0.77s-1.005-1.229-1.005-2.149c0-0.538,0.165-1.016,0.496-1.433c0.33-0.417,0.777-0.736,1.343-0.96
			c-0.47-0.214-0.837-0.512-1.104-0.893c-0.267-0.38-0.4-0.816-0.4-1.309c0-0.875,0.299-1.549,0.896-2.021s1.374-0.707,2.331-0.707
			c0.916,0,1.661,0.235,2.235,0.707S185.046,23.8,185.046,24.675z M183.385,29.173c0-0.442-0.138-0.806-0.413-1.091
			c-0.276-0.284-0.617-0.427-1.022-0.427c-0.446,0-0.818,0.143-1.114,0.427c-0.296,0.285-0.444,0.648-0.444,1.091
			c0,0.451,0.147,0.812,0.441,1.08s0.671,0.403,1.131,0.403c0.41,0,0.75-0.135,1.019-0.403S183.385,29.624,183.385,29.173z
			 M183.057,24.764c0-0.392-0.103-0.703-0.308-0.934c-0.205-0.229-0.472-0.345-0.8-0.345c-0.374,0-0.672,0.112-0.896,0.338
			s-0.335,0.539-0.335,0.94c0,0.405,0.114,0.732,0.342,0.98c0.228,0.249,0.528,0.373,0.902,0.373c0.328,0,0.593-0.123,0.793-0.369
			S183.057,25.174,183.057,24.764z"/>
		<path fill="#FFFFFF" d="M190.433,21.947c0.388,0,0.746,0.035,1.077,0.105c0.33,0.071,0.657,0.175,0.98,0.312l-0.355,1.463
			c-0.31-0.104-0.588-0.184-0.834-0.236c-0.246-0.052-0.531-0.078-0.854-0.078c-0.583,0-1.054,0.224-1.411,0.67
			c-0.358,0.446-0.537,1.068-0.537,1.866v0.321c0.265-0.26,0.58-0.462,0.947-0.605c0.366-0.144,0.775-0.215,1.227-0.215
			c0.853,0,1.518,0.302,1.996,0.905c0.479,0.604,0.718,1.392,0.718,2.362c0,0.998-0.31,1.81-0.93,2.434s-1.429,0.937-2.427,0.937
			c-1.039,0-1.886-0.355-2.539-1.066c-0.654-0.711-0.981-1.684-0.981-2.919v-2.085c0-1.263,0.37-2.273,1.111-3.032
			C188.36,22.326,189.298,21.947,190.433,21.947z M190.009,27.061c-0.36,0-0.666,0.058-0.919,0.174s-0.45,0.277-0.592,0.482v0.533
			c0,0.766,0.141,1.358,0.421,1.777s0.65,0.629,1.11,0.629c0.415,0,0.745-0.175,0.991-0.523s0.369-0.787,0.369-1.315
			c0-0.547-0.124-0.977-0.372-1.289C190.769,27.217,190.433,27.061,190.009,27.061z"/>
	</g>
</g>
<path fill="#A1C8E7" d="M244.787,10.146c11.043,0,19.996,7.273,19.996,16.243c0,8.976-8.953,16.247-19.996,16.247
	c-1.06,0-2.102-0.066-3.117-0.196c-4.296,4.293-9.422,5.065-14.378,5.177v-1.05c2.677-1.311,4.998-3.701,4.998-6.431
	c0-0.379-0.031-0.755-0.085-1.121c-4.52-2.977-7.412-7.526-7.412-12.626C224.793,17.419,233.744,10.146,244.787,10.146"/>
<g>
	<g>
		<path fill="#4D4D4D" d="M225.272,70.369l0.01,0.031c0.014,0.731-0.217,1.315-0.691,1.753s-1.097,0.656-1.867,0.656
			c-0.8,0-1.445-0.3-1.937-0.899c-0.49-0.6-0.735-1.377-0.735-2.33v-1.216c0-0.95,0.245-1.727,0.735-2.33
			c0.491-0.603,1.137-0.904,1.937-0.904c0.78,0,1.405,0.213,1.875,0.641c0.469,0.427,0.697,1.015,0.684,1.764l-0.01,0.03h-0.554
			c0-0.602-0.177-1.07-0.53-1.407c-0.354-0.336-0.843-0.505-1.465-0.505c-0.629,0-1.134,0.253-1.514,0.759
			c-0.381,0.506-0.57,1.153-0.57,1.943v1.226c0,0.8,0.189,1.451,0.57,1.956c0.38,0.504,0.885,0.756,1.514,0.756
			c0.622,0,1.11-0.164,1.465-0.492c0.354-0.328,0.53-0.805,0.53-1.431H225.272z"/>
		<path fill="#4D4D4D" d="M226.334,69.847c0-0.817,0.216-1.487,0.647-2.01c0.432-0.523,1.003-0.785,1.714-0.785
			c0.715,0,1.287,0.262,1.719,0.785c0.432,0.522,0.647,1.192,0.647,2.01v0.169c0,0.82-0.215,1.491-0.645,2.013
			c-0.43,0.521-1.001,0.781-1.712,0.781c-0.718,0-1.292-0.261-1.724-0.781c-0.432-0.521-0.647-1.192-0.647-2.013V69.847z
			 M226.927,70.016c0,0.643,0.156,1.183,0.47,1.62c0.313,0.438,0.749,0.656,1.309,0.656c0.55,0,0.982-0.219,1.297-0.656
			s0.472-0.978,0.472-1.62v-0.169c0-0.633-0.158-1.169-0.475-1.61c-0.315-0.44-0.75-0.661-1.304-0.661
			c-0.553,0-0.986,0.221-1.299,0.661c-0.313,0.441-0.47,0.978-0.47,1.61V70.016z"/>
		<path fill="#4D4D4D" d="M232.819,67.154l0.055,0.964c0.175-0.338,0.406-0.601,0.696-0.786c0.29-0.187,0.634-0.28,1.032-0.28
			c0.58,0,1.021,0.185,1.324,0.552s0.454,0.94,0.454,1.72v3.379h-0.593v-3.374c0-0.636-0.114-1.085-0.343-1.348
			c-0.229-0.264-0.555-0.396-0.976-0.396c-0.422,0-0.762,0.108-1.021,0.323c-0.259,0.216-0.445,0.504-0.561,0.866v3.928h-0.593
			v-5.548H232.819z"/>
		<path fill="#4D4D4D" d="M239.448,71.313l0.173,0.651h0.029l0.188-0.651l1.452-4.158h0.612l-2.03,5.548h-0.475l-2.034-5.548h0.612
			L239.448,71.313z"/>
		<path fill="#4D4D4D" d="M243.539,65.565h-0.588v-0.861h0.588V65.565z M243.539,72.702h-0.588v-5.548h0.588V72.702z"/>
		<path fill="#4D4D4D" d="M244.941,69.975c0-0.885,0.181-1.594,0.541-2.125c0.361-0.531,0.864-0.798,1.51-0.798
			c0.365,0,0.686,0.081,0.96,0.241c0.275,0.161,0.503,0.388,0.685,0.682v-3.271h0.593v7.998h-0.484l-0.084-0.805
			c-0.181,0.294-0.411,0.52-0.691,0.677s-0.609,0.235-0.988,0.235c-0.639,0-1.138-0.247-1.499-0.74
			c-0.36-0.494-0.541-1.156-0.541-1.987V69.975z M245.534,70.082c0,0.67,0.13,1.203,0.388,1.6c0.259,0.396,0.648,0.595,1.169,0.595
			c0.382,0,0.699-0.088,0.953-0.264s0.451-0.42,0.593-0.73v-2.631c-0.135-0.314-0.326-0.57-0.573-0.769s-0.568-0.298-0.963-0.298
			c-0.521,0-0.911,0.222-1.173,0.664c-0.263,0.443-0.394,1.018-0.394,1.726V70.082z"/>
		<path fill="#4D4D4D" d="M254.188,72.702c-0.036-0.195-0.063-0.362-0.082-0.503c-0.018-0.14-0.026-0.283-0.026-0.431
			c-0.185,0.302-0.443,0.55-0.775,0.746c-0.333,0.197-0.715,0.295-1.146,0.295c-0.523,0-0.93-0.145-1.218-0.433
			c-0.288-0.289-0.432-0.682-0.432-1.177c0-0.496,0.209-0.897,0.627-1.205s0.962-0.462,1.63-0.462h1.314v-0.687
			c0-0.396-0.121-0.708-0.363-0.934s-0.584-0.338-1.025-0.338c-0.404,0-0.731,0.103-0.98,0.308
			c-0.248,0.205-0.373,0.463-0.373,0.774h-0.548l-0.01-0.031c-0.02-0.417,0.152-0.783,0.516-1.1
			c0.364-0.316,0.839-0.475,1.426-0.475c0.586,0,1.057,0.156,1.412,0.467c0.355,0.312,0.534,0.757,0.534,1.338v2.728
			c0,0.195,0.01,0.385,0.031,0.569s0.058,0.368,0.106,0.549H254.188z M252.223,72.267c0.454,0,0.848-0.112,1.181-0.336
			c0.332-0.224,0.558-0.512,0.677-0.864v-1.062h-1.319c-0.48,0-0.878,0.119-1.19,0.356c-0.313,0.238-0.469,0.524-0.469,0.859
			c0,0.314,0.1,0.567,0.299,0.759S251.873,72.267,252.223,72.267z"/>
		<path fill="#4D4D4D" d="M256.011,69.975c0-0.885,0.181-1.594,0.541-2.125c0.361-0.531,0.864-0.798,1.51-0.798
			c0.365,0,0.686,0.081,0.96,0.241c0.275,0.161,0.503,0.388,0.685,0.682v-3.271h0.593v7.998h-0.484l-0.084-0.805
			c-0.181,0.294-0.411,0.52-0.691,0.677s-0.609,0.235-0.988,0.235c-0.639,0-1.138-0.247-1.499-0.74
			c-0.36-0.494-0.541-1.156-0.541-1.987V69.975z M256.604,70.082c0,0.67,0.13,1.203,0.388,1.6c0.259,0.396,0.648,0.595,1.169,0.595
			c0.382,0,0.699-0.088,0.953-0.264s0.451-0.42,0.593-0.73v-2.631c-0.135-0.314-0.326-0.57-0.573-0.769s-0.568-0.298-0.963-0.298
			c-0.521,0-0.911,0.222-1.173,0.664c-0.263,0.443-0.394,1.018-0.394,1.726V70.082z"/>
		<path fill="#4D4D4D" d="M265.258,72.702c-0.036-0.195-0.063-0.362-0.082-0.503c-0.018-0.14-0.026-0.283-0.026-0.431
			c-0.185,0.302-0.443,0.55-0.775,0.746c-0.333,0.197-0.715,0.295-1.146,0.295c-0.523,0-0.93-0.145-1.218-0.433
			c-0.288-0.289-0.432-0.682-0.432-1.177c0-0.496,0.209-0.897,0.627-1.205s0.962-0.462,1.63-0.462h1.314v-0.687
			c0-0.396-0.121-0.708-0.363-0.934s-0.584-0.338-1.025-0.338c-0.404,0-0.731,0.103-0.98,0.308
			c-0.248,0.205-0.373,0.463-0.373,0.774h-0.548l-0.01-0.031c-0.02-0.417,0.152-0.783,0.516-1.1
			c0.364-0.316,0.839-0.475,1.426-0.475c0.586,0,1.057,0.156,1.412,0.467c0.355,0.312,0.534,0.757,0.534,1.338v2.728
			c0,0.195,0.01,0.385,0.031,0.569s0.058,0.368,0.106,0.549H265.258z M263.292,72.267c0.454,0,0.848-0.112,1.181-0.336
			c0.332-0.224,0.558-0.512,0.677-0.864v-1.062h-1.319c-0.48,0-0.878,0.119-1.19,0.356c-0.313,0.238-0.469,0.524-0.469,0.859
			c0,0.314,0.1,0.567,0.299,0.759S262.942,72.267,263.292,72.267z"/>
		<path fill="#4D4D4D" d="M270.514,71.282c0-0.26-0.104-0.486-0.309-0.68c-0.206-0.193-0.577-0.352-1.114-0.475
			c-0.632-0.136-1.103-0.323-1.41-0.561c-0.308-0.238-0.462-0.57-0.462-0.998c0-0.424,0.172-0.782,0.517-1.076
			c0.344-0.294,0.799-0.441,1.365-0.441c0.596,0,1.072,0.157,1.428,0.47s0.525,0.698,0.509,1.156l-0.01,0.03h-0.549
			c0-0.304-0.126-0.569-0.378-0.795s-0.585-0.338-1-0.338c-0.428,0-0.751,0.098-0.968,0.292c-0.218,0.195-0.326,0.422-0.326,0.682
			c0,0.253,0.093,0.463,0.279,0.629c0.186,0.165,0.557,0.312,1.113,0.438c0.626,0.144,1.1,0.344,1.421,0.601
			c0.32,0.256,0.481,0.602,0.481,1.035c0,0.462-0.181,0.837-0.541,1.126c-0.36,0.288-0.838,0.433-1.43,0.433
			c-0.649,0-1.159-0.16-1.529-0.481s-0.546-0.704-0.526-1.148l0.01-0.031h0.544c0.022,0.4,0.18,0.69,0.472,0.872
			c0.291,0.181,0.635,0.271,1.03,0.271c0.428,0,0.766-0.099,1.012-0.298C270.39,71.797,270.514,71.559,270.514,71.282z"/>
	</g>
</g>
<g>
	<path fill="#FFFFFF" d="M244.731,25.025c0.474,0,0.826-0.123,1.057-0.369c0.229-0.246,0.345-0.593,0.345-1.039
		c0-0.374-0.121-0.684-0.362-0.93s-0.579-0.369-1.012-0.369c-0.364,0-0.671,0.111-0.919,0.335c-0.249,0.224-0.373,0.508-0.373,0.854
		h-1.928l-0.014-0.041c-0.027-0.779,0.273-1.422,0.902-1.928s1.406-0.759,2.331-0.759c1.03,0,1.848,0.242,2.454,0.728
		s0.909,1.182,0.909,2.089c0,0.456-0.131,0.874-0.393,1.254c-0.263,0.381-0.621,0.681-1.077,0.899
		c0.52,0.196,0.921,0.493,1.203,0.892c0.282,0.399,0.424,0.881,0.424,1.446c0,0.911-0.329,1.628-0.987,2.149
		c-0.659,0.522-1.503,0.783-2.533,0.783c-0.907,0-1.7-0.246-2.379-0.738s-1.007-1.183-0.984-2.071l0.014-0.041h1.941
		c0,0.374,0.131,0.687,0.394,0.939c0.262,0.253,0.6,0.38,1.015,0.38c0.456,0,0.825-0.135,1.107-0.403s0.424-0.608,0.424-1.019
		c0-0.524-0.132-0.913-0.396-1.166s-0.651-0.379-1.162-0.379h-1.101v-1.497H244.731z"/>
</g>
</svg>
