<?xml version="1.0" encoding="utf-8"?>
<!-- Generator: Adobe Illustrator 14.0.0, SVG Export Plug-In . SVG Version: 6.00 Build 43363)  -->
<!DOCTYPE svg PUBLIC "-//W3C//DTD SVG 1.0//EN" "http://www.w3.org/TR/2001/REC-SVG-20010904/DTD/svg10.dtd">
<svg version="1.0" id="Camada_1" xmlns="http://www.w3.org/2000/svg" xmlns:xlink="http://www.w3.org/1999/xlink" x="0px" y="0px"
	 width="219px" height="190px" viewBox="0 0 219 190" enable-background="new 0 0 219 190" xml:space="preserve">
<line fill="#121312" stroke="#1B171B" x1="81.62" y1="4.218" x2="81.62" y2="184.046"/>
<rect x="83.193" y="137.21" fill="#043988" width="88.394" height="29.796"/>
<rect x="83.193" y="16.643" fill="#F6D448" width="30.939" height="29.797"/>
<rect x="83.193" y="76.463" fill="#DB6714" width="30.939" height="29.795"/>
<rect x="83.193" y="106.886" fill="#D5001E" width="37.567" height="29.793"/>
<rect x="83.193" y="46.534" fill="#DE9D04" width="35.355" height="29.794"/>
<g>
	<g>
		<path fill="#F6D448" d="M134.155,35.281h-1.603v-6.616h-1.656v-1.228l3.259-0.286V35.281z"/>
		<path fill="#F6D448" d="M141.498,32.297h0.902v1.244h-0.902v1.739h-1.607v-1.739h-3.264l-0.077-0.963l3.324-5.312h1.624V32.297z
			 M138.008,32.297h1.883v-2.912l-0.033-0.006l-0.165,0.358L138.008,32.297z"/>
		<path fill="#F6D448" d="M143.231,28.808c0-0.474,0.153-0.868,0.46-1.184c0.307-0.315,0.733-0.473,1.28-0.473
			c0.554,0,0.983,0.157,1.288,0.471c0.304,0.313,0.456,0.709,0.456,1.186v0.424c0,0.473-0.152,0.866-0.456,1.178
			c-0.305,0.312-0.73,0.468-1.277,0.468c-0.551,0-0.979-0.156-1.288-0.468c-0.309-0.312-0.463-0.705-0.463-1.178V28.808z
			 M144.3,29.231c0,0.213,0.059,0.392,0.176,0.537c0.118,0.145,0.286,0.217,0.507,0.217c0.213,0,0.377-0.072,0.492-0.217
			c0.116-0.145,0.174-0.324,0.174-0.537v-0.424c0-0.213-0.059-0.394-0.176-0.542c-0.118-0.149-0.285-0.223-0.501-0.223
			c-0.217,0-0.383,0.074-0.498,0.223c-0.116,0.148-0.174,0.329-0.174,0.542V29.231z M145.246,34.681l-0.781-0.413l3.914-6.264
			l0.781,0.413L145.246,34.681z M147.063,33.316c0-0.47,0.154-0.862,0.463-1.178c0.309-0.315,0.735-0.473,1.282-0.473
			c0.551,0,0.979,0.157,1.285,0.47c0.307,0.314,0.46,0.708,0.46,1.181v0.424c0,0.477-0.152,0.872-0.457,1.183
			c-0.305,0.312-0.73,0.468-1.276,0.468c-0.551,0-0.981-0.157-1.291-0.47c-0.311-0.314-0.466-0.708-0.466-1.181V33.316z
			 M148.131,33.74c0,0.209,0.063,0.388,0.189,0.537c0.127,0.148,0.293,0.223,0.499,0.223c0.238,0,0.408-0.069,0.512-0.207
			c0.103-0.137,0.154-0.322,0.154-0.553v-0.424c0-0.209-0.06-0.388-0.177-0.537c-0.117-0.148-0.284-0.223-0.501-0.223
			c-0.22,0-0.388,0.074-0.503,0.223c-0.116,0.149-0.174,0.328-0.174,0.537V33.74z"/>
	</g>
</g>
<g>
	<g>
		<path fill="#DE9D04" d="M134.156,65.173h-1.603v-6.616h-1.656v-1.228l3.259-0.286V65.173z"/>
		<path fill="#DE9D04" d="M139.925,57.043c0.312,0,0.601,0.028,0.867,0.085c0.266,0.057,0.529,0.141,0.789,0.25l-0.286,1.178
			c-0.249-0.084-0.473-0.148-0.671-0.19s-0.428-0.063-0.688-0.063c-0.47,0-0.849,0.18-1.137,0.54
			c-0.288,0.36-0.432,0.86-0.432,1.503v0.258c0.213-0.209,0.467-0.372,0.762-0.487c0.296-0.116,0.625-0.173,0.988-0.173
			c0.687,0,1.222,0.243,1.607,0.729c0.386,0.486,0.578,1.12,0.578,1.902c0,0.804-0.25,1.457-0.749,1.959
			c-0.499,0.503-1.15,0.754-1.954,0.754c-0.836,0-1.519-0.286-2.045-0.859c-0.526-0.572-0.79-1.356-0.79-2.35V60.4
			c0-1.016,0.299-1.83,0.895-2.441C138.256,57.348,139.011,57.043,139.925,57.043z M139.583,61.16c-0.29,0-0.536,0.047-0.74,0.14
			c-0.203,0.094-0.362,0.223-0.476,0.388v0.429c0,0.617,0.112,1.094,0.338,1.431c0.226,0.338,0.524,0.507,0.895,0.507
			c0.334,0,0.601-0.141,0.799-0.421c0.197-0.281,0.297-0.634,0.297-1.06c0-0.44-0.1-0.786-0.3-1.038S139.925,61.16,139.583,61.16z"
			/>
		<path fill="#DE9D04" d="M143.232,58.7c0-0.474,0.153-0.868,0.46-1.184c0.307-0.315,0.733-0.473,1.28-0.473
			c0.554,0,0.983,0.157,1.288,0.471c0.304,0.313,0.456,0.709,0.456,1.186v0.424c0,0.473-0.152,0.866-0.456,1.178
			c-0.305,0.312-0.73,0.468-1.277,0.468c-0.551,0-0.979-0.156-1.288-0.468c-0.309-0.312-0.463-0.705-0.463-1.178V58.7z
			 M144.301,59.124c0,0.213,0.059,0.392,0.176,0.537c0.118,0.145,0.286,0.217,0.507,0.217c0.213,0,0.377-0.072,0.492-0.217
			c0.116-0.145,0.174-0.324,0.174-0.537V58.7c0-0.213-0.059-0.394-0.176-0.542c-0.118-0.149-0.285-0.223-0.501-0.223
			c-0.217,0-0.383,0.074-0.498,0.223c-0.116,0.148-0.174,0.329-0.174,0.542V59.124z M145.247,64.573l-0.781-0.413l3.914-6.264
			l0.781,0.413L145.247,64.573z M147.063,63.208c0-0.47,0.154-0.862,0.463-1.178c0.309-0.315,0.735-0.473,1.282-0.473
			c0.551,0,0.979,0.157,1.285,0.47c0.307,0.314,0.46,0.708,0.46,1.181v0.424c0,0.477-0.152,0.872-0.457,1.183
			c-0.305,0.312-0.73,0.468-1.276,0.468c-0.551,0-0.981-0.157-1.291-0.47c-0.311-0.314-0.466-0.708-0.466-1.181V63.208z
			 M148.132,63.632c0,0.209,0.063,0.388,0.189,0.537c0.127,0.148,0.293,0.223,0.499,0.223c0.238,0,0.408-0.069,0.512-0.207
			c0.103-0.137,0.154-0.322,0.154-0.553v-0.424c0-0.209-0.06-0.388-0.177-0.537c-0.117-0.148-0.284-0.223-0.501-0.223
			c-0.22,0-0.388,0.074-0.503,0.223c-0.116,0.149-0.174,0.328-0.174,0.537V63.632z"/>
	</g>
</g>
<g>
	<g>
		<path fill="#DB6714" d="M134.155,98.481h-1.603v-6.616h-1.656v-1.228l3.259-0.286V98.481z"/>
		<path fill="#DB6714" d="M141.498,95.498h0.902v1.244h-0.902v1.739h-1.607v-1.739h-3.264l-0.077-0.964l3.324-5.312h1.624V95.498z
			 M138.008,95.498h1.883v-2.912l-0.033-0.005l-0.165,0.357L138.008,95.498z"/>
		<path fill="#DB6714" d="M143.231,92.008c0-0.473,0.153-0.867,0.46-1.183c0.307-0.316,0.733-0.474,1.28-0.474
			c0.554,0,0.983,0.157,1.288,0.471c0.304,0.313,0.456,0.709,0.456,1.186v0.424c0,0.474-0.152,0.866-0.456,1.179
			c-0.305,0.312-0.73,0.468-1.277,0.468c-0.551,0-0.979-0.156-1.288-0.468c-0.309-0.313-0.463-0.705-0.463-1.179V92.008z
			 M144.3,92.432c0,0.213,0.059,0.393,0.176,0.537c0.118,0.146,0.286,0.218,0.507,0.218c0.213,0,0.377-0.072,0.492-0.218
			c0.116-0.145,0.174-0.324,0.174-0.537v-0.424c0-0.212-0.059-0.394-0.176-0.542c-0.118-0.148-0.285-0.223-0.501-0.223
			c-0.217,0-0.383,0.074-0.498,0.223c-0.116,0.148-0.174,0.33-0.174,0.542V92.432z M145.246,97.882l-0.781-0.413l3.914-6.264
			l0.781,0.412L145.246,97.882z M147.063,96.517c0-0.47,0.154-0.862,0.463-1.178c0.309-0.316,0.735-0.474,1.282-0.474
			c0.551,0,0.979,0.156,1.285,0.471c0.307,0.313,0.46,0.707,0.46,1.181v0.424c0,0.477-0.152,0.871-0.457,1.184
			c-0.305,0.312-0.73,0.468-1.276,0.468c-0.551,0-0.981-0.157-1.291-0.471c-0.311-0.313-0.466-0.707-0.466-1.181V96.517z
			 M148.131,96.94c0,0.209,0.063,0.388,0.189,0.536c0.127,0.149,0.293,0.224,0.499,0.224c0.238,0,0.408-0.069,0.512-0.207
			c0.103-0.138,0.154-0.321,0.154-0.553v-0.424c0-0.209-0.06-0.389-0.177-0.537s-0.284-0.223-0.501-0.223
			c-0.22,0-0.388,0.074-0.503,0.223c-0.116,0.148-0.174,0.328-0.174,0.537V96.94z"/>
	</g>
</g>
<g>
	<g>
		<path fill="#D5001E" d="M134.69,128.551h-1.603v-6.616h-1.656v-1.228l3.259-0.286V128.551z"/>
		<path fill="#D5001E" d="M142.521,121.774c-0.906,1.061-1.522,2.016-1.85,2.865c-0.326,0.85-0.49,1.823-0.49,2.92v0.991h-1.606
			v-0.991c0-1.115,0.204-2.133,0.613-3.052s1.005-1.83,1.786-2.733h-4.09v-1.238h5.637V121.774z"/>
		<path fill="#D5001E" d="M143.203,122.077c0-0.473,0.153-0.867,0.46-1.183c0.307-0.316,0.733-0.474,1.28-0.474
			c0.554,0,0.983,0.157,1.288,0.471c0.304,0.313,0.456,0.709,0.456,1.186v0.424c0,0.474-0.152,0.866-0.456,1.179
			c-0.305,0.312-0.73,0.468-1.277,0.468c-0.551,0-0.979-0.156-1.288-0.468c-0.309-0.313-0.463-0.705-0.463-1.179V122.077z
			 M144.271,122.501c0,0.213,0.059,0.393,0.176,0.537c0.118,0.146,0.286,0.218,0.507,0.218c0.213,0,0.377-0.072,0.492-0.218
			c0.116-0.145,0.174-0.324,0.174-0.537v-0.424c0-0.212-0.059-0.394-0.176-0.542c-0.118-0.148-0.285-0.223-0.501-0.223
			c-0.217,0-0.383,0.074-0.498,0.223c-0.116,0.148-0.174,0.33-0.174,0.542V122.501z M145.218,127.951l-0.781-0.413l3.914-6.264
			l0.781,0.412L145.218,127.951z M147.034,126.586c0-0.47,0.154-0.862,0.463-1.178c0.309-0.316,0.735-0.474,1.282-0.474
			c0.551,0,0.979,0.156,1.285,0.471c0.307,0.313,0.46,0.707,0.46,1.181v0.424c0,0.477-0.152,0.871-0.457,1.184
			c-0.305,0.312-0.73,0.468-1.276,0.468c-0.551,0-0.981-0.157-1.291-0.471c-0.311-0.313-0.466-0.707-0.466-1.181V126.586z
			 M148.103,127.01c0,0.209,0.063,0.388,0.189,0.536c0.127,0.149,0.293,0.224,0.499,0.224c0.238,0,0.408-0.069,0.512-0.207
			c0.103-0.138,0.154-0.321,0.154-0.553v-0.424c0-0.209-0.06-0.389-0.177-0.537s-0.284-0.223-0.501-0.223
			c-0.22,0-0.388,0.074-0.503,0.223c-0.116,0.148-0.174,0.328-0.174,0.537V127.01z"/>
	</g>
</g>
<g>
	<g>
		<path fill="#043988" d="M188.353,153.798c0.381,0,0.665-0.099,0.85-0.297c0.186-0.198,0.278-0.478,0.278-0.837
			c0-0.301-0.098-0.551-0.292-0.749c-0.194-0.197-0.466-0.297-0.814-0.297c-0.294,0-0.54,0.09-0.74,0.27s-0.3,0.409-0.3,0.688
			h-1.553l-0.011-0.033c-0.022-0.628,0.22-1.145,0.727-1.552c0.507-0.408,1.132-0.611,1.877-0.611c0.829,0,1.488,0.195,1.977,0.586
			c0.487,0.391,0.731,0.951,0.731,1.682c0,0.367-0.105,0.704-0.316,1.01c-0.211,0.307-0.5,0.548-0.867,0.725
			c0.419,0.157,0.741,0.396,0.969,0.718s0.342,0.709,0.342,1.164c0,0.734-0.266,1.312-0.796,1.731s-1.21,0.63-2.039,0.63
			c-0.73,0-1.369-0.198-1.915-0.594c-0.547-0.396-0.812-0.952-0.793-1.668l0.011-0.033h1.563c0,0.301,0.105,0.553,0.316,0.757
			s0.483,0.306,0.817,0.306c0.367,0,0.664-0.108,0.892-0.325c0.228-0.216,0.342-0.489,0.342-0.82c0-0.422-0.106-0.734-0.319-0.938
			c-0.213-0.203-0.525-0.305-0.936-0.305h-0.887v-1.206H188.353z"/>
		<path fill="#043988" d="M194.562,157.393c0.396,0,0.721-0.149,0.974-0.449c0.254-0.299,0.38-0.716,0.38-1.252v-0.518
			c-0.18,0.231-0.393,0.406-0.639,0.523c-0.245,0.117-0.51,0.176-0.792,0.176c-0.745,0-1.33-0.242-1.754-0.727
			s-0.636-1.143-0.636-1.976c0-0.804,0.252-1.47,0.755-1.998c0.502-0.529,1.145-0.793,1.926-0.793c0.808,0,1.467,0.271,1.977,0.814
			s0.765,1.296,0.765,2.257v2.158c0,0.924-0.277,1.658-0.834,2.201c-0.556,0.543-1.263,0.814-2.121,0.814
			c-0.279,0-0.566-0.03-0.861-0.091c-0.296-0.061-0.574-0.146-0.834-0.256l0.27-1.161c0.231,0.096,0.457,0.165,0.677,0.209
			C194.033,157.37,194.282,157.393,194.562,157.393z M194.754,154.695c0.261,0,0.49-0.054,0.688-0.16
			c0.198-0.106,0.356-0.249,0.474-0.429v-0.936c0-0.503-0.103-0.888-0.308-1.153c-0.206-0.267-0.481-0.399-0.826-0.399
			c-0.323,0-0.583,0.149-0.781,0.448c-0.198,0.3-0.298,0.667-0.298,1.104c0,0.458,0.09,0.827,0.271,1.106
			C194.152,154.556,194.412,154.695,194.754,154.695z"/>
		<path fill="#043988" d="M198.623,152.036c0-0.473,0.153-0.867,0.46-1.183c0.307-0.316,0.733-0.474,1.28-0.474
			c0.554,0,0.983,0.157,1.288,0.471c0.304,0.313,0.456,0.709,0.456,1.186v0.424c0,0.474-0.152,0.866-0.456,1.179
			c-0.305,0.312-0.73,0.468-1.277,0.468c-0.551,0-0.979-0.156-1.288-0.468c-0.309-0.313-0.463-0.705-0.463-1.179V152.036z
			 M199.691,152.46c0,0.213,0.059,0.393,0.176,0.537c0.118,0.146,0.286,0.218,0.507,0.218c0.213,0,0.377-0.072,0.492-0.218
			c0.116-0.145,0.174-0.324,0.174-0.537v-0.424c0-0.212-0.059-0.394-0.176-0.542c-0.118-0.148-0.285-0.223-0.501-0.223
			c-0.217,0-0.383,0.074-0.498,0.223c-0.116,0.148-0.174,0.33-0.174,0.542V152.46z M200.638,157.91l-0.781-0.413l3.914-6.264
			l0.781,0.412L200.638,157.91z M202.454,156.545c0-0.47,0.154-0.862,0.463-1.178c0.309-0.316,0.735-0.474,1.282-0.474
			c0.551,0,0.979,0.156,1.285,0.471c0.307,0.313,0.46,0.707,0.46,1.181v0.424c0,0.477-0.152,0.871-0.457,1.184
			c-0.305,0.312-0.73,0.468-1.276,0.468c-0.551,0-0.981-0.157-1.291-0.471c-0.311-0.313-0.466-0.707-0.466-1.181V156.545z
			 M203.522,156.969c0,0.209,0.063,0.388,0.189,0.536c0.127,0.149,0.293,0.224,0.499,0.224c0.238,0,0.408-0.069,0.512-0.207
			c0.103-0.138,0.154-0.321,0.154-0.553v-0.424c0-0.209-0.06-0.389-0.177-0.537s-0.284-0.223-0.501-0.223
			c-0.22,0-0.388,0.074-0.503,0.223c-0.116,0.148-0.174,0.328-0.174,0.537V156.969z"/>
	</g>
</g>
<g>
	<g>
		<path fill="#4D4D4D" d="M10.077,36.09h-3.05l-0.701,2.011H5.734l2.553-7.213h0.54l2.534,7.213H10.77L10.077,36.09z M7.209,35.56
			h2.683l-1.317-3.824H8.545L7.209,35.56z"/>
		<path fill="#4D4D4D" d="M14.191,37.705c0.365,0,0.689-0.112,0.971-0.337c0.281-0.224,0.423-0.537,0.423-0.936h0.511l0.009,0.03
			c0.013,0.495-0.175,0.91-0.563,1.243c-0.389,0.334-0.839,0.5-1.351,0.5c-0.688,0-1.223-0.251-1.606-0.753
			s-0.575-1.145-0.575-1.927v-0.208c0-0.779,0.191-1.42,0.573-1.922s0.916-0.753,1.604-0.753c0.554,0,1.015,0.174,1.384,0.521
			s0.547,0.802,0.534,1.367l-0.009,0.03h-0.511c0-0.429-0.136-0.772-0.406-1.028c-0.271-0.256-0.602-0.384-0.992-0.384
			c-0.541,0-0.943,0.207-1.208,0.619c-0.264,0.413-0.396,0.93-0.396,1.551v0.208c0,0.631,0.132,1.152,0.396,1.563
			C13.243,37.5,13.646,37.705,14.191,37.705z"/>
		<path fill="#4D4D4D" d="M17.971,31.206h-0.567v-0.832h0.567V31.206z M17.971,38.102h-0.567v-5.36h0.567V38.102z"/>
		<path fill="#4D4D4D" d="M20.038,32.741l0.052,0.882c0.166-0.31,0.386-0.551,0.661-0.723s0.603-0.258,0.981-0.258
			c0.395,0,0.724,0.099,0.987,0.295c0.265,0.197,0.454,0.496,0.568,0.899c0.156-0.374,0.378-0.666,0.666-0.877
			s0.635-0.317,1.043-0.317c0.55,0,0.976,0.19,1.276,0.57s0.451,0.968,0.451,1.764v3.126h-0.573v-3.136
			c0-0.661-0.112-1.127-0.339-1.399c-0.226-0.272-0.537-0.409-0.936-0.409c-0.436,0-0.772,0.138-1.012,0.414
			c-0.238,0.276-0.39,0.631-0.453,1.067c0,0.037,0.001,0.073,0.002,0.109c0.002,0.037,0.003,0.083,0.003,0.139v3.215H22.84v-3.136
			c0-0.647-0.114-1.11-0.342-1.39s-0.54-0.418-0.938-0.418c-0.401,0-0.72,0.104-0.957,0.314c-0.237,0.209-0.403,0.493-0.499,0.85
			v3.78h-0.572v-5.36H20.038z"/>
		<path fill="#4D4D4D" d="M31.482,38.102c-0.035-0.188-0.062-0.35-0.079-0.485c-0.018-0.136-0.026-0.274-0.026-0.417
			c-0.178,0.291-0.428,0.531-0.749,0.721s-0.69,0.285-1.107,0.285c-0.506,0-0.897-0.14-1.176-0.418
			c-0.279-0.279-0.418-0.658-0.418-1.137c0-0.479,0.202-0.867,0.606-1.164c0.403-0.297,0.929-0.446,1.574-0.446h1.27v-0.664
			c0-0.383-0.116-0.684-0.351-0.901c-0.233-0.218-0.563-0.327-0.99-0.327c-0.392,0-0.707,0.099-0.947,0.297s-0.36,0.448-0.36,0.748
			h-0.529l-0.01-0.03c-0.02-0.403,0.146-0.757,0.498-1.063s0.811-0.458,1.377-0.458s1.021,0.15,1.365,0.451
			c0.344,0.3,0.516,0.731,0.516,1.293v2.635c0,0.188,0.011,0.372,0.031,0.55c0.021,0.179,0.055,0.355,0.103,0.53H31.482z
			 M29.583,37.681c0.438,0,0.819-0.108,1.141-0.325s0.539-0.495,0.653-0.834v-1.026h-1.273c-0.465,0-0.849,0.115-1.15,0.344
			c-0.303,0.23-0.454,0.506-0.454,0.83c0,0.304,0.097,0.548,0.289,0.733C28.98,37.588,29.245,37.681,29.583,37.681z"/>
		<path fill="#4D4D4D" d="M35.62,35.466c0-0.855,0.175-1.54,0.523-2.053c0.348-0.514,0.834-0.771,1.458-0.771
			c0.353,0,0.662,0.078,0.928,0.233s0.486,0.375,0.661,0.659v-3.161h0.573v7.728h-0.468l-0.081-0.778
			c-0.176,0.284-0.398,0.502-0.669,0.654s-0.588,0.228-0.954,0.228c-0.617,0-1.101-0.239-1.448-0.716
			c-0.349-0.477-0.523-1.117-0.523-1.919V35.466z M36.193,35.57c0,0.647,0.125,1.162,0.375,1.545
			c0.249,0.383,0.626,0.575,1.128,0.575c0.369,0,0.677-0.085,0.922-0.255c0.245-0.17,0.436-0.405,0.572-0.706v-2.542
			c-0.13-0.304-0.314-0.552-0.554-0.743c-0.238-0.191-0.549-0.287-0.931-0.287c-0.503,0-0.88,0.214-1.133,0.641
			c-0.254,0.428-0.38,0.983-0.38,1.667V35.57z"/>
		<path fill="#4D4D4D" d="M43.248,38.206c-0.668,0-1.211-0.245-1.628-0.736c-0.417-0.49-0.625-1.12-0.625-1.89v-0.272
			c0-0.773,0.211-1.41,0.633-1.912c0.421-0.502,0.943-0.753,1.567-0.753c0.627,0,1.111,0.209,1.453,0.627s0.514,0.98,0.514,1.687
			v0.461h-3.594v0.164c0,0.611,0.148,1.118,0.446,1.521c0.297,0.403,0.708,0.604,1.233,0.604c0.314,0,0.604-0.054,0.868-0.161
			c0.265-0.107,0.484-0.252,0.659-0.434l0.243,0.406c-0.182,0.198-0.419,0.362-0.714,0.493
			C44.011,38.14,43.658,38.206,43.248,38.206z M43.195,33.147c-0.439,0-0.8,0.164-1.083,0.491c-0.283,0.327-0.449,0.741-0.497,1.243
			l0.015,0.03h2.959v-0.124c0-0.476-0.12-0.868-0.36-1.177S43.645,33.147,43.195,33.147z"/>
		<path fill="#4D4D4D" d="M51.085,38.102h-0.573v-6.703l-1.646,0.208v-0.476l2.22-0.347V38.102z"/>
		<path fill="#4D4D4D" d="M58.225,35.555c0,0.822-0.191,1.47-0.575,1.942c-0.384,0.473-0.909,0.708-1.577,0.708
			s-1.196-0.237-1.585-0.711c-0.388-0.474-0.582-1.12-0.582-1.939v-2.12c0-0.816,0.192-1.461,0.577-1.937
			c0.386-0.476,0.912-0.713,1.58-0.713s1.195,0.238,1.582,0.713s0.58,1.121,0.58,1.937V35.555z M57.652,33.341
			c0-0.631-0.138-1.13-0.413-1.499s-0.668-0.552-1.177-0.552s-0.901,0.185-1.177,0.555c-0.274,0.37-0.412,0.869-0.412,1.496v2.304
			c0,0.624,0.139,1.124,0.417,1.499s0.673,0.562,1.182,0.562c0.506,0,0.896-0.187,1.169-0.56s0.411-0.874,0.411-1.501V33.341z"/>
		<path fill="#4D4D4D" d="M63.642,35.555c0,0.822-0.191,1.47-0.575,1.942c-0.384,0.473-0.909,0.708-1.577,0.708
			s-1.196-0.237-1.585-0.711c-0.388-0.474-0.582-1.12-0.582-1.939v-2.12c0-0.816,0.192-1.461,0.577-1.937
			c0.386-0.476,0.912-0.713,1.58-0.713s1.195,0.238,1.582,0.713s0.58,1.121,0.58,1.937V35.555z M63.069,33.341
			c0-0.631-0.138-1.13-0.413-1.499s-0.668-0.552-1.177-0.552s-0.901,0.185-1.177,0.555c-0.274,0.37-0.412,0.869-0.412,1.496v2.304
			c0,0.624,0.139,1.124,0.417,1.499s0.673,0.562,1.182,0.562c0.506,0,0.896-0.187,1.169-0.56s0.411-0.874,0.411-1.501V33.341z"/>
	</g>
</g>
<g>
	<g>
		<path fill="#4D4D4D" d="M19.91,67.914v-7.213h2.119c0.85,0,1.552,0.294,2.107,0.882c0.555,0.588,0.833,1.342,0.833,2.264v0.927
			c0,0.921-0.278,1.675-0.833,2.261c-0.556,0.586-1.258,0.879-2.107,0.879H19.91z M20.483,61.207v6.207h1.546
			c0.688,0,1.254-0.249,1.699-0.748c0.445-0.499,0.668-1.129,0.668-1.892v-0.941c0-0.753-0.224-1.379-0.671-1.877
			c-0.446-0.499-1.013-0.748-1.696-0.748H20.483z"/>
		<path fill="#4D4D4D" d="M28.315,68.018c-0.668,0-1.211-0.245-1.628-0.736c-0.417-0.49-0.625-1.12-0.625-1.89V65.12
			c0-0.773,0.211-1.41,0.633-1.912c0.421-0.502,0.943-0.753,1.567-0.753c0.627,0,1.111,0.209,1.453,0.627s0.514,0.98,0.514,1.687
			v0.461h-3.594v0.164c0,0.611,0.148,1.118,0.446,1.521c0.297,0.403,0.708,0.604,1.233,0.604c0.314,0,0.604-0.054,0.868-0.161
			c0.265-0.107,0.484-0.252,0.659-0.434l0.243,0.406c-0.182,0.198-0.419,0.362-0.714,0.493
			C29.078,67.953,28.726,68.018,28.315,68.018z M28.263,62.96c-0.439,0-0.8,0.164-1.083,0.491c-0.283,0.327-0.449,0.741-0.497,1.243
			l0.015,0.03h2.959V64.6c0-0.476-0.12-0.868-0.36-1.177S28.712,62.96,28.263,62.96z"/>
		<path fill="#4D4D4D" d="M37.966,67.914h-4.229v-0.456l2.286-2.77c0.407-0.499,0.688-0.907,0.845-1.226
			c0.155-0.319,0.233-0.633,0.233-0.944c0-0.439-0.113-0.785-0.341-1.038c-0.228-0.253-0.564-0.379-1.01-0.379
			c-0.496,0-0.878,0.153-1.146,0.458c-0.267,0.306-0.4,0.696-0.4,1.172H33.67l-0.009-0.03c-0.017-0.588,0.167-1.086,0.549-1.494
			c0.382-0.408,0.896-0.612,1.541-0.612c0.595,0,1.064,0.173,1.408,0.52s0.516,0.816,0.516,1.407c0,0.39-0.113,0.78-0.339,1.169
			c-0.227,0.39-0.559,0.862-0.998,1.417l-1.88,2.279l0.01,0.024h3.498V67.914z"/>
		<path fill="#4D4D4D" d="M43.292,65.368c0,0.822-0.191,1.47-0.575,1.942c-0.384,0.473-0.909,0.708-1.577,0.708
			s-1.196-0.237-1.585-0.711c-0.388-0.474-0.582-1.12-0.582-1.939v-2.12c0-0.816,0.192-1.461,0.577-1.937
			c0.386-0.476,0.912-0.713,1.58-0.713s1.195,0.238,1.582,0.713s0.58,1.121,0.58,1.937V65.368z M42.72,63.153
			c0-0.631-0.138-1.13-0.413-1.499s-0.668-0.552-1.177-0.552s-0.901,0.185-1.177,0.555c-0.274,0.37-0.412,0.869-0.412,1.496v2.304
			c0,0.624,0.139,1.124,0.417,1.499s0.673,0.562,1.182,0.562c0.506,0,0.896-0.187,1.169-0.56s0.411-0.874,0.411-1.501V63.153z"/>
		<path fill="#4D4D4D" d="M50.241,67.914c-0.035-0.188-0.062-0.35-0.079-0.485c-0.018-0.136-0.026-0.274-0.026-0.417
			c-0.178,0.291-0.428,0.531-0.749,0.721s-0.69,0.285-1.107,0.285c-0.506,0-0.897-0.14-1.176-0.418
			c-0.279-0.279-0.418-0.658-0.418-1.137c0-0.479,0.202-0.867,0.606-1.164c0.403-0.297,0.929-0.446,1.574-0.446h1.27v-0.664
			c0-0.383-0.116-0.684-0.351-0.901c-0.233-0.218-0.563-0.327-0.99-0.327c-0.392,0-0.707,0.099-0.947,0.297s-0.36,0.448-0.36,0.748
			h-0.529l-0.01-0.03c-0.02-0.403,0.146-0.757,0.498-1.063s0.811-0.458,1.377-0.458s1.021,0.15,1.365,0.451
			c0.344,0.3,0.516,0.731,0.516,1.293v2.635c0,0.188,0.011,0.372,0.031,0.55c0.021,0.179,0.055,0.355,0.103,0.53H50.241z
			 M48.342,67.493c0.438,0,0.819-0.108,1.141-0.325s0.539-0.495,0.653-0.834v-1.026h-1.273c-0.465,0-0.849,0.115-1.15,0.344
			c-0.303,0.23-0.454,0.506-0.454,0.83c0,0.304,0.097,0.548,0.289,0.733C47.739,67.4,48.004,67.493,48.342,67.493z"/>
		<path fill="#4D4D4D" d="M56.322,67.518c0.509,0,0.914-0.175,1.217-0.525c0.302-0.35,0.453-0.839,0.453-1.466v-1.05
			c-0.169,0.294-0.394,0.52-0.675,0.679c-0.282,0.158-0.593,0.238-0.934,0.238c-0.63,0-1.135-0.217-1.516-0.651
			c-0.38-0.435-0.57-1-0.57-1.697c0-0.704,0.199-1.287,0.597-1.751c0.398-0.464,0.896-0.696,1.494-0.696
			c0.655,0,1.186,0.223,1.59,0.668c0.403,0.446,0.605,1.08,0.605,1.902v2.348c0,0.783-0.209,1.396-0.627,1.838
			c-0.419,0.442-0.964,0.664-1.635,0.664c-0.239,0-0.48-0.026-0.724-0.079s-0.479-0.13-0.709-0.233l0.105-0.48
			c0.21,0.105,0.416,0.181,0.618,0.225C55.815,67.496,56.052,67.518,56.322,67.518z M56.384,64.892c0.404,0,0.745-0.105,1.021-0.317
			s0.473-0.472,0.587-0.783v-0.688c0-0.641-0.143-1.135-0.43-1.481c-0.286-0.347-0.67-0.52-1.15-0.52
			c-0.448,0-0.814,0.187-1.098,0.56c-0.283,0.374-0.425,0.834-0.425,1.382c0,0.528,0.133,0.968,0.399,1.32
			C55.555,64.716,55.919,64.892,56.384,64.892z"/>
		<path fill="#4D4D4D" d="M61.739,67.518c0.509,0,0.914-0.175,1.217-0.525c0.302-0.35,0.453-0.839,0.453-1.466v-1.05
			c-0.169,0.294-0.394,0.52-0.675,0.679c-0.282,0.158-0.593,0.238-0.934,0.238c-0.63,0-1.135-0.217-1.516-0.651
			c-0.38-0.435-0.57-1-0.57-1.697c0-0.704,0.199-1.287,0.597-1.751c0.398-0.464,0.896-0.696,1.494-0.696
			c0.655,0,1.186,0.223,1.59,0.668c0.403,0.446,0.605,1.08,0.605,1.902v2.348c0,0.783-0.209,1.396-0.627,1.838
			c-0.419,0.442-0.964,0.664-1.635,0.664c-0.239,0-0.48-0.026-0.724-0.079s-0.479-0.13-0.709-0.233l0.105-0.48
			c0.21,0.105,0.416,0.181,0.618,0.225C61.232,67.496,61.469,67.518,61.739,67.518z M61.801,64.892c0.404,0,0.745-0.105,1.021-0.317
			s0.473-0.472,0.587-0.783v-0.688c0-0.641-0.143-1.135-0.43-1.481c-0.286-0.347-0.67-0.52-1.15-0.52
			c-0.448,0-0.814,0.187-1.098,0.56c-0.283,0.374-0.425,0.834-0.425,1.382c0,0.528,0.133,0.968,0.399,1.32
			C60.972,64.716,61.336,64.892,61.801,64.892z"/>
	</g>
</g>
<g>
	<g>
		<path fill="#4D4D4D" d="M25.534,97.727v-7.213h2.119c0.85,0,1.552,0.294,2.107,0.882c0.555,0.588,0.833,1.343,0.833,2.264v0.927
			c0,0.921-0.278,1.675-0.833,2.262c-0.556,0.586-1.258,0.879-2.107,0.879H25.534z M26.107,91.019v6.208h1.546
			c0.688,0,1.254-0.25,1.699-0.748c0.445-0.499,0.668-1.13,0.668-1.893v-0.941c0-0.753-0.224-1.379-0.671-1.878
			c-0.446-0.498-1.013-0.748-1.696-0.748H26.107z"/>
		<path fill="#4D4D4D" d="M33.939,97.831c-0.668,0-1.211-0.246-1.628-0.736s-0.625-1.12-0.625-1.89v-0.272
			c0-0.772,0.211-1.41,0.633-1.912c0.421-0.502,0.943-0.753,1.567-0.753c0.627,0,1.111,0.209,1.453,0.626
			c0.342,0.418,0.514,0.98,0.514,1.688v0.461H32.26v0.163c0,0.611,0.148,1.118,0.446,1.521c0.297,0.403,0.708,0.604,1.233,0.604
			c0.314,0,0.604-0.054,0.868-0.161c0.265-0.107,0.484-0.252,0.659-0.434l0.243,0.406c-0.182,0.198-0.419,0.363-0.714,0.493
			C34.702,97.766,34.35,97.831,33.939,97.831z M33.887,92.772c-0.439,0-0.8,0.164-1.083,0.49c-0.283,0.327-0.449,0.742-0.497,1.244
			l0.015,0.029h2.959v-0.124c0-0.476-0.12-0.867-0.36-1.177C34.68,92.927,34.336,92.772,33.887,92.772z"/>
		<path fill="#4D4D4D" d="M39.523,94.481l0.382-3.968h3.379v0.55h-2.888l-0.258,2.596c0.176-0.161,0.368-0.289,0.58-0.381
			c0.212-0.093,0.496-0.145,0.853-0.154c0.595-0.01,1.072,0.193,1.434,0.609s0.542,0.981,0.542,1.694c0,0.73-0.177,1.313-0.53,1.749
			c-0.353,0.436-0.883,0.654-1.589,0.654c-0.573,0-1.05-0.166-1.432-0.498s-0.565-0.823-0.549-1.474l0.01-0.03h0.515
			c0,0.485,0.132,0.857,0.396,1.114c0.264,0.258,0.617,0.387,1.06,0.387c0.519,0,0.906-0.161,1.162-0.485
			c0.256-0.323,0.384-0.793,0.384-1.407c0-0.538-0.128-0.966-0.384-1.283c-0.256-0.316-0.616-0.476-1.081-0.476
			c-0.442,0-0.78,0.074-1.015,0.221c-0.233,0.147-0.402,0.369-0.508,0.667L39.523,94.481z"/>
		<path fill="#4D4D4D" d="M50.448,97.727c-0.035-0.188-0.062-0.35-0.079-0.485s-0.026-0.274-0.026-0.416
			c-0.178,0.29-0.428,0.53-0.749,0.721c-0.321,0.189-0.69,0.285-1.107,0.285c-0.506,0-0.897-0.14-1.176-0.419
			c-0.279-0.279-0.418-0.658-0.418-1.137c0-0.479,0.202-0.867,0.606-1.164c0.403-0.298,0.929-0.446,1.574-0.446h1.27v-0.664
			c0-0.383-0.116-0.684-0.351-0.901c-0.233-0.218-0.563-0.327-0.99-0.327c-0.392,0-0.707,0.1-0.947,0.298
			c-0.24,0.197-0.36,0.447-0.36,0.748h-0.529l-0.01-0.03c-0.02-0.402,0.146-0.757,0.498-1.063s0.811-0.458,1.377-0.458
			s1.021,0.15,1.365,0.45c0.344,0.301,0.516,0.731,0.516,1.293v2.636c0,0.188,0.011,0.372,0.031,0.55
			c0.021,0.179,0.055,0.355,0.103,0.53H50.448z M48.549,97.306c0.438,0,0.819-0.108,1.141-0.324
			c0.321-0.217,0.539-0.495,0.653-0.835v-1.025h-1.273c-0.465,0-0.849,0.114-1.15,0.344c-0.303,0.229-0.454,0.507-0.454,0.83
			c0,0.304,0.097,0.548,0.289,0.733C47.946,97.213,48.211,97.306,48.549,97.306z"/>
		<path fill="#4D4D4D" d="M57.202,97.727h-0.573v-6.703l-1.646,0.208v-0.476l2.22-0.347V97.727z"/>
		<path fill="#4D4D4D" d="M61.946,97.33c0.509,0,0.914-0.175,1.217-0.525c0.302-0.35,0.453-0.839,0.453-1.466v-1.051
			c-0.169,0.294-0.394,0.521-0.675,0.679c-0.282,0.159-0.593,0.238-0.934,0.238c-0.63,0-1.135-0.217-1.516-0.651
			c-0.38-0.435-0.57-1-0.57-1.697c0-0.703,0.199-1.287,0.597-1.751c0.398-0.464,0.896-0.696,1.494-0.696
			c0.655,0,1.186,0.224,1.59,0.669c0.403,0.446,0.605,1.08,0.605,1.902v2.349c0,0.782-0.209,1.396-0.627,1.838
			c-0.419,0.442-0.964,0.664-1.635,0.664c-0.239,0-0.48-0.027-0.724-0.08s-0.479-0.13-0.709-0.232l0.105-0.48
			c0.21,0.105,0.416,0.181,0.618,0.226C61.439,97.308,61.676,97.33,61.946,97.33z M62.008,94.705c0.404,0,0.745-0.106,1.021-0.317
			s0.473-0.473,0.587-0.783v-0.688c0-0.641-0.143-1.134-0.43-1.481c-0.286-0.347-0.67-0.52-1.15-0.52
			c-0.448,0-0.814,0.187-1.098,0.56s-0.425,0.834-0.425,1.382c0,0.529,0.133,0.969,0.399,1.32
			C61.179,94.528,61.543,94.705,62.008,94.705z"/>
	</g>
</g>
<g>
	<g>
		<path fill="#4D4D4D" d="M48.229,125.527h-3.05l-0.701,2.012h-0.592l2.553-7.213h0.54l2.534,7.213h-0.592L48.229,125.527z
			 M45.36,124.998h2.683l-1.317-3.825h-0.029L45.36,124.998z"/>
		<path fill="#4D4D4D" d="M51.264,120.807v1.372h1.136v0.485h-1.136v3.493c0,0.35,0.062,0.599,0.184,0.745
			c0.123,0.147,0.286,0.221,0.489,0.221c0.07,0,0.138-0.004,0.203-0.013c0.065-0.008,0.143-0.022,0.231-0.042l0.086,0.441
			c-0.076,0.039-0.171,0.071-0.284,0.096c-0.113,0.025-0.225,0.038-0.336,0.038c-0.363,0-0.646-0.119-0.848-0.357
			c-0.202-0.237-0.303-0.614-0.303-1.129v-3.493h-0.893v-0.485h0.893v-1.372H51.264z"/>
		<path fill="#4D4D4D" d="M55.479,127.644c-0.668,0-1.211-0.246-1.628-0.736s-0.625-1.12-0.625-1.89v-0.272
			c0-0.772,0.211-1.41,0.633-1.912c0.421-0.502,0.943-0.753,1.567-0.753c0.627,0,1.111,0.209,1.453,0.626
			c0.342,0.418,0.514,0.98,0.514,1.688v0.461h-3.594v0.163c0,0.611,0.148,1.118,0.446,1.521c0.297,0.403,0.708,0.604,1.233,0.604
			c0.314,0,0.604-0.054,0.868-0.161c0.265-0.107,0.484-0.252,0.659-0.434l0.243,0.406c-0.182,0.198-0.419,0.363-0.714,0.493
			C56.241,127.578,55.889,127.644,55.479,127.644z M55.426,122.585c-0.439,0-0.8,0.164-1.083,0.49
			c-0.283,0.327-0.449,0.742-0.497,1.244l0.015,0.029h2.959v-0.124c0-0.476-0.12-0.867-0.36-1.177
			C56.219,122.739,55.875,122.585,55.426,122.585z M56.032,119.9h0.701l0.015,0.029l-1.188,1.288h-0.511L56.032,119.9z"/>
		<path fill="#4D4D4D" d="M64.274,125.216h1.088v0.5h-1.088v1.823h-0.568v-1.823h-3.192v-0.337l3.136-5.053h0.625V125.216z
			 M61.191,125.216h2.515v-4.112l-0.028-0.01l-0.243,0.54L61.191,125.216z"/>
	</g>
</g>
<g>
	<g>
		<path fill="#4D4D4D" d="M65.662,154.806c0,0.822-0.191,1.47-0.575,1.941c-0.384,0.473-0.909,0.709-1.577,0.709
			s-1.196-0.237-1.585-0.711c-0.388-0.475-0.582-1.121-0.582-1.939v-2.121c0-0.815,0.192-1.461,0.577-1.937
			c0.386-0.476,0.912-0.714,1.58-0.714s1.195,0.238,1.582,0.714s0.58,1.121,0.58,1.937V154.806z M65.09,152.591
			c0-0.631-0.138-1.13-0.413-1.499c-0.275-0.368-0.668-0.552-1.177-0.552s-0.901,0.185-1.177,0.555
			c-0.274,0.37-0.412,0.868-0.412,1.496v2.304c0,0.624,0.139,1.124,0.417,1.498c0.278,0.375,0.673,0.563,1.182,0.563
			c0.506,0,0.896-0.187,1.169-0.56s0.411-0.874,0.411-1.501V152.591z"/>
	</g>
</g>
</svg>
