<?xml version="1.0" encoding="utf-8"?>
<!-- Generator: Adobe Illustrator 14.0.0, SVG Export Plug-In . SVG Version: 6.00 Build 43363)  -->
<!DOCTYPE svg PUBLIC "-//W3C//DTD SVG 1.0//EN" "http://www.w3.org/TR/2001/REC-SVG-20010904/DTD/svg10.dtd">
<svg version="1.0" id="Camada_1" xmlns="http://www.w3.org/2000/svg" xmlns:xlink="http://www.w3.org/1999/xlink" x="0px" y="0px"
	 width="303.5px" height="158px" viewBox="0 0 303.5 158" enable-background="new 0 0 303.5 158" xml:space="preserve">
<line fill="none" stroke="#F6D448" stroke-width="0.25" x1="40.803" y1="20.83" x2="134.876" y2="20.83"/>
<path opacity="0.7" fill="#F6D448" d="M134.876,27.704c-3.792,0-6.874-3.075-6.874-6.871c0-3.792,3.082-6.874,6.874-6.874
	c3.798,0,6.873,3.082,6.873,6.874C141.749,24.629,138.674,27.704,134.876,27.704L134.876,27.704z"/>
<rect x="134.876" y="11.497" opacity="0.8" fill="#FFFFFF" width="12.277" height="17.267"/>
<path opacity="0.7" fill="#F6D448" d="M116.626,27.703c-3.788,0-6.872-3.076-6.872-6.873c0-3.789,3.084-6.871,6.872-6.871
	c3.796,0,6.873,3.082,6.873,6.871C123.499,24.627,120.422,27.703,116.626,27.703L116.626,27.703z"/>
<path opacity="0.7" fill="#F6D448" d="M98.378,27.703c-3.794,0-6.874-3.072-6.874-6.875c0-3.789,3.08-6.869,6.874-6.869
	c3.798,0,6.873,3.08,6.873,6.869C105.251,24.631,102.176,27.703,98.378,27.703L98.378,27.703z"/>
<path opacity="0.7" fill="#F6D448" d="M80.13,27.703c-3.788,0-6.874-3.079-6.874-6.875c0-3.786,3.086-6.869,6.874-6.869
	c3.793,0,6.871,3.083,6.871,6.869C87.001,24.624,83.923,27.703,80.13,27.703L80.13,27.703z"/>
<path opacity="0.7" fill="#F6D448" d="M61.88,27.751c-3.792,0-6.874-3.093-6.874-6.918c0-3.816,3.082-6.923,6.874-6.923
	c3.802,0,6.873,3.106,6.873,6.923C68.753,24.658,65.682,27.751,61.88,27.751L61.88,27.751z"/>
<g>
	<g>
		<g>
			<path fill="#F6D448" d="M10.292,22.303c0.347,0,0.632-0.131,0.854-0.394c0.222-0.262,0.333-0.628,0.333-1.098v-0.453
				c-0.157,0.202-0.344,0.355-0.56,0.458c-0.216,0.104-0.447,0.154-0.695,0.154c-0.652,0-1.165-0.212-1.536-0.637
				c-0.372-0.425-0.558-1.002-0.558-1.732c0-0.704,0.221-1.288,0.661-1.751c0.44-0.464,1.004-0.695,1.688-0.695
				c0.708,0,1.285,0.238,1.732,0.714c0.447,0.477,0.671,1.136,0.671,1.979v1.892c0,0.811-0.244,1.454-0.731,1.93
				c-0.487,0.477-1.107,0.715-1.859,0.715c-0.245,0-0.497-0.026-0.756-0.08c-0.259-0.053-0.502-0.128-0.73-0.225l0.236-1.018
				c0.202,0.084,0.4,0.145,0.594,0.184C9.828,22.283,10.046,22.303,10.292,22.303z M10.46,19.938c0.228,0,0.429-0.047,0.603-0.14
				c0.174-0.094,0.313-0.219,0.415-0.377v-0.82c0-0.44-0.09-0.777-0.271-1.011c-0.18-0.233-0.421-0.35-0.724-0.35
				c-0.283,0-0.511,0.131-0.685,0.394c-0.174,0.262-0.261,0.584-0.261,0.967c0,0.402,0.079,0.726,0.236,0.97
				C9.932,19.816,10.161,19.938,10.46,19.938z"/>
			<path fill="#F6D448" d="M18.605,20.739c0,0.823-0.216,1.47-0.648,1.939s-1.006,0.705-1.721,0.705
				c-0.721,0-1.298-0.235-1.732-0.705c-0.434-0.47-0.651-1.116-0.651-1.939v-1.935c0-0.82,0.217-1.467,0.649-1.94
				c0.433-0.473,1.008-0.709,1.725-0.709c0.715,0,1.289,0.236,1.726,0.709c0.436,0.474,0.653,1.12,0.653,1.94V20.739z
				 M17.201,18.659c0-0.45-0.086-0.799-0.258-1.047c-0.172-0.247-0.411-0.371-0.717-0.371c-0.309,0-0.547,0.124-0.716,0.371
				c-0.169,0.248-0.254,0.597-0.254,1.047v2.215c0,0.461,0.085,0.813,0.256,1.06s0.412,0.369,0.724,0.369
				c0.306,0,0.543-0.123,0.712-0.369s0.253-0.599,0.253-1.06V18.659z"/>
			<path fill="#F6D448" d="M21.076,23.22l-0.767,1.52h-0.941l0.338-1.563v-1.1h1.37V23.22z"/>
			<path fill="#F6D448" d="M25.453,23.282h-1.404v-5.8h-1.452v-1.076l2.856-0.251V23.282z"/>
			<path fill="#F6D448" d="M27.74,17.607c0-0.415,0.135-0.761,0.403-1.037s0.643-0.415,1.122-0.415c0.485,0,0.862,0.138,1.129,0.413
				c0.267,0.274,0.4,0.621,0.4,1.039v0.372c0,0.415-0.134,0.759-0.4,1.032s-0.641,0.41-1.119,0.41c-0.482,0-0.859-0.137-1.13-0.41
				c-0.27-0.273-0.405-0.617-0.405-1.032V17.607z M28.676,17.979c0,0.187,0.052,0.343,0.154,0.471
				c0.103,0.127,0.251,0.19,0.444,0.19c0.187,0,0.33-0.063,0.432-0.19c0.102-0.128,0.152-0.284,0.152-0.471v-0.372
				c0-0.187-0.052-0.345-0.155-0.475c-0.103-0.131-0.249-0.195-0.438-0.195c-0.19,0-0.336,0.064-0.437,0.195
				c-0.102,0.13-0.152,0.288-0.152,0.475V17.979z M29.506,22.756l-0.686-0.361l3.431-5.491l0.686,0.362L29.506,22.756z
				 M31.098,21.56c0-0.412,0.136-0.756,0.405-1.032c0.271-0.277,0.646-0.415,1.125-0.415c0.482,0,0.857,0.138,1.126,0.412
				c0.269,0.275,0.403,0.62,0.403,1.035v0.372c0,0.418-0.134,0.764-0.4,1.037c-0.268,0.273-0.641,0.41-1.119,0.41
				c-0.483,0-0.86-0.138-1.132-0.413c-0.272-0.274-0.408-0.62-0.408-1.034V21.56z M32.035,21.932c0,0.183,0.056,0.34,0.166,0.47
				c0.111,0.131,0.257,0.195,0.438,0.195c0.209,0,0.358-0.06,0.448-0.181c0.09-0.12,0.135-0.282,0.135-0.484V21.56
				c0-0.184-0.051-0.34-0.154-0.471c-0.103-0.13-0.249-0.195-0.438-0.195c-0.193,0-0.341,0.065-0.441,0.195
				c-0.102,0.131-0.152,0.287-0.152,0.471V21.932z"/>
		</g>
	</g>
</g>
<line fill="none" stroke="#D5001E" stroke-width="0.25" x1="41.441" y1="127.237" x2="135.513" y2="127.237"/>
<path opacity="0.7" fill="#D5001E" d="M135.513,134.112c-3.792,0-6.871-3.078-6.871-6.874c0-3.791,3.079-6.873,6.871-6.873
	c3.798,0,6.873,3.082,6.873,6.873C142.386,131.034,139.311,134.112,135.513,134.112L135.513,134.112z"/>
<path opacity="0.7" fill="#D5001E" d="M117.265,134.11c-3.789,0-6.873-3.076-6.873-6.874c0-3.789,3.084-6.871,6.873-6.871
	c3.796,0,6.873,3.082,6.873,6.871C124.138,131.034,121.061,134.11,117.265,134.11L117.265,134.11z"/>
<path opacity="0.7" fill="#D5001E" d="M99.015,134.11c-3.792,0-6.871-3.073-6.871-6.874c0-3.789,3.079-6.871,6.871-6.871
	c3.798,0,6.873,3.082,6.873,6.871C105.888,131.037,102.813,134.11,99.015,134.11L99.015,134.11z"/>
<path opacity="0.7" fill="#D5001E" d="M80.767,134.11c-3.787,0-6.873-3.078-6.873-6.874c0-3.787,3.086-6.871,6.873-6.871
	c3.794,0,6.871,3.084,6.871,6.871C87.638,131.032,84.561,134.11,80.767,134.11L80.767,134.11z"/>
<path opacity="0.7" fill="#D5001E" d="M62.517,134.159c-3.792,0-6.871-3.095-6.871-6.921c0-3.814,3.079-6.92,6.871-6.92
	c3.802,0,6.873,3.105,6.873,6.92C69.39,131.064,66.318,134.159,62.517,134.159L62.517,134.159z"/>
<g>
	<g>
		<g>
			<path fill="#D5081F" d="M19.243,127.146c0,0.823-0.216,1.47-0.648,1.939s-1.006,0.705-1.721,0.705
				c-0.721,0-1.298-0.235-1.732-0.705c-0.434-0.47-0.651-1.116-0.651-1.939v-1.935c0-0.82,0.217-1.467,0.649-1.94
				c0.433-0.473,1.008-0.709,1.725-0.709c0.715,0,1.289,0.236,1.726,0.709c0.436,0.474,0.653,1.12,0.653,1.94V127.146z
				 M17.838,125.066c0-0.45-0.086-0.799-0.258-1.047c-0.172-0.247-0.411-0.371-0.717-0.371c-0.309,0-0.547,0.124-0.716,0.371
				c-0.169,0.248-0.254,0.597-0.254,1.047v2.215c0,0.461,0.085,0.813,0.256,1.06s0.412,0.369,0.724,0.369
				c0.306,0,0.543-0.123,0.712-0.369s0.253-0.599,0.253-1.06V125.066z"/>
			<path fill="#D5081F" d="M21.713,129.627l-0.767,1.52h-0.941l0.338-1.563v-1.1h1.37V129.627z"/>
			<path fill="#D5081F" d="M26.858,127.074h0.791v1.091h-0.791v1.524h-1.409v-1.524h-2.861l-0.067-0.845l2.914-4.656h1.424V127.074z
				 M23.798,127.074h1.65v-2.553l-0.029-0.005l-0.145,0.313L23.798,127.074z"/>
			<path fill="#D5081F" d="M28.377,124.015c0-0.415,0.135-0.761,0.403-1.037s0.643-0.415,1.122-0.415
				c0.485,0,0.862,0.138,1.129,0.413c0.267,0.274,0.4,0.621,0.4,1.039v0.372c0,0.415-0.134,0.759-0.4,1.032s-0.641,0.41-1.119,0.41
				c-0.482,0-0.859-0.137-1.13-0.41c-0.27-0.273-0.405-0.617-0.405-1.032V124.015z M29.314,124.387c0,0.187,0.052,0.343,0.154,0.471
				c0.103,0.127,0.251,0.19,0.444,0.19c0.187,0,0.33-0.063,0.432-0.19c0.102-0.128,0.152-0.284,0.152-0.471v-0.372
				c0-0.187-0.052-0.345-0.155-0.475c-0.103-0.131-0.249-0.195-0.438-0.195c-0.19,0-0.336,0.064-0.437,0.195
				c-0.102,0.13-0.152,0.288-0.152,0.475V124.387z M30.144,129.163l-0.686-0.361l3.431-5.491l0.686,0.362L30.144,129.163z
				 M31.736,127.967c0-0.412,0.136-0.756,0.405-1.032c0.271-0.277,0.646-0.415,1.125-0.415c0.482,0,0.857,0.138,1.126,0.412
				c0.269,0.275,0.403,0.62,0.403,1.035v0.372c0,0.418-0.134,0.764-0.4,1.037c-0.268,0.273-0.641,0.41-1.119,0.41
				c-0.483,0-0.86-0.138-1.132-0.413c-0.272-0.274-0.408-0.62-0.408-1.034V127.967z M32.672,128.339c0,0.183,0.056,0.34,0.166,0.47
				c0.111,0.131,0.257,0.195,0.438,0.195c0.209,0,0.358-0.06,0.448-0.181c0.09-0.12,0.135-0.282,0.135-0.484v-0.372
				c0-0.184-0.051-0.34-0.154-0.471c-0.103-0.13-0.249-0.195-0.438-0.195c-0.193,0-0.341,0.065-0.441,0.195
				c-0.102,0.131-0.152,0.287-0.152,0.471V128.339z"/>
		</g>
	</g>
</g>
<polygon opacity="0.8" fill="#FFFFFF" points="147.153,135.337 55.646,135.337 55.646,127.237 61.785,127.237 52.635,125.104 
	61.785,118.073 147.153,118.073 "/>
<line fill="none" stroke="#043988" stroke-width="0.25" x1="40.882" y1="72.303" x2="134.953" y2="72.303"/>
<path opacity="0.7" fill="#043988" d="M135.272,78.769c-3.792,0-6.873-3.076-6.873-6.871c0-3.793,3.081-6.874,6.873-6.874
	c3.796,0,6.871,3.081,6.871,6.874C142.144,75.692,139.068,78.769,135.272,78.769L135.272,78.769z"/>
<path opacity="0.7" fill="#043988" d="M117.022,78.769c-3.787,0-6.871-3.077-6.871-6.874c0-3.79,3.084-6.871,6.871-6.871
	c3.796,0,6.873,3.081,6.873,6.871C123.896,75.691,120.818,78.769,117.022,78.769L117.022,78.769z"/>
<path opacity="0.7" fill="#043988" d="M98.774,78.769c-3.794,0-6.873-3.074-6.873-6.875c0-3.789,3.079-6.87,6.873-6.87
	c3.798,0,6.873,3.081,6.873,6.87C105.647,75.694,102.572,78.769,98.774,78.769L98.774,78.769z"/>
<path opacity="0.7" fill="#043988" d="M80.526,78.769c-3.787,0-6.873-3.078-6.873-6.875c0-3.786,3.086-6.87,6.873-6.87
	c3.794,0,6.871,3.084,6.871,6.87C87.397,75.69,84.32,78.769,80.526,78.769L80.526,78.769z"/>
<path opacity="0.7" fill="#043988" d="M62.274,78.815c-3.79,0-6.871-3.093-6.871-6.918c0-3.816,3.081-6.923,6.871-6.923
	c3.804,0,6.873,3.106,6.873,6.923C69.147,75.723,66.078,78.815,62.274,78.815L62.274,78.815z"/>
<g>
	<g>
		<path fill="#043988" d="M16.357,73.366c0.347,0,0.632-0.131,0.854-0.394c0.222-0.262,0.333-0.628,0.333-1.098v-0.453
			c-0.157,0.202-0.344,0.355-0.56,0.458c-0.216,0.104-0.447,0.154-0.695,0.154c-0.652,0-1.165-0.212-1.536-0.637
			c-0.372-0.425-0.558-1.002-0.558-1.732c0-0.704,0.221-1.288,0.661-1.751c0.44-0.464,1.004-0.695,1.688-0.695
			c0.708,0,1.285,0.238,1.732,0.714c0.447,0.477,0.671,1.136,0.671,1.979v1.892c0,0.811-0.244,1.454-0.731,1.93
			c-0.487,0.477-1.107,0.715-1.859,0.715c-0.245,0-0.497-0.026-0.756-0.08c-0.259-0.053-0.502-0.128-0.73-0.225l0.236-1.018
			c0.202,0.084,0.4,0.145,0.594,0.184C15.893,73.347,16.112,73.366,16.357,73.366z M16.526,71.002c0.228,0,0.429-0.047,0.603-0.14
			c0.174-0.094,0.313-0.219,0.415-0.377v-0.82c0-0.44-0.09-0.777-0.271-1.011c-0.18-0.233-0.421-0.35-0.724-0.35
			c-0.283,0-0.511,0.131-0.685,0.394c-0.174,0.262-0.261,0.584-0.261,0.967c0,0.402,0.079,0.726,0.236,0.97
			C15.998,70.88,16.226,71.002,16.526,71.002z"/>
		<path fill="#043988" d="M21.471,74.283l-0.767,1.52h-0.941l0.338-1.563v-1.1h1.37V74.283z"/>
		<path fill="#043988" d="M26.616,71.73h0.791v1.091h-0.791v1.524h-1.409v-1.524h-2.861l-0.067-0.845l2.914-4.656h1.424V71.73z
			 M23.556,71.73h1.65v-2.553l-0.029-0.005l-0.145,0.313L23.556,71.73z"/>
		<path fill="#043988" d="M28.135,68.671c0-0.415,0.135-0.761,0.403-1.037s0.643-0.415,1.122-0.415c0.485,0,0.862,0.138,1.129,0.413
			c0.267,0.274,0.4,0.621,0.4,1.039v0.372c0,0.415-0.134,0.759-0.4,1.032s-0.641,0.41-1.119,0.41c-0.482,0-0.859-0.137-1.13-0.41
			c-0.27-0.273-0.405-0.617-0.405-1.032V68.671z M29.072,69.043c0,0.187,0.052,0.343,0.154,0.471c0.103,0.127,0.251,0.19,0.444,0.19
			c0.187,0,0.33-0.063,0.432-0.19c0.102-0.128,0.152-0.284,0.152-0.471v-0.372c0-0.187-0.052-0.345-0.155-0.475
			c-0.103-0.131-0.249-0.195-0.438-0.195c-0.19,0-0.336,0.064-0.437,0.195c-0.102,0.13-0.152,0.288-0.152,0.475V69.043z
			 M29.902,73.819l-0.686-0.361l3.431-5.491l0.686,0.362L29.902,73.819z M31.494,72.623c0-0.412,0.136-0.756,0.405-1.032
			c0.271-0.277,0.646-0.415,1.125-0.415c0.482,0,0.857,0.138,1.126,0.412c0.269,0.275,0.403,0.62,0.403,1.035v0.372
			c0,0.418-0.134,0.764-0.4,1.037c-0.268,0.273-0.641,0.41-1.119,0.41c-0.483,0-0.86-0.138-1.132-0.413
			c-0.272-0.274-0.408-0.62-0.408-1.034V72.623z M32.43,72.995c0,0.183,0.056,0.34,0.166,0.47c0.111,0.131,0.257,0.195,0.438,0.195
			c0.209,0,0.358-0.06,0.448-0.181c0.09-0.12,0.135-0.282,0.135-0.484v-0.372c0-0.184-0.051-0.34-0.154-0.471
			c-0.103-0.13-0.249-0.195-0.438-0.195c-0.193,0-0.341,0.065-0.441,0.195c-0.102,0.131-0.152,0.287-0.152,0.471V72.995z"/>
	</g>
</g>
<rect x="62.276" y="63.265" opacity="0.8" fill="#FFFFFF" width="83.778" height="17.264"/>
<line fill="none" stroke="#587BB7" stroke-width="0.25" x1="187.08" y1="20.13" x2="281.151" y2="20.13"/>
<path opacity="0.7" fill="#587BB7" d="M281.153,26.807c-3.794,0-6.873-3.075-6.873-6.872c0-3.792,3.079-6.872,6.873-6.872
	c3.796,0,6.871,3.08,6.871,6.872C288.024,23.731,284.949,26.807,281.153,26.807L281.153,26.807z"/>
<path opacity="0.7" fill="#587BB7" d="M262.903,27.003c-3.79,0-6.874-3.078-6.874-6.874c0-3.79,3.084-6.871,6.874-6.871
	c3.796,0,6.873,3.081,6.873,6.871C269.776,23.925,266.699,27.003,262.903,27.003L262.903,27.003z"/>
<path opacity="0.7" fill="#587BB7" d="M244.653,27.003c-3.792,0-6.871-3.074-6.871-6.876c0-3.789,3.079-6.869,6.871-6.869
	c3.8,0,6.873,3.08,6.873,6.869C251.526,23.929,248.453,27.003,244.653,27.003L244.653,27.003z"/>
<path opacity="0.7" fill="#587BB7" d="M226.407,27.003c-3.789,0-6.876-3.08-6.876-6.876c0-3.785,3.087-6.869,6.876-6.869
	c3.794,0,6.871,3.084,6.871,6.869C233.278,23.923,230.201,27.003,226.407,27.003L226.407,27.003z"/>
<path opacity="0.7" fill="#587BB7" d="M208.155,27.05c-3.792,0-6.871-3.094-6.871-6.92c0-3.814,3.079-6.921,6.871-6.921
	c3.804,0,6.873,3.106,6.873,6.921C215.028,23.956,211.959,27.05,208.155,27.05L208.155,27.05z"/>
<g>
	<g>
		<g>
			<path fill="#587BB8" d="M164.806,19.963c0,0.824-0.217,1.47-0.649,1.94s-1.006,0.705-1.72,0.705
				c-0.721,0-1.298-0.235-1.732-0.705s-0.651-1.116-0.651-1.94v-1.935c0-0.82,0.217-1.467,0.649-1.94s1.007-0.709,1.725-0.709
				c0.714,0,1.289,0.237,1.725,0.709c0.437,0.473,0.654,1.12,0.654,1.94V19.963z M163.401,17.883c0-0.45-0.086-0.799-0.258-1.047
				c-0.173-0.248-0.411-0.372-0.717-0.372c-0.309,0-0.548,0.124-0.717,0.372s-0.253,0.597-0.253,1.047v2.215
				c0,0.46,0.085,0.813,0.256,1.059c0.17,0.246,0.411,0.369,0.724,0.369c0.306,0,0.543-0.123,0.712-0.369s0.253-0.599,0.253-1.059
				V17.883z"/>
			<path fill="#587BB8" d="M167.279,22.443l-0.768,1.52h-0.941l0.338-1.563v-1.1h1.371V22.443z"/>
			<path fill="#587BB8" d="M171.657,22.506h-1.404v-5.8h-1.452V15.63l2.856-0.251V22.506z"/>
			<path fill="#587BB8" d="M173.947,16.832c0-0.415,0.134-0.761,0.402-1.038c0.269-0.276,0.643-0.415,1.122-0.415
				c0.485,0,0.862,0.138,1.129,0.413c0.268,0.275,0.4,0.622,0.4,1.04v0.372c0,0.415-0.133,0.759-0.4,1.032
				c-0.267,0.273-0.64,0.41-1.119,0.41c-0.482,0-0.859-0.137-1.129-0.41c-0.271-0.273-0.405-0.617-0.405-1.032V16.832z
				 M174.883,17.203c0,0.187,0.052,0.343,0.154,0.47c0.104,0.127,0.251,0.191,0.444,0.191c0.187,0,0.33-0.063,0.432-0.191
				c0.102-0.127,0.152-0.284,0.152-0.47v-0.372c0-0.187-0.052-0.345-0.154-0.476c-0.104-0.13-0.25-0.195-0.439-0.195
				s-0.335,0.065-0.437,0.195c-0.102,0.13-0.152,0.289-0.152,0.476V17.203z M175.713,21.98l-0.686-0.362l3.432-5.491l0.685,0.362
				L175.713,21.98z M177.306,20.783c0-0.412,0.135-0.756,0.405-1.033c0.27-0.276,0.645-0.415,1.124-0.415
				c0.482,0,0.858,0.137,1.127,0.412c0.269,0.275,0.402,0.62,0.402,1.035v0.372c0,0.418-0.134,0.764-0.4,1.038
				s-0.64,0.41-1.119,0.41c-0.482,0-0.86-0.138-1.132-0.413s-0.407-0.62-0.407-1.035V20.783z M178.241,21.155
				c0,0.184,0.056,0.34,0.167,0.471c0.11,0.13,0.256,0.195,0.437,0.195c0.209,0,0.358-0.061,0.448-0.181s0.136-0.282,0.136-0.485
				v-0.372c0-0.183-0.052-0.34-0.154-0.47c-0.104-0.13-0.25-0.196-0.439-0.196c-0.193,0-0.34,0.065-0.441,0.196
				s-0.152,0.287-0.152,0.47V21.155z"/>
		</g>
	</g>
</g>
<rect x="201.271" y="11.497" opacity="0.8" fill="#FFFFFF" width="90.652" height="17.267"/>
<path opacity="0.7" fill="#587BB7" d="M201.284,19.437C201.337,18.891,201.284,19.437,201.284,19.437l6.86,0.831h-6.874
	C201.271,20.268,201.236,19.917,201.284,19.437z"/>
<line fill="none" stroke="#A1C8E7" stroke-width="0.25" x1="186.083" y1="71.76" x2="280.156" y2="71.76"/>
<path fill="#A1C8E7" d="M280.156,78.632c-3.792,0-6.873-3.077-6.873-6.871c0-3.793,3.081-6.875,6.873-6.875
	c3.798,0,6.873,3.082,6.873,6.875C287.029,75.555,283.954,78.632,280.156,78.632L280.156,78.632z"/>
<path fill="#A1C8E7" d="M261.906,78.632c-3.788,0-6.871-3.078-6.871-6.875c0-3.789,3.083-6.871,6.871-6.871
	c3.796,0,6.873,3.082,6.873,6.871C268.779,75.554,265.702,78.632,261.906,78.632L261.906,78.632z"/>
<path fill="#A1C8E7" d="M243.658,78.632c-3.794,0-6.874-3.074-6.874-6.876c0-3.788,3.08-6.87,6.874-6.87
	c3.798,0,6.873,3.082,6.873,6.87C250.531,75.558,247.456,78.632,243.658,78.632L243.658,78.632z"/>
<path fill="#A1C8E7" d="M225.41,78.632c-3.787,0-6.873-3.079-6.873-6.876c0-3.786,3.086-6.87,6.873-6.87
	c3.793,0,6.871,3.084,6.871,6.87C232.281,75.553,229.203,78.632,225.41,78.632L225.41,78.632z"/>
<path fill="#A1C8E7" d="M207.16,78.679c-3.792,0-6.874-3.094-6.874-6.918c0-3.816,3.082-6.923,6.874-6.923
	c3.802,0,6.873,3.106,6.873,6.923C214.033,75.585,210.962,78.679,207.16,78.679L207.16,78.679z"/>
<g>
	<g>
		<g>
			<path fill="#A0C9E8" d="M163.811,71.592c0,0.823-0.216,1.47-0.648,1.939c-0.433,0.47-1.006,0.705-1.721,0.705
				c-0.721,0-1.298-0.235-1.732-0.705c-0.434-0.469-0.651-1.116-0.651-1.939v-1.935c0-0.82,0.217-1.467,0.649-1.939
				c0.433-0.473,1.008-0.709,1.725-0.709c0.715,0,1.289,0.236,1.726,0.709c0.436,0.473,0.653,1.119,0.653,1.939V71.592z
				 M162.406,69.512c0-0.451-0.086-0.799-0.258-1.047c-0.172-0.248-0.411-0.372-0.717-0.372c-0.309,0-0.547,0.124-0.716,0.372
				c-0.169,0.248-0.254,0.597-0.254,1.047v2.215c0,0.46,0.085,0.813,0.256,1.059s0.412,0.369,0.724,0.369
				c0.306,0,0.543-0.123,0.712-0.369s0.253-0.599,0.253-1.059V69.512z"/>
			<path fill="#A0C9E8" d="M166.284,74.072l-0.768,1.52h-0.94l0.338-1.563v-1.1h1.37V74.072z"/>
			<path fill="#A0C9E8" d="M170.662,74.135h-1.404v-5.8h-1.452v-1.076l2.856-0.251V74.135z"/>
			<path fill="#A0C9E8" d="M172.952,68.46c0-0.415,0.135-0.761,0.403-1.037c0.269-0.277,0.643-0.415,1.121-0.415
				c0.486,0,0.862,0.138,1.13,0.413c0.267,0.275,0.4,0.622,0.4,1.04v0.372c0,0.415-0.134,0.759-0.4,1.033
				c-0.268,0.273-0.641,0.41-1.12,0.41c-0.482,0-0.858-0.137-1.129-0.41s-0.405-0.618-0.405-1.033V68.46z M173.889,68.832
				c0,0.187,0.051,0.344,0.154,0.471c0.103,0.127,0.251,0.19,0.443,0.19c0.187,0,0.331-0.063,0.432-0.19
				c0.102-0.127,0.152-0.284,0.152-0.471V68.46c0-0.187-0.052-0.345-0.154-0.475s-0.249-0.195-0.439-0.195
				c-0.189,0-0.335,0.065-0.437,0.195c-0.101,0.13-0.151,0.289-0.151,0.475V68.832z M174.719,73.609l-0.686-0.362l3.431-5.491
				l0.685,0.362L174.719,73.609z M176.311,72.412c0-0.412,0.135-0.756,0.405-1.033c0.271-0.276,0.645-0.415,1.124-0.415
				c0.482,0,0.858,0.138,1.127,0.413s0.403,0.62,0.403,1.035v0.372c0,0.418-0.134,0.764-0.401,1.037
				c-0.267,0.273-0.64,0.41-1.119,0.41c-0.482,0-0.859-0.137-1.131-0.413c-0.272-0.275-0.408-0.62-0.408-1.035V72.412z
				 M177.247,72.784c0,0.183,0.055,0.34,0.166,0.47s0.257,0.195,0.437,0.195c0.209,0,0.358-0.06,0.449-0.181
				c0.09-0.121,0.135-0.282,0.135-0.485v-0.372c0-0.184-0.052-0.34-0.154-0.471c-0.104-0.13-0.249-0.195-0.439-0.195
				c-0.192,0-0.34,0.065-0.441,0.195c-0.102,0.13-0.151,0.287-0.151,0.471V72.784z"/>
		</g>
	</g>
</g>
<rect x="200.263" y="63.265" opacity="0.8" fill="#FFFFFF" width="90.652" height="17.264"/>
<path fill="#A1C8E7" d="M200.286,71.066C200.342,70.52,200.286,71.066,200.286,71.066l6.86,0.83l-6.871,0.001
	C200.275,71.897,200.239,71.546,200.286,71.066z"/>
<g>
	<g>
		<path fill="#4D4D4D" d="M63.832,40.419h-2.971l-0.684,1.959h-0.576l2.487-7.025h0.525l2.468,7.025h-0.576L63.832,40.419z
			 M61.038,39.902h2.612l-1.283-3.725H62.34L61.038,39.902z"/>
		<path fill="#4D4D4D" d="M69.011,41.041c0-0.244-0.097-0.457-0.291-0.639c-0.193-0.182-0.543-0.331-1.048-0.446
			c-0.595-0.129-1.038-0.305-1.327-0.528c-0.29-0.224-0.435-0.537-0.435-0.938c0-0.399,0.161-0.737,0.485-1.014
			s0.752-0.415,1.285-0.415c0.562,0,1.009,0.147,1.344,0.441s0.494,0.657,0.479,1.088l-0.009,0.029h-0.517
			c0-0.286-0.118-0.536-0.355-0.748c-0.236-0.212-0.551-0.318-0.941-0.318c-0.402,0-0.706,0.092-0.911,0.275
			c-0.204,0.183-0.307,0.396-0.307,0.642c0,0.238,0.088,0.435,0.263,0.591s0.524,0.294,1.049,0.412
			c0.588,0.136,1.034,0.324,1.336,0.565c0.303,0.241,0.453,0.565,0.453,0.975c0,0.434-0.169,0.787-0.509,1.059
			c-0.339,0.272-0.788,0.408-1.346,0.408c-0.61,0-1.09-0.151-1.438-0.454c-0.349-0.302-0.514-0.662-0.495-1.08l0.009-0.029h0.512
			c0.021,0.376,0.17,0.649,0.443,0.82c0.274,0.17,0.598,0.256,0.97,0.256c0.402,0,0.721-0.094,0.953-0.28
			S69.011,41.302,69.011,41.041z"/>
		<path fill="#4D4D4D" d="M73.859,41.041c0-0.244-0.097-0.457-0.291-0.639c-0.193-0.182-0.543-0.331-1.048-0.446
			c-0.595-0.129-1.038-0.305-1.327-0.528c-0.29-0.224-0.435-0.537-0.435-0.938c0-0.399,0.161-0.737,0.485-1.014
			s0.752-0.415,1.285-0.415c0.562,0,1.009,0.147,1.344,0.441s0.494,0.657,0.479,1.088l-0.009,0.029h-0.517
			c0-0.286-0.118-0.536-0.355-0.748c-0.236-0.212-0.551-0.318-0.941-0.318c-0.402,0-0.706,0.092-0.911,0.275
			c-0.204,0.183-0.307,0.396-0.307,0.642c0,0.238,0.088,0.435,0.263,0.591s0.524,0.294,1.049,0.412
			c0.588,0.136,1.034,0.324,1.336,0.565c0.303,0.241,0.453,0.565,0.453,0.975c0,0.434-0.169,0.787-0.509,1.059
			c-0.339,0.272-0.788,0.408-1.346,0.408c-0.61,0-1.09-0.151-1.438-0.454c-0.349-0.302-0.514-0.662-0.495-1.08l0.009-0.029h0.512
			c0.021,0.376,0.17,0.649,0.443,0.82c0.274,0.17,0.598,0.256,0.97,0.256c0.402,0,0.721-0.094,0.953-0.28
			S73.859,41.302,73.859,41.041z"/>
		<path fill="#4D4D4D" d="M75.384,39.69c0-0.769,0.203-1.399,0.609-1.892c0.405-0.492,0.943-0.738,1.613-0.738
			c0.672,0,1.211,0.246,1.617,0.738s0.609,1.123,0.609,1.892v0.159c0,0.771-0.202,1.403-0.606,1.894
			c-0.405,0.491-0.941,0.736-1.611,0.736c-0.676,0-1.217-0.245-1.622-0.736c-0.406-0.49-0.609-1.122-0.609-1.894V39.69z
			 M75.941,39.85c0,0.604,0.147,1.113,0.442,1.524c0.294,0.412,0.705,0.618,1.231,0.618c0.518,0,0.925-0.206,1.221-0.618
			c0.296-0.411,0.443-0.92,0.443-1.524V39.69c0-0.596-0.148-1.101-0.446-1.516c-0.297-0.415-0.706-0.622-1.227-0.622
			c-0.521,0-0.929,0.207-1.223,0.622c-0.295,0.415-0.442,0.92-0.442,1.516V39.85z"/>
		<path fill="#4D4D4D" d="M82.836,41.992c0.356,0,0.672-0.109,0.946-0.328s0.411-0.523,0.411-0.912h0.498l0.009,0.029
			c0.013,0.482-0.17,0.886-0.549,1.211c-0.378,0.324-0.816,0.487-1.315,0.487c-0.669,0-1.19-0.245-1.564-0.733
			c-0.373-0.489-0.56-1.115-0.56-1.877v-0.203c0-0.759,0.186-1.383,0.558-1.872s0.893-0.733,1.562-0.733
			c0.54,0,0.989,0.169,1.349,0.507s0.533,0.781,0.521,1.332l-0.009,0.028h-0.498c0-0.418-0.132-0.752-0.395-1.001
			c-0.264-0.249-0.586-0.374-0.968-0.374c-0.526,0-0.919,0.201-1.176,0.604c-0.257,0.401-0.386,0.905-0.386,1.51v0.203
			c0,0.614,0.129,1.121,0.386,1.522C81.912,41.792,82.307,41.992,82.836,41.992z"/>
		<path fill="#4D4D4D" d="M86.518,35.661h-0.553v-0.811h0.553V35.661z M86.518,42.378h-0.553v-5.221h0.553V42.378z"/>
		<path fill="#4D4D4D" d="M91.241,42.378c-0.034-0.184-0.06-0.341-0.077-0.473c-0.017-0.132-0.025-0.268-0.025-0.405
			c-0.174,0.283-0.417,0.517-0.729,0.702c-0.313,0.185-0.673,0.277-1.079,0.277c-0.492,0-0.874-0.136-1.146-0.408
			c-0.271-0.271-0.406-0.641-0.406-1.107c0-0.466,0.196-0.844,0.59-1.134c0.394-0.289,0.905-0.435,1.534-0.435h1.236v-0.646
			c0-0.373-0.113-0.666-0.342-0.878c-0.228-0.212-0.549-0.318-0.964-0.318c-0.382,0-0.689,0.097-0.923,0.289
			c-0.234,0.193-0.352,0.437-0.352,0.729h-0.516l-0.01-0.029c-0.019-0.393,0.144-0.737,0.486-1.035
			c0.342-0.298,0.789-0.446,1.341-0.446s0.995,0.146,1.33,0.439c0.334,0.292,0.502,0.712,0.502,1.259v2.567
			c0,0.184,0.01,0.361,0.03,0.535c0.02,0.174,0.053,0.346,0.1,0.517H91.241z M89.391,41.968c0.428,0,0.798-0.105,1.111-0.316
			c0.313-0.21,0.525-0.481,0.637-0.813V39.84h-1.241c-0.452,0-0.826,0.112-1.12,0.335c-0.295,0.224-0.441,0.493-0.441,0.809
			c0,0.296,0.094,0.534,0.281,0.714C88.805,41.878,89.063,41.968,89.391,41.968z"/>
		<path fill="#4D4D4D" d="M95.016,41.992c0.356,0,0.672-0.109,0.946-0.328s0.411-0.523,0.411-0.912h0.498l0.009,0.029
			c0.013,0.482-0.17,0.886-0.549,1.211c-0.378,0.324-0.816,0.487-1.315,0.487c-0.669,0-1.19-0.245-1.564-0.733
			c-0.373-0.489-0.56-1.115-0.56-1.877v-0.203c0-0.759,0.186-1.383,0.558-1.872s0.893-0.733,1.562-0.733
			c0.54,0,0.989,0.169,1.349,0.507s0.533,0.781,0.521,1.332l-0.009,0.028h-0.498c0-0.418-0.132-0.752-0.395-1.001
			c-0.264-0.249-0.586-0.374-0.968-0.374c-0.526,0-0.919,0.201-1.176,0.604c-0.257,0.401-0.386,0.905-0.386,1.51v0.203
			c0,0.614,0.129,1.121,0.386,1.522C94.092,41.792,94.486,41.992,95.016,41.992z M95.15,42.421l-0.056,0.31
			c0.245,0.028,0.442,0.106,0.593,0.233s0.226,0.324,0.226,0.592c0,0.292-0.122,0.526-0.367,0.702
			c-0.245,0.175-0.595,0.263-1.051,0.263l-0.032-0.377c0.278,0,0.514-0.049,0.704-0.146c0.19-0.099,0.286-0.242,0.286-0.433
			c0-0.183-0.064-0.311-0.193-0.383s-0.354-0.122-0.677-0.147l0.136-0.613H95.15z"/>
		<path fill="#4D4D4D" d="M101.259,42.378c-0.034-0.184-0.06-0.341-0.077-0.473c-0.017-0.132-0.025-0.268-0.025-0.405
			c-0.174,0.283-0.417,0.517-0.729,0.702c-0.313,0.185-0.673,0.277-1.079,0.277c-0.492,0-0.874-0.136-1.146-0.408
			c-0.271-0.271-0.406-0.641-0.406-1.107c0-0.466,0.196-0.844,0.59-1.134c0.394-0.289,0.905-0.435,1.534-0.435h1.236v-0.646
			c0-0.373-0.113-0.666-0.342-0.878c-0.228-0.212-0.549-0.318-0.964-0.318c-0.382,0-0.689,0.097-0.923,0.289
			c-0.234,0.193-0.352,0.437-0.352,0.729h-0.516l-0.01-0.029c-0.019-0.393,0.144-0.737,0.486-1.035
			c0.342-0.298,0.789-0.446,1.341-0.446s0.995,0.146,1.33,0.439c0.334,0.292,0.502,0.712,0.502,1.259v2.567
			c0,0.184,0.01,0.361,0.03,0.535c0.02,0.174,0.053,0.346,0.1,0.517H101.259z M101.352,35.135c0,0.283-0.085,0.519-0.256,0.705
			c-0.17,0.187-0.383,0.279-0.637,0.279c-0.229,0-0.463-0.088-0.702-0.265c-0.238-0.177-0.441-0.266-0.608-0.266
			c-0.146,0-0.269,0.057-0.367,0.169c-0.1,0.112-0.149,0.256-0.149,0.43l-0.371-0.087c0-0.277,0.083-0.51,0.251-0.697
			c0.167-0.188,0.379-0.282,0.637-0.282c0.201,0,0.429,0.088,0.684,0.265c0.254,0.178,0.463,0.266,0.627,0.266
			c0.143,0,0.265-0.058,0.367-0.174c0.103-0.115,0.153-0.262,0.153-0.438L101.352,35.135z M99.408,41.968
			c0.428,0,0.798-0.105,1.111-0.316c0.313-0.21,0.525-0.481,0.637-0.813V39.84h-1.241c-0.452,0-0.826,0.112-1.12,0.335
			c-0.295,0.224-0.441,0.493-0.441,0.809c0,0.296,0.094,0.534,0.281,0.714C98.822,41.878,99.08,41.968,99.408,41.968z"/>
		<path fill="#4D4D4D" d="M102.881,39.69c0-0.769,0.203-1.399,0.609-1.892c0.405-0.492,0.943-0.738,1.613-0.738
			c0.672,0,1.211,0.246,1.617,0.738s0.609,1.123,0.609,1.892v0.159c0,0.771-0.202,1.403-0.606,1.894
			c-0.405,0.491-0.941,0.736-1.611,0.736c-0.676,0-1.217-0.245-1.622-0.736c-0.406-0.49-0.609-1.122-0.609-1.894V39.69z
			 M103.438,39.85c0,0.604,0.147,1.113,0.442,1.524c0.294,0.412,0.705,0.618,1.231,0.618c0.518,0,0.925-0.206,1.221-0.618
			c0.296-0.411,0.443-0.92,0.443-1.524V39.69c0-0.596-0.148-1.101-0.446-1.516c-0.297-0.415-0.706-0.622-1.227-0.622
			c-0.521,0-0.929,0.207-1.223,0.622c-0.295,0.415-0.442,0.92-0.442,1.516V39.85z"/>
		<path fill="#4D4D4D" d="M111.496,39.459v2.919h-0.559v-7.025h2.334c0.71,0,1.259,0.188,1.648,0.564
			c0.389,0.376,0.583,0.872,0.583,1.486c0,0.624-0.194,1.122-0.583,1.496c-0.39,0.373-0.938,0.56-1.648,0.56H111.496z
			 M111.496,38.967h1.775c0.558,0,0.977-0.147,1.255-0.441c0.279-0.295,0.419-0.665,0.419-1.112c0-0.45-0.14-0.824-0.419-1.122
			c-0.278-0.298-0.697-0.446-1.255-0.446h-1.775V38.967z"/>
		<path fill="#4D4D4D" d="M118.976,37.654l-0.396-0.029c-0.351,0-0.638,0.103-0.862,0.307s-0.385,0.484-0.481,0.842v3.604h-0.558
			v-5.221h0.488l0.069,0.868v0.058c0.146-0.321,0.341-0.572,0.586-0.752c0.245-0.181,0.536-0.271,0.874-0.271
			c0.068,0,0.134,0.006,0.195,0.017c0.062,0.012,0.113,0.023,0.153,0.036L118.976,37.654z"/>
		<path fill="#4D4D4D" d="M120.551,35.661h-0.553v-0.811h0.553V35.661z M120.551,42.378h-0.553v-5.221h0.553V42.378z"/>
		<path fill="#4D4D4D" d="M123.521,41.07l0.163,0.612h0.027l0.177-0.612l1.367-3.913h0.576l-1.91,5.221h-0.446l-1.916-5.221h0.577
			L123.521,41.07z"/>
		<path fill="#4D4D4D" d="M129.863,42.378c-0.034-0.184-0.06-0.341-0.077-0.473c-0.017-0.132-0.025-0.268-0.025-0.405
			c-0.174,0.283-0.417,0.517-0.729,0.702c-0.313,0.185-0.673,0.277-1.079,0.277c-0.492,0-0.874-0.136-1.146-0.408
			c-0.271-0.271-0.406-0.641-0.406-1.107c0-0.466,0.196-0.844,0.59-1.134c0.394-0.289,0.905-0.435,1.534-0.435h1.236v-0.646
			c0-0.373-0.113-0.666-0.342-0.878c-0.228-0.212-0.549-0.318-0.964-0.318c-0.382,0-0.689,0.097-0.923,0.289
			c-0.234,0.193-0.352,0.437-0.352,0.729h-0.516l-0.01-0.029c-0.019-0.393,0.144-0.737,0.486-1.035
			c0.342-0.298,0.789-0.446,1.341-0.446s0.995,0.146,1.33,0.439c0.334,0.292,0.502,0.712,0.502,1.259v2.567
			c0,0.184,0.01,0.361,0.03,0.535c0.02,0.174,0.053,0.346,0.1,0.517H129.863z M128.013,41.968c0.428,0,0.798-0.105,1.111-0.316
			c0.313-0.21,0.525-0.481,0.637-0.813V39.84h-1.241c-0.452,0-0.826,0.112-1.12,0.335c-0.295,0.224-0.441,0.493-0.441,0.809
			c0,0.296,0.094,0.534,0.281,0.714C127.427,41.878,127.685,41.968,128.013,41.968z"/>
		<path fill="#4D4D4D" d="M131.578,39.811c0-0.833,0.17-1.499,0.51-2c0.339-0.5,0.813-0.75,1.42-0.75
			c0.344,0,0.646,0.075,0.904,0.227s0.474,0.365,0.644,0.642v-3.078h0.558v7.527h-0.455l-0.079-0.758
			c-0.171,0.277-0.388,0.489-0.651,0.637c-0.263,0.148-0.573,0.223-0.93,0.223c-0.601,0-1.071-0.232-1.41-0.697
			c-0.34-0.465-0.51-1.088-0.51-1.87V39.811z M132.137,39.912c0,0.631,0.121,1.133,0.364,1.506s0.61,0.56,1.1,0.56
			c0.359,0,0.658-0.083,0.897-0.249c0.238-0.165,0.425-0.395,0.558-0.688v-2.475c-0.127-0.296-0.307-0.537-0.539-0.725
			c-0.232-0.187-0.535-0.279-0.906-0.279c-0.49,0-0.858,0.208-1.104,0.625c-0.246,0.416-0.369,0.958-0.369,1.623V39.912z"/>
		<path fill="#4D4D4D" d="M140.281,42.378c-0.034-0.184-0.06-0.341-0.077-0.473c-0.017-0.132-0.025-0.268-0.025-0.405
			c-0.174,0.283-0.417,0.517-0.729,0.702c-0.313,0.185-0.673,0.277-1.079,0.277c-0.492,0-0.874-0.136-1.146-0.408
			c-0.271-0.271-0.406-0.641-0.406-1.107c0-0.466,0.196-0.844,0.59-1.134c0.394-0.289,0.905-0.435,1.534-0.435h1.236v-0.646
			c0-0.373-0.113-0.666-0.342-0.878c-0.228-0.212-0.549-0.318-0.964-0.318c-0.382,0-0.689,0.097-0.923,0.289
			c-0.234,0.193-0.352,0.437-0.352,0.729h-0.516l-0.01-0.029c-0.019-0.393,0.144-0.737,0.486-1.035
			c0.342-0.298,0.789-0.446,1.341-0.446s0.995,0.146,1.33,0.439c0.334,0.292,0.502,0.712,0.502,1.259v2.567
			c0,0.184,0.01,0.361,0.03,0.535c0.02,0.174,0.053,0.346,0.1,0.517H140.281z M138.431,41.968c0.428,0,0.798-0.105,1.111-0.316
			c0.313-0.21,0.525-0.481,0.637-0.813V39.84h-1.241c-0.452,0-0.826,0.112-1.12,0.335c-0.295,0.224-0.441,0.493-0.441,0.809
			c0,0.296,0.094,0.534,0.281,0.714C137.845,41.878,138.103,41.968,138.431,41.968z"/>
	</g>
</g>
<g>
	<g>
		<path fill="#4D4D4D" d="M187.232,37.549h-3.109v3.291h-0.559v-7.025h4.143v0.492h-3.584v2.745h3.109V37.549z"/>
		<path fill="#4D4D4D" d="M191.867,39.99c-0.161,0.306-0.377,0.541-0.648,0.705c-0.271,0.164-0.593,0.246-0.964,0.246
			c-0.53,0-0.945-0.187-1.246-0.56s-0.451-0.952-0.451-1.737v-3.025h0.558v3.035c0,0.637,0.104,1.094,0.314,1.37
			c0.209,0.276,0.506,0.415,0.89,0.415c0.419,0,0.753-0.098,1.002-0.292c0.25-0.194,0.426-0.461,0.527-0.799v-3.729h0.559v5.221
			h-0.493L191.867,39.99z"/>
		<path fill="#4D4D4D" d="M194.369,35.619l0.051,0.907c0.164-0.318,0.383-0.565,0.655-0.741c0.273-0.175,0.597-0.263,0.972-0.263
			c0.546,0,0.961,0.173,1.246,0.519s0.428,0.886,0.428,1.619v3.18h-0.558v-3.175c0-0.599-0.108-1.021-0.323-1.27
			c-0.216-0.247-0.521-0.371-0.918-0.371c-0.397,0-0.717,0.102-0.96,0.304c-0.244,0.203-0.42,0.475-0.528,0.815v3.696h-0.558v-5.221
			H194.369z"/>
		<path fill="#4D4D4D" d="M198.957,38.272c0-0.833,0.17-1.499,0.51-2c0.339-0.5,0.813-0.75,1.42-0.75
			c0.344,0,0.646,0.075,0.904,0.227s0.474,0.365,0.644,0.642v-3.078h0.558v7.527h-0.455l-0.079-0.758
			c-0.171,0.277-0.388,0.489-0.651,0.637c-0.263,0.148-0.573,0.223-0.93,0.223c-0.601,0-1.071-0.232-1.41-0.697
			c-0.34-0.465-0.51-1.088-0.51-1.87V38.272z M199.516,38.374c0,0.631,0.121,1.133,0.364,1.506s0.61,0.56,1.1,0.56
			c0.359,0,0.658-0.083,0.897-0.249c0.238-0.165,0.425-0.395,0.558-0.688v-2.475c-0.127-0.296-0.307-0.537-0.539-0.725
			c-0.232-0.187-0.535-0.279-0.906-0.279c-0.49,0-0.858,0.208-1.104,0.625c-0.246,0.416-0.369,0.958-0.369,1.623V38.374z"/>
		<path fill="#4D4D4D" d="M207.66,40.84c-0.034-0.184-0.06-0.341-0.077-0.473c-0.017-0.132-0.025-0.268-0.025-0.405
			c-0.174,0.283-0.417,0.517-0.729,0.702c-0.313,0.185-0.673,0.277-1.079,0.277c-0.492,0-0.874-0.136-1.146-0.408
			c-0.271-0.271-0.406-0.641-0.406-1.107c0-0.466,0.196-0.844,0.59-1.134c0.394-0.289,0.905-0.435,1.534-0.435h1.236v-0.646
			c0-0.373-0.113-0.666-0.342-0.878c-0.228-0.212-0.549-0.318-0.964-0.318c-0.382,0-0.689,0.097-0.923,0.289
			c-0.234,0.193-0.352,0.437-0.352,0.729h-0.516l-0.01-0.029c-0.019-0.393,0.144-0.737,0.486-1.035
			c0.342-0.298,0.789-0.446,1.341-0.446s0.995,0.146,1.33,0.439c0.334,0.292,0.502,0.712,0.502,1.259v2.567
			c0,0.184,0.01,0.361,0.03,0.535c0.02,0.174,0.053,0.346,0.1,0.517H207.66z M205.81,40.43c0.428,0,0.798-0.105,1.111-0.316
			c0.313-0.21,0.525-0.481,0.637-0.813v-0.999h-1.241c-0.452,0-0.826,0.112-1.12,0.335c-0.295,0.224-0.441,0.493-0.441,0.809
			c0,0.296,0.094,0.534,0.281,0.714C205.224,40.34,205.481,40.43,205.81,40.43z"/>
		<path fill="#4D4D4D" d="M211.435,40.454c0.356,0,0.672-0.109,0.946-0.328s0.411-0.523,0.411-0.912h0.498l0.009,0.029
			c0.013,0.482-0.17,0.886-0.549,1.211c-0.378,0.324-0.816,0.487-1.315,0.487c-0.669,0-1.19-0.245-1.564-0.733
			c-0.373-0.489-0.56-1.115-0.56-1.877v-0.203c0-0.759,0.186-1.383,0.558-1.872s0.893-0.733,1.562-0.733
			c0.54,0,0.989,0.169,1.349,0.507s0.533,0.781,0.521,1.332l-0.009,0.028h-0.498c0-0.418-0.132-0.752-0.395-1.001
			c-0.264-0.249-0.586-0.374-0.968-0.374c-0.526,0-0.919,0.201-1.176,0.604c-0.257,0.401-0.386,0.905-0.386,1.51v0.203
			c0,0.614,0.129,1.121,0.386,1.522C210.511,40.254,210.905,40.454,211.435,40.454z M211.569,40.883l-0.056,0.31
			c0.245,0.028,0.442,0.106,0.593,0.233s0.226,0.324,0.226,0.592c0,0.292-0.122,0.526-0.367,0.702
			c-0.245,0.175-0.595,0.263-1.051,0.263l-0.032-0.377c0.278,0,0.514-0.049,0.704-0.146c0.19-0.099,0.286-0.242,0.286-0.433
			c0-0.183-0.064-0.311-0.193-0.383s-0.354-0.122-0.677-0.147l0.136-0.613H211.569z"/>
		<path fill="#4D4D4D" d="M217.678,40.84c-0.034-0.184-0.06-0.341-0.077-0.473c-0.017-0.132-0.025-0.268-0.025-0.405
			c-0.174,0.283-0.417,0.517-0.729,0.702c-0.313,0.185-0.673,0.277-1.079,0.277c-0.492,0-0.874-0.136-1.146-0.408
			c-0.271-0.271-0.406-0.641-0.406-1.107c0-0.466,0.196-0.844,0.59-1.134c0.394-0.289,0.905-0.435,1.534-0.435h1.236v-0.646
			c0-0.373-0.113-0.666-0.342-0.878c-0.228-0.212-0.549-0.318-0.964-0.318c-0.382,0-0.689,0.097-0.923,0.289
			c-0.234,0.193-0.352,0.437-0.352,0.729h-0.516l-0.01-0.029c-0.019-0.393,0.144-0.737,0.486-1.035
			c0.342-0.298,0.789-0.446,1.341-0.446s0.995,0.146,1.33,0.439c0.334,0.292,0.502,0.712,0.502,1.259v2.567
			c0,0.184,0.01,0.361,0.03,0.535c0.02,0.174,0.053,0.346,0.1,0.517H217.678z M217.771,33.597c0,0.283-0.085,0.519-0.256,0.705
			c-0.17,0.187-0.383,0.279-0.637,0.279c-0.229,0-0.463-0.088-0.702-0.265c-0.238-0.177-0.441-0.266-0.608-0.266
			c-0.146,0-0.269,0.057-0.367,0.169c-0.1,0.112-0.149,0.256-0.149,0.43l-0.371-0.087c0-0.277,0.083-0.51,0.251-0.697
			c0.167-0.188,0.379-0.282,0.637-0.282c0.201,0,0.429,0.088,0.684,0.265c0.254,0.178,0.463,0.266,0.627,0.266
			c0.143,0,0.265-0.058,0.367-0.174c0.103-0.115,0.153-0.262,0.153-0.438L217.771,33.597z M215.827,40.43
			c0.428,0,0.798-0.105,1.111-0.316c0.313-0.21,0.525-0.481,0.637-0.813v-0.999h-1.241c-0.452,0-0.826,0.112-1.12,0.335
			c-0.295,0.224-0.441,0.493-0.441,0.809c0,0.296,0.094,0.534,0.281,0.714C215.241,40.34,215.499,40.43,215.827,40.43z"/>
		<path fill="#4D4D4D" d="M219.3,38.152c0-0.769,0.203-1.399,0.609-1.892c0.405-0.492,0.943-0.738,1.613-0.738
			c0.672,0,1.211,0.246,1.617,0.738s0.609,1.123,0.609,1.892v0.159c0,0.771-0.202,1.403-0.606,1.894
			c-0.405,0.491-0.941,0.736-1.611,0.736c-0.676,0-1.217-0.245-1.622-0.736c-0.406-0.49-0.609-1.122-0.609-1.894V38.152z
			 M219.857,38.312c0,0.604,0.147,1.113,0.442,1.524c0.294,0.412,0.705,0.618,1.231,0.618c0.518,0,0.925-0.206,1.221-0.618
			c0.296-0.411,0.443-0.92,0.443-1.524v-0.159c0-0.596-0.148-1.101-0.446-1.516c-0.297-0.415-0.706-0.622-1.227-0.622
			c-0.521,0-0.929,0.207-1.223,0.622c-0.295,0.415-0.442,0.92-0.442,1.516V38.312z"/>
		<path fill="#4D4D4D" d="M226.915,38.152c0-0.769,0.203-1.399,0.609-1.892c0.405-0.492,0.943-0.738,1.613-0.738
			c0.672,0,1.211,0.246,1.617,0.738s0.609,1.123,0.609,1.892v0.159c0,0.771-0.202,1.403-0.606,1.894
			c-0.405,0.491-0.941,0.736-1.611,0.736c-0.676,0-1.217-0.245-1.622-0.736c-0.406-0.49-0.609-1.122-0.609-1.894V38.152z
			 M227.473,38.312c0,0.604,0.147,1.113,0.442,1.524c0.294,0.412,0.705,0.618,1.231,0.618c0.518,0,0.925-0.206,1.221-0.618
			c0.296-0.411,0.443-0.92,0.443-1.524v-0.159c0-0.596-0.148-1.101-0.446-1.516c-0.297-0.415-0.706-0.622-1.227-0.622
			c-0.521,0-0.929,0.207-1.223,0.622c-0.295,0.415-0.442,0.92-0.442,1.516V38.312z"/>
		<path fill="#4D4D4D" d="M235.817,39.99c-0.161,0.306-0.377,0.541-0.648,0.705c-0.271,0.164-0.593,0.246-0.964,0.246
			c-0.53,0-0.945-0.187-1.246-0.56s-0.451-0.952-0.451-1.737v-3.025h0.558v3.035c0,0.637,0.104,1.094,0.314,1.37
			c0.209,0.276,0.506,0.415,0.89,0.415c0.419,0,0.753-0.098,1.002-0.292c0.25-0.194,0.426-0.461,0.527-0.799v-3.729h0.559v5.221
			h-0.493L235.817,39.99z"/>
		<path fill="#4D4D4D" d="M243.814,38.881h-2.971l-0.684,1.959h-0.576l2.487-7.025h0.525l2.468,7.025h-0.576L243.814,38.881z
			 M241.021,38.364h2.612l-1.283-3.725h-0.027L241.021,38.364z"/>
		<path fill="#4D4D4D" d="M248.993,39.503c0-0.244-0.097-0.457-0.291-0.639c-0.193-0.182-0.543-0.331-1.048-0.446
			c-0.595-0.129-1.038-0.305-1.327-0.528c-0.29-0.224-0.435-0.537-0.435-0.938c0-0.399,0.161-0.737,0.485-1.014
			s0.752-0.415,1.285-0.415c0.562,0,1.009,0.147,1.344,0.441s0.494,0.657,0.479,1.088l-0.009,0.029h-0.517
			c0-0.286-0.118-0.536-0.355-0.748c-0.236-0.212-0.551-0.318-0.941-0.318c-0.402,0-0.706,0.092-0.911,0.275
			c-0.204,0.183-0.307,0.396-0.307,0.642c0,0.238,0.088,0.435,0.263,0.591s0.524,0.294,1.049,0.412
			c0.588,0.136,1.034,0.324,1.336,0.565c0.303,0.241,0.453,0.565,0.453,0.975c0,0.434-0.169,0.787-0.509,1.059
			c-0.339,0.272-0.788,0.408-1.346,0.408c-0.61,0-1.09-0.151-1.438-0.454c-0.349-0.302-0.514-0.662-0.495-1.08l0.009-0.029h0.512
			c0.021,0.376,0.17,0.649,0.443,0.82c0.274,0.17,0.598,0.256,0.97,0.256c0.402,0,0.721-0.094,0.953-0.28
			S248.993,39.764,248.993,39.503z"/>
		<path fill="#4D4D4D" d="M253.842,39.503c0-0.244-0.097-0.457-0.291-0.639c-0.193-0.182-0.543-0.331-1.048-0.446
			c-0.595-0.129-1.038-0.305-1.327-0.528c-0.29-0.224-0.435-0.537-0.435-0.938c0-0.399,0.161-0.737,0.485-1.014
			s0.752-0.415,1.285-0.415c0.562,0,1.009,0.147,1.344,0.441s0.494,0.657,0.479,1.088l-0.009,0.029h-0.517
			c0-0.286-0.118-0.536-0.355-0.748c-0.236-0.212-0.551-0.318-0.941-0.318c-0.402,0-0.706,0.092-0.911,0.275
			c-0.204,0.183-0.307,0.396-0.307,0.642c0,0.238,0.088,0.435,0.263,0.591s0.524,0.294,1.049,0.412
			c0.588,0.136,1.034,0.324,1.336,0.565c0.303,0.241,0.453,0.565,0.453,0.975c0,0.434-0.169,0.787-0.509,1.059
			c-0.339,0.272-0.788,0.408-1.346,0.408c-0.61,0-1.09-0.151-1.438-0.454c-0.349-0.302-0.514-0.662-0.495-1.08l0.009-0.029h0.512
			c0.021,0.376,0.17,0.649,0.443,0.82c0.274,0.17,0.598,0.256,0.97,0.256c0.402,0,0.721-0.094,0.953-0.28
			S253.842,39.764,253.842,39.503z"/>
		<path fill="#4D4D4D" d="M255.366,38.152c0-0.769,0.203-1.399,0.609-1.892c0.405-0.492,0.943-0.738,1.613-0.738
			c0.672,0,1.211,0.246,1.617,0.738s0.609,1.123,0.609,1.892v0.159c0,0.771-0.202,1.403-0.606,1.894
			c-0.405,0.491-0.941,0.736-1.611,0.736c-0.676,0-1.217-0.245-1.622-0.736c-0.406-0.49-0.609-1.122-0.609-1.894V38.152z
			 M255.924,38.312c0,0.604,0.147,1.113,0.442,1.524c0.294,0.412,0.705,0.618,1.231,0.618c0.518,0,0.925-0.206,1.221-0.618
			c0.296-0.411,0.443-0.92,0.443-1.524v-0.159c0-0.596-0.148-1.101-0.446-1.516c-0.297-0.415-0.706-0.622-1.227-0.622
			c-0.521,0-0.929,0.207-1.223,0.622c-0.295,0.415-0.442,0.92-0.442,1.516V38.312z"/>
		<path fill="#4D4D4D" d="M262.818,40.454c0.356,0,0.672-0.109,0.946-0.328s0.411-0.523,0.411-0.912h0.498l0.009,0.029
			c0.013,0.482-0.17,0.886-0.549,1.211c-0.378,0.324-0.816,0.487-1.315,0.487c-0.669,0-1.19-0.245-1.564-0.733
			c-0.373-0.489-0.56-1.115-0.56-1.877v-0.203c0-0.759,0.186-1.383,0.558-1.872s0.893-0.733,1.562-0.733
			c0.54,0,0.989,0.169,1.349,0.507s0.533,0.781,0.521,1.332l-0.009,0.028h-0.498c0-0.418-0.132-0.752-0.395-1.001
			c-0.264-0.249-0.586-0.374-0.968-0.374c-0.526,0-0.919,0.201-1.176,0.604c-0.257,0.401-0.386,0.905-0.386,1.51v0.203
			c0,0.614,0.129,1.121,0.386,1.522C261.895,40.254,262.289,40.454,262.818,40.454z"/>
		<path fill="#4D4D4D" d="M266.5,34.123h-0.553v-0.811h0.553V34.123z M266.5,40.84h-0.553v-5.221h0.553V40.84z"/>
		<path fill="#4D4D4D" d="M271.224,40.84c-0.034-0.184-0.06-0.341-0.077-0.473c-0.017-0.132-0.025-0.268-0.025-0.405
			c-0.174,0.283-0.417,0.517-0.729,0.702c-0.313,0.185-0.673,0.277-1.079,0.277c-0.492,0-0.874-0.136-1.146-0.408
			c-0.271-0.271-0.406-0.641-0.406-1.107c0-0.466,0.196-0.844,0.59-1.134c0.394-0.289,0.905-0.435,1.534-0.435h1.236v-0.646
			c0-0.373-0.113-0.666-0.342-0.878c-0.228-0.212-0.549-0.318-0.964-0.318c-0.382,0-0.689,0.097-0.923,0.289
			c-0.234,0.193-0.352,0.437-0.352,0.729h-0.516l-0.01-0.029c-0.019-0.393,0.144-0.737,0.486-1.035
			c0.342-0.298,0.789-0.446,1.341-0.446s0.995,0.146,1.33,0.439c0.334,0.292,0.502,0.712,0.502,1.259v2.567
			c0,0.184,0.01,0.361,0.03,0.535c0.02,0.174,0.053,0.346,0.1,0.517H271.224z M269.373,40.43c0.428,0,0.798-0.105,1.111-0.316
			c0.313-0.21,0.525-0.481,0.637-0.813v-0.999h-1.241c-0.452,0-0.826,0.112-1.12,0.335c-0.295,0.224-0.441,0.493-0.441,0.809
			c0,0.296,0.094,0.534,0.281,0.714C268.787,40.34,269.045,40.43,269.373,40.43z"/>
		<path fill="#4D4D4D" d="M274.998,40.454c0.356,0,0.672-0.109,0.946-0.328s0.411-0.523,0.411-0.912h0.498l0.009,0.029
			c0.013,0.482-0.17,0.886-0.549,1.211c-0.378,0.324-0.816,0.487-1.315,0.487c-0.669,0-1.19-0.245-1.564-0.733
			c-0.373-0.489-0.56-1.115-0.56-1.877v-0.203c0-0.759,0.186-1.383,0.558-1.872s0.893-0.733,1.562-0.733
			c0.54,0,0.989,0.169,1.349,0.507s0.533,0.781,0.521,1.332l-0.009,0.028h-0.498c0-0.418-0.132-0.752-0.395-1.001
			c-0.264-0.249-0.586-0.374-0.968-0.374c-0.526,0-0.919,0.201-1.176,0.604c-0.257,0.401-0.386,0.905-0.386,1.51v0.203
			c0,0.614,0.129,1.121,0.386,1.522C274.074,40.254,274.469,40.454,274.998,40.454z M275.133,40.883l-0.056,0.31
			c0.245,0.028,0.442,0.106,0.593,0.233s0.226,0.324,0.226,0.592c0,0.292-0.122,0.526-0.367,0.702
			c-0.245,0.175-0.595,0.263-1.051,0.263l-0.032-0.377c0.278,0,0.514-0.049,0.704-0.146c0.19-0.099,0.286-0.242,0.286-0.433
			c0-0.183-0.064-0.311-0.193-0.383s-0.354-0.122-0.677-0.147l0.136-0.613H275.133z"/>
		<path fill="#4D4D4D" d="M281.241,40.84c-0.034-0.184-0.06-0.341-0.077-0.473c-0.017-0.132-0.025-0.268-0.025-0.405
			c-0.174,0.283-0.417,0.517-0.729,0.702c-0.313,0.185-0.673,0.277-1.079,0.277c-0.492,0-0.874-0.136-1.146-0.408
			c-0.271-0.271-0.406-0.641-0.406-1.107c0-0.466,0.196-0.844,0.59-1.134c0.394-0.289,0.905-0.435,1.534-0.435h1.236v-0.646
			c0-0.373-0.113-0.666-0.342-0.878c-0.228-0.212-0.549-0.318-0.964-0.318c-0.382,0-0.689,0.097-0.923,0.289
			c-0.234,0.193-0.352,0.437-0.352,0.729h-0.516l-0.01-0.029c-0.019-0.393,0.144-0.737,0.486-1.035
			c0.342-0.298,0.789-0.446,1.341-0.446s0.995,0.146,1.33,0.439c0.334,0.292,0.502,0.712,0.502,1.259v2.567
			c0,0.184,0.01,0.361,0.03,0.535c0.02,0.174,0.053,0.346,0.1,0.517H281.241z M281.334,33.597c0,0.283-0.085,0.519-0.256,0.705
			c-0.17,0.187-0.383,0.279-0.637,0.279c-0.229,0-0.463-0.088-0.702-0.265c-0.238-0.177-0.441-0.266-0.608-0.266
			c-0.146,0-0.269,0.057-0.367,0.169c-0.1,0.112-0.149,0.256-0.149,0.43l-0.371-0.087c0-0.277,0.083-0.51,0.251-0.697
			c0.167-0.188,0.379-0.282,0.637-0.282c0.201,0,0.429,0.088,0.684,0.265c0.254,0.178,0.463,0.266,0.627,0.266
			c0.143,0,0.265-0.058,0.367-0.174c0.103-0.115,0.153-0.262,0.153-0.438L281.334,33.597z M279.391,40.43
			c0.428,0,0.798-0.105,1.111-0.316c0.313-0.21,0.525-0.481,0.637-0.813v-0.999h-1.241c-0.452,0-0.826,0.112-1.12,0.335
			c-0.295,0.224-0.441,0.493-0.441,0.809c0,0.296,0.094,0.534,0.281,0.714C278.805,40.34,279.063,40.43,279.391,40.43z"/>
		<path fill="#4D4D4D" d="M282.863,38.152c0-0.769,0.203-1.399,0.609-1.892c0.405-0.492,0.943-0.738,1.613-0.738
			c0.672,0,1.211,0.246,1.617,0.738s0.609,1.123,0.609,1.892v0.159c0,0.771-0.202,1.403-0.606,1.894
			c-0.405,0.491-0.941,0.736-1.611,0.736c-0.676,0-1.217-0.245-1.622-0.736c-0.406-0.49-0.609-1.122-0.609-1.894V38.152z
			 M283.421,38.312c0,0.604,0.147,1.113,0.442,1.524c0.294,0.412,0.705,0.618,1.231,0.618c0.518,0,0.925-0.206,1.221-0.618
			c0.296-0.411,0.443-0.92,0.443-1.524v-0.159c0-0.596-0.148-1.101-0.446-1.516c-0.297-0.415-0.706-0.622-1.227-0.622
			c-0.521,0-0.929,0.207-1.223,0.622c-0.295,0.415-0.442,0.92-0.442,1.516V38.312z"/>
		<path fill="#4D4D4D" d="M244.64,49.297h-3.035v2.914h3.51v0.487h-4.068v-7.025h4.045v0.492h-3.486v2.64h3.035V49.297z"/>
		<path fill="#4D4D4D" d="M249.177,51.361c0-0.244-0.097-0.457-0.291-0.639c-0.193-0.182-0.543-0.331-1.048-0.446
			c-0.595-0.129-1.038-0.305-1.327-0.528c-0.29-0.224-0.435-0.537-0.435-0.938c0-0.399,0.161-0.737,0.485-1.014
			s0.752-0.415,1.285-0.415c0.562,0,1.009,0.147,1.344,0.441s0.494,0.657,0.479,1.088l-0.009,0.029h-0.517
			c0-0.286-0.118-0.536-0.355-0.748c-0.236-0.212-0.551-0.318-0.941-0.318c-0.402,0-0.706,0.092-0.911,0.275
			c-0.204,0.183-0.307,0.396-0.307,0.642c0,0.238,0.088,0.435,0.263,0.591s0.524,0.294,1.049,0.412
			c0.588,0.136,1.034,0.324,1.336,0.565c0.303,0.241,0.453,0.565,0.453,0.975c0,0.434-0.169,0.787-0.509,1.059
			c-0.339,0.272-0.788,0.408-1.346,0.408c-0.61,0-1.09-0.151-1.438-0.454c-0.349-0.302-0.514-0.662-0.495-1.08l0.009-0.029h0.512
			c0.021,0.376,0.17,0.649,0.443,0.82c0.274,0.17,0.598,0.256,0.97,0.256c0.402,0,0.721-0.094,0.953-0.28
			S249.177,51.622,249.177,51.361z"/>
		<path fill="#4D4D4D" d="M251.882,46.141v1.337h1.106v0.473h-1.106v3.401c0,0.342,0.06,0.584,0.18,0.727
			c0.119,0.144,0.277,0.215,0.477,0.215c0.067,0,0.134-0.004,0.197-0.012c0.063-0.009,0.139-0.022,0.226-0.041l0.083,0.429
			c-0.074,0.039-0.166,0.07-0.276,0.095c-0.11,0.023-0.219,0.036-0.327,0.036c-0.354,0-0.629-0.116-0.825-0.348
			c-0.197-0.231-0.296-0.599-0.296-1.101V47.95h-0.869v-0.473h0.869v-1.337H251.882z"/>
		<path fill="#4D4D4D" d="M256.373,47.975l-0.396-0.029c-0.351,0-0.638,0.103-0.862,0.307s-0.385,0.484-0.481,0.842v3.604h-0.558
			v-5.221h0.488l0.069,0.868v0.058c0.146-0.321,0.341-0.572,0.586-0.752c0.245-0.181,0.536-0.271,0.874-0.271
			c0.068,0,0.134,0.006,0.195,0.017c0.062,0.012,0.113,0.023,0.153,0.036L256.373,47.975z"/>
		<path fill="#4D4D4D" d="M260.51,52.698c-0.034-0.184-0.06-0.341-0.077-0.473c-0.017-0.132-0.025-0.268-0.025-0.405
			c-0.174,0.283-0.417,0.517-0.729,0.702c-0.313,0.185-0.673,0.277-1.079,0.277c-0.492,0-0.874-0.136-1.146-0.408
			c-0.271-0.271-0.406-0.641-0.406-1.107c0-0.466,0.196-0.844,0.59-1.134c0.394-0.289,0.905-0.435,1.534-0.435h1.236v-0.646
			c0-0.373-0.113-0.666-0.342-0.878c-0.228-0.212-0.549-0.318-0.964-0.318c-0.382,0-0.689,0.097-0.923,0.289
			c-0.234,0.193-0.352,0.437-0.352,0.729h-0.516l-0.01-0.029c-0.019-0.393,0.144-0.737,0.486-1.035
			c0.342-0.298,0.789-0.446,1.341-0.446s0.995,0.146,1.33,0.439c0.334,0.292,0.502,0.712,0.502,1.259v2.567
			c0,0.184,0.01,0.361,0.03,0.535c0.02,0.174,0.053,0.346,0.1,0.517H260.51z M258.659,52.288c0.428,0,0.798-0.105,1.111-0.316
			c0.313-0.21,0.525-0.481,0.637-0.813V50.16h-1.241c-0.452,0-0.826,0.112-1.12,0.335c-0.295,0.224-0.441,0.493-0.441,0.809
			c0,0.296,0.094,0.534,0.281,0.714C258.073,52.198,258.331,52.288,258.659,52.288z"/>
		<path fill="#4D4D4D" d="M262.937,47.478l0.051,0.907c0.164-0.318,0.383-0.565,0.655-0.741c0.273-0.175,0.597-0.263,0.972-0.263
			c0.546,0,0.961,0.173,1.246,0.519s0.428,0.886,0.428,1.619v3.18h-0.558v-3.175c0-0.599-0.108-1.021-0.323-1.27
			c-0.216-0.247-0.521-0.371-0.918-0.371c-0.397,0-0.717,0.102-0.96,0.304c-0.244,0.203-0.42,0.475-0.528,0.815v3.696h-0.558v-5.221
			H262.937z"/>
		<path fill="#4D4D4D" d="M267.543,50.131c0-0.833,0.17-1.499,0.51-2c0.339-0.5,0.813-0.75,1.42-0.75c0.356,0,0.666,0.08,0.93,0.239
			s0.48,0.385,0.65,0.678l0.079-0.82h0.451v5.25c0,0.666-0.177,1.179-0.53,1.539c-0.353,0.36-0.854,0.54-1.501,0.54
			c-0.242,0-0.5-0.03-0.774-0.092c-0.274-0.061-0.514-0.145-0.718-0.251l0.106-0.487c0.202,0.104,0.416,0.182,0.645,0.234
			c0.228,0.053,0.472,0.08,0.731,0.08c0.496,0,0.866-0.133,1.111-0.396s0.367-0.652,0.367-1.167v-0.738
			c-0.17,0.26-0.387,0.461-0.648,0.601s-0.564,0.21-0.909,0.21c-0.601,0-1.071-0.233-1.41-0.7c-0.34-0.466-0.51-1.089-0.51-1.867
			V50.131z M268.102,50.232c0,0.631,0.122,1.133,0.367,1.506c0.244,0.373,0.611,0.56,1.102,0.56c0.354,0,0.65-0.083,0.891-0.249
			c0.239-0.165,0.427-0.393,0.56-0.683v-2.489c-0.127-0.293-0.308-0.532-0.541-0.717c-0.234-0.185-0.534-0.277-0.9-0.277
			c-0.489,0-0.858,0.209-1.106,0.627c-0.247,0.418-0.371,0.959-0.371,1.621V50.232z"/>
		<path fill="#4D4D4D" d="M274.954,52.8c-0.651,0-1.18-0.239-1.586-0.717c-0.405-0.478-0.608-1.091-0.608-1.841v-0.266
			c0-0.753,0.205-1.373,0.615-1.862c0.411-0.489,0.92-0.733,1.527-0.733c0.61,0,1.083,0.203,1.416,0.61s0.499,0.955,0.499,1.643
			v0.449h-3.5v0.159c0,0.595,0.145,1.089,0.435,1.481s0.69,0.589,1.202,0.589c0.307,0,0.589-0.053,0.846-0.157
			s0.471-0.245,0.642-0.422l0.237,0.396c-0.177,0.193-0.408,0.354-0.695,0.48S275.354,52.8,274.954,52.8z M274.902,47.873
			c-0.428,0-0.779,0.159-1.055,0.478c-0.276,0.318-0.438,0.723-0.483,1.211l0.014,0.029h2.882V49.47
			c0-0.463-0.117-0.845-0.351-1.146C275.675,48.023,275.34,47.873,274.902,47.873z"/>
		<path fill="#4D4D4D" d="M278.565,45.981h-0.553v-0.811h0.553V45.981z M278.565,52.698h-0.553v-5.221h0.553V52.698z"/>
		<path fill="#4D4D4D" d="M282.401,47.975l-0.396-0.029c-0.351,0-0.638,0.103-0.862,0.307s-0.385,0.484-0.481,0.842v3.604h-0.558
			v-5.221h0.488l0.069,0.868v0.058c0.146-0.321,0.341-0.572,0.586-0.752c0.245-0.181,0.536-0.271,0.874-0.271
			c0.068,0,0.134,0.006,0.195,0.017c0.062,0.012,0.113,0.023,0.153,0.036L282.401,47.975z"/>
		<path fill="#4D4D4D" d="M286.538,52.698c-0.034-0.184-0.06-0.341-0.077-0.473c-0.017-0.132-0.025-0.268-0.025-0.405
			c-0.174,0.283-0.417,0.517-0.729,0.702c-0.313,0.185-0.673,0.277-1.079,0.277c-0.492,0-0.874-0.136-1.146-0.408
			c-0.271-0.271-0.406-0.641-0.406-1.107c0-0.466,0.196-0.844,0.59-1.134c0.394-0.289,0.905-0.435,1.534-0.435h1.236v-0.646
			c0-0.373-0.113-0.666-0.342-0.878c-0.228-0.212-0.549-0.318-0.964-0.318c-0.382,0-0.689,0.097-0.923,0.289
			c-0.234,0.193-0.352,0.437-0.352,0.729h-0.516l-0.01-0.029c-0.019-0.393,0.144-0.737,0.486-1.035
			c0.342-0.298,0.789-0.446,1.341-0.446s0.995,0.146,1.33,0.439c0.334,0.292,0.502,0.712,0.502,1.259v2.567
			c0,0.184,0.01,0.361,0.03,0.535c0.02,0.174,0.053,0.346,0.1,0.517H286.538z M284.688,52.288c0.428,0,0.798-0.105,1.111-0.316
			c0.313-0.21,0.525-0.481,0.637-0.813V50.16h-1.241c-0.452,0-0.826,0.112-1.12,0.335c-0.295,0.224-0.441,0.493-0.441,0.809
			c0,0.296,0.094,0.534,0.281,0.714C284.102,52.198,284.359,52.288,284.688,52.288z"/>
	</g>
</g>
<g>
	<g>
		<path fill="#4D4D4D" d="M187.232,90.651h-3.109v3.291h-0.559v-7.025h4.143v0.492h-3.584v2.745h3.109V90.651z"/>
		<path fill="#4D4D4D" d="M191.867,93.093c-0.161,0.306-0.377,0.541-0.648,0.705c-0.271,0.164-0.593,0.246-0.964,0.246
			c-0.53,0-0.945-0.187-1.246-0.56s-0.451-0.952-0.451-1.737v-3.025h0.558v3.035c0,0.637,0.104,1.094,0.314,1.37
			c0.209,0.276,0.506,0.415,0.89,0.415c0.419,0,0.753-0.098,1.002-0.292c0.25-0.194,0.426-0.461,0.527-0.799v-3.729h0.559v5.221
			h-0.493L191.867,93.093z"/>
		<path fill="#4D4D4D" d="M194.369,88.722l0.051,0.907c0.164-0.318,0.383-0.565,0.655-0.741c0.273-0.175,0.597-0.263,0.972-0.263
			c0.546,0,0.961,0.173,1.246,0.519s0.428,0.886,0.428,1.619v3.18h-0.558v-3.175c0-0.599-0.108-1.021-0.323-1.27
			c-0.216-0.247-0.521-0.371-0.918-0.371c-0.397,0-0.717,0.102-0.96,0.304c-0.244,0.203-0.42,0.475-0.528,0.815v3.696h-0.558v-5.221
			H194.369z"/>
		<path fill="#4D4D4D" d="M198.957,91.375c0-0.833,0.17-1.499,0.51-2c0.339-0.5,0.813-0.75,1.42-0.75
			c0.344,0,0.646,0.075,0.904,0.227s0.474,0.365,0.644,0.642v-3.078h0.558v7.527h-0.455l-0.079-0.758
			c-0.171,0.277-0.388,0.489-0.651,0.637c-0.263,0.148-0.573,0.223-0.93,0.223c-0.601,0-1.071-0.232-1.41-0.697
			c-0.34-0.465-0.51-1.088-0.51-1.87V91.375z M199.516,91.477c0,0.631,0.121,1.133,0.364,1.506s0.61,0.56,1.1,0.56
			c0.359,0,0.658-0.083,0.897-0.249c0.238-0.165,0.425-0.395,0.558-0.688v-2.475c-0.127-0.296-0.307-0.537-0.539-0.725
			c-0.232-0.187-0.535-0.279-0.906-0.279c-0.49,0-0.858,0.208-1.104,0.625c-0.246,0.416-0.369,0.958-0.369,1.623V91.477z"/>
		<path fill="#4D4D4D" d="M207.66,93.942c-0.034-0.184-0.06-0.341-0.077-0.473c-0.017-0.132-0.025-0.268-0.025-0.405
			c-0.174,0.283-0.417,0.517-0.729,0.702c-0.313,0.185-0.673,0.277-1.079,0.277c-0.492,0-0.874-0.136-1.146-0.408
			c-0.271-0.271-0.406-0.641-0.406-1.107c0-0.466,0.196-0.844,0.59-1.134c0.394-0.289,0.905-0.435,1.534-0.435h1.236v-0.646
			c0-0.373-0.113-0.666-0.342-0.878c-0.228-0.212-0.549-0.318-0.964-0.318c-0.382,0-0.689,0.097-0.923,0.289
			c-0.234,0.193-0.352,0.437-0.352,0.729h-0.516l-0.01-0.029c-0.019-0.393,0.144-0.737,0.486-1.035
			c0.342-0.298,0.789-0.446,1.341-0.446s0.995,0.146,1.33,0.439c0.334,0.292,0.502,0.712,0.502,1.259v2.567
			c0,0.184,0.01,0.361,0.03,0.535c0.02,0.174,0.053,0.346,0.1,0.517H207.66z M205.81,93.532c0.428,0,0.798-0.105,1.111-0.316
			c0.313-0.21,0.525-0.481,0.637-0.813v-0.999h-1.241c-0.452,0-0.826,0.112-1.12,0.335c-0.295,0.224-0.441,0.493-0.441,0.809
			c0,0.296,0.094,0.534,0.281,0.714C205.224,93.442,205.481,93.532,205.81,93.532z"/>
		<path fill="#4D4D4D" d="M211.435,93.557c0.356,0,0.672-0.109,0.946-0.328s0.411-0.523,0.411-0.912h0.498l0.009,0.029
			c0.013,0.482-0.17,0.886-0.549,1.211c-0.378,0.324-0.816,0.487-1.315,0.487c-0.669,0-1.19-0.245-1.564-0.733
			c-0.373-0.489-0.56-1.115-0.56-1.877V91.23c0-0.759,0.186-1.383,0.558-1.872s0.893-0.733,1.562-0.733
			c0.54,0,0.989,0.169,1.349,0.507s0.533,0.781,0.521,1.332l-0.009,0.028h-0.498c0-0.418-0.132-0.752-0.395-1.001
			c-0.264-0.249-0.586-0.374-0.968-0.374c-0.526,0-0.919,0.201-1.176,0.604c-0.257,0.401-0.386,0.905-0.386,1.51v0.203
			c0,0.614,0.129,1.121,0.386,1.522C210.511,93.356,210.905,93.557,211.435,93.557z M211.569,93.985l-0.056,0.31
			c0.245,0.028,0.442,0.106,0.593,0.233s0.226,0.324,0.226,0.592c0,0.292-0.122,0.526-0.367,0.702
			c-0.245,0.175-0.595,0.263-1.051,0.263l-0.032-0.377c0.278,0,0.514-0.049,0.704-0.146c0.19-0.099,0.286-0.242,0.286-0.433
			c0-0.183-0.064-0.311-0.193-0.383s-0.354-0.122-0.677-0.147l0.136-0.613H211.569z"/>
		<path fill="#4D4D4D" d="M217.678,93.942c-0.034-0.184-0.06-0.341-0.077-0.473c-0.017-0.132-0.025-0.268-0.025-0.405
			c-0.174,0.283-0.417,0.517-0.729,0.702c-0.313,0.185-0.673,0.277-1.079,0.277c-0.492,0-0.874-0.136-1.146-0.408
			c-0.271-0.271-0.406-0.641-0.406-1.107c0-0.466,0.196-0.844,0.59-1.134c0.394-0.289,0.905-0.435,1.534-0.435h1.236v-0.646
			c0-0.373-0.113-0.666-0.342-0.878c-0.228-0.212-0.549-0.318-0.964-0.318c-0.382,0-0.689,0.097-0.923,0.289
			c-0.234,0.193-0.352,0.437-0.352,0.729h-0.516l-0.01-0.029c-0.019-0.393,0.144-0.737,0.486-1.035
			c0.342-0.298,0.789-0.446,1.341-0.446s0.995,0.146,1.33,0.439c0.334,0.292,0.502,0.712,0.502,1.259v2.567
			c0,0.184,0.01,0.361,0.03,0.535c0.02,0.174,0.053,0.346,0.1,0.517H217.678z M217.771,86.699c0,0.283-0.085,0.519-0.256,0.705
			c-0.17,0.187-0.383,0.279-0.637,0.279c-0.229,0-0.463-0.088-0.702-0.265c-0.238-0.177-0.441-0.266-0.608-0.266
			c-0.146,0-0.269,0.057-0.367,0.169c-0.1,0.112-0.149,0.256-0.149,0.43l-0.371-0.087c0-0.277,0.083-0.51,0.251-0.697
			c0.167-0.188,0.379-0.282,0.637-0.282c0.201,0,0.429,0.088,0.684,0.265c0.254,0.178,0.463,0.266,0.627,0.266
			c0.143,0,0.265-0.058,0.367-0.174c0.103-0.115,0.153-0.262,0.153-0.438L217.771,86.699z M215.827,93.532
			c0.428,0,0.798-0.105,1.111-0.316c0.313-0.21,0.525-0.481,0.637-0.813v-0.999h-1.241c-0.452,0-0.826,0.112-1.12,0.335
			c-0.295,0.224-0.441,0.493-0.441,0.809c0,0.296,0.094,0.534,0.281,0.714C215.241,93.442,215.499,93.532,215.827,93.532z"/>
		<path fill="#4D4D4D" d="M219.3,91.255c0-0.769,0.203-1.399,0.609-1.892c0.405-0.492,0.943-0.738,1.613-0.738
			c0.672,0,1.211,0.246,1.617,0.738s0.609,1.123,0.609,1.892v0.159c0,0.771-0.202,1.403-0.606,1.894
			c-0.405,0.491-0.941,0.736-1.611,0.736c-0.676,0-1.217-0.245-1.622-0.736c-0.406-0.49-0.609-1.122-0.609-1.894V91.255z
			 M219.857,91.414c0,0.604,0.147,1.113,0.442,1.524c0.294,0.412,0.705,0.618,1.231,0.618c0.518,0,0.925-0.206,1.221-0.618
			c0.296-0.411,0.443-0.92,0.443-1.524v-0.159c0-0.596-0.148-1.101-0.446-1.516c-0.297-0.415-0.706-0.622-1.227-0.622
			c-0.521,0-0.929,0.207-1.223,0.622c-0.295,0.415-0.442,0.92-0.442,1.516V91.414z"/>
		<path fill="#4D4D4D" d="M226.915,91.255c0-0.769,0.203-1.399,0.609-1.892c0.405-0.492,0.943-0.738,1.613-0.738
			c0.672,0,1.211,0.246,1.617,0.738s0.609,1.123,0.609,1.892v0.159c0,0.771-0.202,1.403-0.606,1.894
			c-0.405,0.491-0.941,0.736-1.611,0.736c-0.676,0-1.217-0.245-1.622-0.736c-0.406-0.49-0.609-1.122-0.609-1.894V91.255z
			 M227.473,91.414c0,0.604,0.147,1.113,0.442,1.524c0.294,0.412,0.705,0.618,1.231,0.618c0.518,0,0.925-0.206,1.221-0.618
			c0.296-0.411,0.443-0.92,0.443-1.524v-0.159c0-0.596-0.148-1.101-0.446-1.516c-0.297-0.415-0.706-0.622-1.227-0.622
			c-0.521,0-0.929,0.207-1.223,0.622c-0.295,0.415-0.442,0.92-0.442,1.516V91.414z"/>
		<path fill="#4D4D4D" d="M235.817,93.093c-0.161,0.306-0.377,0.541-0.648,0.705c-0.271,0.164-0.593,0.246-0.964,0.246
			c-0.53,0-0.945-0.187-1.246-0.56s-0.451-0.952-0.451-1.737v-3.025h0.558v3.035c0,0.637,0.104,1.094,0.314,1.37
			c0.209,0.276,0.506,0.415,0.89,0.415c0.419,0,0.753-0.098,1.002-0.292c0.25-0.194,0.426-0.461,0.527-0.799v-3.729h0.559v5.221
			h-0.493L235.817,93.093z"/>
		<path fill="#4D4D4D" d="M243.814,91.983h-2.971l-0.684,1.959h-0.576l2.487-7.025h0.525l2.468,7.025h-0.576L243.814,91.983z
			 M241.021,91.467h2.612l-1.283-3.725h-0.027L241.021,91.467z"/>
		<path fill="#4D4D4D" d="M248.993,92.605c0-0.244-0.097-0.457-0.291-0.639c-0.193-0.182-0.543-0.331-1.048-0.446
			c-0.595-0.129-1.038-0.305-1.327-0.528c-0.29-0.224-0.435-0.537-0.435-0.938c0-0.399,0.161-0.737,0.485-1.014
			s0.752-0.415,1.285-0.415c0.562,0,1.009,0.147,1.344,0.441s0.494,0.657,0.479,1.088l-0.009,0.029h-0.517
			c0-0.286-0.118-0.536-0.355-0.748c-0.236-0.212-0.551-0.318-0.941-0.318c-0.402,0-0.706,0.092-0.911,0.275
			c-0.204,0.183-0.307,0.396-0.307,0.642c0,0.238,0.088,0.435,0.263,0.591s0.524,0.294,1.049,0.412
			c0.588,0.136,1.034,0.324,1.336,0.565c0.303,0.241,0.453,0.565,0.453,0.975c0,0.434-0.169,0.787-0.509,1.059
			c-0.339,0.272-0.788,0.408-1.346,0.408c-0.61,0-1.09-0.151-1.438-0.454c-0.349-0.302-0.514-0.662-0.495-1.08l0.009-0.029h0.512
			c0.021,0.376,0.17,0.649,0.443,0.82c0.274,0.17,0.598,0.256,0.97,0.256c0.402,0,0.721-0.094,0.953-0.28
			S248.993,92.866,248.993,92.605z"/>
		<path fill="#4D4D4D" d="M253.842,92.605c0-0.244-0.097-0.457-0.291-0.639c-0.193-0.182-0.543-0.331-1.048-0.446
			c-0.595-0.129-1.038-0.305-1.327-0.528c-0.29-0.224-0.435-0.537-0.435-0.938c0-0.399,0.161-0.737,0.485-1.014
			s0.752-0.415,1.285-0.415c0.562,0,1.009,0.147,1.344,0.441s0.494,0.657,0.479,1.088l-0.009,0.029h-0.517
			c0-0.286-0.118-0.536-0.355-0.748c-0.236-0.212-0.551-0.318-0.941-0.318c-0.402,0-0.706,0.092-0.911,0.275
			c-0.204,0.183-0.307,0.396-0.307,0.642c0,0.238,0.088,0.435,0.263,0.591s0.524,0.294,1.049,0.412
			c0.588,0.136,1.034,0.324,1.336,0.565c0.303,0.241,0.453,0.565,0.453,0.975c0,0.434-0.169,0.787-0.509,1.059
			c-0.339,0.272-0.788,0.408-1.346,0.408c-0.61,0-1.09-0.151-1.438-0.454c-0.349-0.302-0.514-0.662-0.495-1.08l0.009-0.029h0.512
			c0.021,0.376,0.17,0.649,0.443,0.82c0.274,0.17,0.598,0.256,0.97,0.256c0.402,0,0.721-0.094,0.953-0.28
			S253.842,92.866,253.842,92.605z"/>
		<path fill="#4D4D4D" d="M255.366,91.255c0-0.769,0.203-1.399,0.609-1.892c0.405-0.492,0.943-0.738,1.613-0.738
			c0.672,0,1.211,0.246,1.617,0.738s0.609,1.123,0.609,1.892v0.159c0,0.771-0.202,1.403-0.606,1.894
			c-0.405,0.491-0.941,0.736-1.611,0.736c-0.676,0-1.217-0.245-1.622-0.736c-0.406-0.49-0.609-1.122-0.609-1.894V91.255z
			 M255.924,91.414c0,0.604,0.147,1.113,0.442,1.524c0.294,0.412,0.705,0.618,1.231,0.618c0.518,0,0.925-0.206,1.221-0.618
			c0.296-0.411,0.443-0.92,0.443-1.524v-0.159c0-0.596-0.148-1.101-0.446-1.516c-0.297-0.415-0.706-0.622-1.227-0.622
			c-0.521,0-0.929,0.207-1.223,0.622c-0.295,0.415-0.442,0.92-0.442,1.516V91.414z"/>
		<path fill="#4D4D4D" d="M262.818,93.557c0.356,0,0.672-0.109,0.946-0.328s0.411-0.523,0.411-0.912h0.498l0.009,0.029
			c0.013,0.482-0.17,0.886-0.549,1.211c-0.378,0.324-0.816,0.487-1.315,0.487c-0.669,0-1.19-0.245-1.564-0.733
			c-0.373-0.489-0.56-1.115-0.56-1.877V91.23c0-0.759,0.186-1.383,0.558-1.872s0.893-0.733,1.562-0.733
			c0.54,0,0.989,0.169,1.349,0.507s0.533,0.781,0.521,1.332l-0.009,0.028h-0.498c0-0.418-0.132-0.752-0.395-1.001
			c-0.264-0.249-0.586-0.374-0.968-0.374c-0.526,0-0.919,0.201-1.176,0.604c-0.257,0.401-0.386,0.905-0.386,1.51v0.203
			c0,0.614,0.129,1.121,0.386,1.522C261.895,93.356,262.289,93.557,262.818,93.557z"/>
		<path fill="#4D4D4D" d="M266.5,87.226h-0.553v-0.811h0.553V87.226z M266.5,93.942h-0.553v-5.221h0.553V93.942z"/>
		<path fill="#4D4D4D" d="M271.224,93.942c-0.034-0.184-0.06-0.341-0.077-0.473c-0.017-0.132-0.025-0.268-0.025-0.405
			c-0.174,0.283-0.417,0.517-0.729,0.702c-0.313,0.185-0.673,0.277-1.079,0.277c-0.492,0-0.874-0.136-1.146-0.408
			c-0.271-0.271-0.406-0.641-0.406-1.107c0-0.466,0.196-0.844,0.59-1.134c0.394-0.289,0.905-0.435,1.534-0.435h1.236v-0.646
			c0-0.373-0.113-0.666-0.342-0.878c-0.228-0.212-0.549-0.318-0.964-0.318c-0.382,0-0.689,0.097-0.923,0.289
			c-0.234,0.193-0.352,0.437-0.352,0.729h-0.516l-0.01-0.029c-0.019-0.393,0.144-0.737,0.486-1.035
			c0.342-0.298,0.789-0.446,1.341-0.446s0.995,0.146,1.33,0.439c0.334,0.292,0.502,0.712,0.502,1.259v2.567
			c0,0.184,0.01,0.361,0.03,0.535c0.02,0.174,0.053,0.346,0.1,0.517H271.224z M269.373,93.532c0.428,0,0.798-0.105,1.111-0.316
			c0.313-0.21,0.525-0.481,0.637-0.813v-0.999h-1.241c-0.452,0-0.826,0.112-1.12,0.335c-0.295,0.224-0.441,0.493-0.441,0.809
			c0,0.296,0.094,0.534,0.281,0.714C268.787,93.442,269.045,93.532,269.373,93.532z"/>
		<path fill="#4D4D4D" d="M274.998,93.557c0.356,0,0.672-0.109,0.946-0.328s0.411-0.523,0.411-0.912h0.498l0.009,0.029
			c0.013,0.482-0.17,0.886-0.549,1.211c-0.378,0.324-0.816,0.487-1.315,0.487c-0.669,0-1.19-0.245-1.564-0.733
			c-0.373-0.489-0.56-1.115-0.56-1.877V91.23c0-0.759,0.186-1.383,0.558-1.872s0.893-0.733,1.562-0.733
			c0.54,0,0.989,0.169,1.349,0.507s0.533,0.781,0.521,1.332l-0.009,0.028h-0.498c0-0.418-0.132-0.752-0.395-1.001
			c-0.264-0.249-0.586-0.374-0.968-0.374c-0.526,0-0.919,0.201-1.176,0.604c-0.257,0.401-0.386,0.905-0.386,1.51v0.203
			c0,0.614,0.129,1.121,0.386,1.522C274.074,93.356,274.469,93.557,274.998,93.557z M275.133,93.985l-0.056,0.31
			c0.245,0.028,0.442,0.106,0.593,0.233s0.226,0.324,0.226,0.592c0,0.292-0.122,0.526-0.367,0.702
			c-0.245,0.175-0.595,0.263-1.051,0.263l-0.032-0.377c0.278,0,0.514-0.049,0.704-0.146c0.19-0.099,0.286-0.242,0.286-0.433
			c0-0.183-0.064-0.311-0.193-0.383s-0.354-0.122-0.677-0.147l0.136-0.613H275.133z"/>
		<path fill="#4D4D4D" d="M281.241,93.942c-0.034-0.184-0.06-0.341-0.077-0.473c-0.017-0.132-0.025-0.268-0.025-0.405
			c-0.174,0.283-0.417,0.517-0.729,0.702c-0.313,0.185-0.673,0.277-1.079,0.277c-0.492,0-0.874-0.136-1.146-0.408
			c-0.271-0.271-0.406-0.641-0.406-1.107c0-0.466,0.196-0.844,0.59-1.134c0.394-0.289,0.905-0.435,1.534-0.435h1.236v-0.646
			c0-0.373-0.113-0.666-0.342-0.878c-0.228-0.212-0.549-0.318-0.964-0.318c-0.382,0-0.689,0.097-0.923,0.289
			c-0.234,0.193-0.352,0.437-0.352,0.729h-0.516l-0.01-0.029c-0.019-0.393,0.144-0.737,0.486-1.035
			c0.342-0.298,0.789-0.446,1.341-0.446s0.995,0.146,1.33,0.439c0.334,0.292,0.502,0.712,0.502,1.259v2.567
			c0,0.184,0.01,0.361,0.03,0.535c0.02,0.174,0.053,0.346,0.1,0.517H281.241z M281.334,86.699c0,0.283-0.085,0.519-0.256,0.705
			c-0.17,0.187-0.383,0.279-0.637,0.279c-0.229,0-0.463-0.088-0.702-0.265c-0.238-0.177-0.441-0.266-0.608-0.266
			c-0.146,0-0.269,0.057-0.367,0.169c-0.1,0.112-0.149,0.256-0.149,0.43l-0.371-0.087c0-0.277,0.083-0.51,0.251-0.697
			c0.167-0.188,0.379-0.282,0.637-0.282c0.201,0,0.429,0.088,0.684,0.265c0.254,0.178,0.463,0.266,0.627,0.266
			c0.143,0,0.265-0.058,0.367-0.174c0.103-0.115,0.153-0.262,0.153-0.438L281.334,86.699z M279.391,93.532
			c0.428,0,0.798-0.105,1.111-0.316c0.313-0.21,0.525-0.481,0.637-0.813v-0.999h-1.241c-0.452,0-0.826,0.112-1.12,0.335
			c-0.295,0.224-0.441,0.493-0.441,0.809c0,0.296,0.094,0.534,0.281,0.714C278.805,93.442,279.063,93.532,279.391,93.532z"/>
		<path fill="#4D4D4D" d="M282.863,91.255c0-0.769,0.203-1.399,0.609-1.892c0.405-0.492,0.943-0.738,1.613-0.738
			c0.672,0,1.211,0.246,1.617,0.738s0.609,1.123,0.609,1.892v0.159c0,0.771-0.202,1.403-0.606,1.894
			c-0.405,0.491-0.941,0.736-1.611,0.736c-0.676,0-1.217-0.245-1.622-0.736c-0.406-0.49-0.609-1.122-0.609-1.894V91.255z
			 M283.421,91.414c0,0.604,0.147,1.113,0.442,1.524c0.294,0.412,0.705,0.618,1.231,0.618c0.518,0,0.925-0.206,1.221-0.618
			c0.296-0.411,0.443-0.92,0.443-1.524v-0.159c0-0.596-0.148-1.101-0.446-1.516c-0.297-0.415-0.706-0.622-1.227-0.622
			c-0.521,0-0.929,0.207-1.223,0.622c-0.295,0.415-0.442,0.92-0.442,1.516V91.414z"/>
		<path fill="#4D4D4D" d="M192.667,105.801v-7.025h2.064c0.827,0,1.512,0.286,2.053,0.858c0.54,0.573,0.811,1.308,0.811,2.205v0.902
			c0,0.897-0.271,1.632-0.811,2.203c-0.541,0.571-1.226,0.856-2.053,0.856H192.667z M193.226,99.268v6.046h1.506
			c0.669,0,1.221-0.243,1.655-0.729c0.434-0.485,0.65-1.101,0.65-1.844v-0.916c0-0.733-0.218-1.344-0.653-1.829
			s-0.986-0.729-1.652-0.729H193.226z"/>
		<path fill="#4D4D4D" d="M198.632,103.113c0-0.769,0.203-1.399,0.609-1.892c0.405-0.492,0.943-0.738,1.613-0.738
			c0.672,0,1.211,0.246,1.617,0.738s0.609,1.123,0.609,1.892v0.159c0,0.771-0.202,1.403-0.606,1.894
			c-0.405,0.491-0.941,0.736-1.611,0.736c-0.676,0-1.217-0.245-1.622-0.736c-0.406-0.49-0.609-1.122-0.609-1.894V103.113z
			 M199.189,103.272c0,0.604,0.147,1.113,0.442,1.524c0.294,0.412,0.705,0.618,1.231,0.618c0.518,0,0.925-0.206,1.221-0.618
			c0.296-0.411,0.443-0.92,0.443-1.524v-0.159c0-0.596-0.148-1.101-0.446-1.516c-0.297-0.415-0.706-0.622-1.227-0.622
			c-0.521,0-0.929,0.207-1.223,0.622c-0.295,0.415-0.442,0.92-0.442,1.516V103.272z"/>
		<path fill="#4D4D4D" d="M204.718,100.58l0.051,0.858c0.161-0.302,0.376-0.537,0.644-0.704c0.269-0.167,0.587-0.251,0.956-0.251
			c0.384,0,0.705,0.096,0.962,0.287s0.441,0.483,0.553,0.876c0.152-0.363,0.368-0.648,0.649-0.854
			c0.28-0.206,0.618-0.309,1.016-0.309c0.536,0,0.95,0.185,1.243,0.555s0.439,0.942,0.439,1.718v3.045h-0.558v-3.055
			c0-0.643-0.11-1.098-0.33-1.363c-0.221-0.265-0.524-0.397-0.911-0.397c-0.425,0-0.754,0.134-0.986,0.402s-0.379,0.615-0.441,1.04
			c0,0.035,0.001,0.071,0.003,0.106c0.001,0.035,0.002,0.08,0.002,0.135v3.132h-0.563v-3.055c0-0.63-0.111-1.081-0.332-1.354
			c-0.222-0.271-0.526-0.407-0.914-0.407c-0.391,0-0.701,0.102-0.932,0.307c-0.231,0.204-0.393,0.479-0.486,0.827v3.682h-0.558
			v-5.221H204.718z"/>
		<path fill="#4D4D4D" d="M213.304,99.084h-0.553v-0.811h0.553V99.084z M213.304,105.801h-0.553v-5.221h0.553V105.801z"/>
		<path fill="#4D4D4D" d="M216.684,105.415c0.356,0,0.672-0.109,0.946-0.328s0.411-0.523,0.411-0.912h0.498l0.009,0.029
			c0.013,0.482-0.17,0.886-0.549,1.211c-0.378,0.324-0.816,0.487-1.315,0.487c-0.669,0-1.19-0.245-1.564-0.733
			c-0.373-0.489-0.56-1.115-0.56-1.877v-0.203c0-0.759,0.186-1.383,0.558-1.872s0.893-0.733,1.562-0.733
			c0.54,0,0.989,0.169,1.349,0.507s0.533,0.781,0.521,1.332l-0.009,0.028h-0.498c0-0.418-0.132-0.752-0.395-1.001
			c-0.264-0.249-0.586-0.374-0.968-0.374c-0.526,0-0.919,0.201-1.176,0.604c-0.257,0.401-0.386,0.905-0.386,1.51v0.203
			c0,0.614,0.129,1.121,0.386,1.522C215.76,105.215,216.154,105.415,216.684,105.415z"/>
		<path fill="#4D4D4D" d="M220.365,99.084h-0.553v-0.811h0.553V99.084z M220.365,105.801h-0.553v-5.221h0.553V105.801z"/>
		<path fill="#4D4D4D" d="M222.527,105.801h-0.553v-7.527h0.553V105.801z"/>
		<path fill="#4D4D4D" d="M224.689,99.084h-0.553v-0.811h0.553V99.084z M224.689,105.801h-0.553v-5.221h0.553V105.801z"/>
		<path fill="#4D4D4D" d="M229.413,105.801c-0.034-0.184-0.06-0.341-0.077-0.473c-0.017-0.132-0.025-0.268-0.025-0.405
			c-0.174,0.283-0.417,0.517-0.729,0.702c-0.313,0.185-0.673,0.277-1.079,0.277c-0.492,0-0.874-0.136-1.146-0.408
			c-0.271-0.271-0.406-0.641-0.406-1.107c0-0.466,0.196-0.844,0.59-1.134c0.394-0.289,0.905-0.435,1.534-0.435h1.236v-0.646
			c0-0.373-0.113-0.666-0.342-0.878c-0.228-0.212-0.549-0.318-0.964-0.318c-0.382,0-0.689,0.097-0.923,0.289
			c-0.234,0.193-0.352,0.437-0.352,0.729h-0.516l-0.01-0.029c-0.019-0.393,0.144-0.737,0.486-1.035
			c0.342-0.298,0.789-0.446,1.341-0.446s0.995,0.146,1.33,0.439c0.334,0.292,0.502,0.712,0.502,1.259v2.567
			c0,0.184,0.01,0.361,0.03,0.535c0.02,0.174,0.053,0.346,0.1,0.517H229.413z M227.563,105.391c0.428,0,0.798-0.105,1.111-0.316
			c0.313-0.21,0.525-0.481,0.637-0.813v-0.999h-1.241c-0.452,0-0.826,0.112-1.12,0.335c-0.295,0.224-0.441,0.493-0.441,0.809
			c0,0.296,0.094,0.534,0.281,0.714C226.977,105.301,227.234,105.391,227.563,105.391z"/>
		<path fill="#4D4D4D" d="M231.128,103.233c0-0.833,0.17-1.499,0.51-2c0.339-0.5,0.813-0.75,1.42-0.75
			c0.344,0,0.646,0.075,0.904,0.227s0.474,0.365,0.644,0.642v-3.078h0.558v7.527h-0.455l-0.079-0.758
			c-0.171,0.277-0.388,0.489-0.651,0.637c-0.263,0.148-0.573,0.223-0.93,0.223c-0.601,0-1.071-0.232-1.41-0.697
			c-0.34-0.465-0.51-1.088-0.51-1.87V103.233z M231.687,103.335c0,0.631,0.121,1.133,0.364,1.506s0.61,0.56,1.1,0.56
			c0.359,0,0.658-0.083,0.897-0.249c0.238-0.165,0.425-0.395,0.558-0.688v-2.475c-0.127-0.296-0.307-0.537-0.539-0.725
			c-0.232-0.187-0.535-0.279-0.906-0.279c-0.49,0-0.858,0.208-1.104,0.625c-0.246,0.416-0.369,0.958-0.369,1.623V103.335z"/>
		<path fill="#4D4D4D" d="M239.831,105.801c-0.034-0.184-0.06-0.341-0.077-0.473c-0.017-0.132-0.025-0.268-0.025-0.405
			c-0.174,0.283-0.417,0.517-0.729,0.702c-0.313,0.185-0.673,0.277-1.079,0.277c-0.492,0-0.874-0.136-1.146-0.408
			c-0.271-0.271-0.406-0.641-0.406-1.107c0-0.466,0.196-0.844,0.59-1.134c0.394-0.289,0.905-0.435,1.534-0.435h1.236v-0.646
			c0-0.373-0.113-0.666-0.342-0.878c-0.228-0.212-0.549-0.318-0.964-0.318c-0.382,0-0.689,0.097-0.923,0.289
			c-0.234,0.193-0.352,0.437-0.352,0.729h-0.516l-0.01-0.029c-0.019-0.393,0.144-0.737,0.486-1.035
			c0.342-0.298,0.789-0.446,1.341-0.446s0.995,0.146,1.33,0.439c0.334,0.292,0.502,0.712,0.502,1.259v2.567
			c0,0.184,0.01,0.361,0.03,0.535c0.02,0.174,0.053,0.346,0.1,0.517H239.831z M237.98,105.391c0.428,0,0.798-0.105,1.111-0.316
			c0.313-0.21,0.525-0.481,0.637-0.813v-0.999h-1.241c-0.452,0-0.826,0.112-1.12,0.335c-0.295,0.224-0.441,0.493-0.441,0.809
			c0,0.296,0.094,0.534,0.281,0.714C237.395,105.301,237.652,105.391,237.98,105.391z"/>
		<path fill="#4D4D4D" d="M244.573,100.58l0.051,0.907c0.164-0.318,0.383-0.565,0.655-0.741c0.273-0.175,0.597-0.263,0.972-0.263
			c0.546,0,0.961,0.173,1.246,0.519s0.428,0.886,0.428,1.619v3.18h-0.558v-3.175c0-0.599-0.108-1.021-0.323-1.27
			c-0.216-0.247-0.521-0.371-0.918-0.371c-0.397,0-0.717,0.102-0.96,0.304c-0.244,0.203-0.42,0.475-0.528,0.815v3.696h-0.558v-5.221
			H244.573z"/>
		<path fill="#4D4D4D" d="M249.068,103.113c0-0.769,0.203-1.399,0.609-1.892c0.405-0.492,0.943-0.738,1.613-0.738
			c0.672,0,1.211,0.246,1.617,0.738s0.609,1.123,0.609,1.892v0.159c0,0.771-0.202,1.403-0.606,1.894
			c-0.405,0.491-0.941,0.736-1.611,0.736c-0.676,0-1.217-0.245-1.622-0.736c-0.406-0.49-0.609-1.122-0.609-1.894V103.113z
			 M249.626,103.272c0,0.604,0.147,1.113,0.442,1.524c0.294,0.412,0.705,0.618,1.231,0.618c0.518,0,0.925-0.206,1.221-0.618
			c0.296-0.411,0.443-0.92,0.443-1.524v-0.159c0-0.596-0.148-1.101-0.446-1.516c-0.297-0.415-0.706-0.622-1.227-0.622
			c-0.521,0-0.929,0.207-1.223,0.622c-0.295,0.415-0.442,0.92-0.442,1.516V103.272z"/>
		<path fill="#4D4D4D" d="M258.906,105.902c-0.651,0-1.18-0.239-1.586-0.717c-0.405-0.478-0.608-1.091-0.608-1.841v-0.266
			c0-0.753,0.205-1.373,0.615-1.862c0.411-0.489,0.92-0.733,1.527-0.733c0.61,0,1.083,0.203,1.416,0.61s0.499,0.955,0.499,1.643
			v0.449h-3.5v0.159c0,0.595,0.145,1.089,0.435,1.481s0.69,0.589,1.202,0.589c0.307,0,0.589-0.053,0.846-0.157
			s0.471-0.245,0.642-0.422l0.237,0.396c-0.177,0.193-0.408,0.354-0.695,0.48S259.306,105.902,258.906,105.902z M258.854,100.976
			c-0.428,0-0.779,0.159-1.055,0.478c-0.276,0.318-0.438,0.723-0.483,1.211l0.014,0.029h2.882v-0.121
			c0-0.463-0.117-0.845-0.351-1.146C259.627,101.126,259.292,100.976,258.854,100.976z"/>
		<path fill="#4D4D4D" d="M263.476,102.713l1.361-2.133h0.66l-1.706,2.562l1.776,2.659h-0.651l-1.432-2.225l-1.432,2.225h-0.66
			l1.78-2.659l-1.706-2.562h0.655L263.476,102.713z"/>
		<path fill="#4D4D4D" d="M267.422,99.243v1.337h1.106v0.473h-1.106v3.401c0,0.342,0.06,0.584,0.18,0.727
			c0.119,0.144,0.277,0.215,0.477,0.215c0.067,0,0.134-0.004,0.197-0.012c0.063-0.009,0.139-0.022,0.226-0.041l0.083,0.429
			c-0.074,0.039-0.166,0.07-0.276,0.095c-0.11,0.023-0.219,0.036-0.327,0.036c-0.354,0-0.629-0.116-0.825-0.348
			c-0.197-0.231-0.296-0.599-0.296-1.101v-3.401h-0.869v-0.473h0.869v-1.337H267.422z"/>
		<path fill="#4D4D4D" d="M271.527,105.902c-0.651,0-1.18-0.239-1.586-0.717c-0.405-0.478-0.608-1.091-0.608-1.841v-0.266
			c0-0.753,0.205-1.373,0.615-1.862c0.411-0.489,0.92-0.733,1.527-0.733c0.61,0,1.083,0.203,1.416,0.61s0.499,0.955,0.499,1.643
			v0.449h-3.5v0.159c0,0.595,0.145,1.089,0.435,1.481s0.69,0.589,1.202,0.589c0.307,0,0.589-0.053,0.846-0.157
			s0.471-0.245,0.642-0.422l0.237,0.396c-0.177,0.193-0.408,0.354-0.695,0.48S271.927,105.902,271.527,105.902z M271.476,100.976
			c-0.428,0-0.779,0.159-1.055,0.478c-0.276,0.318-0.438,0.723-0.483,1.211l0.014,0.029h2.882v-0.121
			c0-0.463-0.117-0.845-0.351-1.146C272.248,101.126,271.913,100.976,271.476,100.976z"/>
		<path fill="#4D4D4D" d="M276.813,101.077l-0.396-0.029c-0.351,0-0.638,0.103-0.862,0.307s-0.385,0.484-0.481,0.842v3.604h-0.558
			v-5.221h0.488l0.069,0.868v0.058c0.146-0.321,0.341-0.572,0.586-0.752c0.245-0.181,0.536-0.271,0.874-0.271
			c0.068,0,0.134,0.006,0.195,0.017c0.062,0.012,0.113,0.023,0.153,0.036L276.813,101.077z"/>
		<path fill="#4D4D4D" d="M278.388,99.084h-0.553v-0.811h0.553V99.084z M278.388,105.801h-0.553v-5.221h0.553V105.801z"/>
		<path fill="#4D4D4D" d="M279.615,103.113c0-0.769,0.203-1.399,0.609-1.892c0.405-0.492,0.943-0.738,1.613-0.738
			c0.672,0,1.211,0.246,1.617,0.738s0.609,1.123,0.609,1.892v0.159c0,0.771-0.202,1.403-0.606,1.894
			c-0.405,0.491-0.941,0.736-1.611,0.736c-0.676,0-1.217-0.245-1.622-0.736c-0.406-0.49-0.609-1.122-0.609-1.894V103.113z
			 M280.173,103.272c0,0.604,0.147,1.113,0.442,1.524c0.294,0.412,0.705,0.618,1.231,0.618c0.518,0,0.925-0.206,1.221-0.618
			c0.296-0.411,0.443-0.92,0.443-1.524v-0.159c0-0.596-0.148-1.101-0.446-1.516c-0.297-0.415-0.706-0.622-1.227-0.622
			c-0.521,0-0.929,0.207-1.223,0.622c-0.295,0.415-0.442,0.92-0.442,1.516V103.272z"/>
		<path fill="#4D4D4D" d="M287.523,101.077l-0.396-0.029c-0.351,0-0.638,0.103-0.862,0.307s-0.385,0.484-0.481,0.842v3.604h-0.558
			v-5.221h0.488l0.069,0.868v0.058c0.146-0.321,0.341-0.572,0.586-0.752c0.245-0.181,0.536-0.271,0.874-0.271
			c0.068,0,0.134,0.006,0.195,0.017c0.062,0.012,0.113,0.023,0.153,0.036L287.523,101.077z"/>
	</g>
</g>
<g>
	<g>
		<path fill="#4D4D4D" d="M56.255,144.941c0,0.907-0.239,1.641-0.718,2.2s-1.121,0.84-1.927,0.84c-0.794,0-1.427-0.28-1.899-0.84
			s-0.709-1.293-0.709-2.2v-1.144c0-0.904,0.235-1.638,0.707-2.2c0.471-0.563,1.104-0.845,1.896-0.845
			c0.806,0,1.449,0.281,1.93,0.845c0.479,0.563,0.72,1.296,0.72,2.2V144.941z M55.702,143.788c0-0.759-0.186-1.37-0.556-1.834
			c-0.37-0.463-0.884-0.694-1.541-0.694c-0.645,0-1.146,0.231-1.506,0.694c-0.359,0.464-0.539,1.075-0.539,1.834v1.153
			c0,0.766,0.18,1.38,0.541,1.843c0.361,0.464,0.864,0.695,1.509,0.695c0.66,0,1.174-0.23,1.541-0.692s0.551-1.077,0.551-1.846
			V143.788z"/>
		<path fill="#4D4D4D" d="M59.863,143.156l-0.396-0.029c-0.351,0-0.638,0.103-0.862,0.307s-0.385,0.484-0.481,0.842v3.604h-0.558
			v-5.221h0.488l0.069,0.868v0.058c0.146-0.321,0.341-0.572,0.586-0.752c0.245-0.181,0.536-0.271,0.874-0.271
			c0.068,0,0.134,0.006,0.195,0.017c0.062,0.012,0.113,0.023,0.153,0.036L59.863,143.156z"/>
		<path fill="#4D4D4D" d="M60.527,145.313c0-0.833,0.17-1.499,0.51-2c0.339-0.5,0.813-0.75,1.42-0.75c0.356,0,0.666,0.08,0.93,0.239
			s0.48,0.385,0.65,0.678l0.079-0.82h0.451v5.25c0,0.666-0.177,1.179-0.53,1.539c-0.353,0.36-0.854,0.54-1.501,0.54
			c-0.242,0-0.5-0.03-0.774-0.092c-0.274-0.061-0.514-0.145-0.718-0.251l0.106-0.487c0.202,0.104,0.416,0.182,0.645,0.234
			c0.228,0.053,0.472,0.08,0.731,0.08c0.496,0,0.866-0.133,1.111-0.396s0.367-0.652,0.367-1.167v-0.738
			c-0.17,0.26-0.387,0.461-0.648,0.601s-0.564,0.21-0.909,0.21c-0.601,0-1.071-0.233-1.41-0.7c-0.34-0.466-0.51-1.089-0.51-1.867
			V145.313z M61.086,145.414c0,0.631,0.122,1.133,0.367,1.506c0.244,0.373,0.611,0.56,1.102,0.56c0.354,0,0.65-0.083,0.891-0.249
			c0.239-0.165,0.427-0.393,0.56-0.683v-2.489c-0.127-0.293-0.308-0.532-0.541-0.717c-0.234-0.185-0.534-0.277-0.9-0.277
			c-0.489,0-0.858,0.209-1.106,0.627c-0.247,0.418-0.371,0.959-0.371,1.621V145.414z"/>
		<path fill="#4D4D4D" d="M69.212,147.88c-0.034-0.184-0.06-0.341-0.077-0.473c-0.017-0.132-0.025-0.268-0.025-0.405
			c-0.174,0.283-0.417,0.517-0.729,0.702c-0.313,0.185-0.673,0.277-1.079,0.277c-0.492,0-0.874-0.136-1.146-0.408
			c-0.271-0.271-0.406-0.641-0.406-1.107c0-0.466,0.196-0.844,0.59-1.134c0.394-0.289,0.905-0.435,1.534-0.435h1.236v-0.646
			c0-0.373-0.113-0.666-0.342-0.878c-0.228-0.212-0.549-0.318-0.964-0.318c-0.382,0-0.689,0.097-0.923,0.289
			c-0.234,0.193-0.352,0.437-0.352,0.729h-0.516l-0.01-0.029c-0.019-0.393,0.144-0.737,0.486-1.035
			c0.342-0.298,0.789-0.446,1.341-0.446s0.995,0.146,1.33,0.439c0.334,0.292,0.502,0.712,0.502,1.259v2.567
			c0,0.184,0.01,0.361,0.03,0.535c0.02,0.174,0.053,0.346,0.1,0.517H69.212z M67.361,147.47c0.428,0,0.798-0.105,1.111-0.316
			c0.313-0.21,0.525-0.481,0.637-0.813v-0.999h-1.241c-0.452,0-0.826,0.112-1.12,0.335c-0.295,0.224-0.441,0.493-0.441,0.809
			c0,0.296,0.094,0.534,0.281,0.714C66.775,147.38,67.033,147.47,67.361,147.47z"/>
		<path fill="#4D4D4D" d="M71.639,142.659l0.051,0.907c0.164-0.318,0.383-0.565,0.655-0.741c0.273-0.175,0.597-0.263,0.972-0.263
			c0.546,0,0.961,0.173,1.246,0.519s0.428,0.886,0.428,1.619v3.18h-0.558v-3.175c0-0.599-0.108-1.021-0.323-1.27
			c-0.216-0.247-0.521-0.371-0.918-0.371c-0.397,0-0.717,0.102-0.96,0.304c-0.244,0.203-0.42,0.475-0.528,0.815v3.696h-0.558v-5.221
			H71.639z"/>
		<path fill="#4D4D4D" d="M77.068,141.163h-0.553v-0.811h0.553V141.163z M77.068,147.88h-0.553v-5.221h0.553V147.88z"/>
		<path fill="#4D4D4D" d="M78.979,147.393h3.268v0.487h-3.956v-0.425l3.031-4.299h-2.938v-0.497h3.64v0.43L78.979,147.393z"/>
		<path fill="#4D4D4D" d="M86.45,147.88c-0.034-0.184-0.06-0.341-0.077-0.473c-0.017-0.132-0.025-0.268-0.025-0.405
			c-0.174,0.283-0.417,0.517-0.729,0.702c-0.313,0.185-0.673,0.277-1.079,0.277c-0.492,0-0.874-0.136-1.146-0.408
			c-0.271-0.271-0.406-0.641-0.406-1.107c0-0.466,0.196-0.844,0.59-1.134c0.394-0.289,0.905-0.435,1.534-0.435h1.236v-0.646
			c0-0.373-0.113-0.666-0.342-0.878c-0.228-0.212-0.549-0.318-0.964-0.318c-0.382,0-0.689,0.097-0.923,0.289
			c-0.234,0.193-0.352,0.437-0.352,0.729h-0.516l-0.01-0.029c-0.019-0.393,0.144-0.737,0.486-1.035
			c0.342-0.298,0.789-0.446,1.341-0.446s0.995,0.146,1.33,0.439c0.334,0.292,0.502,0.712,0.502,1.259v2.567
			c0,0.184,0.01,0.361,0.03,0.535c0.02,0.174,0.053,0.346,0.1,0.517H86.45z M84.6,147.47c0.428,0,0.798-0.105,1.111-0.316
			c0.313-0.21,0.525-0.481,0.637-0.813v-0.999h-1.241c-0.452,0-0.826,0.112-1.12,0.335c-0.295,0.224-0.441,0.493-0.441,0.809
			c0,0.296,0.094,0.534,0.281,0.714C84.014,147.38,84.271,147.47,84.6,147.47z"/>
		<path fill="#4D4D4D" d="M90.225,147.494c0.356,0,0.672-0.109,0.946-0.328s0.411-0.523,0.411-0.912h0.498l0.009,0.029
			c0.013,0.482-0.17,0.886-0.549,1.211c-0.378,0.324-0.816,0.487-1.315,0.487c-0.669,0-1.19-0.245-1.564-0.733
			c-0.373-0.489-0.56-1.115-0.56-1.877v-0.203c0-0.759,0.186-1.383,0.558-1.872s0.893-0.733,1.562-0.733
			c0.54,0,0.989,0.169,1.349,0.507s0.533,0.781,0.521,1.332l-0.009,0.028h-0.498c0-0.418-0.132-0.752-0.395-1.001
			c-0.264-0.249-0.586-0.374-0.968-0.374c-0.526,0-0.919,0.201-1.176,0.604c-0.257,0.401-0.386,0.905-0.386,1.51v0.203
			c0,0.614,0.129,1.121,0.386,1.522C89.301,147.294,89.695,147.494,90.225,147.494z M90.359,147.923l-0.056,0.31
			c0.245,0.028,0.442,0.106,0.593,0.233s0.226,0.324,0.226,0.592c0,0.292-0.122,0.526-0.367,0.702
			c-0.245,0.175-0.595,0.263-1.051,0.263l-0.032-0.377c0.278,0,0.514-0.049,0.704-0.146c0.19-0.099,0.286-0.242,0.286-0.433
			c0-0.183-0.064-0.311-0.193-0.383s-0.354-0.122-0.677-0.147l0.136-0.613H90.359z"/>
		<path fill="#4D4D4D" d="M96.468,147.88c-0.034-0.184-0.06-0.341-0.077-0.473c-0.017-0.132-0.025-0.268-0.025-0.405
			c-0.174,0.283-0.417,0.517-0.729,0.702c-0.313,0.185-0.673,0.277-1.079,0.277c-0.492,0-0.874-0.136-1.146-0.408
			c-0.271-0.271-0.406-0.641-0.406-1.107c0-0.466,0.196-0.844,0.59-1.134c0.394-0.289,0.905-0.435,1.534-0.435h1.236v-0.646
			c0-0.373-0.113-0.666-0.342-0.878c-0.228-0.212-0.549-0.318-0.964-0.318c-0.382,0-0.689,0.097-0.923,0.289
			c-0.234,0.193-0.352,0.437-0.352,0.729H93.27l-0.01-0.029c-0.019-0.393,0.144-0.737,0.486-1.035
			c0.342-0.298,0.789-0.446,1.341-0.446s0.995,0.146,1.33,0.439c0.334,0.292,0.502,0.712,0.502,1.259v2.567
			c0,0.184,0.01,0.361,0.03,0.535c0.02,0.174,0.053,0.346,0.1,0.517H96.468z M96.561,140.637c0,0.283-0.085,0.519-0.256,0.705
			c-0.17,0.187-0.383,0.279-0.637,0.279c-0.229,0-0.463-0.088-0.702-0.265c-0.238-0.177-0.441-0.266-0.608-0.266
			c-0.146,0-0.269,0.057-0.367,0.169c-0.1,0.112-0.149,0.256-0.149,0.43l-0.371-0.087c0-0.277,0.083-0.51,0.251-0.697
			c0.167-0.188,0.379-0.282,0.637-0.282c0.201,0,0.429,0.088,0.684,0.265c0.254,0.178,0.463,0.266,0.627,0.266
			c0.143,0,0.265-0.058,0.367-0.174c0.103-0.115,0.153-0.262,0.153-0.438L96.561,140.637z M94.617,147.47
			c0.428,0,0.798-0.105,1.111-0.316c0.313-0.21,0.525-0.481,0.637-0.813v-0.999h-1.241c-0.452,0-0.826,0.112-1.12,0.335
			c-0.295,0.224-0.441,0.493-0.441,0.809c0,0.296,0.094,0.534,0.281,0.714C94.031,147.38,94.289,147.47,94.617,147.47z"/>
		<path fill="#4D4D4D" d="M98.09,145.192c0-0.769,0.203-1.399,0.609-1.892c0.405-0.492,0.943-0.738,1.613-0.738
			c0.672,0,1.211,0.246,1.617,0.738s0.609,1.123,0.609,1.892v0.159c0,0.771-0.202,1.403-0.606,1.894
			c-0.405,0.491-0.941,0.736-1.611,0.736c-0.676,0-1.217-0.245-1.622-0.736c-0.406-0.49-0.609-1.122-0.609-1.894V145.192z
			 M98.647,145.352c0,0.604,0.147,1.113,0.442,1.524c0.294,0.412,0.705,0.618,1.231,0.618c0.518,0,0.925-0.206,1.221-0.618
			c0.296-0.411,0.443-0.92,0.443-1.524v-0.159c0-0.596-0.148-1.101-0.446-1.516c-0.297-0.415-0.706-0.622-1.227-0.622
			c-0.521,0-0.929,0.207-1.223,0.622c-0.295,0.415-0.442,0.92-0.442,1.516V145.352z"/>
		<path fill="#4D4D4D" d="M106.69,144.705v3.175h-0.558v-7.021h2.255c0.725,0,1.281,0.165,1.669,0.494
			c0.387,0.33,0.581,0.812,0.581,1.445c0,0.373-0.104,0.707-0.31,1.001c-0.206,0.295-0.498,0.51-0.876,0.645
			c0.418,0.109,0.72,0.305,0.904,0.586c0.185,0.282,0.276,0.635,0.276,1.06v0.661c0,0.219,0.024,0.415,0.074,0.589
			c0.05,0.173,0.132,0.314,0.247,0.424v0.116h-0.567c-0.115-0.116-0.195-0.278-0.242-0.487c-0.046-0.209-0.069-0.426-0.069-0.651
			V146.1c0-0.432-0.134-0.771-0.402-1.021c-0.268-0.25-0.643-0.374-1.123-0.374H106.69z M106.69,144.213h1.632
			c0.61,0,1.057-0.128,1.339-0.384s0.423-0.601,0.423-1.035c0-0.463-0.14-0.819-0.42-1.068c-0.281-0.25-0.706-0.374-1.276-0.374
			h-1.697V144.213z"/>
		<path fill="#4D4D4D" d="M114.139,147.981c-0.651,0-1.18-0.239-1.586-0.717c-0.405-0.478-0.608-1.091-0.608-1.841v-0.266
			c0-0.753,0.205-1.373,0.615-1.862c0.411-0.489,0.92-0.733,1.527-0.733c0.61,0,1.083,0.203,1.416,0.61s0.499,0.955,0.499,1.643
			v0.449h-3.5v0.159c0,0.595,0.145,1.089,0.435,1.481s0.69,0.589,1.202,0.589c0.307,0,0.589-0.053,0.846-0.157
			s0.471-0.245,0.642-0.422l0.237,0.396c-0.177,0.193-0.408,0.354-0.695,0.48S114.538,147.981,114.139,147.981z M114.087,143.055
			c-0.428,0-0.779,0.159-1.055,0.478c-0.276,0.318-0.438,0.723-0.483,1.211l0.014,0.029h2.882v-0.121
			c0-0.463-0.117-0.845-0.351-1.146C114.859,143.205,114.524,143.055,114.087,143.055z"/>
		<path fill="#4D4D4D" d="M117.75,147.88h-0.553v-7.527h0.553V147.88z"/>
		<path fill="#4D4D4D" d="M119.912,141.163h-0.553v-0.811h0.553V141.163z M119.912,147.88h-0.553v-5.221h0.553V147.88z"/>
		<path fill="#4D4D4D" d="M121.251,145.313c0-0.833,0.17-1.499,0.51-2c0.339-0.5,0.813-0.75,1.42-0.75
			c0.356,0,0.666,0.08,0.93,0.239s0.48,0.385,0.65,0.678l0.079-0.82h0.451v5.25c0,0.666-0.177,1.179-0.53,1.539
			c-0.353,0.36-0.854,0.54-1.501,0.54c-0.242,0-0.5-0.03-0.774-0.092c-0.274-0.061-0.514-0.145-0.718-0.251l0.106-0.487
			c0.202,0.104,0.416,0.182,0.645,0.234c0.228,0.053,0.472,0.08,0.731,0.08c0.496,0,0.866-0.133,1.111-0.396
			s0.367-0.652,0.367-1.167v-0.738c-0.17,0.26-0.387,0.461-0.648,0.601s-0.564,0.21-0.909,0.21c-0.601,0-1.071-0.233-1.41-0.7
			c-0.34-0.466-0.51-1.089-0.51-1.867V145.313z M121.81,145.414c0,0.631,0.122,1.133,0.367,1.506c0.244,0.373,0.611,0.56,1.102,0.56
			c0.354,0,0.65-0.083,0.891-0.249c0.239-0.165,0.427-0.393,0.56-0.683v-2.489c-0.127-0.293-0.308-0.532-0.541-0.717
			c-0.234-0.185-0.534-0.277-0.9-0.277c-0.489,0-0.858,0.209-1.106,0.627c-0.247,0.418-0.371,0.959-0.371,1.621V145.414z"/>
		<path fill="#4D4D4D" d="M127.374,141.163h-0.553v-0.811h0.553V141.163z M127.374,147.88h-0.553v-5.221h0.553V147.88z"/>
		<path fill="#4D4D4D" d="M128.602,145.192c0-0.769,0.203-1.399,0.609-1.892c0.405-0.492,0.943-0.738,1.613-0.738
			c0.672,0,1.211,0.246,1.617,0.738s0.609,1.123,0.609,1.892v0.159c0,0.771-0.202,1.403-0.606,1.894
			c-0.405,0.491-0.941,0.736-1.611,0.736c-0.676,0-1.217-0.245-1.622-0.736c-0.406-0.49-0.609-1.122-0.609-1.894V145.192z
			 M129.159,145.352c0,0.604,0.147,1.113,0.442,1.524c0.294,0.412,0.705,0.618,1.231,0.618c0.518,0,0.925-0.206,1.221-0.618
			c0.296-0.411,0.443-0.92,0.443-1.524v-0.159c0-0.596-0.148-1.101-0.446-1.516c-0.297-0.415-0.706-0.622-1.227-0.622
			c-0.521,0-0.929,0.207-1.223,0.622c-0.295,0.415-0.442,0.92-0.442,1.516V145.352z"/>
		<path fill="#4D4D4D" d="M137.226,146.543c0-0.244-0.097-0.457-0.291-0.639c-0.193-0.182-0.543-0.331-1.048-0.446
			c-0.595-0.129-1.038-0.305-1.327-0.528c-0.29-0.224-0.435-0.537-0.435-0.938c0-0.399,0.161-0.737,0.485-1.014
			s0.752-0.415,1.285-0.415c0.562,0,1.009,0.147,1.344,0.441s0.494,0.657,0.479,1.088l-0.009,0.029h-0.517
			c0-0.286-0.118-0.536-0.355-0.748c-0.236-0.212-0.551-0.318-0.941-0.318c-0.402,0-0.706,0.092-0.911,0.275
			c-0.204,0.183-0.307,0.396-0.307,0.642c0,0.238,0.088,0.435,0.263,0.591s0.524,0.294,1.049,0.412
			c0.588,0.136,1.034,0.324,1.336,0.565c0.303,0.241,0.453,0.565,0.453,0.975c0,0.434-0.169,0.787-0.509,1.059
			c-0.339,0.272-0.788,0.408-1.346,0.408c-0.61,0-1.09-0.151-1.438-0.454c-0.349-0.302-0.514-0.662-0.495-1.08l0.009-0.029h0.512
			c0.021,0.376,0.17,0.649,0.443,0.82c0.274,0.17,0.598,0.256,0.97,0.256c0.402,0,0.721-0.094,0.953-0.28
			S137.226,146.804,137.226,146.543z"/>
		<path fill="#4D4D4D" d="M142.246,147.88c-0.034-0.184-0.06-0.341-0.077-0.473c-0.017-0.132-0.025-0.268-0.025-0.405
			c-0.174,0.283-0.417,0.517-0.729,0.702c-0.313,0.185-0.673,0.277-1.079,0.277c-0.492,0-0.874-0.136-1.146-0.408
			c-0.271-0.271-0.406-0.641-0.406-1.107c0-0.466,0.196-0.844,0.59-1.134c0.394-0.289,0.905-0.435,1.534-0.435h1.236v-0.646
			c0-0.373-0.113-0.666-0.342-0.878c-0.228-0.212-0.549-0.318-0.964-0.318c-0.382,0-0.689,0.097-0.923,0.289
			c-0.234,0.193-0.352,0.437-0.352,0.729h-0.516l-0.01-0.029c-0.019-0.393,0.144-0.737,0.486-1.035
			c0.342-0.298,0.789-0.446,1.341-0.446s0.995,0.146,1.33,0.439c0.334,0.292,0.502,0.712,0.502,1.259v2.567
			c0,0.184,0.01,0.361,0.03,0.535c0.02,0.174,0.053,0.346,0.1,0.517H142.246z M140.396,147.47c0.428,0,0.798-0.105,1.111-0.316
			c0.313-0.21,0.525-0.481,0.637-0.813v-0.999h-1.241c-0.452,0-0.826,0.112-1.12,0.335c-0.295,0.224-0.441,0.493-0.441,0.809
			c0,0.296,0.094,0.534,0.281,0.714C139.81,147.38,140.067,147.47,140.396,147.47z"/>
	</g>
</g>
<g>
	<g>
		<path fill="#4D4D4D" d="M69.829,90.069H66.72v3.291h-0.559v-7.025h4.143v0.492H66.72v2.745h3.109V90.069z"/>
		<path fill="#4D4D4D" d="M74.464,92.511c-0.161,0.306-0.377,0.541-0.648,0.705c-0.271,0.164-0.593,0.246-0.964,0.246
			c-0.53,0-0.945-0.187-1.246-0.56s-0.451-0.952-0.451-1.737V88.14h0.558v3.035c0,0.637,0.104,1.094,0.314,1.37
			c0.209,0.276,0.506,0.415,0.89,0.415c0.419,0,0.753-0.098,1.002-0.292c0.25-0.194,0.426-0.461,0.527-0.799V88.14h0.559v5.221
			h-0.493L74.464,92.511z"/>
		<path fill="#4D4D4D" d="M76.966,88.14l0.051,0.907c0.164-0.318,0.383-0.565,0.655-0.741c0.273-0.175,0.597-0.263,0.972-0.263
			c0.546,0,0.961,0.173,1.246,0.519s0.428,0.886,0.428,1.619v3.18H79.76v-3.175c0-0.599-0.108-1.021-0.323-1.27
			c-0.216-0.247-0.521-0.371-0.918-0.371c-0.397,0-0.717,0.102-0.96,0.304c-0.244,0.203-0.42,0.475-0.528,0.815v3.696h-0.558V88.14
			H76.966z"/>
		<path fill="#4D4D4D" d="M81.554,90.793c0-0.833,0.17-1.499,0.51-2c0.339-0.5,0.813-0.75,1.42-0.75
			c0.344,0,0.646,0.075,0.904,0.227s0.474,0.365,0.644,0.642v-3.078h0.558v7.527h-0.455l-0.079-0.758
			c-0.171,0.277-0.388,0.489-0.651,0.637c-0.263,0.148-0.573,0.223-0.93,0.223c-0.601,0-1.071-0.232-1.41-0.697
			c-0.34-0.465-0.51-1.088-0.51-1.87V90.793z M82.112,90.895c0,0.631,0.121,1.133,0.364,1.506s0.61,0.56,1.1,0.56
			c0.359,0,0.658-0.083,0.897-0.249c0.238-0.165,0.425-0.395,0.558-0.688v-2.475c-0.127-0.296-0.307-0.537-0.539-0.725
			c-0.232-0.187-0.535-0.279-0.906-0.279c-0.49,0-0.858,0.208-1.104,0.625c-0.246,0.416-0.369,0.958-0.369,1.623V90.895z"/>
		<path fill="#4D4D4D" d="M90.257,93.36c-0.034-0.184-0.06-0.341-0.077-0.473c-0.017-0.132-0.025-0.268-0.025-0.405
			c-0.174,0.283-0.417,0.517-0.729,0.702c-0.313,0.185-0.673,0.277-1.079,0.277c-0.492,0-0.874-0.136-1.146-0.408
			c-0.271-0.271-0.406-0.641-0.406-1.107c0-0.466,0.196-0.844,0.59-1.134c0.394-0.289,0.905-0.435,1.534-0.435h1.236v-0.646
			c0-0.373-0.113-0.666-0.342-0.878c-0.228-0.212-0.549-0.318-0.964-0.318c-0.382,0-0.689,0.097-0.923,0.289
			c-0.234,0.193-0.352,0.437-0.352,0.729h-0.516l-0.01-0.029c-0.019-0.393,0.144-0.737,0.486-1.035
			c0.342-0.298,0.789-0.446,1.341-0.446s0.995,0.146,1.33,0.439c0.334,0.292,0.502,0.712,0.502,1.259v2.567
			c0,0.184,0.01,0.361,0.03,0.535c0.02,0.174,0.053,0.346,0.1,0.517H90.257z M88.406,92.95c0.428,0,0.798-0.105,1.111-0.316
			c0.313-0.21,0.525-0.481,0.637-0.813v-0.999h-1.241c-0.452,0-0.826,0.112-1.12,0.335c-0.295,0.224-0.441,0.493-0.441,0.809
			c0,0.296,0.094,0.534,0.281,0.714C87.82,92.86,88.078,92.95,88.406,92.95z"/>
		<path fill="#4D4D4D" d="M94.031,92.975c0.356,0,0.672-0.109,0.946-0.328s0.411-0.523,0.411-0.912h0.498l0.009,0.029
			c0.013,0.482-0.17,0.886-0.549,1.211c-0.378,0.324-0.816,0.487-1.315,0.487c-0.669,0-1.19-0.245-1.564-0.733
			c-0.373-0.489-0.56-1.115-0.56-1.877v-0.203c0-0.759,0.186-1.383,0.558-1.872s0.893-0.733,1.562-0.733
			c0.54,0,0.989,0.169,1.349,0.507s0.533,0.781,0.521,1.332l-0.009,0.028h-0.498c0-0.418-0.132-0.752-0.395-1.001
			c-0.264-0.249-0.586-0.374-0.968-0.374c-0.526,0-0.919,0.201-1.176,0.604c-0.257,0.401-0.386,0.905-0.386,1.51v0.203
			c0,0.614,0.129,1.121,0.386,1.522C93.107,92.774,93.502,92.975,94.031,92.975z M94.166,93.403l-0.056,0.31
			c0.245,0.028,0.442,0.106,0.593,0.233s0.226,0.324,0.226,0.592c0,0.292-0.122,0.526-0.367,0.702
			c-0.245,0.175-0.595,0.263-1.051,0.263l-0.032-0.377c0.278,0,0.514-0.049,0.704-0.146c0.19-0.099,0.286-0.242,0.286-0.433
			c0-0.183-0.064-0.311-0.193-0.383s-0.354-0.122-0.677-0.147l0.136-0.613H94.166z"/>
		<path fill="#4D4D4D" d="M100.274,93.36c-0.034-0.184-0.06-0.341-0.077-0.473c-0.017-0.132-0.025-0.268-0.025-0.405
			c-0.174,0.283-0.417,0.517-0.729,0.702c-0.313,0.185-0.673,0.277-1.079,0.277c-0.492,0-0.874-0.136-1.146-0.408
			c-0.271-0.271-0.406-0.641-0.406-1.107c0-0.466,0.196-0.844,0.59-1.134c0.394-0.289,0.905-0.435,1.534-0.435h1.236v-0.646
			c0-0.373-0.113-0.666-0.342-0.878c-0.228-0.212-0.549-0.318-0.964-0.318c-0.382,0-0.689,0.097-0.923,0.289
			c-0.234,0.193-0.352,0.437-0.352,0.729h-0.516l-0.01-0.029c-0.019-0.393,0.144-0.737,0.486-1.035
			c0.342-0.298,0.789-0.446,1.341-0.446s0.995,0.146,1.33,0.439c0.334,0.292,0.502,0.712,0.502,1.259v2.567
			c0,0.184,0.01,0.361,0.03,0.535c0.02,0.174,0.053,0.346,0.1,0.517H100.274z M100.367,86.117c0,0.283-0.085,0.519-0.256,0.705
			c-0.17,0.187-0.383,0.279-0.637,0.279c-0.229,0-0.463-0.088-0.702-0.265c-0.238-0.177-0.441-0.266-0.608-0.266
			c-0.146,0-0.269,0.057-0.367,0.169c-0.1,0.112-0.149,0.256-0.149,0.43l-0.371-0.087c0-0.277,0.083-0.51,0.251-0.697
			c0.167-0.188,0.379-0.282,0.637-0.282c0.201,0,0.429,0.088,0.684,0.265c0.254,0.178,0.463,0.266,0.627,0.266
			c0.143,0,0.265-0.058,0.367-0.174c0.103-0.115,0.153-0.262,0.153-0.438L100.367,86.117z M98.424,92.95
			c0.428,0,0.798-0.105,1.111-0.316c0.313-0.21,0.525-0.481,0.637-0.813v-0.999h-1.241c-0.452,0-0.826,0.112-1.12,0.335
			c-0.295,0.224-0.441,0.493-0.441,0.809c0,0.296,0.094,0.534,0.281,0.714C97.838,92.86,98.096,92.95,98.424,92.95z"/>
		<path fill="#4D4D4D" d="M101.896,90.673c0-0.769,0.203-1.399,0.609-1.892c0.405-0.492,0.943-0.738,1.613-0.738
			c0.672,0,1.211,0.246,1.617,0.738s0.609,1.123,0.609,1.892v0.159c0,0.771-0.202,1.403-0.606,1.894
			c-0.405,0.491-0.941,0.736-1.611,0.736c-0.676,0-1.217-0.245-1.622-0.736c-0.406-0.49-0.609-1.122-0.609-1.894V90.673z
			 M102.454,90.832c0,0.604,0.147,1.113,0.442,1.524c0.294,0.412,0.705,0.618,1.231,0.618c0.518,0,0.925-0.206,1.221-0.618
			c0.296-0.411,0.443-0.92,0.443-1.524v-0.159c0-0.596-0.148-1.101-0.446-1.516c-0.297-0.415-0.706-0.622-1.227-0.622
			c-0.521,0-0.929,0.207-1.223,0.622c-0.295,0.415-0.442,0.92-0.442,1.516V90.832z"/>
		<path fill="#4D4D4D" d="M110.512,90.441v2.919h-0.559v-7.025h2.334c0.71,0,1.259,0.188,1.648,0.564
			c0.389,0.376,0.583,0.872,0.583,1.486c0,0.624-0.194,1.122-0.583,1.496c-0.39,0.373-0.938,0.56-1.648,0.56H110.512z
			 M110.512,89.949h1.775c0.558,0,0.977-0.147,1.255-0.441c0.279-0.295,0.419-0.665,0.419-1.112c0-0.45-0.14-0.824-0.419-1.122
			c-0.278-0.298-0.697-0.446-1.255-0.446h-1.775V89.949z"/>
		<path fill="#4D4D4D" d="M117.991,88.637l-0.396-0.029c-0.351,0-0.638,0.103-0.862,0.307s-0.385,0.484-0.481,0.842v3.604h-0.558
			V88.14h0.488l0.069,0.868v0.058c0.146-0.321,0.341-0.572,0.586-0.752c0.245-0.181,0.536-0.271,0.874-0.271
			c0.068,0,0.134,0.006,0.195,0.017c0.062,0.012,0.113,0.023,0.153,0.036L117.991,88.637z"/>
		<path fill="#4D4D4D" d="M119.566,86.644h-0.553v-0.811h0.553V86.644z M119.566,93.36h-0.553V88.14h0.553V93.36z"/>
		<path fill="#4D4D4D" d="M122.537,92.053l0.163,0.612h0.027l0.177-0.612l1.367-3.913h0.576l-1.91,5.221h-0.446l-1.916-5.221h0.577
			L122.537,92.053z"/>
		<path fill="#4D4D4D" d="M128.879,93.36c-0.034-0.184-0.06-0.341-0.077-0.473c-0.017-0.132-0.025-0.268-0.025-0.405
			c-0.174,0.283-0.417,0.517-0.729,0.702c-0.313,0.185-0.673,0.277-1.079,0.277c-0.492,0-0.874-0.136-1.146-0.408
			c-0.271-0.271-0.406-0.641-0.406-1.107c0-0.466,0.196-0.844,0.59-1.134c0.394-0.289,0.905-0.435,1.534-0.435h1.236v-0.646
			c0-0.373-0.113-0.666-0.342-0.878c-0.228-0.212-0.549-0.318-0.964-0.318c-0.382,0-0.689,0.097-0.923,0.289
			c-0.234,0.193-0.352,0.437-0.352,0.729h-0.516l-0.01-0.029c-0.019-0.393,0.144-0.737,0.486-1.035
			c0.342-0.298,0.789-0.446,1.341-0.446s0.995,0.146,1.33,0.439c0.334,0.292,0.502,0.712,0.502,1.259v2.567
			c0,0.184,0.01,0.361,0.03,0.535c0.02,0.174,0.053,0.346,0.1,0.517H128.879z M127.028,92.95c0.428,0,0.798-0.105,1.111-0.316
			c0.313-0.21,0.525-0.481,0.637-0.813v-0.999h-1.241c-0.452,0-0.826,0.112-1.12,0.335c-0.295,0.224-0.441,0.493-0.441,0.809
			c0,0.296,0.094,0.534,0.281,0.714C126.442,92.86,126.7,92.95,127.028,92.95z"/>
		<path fill="#4D4D4D" d="M130.594,90.793c0-0.833,0.17-1.499,0.51-2c0.339-0.5,0.813-0.75,1.42-0.75
			c0.344,0,0.646,0.075,0.904,0.227s0.474,0.365,0.644,0.642v-3.078h0.558v7.527h-0.455l-0.079-0.758
			c-0.171,0.277-0.388,0.489-0.651,0.637c-0.263,0.148-0.573,0.223-0.93,0.223c-0.601,0-1.071-0.232-1.41-0.697
			c-0.34-0.465-0.51-1.088-0.51-1.87V90.793z M131.152,90.895c0,0.631,0.121,1.133,0.364,1.506s0.61,0.56,1.1,0.56
			c0.359,0,0.658-0.083,0.897-0.249c0.238-0.165,0.425-0.395,0.558-0.688v-2.475c-0.127-0.296-0.307-0.537-0.539-0.725
			c-0.232-0.187-0.535-0.279-0.906-0.279c-0.49,0-0.858,0.208-1.104,0.625c-0.246,0.416-0.369,0.958-0.369,1.623V90.895z"/>
		<path fill="#4D4D4D" d="M139.297,93.36c-0.034-0.184-0.06-0.341-0.077-0.473c-0.017-0.132-0.025-0.268-0.025-0.405
			c-0.174,0.283-0.417,0.517-0.729,0.702c-0.313,0.185-0.673,0.277-1.079,0.277c-0.492,0-0.874-0.136-1.146-0.408
			c-0.271-0.271-0.406-0.641-0.406-1.107c0-0.466,0.196-0.844,0.59-1.134c0.394-0.289,0.905-0.435,1.534-0.435h1.236v-0.646
			c0-0.373-0.113-0.666-0.342-0.878c-0.228-0.212-0.549-0.318-0.964-0.318c-0.382,0-0.689,0.097-0.923,0.289
			c-0.234,0.193-0.352,0.437-0.352,0.729h-0.516l-0.01-0.029c-0.019-0.393,0.144-0.737,0.486-1.035
			c0.342-0.298,0.789-0.446,1.341-0.446s0.995,0.146,1.33,0.439c0.334,0.292,0.502,0.712,0.502,1.259v2.567
			c0,0.184,0.01,0.361,0.03,0.535c0.02,0.174,0.053,0.346,0.1,0.517H139.297z M137.446,92.95c0.428,0,0.798-0.105,1.111-0.316
			c0.313-0.21,0.525-0.481,0.637-0.813v-0.999h-1.241c-0.452,0-0.826,0.112-1.12,0.335c-0.295,0.224-0.441,0.493-0.441,0.809
			c0,0.296,0.094,0.534,0.281,0.714C136.86,92.86,137.118,92.95,137.446,92.95z"/>
	</g>
</g>
</svg>
