<?xml version="1.0" encoding="utf-8"?>
<!-- Generator: Adobe Illustrator 14.0.0, SVG Export Plug-In . SVG Version: 6.00 Build 43363)  -->
<!DOCTYPE svg PUBLIC "-//W3C//DTD SVG 1.0//EN" "http://www.w3.org/TR/2001/REC-SVG-20010904/DTD/svg10.dtd">
<svg version="1.0" id="Camada_1" xmlns="http://www.w3.org/2000/svg" xmlns:xlink="http://www.w3.org/1999/xlink" x="0px" y="0px"
	 width="198.461px" height="249.231px" viewBox="0 0 198.461 249.231" enable-background="new 0 0 198.461 249.231"
	 xml:space="preserve">
<defs>
	<filter id="Adobe_OpacityMaskFilter" filterUnits="userSpaceOnUse" x="31.422" y="220.624" width="139.631" height="13.557">
		<feFlood  style="flood-color:white;flood-opacity:1" result="back"/>
		<feBlend  in="SourceGraphic" in2="back" mode="normal"/>
	</filter>
</defs>
<mask maskUnits="userSpaceOnUse" x="31.422" y="220.624" width="139.631" height="13.557" id="SVGID_1_">
	<g filter="url(#Adobe_OpacityMaskFilter)">
		<defs>
			<filter id="Adobe_OpacityMaskFilter_1_" filterUnits="userSpaceOnUse" x="31.422" y="220.624" width="139.631" height="13.557">
				<feFlood  style="flood-color:white;flood-opacity:1" result="back"/>
				<feBlend  in="SourceGraphic" in2="back" mode="normal"/>
			</filter>
		</defs>
		<mask maskUnits="userSpaceOnUse" x="31.422" y="220.624" width="139.631" height="13.557" id="SVGID_1_">
			<g filter="url(#Adobe_OpacityMaskFilter_1_)">
			</g>
		</mask>
		
			<linearGradient id="SVGID_2_" gradientUnits="userSpaceOnUse" x1="-562.3384" y1="457.2261" x2="-422.707" y2="457.2261" gradientTransform="matrix(-1 0 0 -1 -391.2852 684.6279)">
			<stop  offset="0" style="stop-color:#1A1A1A"/>
			<stop  offset="1" style="stop-color:#FFFFFF"/>
		</linearGradient>
		<rect x="31.422" y="220.624" mask="url(#SVGID_1_)" fill="url(#SVGID_2_)" width="139.631" height="13.557"/>
	</g>
</mask>
<linearGradient id="SVGID_3_" gradientUnits="userSpaceOnUse" x1="-562.3384" y1="457.2261" x2="-422.707" y2="457.2261" gradientTransform="matrix(-1 0 0 -1 -391.2852 684.6279)">
	<stop  offset="0" style="stop-color:#D8591E"/>
	<stop  offset="1" style="stop-color:#DB6714"/>
</linearGradient>
<rect x="31.422" y="220.624" fill="url(#SVGID_3_)" width="139.631" height="13.557"/>
<g opacity="0.1">
	<g>
		<path fill="#DB6712" d="M50.135,21.153c0.446,0,0.768-0.111,0.964-0.334c0.197-0.224,0.295-0.535,0.295-0.937
			c0-0.359-0.106-0.651-0.318-0.876c-0.211-0.225-0.518-0.337-0.919-0.337c-0.371,0-0.679,0.11-0.925,0.332
			c-0.246,0.221-0.369,0.498-0.369,0.831h-1.322l-0.011-0.034c-0.023-0.632,0.218-1.162,0.723-1.591s1.14-0.644,1.903-0.644
			c0.806,0,1.442,0.198,1.909,0.593c0.467,0.396,0.701,0.971,0.701,1.728c0,0.378-0.103,0.726-0.309,1.041
			c-0.206,0.316-0.493,0.563-0.859,0.741c0.419,0.167,0.741,0.417,0.964,0.751c0.223,0.335,0.334,0.739,0.334,1.211
			c0,0.76-0.255,1.356-0.766,1.787c-0.511,0.431-1.169,0.646-1.975,0.646c-0.726,0-1.363-0.205-1.912-0.615
			c-0.549-0.411-0.813-0.971-0.794-1.682l0.011-0.034h1.328c0,0.348,0.128,0.64,0.383,0.876c0.255,0.236,0.583,0.354,0.984,0.354
			c0.416,0,0.747-0.124,0.993-0.372c0.246-0.248,0.369-0.566,0.369-0.956c0-0.469-0.115-0.818-0.343-1.049
			c-0.229-0.23-0.576-0.346-1.041-0.346h-0.919v-1.083H50.135z"/>
		<path fill="#DB6712" d="M54.011,19.27c0-0.484,0.156-0.89,0.468-1.217s0.738-0.491,1.279-0.491c0.544,0,0.973,0.163,1.285,0.488
			c0.312,0.326,0.468,0.732,0.468,1.22v0.437c0,0.484-0.156,0.888-0.468,1.211c-0.312,0.323-0.737,0.485-1.274,0.485
			c-0.544,0-0.974-0.162-1.288-0.485c-0.314-0.324-0.471-0.727-0.471-1.211V19.27z M54.97,19.707c0,0.242,0.069,0.447,0.207,0.616
			s0.336,0.252,0.593,0.252c0.25,0,0.442-0.083,0.576-0.25c0.134-0.167,0.201-0.373,0.201-0.619V19.27
			c0-0.246-0.069-0.454-0.207-0.625c-0.138-0.17-0.332-0.255-0.582-0.255c-0.253,0-0.448,0.085-0.584,0.255
			c-0.136,0.17-0.204,0.378-0.204,0.625V19.707z M56.054,25.323l-0.709-0.409l4.034-6.456l0.709,0.408L56.054,25.323z
			 M57.983,23.917c0-0.48,0.157-0.884,0.471-1.211s0.739-0.491,1.276-0.491c0.545,0,0.973,0.163,1.285,0.488s0.468,0.73,0.468,1.214
			v0.442c0,0.488-0.156,0.894-0.468,1.217s-0.736,0.485-1.273,0.485c-0.545,0-0.974-0.163-1.288-0.488s-0.471-0.73-0.471-1.214
			V23.917z M58.941,24.359c0,0.242,0.071,0.448,0.213,0.618c0.142,0.17,0.337,0.255,0.587,0.255c0.265,0,0.461-0.082,0.59-0.247
			s0.193-0.374,0.193-0.627v-0.442c0-0.242-0.069-0.448-0.207-0.619s-0.334-0.255-0.587-0.255s-0.448,0.085-0.584,0.255
			c-0.136,0.17-0.205,0.376-0.205,0.619V24.359z"/>
	</g>
</g>
<g opacity="0.6">
	<g>
		<path fill="#DB6712" d="M154.005,43.003h-1.379v-6.989h-1.753v-1.095l3.132-0.295V43.003z"/>
		<path fill="#DB6712" d="M157.241,39.35l0.477-4.607h4.356v1.191h-3.211l-0.249,2.105c0.162-0.117,0.356-0.216,0.581-0.295
			c0.225-0.08,0.474-0.121,0.746-0.125c0.768-0.007,1.365,0.232,1.793,0.721c0.427,0.488,0.641,1.163,0.641,2.025
			c0,0.817-0.225,1.48-0.675,1.991s-1.123,0.766-2.02,0.766c-0.727,0-1.34-0.195-1.841-0.587c-0.502-0.392-0.743-0.95-0.724-1.677
			l0.012-0.028l1.293-0.04c0,0.386,0.116,0.688,0.349,0.905c0.233,0.218,0.536,0.326,0.911,0.326c0.431,0,0.758-0.146,0.981-0.437
			c0.223-0.292,0.335-0.694,0.335-1.208c0-0.496-0.116-0.894-0.347-1.194s-0.56-0.451-0.987-0.451c-0.378,0-0.659,0.061-0.842,0.182
			c-0.184,0.121-0.317,0.299-0.4,0.533L157.241,39.35z"/>
		<path fill="#DB6712" d="M163.511,36.332c0-0.484,0.155-0.89,0.468-1.217c0.312-0.327,0.738-0.491,1.279-0.491
			c0.545,0,0.973,0.163,1.285,0.488c0.312,0.326,0.468,0.732,0.468,1.22v0.437c0,0.484-0.156,0.888-0.468,1.211
			c-0.313,0.323-0.736,0.485-1.273,0.485c-0.545,0-0.975-0.162-1.288-0.485c-0.314-0.323-0.471-0.727-0.471-1.211V36.332z
			 M164.469,36.769c0,0.242,0.069,0.447,0.207,0.616c0.139,0.168,0.336,0.252,0.594,0.252c0.249,0,0.441-0.083,0.575-0.25
			c0.135-0.167,0.202-0.373,0.202-0.619v-0.437c0-0.246-0.069-0.454-0.208-0.624c-0.138-0.17-0.331-0.255-0.581-0.255
			c-0.254,0-0.448,0.085-0.584,0.255c-0.137,0.17-0.205,0.378-0.205,0.624V36.769z M165.553,42.385l-0.709-0.409l4.033-6.456
			l0.71,0.409L165.553,42.385z M167.482,40.978c0-0.48,0.157-0.884,0.471-1.211c0.314-0.327,0.74-0.491,1.277-0.491
			c0.544,0,0.973,0.163,1.284,0.488c0.313,0.325,0.469,0.73,0.469,1.214v0.443c0,0.488-0.156,0.894-0.469,1.217
			c-0.312,0.323-0.736,0.485-1.273,0.485c-0.545,0-0.974-0.162-1.288-0.488c-0.313-0.325-0.471-0.73-0.471-1.214V40.978z
			 M168.441,41.421c0,0.242,0.071,0.448,0.213,0.618c0.142,0.17,0.338,0.255,0.587,0.255c0.265,0,0.462-0.082,0.59-0.247
			c0.129-0.165,0.193-0.374,0.193-0.627v-0.443c0-0.242-0.069-0.448-0.207-0.618c-0.139-0.17-0.334-0.255-0.587-0.255
			c-0.254,0-0.448,0.085-0.585,0.255c-0.136,0.17-0.204,0.376-0.204,0.618V41.421z"/>
	</g>
</g>
<g>
	<g>
		<path fill="#DB6712" d="M144.818,188.304l0.477-4.607h4.357v1.191h-3.211l-0.25,2.105c0.163-0.117,0.356-0.216,0.582-0.295
			c0.225-0.08,0.474-0.121,0.746-0.125c0.768-0.008,1.365,0.232,1.792,0.721c0.428,0.487,0.642,1.162,0.642,2.025
			c0,0.816-0.226,1.48-0.675,1.991c-0.45,0.511-1.124,0.766-2.021,0.766c-0.726,0-1.34-0.195-1.841-0.587s-0.742-0.95-0.724-1.677
			l0.012-0.028l1.294-0.04c0,0.386,0.116,0.688,0.349,0.905s0.536,0.326,0.91,0.326c0.432,0,0.759-0.146,0.981-0.437
			c0.224-0.292,0.335-0.694,0.335-1.209c0-0.495-0.115-0.894-0.346-1.194c-0.231-0.301-0.56-0.451-0.987-0.451
			c-0.378,0-0.659,0.061-0.843,0.182s-0.316,0.299-0.399,0.533L144.818,188.304z"/>
		<path fill="#DB6712" d="M156.53,189.001c0,0.953-0.245,1.704-0.735,2.253c-0.489,0.548-1.145,0.822-1.966,0.822
			c-0.82,0-1.479-0.275-1.975-0.825c-0.495-0.551-0.743-1.301-0.743-2.25v-2.343c0-0.949,0.246-1.7,0.738-2.252
			c0.491-0.553,1.147-0.829,1.969-0.829c0.82,0,1.478,0.276,1.971,0.829c0.494,0.552,0.741,1.303,0.741,2.252V189.001z
			 M155.151,186.449c0-0.553-0.117-0.984-0.352-1.297c-0.235-0.312-0.563-0.468-0.981-0.468c-0.424,0-0.751,0.156-0.981,0.468
			c-0.231,0.313-0.347,0.744-0.347,1.297v2.752c0,0.56,0.117,0.995,0.352,1.308c0.234,0.312,0.563,0.468,0.987,0.468
			s0.75-0.155,0.979-0.465c0.229-0.311,0.344-0.747,0.344-1.311V186.449z"/>
		<path fill="#DB6712" d="M157.688,185.286c0-0.484,0.156-0.89,0.468-1.217c0.313-0.327,0.739-0.491,1.279-0.491
			c0.545,0,0.974,0.163,1.285,0.488c0.313,0.325,0.468,0.731,0.468,1.22v0.437c0,0.484-0.155,0.889-0.468,1.212
			c-0.312,0.323-0.736,0.484-1.273,0.484c-0.545,0-0.974-0.161-1.288-0.484c-0.313-0.323-0.471-0.728-0.471-1.212V185.286z
			 M158.647,185.722c0,0.242,0.068,0.447,0.207,0.616c0.138,0.168,0.336,0.252,0.593,0.252c0.25,0,0.441-0.083,0.576-0.249
			c0.134-0.167,0.201-0.373,0.201-0.619v-0.437c0-0.246-0.069-0.454-0.207-0.624c-0.139-0.17-0.332-0.255-0.582-0.255
			c-0.253,0-0.448,0.085-0.584,0.255s-0.204,0.378-0.204,0.624V185.722z M159.731,191.339l-0.71-0.409l4.034-6.456l0.709,0.409
			L159.731,191.339z M161.66,189.932c0-0.48,0.156-0.884,0.471-1.211c0.313-0.327,0.739-0.491,1.276-0.491
			c0.545,0,0.973,0.163,1.285,0.488c0.312,0.325,0.468,0.729,0.468,1.214v0.442c0,0.488-0.156,0.894-0.468,1.217
			c-0.313,0.323-0.736,0.485-1.273,0.485c-0.545,0-0.975-0.163-1.288-0.488c-0.314-0.325-0.471-0.729-0.471-1.214V189.932z
			 M162.618,190.375c0,0.242,0.071,0.448,0.213,0.618c0.143,0.171,0.338,0.256,0.588,0.256c0.265,0,0.461-0.082,0.59-0.247
			c0.129-0.164,0.192-0.373,0.192-0.627v-0.442c0-0.242-0.068-0.448-0.207-0.618c-0.138-0.171-0.333-0.256-0.587-0.256
			s-0.448,0.085-0.584,0.256c-0.137,0.17-0.205,0.376-0.205,0.618V190.375z"/>
	</g>
</g>
<g opacity="0.2">
	<g>
		<path fill="#DB6712" d="M49.819,125.064c-0.995,1.173-1.667,2.211-2.017,3.114c-0.35,0.904-0.525,1.928-0.525,3.069v0.971h-1.379
			v-0.971c0-1.191,0.221-2.27,0.661-3.236s1.081-1.949,1.92-2.947h-4.294v-1.106h5.633V125.064z"/>
		<path fill="#DB6712" d="M50.871,125.546c0-0.484,0.156-0.89,0.468-1.217s0.738-0.491,1.279-0.491c0.545,0,0.973,0.163,1.285,0.488
			s0.468,0.731,0.468,1.22v0.437c0,0.484-0.156,0.888-0.468,1.211s-0.737,0.485-1.273,0.485c-0.545,0-0.974-0.162-1.288-0.485
			s-0.471-0.727-0.471-1.211V125.546z M51.829,125.983c0,0.242,0.069,0.447,0.207,0.615c0.138,0.169,0.336,0.253,0.593,0.253
			c0.25,0,0.441-0.083,0.576-0.25c0.134-0.166,0.201-0.372,0.201-0.618v-0.437c0-0.246-0.069-0.454-0.207-0.624
			c-0.138-0.171-0.332-0.256-0.582-0.256c-0.253,0-0.448,0.085-0.584,0.256c-0.136,0.17-0.205,0.378-0.205,0.624V125.983z
			 M52.913,131.599l-0.709-0.408l4.034-6.456l0.709,0.408L52.913,131.599z M54.842,130.193c0-0.48,0.157-0.885,0.471-1.212
			s0.74-0.49,1.277-0.49c0.544,0,0.973,0.162,1.285,0.487c0.312,0.326,0.468,0.73,0.468,1.215v0.442
			c0,0.487-0.156,0.894-0.468,1.217s-0.736,0.485-1.273,0.485c-0.544,0-0.974-0.163-1.288-0.488s-0.471-0.729-0.471-1.214V130.193z
			 M55.801,130.635c0,0.242,0.071,0.448,0.212,0.618c0.142,0.17,0.338,0.255,0.587,0.255c0.265,0,0.461-0.082,0.59-0.246
			c0.128-0.165,0.193-0.374,0.193-0.627v-0.442c0-0.242-0.069-0.448-0.207-0.619c-0.138-0.17-0.334-0.255-0.587-0.255
			c-0.253,0-0.448,0.085-0.584,0.255c-0.136,0.171-0.204,0.377-0.204,0.619V130.635z"/>
	</g>
</g>
<g opacity="0.8">
	<g>
		<path fill="#DB6712" d="M54.057,183.664h-5.327v-0.947l2.582-2.984c0.419-0.495,0.711-0.903,0.874-1.226
			c0.163-0.321,0.244-0.63,0.244-0.925c0-0.352-0.098-0.638-0.295-0.859c-0.197-0.221-0.479-0.332-0.845-0.332
			c-0.427,0-0.754,0.139-0.981,0.414c-0.227,0.276-0.34,0.625-0.34,1.044h-1.333l-0.011-0.033c-0.019-0.708,0.215-1.307,0.701-1.796
			c0.486-0.49,1.141-0.734,1.966-0.734c0.791,0,1.408,0.211,1.853,0.635c0.444,0.424,0.667,0.979,0.667,1.668
			c0,0.466-0.124,0.902-0.372,1.311c-0.248,0.408-0.655,0.955-1.223,1.64l-1.742,1.997l0.011,0.028h3.574V183.664z"/>
		<path fill="#DB6712" d="M55.465,180.01l0.477-4.606h4.357v1.191h-3.211l-0.25,2.104c0.163-0.117,0.356-0.216,0.582-0.295
			c0.225-0.08,0.474-0.121,0.746-0.125c0.768-0.008,1.365,0.232,1.793,0.721c0.427,0.487,0.641,1.163,0.641,2.025
			c0,0.816-0.225,1.48-0.675,1.991s-1.123,0.766-2.02,0.766c-0.727,0-1.34-0.195-1.841-0.587c-0.501-0.392-0.742-0.95-0.723-1.677
			l0.011-0.028l1.293-0.04c0,0.387,0.116,0.688,0.349,0.905c0.232,0.218,0.536,0.326,0.911,0.326c0.431,0,0.758-0.146,0.981-0.437
			s0.334-0.694,0.334-1.209c0-0.495-0.115-0.894-0.346-1.194c-0.23-0.3-0.56-0.45-0.987-0.45c-0.378,0-0.659,0.061-0.843,0.182
			c-0.183,0.121-0.317,0.299-0.4,0.533L55.465,180.01z"/>
		<path fill="#DB6712" d="M61.735,176.992c0-0.484,0.156-0.89,0.468-1.217s0.738-0.49,1.279-0.49c0.545,0,0.973,0.162,1.285,0.487
			s0.468,0.732,0.468,1.22v0.438c0,0.483-0.156,0.888-0.468,1.211s-0.737,0.485-1.274,0.485c-0.544,0-0.974-0.162-1.288-0.485
			s-0.471-0.728-0.471-1.211V176.992z M62.694,177.429c0,0.241,0.069,0.447,0.207,0.615s0.335,0.252,0.593,0.252
			c0.25,0,0.442-0.083,0.576-0.249c0.134-0.167,0.201-0.373,0.201-0.618v-0.438c0-0.246-0.069-0.454-0.207-0.624
			s-0.332-0.255-0.582-0.255c-0.253,0-0.448,0.085-0.584,0.255s-0.204,0.378-0.204,0.624V177.429z M63.778,183.045l-0.709-0.408
			l4.034-6.457l0.709,0.409L63.778,183.045z M65.707,181.638c0-0.48,0.157-0.884,0.471-1.211s0.739-0.491,1.276-0.491
			c0.545,0,0.973,0.163,1.285,0.488s0.468,0.729,0.468,1.214v0.442c0,0.488-0.156,0.894-0.468,1.217
			c-0.312,0.324-0.737,0.485-1.273,0.485c-0.545,0-0.974-0.162-1.288-0.487s-0.471-0.73-0.471-1.215V181.638z M66.666,182.081
			c0,0.242,0.071,0.448,0.213,0.619c0.142,0.17,0.337,0.255,0.587,0.255c0.265,0,0.461-0.082,0.59-0.247
			c0.128-0.164,0.193-0.373,0.193-0.627v-0.442c0-0.242-0.069-0.448-0.207-0.618s-0.334-0.255-0.587-0.255s-0.448,0.085-0.584,0.255
			c-0.136,0.17-0.205,0.376-0.205,0.618V182.081z"/>
	</g>
</g>
<line fill="none" stroke="#DB6714" stroke-width="0.5" x1="150.385" y1="148.419" x2="150.385" y2="175.815"/>
<g>
	<line opacity="0.7" fill="none" stroke="#DB6714" stroke-width="0.5" x1="100.573" y1="180.232" x2="73.178" y2="180.232"/>
</g>
<line opacity="0.1" fill="#DB6714" stroke="#D5001E" stroke-width="0.5" x1="53.534" y1="28.678" x2="53.534" y2="56.073"/>
<polygon opacity="0.6" fill="#DB6714" points="165.929,98.863 166.606,99.334 167.414,99.538 168.288,100.076 169.233,100.615 
	170.311,101.695 170.583,101.897 170.244,102.368 169.167,103.85 168.357,104.727 167.683,105.738 167.143,105.803 166.471,105.67 
	166.067,105.199 165.661,104.727 165.391,104.121 165.459,103.513 166.067,103.446 166.401,102.57 166.471,101.29 166.401,100.346 
	166.067,99.806 165.661,99.334 165.661,98.795 "/>
<polygon opacity="0.6" fill="#DB6714" points="165.391,97.919 165.999,98.257 166.74,98.729 167.48,98.998 168.288,99.403 
	168.763,99.739 169.367,100.076 170.11,100.615 170.714,101.02 171.323,101.221 171.927,100.684 172.94,99.874 173.817,98.795 
	174.491,97.987 174.962,97.514 175.232,96.706 175.367,96.167 174.356,95.899 173.48,96.032 172.874,96.235 172.536,97.179 
	171.794,97.583 170.849,97.717 169.772,97.717 168.763,97.717 168.156,97.448 167.48,97.043 167.078,96.706 166.538,96.706 
	165.929,97.043 165.593,97.514 "/>
<path opacity="0.6" fill="#DB6714" d="M167.549,81.138h0.606l0.877,0.337l0.808,0.404l1.079,0.067h1.278h1.08l0.943,0.136
	l0.741,0.403l0.472,0.606v0.473l0.403,1.01v0.741l0.136,1.079l-0.204,0.404h-1.145h-1.347l-0.877-0.336l-0.606-0.136l-0.403,0.136
	l-0.472,0.471l-0.07,0.539l-0.135,0.607h-0.672l-0.339-0.472l-0.874,0.066h-0.339l-0.203-0.472l0.542-0.943v-0.674l-1.013-0.201
	l-0.944,0.134l-0.537,0.539l-0.944,0.538c0,0-0.472,0.136-0.673,0.136c-0.204,0-0.673,0.067-0.673-0.136
	c0-0.201,0.605-1.01,0.605-1.01l0.472-0.809l1.012-1.551L167.549,81.138z"/>
<path opacity="0.6" fill="#DB6714" d="M163.64,87.675l-0.339,0.877l0.137,0.606l0.336,0.539l-0.134,0.809l-0.134,0.606l0.402,0.202
	l0.81,0.068l1.077-0.203l0.876-0.606l1.081-0.673l0.403-0.068l1.077,0.202l0.134,0.673l-0.269,0.337l-0.335,1.146v0.474l0.201,0.269
	l0.605,0.135l0.473-0.606l0.877-0.607h0.606l1.28-0.2l1.077-0.27l0.81-0.742l0.539-0.405l0.605-0.134h1.148v-0.675
	c0,0,0.065-0.808-0.137-0.875c-0.202-0.068-0.404-0.742-0.404-0.742l-0.337-0.27l-1.617-0.271h-1.079l-0.942-0.066h-0.81
	l-0.337,0.673l-0.539,0.743l-0.808,0.134l-0.609-0.472l-0.674,0.068l-0.471,0.27l-0.47-0.406l-0.473-0.673l0.336-1.011l0.472-0.674
	h-0.607l-0.74,0.404l-0.339,0.539l-0.605,0.27l-0.404,0.067l-0.942,0.067L163.64,87.675z"/>
<path opacity="0.2" fill="#DB6714" d="M76.542,96.01l11.547,0.18l0.314-0.765l0.404-1.122l0.089-1.124v-0.944l0.182-0.718
	l0.178-0.583l0.315,0.043l0.18,0.225l0.09,0.539l0.404,0.766l0.361,1.211l0.222,1.89l0.541,0.538l3.011,2.472l1.213,0.179
	l4.896,0.182l10.694,0.447l7.772,0.541l-0.044,0.403l-0.315,1.033l-1.078,3.011c0,0-0.134-0.09-0.089,1.303s0.045,4.314,0.045,4.314
	l0.269,1.167c0,0,0.045,1.302-0.493,2.021c-0.54,0.719-0.809,2.066-0.809,2.066l-0.405,2.517l-0.448,0.719l-0.945,0.495
	l-0.764,0.718l-0.63,0.899l-0.27,0.809l-0.536,0.314l-0.945,0.63l-0.765,0.675l-0.896,1.481l-0.811,1.169l-0.674,0.896l-0.585,0.677
	l-0.09,0.627l-0.043,0.9l0.313,0.492l-0.044,0.317v0.762h-1.438l-0.135-0.493l0.135-0.899l-0.135-0.495l-0.358-0.72l-0.676-0.044
	l-0.719,0.495l-0.404,0.357c0,0-0.629,0-0.898,0s-0.899-0.269-0.899-0.269l-0.537,0.091l-1.664,0.089l-1.078-0.45
	c0,0-0.179-0.179-0.762-0.581c-0.586-0.406-1.035-0.362-1.215-0.362s-1.124-0.089-1.573,0.092c-0.449,0.178-0.225,0.224-0.674,0.224
	s-0.989,0.358-1.123,0.449c-0.137,0.09-0.583,0.811-0.583,0.811l-0.271,0.495l-0.81-0.046h-0.313l-0.403-0.406l-0.944-0.583
	l-0.763-0.181l-0.854-0.585l-0.313-0.447l-0.225-1.528v-0.584l0.359-0.27l0.134-0.584v-0.493l-6.92-0.047l-0.134-1.303l-0.271-1.302
	l-0.224-0.314l-0.405-0.314l-0.226-0.585h0.765l0.134-0.943l-0.179-1.348l-0.36-0.538l-0.359-2.384l-0.449-0.358l0.54-0.495
	l2.022-2.965l0.045-2.786l-0.405-0.539l-0.225-0.764l0.134-0.584c0,0,0.268-0.854,0.134-1.033c-0.134-0.181-0.268-0.405-0.404-0.539
	c-0.135-0.136-1.168-0.404-1.168-0.404s-1.076-0.405-1.212-0.405c-0.136,0-3.056,0.046-3.056,0.046l0.09-1.797l-0.406-0.765
	l0.225-0.943L76.542,96.01z"/>
<path opacity="0.2" fill="#DB6714" d="M90.65,129.212l0.224,1.036c0,0,0.495,0.628,0.54,0.807c0.044,0.182,0.044,0.9,0.044,0.9
	l-0.63,0.719l-0.089,1.168c0,0,0.226,0.897,0.179,1.033c-0.044,0.134-0.718,1.033-0.718,1.033l-0.629,0.719l-0.091,0.674l0.54,0.674
	l-0.405,0.808c0,0-0.223,0.452-0.27,0.63c-0.044,0.183,0.226,0.583,0.226,0.811c0,0.224,0.358,0.988,0.358,1.123
	c0,0.134,0.228,0.718,0.228,0.718v1.214l0.133,1.661v0.989l1.349,0.134l0.314,0.092h1.708l1.932-0.046l1.258,0.269l0.854,0.272
	l0.493,0.492l0.405,0.809l0.182,1.078v0.988l0.313,0.271l0.359,0.583l0.089,0.809l0.181,1.078l0.314,0.404l1.079-0.089l0.538-0.315
	l0.629-0.314l0.81,0.046l0.359,0.403l0.494,0.09l0.36-0.447l0.089-1.034l0.81-0.63l0.134-0.629l0.495-0.629l0.583-0.675l1.798-0.943
	l0.673-0.673l1.124-1.034l1.798-1.393c0,0,0-0.583,0.045-0.719c0.044-0.133,0.493-0.675,0.493-0.675l0.093-0.809l0.627-0.989
	l0.944-1.302l0.718-0.942l0.72-0.586l0.315-0.225v-2.65l-1.035-0.315l-1.394-0.449c0,0-1.481-0.765-1.706-0.942
	c-0.225-0.18-0.854-0.449-1.034-0.586c-0.18-0.135-0.897-0.179-1.124-0.179c-0.224,0-0.718,0.091-0.943-0.09
	c-0.223-0.179,0-1.438,0-1.438s-0.808-0.224-0.896-0.405c-0.091-0.179,0.089-0.403-0.182-0.539
	c-0.269-0.134-0.942-0.134-1.256-0.134c-0.315,0-1.08,0-1.08,0l-0.27-0.854l0.36-0.406l0.225-0.536l0.18-0.675l-0.359,0.133
	l-0.225,0.183l-0.765,0.313h-0.854c0,0-0.853,0.047-0.987,0.047c-0.137,0-0.989,0.087-0.989,0.087s-0.763,0-1.033,0
	c-0.27,0-0.675,0.047-0.944-0.134c-0.27-0.18-0.809-0.358-0.944-0.402c-0.136-0.045-1.032-0.632-1.032-0.632
	s-0.359-0.179-0.539-0.179c-0.181,0-0.944,0.134-1.078,0.134c-0.135,0-1.124,0.36-1.124,0.36l-0.583,0.451l-0.586,0.448
	l-0.583,0.584l-0.449,0.046c0,0-0.674-0.091-0.854-0.135C91.504,129.708,90.65,129.212,90.65,129.212z"/>
<path opacity="0.2" fill="#DB6714" d="M118.774,111.017l0.811,0.495l0.765,0.584l0.765,0.134l0.764,0.72l0.943,0.269l0.18-1.212
	l0.582-0.36l1.35-0.044l0.134,0.808l0.181,0.584l0.538,0.091l0.943-0.091l0.765,0.091l0.629,0.359l0.314,0.179l0.988,0.045v-0.494
	l0.943-0.224l0.674-0.406l0.943-0.223l0.944-0.271l0.809-0.18l0.54,0.045l0.044,1.394l-0.315,0.18l0.091,2.382l0.314,0.403
	l0.404,0.541l0.27,0.178v1.483l-0.088,0.27l-0.405-0.045l-0.495-0.403l-0.54-0.229l-0.584,0.047l-0.178,0.54v0.447l-0.811,0.182
	l-0.539,0.09v0.585v1.257l0.181,0.492v0.271l0.09,0.539l-0.584,0.047l-0.854,0.089l-0.494,0.944l-0.18,0.718l-0.045,0.72
	l0.181,0.583l0.269,0.314l0.359,0.54l0.046,0.404l-0.54,0.448l-0.494,0.539l-0.18,0.495l0.09,0.54l0.405,0.178l0.179,0.315v0.809
	v0.405l-0.54,0.405l-0.673,0.358l-0.494,0.537l-0.136,0.362L127.538,132l-0.854-0.181h-1.033l-1.168-0.044
	c0,0-0.585,0.133-0.719,0.133c-0.136,0-0.811,0.226-0.811,0.226l-0.537,0.449l-1.078-0.089l-1.44,0.225c0,0-0.629,0.134-0.762,0.134
	c-0.134,0-0.765,0.631-0.765,0.631l-0.674,0.808l-0.495,0.539l-0.809,0.943l-0.852-0.63l-0.945-0.493c0,0-0.538-0.313-0.763-0.313
	c-0.226,0-1.123-0.539-1.258-0.539c-0.134,0-0.765-0.496-0.9-0.54c-0.135-0.046-0.359-0.358-0.764-0.495
	c-0.404-0.134-0.852-0.313-0.852-0.313l-0.406-0.45l-0.09-0.494l-0.675-0.406l-0.178-0.807v-0.722l-0.136-0.628l-0.135-1.256
	l0.584-1.305l0.673-0.36l0.675-0.582l0.314-0.945l1.304-1.527l0.763-0.269l0.854-0.36l0.136-0.449l0.358-0.988l0.674-0.942
	l0.582-0.271l0.81-0.628l0.272-0.763l0.401-1.753l0.494-0.944l0.227-0.946c0,0,0-0.58,0.18-0.942c0.18-0.36,0.225-1.213,0.404-1.302
	c0.181-0.089,0.36-0.943,0.36-0.943L118.774,111.017z"/>
<polygon opacity="0.7" fill="#DB6714" points="104.353,153.566 104.353,155.275 104.263,156.622 104.263,158.105 103.679,158.778 
	103.41,158.959 103.722,159.138 104.128,159.138 104.444,158.87 104.713,159.001 105.252,159.858 105.566,160.486 105.748,161.34 
	106.599,161.743 107.634,161.923 108.622,162.014 109.699,162.058 110.779,162.194 111.182,162.509 112.125,162.778 
	113.563,163.091 114.686,163.136 115,162.823 115.047,162.328 115.318,161.743 116.394,161.699 116.978,161.653 117.474,161.116 
	117.831,160.798 118.774,160.798 120.035,160.798 121.021,160.798 121.249,161.293 121.696,161.519 122.145,161.474 122.73,161.027 
	123.315,160.889 123.944,160.889 124.663,160.889 125.109,161.159 125.426,161.159 125.696,160.667 125.875,160.037 
	126.325,159.587 126.458,159.182 126.774,158.959 126.727,158.284 126.325,157.969 125.74,157.969 125.202,157.925 124.977,157.746 
	125.021,157.07 125.021,156.532 122.504,156.532 122.28,155.544 122.192,154.554 121.787,153.88 121.203,153.387 121.157,152.801 
	121.021,151.543 120.931,150.556 120.349,149.972 119.583,149.881 116.8,149.838 116.125,149.386 115.674,149.118 115.135,148.984 
	114.686,148.893 113.429,148.803 111.992,148.712 111.498,148.712 110.508,148.712 109.746,148.757 108.89,148.757 108.442,148.757 
	107.677,149.118 106.915,149.748 106.15,150.465 105.881,151.095 104.982,152.083 104.668,152.714 "/>
<path fill="#DB6714" d="M109.565,147.77l1.303,0.091l1.349,0.088h1.077l1.036,0.091l0.809,0.178l0.852,0.54l0.629,0.181h1.26h0.986
	h1.17l0.63,0.137l0.268,0.403l0.406,0.403l0.357,0.359l0.182,0.494v0.721v0.538l0.043,0.585l0.179,0.449l0.228,0.089l0.134,0.449
	l0.315,0.406l0.089,0.491l-0.044,0.72l0.044,0.405l0.944,0.044h1.257l0.405,0.091l0.225,0.449l0.044,0.63l0.136,0.268l0.628,0.045
	l0.631,0.227l0.134,0.223l0.449-0.134l0.449-0.719l0.943-0.539c0,0,0.449-0.358,0.539-0.495c0.091-0.133,1.393-0.897,1.393-0.897
	l0.854-0.766l0.496-0.403l0.896-0.358l0.629-0.225l0.495-0.091l0.586-0.585l2.289-0.046l0.359-0.627l1.035-0.631l0.536-0.224
	l0.901-0.09l0.583-0.133l-0.046-0.407l0.046-0.402l0.54-0.54v-0.809h-0.675l-0.673-0.449h-0.811l-0.762,0.315l-0.72,0.269
	l-0.629,0.314l-0.765,0.269c0,0,0,0.36-0.135,0.406c-0.134,0.045-1.303,0.045-1.303,0.045l-1.033,0.044l-0.494-0.225l-0.405-0.811
	l-0.179-0.582c0,0-0.223-0.584-0.269-0.718c-0.047-0.138-0.047-1.034-0.047-1.034l-0.044-0.943l0.044-0.629l0.135-0.631l-0.675-0.18
	c0,0-0.672,0-0.807-0.27c-0.136-0.269-0.54-0.808-0.54-0.942c0-0.134-0.225-0.674-0.225-0.896c0-0.227-0.044-0.721-0.044-1.036
	c0-0.313-0.046-0.494-0.046-0.629c0-0.136-0.313-0.896-0.313-0.896l-0.496-0.361l-0.673-0.091l-0.539,0.136l-1.169,0.225h-1.438
	l-0.583,0.045l-0.27,0.585l-0.18,0.45l-0.674-0.314L123,139.593l-0.449-0.675c0,0-0.271-0.404-0.586-0.448
	c-0.313-0.046-0.673-0.046-1.123-0.046c-0.449,0-1.706,0-1.706,0l-0.855-0.269l-0.538-0.046l-0.54,0.268l-0.762,0.405l-0.54,0.722
	l-1.034,0.808l-0.808,0.988l-0.225,0.674l-0.586,0.854l-0.089,0.72l-0.405,0.628l-0.043,0.586l-0.405,0.672l-0.809,0.584
	l-0.854,0.766L109.565,147.77z"/>
<path fill="#DB6714" d="M140.882,147.68l1.211-0.717l0.72-0.138l1.349-0.089l0.899-0.224h0.494h0.673l0.9-0.271l0.762-0.403
	l0.406-0.182l0.494-0.224l0.358-0.36l0.494-0.583l0.18-0.81l0.18-0.585l0.045-0.536l0.629-0.405l0.271,0.18l0.224,0.494
	c0,0,0.358,0.18,0.495,0.268c0.133,0.091,0.719,0.183,0.719,0.183h0.943h0.403l0.046,1.438l0.224,0.404l-0.045,0.405l-0.404,0.269
	l-0.718,0.404l-0.315,0.179l-0.628,0.181l-0.586,0.449l-0.313,0.584l-0.406,0.627l-0.226,0.361v0.496l-0.852,0.087
	c0,0-1.213,0-1.349,0c-0.134,0-1.077,0-1.077,0l-0.406-0.358v-0.449h-0.629l-0.448,0.047v0.717l-0.314,0.36
	c0,0-1.078-0.046-1.213-0.046s-0.629-0.18-0.629-0.18l-0.674-0.178l-0.359,0.403l-0.36,0.135l-0.225-0.404l0.268-0.63l-0.178-0.493
	l-0.448-0.18L140.882,147.68z"/>
<path fill="#DB6714" d="M151.667,142.244l0.537,0.225l0.494,0.225l1.438-0.18l0.361-0.403l0.449-0.451l0.361-0.492l0.582-0.72
	l0.538-0.766l0.27-0.492l0.359-0.943l0.181-0.854l0.899-0.449c0,0,0.313-0.181,0.313-0.36c0-0.179,0.136-1.124,0.136-1.124
	l0.135-1.524v-1.17l-0.314-0.898l-0.585-0.358l-0.673-0.493l-0.539-0.137h-1.033l-0.45,0.179l-0.403,0.27l-0.405,0.314v0.541
	l0.044,0.494l0.091,0.673l0.271,0.586l-0.271,0.404l-0.045,0.356v0.677l-0.134,0.853l-0.271,1.033l-0.27,0.584l-0.449,0.539
	l-0.225,0.584l-0.224,0.405l-0.72,0.136l-0.539,0.269l-0.046,0.763l-0.045,0.765l-0.089,0.854L151.667,142.244z"/>
<path fill="#DB6714" d="M116.765,137.21l0.035,0.406l1.179-0.034h1.145l1.214,0.066l1.617,0.035l0.81,0.405l0.37,0.402l0.338,0.405
	h0.64l0.201-0.271c0,0,0.17-0.235,0.404-0.235c0.237,0,0.843,0.033,1.079,0s0.506-0.203,0.641-0.203
	c0.134,0,1.044-0.099,1.044-0.099s0.742-0.137,0.843-0.137c0.102,0,0.909,0,0.909,0l0.574,0.203l0.336,0.336l0.338,0.405
	l0.202,0.708l0.203,0.74v0.742l0.166,0.639l0.102,0.338l0.271,0.439l0.404,0.471l0.472,0.27l0.404,0.102l0.505,0.235l0.17,0.473
	l-0.034,0.572l-0.067,0.539l-0.203,0.473v0.672l0.034,0.641l0.202,0.54l0.17,0.303l0.301,0.474l0.035,0.469l0.067,0.34h0.572
	l0.843-0.036l0.168-0.438l0.371-0.47l0.572-0.204l0.202,0.204c0,0,0.472,0.032,0.575-0.035c0.099-0.068,0.403-0.235,0.403-0.235
	l0.741-0.237l0.537-0.302l0.438-0.237l0.878-0.201l0.741-0.167l0.505-0.203l0.54-0.168l0.775-0.169l0.74-0.101l0.505-0.103
	l0.573-0.067h1.011l0.709-0.032l0.741-0.271c0,0,0.774-0.336,0.774-0.438c0-0.1,0.742-0.573,0.742-0.573l0.404-0.572l0.337-0.843
	l0.302-0.809l0.271-0.506l0.337-0.606l0.372-0.474l0.2-0.673l0.238-0.773l0.437-0.539l1.011-0.035l0.27-0.438l0.337-0.809
	l0.437-0.572c0,0,0.035-0.438,0.035-0.604c0-0.171,0.237-1.148,0.237-1.148l-0.136-0.572l-0.235-0.304l0.099-0.706l0.339-0.203
	l-0.034-0.605l-0.371-0.271c0,0,0.034-0.471,0.034-0.605c0-0.136,0.305-0.676,0.305-0.676l0.167-0.269c0,0,0.035-0.471,0.27-0.607
	c0.235-0.135,0.472-0.201,0.472-0.201l0.271-0.033l0.303,0.067h0.776h0.538l0.066-0.303l-0.74-0.675c0,0-0.438-0.642-0.473-0.74
	c-0.033-0.102,0.068-1.114,0.068-1.114l0.168-1.009l0.372-0.204h0.572l0.067-0.538l0.269-0.641l0.372-0.438l0.335-0.404l0.035-0.81
	l-0.843-0.403l-0.606-0.27l-0.708-0.27c0,0-0.438,0-0.539,0c-0.102,0-0.743,0-0.743,0h-0.469l-0.507,0.202h-0.438l-0.134-0.473
	l-0.138-0.674l-0.536-0.471l-0.34-0.438l-0.37-0.17c0,0-0.471-0.066-0.605-0.066c-0.134,0-0.741,0-0.741,0l-0.337-0.033
	l-0.607-0.236l-1.179-0.641l-0.776-0.606l-0.57-0.472c0,0-0.407-0.033-0.541-0.033c-0.135,0-0.64,0.066-0.64,0.066l-0.068,0.337
	l-0.472,0.033l-0.81-0.033l-0.572-0.608l-0.167-0.402l-0.17-0.369l-0.472-0.305l-0.605-0.102l-0.607,0.035l-1.213,0.842
	l-2.055,1.313l-1.854,0.909l-0.844,0.271l-0.538,0.236l-0.068-0.911c0,0-0.404-0.472-0.505-0.472c-0.102,0-0.641,0-0.641,0
	l-0.404,0.506l-0.572,0.201l-0.337,0.101l0.033,0.979l0.202,0.706l-0.034,0.777l-0.135,0.572l-0.604,0.337l-0.54-0.067l-0.573,0.271
	l-0.068,0.605l-0.067,1.011l0.339,0.471l0.065,0.573l0.068,0.606l-0.068,0.572l-0.505,0.37l-0.236,0.44l0.102,0.54l0.269,0.134
	l0.103,0.573l-0.136,0.774l0.102,0.641c0,0-0.202,0.204-0.269,0.404c-0.068,0.202-0.641,0.742-0.641,0.742l-0.774,0.304
	l-0.642,0.605l-0.369,0.404l-0.438-0.506c0,0-0.54-0.369-0.707-0.369c-0.169,0-0.677,0-0.677,0h-1.011l-0.908-0.034l-0.54,0.102
	l-0.371,0.438l-0.538,0.2l-0.775,0.068l-0.709,0.134l-0.908,0.135l-0.674,0.034c0,0-0.404,0.033-0.507,0.136
	c-0.102,0.099-0.504,0.235-0.605,0.572c-0.101,0.337-0.978,1.348-0.978,1.348s-0.642,0.811-0.742,0.977
	C116.765,136.672,116.765,137.21,116.765,137.21z"/>
<path opacity="0.7" fill="#DB6714" d="M106.24,162.553v0.989l0.045,0.985l0.09,0.539l0.765,0.048h0.988l0.898,0.046l0.988,0.131
	l1.347,0.362l0.811,0.358l0.628,0.137l0.81,0.268l0.721,0.181l0.583,0.314l3.146,3.009l0.673,0.225l0.899-0.045h0.988
	c0,0,0.271-0.134,0.357,0.138c0.092,0.269,0.272,0.58,0.272,0.58l-0.092,0.54l-0.225,0.495l-0.539,0.584l-0.223,0.496l0.537,0.134
	l0.541,0.225l0.359-0.54l0.763-0.674l0.675-0.583l1.213-0.63c0,0,0.313-0.271,0.358-0.449c0.046-0.178,0.36-1.304,0.36-1.304
	l0.27-0.985l0.089-1.081v-1.033l-0.045-1.214c0,0,0-0.898,0-1.031c0-0.136-0.044-1.124-0.044-1.124l-0.135-0.628l-0.809-0.631
	h-0.721L123,161.609l-0.359,0.314l-0.405,0.092l-0.764,0.224l-0.404-0.181l-0.27-0.314l-0.271-0.313l-0.673,0.045l-0.585,0.044
	l-0.897,0.134h-0.584l-0.494,0.541l-0.403,0.315l-0.765-0.046l-0.271,0.269l-0.403,0.54l-0.227,0.495h-0.539h-0.627l-0.674-0.091
	l-0.942-0.091l-0.901-0.224l-0.763-0.27l-0.718-0.226l-0.721-0.089h-0.494l-1.123-0.182l-0.854-0.087L106.24,162.553z"/>
<path opacity="0.7" fill="#DB6714" d="M91.863,177.021l0.718-0.09l0.631-0.405l0.717-0.269l0.676,0.134l0.627,0.676l1.035,0.896
	l0.854,0.944v0.585l0.359,0.404l0.494-0.135l0.582-0.317l0.407-0.223l0.448,0.406l0.271,0.312l0.403,0.54l0.586,0.495l0.673-0.134
	l0.583,0.583l0.675,0.313l0.494,0.358l0.584,0.677l0.449,0.583l0.674-0.044l0.719,0.54l0.135,0.446l0.494,0.451l0.494,0.675
	c0,0,0.18,0,0.314,0.087c0.136,0.093,0.676,0.449,0.676,0.449l0.358,0.408l-0.046,1.032l-0.359,0.495c0,0-0.584,0.313-0.584,0.45
	c0,0.132-0.045,1.84-0.045,1.84l0.45-0.359l0.674-0.495l0.943-0.449l0.403-0.762l0.766-0.81l0.269-1.169l0.404-1.124l0.406-0.673
	v-1.169l0.402-0.672l0.54-0.449l0.044-1.035l0.988-0.225l0.496-0.356l0.134-1.081l0.629-0.449l0.449-1.887l0.402-0.224l0.631,0.178
	l0.046,0.314l0.494,0.181l0.36-0.403l0.493-0.136h0.675l-0.045,1.078l-0.45,0.45l-0.538,0.763l-0.943,0.853l-0.451,0.81
	l-0.405,0.631l-0.896,0.58l-0.991,0.633c0,0-0.584,0.269-0.718,0.356c-0.135,0.091-0.495,0.317-0.495,0.317l0.046,0.539l0.357-0.046
	l0.495-0.044l0.764-0.361l0.898-0.674l0.856-0.808l0.852-0.811l0.942-1.076l1.08-1.482l0.673-1.26l0.765-1.571l0.316-0.854
	l0.448-1.033l-0.404-0.27l-0.584-0.135l-0.092-0.854l0.359-0.898l0.495-0.764v-0.359l-1.213,0.091l-0.988-0.225l-0.718-0.18
	l-0.944-0.946l-0.54-0.627l-0.718-0.674c0,0-0.764-0.448-0.942-0.584c-0.182-0.135-1.036-0.359-1.036-0.359s-0.943-0.36-1.213-0.404
	c-0.269-0.043-1.078-0.043-1.348-0.181c-0.27-0.134-1.393-0.314-1.527-0.358s-0.811-0.36-1.662-0.314
	c-0.854,0.046-1.932,0.046-2.247,0.046c-0.314,0-0.987,0-0.987,0l-0.675,0.493l-0.764,0.539l-1.032,0.493l-0.81,0.495l-0.721,0.449
	l-0.718,0.403l-7.996,8.087L91.863,177.021z"/>
<path opacity="0.6" fill="#DB6714" d="M135.299,67.389l0.774,0.066l0.675,0.574l0.573,0.067l0.907,0.034l0.745,0.303l0.468,0.641
	l0.946,0.707c0,0,0.473,0.641,0.473,0.74c0,0.104,0.132,0.574,0.132,0.709s0,0.707-0.1,0.742c-0.101,0.033-0.741,0.673-0.741,0.673
	l-0.168,0.641l0.066,0.81l0.474,0.402l0.604-0.168l0.304-0.674l0.742-0.404h0.606l0.304-0.403c0,0,0.302-0.372,0.537-0.372
	c0.237,0,1.281-0.033,1.281-0.033l0.54-0.27l0.438-0.201l0.844,0.168l0.707,0.336l0.843,0.54l0.639,0.304l1.112,0.135l0.64,0.168
	l-0.065,0.641l-0.473,0.505l-0.74,0.405l-0.305,0.201l-1.077,0.237l-0.473,0.942l-0.539,0.943l-0.404,0.708
	c0,0-0.067,1.213-0.067,1.819s0.304,1.146,0.304,1.381c0,0.236,0.234,0.944,0,1.215c-0.236,0.27-0.438,1.111-0.674,1.313
	c-0.236,0.203-0.136,1.113-0.136,1.113l0.066,0.539l0.643,0.741l-0.136,0.978l-0.404,0.539l-0.876,0.067c0,0-0.54-0.236-0.674-0.236
	c-0.135,0-0.843,0.033-0.843,0.033l-0.773,0.068l-0.508,0.271l-0.742,0.638l-0.64,0.676l-0.876,0.842l-0.841,0.337l-1.484,0.406
	l-0.943,0.808l-0.438,1.009l-0.101,0.677c0,0-0.201,0.841-0.236,0.976c-0.032,0.136-0.54,0.877-0.607,0.979
	c-0.066,0.1-0.403,1.18-0.403,1.279c0,0.102,0.068,1.214,0.068,1.214l0.235,0.54c0,0,0.235,0.538,0.136,0.639
	c-0.103,0.102-0.067,1.449-0.067,1.449l-0.405,0.539c0,0-0.572-0.201-0.708-0.234c-0.135-0.033-0.606-0.338-0.606-0.338
	s-0.305-0.876-0.337-1.078s-0.066-0.977-0.202-1.146c-0.136-0.168-0.438-0.371-0.606-0.608c-0.169-0.235-0.64-0.773-0.64-0.875
	s0.067-0.773,0.067-0.875c0-0.104,0.403-0.944,0.403-0.944s0.742-0.304,0.876-0.37c0.134-0.068,0.338-1.012,0.338-1.012v-0.876
	c0,0-0.102-0.135-0.338-0.405c-0.236-0.27-1.753-0.133-1.753-0.133l-0.807-0.506l-0.844-1.079c0,0-0.437-0.673-0.404-0.81
	c0.034-0.135,0.337-1.414,0.337-1.414l0.169-3.202l-0.102-1.077l-0.337-0.709c0,0-1.55-1.011-1.685-1.011s-0.943-0.202-0.943-0.202
	l-0.202-0.439l1.011-1.178l1.214-0.606l0.775-0.675l0.808-1.279l0.978-1.585l0.809-1.145l0.708-1.113l0.168-0.673l0.202-0.674
	l0.135-0.607c0,0,0.169-0.438,0.236-0.539c0.067-0.101,0.473-0.842,0.473-0.842s0.235-1.012,0.235-1.112
	c0-0.102,0.167-0.843,0.167-0.943c0-0.102,0.338-1.181,0.338-1.181L135.299,67.389z"/>
<path opacity="0.6" fill="#DB6714" d="M134.12,105.67l0.067-1.079l0.471-1.01l0.742-0.405l0.472-0.471l0.606-0.676l0.606,0.137
	l0.406,0.604l0.471,0.54l0.607,0.202l0.809,0.405l0.537-0.068l0.81-0.471l0.608-0.27h1.078l0.402-0.473l0.945-0.809l0.605-1.01
	l0.202-0.541v-0.74l-0.134-0.271l-0.068-0.74l0.337-0.471h0.674l0.405,0.27c0,0,0.673-0.067,0.944,0
	c0.269,0.066,0.471,0.404,0.471,0.404h0.942l0.742-0.203l0.943-0.404l1.146-0.27l0.876-0.338l0.54-0.875l0.605-0.404l0.875-0.403
	l0.54,0.269l0.135,0.405l0.135,0.605l0.135,0.944l0.539,0.471l0.676,0.137l1.212-0.811l0.74-0.741l0.742-0.202l0.539-0.809
	l0.472-0.539l0.539-0.203h0.472l0.472,0.203l0.675,0.271l0.54,0.2l0.874,0.607l0.473,0.404l0.538,0.404l0.541,0.404l0.27,0.943
	l-0.066,0.607l0.135,0.471l0.604,0.338v0.337l-0.068,2.089l-0.536,0.269l-0.54,0.271v0.742l0.133,0.538l0.339,0.674l0.471,0.742
	l0.742,0.674l0.674,0.337l-0.338,1.011l-1.011,1.215l-0.877,1.01l-0.738,0.876l-0.069-0.404l-0.606-0.405l-0.74-0.066l-0.676,0.202
	c0,0-0.269,0.404-0.269,0.606s0.066,0.605,0.066,0.605v0.81l-0.338,0.674l-0.471,0.877l0.135,1.279l0.135,0.674l0.201,0.539
	l-0.066,0.607l-0.135,0.406l0.067,1.818l0.134,1.415l-0.066,0.809l0.271,0.539v0.675l-0.136,1.215l-0.338,0.738l-0.134,1.079
	l-0.271,0.944l-0.338,0.605v1.146l0.271,0.2v0.542L159.73,130l-0.876,1.079l-0.472,0.135l-0.676-0.404l-0.335-0.674l-0.135-0.674
	l-0.54-0.403l-0.337-0.607l-0.134-0.676l0.066-0.538l0.607-0.674l0.472-0.876l0.674-0.674l0.403-0.876v-1.011l-1.077-0.81
	l-1.012-0.402l-0.875-0.337h-0.944h-0.943l-0.47-0.271l-0.205-0.539l-0.741-0.741l-0.605-0.338c0,0-0.741-0.136-1.01-0.136
	c-0.271,0-0.743-0.2-0.743-0.2l-1.01-0.337l-0.809-0.675l-0.81-0.405l-0.471-0.2l-1.014-0.068l-0.738,0.135l-0.54,0.203l-0.271-0.54
	l-0.203-0.674l-0.403-0.539l-1.145-0.203l-0.607,0.069l-1.011,0.268l-1.013,0.742l-1.211,0.607l-1.012,0.674l-0.944,0.471
	l-0.673,0.54l0.068-0.943c0,0,0.133-1.012-0.068-1.214c-0.203-0.201-0.473-1.011-0.473-1.011l-0.47-0.74l-0.136-1.349l0.136-0.606
	l0.133-1.146v-1.482l-0.269-0.809l-0.204-1.349l0.34-0.674l0.2-0.877l-0.336-1.076L134.12,105.67z"/>
<path opacity="0.6" fill="#DB6714" d="M151.238,73.657h0.539l0.81,0.27l0.202,0.338l-0.337,0.471l-0.135,0.539l0.068,0.539
	l0.471,0.742l0.336,0.809l0.405,0.74v0.742l0.202,0.809v1.551l0.27,2.359l0.066,1.01l0.137,0.741l0.269,1.349l0.27,0.74l0.203,0.541
	l0.673,0.471l0.203,0.607c0,0-0.133,0.403-0.337,0.471c-0.203,0.068-0.473,0.741-0.473,0.741l0.067,0.944l0.27,0.742l0.136,0.672
	l-0.27,0.81l-1.147,0.675l-1.145,0.876l-0.81,0.74l-0.876,0.944l-0.944,0.54l-0.942,0.067l-0.605,0.402l-0.676,0.203h-0.807
	l-0.54-0.066l-0.809-0.271l-1.01-0.201l-0.54,0.068l-0.337,0.404l-0.474,0.539l-0.066,0.809v0.673l-0.202,0.809l-0.405,0.54
	l-0.537,0.54l-0.742,0.202l-0.741,0.403l-0.741,0.405l-0.744,0.269c0,0-0.268-0.203-0.673-0.269
	c-0.402-0.068-0.402-0.068-0.402-0.068l-0.472-0.607l-0.271-0.471l-0.402-0.27h-0.877l-0.068-1.012l-0.067-0.875v-0.945l-0.2-0.74
	l-0.137-1.078l0.337-0.875l0.404-0.742l0.472-1.079l0.27-1.077l0.203-0.74l0.404-0.406l0.538-0.404l0.608-0.202l0.742-0.271
	l0.874-0.336l0.877-0.809l0.674-0.742l0.606-0.472l0.877-0.134l0.674-0.068l0.742,0.135h0.74l0.81-0.336l0.471-0.877l0.067-0.943
	l-0.203-0.541l-0.335-0.605l0.135-0.875l0.134-0.674l0.27-0.539l0.404-0.54l-0.202-0.674l-0.067-1.011l-0.135-1.213V78.78
	l0.135-0.875l0.404-0.675l0.539-0.944l0.674-0.203l1.416-0.809l0.605-0.808L151.238,73.657z"/>
<path opacity="0.6" fill="#DB6714" d="M153.732,73.724l-0.27,0.606l-0.202,0.539l0.068,0.743l0.067,0.335l0.269,0.473l0.27,0.539
	l0.201,0.404v0.674l0.339,0.674l0.066,0.742v1.078l0.067,0.74l0.067,1.146l0.135,1.146l0.067,1.145l0.136,0.877
	c0,0,0.066,0.404,0.134,0.741c0.068,0.337,0.472,1.077,0.472,1.077l0.674,0.338l0.271,0.471l-0.136,0.811
	c0,0,0.068,0.268-0.135,0.471c-0.202,0.203-0.134,0.674-0.134,0.674l0.741,0.067l0.943-0.067l0.876-0.066h0.74l0.607,0.203
	l0.742,0.471l0.604,0.741l0.54-0.067l0.676-0.674l0.402-0.471l-0.202-0.607l-0.2-0.472V88.35l0.402-0.877l0.135-1.01l0.676-1.147
	l0.941-1.146l0.676-1.145l0.607-1.079l0.539-1.011l0.943-0.606l-1.754-1.55l-1.483-1.146l-0.403-0.605c0,0-0.607-0.404-0.809-0.404
	c-0.202,0-0.877-0.406-0.877-0.406l-0.943-0.674l-1.011-0.674l-1.011-0.539l-1.011-0.538h-1.078h-1.413h-0.677L153.732,73.724z"/>
<polygon opacity="0.6" fill="#DB6714" points="154.204,95.157 154.946,95.764 155.215,96.301 155.283,96.774 155.619,97.313 
	155.619,97.583 155.821,97.919 156.292,97.649 156.697,97.179 157.102,96.505 157.776,96.505 158.18,95.899 158.788,95.358 
	159.663,94.819 160.336,94.617 161.011,94.751 161.751,95.022 162.494,95.157 163.167,95.695 164.045,96.167 164.514,96.774 
	165.256,96.706 165.999,96.167 166.538,95.832 167.143,96.235 167.885,96.706 168.558,96.909 169.367,97.247 170.65,97.179 
	171.727,97.111 171.927,96.706 172.401,95.965 172.874,95.628 173.547,95.425 174.289,95.425 175.03,95.425 175.769,95.425 
	176.04,94.955 176.31,94.213 176.58,93.336 176.986,92.057 176.986,91.113 176.445,90.776 175.636,90.708 175.096,91.044 
	174.625,91.45 174.018,91.787 173.48,92.057 172.604,92.19 171.927,92.19 171.323,92.46 170.583,92.797 170.244,93.27 
	169.772,93.808 168.964,93.875 168.491,93.471 168.288,92.731 168.288,91.989 168.424,91.044 168.491,90.708 168.156,90.574 
	167.549,90.708 166.943,91.113 166.134,91.719 165.527,92.057 164.449,91.989 163.976,91.989 163.37,91.989 162.427,91.989 
	161.551,92.057 160.809,91.989 160.203,91.247 159.459,90.842 158.854,90.842 157.573,90.708 155.821,90.641 155.957,91.18 
	156.025,91.653 156.292,92.393 156.292,92.731 155.957,93.336 155.485,93.875 154.877,94.415 "/>
<path opacity="0.1" fill="#DB6714" d="M30.712,89.09l1.707,1.078c0,0,7.909,2.426,9.706,2.426c0.359,0,0.898,0.451,0.898,0.451
	l1.077,0.717c0,0,10.065,5.482,11.145,5.572c1.078,0.09,1.078-0.357,1.078-0.357l0.629-0.541l0.629-0.629l1.078-0.18l1.257,0.359
	l1.258-0.539h0.81l0.628-0.269l0.271-0.72l1.167-0.27l1.528-0.09l0.358-0.809l0.54-0.359v-0.809l1.169-0.72l0.089-0.81l3.595-0.18
	l0.449,0.9l0.898,0.809l1.168,1.168l1.08-0.09l0.989,0.181h5.93l5.212-0.091l0.897-0.719l0.093-1.797l0.628-1.439l0.181-1.527
	l-0.541-1.257l-0.36-0.899l7.641-15.456l0.359-1.348l0.358-0.718l-1.438,0.358l-1.168-0.809l-1.168-0.987l-2.966-0.271l-0.898-1.348
	c0,0-1.797-2.475-1.977-2.516c-0.27,0.27-0.141-0.717-0.141-0.717l-0.063-1.25l-0.167-1.01l-0.663-0.08H84.56l-1.459,0.023
	l-0.384,0.1l-0.604,0.832l-0.899,1.191l-0.417,0.662c0,0-0.177,0.877-0.19,0.922c-0.012,0.044-0.257,0.348-0.257,0.348l-0.563,0.237
	l-0.965-0.013l-0.696-0.516l-0.439-0.517l-0.596,0.11c0,0-0.504,0.327-0.538,0.35c-0.036,0.021-0.371,0.539-0.371,0.539
	l-0.045,0.897l-0.079,1.372l-0.528,0.1l-0.596,0.012c0,0-0.584-0.324-0.651-0.359c-0.067-0.034-0.403-0.383-0.403-0.383
	s-0.518-0.46-0.573-0.516c-0.057-0.056-0.439-0.551-0.439-0.551s-0.471-0.461-0.494-0.506c-0.021-0.045-0.257-0.438-0.257-0.438
	v-0.337l0.023-0.797l-0.07-1.562c0,0-0.112-0.607-0.122-0.641c-0.011-0.033-0.191-1.057-0.191-1.09s-0.022-1.021-0.022-1.021
	s-0.057-0.832-0.103-0.922c-0.043-0.09-0.37-0.617-0.426-0.695c-0.057-0.079-0.415-0.742-0.415-0.742l-0.406-1
	c0,0-0.259-0.719-0.358-0.865c-0.103-0.146-0.371-0.707-0.394-0.74c-0.022-0.034-0.136-0.281-0.136-0.281l-1.043-0.012l-0.158-0.235
	l-0.326,0.102l-0.325,0.304l-0.82,0.359l-0.169,0.707l-0.562,0.618l-0.584,0.628l-0.797,0.113l-0.642,0.234l-0.516,0.406
	l-0.607,0.459l-0.82,0.877l-0.695,0.169l-0.654,0.146l-0.402-0.291l-0.035-0.406h-0.516l-0.392,0.079l-0.181,0.473l-0.763-0.012
	l-0.945-0.011l-0.303-0.213c0,0-0.235-0.316-0.269-0.35c-0.035-0.033-0.482-0.404-0.482-0.404l-0.383-0.292l-1.472-0.122
	l-0.045-2.137l-0.415-0.65l-0.249-0.371l-0.235-0.236l-0.528,0.405l-0.462,0.313l-0.257,0.483l-0.651,0.394l-0.551-0.695
	l-0.168-0.361l-0.327,0.484l-0.325,0.438l-1.751,0.011l-1.203-0.068L45.764,56c0,0-0.359,0.09-0.394,0.102
	c-0.034,0.011-0.495,0.257-0.495,0.257s-0.157,0.349-0.146,0.383c0.012,0.034,0.091,0.729,0.091,0.729l0.055,0.518
	c0,0,0.112,0.19,0.27,0.204c0.158,0.01,0.673,0.01,0.673,0.01s0.642,0.033,0.697,0.033c0.056,0,0.292,0.191,0.292,0.191
	s0.236,0.189,0.259,0.234c0.022,0.045,0.27,0.449,0.27,0.449l0.102,0.506c0,0,0,0.473,0,0.506c0,0.034-0.114,0.449-0.114,0.449
	h-0.393l-0.695,0.045l-0.181-0.18l-0.595-0.045l-0.528,0.214l-0.696,0.034l0.011,0.628l-0.021,1.954l0.337,0.326
	c0,0,0.403,0.225,0.448,0.271c0.044,0.045,0.315,0.235,0.383,0.292c0.066,0.056,0.336,0.157,0.336,0.157l0.057,0.954l-0.068,0.46
	l0.483,0.646l0.22,0.623l-0.203,2.46v1.131c0,0-0.288,0.874-0.288,1.025c0,0.152-0.386,1.097-0.386,1.097l-0.018,1.129
	c0,0-0.22,0.336-0.235,0.454c-0.017,0.119-0.052,1.517-0.052,1.517s-0.253,0.674-0.271,0.774c-0.016,0.102,0,0.978,0,0.978
	s-0.371,1.13-0.42,1.214c-0.051,0.084-0.371,0.605-0.439,0.623c-0.066,0.018-0.708-0.018-0.791-0.018
	c-0.084,0-0.741-0.234-0.792-0.286c-0.05-0.051-0.354-0.253-0.354-0.253h-0.758l-0.573,0.221l-0.237,0.42l-0.892,0.354l-1.264,0.118
	l-1.146,0.034l-0.674,0.287l-0.775,0.453l-0.538,0.405c0,0-0.842,0.572-0.842,0.622c0,0.053-0.743,0.961-0.809,1.045
	c-0.067,0.086-0.287,0.844-0.287,0.844l-0.118,0.539l-0.37,0.522c0,0-0.304,0.454-0.32,0.505c-0.016,0.05,0.101,0.775,0.101,0.775
	l0.118,0.488l-0.337,0.894l-0.622,0.572c0,0-0.691,0.372-0.691,0.438C31.139,88.4,30.712,89.09,30.712,89.09z"/>
<path opacity="0.1" fill="#DB6714" d="M64.803,46.125c0.135,0,1.416,0,1.416,0l0.607,0.641l0.607,0.471l1.28,0.137l0.876,0.1
	l0.336,0.676l0.743,0.066h0.841l0.337-0.505l0.102-0.743l0.607-0.336l0.841-0.235h1.314l0.574-0.169l0.809-0.572l0.774-0.406
	l0.639-0.301l0.944-0.103l0.672-0.81l0.709-0.91l0.102-0.673l1.482,0.066l0.337,0.675l-0.337,0.574l-0.27,0.537l0.033,0.674
	l0.675,0.102l0.707,0.305l0.472,0.773l0.271,0.607l-0.17,0.607l-0.506,0.504l-0.135,0.641l-0.336,1.111l0.035,0.54l-0.205,0.438
	v1.28l0.034,0.674l0.372,0.507l0.336,0.673l0.034,1.044l0.506,0.305l0.807,0.706l0.44,0.608l1.044,0.672l0.303,0.406l0.067,1.987
	v1.112l-0.471,0.201h-1.483l-1.448-0.032c0,0-0.305,0.337-0.438,0.37s-0.876,0.91-0.876,0.91l-0.337,0.706v0.405l-0.337,0.271
	l-0.269,0.337l-0.336,0.472l-0.068,0.606l-0.203,0.303l-0.505,0.102l-0.303-0.303l-0.304-0.406l-0.708-0.438l-0.539-0.201
	l-0.606,0.135l-0.473,0.438l-0.47,0.336l-0.506,0.641l-0.101,1.686l-0.235,0.202l-0.506-0.337l-0.776-0.943l-0.47-0.539l-0.271-0.27
	l0.405-0.573v-0.64l-0.134-0.371l-0.303-0.506l-0.104-0.64l-0.1-0.843l-0.1-0.708l-0.067-1.144V58.56l-0.337-0.605l-0.405-0.472
	l-0.337-0.573l-0.369-0.776l-0.271-0.674l-0.371-0.842l-0.134-0.371l-0.54-0.471h-0.304l0.034-1.281c0,0-0.54,0-0.639-0.033
	c-0.102-0.033-0.911-0.033-0.911-0.033l-0.438,0.033l-0.706-0.135l-0.238-0.135h-0.303c0,0-0.1-2.73-0.1-2.831
	s0.403-0.573,0.403-0.573l0.238-0.371v-1.01l-0.81-0.54l-0.54-0.169l-0.506-0.168l-0.202-0.27L64.803,46.125z"/>
<path opacity="0.1" fill="#DB6714" d="M86.909,57.988l-0.033,2.562l0.066,1.076c0,0,0.202,1.688,0.202,1.854
	c0,0.169,0.203,0.877,0.203,0.877l0.604,0.437l0.34,0.405l0.167,0.775l0.438,0.573l0.573,0.674l0.54,0.572l0.675,0.067l0.639,0.067
	l0.236,0.102l0.539-0.201l0.473,0.032l0.505,0.337l0.572,0.675l0.707,0.269l0.742,0.438l0.71,0.033l0.368-0.337l0.573-0.101
	l0.642,0.336l-0.067,0.54l-0.068,0.574l-0.337,0.133l-0.337,0.809l-0.203,0.775l-0.506,0.572l-0.74,1.889l-6.301,12.737l0.033,0.507
	l0.471,0.572l0.068,0.539c0,0,0.438,0.404,0.404,0.506c-0.034,0.1,0,0.875,0,0.875l0.404,0.438l0.303,0.438l0.304,0.876l0.439,0.506
	l0.101,0.91l0.033,1.348l0.774,0.573l0.91,0.742l0.608,0.64l0.739,0.639l0.505,0.137l1.416,0.101l1.887,0.203l0.506,0.201
	l4.785,0.202l4.483,0.033l2.964,0.236h2.999l4.078,0.168l1.213,0.034l0.438-1.112l1.01-1.65c0,0,0.742-0.742,0.844-0.809
	c0.101-0.067,0.605-0.674,0.605-0.674l0.372-1.012l0.1-1.044l-0.136-0.708l-0.372-0.404l0.103-1.045l0.405-0.574l0.169-0.773
	L123,88.417c0,0,0.269-0.168,0.438-0.27c0.168-0.1,1.045-0.842,1.045-0.842l0.673-0.404l0.336-0.506l0.541-0.978l0.034-0.909
	l-0.034-0.876l-0.371-0.067l-0.674-0.304l-0.271-0.674l0.843-1.012l2.157-1.854l1.146-0.506l0.845-1.077l1.684-2.697l1.179-1.582
	l0.067-1.112l0.27-0.675l0.438-0.774l0.472-1.111l0.168-1.686l0.337-0.438v-1.078l-0.607-0.371h-1.043l-0.304-0.54
	c0,0-1.045-0.134-1.214-0.2c-0.168-0.068-0.842-0.135-0.842-0.135l-0.979-0.102l-0.874-0.169l-0.574,0.067l-0.404,0.404l-2.09,2.258
	l-1.178,1.449l-0.911,0.505l-0.976,0.035l-0.54-0.338l-0.473,0.034l-0.27,0.404l-0.202,0.404l-0.605-0.236l-0.574-0.471
	l-1.616-0.304c0,0-0.504-0.236-0.607-0.304c-0.103-0.067-0.539-0.674-0.539-0.674l-0.506-1.111l-0.269-0.236h-0.776l-1.044,0.64
	l-0.976,0.472l-1.552,0.304l-0.402-0.405l0.201-0.74l0.876-0.17l-0.067-0.403l-1.01-0.135c0,0-0.54-0.573-0.676-0.64
	c-0.136-0.067-0.639-0.877-0.639-0.877l-0.138-0.842l-0.504-0.641l-1.044-1.449c0,0-0.169-0.877-0.339-1.146
	c-0.167-0.27-0.27-0.808-0.27-1.01c0-0.201-0.438-0.809-0.64-0.979c-0.203-0.168-0.405-0.977-0.538-1.179
	c-0.136-0.201-0.676-0.673-0.676-0.673l-1.043-0.607l-1.078-0.774c0,0-0.81-0.169-0.943-0.27c-0.136-0.103-0.912-0.405-0.978-0.54
	c-0.069-0.135-0.202-1.012-0.202-1.012l-0.102-0.943l-0.404-0.504c0,0-0.742,0-0.844,0c-0.099,0-0.876,0.236-0.876,0.236
	l-0.403,0.303h-0.877l-0.473-0.102l-0.099,0.438l0.032,0.741v0.675l-0.1,0.303h-0.911h-0.572l-1.584-0.135l-0.81,0.066
	c0,0-0.908-0.066-1.077-0.032C92.402,55.358,91.424,56,91.424,56l-0.876,0.337l-0.91,0.438l-1.484,0.505l-0.706,0.505L86.909,57.988
	z"/>
<path opacity="0.1" fill="#DB6714" d="M102.749,53.842l1.008,0.337l0.677,0.136l0.604-0.102l0.271-0.305l0.841-0.032h0.708
	l0.606,0.303l0.641,0.067l0.875-0.033l0.876-0.573c0,0,0.372-0.571,0.474-0.741c0.101-0.169,0.739-1.685,0.739-1.685l0.943-1.618
	l0.877-1.347l0.911-1.112l0.707-0.607l0.608,0.473l0.437,0.537c0,0,0.067,0.71,0.067,0.844c0,0.135,0.033,1.719,0.033,1.719
	l0.169,0.506l0.371,0.572c0,0,0.268,0.305,0.268,0.472c0,0.169,0.137,0.978,0.103,1.078c-0.033,0.103,0.237,1.214,0.237,1.214
	l0.303,0.606l0.64,0.675l0.707,0.539l0.81,0.133l0.403,0.405l0.404,0.675l-0.102,0.808c0,0-0.335,0.136-0.437,0.271
	c-0.102,0.137-0.877,0.909-1.248,1.247c-0.371,0.335-1.01,1.28-1.01,1.28l-0.942,0.775c0,0-0.676,0.471-0.946,0.572
	c-0.267,0.102-0.674,0.506-0.674,0.607c0,0.1-0.436,1.111-0.436,1.111l-0.505,0.708l-0.608,0.774l-0.236,0.942
	c0,0-0.169,0.204-0.371,0.204s-0.74,0-0.74,0s-0.271-0.439-0.372-0.539c-0.101-0.102-0.438-0.709-0.537-1.012
	c-0.101-0.303-0.607-1.112-0.607-1.112s-0.336-0.538-0.506-0.776c-0.168-0.234-0.505-0.908-0.674-1.077
	c-0.167-0.169-0.471-0.573-0.471-0.573s-0.068-0.74-0.103-0.909c-0.033-0.167-0.336-1.18-0.572-1.382
	c-0.237-0.201-0.641-1.313-0.742-1.414c-0.101-0.102-0.304-0.642-0.605-0.742c-0.303-0.101-0.741-0.27-1.011-0.438
	c-0.271-0.169-0.845-0.37-1.013-0.405c-0.166-0.033-0.503-0.438-0.874-0.504c-0.371-0.067-0.574-0.236-0.742-0.371
	c-0.17-0.135-0.642-0.607-0.642-0.843S102.749,53.842,102.749,53.842z"/>
<path opacity="0.1" fill="#DB6714" d="M78.99,113.556c0,0-1.282-0.236-1.484-0.236c-0.202,0-1.381,0.031-1.617,0
	c-0.236-0.033-1.146-0.102-1.146-0.102l-0.809-0.539l-0.371-0.639l-0.505-0.271l-1.247-0.201l-0.808-0.169l-0.474-0.438
	l-0.436-0.538l-0.27-0.506l-0.371-0.236l-0.639,0.27h-0.573l-0.371-0.338l-0.507-0.302l-0.572-0.035l-1.178,0.135l-0.81-0.369
	l-0.675-0.776l-0.942-0.842l-0.54-0.539l-0.506-0.708l-0.369-1.111l0.067-1.516l-0.205-0.709l-0.167-0.876l0.438-0.404l0.034-1.753
	l-0.305-0.64H60.86c0,0-1.348,0.034-1.55,0.034c-0.201,0-1.382,0.304-1.382,0.304l-0.81,0.234l-0.167-0.234l0.269-0.371l0.404-0.439
	c0,0,0.541-0.1,0.641-0.1c0.101,0,0.843,0,0.843,0l1.043-0.034l1.079-0.202h1.246l0.506-0.338l0.472-0.639l0.403-0.439h1.754
	c0,0,0.506-0.033,0.573-0.202c0.065-0.167,0.135-0.774,0.135-0.774l0.605-0.371l0.136-0.775l0.301-0.404l0.574-0.033l0.439-0.809
	l0.438-0.371l0.639,0.034h1.043l0.642,0.505l0.977,0.641l0.639,0.707l0.641,0.676l0.506,0.336l0.472,0.066l0.405-0.1h0.506
	l0.314,0.887l-0.089,0.494l0.134,0.674l0.089,0.629l-0.045,1.123l-0.224,0.811l0.135,1.121l0.089,0.585v0.584l-0.044,0.854
	l0.179,0.225l0.091,0.449l1.214-0.091l1.615,0.045h1.574l0.18,0.54l0.854,0.134l0.493,0.225l-0.088,0.404l-0.495,0.54l-0.044,0.629
	l0.314,0.854l0.494,0.854l0.046,1.661l-0.404,0.449l-0.81,1.169L78.99,113.556z"/>
<path opacity="0.1" fill="#DB6714" d="M125.898,82.622l1.012,0.133l0.808,0.338l1.011,0.404l0.338,0.674l0.335,1.349l-0.134,1.482
	L129.2,88.35l-0.27,0.674l-0.27,0.674l0.067,0.74l0.81,0.539l0.471,0.676l0.606,0.74l1.012,0.473h1.011l0.27,0.742l-0.337,0.605
	l-0.675,0.337l-0.471,0.606l-0.136,0.742l-0.135,0.74l0.337,0.54l0.607,0.808l0.403,0.607l0.136,0.74l0.201,0.607l0.473,0.742
	l0.403,0.336l0.607,0.404l0.742,0.135l0.271,0.404l-0.473,0.337l-0.606,0.674l-0.405,0.607l-0.471,0.808l-0.068,1.012v0.605
	l0.809,0.54c0,0,0.067,0.136,0,0.405c-0.066,0.268,0,1.413,0,1.413l-0.338,0.473v0.809l0.271,0.473l-0.068,0.809l-0.538,0.067
	l-1.618,0.674l-1.146,0.269l-1.35,0.204l-0.739,0.133l-0.135,0.405l-1.013-0.538l-0.673-0.271l-0.606-0.269l-0.676-0.405
	l-0.537-0.54h-0.539l-1.079,0.068l-0.74,0.539l-0.338,0.673l-0.809-0.269l-0.674-0.27l-0.473-0.539l-0.605-1.079
	c0,0,0.134-0.54-0.137-0.54c-0.268,0-1.009,0.54-1.009,0.54l-0.337-1.213v-2.224l0.27-2.426l0.673-1.955l0.607-1.145l0.27-1.214
	l0.136-1.415l0.403-0.809l1.078-1.146l0.54-0.54l0.538-0.808l0.404-0.877l0.27-1.145v-0.809l-0.27-0.944l0.066-1.011l0.271-1.146
	l1.011-0.539l0.943-0.808l0.674-0.741l0.403-1.012l0.271-1.146v-1.011l-0.606-0.741L125.898,82.622z"/>
<path opacity="0.1" fill="#DB6714" d="M118.956,68.536l0.405-0.27l0.537-0.135l0.339,0.135l0.405,0.201l0.472-0.27l0.402-0.404
	l0.473-0.27l0.472,0.203l0.337-0.203l0.606-0.539l0.742-0.067l0.607-0.876l0.537-0.809l0.136-0.674l0.201-0.674l-1.078-0.067
	l-0.74-0.135h-0.944l-0.472,0.067h-0.943l-0.607-0.203l-0.808-0.27l-0.674,0.136l-0.271,0.739l-0.065,0.607l-0.068,0.742
	c0,0,0.134,0.741,0,0.943c-0.135,0.202-0.203,1.078-0.203,1.078l-0.065,0.943L118.956,68.536z"/>
<polygon opacity="0.1" fill="#DB6714" points="121.718,62.874 122.393,62.403 122.121,61.795 121.585,61.863 121.178,62.538 "/>
<path opacity="0.1" fill="#DB6714" d="M121.114,60.919l-0.338,0.876l-0.068,0.472c0,0-0.404-0.134-0.605-0.134
	c-0.204,0-1.013-0.136-1.013-0.136l0.338-0.607l0.607-0.739L121.114,60.919z"/>
<polygon opacity="0.1" fill="#DB6714" points="117.069,63.345 116.329,64.153 116.193,63.345 116.394,62.469 117.136,62.065 
	117.81,62.065 117.81,62.469 117.542,63.077 "/>
<polygon opacity="0.1" fill="#DB6714" points="115.047,65.434 114.439,66.11 113.901,66.985 113.293,67.322 113.697,66.244 
	114.305,65.167 114.777,64.895 "/>
<polygon opacity="0.1" fill="#DB6714" points="117.474,65.233 117,65.368 116.733,65.704 117.136,65.838 117.542,66.042 
	118.281,65.637 117.81,65.098 "/>
<polygon opacity="0.1" fill="#DB6714" points="117.743,63.885 118.281,63.885 118.35,63.077 117.878,63.278 "/>
<polygon opacity="0.1" fill="#DB6714" points="118.08,67.186 118.013,67.727 117.405,67.727 117.336,67.12 117.405,66.715 
	117.81,66.715 "/>
<g opacity="0.2">
	<line opacity="0.7" fill="none" stroke="#DB6714" stroke-width="0.5" x1="89.923" y1="125.69" x2="62.528" y2="125.69"/>
</g>
<line opacity="0.6" fill="none" stroke="#DB6714" stroke-width="0.5" x1="160.404" y1="48.368" x2="160.404" y2="75.762"/>
<g>
	<path fill="#DB6714" d="M22.698,226.566h2.338v1.043h-2.338v2.689h-1.154v-2.689h-2.355v-1.043h2.355v-2.479h1.154V226.566z"/>
</g>
<g>
	<path fill="#DB6714" d="M181.421,227.692h-3.457v-0.902h3.457V227.692z"/>
</g>
</svg>
