<?xml version="1.0" encoding="utf-8"?>
<!-- Generator: Adobe Illustrator 14.0.0, SVG Export Plug-In . SVG Version: 6.00 Build 43363)  -->
<!DOCTYPE svg PUBLIC "-//W3C//DTD SVG 1.0//EN" "http://www.w3.org/TR/2001/REC-SVG-20010904/DTD/svg10.dtd">
<svg version="1.0" id="Camada_1" xmlns="http://www.w3.org/2000/svg" xmlns:xlink="http://www.w3.org/1999/xlink" x="0px" y="0px"
	 width="219px" height="190px" viewBox="0 0 219 190" enable-background="new 0 0 219 190" xml:space="preserve">
<g>
	<g>
		<g>
			<defs>
				<path id="SVGID_1_" d="M160.124,67.533c1.16,9.678-2.822,26.242-13.449,38.342c0.555,3.631,0.34,2.283,0.34,6.252
					c0,17.238-13.971,31.206-31.207,31.206c-17.232,0-31.205-13.968-31.205-31.206c0-16.998,13.592-30.81,30.5-31.188
					c-6.697-5.332-22.129-14.716-45.166-11.802c-10.543,11.243-17.002,26.36-17.002,42.989c0,34.725,28.15,62.875,62.873,62.875
					c34.725,0,62.873-28.15,62.873-62.875C178.681,91.45,172.263,80.372,160.124,67.533z"/>
			</defs>
			<use xlink:href="#SVGID_1_"  overflow="visible" fill="#043988"/>
			<clipPath id="SVGID_2_">
				<use xlink:href="#SVGID_1_"  overflow="visible"/>
			</clipPath>
			<g clip-path="url(#SVGID_2_)">
				<path opacity="0.26" fill="#587BB7" d="M115.829,165.639c0,2.143-1.736,3.879-3.877,3.879c-2.145,0-3.879-1.736-3.879-3.879
					c0-2.145,1.734-3.88,3.879-3.88C114.093,161.759,115.829,163.494,115.829,165.639z"/>
				<circle opacity="0.26" fill="#587BB7" cx="97.171" cy="167.942" r="3.879"/>
				<circle opacity="0.75" fill="#587BB7" cx="111.952" cy="156.615" r="5.143"/>
				<circle opacity="0.26" fill="#587BB7" cx="101.051" cy="164.064" r="5.144"/>
				<path opacity="0.26" fill="#587BB7" d="M96.005,154.436c0,2.84-2.305,5.143-5.143,5.143c-2.84,0-5.145-2.303-5.145-5.143
					c0-2.844,2.305-5.145,5.145-5.145C93.7,149.291,96.005,151.592,96.005,154.436z"/>
				<path opacity="0.49" fill="#587BB7" d="M90.862,157.842c0,2.844-2.305,5.146-5.145,5.146c-2.842,0-5.145-2.303-5.145-5.146
					c0-2.838,2.303-5.143,5.145-5.143C88.558,152.699,90.862,155.004,90.862,157.842z"/>
				<path opacity="0.49" fill="#587BB7" d="M65.444,132.718c0,2.841-2.305,5.144-5.143,5.144c-2.844,0-5.146-2.303-5.146-5.144
					c0-2.843,2.303-5.146,5.146-5.146C63.14,127.572,65.444,129.875,65.444,132.718z"/>
				<path opacity="0.75" fill="#587BB7" d="M105.729,154.436c0,3.434-2.781,6.219-6.219,6.219c-3.434,0-6.219-2.785-6.219-6.219
					c0-3.438,2.785-6.223,6.219-6.223C102.948,148.213,105.729,150.998,105.729,154.436z"/>
				<path opacity="0.26" fill="#587BB7" d="M111.952,157.842c0,3.438-2.787,6.223-6.223,6.223c-3.434,0-6.219-2.785-6.219-6.223
					c0-3.434,2.785-6.219,6.219-6.219C109.165,151.623,111.952,154.408,111.952,157.842z"/>
				<circle opacity="0.26" fill="#587BB7" cx="97.846" cy="143.071" r="6.219"/>
				<circle opacity="0.49" fill="#587BB7" cx="93.291" cy="162.836" r="6.22"/>
				<circle opacity="0.26" fill="#587BB7" cx="145.57" cy="158.321" r="3.88"/>
				<path opacity="0.26" fill="#587BB7" d="M134.669,160.625c0,2.142-1.734,3.879-3.881,3.879c-2.141,0-3.877-1.737-3.877-3.879
					s1.736-3.879,3.877-3.879C132.935,156.746,134.669,158.483,134.669,160.625z"/>
				<circle opacity="0.75" fill="#587BB7" cx="145.57" cy="149.297" r="5.144"/>
				<circle opacity="0.26" fill="#587BB7" cx="134.669" cy="156.746" r="5.143"/>
				<path opacity="0.26" fill="#587BB7" d="M129.622,147.115c0,2.84-2.301,5.144-5.145,5.144c-2.838,0-5.143-2.304-5.143-5.144
					s2.305-5.144,5.143-5.144C127.321,141.972,129.622,144.275,129.622,147.115z"/>
				<circle opacity="0.26" fill="#587BB7" cx="115.81" cy="148.959" r="5.145"/>
				<path opacity="0.49" fill="#587BB7" d="M124.478,150.525c0,2.842-2.299,5.145-5.141,5.145c-2.844,0-5.146-2.303-5.146-5.145
					c0-2.84,2.303-5.142,5.146-5.142C122.179,145.384,124.478,147.686,124.478,150.525z"/>
				<path opacity="0.49" fill="#587BB7" d="M120.976,148.959c0,2.841-2.307,5.145-5.146,5.145c-2.838,0-5.143-2.304-5.143-5.145
					s2.305-5.145,5.143-5.145C118.669,143.814,120.976,146.118,120.976,148.959z"/>
				<circle opacity="0.75" fill="#587BB7" cx="133.131" cy="147.115" r="6.22"/>
				<path opacity="0.26" fill="#587BB7" d="M145.569,150.525c0,3.438-2.785,6.221-6.219,6.221c-3.438,0-6.219-2.783-6.219-6.221
					c0-3.437,2.781-6.218,6.219-6.218C142.784,144.308,145.569,147.089,145.569,150.525z"/>
				<circle opacity="0.49" fill="#587BB7" cx="126.911" cy="155.518" r="6.221"/>
				<circle opacity="0.49" fill="#587BB7" cx="108.073" cy="149.291" r="6.221"/>
				<circle opacity="0.49" fill="#587BB7" cx="110.663" cy="146.292" r="6.221"/>
				<path opacity="0.26" fill="#587BB7" d="M64.819,136.309c-2.037,0.666-4.229-0.443-4.895-2.479
					c-0.666-2.034,0.443-4.228,2.479-4.896c2.033-0.667,4.225,0.441,4.893,2.479C67.964,133.447,66.856,135.639,64.819,136.309z"/>
				<circle opacity="0.26" fill="#587BB7" cx="54.24" cy="113.474" r="3.879"/>
				<path opacity="0.26" fill="#587BB7" d="M58.024,122.979c-2.035,0.667-4.227-0.441-4.895-2.476
					c-0.668-2.037,0.441-4.229,2.48-4.896c2.031-0.668,4.225,0.442,4.891,2.477C61.169,120.121,60.062,122.313,58.024,122.979z"/>
				<path opacity="0.75" fill="#587BB7" d="M73.786,134.699c-2.697,0.884-5.604-0.59-6.49-3.287
					c-0.883-2.698,0.588-5.604,3.287-6.491c2.699-0.886,5.604,0.585,6.486,3.287C77.956,130.905,76.487,133.813,73.786,134.699z"/>
				<circle opacity="0.26" fill="#587BB7" cx="61.71" cy="121.771" r="5.144"/>
				<path opacity="0.26" fill="#587BB7" d="M69.29,113.975c-2.701,0.888-5.605-0.586-6.492-3.283
					c-0.883-2.698,0.586-5.605,3.287-6.488c2.701-0.889,5.605,0.584,6.488,3.284C73.46,110.185,71.987,113.092,69.29,113.975z"/>
				<path opacity="0.49" fill="#587BB7" d="M64.448,110.15c-2.701,0.887-5.605-0.586-6.492-3.285
					c-0.883-2.698,0.586-5.605,3.287-6.49c2.697-0.885,5.604,0.586,6.49,3.287C68.618,106.359,67.146,109.267,64.448,110.15z"/>
				<path opacity="0.26" fill="#587BB7" d="M71.019,130.192c-3.268,1.069-6.779-0.709-7.848-3.974
					c-1.074-3.262,0.707-6.777,3.969-7.847c3.266-1.069,6.779,0.707,7.85,3.971C76.06,125.608,74.282,129.121,71.019,130.192z"/>
				<circle opacity="0.49" fill="#587BB7" cx="60.463" cy="114.015" r="6.22"/>
				<path opacity="0.26" fill="#587BB7" d="M75.452,152.646c-2.037,0.664-4.229-0.443-4.896-2.479s0.443-4.225,2.479-4.896
					c2.037-0.667,4.229,0.443,4.896,2.479S77.487,151.976,75.452,152.646z"/>
				<path opacity="0.26" fill="#587BB7" d="M80.739,156.322c-2.697,0.887-5.605-0.585-6.488-3.283
					c-0.887-2.701,0.586-5.604,3.283-6.489c2.701-0.884,5.605,0.584,6.488,3.283C84.909,152.533,83.44,155.439,80.739,156.322z"/>
				<circle opacity="0.26" fill="#587BB7" cx="73.147" cy="117.353" r="5.144"/>
				<path opacity="0.26" fill="#587BB7" d="M86.716,143.642c-2.699,0.888-5.604-0.585-6.488-3.284
					c-0.887-2.699,0.586-5.607,3.283-6.492c2.701-0.885,5.605,0.588,6.492,3.286C90.886,139.85,89.417,142.758,86.716,143.642z"/>
				<circle opacity="0.26" fill="#587BB7" cx="90.516" cy="135.058" r="5.144"/>
				<circle opacity="0.26" fill="#587BB7" cx="86.198" cy="128.89" r="5.143"/>
				<path opacity="0.49" fill="#587BB7" d="M81.874,139.817c-2.699,0.884-5.605-0.588-6.492-3.286
					c-0.883-2.699,0.59-5.605,3.287-6.489s5.605,0.587,6.49,3.283C86.044,136.025,84.571,138.932,81.874,139.817z"/>
				<path opacity="0.75" fill="#587BB7" d="M89.747,152.884c-3.266,1.07-6.779-0.708-7.848-3.972
					c-1.07-3.262,0.707-6.777,3.973-7.846c3.264-1.072,6.779,0.707,7.846,3.971C94.79,148.3,93.011,151.816,89.747,152.884z"/>
				<circle opacity="0.49" fill="#587BB7" cx="77.889" cy="143.681" r="6.22"/>
				<circle opacity="0.49" fill="#587BB7" cx="69.8" cy="138.755" r="6.221"/>
				<path opacity="0.49" fill="#587BB7" d="M66.778,146.112c-3.264,1.071-6.777-0.708-7.846-3.971
					c-1.07-3.267,0.707-6.779,3.971-7.85c3.266-1.068,6.779,0.709,7.848,3.972C71.821,141.529,70.044,145.042,66.778,146.112z"/>
				<path opacity="0.49" fill="#587BB7" d="M59.624,130.574c-3.264,1.07-6.775-0.707-7.848-3.97c-1.07-3.267,0.709-6.78,3.973-7.851
					c3.266-1.07,6.779,0.709,7.846,3.972C64.667,125.99,62.888,129.504,59.624,130.574z"/>
				<circle opacity="0.26" fill="#587BB7" cx="162.63" cy="128.838" r="3.88"/>
				<circle opacity="0.26" fill="#587BB7" cx="164.935" cy="143.617" r="3.879"/>
				<circle opacity="0.75" fill="#587BB7" cx="153.606" cy="128.837" r="5.144"/>
				<circle opacity="0.26" fill="#587BB7" cx="161.058" cy="139.74" r="5.144"/>
				<circle opacity="0.26" fill="#587BB7" cx="151.427" cy="149.929" r="5.146"/>
				<path opacity="0.49" fill="#587BB7" d="M154.839,149.928c2.84,0,5.143,2.303,5.143,5.146c0,2.838-2.303,5.143-5.143,5.143
					c-2.842,0-5.146-2.305-5.146-5.143C149.692,152.23,151.997,149.928,154.839,149.928z"/>
				<circle opacity="0.26" fill="#587BB7" cx="141.017" cy="166.564" r="3.879"/>
				<path opacity="0.26" fill="#587BB7" d="M146.876,153.029c2.84,0,5.143,2.303,5.143,5.143c0,2.842-2.303,5.145-5.143,5.145
					c-2.844,0-5.146-2.303-5.146-5.145C141.729,155.332,144.032,153.029,146.876,153.029z"/>
				<circle opacity="0.49" fill="#587BB7" cx="150.284" cy="163.316" r="5.145"/>
				<circle opacity="0.75" fill="#587BB7" cx="151.427" cy="141.277" r="6.219"/>
				<path opacity="0.26" fill="#587BB7" d="M154.839,128.838c3.434,0,6.217,2.784,6.217,6.221c0,3.434-2.783,6.219-6.217,6.219
					c-3.438,0-6.223-2.785-6.223-6.219C148.616,131.622,151.401,128.838,154.839,128.838z"/>
				<path opacity="0.49" fill="#587BB7" d="M159.829,141.277c3.434,0,6.219,2.783,6.219,6.219s-2.785,6.221-6.219,6.221
					c-3.438,0-6.223-2.785-6.223-6.221S156.392,141.277,159.829,141.277z"/>
				<circle opacity="0.26" fill="#587BB7" cx="123.175" cy="171.066" r="3.881"/>
				<path opacity="0.26" fill="#587BB7" d="M112.274,173.371c0,2.143-1.738,3.881-3.877,3.881c-2.145,0-3.883-1.738-3.883-3.881
					c0-2.141,1.738-3.879,3.883-3.879C110.536,169.492,112.274,171.23,112.274,173.371z"/>
				<path opacity="0.26" fill="#587BB7" d="M94.394,141.277c0,2.143-1.736,3.879-3.877,3.879c-2.145,0-3.879-1.736-3.879-3.879
					c0-2.141,1.734-3.882,3.879-3.882C92.657,137.396,94.394,139.137,94.394,141.277z"/>
				<circle opacity="0.75" fill="#587BB7" cx="123.176" cy="162.045" r="5.144"/>
				<circle opacity="0.26" fill="#587BB7" cx="112.273" cy="169.492" r="5.144"/>
				<path opacity="0.26" fill="#587BB7" d="M123.175,163.273c0,3.436-2.785,6.219-6.219,6.219s-6.221-2.783-6.221-6.219
					c0-3.438,2.787-6.219,6.221-6.219S123.175,159.836,123.175,163.273z"/>
				<path opacity="0.26" fill="#587BB7" d="M123.638,158.321c0,3.433-2.783,6.218-6.221,6.218c-3.434,0-6.219-2.785-6.219-6.218
					c0-3.438,2.785-6.221,6.219-6.221C120.854,152.101,123.638,154.884,123.638,158.321z"/>
				<path opacity="0.26" fill="#587BB7" d="M122.052,171.066c0,3.438-2.787,6.219-6.223,6.219c-3.434,0-6.219-2.781-6.219-6.219
					c0-3.433,2.785-6.219,6.219-6.219C119.265,164.848,122.052,167.634,122.052,171.066z"/>
				<path opacity="0.26" fill="#587BB7" d="M130.698,171.066c0,3.438-2.783,6.219-6.219,6.219s-6.219-2.781-6.219-6.219
					c0-3.433,2.783-6.219,6.219-6.219S130.698,167.634,130.698,171.066z"/>
				<circle opacity="0.26" fill="#587BB7" cx="137.14" cy="167.942" r="6.221"/>
				<circle opacity="0.49" fill="#587BB7" cx="104.516" cy="168.264" r="6.22"/>
				<circle opacity="0.26" fill="#587BB7" cx="129.032" cy="162.676" r="5.145"/>
				<path opacity="0.49" fill="#587BB7" d="M132.44,162.675c2.84,0,5.145,2.302,5.145,5.142c0,2.844-2.305,5.146-5.145,5.146
					s-5.143-2.303-5.143-5.146C127.298,164.977,129.601,162.675,132.44,162.675z"/>
				<circle opacity="0.49" fill="#587BB7" cx="143.653" cy="164.064" r="5.144"/>
				<circle opacity="0.49" fill="#587BB7" cx="137.433" cy="160.245" r="6.22"/>
				<circle opacity="0.49" fill="#587BB7" cx="87.274" cy="164.542" r="6.22"/>
				<circle opacity="0.49" fill="#587BB7" cx="94.687" cy="169.207" r="6.219"/>
				<path opacity="0.49" fill="#587BB7" d="M67.491,141.993c3.434,0,6.219,2.786,6.219,6.22s-2.785,6.223-6.219,6.223
					c-3.438,0-6.219-2.789-6.219-6.223S64.054,141.993,67.491,141.993z"/>
				<path opacity="0.49" fill="#587BB7" d="M74.808,148.852c3.434,0,6.219,2.785,6.219,6.223c0,3.434-2.785,6.218-6.219,6.218
					c-3.438,0-6.223-2.784-6.223-6.218C68.585,151.637,71.37,148.852,74.808,148.852z"/>
				<path opacity="0.49" fill="#587BB7" d="M78.294,153.996c3.438,0,6.219,2.785,6.219,6.221c0,3.434-2.781,6.219-6.219,6.219
					s-6.219-2.785-6.219-6.219C72.075,156.781,74.856,153.996,78.294,153.996z"/>
				<circle opacity="0.49" fill="#587BB7" cx="117.417" cy="146.424" r="6.22"/>
				<path opacity="0.49" fill="#587BB7" d="M141.729,132.533c3.434,0,6.219,2.788,6.219,6.221c0,3.435-2.785,6.221-6.219,6.221
					c-3.438,0-6.219-2.786-6.219-6.221C135.511,135.321,138.292,132.533,141.729,132.533z"/>
				<path opacity="0.26" fill="#587BB7" d="M168.079,118.619c2.139-0.036,3.906,1.67,3.945,3.813
					c0.035,2.141-1.67,3.908-3.811,3.944c-2.145,0.037-3.912-1.669-3.945-3.812C164.228,120.424,165.935,118.656,168.079,118.619z"
					/>
				<circle opacity="0.75" fill="#587BB7" cx="161.432" cy="123.173" r="5.145"/>
				<circle opacity="0.26" fill="#587BB7" cx="165.31" cy="85.721" r="3.879"/>
				<path opacity="0.26" fill="#587BB7" d="M167.802,96.58c2.145-0.037,3.908,1.67,3.945,3.812s-1.67,3.908-3.811,3.946
					c-2.145,0.037-3.91-1.67-3.945-3.812C163.954,98.385,165.661,96.617,167.802,96.58z"/>
				<path opacity="0.75" fill="#587BB7" d="M156.198,80.734c2.842-0.051,5.184,2.213,5.23,5.053
					c0.053,2.842-2.211,5.184-5.053,5.233c-2.84,0.047-5.182-2.216-5.232-5.054C151.095,83.125,153.358,80.781,156.198,80.734z"/>
				<path opacity="0.26" fill="#587BB7" d="M163.835,91.506c2.842-0.049,5.182,2.213,5.232,5.053
					c0.049,2.842-2.215,5.184-5.057,5.233c-2.84,0.047-5.182-2.216-5.23-5.056S160.995,91.553,163.835,91.506z"/>
				<circle opacity="0.26" fill="#587BB7" cx="154.47" cy="107.002" r="5.144"/>
				<circle opacity="0.26" fill="#587BB7" cx="156.464" cy="115.64" r="5.144"/>
				<circle opacity="0.49" fill="#587BB7" cx="157.97" cy="112.086" r="5.144"/>
				<path opacity="0.49" fill="#587BB7" d="M156.374,110.475c2.84-0.049,5.182,2.213,5.232,5.055
					c0.051,2.839-2.213,5.182-5.055,5.23c-2.84,0.053-5.182-2.214-5.232-5.053C151.271,112.867,153.532,110.523,156.374,110.475z"/>
				<path opacity="0.75" fill="#587BB7" d="M154.214,92.134c3.436-0.06,6.266,2.677,6.326,6.11c0.059,3.436-2.676,6.268-6.109,6.327
					c-3.438,0.059-6.268-2.676-6.328-6.11C148.044,95.023,150.78,92.193,154.214,92.134z"/>
				<path opacity="0.26" fill="#587BB7" d="M157.517,85.857c3.434-0.062,6.268,2.676,6.326,6.109
					c0.061,3.435-2.676,6.267-6.111,6.325c-3.434,0.062-6.266-2.675-6.326-6.108C151.347,88.748,154.081,85.913,157.517,85.857z"/>
				<path opacity="0.49" fill="#587BB7" d="M162.722,98.208c3.434-0.06,6.268,2.677,6.328,6.11c0.057,3.436-2.68,6.268-6.111,6.327
					c-3.438,0.06-6.27-2.677-6.33-6.11C156.55,101.1,159.284,98.267,162.722,98.208z"/>
				<path opacity="0.49" fill="#587BB7" d="M146.177,124.668c3.432-0.06,6.266,2.678,6.324,6.111
					c0.061,3.434-2.676,6.267-6.111,6.324c-3.434,0.061-6.266-2.674-6.324-6.111C140.005,127.559,142.739,124.726,146.177,124.668z"
					/>
				<circle opacity="0.26" fill="#587BB7" cx="154.323" cy="64.978" r="3.879"/>
				<circle opacity="0.26" fill="#587BB7" cx="166.663" cy="79.013" r="3.879"/>
				<path opacity="0.26" fill="#587BB7" d="M142.085,106.696c-0.047-2.842,2.217-5.184,5.057-5.232
					c2.838-0.048,5.184,2.214,5.23,5.053c0.051,2.842-2.213,5.183-5.053,5.233C144.478,111.8,142.136,109.535,142.085,106.696z"/>
				<circle opacity="0.26" fill="#587BB7" cx="156.817" cy="80.01" r="5.143"/>
				<path opacity="0.49" fill="#587BB7" d="M156.755,76.6c-0.047-2.838,2.217-5.182,5.057-5.23c2.842-0.049,5.184,2.213,5.234,5.053
					c0.047,2.841-2.217,5.184-5.057,5.232C159.151,81.704,156.81,79.441,156.755,76.6z"/>
				<circle opacity="0.49" fill="#587BB7" cx="170.224" cy="85.966" r="5.143"/>
				<path opacity="0.26" fill="#587BB7" d="M173.565,86.251c2.141-0.036,3.908,1.67,3.945,3.812c0.037,2.143-1.67,3.909-3.811,3.949
					c-2.145,0.034-3.91-1.673-3.947-3.814C169.716,88.055,171.423,86.289,173.565,86.251z"/>
				<circle opacity="0.26" fill="#587BB7" cx="165.139" cy="84.42" r="5.144"/>
				<path opacity="0.49" fill="#587BB7" d="M170.224,110.496c-0.049-2.84,2.215-5.183,5.053-5.232
					c2.844-0.047,5.186,2.216,5.232,5.055c0.051,2.842-2.213,5.184-5.053,5.234C172.618,115.6,170.272,113.338,170.224,110.496z"/>
				<circle opacity="0.75" fill="#587BB7" cx="152.502" cy="93.986" r="6.219"/>
				<path opacity="0.49" fill="#587BB7" d="M150.069,72.534c-0.061-3.437,2.678-6.271,6.109-6.326
					c3.436-0.062,6.268,2.676,6.326,6.109c0.061,3.437-2.676,6.267-6.109,6.327C152.96,78.703,150.128,75.968,150.069,72.534z"/>
				<path opacity="0.26" fill="#587BB7" d="M160.757,151.192c2.143-0.036,3.91,1.67,3.945,3.812c0.037,2.142-1.67,3.909-3.809,3.946
					c-2.145,0.037-3.912-1.669-3.945-3.812C156.909,152.998,158.616,151.23,160.757,151.192z"/>
				<path opacity="0.75" fill="#587BB7" d="M169.331,102.905c2.838-0.051,5.184,2.212,5.234,5.054
					c0.047,2.841-2.217,5.183-5.057,5.232c-2.842,0.049-5.184-2.216-5.23-5.053C164.228,105.299,166.491,102.954,169.331,102.905z"
					/>
				<circle opacity="0.26" fill="#587BB7" cx="168.146" cy="130.504" r="5.143"/>
				<path opacity="0.26" fill="#587BB7" d="M173.524,120.16c3.436-0.061,6.268,2.676,6.326,6.11
					c0.061,3.435-2.678,6.265-6.111,6.325c-3.438,0.059-6.268-2.679-6.328-6.111C167.353,123.05,170.089,120.219,173.524,120.16z"/>
				<circle opacity="0.26" fill="#587BB7" cx="165.796" cy="113.87" r="6.22"/>
				<path opacity="0.26" fill="#587BB7" d="M166.937,130.631c3.434-0.06,6.27,2.678,6.326,6.111
					c0.063,3.434-2.676,6.267-6.109,6.328c-3.436,0.057-6.268-2.68-6.324-6.112C160.769,133.521,163.503,130.689,166.937,130.631z"
					/>
				<path opacity="0.26" fill="#587BB7" d="M172.091,126.498c3.438-0.06,6.268,2.677,6.326,6.11
					c0.061,3.435-2.676,6.267-6.109,6.329c-3.438,0.057-6.268-2.679-6.328-6.113C165.919,129.391,168.657,126.559,172.091,126.498z"
					/>
				<path opacity="0.26" fill="#587BB7" d="M174.97,87.767c3.434-0.059,6.266,2.676,6.326,6.112
					c0.057,3.432-2.678,6.268-6.111,6.325c-3.438,0.06-6.27-2.677-6.328-6.111C168.798,90.659,171.534,87.826,174.97,87.767z"/>
				<path opacity="0.26" fill="#587BB7" d="M164.806,102.271c-0.047-2.841,2.215-5.183,5.057-5.229
					c2.84-0.051,5.182,2.211,5.229,5.052c0.051,2.841-2.213,5.183-5.053,5.232C167.198,107.373,164.854,105.111,164.806,102.271z"/>
				<path opacity="0.49" fill="#587BB7" d="M169.89,118.413c-0.049-2.839,2.215-5.181,5.055-5.231
					c2.838-0.049,5.182,2.214,5.232,5.053c0.049,2.842-2.215,5.183-5.053,5.232C172.282,123.517,169.938,121.255,169.89,118.413z"/>
				<path opacity="0.49" fill="#587BB7" d="M161.366,92.367c-0.047-2.841,2.215-5.184,5.057-5.232
					c2.838-0.047,5.182,2.214,5.229,5.054c0.051,2.842-2.211,5.183-5.053,5.232C163.759,97.472,161.417,95.209,161.366,92.367z"/>
				<circle opacity="0.49" fill="#587BB7" cx="175.033" cy="102.652" r="6.221"/>
				<path opacity="0.49" fill="#587BB7" d="M145.454,121.563c-0.061-3.435,2.676-6.268,6.111-6.326
					c3.434-0.058,6.266,2.675,6.326,6.112c0.061,3.435-2.676,6.266-6.113,6.325C148.347,127.734,145.515,124.998,145.454,121.563z"
					/>
				<path opacity="0.49" fill="#587BB7" d="M143.474,113.046c-0.059-3.434,2.676-6.267,6.113-6.327
					c3.434-0.061,6.268,2.677,6.324,6.11c0.061,3.438-2.676,6.271-6.111,6.329C146.366,119.217,143.534,116.479,143.474,113.046z"/>
				<circle opacity="0.26" fill="#587BB7" cx="81.237" cy="73.311" r="3.879"/>
				<circle opacity="0.26" fill="#587BB7" cx="59.464" cy="89.846" r="3.879"/>
				<path opacity="0.75" fill="#587BB7" d="M84.718,83.099c-2.154-1.856-2.396-5.104-0.541-7.256
					c1.852-2.153,5.102-2.396,7.252-0.54c2.156,1.854,2.395,5.102,0.541,7.255C90.116,84.709,86.87,84.951,84.718,83.099z"/>
				<circle opacity="0.26" fill="#587BB7" cx="89.545" cy="66.079" r="5.143"/>
				<circle opacity="0.26" fill="#587BB7" cx="60.3" cy="85.031" r="5.143"/>
				<circle opacity="0.49" fill="#587BB7" cx="81.95" cy="106.237" r="5.144"/>
				<path opacity="0.75" fill="#587BB7" d="M93.788,75.909c-2.607-2.241-2.896-6.167-0.656-8.771c2.24-2.604,6.17-2.896,8.771-0.653
					c2.604,2.241,2.896,6.168,0.654,8.771C100.315,77.858,96.388,78.151,93.788,75.909z"/>
				<path opacity="0.26" fill="#587BB7" d="M87.144,78.398c-2.605-2.243-2.896-6.17-0.654-8.773c2.238-2.602,6.168-2.893,8.77-0.654
					c2.604,2.242,2.896,6.17,0.656,8.771C93.671,80.348,89.743,80.639,87.144,78.398z"/>
				<path opacity="0.49" fill="#587BB7" d="M65.739,87.755c-2.604-2.241-2.896-6.169-0.654-8.771
					c2.242-2.604,6.17-2.897,8.773-0.653c2.604,2.241,2.896,6.17,0.65,8.771C72.271,89.704,68.343,89.997,65.739,87.755z"/>
				<circle opacity="0.26" fill="#587BB7" cx="64.842" cy="103.559" r="3.88"/>
				<path opacity="0.26" fill="#587BB7" d="M55.591,97.475c-1.625-1.399-1.807-3.848-0.408-5.473
					c1.396-1.622,3.848-1.805,5.469-0.406c1.625,1.397,1.807,3.85,0.406,5.471C59.663,98.688,57.212,98.872,55.591,97.475z"/>
				<circle opacity="0.26" fill="#587BB7" cx="72.74" cy="90.856" r="3.878"/>
				<circle opacity="0.75" fill="#587BB7" cx="71.678" cy="109.448" r="5.144"/>
				<path opacity="0.26" fill="#587BB7" d="M69.792,100.224c-2.152-1.853-2.396-5.102-0.541-7.253
					c1.854-2.154,5.104-2.396,7.256-0.543c2.152,1.855,2.391,5.105,0.541,7.256C75.192,101.834,71.946,102.078,69.792,100.224z"/>
				<circle opacity="0.26" fill="#587BB7" cx="87.097" cy="94.891" r="5.144"/>
				<circle opacity="0.26" fill="#587BB7" cx="91.356" cy="87.119" r="5.143"/>
				<circle opacity="0.49" fill="#587BB7" cx="87.868" cy="88.768" r="5.143"/>
				<path opacity="0.49" fill="#587BB7" d="M87.985,91.033c-2.152-1.857-2.393-5.102-0.541-7.256
					c1.854-2.152,5.102-2.394,7.256-0.54c2.152,1.854,2.391,5.101,0.541,7.255C93.388,92.645,90.138,92.885,87.985,91.033z"/>
				<circle opacity="0.75" fill="#587BB7" cx="79.138" cy="114.233" r="6.221"/>
				<path opacity="0.26" fill="#587BB7" d="M70.749,108.646c-2.604-2.243-2.896-6.171-0.658-8.771
					c2.246-2.604,6.174-2.898,8.775-0.654c2.602,2.242,2.895,6.17,0.652,8.772C77.278,110.594,73.353,110.888,70.749,108.646z"/>
				<circle opacity="0.49" fill="#587BB7" cx="79.143" cy="91.25" r="6.219"/>
				<path opacity="0.49" fill="#587BB7" d="M92.097,85.752c-2.604-2.239-2.896-6.168-0.654-8.771
					c2.242-2.602,6.17-2.895,8.773-0.652c2.602,2.24,2.895,6.17,0.652,8.771C98.626,87.704,94.7,87.994,92.097,85.752z"/>
				<circle opacity="0.49" fill="#587BB7" cx="96.736" cy="84.961" r="6.22"/>
				<circle opacity="0.75" fill="#587BB7" cx="65.444" cy="78.743" r="5.145"/>
				<circle opacity="0.26" fill="#587BB7" cx="72.167" cy="74.493" r="6.219"/>
				<circle opacity="0.26" fill="#587BB7" cx="84.101" cy="102.357" r="3.88"/>
				<circle opacity="0.26" fill="#587BB7" cx="79.137" cy="99.68" r="5.144"/>
				<circle opacity="0.26" fill="#587BB7" cx="109.407" cy="79.199" r="5.144"/>
				<path opacity="0.49" fill="#587BB7" d="M98.741,75.439c1.088-2.621,4.102-3.863,6.725-2.772
					c2.623,1.092,3.865,4.104,2.773,6.725c-1.09,2.625-4.104,3.866-6.727,2.775C98.892,81.075,97.649,78.064,98.741,75.439z"/>
				<circle opacity="0.75" fill="#587BB7" cx="81.053" cy="84.26" r="6.218"/>
				<circle opacity="0.49" fill="#587BB7" cx="101.853" cy="83.625" r="6.219"/>
				<circle opacity="0.26" fill="#587BB7" cx="76.046" cy="135.727" r="3.879"/>
				<circle opacity="0.26" fill="#587BB7" cx="63.343" cy="127.828" r="3.879"/>
				<circle opacity="0.75" fill="#587BB7" cx="81.935" cy="128.891" r="5.145"/>
				<path opacity="0.75" fill="#587BB7" d="M86.827,123.811c-1.855,2.152-5.102,2.395-7.254,0.541
					c-2.152-1.854-2.395-5.104-0.541-7.253c1.855-2.156,5.102-2.396,7.254-0.541C88.438,118.409,88.681,121.658,86.827,123.811z"/>
				<circle opacity="0.75" fill="#587BB7" cx="57.699" cy="107.794" r="5.144"/>
				<path opacity="0.26" fill="#587BB7" d="M72.71,130.775c-1.857,2.152-5.104,2.396-7.252,0.541
					c-2.152-1.854-2.395-5.102-0.541-7.256c1.854-2.148,5.102-2.391,7.254-0.537C74.321,125.377,74.565,128.623,72.71,130.775z"/>
				<path opacity="0.26" fill="#587BB7" d="M71.276,116.83c-1.857,2.153-5.104,2.395-7.256,0.541
					c-2.15-1.854-2.393-5.104-0.539-7.254c1.852-2.153,5.102-2.396,7.254-0.542C72.888,111.43,73.13,114.676,71.276,116.83z"/>
				<path opacity="0.26" fill="#587BB7" d="M61.601,104.318c-1.854,2.156-5.102,2.398-7.256,0.544
					c-2.152-1.857-2.395-5.104-0.541-7.255c1.855-2.153,5.102-2.395,7.254-0.541C63.212,98.921,63.452,102.167,61.601,104.318z"/>
				<path opacity="0.26" fill="#587BB7" d="M59.032,97.67c-1.619-1.4-1.805-3.85-0.406-5.473c1.4-1.623,3.848-1.806,5.471-0.406
					c1.625,1.396,1.807,3.847,0.408,5.468C63.104,98.884,60.657,99.066,59.032,97.67z"/>
				<circle opacity="0.26" fill="#587BB7" cx="76.419" cy="125.763" r="6.218"/>
				<path opacity="0.26" fill="#587BB7" d="M67.267,81.211c-1.621-1.398-1.807-3.848-0.408-5.471c1.4-1.623,3.848-1.806,5.473-0.407
					c1.621,1.397,1.805,3.847,0.406,5.472C71.339,82.426,68.892,82.609,67.267,81.211z"/>
				<path opacity="0.26" fill="#587BB7" d="M75.165,68.509c-1.621-1.4-1.805-3.851-0.408-5.472c1.4-1.624,3.852-1.807,5.471-0.407
					c1.625,1.396,1.807,3.847,0.41,5.471C79.239,69.722,76.79,69.904,75.165,68.509z"/>
				<path opacity="0.75" fill="#587BB7" d="M73.274,88.059c-2.148-1.854-2.393-5.104-0.537-7.254c1.854-2.154,5.1-2.396,7.254-0.542
					c2.152,1.853,2.395,5.103,0.541,7.255C78.677,89.668,75.431,89.912,73.274,88.059z"/>
				<path opacity="0.26" fill="#587BB7" d="M74.749,74.938c-2.152-1.854-2.395-5.104-0.539-7.256c1.85-2.151,5.1-2.395,7.252-0.54
					s2.395,5.103,0.541,7.255C80.149,76.55,76.901,76.792,74.749,74.938z"/>
				<path opacity="0.26" fill="#587BB7" d="M75.704,83.358c-2.604-2.241-2.896-6.169-0.654-8.771
					c2.242-2.604,6.17-2.896,8.773-0.656c2.602,2.243,2.893,6.169,0.65,8.772C82.235,85.307,78.308,85.6,75.704,83.358z"/>
				<circle opacity="0.49" fill="#587BB7" cx="84.1" cy="65.963" r="6.22"/>
				<path opacity="0.26" fill="#587BB7" d="M76.231,91.542c-1.852,2.153-5.102,2.396-7.252,0.541
					c-2.152-1.854-2.396-5.101-0.545-7.254c1.857-2.154,5.104-2.396,7.256-0.542C77.845,86.142,78.087,89.392,76.231,91.542z"/>
				<circle opacity="0.49" fill="#587BB7" cx="66.212" cy="87.415" r="5.144"/>
				<path opacity="0.49" fill="#587BB7" d="M73.407,100.196c-2.242,2.604-6.17,2.896-8.773,0.653
					c-2.6-2.241-2.896-6.168-0.654-8.771c2.246-2.604,6.17-2.896,8.773-0.653C75.353,93.666,75.649,97.593,73.407,100.196z"/>
			</g>
		</g>
		<g>
			<defs>
				<path id="SVGID_3_" d="M73.702,65.604c27.201-2.187,44.355,14.988,44.355,14.988c11.914,0.377,19.244,8.391,19.244,8.391
					c1.658-27.394-23.484-39.095-23.484-39.095c-25.371-1.767-40.191,14.967-40.191,14.967"/>
			</defs>
			<use xlink:href="#SVGID_3_"  overflow="visible" opacity="0.53" fill="#D5001E"/>
			<clipPath id="SVGID_4_">
				<use xlink:href="#SVGID_3_"  overflow="visible" opacity="0.53"/>
			</clipPath>
			<g clip-path="url(#SVGID_4_)">
				<circle opacity="0.26" fill="#D5001E" cx="115.862" cy="58.401" r="3.879"/>
				<circle opacity="0.26" fill="#D5001E" cx="130.643" cy="56.098" r="3.878"/>
				<path opacity="0.75" fill="#D5001E" d="M110.72,67.425c0-2.839,2.303-5.146,5.145-5.146c2.838,0,5.143,2.307,5.143,5.146
					c0,2.842-2.305,5.146-5.143,5.146C113.022,72.57,110.72,70.267,110.72,67.425z"/>
				<circle opacity="0.26" fill="#D5001E" cx="126.765" cy="59.977" r="5.143"/>
				<circle opacity="0.26" fill="#D5001E" cx="136.953" cy="69.607" r="5.144"/>
				<circle opacity="0.49" fill="#D5001E" cx="142.098" cy="66.196" r="5.144"/>
				<path opacity="0.75" fill="#D5001E" d="M122.083,69.607c0-3.436,2.785-6.221,6.219-6.221c3.438,0,6.219,2.785,6.219,6.221
					c0,3.434-2.781,6.221-6.219,6.221C124.868,75.828,122.083,73.041,122.083,69.607z"/>
				<circle opacity="0.26" fill="#D5001E" cx="122.083" cy="66.196" r="6.219"/>
				<circle opacity="0.26" fill="#D5001E" cx="129.971" cy="80.971" r="6.219"/>
				<circle opacity="0.49" fill="#D5001E" cx="134.522" cy="61.204" r="6.221"/>
				<circle opacity="0.26" fill="#D5001E" cx="82.246" cy="65.721" r="3.88"/>
				<path opacity="0.26" fill="#D5001E" d="M93.146,63.417c0-2.146,1.736-3.88,3.881-3.88c2.141,0,3.877,1.734,3.877,3.88
					c0,2.142-1.736,3.876-3.877,3.876C94.882,67.293,93.146,65.559,93.146,63.417z"/>
				<path opacity="0.75" fill="#D5001E" d="M77.103,74.742c0-2.838,2.303-5.144,5.143-5.144c2.842,0,5.145,2.302,5.145,5.144
					c0,2.844-2.303,5.146-5.145,5.146C79.405,79.889,77.103,77.586,77.103,74.742z"/>
				<circle opacity="0.26" fill="#D5001E" cx="93.146" cy="67.293" r="5.144"/>
				<circle opacity="0.26" fill="#D5001E" cx="103.335" cy="76.924" r="5.143"/>
				<path opacity="0.26" fill="#D5001E" d="M106.864,75.08c0-2.838,2.301-5.145,5.143-5.145c2.838,0,5.143,2.307,5.143,5.145
					c0,2.844-2.305,5.145-5.143,5.145C109.165,80.225,106.864,77.924,106.864,75.08z"/>
				<circle opacity="0.49" fill="#D5001E" cx="108.479" cy="73.514" r="5.145"/>
				<path opacity="0.49" fill="#D5001E" d="M106.841,75.08c0-2.838,2.303-5.145,5.143-5.145c2.842,0,5.145,2.307,5.145,5.145
					c0,2.844-2.303,5.145-5.145,5.145C109.144,80.225,106.841,77.924,106.841,75.08z"/>
				<circle opacity="0.75" fill="#D5001E" cx="94.685" cy="76.924" r="6.219"/>
				<circle opacity="0.26" fill="#D5001E" cx="88.464" cy="73.514" r="6.219"/>
				<path opacity="0.49" fill="#D5001E" d="M94.683,68.521c0-3.434,2.787-6.219,6.221-6.219c3.438,0,6.223,2.785,6.223,6.219
					c0,3.438-2.785,6.221-6.223,6.221C97.47,74.742,94.683,71.959,94.683,68.521z"/>
				<path opacity="0.49" fill="#D5001E" d="M113.524,74.748c0-3.435,2.785-6.218,6.217-6.218c3.436,0,6.221,2.783,6.221,6.218
					c0,3.437-2.785,6.221-6.221,6.221C116.31,80.969,113.524,78.185,113.524,74.748z"/>
				<circle opacity="0.49" fill="#D5001E" cx="117.15" cy="77.748" r="6.22"/>
				<path opacity="0.26" fill="#D5001E" d="M141.099,80.396c2.699-0.883,5.605,0.588,6.49,3.287
					c0.885,2.697-0.584,5.605-3.285,6.491c-2.701,0.884-5.604-0.587-6.49-3.287C136.929,84.189,138.397,81.283,141.099,80.396z"/>
				<circle opacity="0.26" fill="#D5001E" cx="137.301" cy="88.982" r="5.145"/>
				<path opacity="0.75" fill="#D5001E" d="M138.065,71.154c3.266-1.068,6.781,0.709,7.85,3.972c1.072,3.266-0.709,6.78-3.973,7.851
					c-3.266,1.069-6.777-0.71-7.848-3.973C133.026,75.738,134.804,72.226,138.065,71.154z"/>
				<circle opacity="0.26" fill="#D5001E" cx="62.878" cy="80.421" r="3.878"/>
				<path opacity="0.26" fill="#D5001E" d="M66.757,89.443c-2.84,0-5.143-2.301-5.143-5.144c0-2.837,2.303-5.144,5.143-5.144
					c2.842,0,5.145,2.307,5.145,5.144C71.901,87.143,69.599,89.443,66.757,89.443z"/>
				<circle opacity="0.26" fill="#D5001E" cx="76.388" cy="74.113" r="5.145"/>
				<circle opacity="0.49" fill="#D5001E" cx="72.978" cy="68.969" r="5.144"/>
				<path opacity="0.26" fill="#D5001E" d="M82.921,57.475c0-2.141,1.736-3.877,3.877-3.877c2.145,0,3.879,1.736,3.879,3.877
					c0,2.143-1.734,3.88-3.879,3.88C84.657,61.354,82.921,59.617,82.921,57.475z"/>
				<path opacity="0.26" fill="#D5001E" d="M80.94,71.013c-2.838,0-5.145-2.305-5.145-5.147c0-2.839,2.307-5.142,5.145-5.142
					c2.84,0,5.145,2.303,5.145,5.142C86.085,68.708,83.78,71.013,80.94,71.013z"/>
				<path opacity="0.49" fill="#D5001E" d="M77.532,65.865c-2.844,0-5.146-2.302-5.146-5.142c0-2.841,2.303-5.145,5.146-5.145
					c2.838,0,5.141,2.304,5.141,5.145C82.673,63.563,80.37,65.865,77.532,65.865z"/>
				<path opacity="0.75" fill="#D5001E" d="M76.388,88.982c-3.434,0-6.219-2.783-6.219-6.219c0-3.435,2.785-6.221,6.219-6.221
					c3.438,0,6.219,2.786,6.219,6.221C82.606,86.199,79.825,88.982,76.388,88.982z"/>
				<circle opacity="0.49" fill="#D5001E" cx="67.987" cy="76.544" r="6.22"/>
				<circle opacity="0.26" fill="#D5001E" cx="104.64" cy="52.975" r="3.879"/>
				<circle opacity="0.26" fill="#D5001E" cx="119.422" cy="50.668" r="3.88"/>
				<circle opacity="0.26" fill="#D5001E" cx="137.299" cy="82.764" r="3.88"/>
				<circle opacity="0.75" fill="#D5001E" cx="104.64" cy="61.996" r="5.145"/>
				<circle opacity="0.26" fill="#D5001E" cx="115.541" cy="54.546" r="5.144"/>
				<circle opacity="0.26" fill="#D5001E" cx="110.859" cy="60.767" r="6.22"/>
				<circle opacity="0.26" fill="#D5001E" cx="110.397" cy="65.721" r="6.221"/>
				<circle opacity="0.26" fill="#D5001E" cx="111.983" cy="52.972" r="6.219"/>
				<circle opacity="0.26" fill="#D5001E" cx="103.335" cy="52.972" r="6.219"/>
				<circle opacity="0.26" fill="#D5001E" cx="90.678" cy="56.098" r="6.22"/>
				<path opacity="0.49" fill="#D5001E" d="M117.079,55.775c0-3.434,2.785-6.221,6.219-6.221c3.438,0,6.219,2.787,6.219,6.221
					c0,3.438-2.781,6.221-6.219,6.221C119.864,61.996,117.079,59.213,117.079,55.775z"/>
				<path opacity="0.26" fill="#D5001E" d="M98.782,66.508c-2.84,0-5.143-2.304-5.143-5.143c0-2.842,2.303-5.145,5.143-5.145
					c2.844,0,5.145,2.303,5.145,5.145C103.927,64.204,101.626,66.508,98.782,66.508z"/>
				<circle opacity="0.49" fill="#D5001E" cx="95.372" cy="56.221" r="5.145"/>
				<circle opacity="0.49" fill="#D5001E" cx="84.163" cy="59.977" r="5.144"/>
				<path opacity="0.49" fill="#D5001E" d="M90.382,70.016c-3.434,0-6.219-2.786-6.219-6.22s2.785-6.22,6.219-6.22
					c3.438,0,6.219,2.786,6.219,6.22S93.819,70.016,90.382,70.016z"/>
				<path opacity="0.49" fill="#D5001E" d="M140.54,65.721c-3.434,0-6.219-2.787-6.219-6.221s2.785-6.221,6.219-6.221
					c3.438,0,6.223,2.787,6.223,6.221S143.978,65.721,140.54,65.721z"/>
				<path opacity="0.49" fill="#D5001E" d="M133.13,61.053c-3.438,0-6.223-2.786-6.223-6.22c0-3.435,2.785-6.22,6.223-6.22
					c3.434,0,6.219,2.785,6.219,6.22C139.349,58.267,136.563,61.053,133.13,61.053z"/>
				<path opacity="0.49" fill="#D5001E" d="M110.397,83.836c-3.434,0-6.221-2.786-6.221-6.219c0-3.438,2.787-6.219,6.221-6.219
					c3.436,0,6.221,2.781,6.221,6.219C116.618,81.05,113.833,83.836,110.397,83.836z"/>
				<circle opacity="0.49" fill="#D5001E" cx="86.085" cy="85.286" r="6.22"/>
				<path opacity="0.26" fill="#D5001E" d="M67.056,72.848c-2.143,0.037-3.906-1.67-3.943-3.811
					c-0.037-2.145,1.67-3.911,3.809-3.947c2.145-0.035,3.912,1.67,3.945,3.813C70.903,71.045,69.2,72.813,67.056,72.848z"/>
			</g>
		</g>
		<g>
			<defs>
				<path id="SVGID_5_" d="M119.741,49.361c25.963,17.452,19.521,42.015,19.521,42.015c1.922,1.786,1.922,1.786,1.922,1.786
					c10.439-19.107-0.473-38.664-0.473-38.664C126.675,48.667,119.741,49.361,119.741,49.361z"/>
			</defs>
			<clipPath id="SVGID_6_">
				<use xlink:href="#SVGID_5_"  overflow="visible"/>
			</clipPath>
			<g clip-path="url(#SVGID_6_)">
				<path opacity="0.26" fill="#DB6714" d="M142.724,66.925c1.514-1.515,3.971-1.515,5.484,0c1.516,1.515,1.516,3.971,0,5.484
					c-1.514,1.519-3.971,1.519-5.484,0C141.208,70.896,141.208,68.439,142.724,66.925z"/>
				<circle opacity="0.26" fill="#DB6714" cx="157.547" cy="78.49" r="3.88"/>
				<path opacity="0.75" fill="#DB6714" d="M135.448,72.409c2.01-2.008,5.266-2.005,7.275,0c2.008,2.011,2.008,5.269,0,7.275
					c-2.01,2.011-5.266,2.011-7.275,0C133.44,77.678,133.438,74.42,135.448,72.409z"/>
				<circle opacity="0.26" fill="#DB6714" cx="152.061" cy="78.49" r="5.143"/>
				<circle opacity="0.26" fill="#DB6714" cx="152.456" cy="92.503" r="5.144"/>
				<path opacity="0.49" fill="#DB6714" d="M154.866,90.092c2.01-2.009,5.268-2.009,7.275,0c2.01,2.008,2.01,5.267,0,7.275
					c-2.01,2.008-5.268,2.008-7.275,0C152.86,95.358,152.86,92.1,154.866,90.092z"/>
				<circle opacity="0.75" fill="#DB6714" cx="146.339" cy="86.387" r="6.22"/>
				<circle opacity="0.26" fill="#DB6714" cx="144.353" cy="79.577" r="6.22"/>
				<path opacity="0.26" fill="#DB6714" d="M135.56,90.775c2.666-2.167,6.582-1.764,8.75,0.902c2.168,2.662,1.764,6.581-0.902,8.748
					c-2.664,2.168-6.584,1.763-8.75-0.9C132.491,96.859,132.894,92.942,135.56,90.775z"/>
				<circle opacity="0.49" fill="#DB6714" cx="156.679" cy="84.845" r="6.22"/>
				<circle opacity="0.26" fill="#DB6714" cx="116.52" cy="51.07" r="3.88"/>
				<path opacity="0.26" fill="#DB6714" d="M125.858,57.148c1.512-1.515,3.969-1.515,5.484,0c1.518,1.515,1.518,3.973,0,5.488
					c-1.516,1.512-3.973,1.512-5.484,0C124.343,61.119,124.343,58.663,125.858,57.148z"/>
				<circle opacity="0.75" fill="#DB6714" cx="110.14" cy="57.451" r="5.143"/>
				<circle opacity="0.26" fill="#DB6714" cx="123.114" cy="59.892" r="5.143"/>
				<circle opacity="0.26" fill="#DB6714" cx="123.51" cy="73.906" r="5.145"/>
				<circle opacity="0.26" fill="#DB6714" cx="130.944" cy="78.735" r="5.143"/>
				<circle opacity="0.49" fill="#DB6714" cx="129.559" cy="75.132" r="5.143"/>
				<circle opacity="0.49" fill="#DB6714" cx="130.929" cy="78.72" r="5.144"/>
				<path opacity="0.75" fill="#DB6714" d="M112.997,63.392c2.426-2.429,6.367-2.429,8.793,0c2.43,2.427,2.432,6.367,0.002,8.796
					c-2.428,2.43-6.369,2.428-8.799,0C110.567,69.759,110.567,65.82,112.997,63.392z"/>
				<path opacity="0.26" fill="#DB6714" d="M111.007,56.583c2.43-2.429,6.367-2.429,8.797,0c2.43,2.426,2.43,6.367,0,8.793
					c-2.43,2.433-6.367,2.433-8.797,0.003C108.579,62.95,108.579,59.012,111.007,56.583z"/>
				<circle opacity="0.49" fill="#DB6714" cx="127.731" cy="66.248" r="6.22"/>
				<circle opacity="0.49" fill="#DB6714" cx="136.649" cy="83.97" r="6.22"/>
				<path opacity="0.49" fill="#DB6714" d="M128.298,79.859c2.428-2.428,6.367-2.428,8.795,0c2.432,2.428,2.432,6.37,0.002,8.796
					c-2.43,2.433-6.369,2.429-8.797,0C125.87,86.229,125.868,82.289,128.298,79.859z"/>
				<circle opacity="0.26" fill="#DB6714" cx="145.433" cy="107.656" r="5.145"/>
				<circle opacity="0.26" fill="#DB6714" cx="139" cy="106.45" r="5.143"/>
				<path opacity="0.75" fill="#DB6714" d="M152.147,94.387c3.066,1.551,4.295,5.295,2.744,8.357
					c-1.555,3.064-5.293,4.293-8.361,2.74c-3.066-1.551-4.291-5.293-2.738-8.358C145.343,94.063,149.083,92.836,152.147,94.387z"/>
				<circle opacity="0.26" fill="#DB6714" cx="92.43" cy="47.773" r="3.88"/>
				<circle opacity="0.26" fill="#DB6714" cx="92.429" cy="53.259" r="5.143"/>
				<path opacity="0.26" fill="#DB6714" d="M102.806,56.5c-2.008-2.008-2.008-5.264,0-7.274c2.01-2.009,5.268-2.009,7.277,0
					c2.006,2.011,2.006,5.267,0,7.274C108.073,58.508,104.815,58.508,102.806,56.5z"/>
				<circle opacity="0.49" fill="#DB6714" cx="107.669" cy="46.816" r="5.143"/>
				<path opacity="0.26" fill="#DB6714" d="M122.825,45.717c1.516-1.513,3.971-1.516,5.488,0c1.514,1.516,1.514,3.971,0,5.484
					c-1.518,1.518-3.973,1.518-5.488,0C121.31,49.688,121.31,47.232,122.825,45.717z"/>
				<path opacity="0.26" fill="#DB6714" d="M111.854,53.891c-2.008-2.01-2.008-5.268,0-7.275c2.01-2.007,5.268-2.007,7.277,0
					c2.006,2.008,2.006,5.266,0,7.276C117.122,55.9,113.864,55.9,111.854,53.891z"/>
				<circle opacity="0.49" fill="#DB6714" cx="116.718" cy="44.204" r="5.144"/>
				<circle opacity="0.75" fill="#DB6714" cx="100.327" cy="58.981" r="6.22"/>
				<path opacity="0.49" fill="#DB6714" d="M94.386,53.039c-2.43-2.428-2.43-6.365,0-8.795s6.367-2.43,8.797,0
					c2.428,2.43,2.428,6.368,0,8.795C100.753,55.471,96.815,55.471,94.386,53.039z"/>
				<path opacity="0.26" fill="#DB6714" d="M138.626,55.15c1.514-1.517,3.973-1.517,5.484,0c1.516,1.514,1.516,3.969,0,5.486
					c-1.512,1.514-3.971,1.514-5.484,0C137.108,59.119,137.108,56.664,138.626,55.15z"/>
				<circle opacity="0.26" fill="#DB6714" cx="153.45" cy="66.713" r="3.879"/>
				<circle opacity="0.26" fill="#DB6714" cx="143.396" cy="102.051" r="3.879"/>
				<path opacity="0.75" fill="#DB6714" d="M131.351,60.634c2.008-2.008,5.266-2.008,7.275,0c2.008,2.009,2.01,5.267,0,7.276
					s-5.268,2.008-7.275-0.001C129.345,65.9,129.341,62.643,131.351,60.634z"/>
				<path opacity="0.26" fill="#DB6714" d="M144.327,63.078c2.01-2.01,5.266-2.01,7.275,0c2.006,2.008,2.006,5.265,0,7.271
					c-2.01,2.01-5.266,2.01-7.277,0.002C142.317,68.343,142.317,65.086,144.327,63.078z"/>
				<path opacity="0.26" fill="#DB6714" d="M135.858,63.404c2.428-2.43,6.367-2.429,8.797,0c2.426,2.429,2.426,6.366,0,8.795
					c-2.43,2.43-6.369,2.43-8.797,0C133.427,69.773,133.427,65.833,135.858,63.404z"/>
				<path opacity="0.26" fill="#DB6714" d="M132.028,66.58c2.43-2.432,6.367-2.43,8.797,0c2.43,2.428,2.43,6.367,0,8.795
					c-2.43,2.432-6.369,2.432-8.797,0.001C129.601,72.949,129.601,69.008,132.028,66.58z"/>
				<path opacity="0.26" fill="#DB6714" d="M142.161,58.688c2.434-2.429,6.367-2.429,8.801,0c2.428,2.43,2.428,6.367,0,8.796
					c-2.434,2.43-6.371,2.429-8.801,0C139.735,65.057,139.733,61.117,142.161,58.688z"/>
				<path opacity="0.26" fill="#DB6714" d="M136.048,52.572c2.43-2.43,6.371-2.428,8.797,0s2.43,6.367,0,8.797
					c-2.43,2.428-6.367,2.428-8.797,0C133.62,58.941,133.62,55.001,136.048,52.572z"/>
				<path opacity="0.26" fill="#DB6714" d="M124.89,45.83c2.428-2.429,6.367-2.428,8.793,0c2.432,2.43,2.432,6.367,0,8.795
					c-2.426,2.43-6.367,2.43-8.793,0C122.46,52.199,122.46,48.262,124.89,45.83z"/>
				<path opacity="0.49" fill="#DB6714" d="M148.185,68.671c2.426-2.429,6.367-2.429,8.793,0c2.428,2.429,2.428,6.368,0.002,8.796
					c-2.428,2.429-6.369,2.429-8.795,0C145.751,75.039,145.751,71.1,148.185,68.671z"/>
				<circle opacity="0.26" fill="#DB6714" cx="131.293" cy="59.685" r="5.143"/>
				<path opacity="0.49" fill="#DB6714" d="M128.882,57.275c-2.01-2.012-2.01-5.267,0-7.277c2.008-2.006,5.266-2.006,7.275,0
					c2.008,2.011,2.008,5.269,0,7.277C134.147,59.283,130.89,59.283,128.882,57.275z"/>
				<path opacity="0.49" fill="#DB6714" d="M118.298,52.001c-2.008-2.007-2.008-5.264,0-7.272c2.01-2.008,5.268-2.008,7.273,0
					c2.01,2.009,2.01,5.266,0,7.272C123.565,54.013,120.308,54.013,118.298,52.001z"/>
				<circle opacity="0.49" fill="#DB6714" cx="123.633" cy="55.464" r="6.221"/>
				<path opacity="0.49" fill="#DB6714" d="M157.743,92.292c-2.434-2.43-2.43-6.367,0-8.796c2.426-2.429,6.365-2.429,8.795,0
					s2.428,6.369,0,8.796C164.108,94.721,160.169,94.721,157.743,92.292z"/>
				<circle opacity="0.49" fill="#DB6714" cx="160.196" cy="79.352" r="6.22"/>
				<path opacity="0.49" fill="#DB6714" d="M123.618,83.788c-2.432-2.43-2.43-6.367,0-8.796c2.426-2.43,6.367-2.43,8.793,0
					c2.43,2.43,2.43,6.366,0,8.796C129.985,86.215,126.046,86.217,123.618,83.788z"/>
				<path opacity="0.49" fill="#DB6714" d="M101.001,72.02c-2.43-2.431-2.43-6.368,0-8.795c2.428-2.43,6.367-2.43,8.795,0
					c2.434,2.428,2.43,6.367,0,8.795C107.37,74.449,103.429,74.449,101.001,72.02z"/>
				<circle opacity="0.26" fill="#DB6714" cx="103.435" cy="42.582" r="3.879"/>
			</g>
		</g>
		<g>
			<defs>
				<path id="SVGID_7_" d="M145.427,56.695c8.227,27.209-2.666,39.696-2.666,39.696c1.543,2.122,1.543,2.122,1.543,2.122
					c11.895-17.779,5.756-39.063,5.756-39.063C147.202,57.685,145.427,56.695,145.427,56.695z"/>
			</defs>
			<clipPath id="SVGID_8_">
				<use xlink:href="#SVGID_7_"  overflow="visible"/>
			</clipPath>
			<g clip-path="url(#SVGID_8_)">
				<circle opacity="0.26" fill="#DE9D04" cx="156.582" cy="75.413" r="3.879"/>
				<circle opacity="0.26" fill="#DE9D04" cx="168.662" cy="84.236" r="3.88"/>
				<path opacity="0.75" fill="#DE9D04" d="M146.563,78.155c2.008-2.009,5.266-2.009,7.271,0c2.01,2.009,2.01,5.267,0.004,7.276
					c-2.01,2.01-5.268,2.007-7.277,0C144.554,83.424,144.554,80.166,146.563,78.155z"/>
				<path opacity="0.26" fill="#DE9D04" d="M159.538,80.6c2.01-2.01,5.268-2.01,7.275,0c2.01,2.008,2.01,5.264,0,7.273
					c-2.008,2.01-5.266,2.008-7.275,0C157.532,85.863,157.532,82.607,159.538,80.6z"/>
				<circle opacity="0.26" fill="#DE9D04" cx="163.571" cy="98.25" r="5.144"/>
				<path opacity="0.49" fill="#DE9D04" d="M165.985,95.839c2.006-2.01,5.264-2.01,7.271,0c2.01,2.007,2.01,5.266,0.002,7.274
					c-2.01,2.009-5.268,2.008-7.277,0C163.976,101.107,163.976,97.846,165.985,95.839z"/>
				<circle opacity="0.75" fill="#DE9D04" cx="157.454" cy="92.132" r="6.219"/>
				<path opacity="0.26" fill="#DE9D04" d="M151.069,80.928c2.43-2.432,6.367-2.431,8.797,0c2.428,2.426,2.432,6.364,0,8.793
					c-2.43,2.43-6.367,2.43-8.797,0C148.64,87.292,148.64,83.354,151.069,80.928z"/>
				<circle opacity="0.26" fill="#DE9D04" cx="150.598" cy="101.349" r="6.22"/>
				<path opacity="0.49" fill="#DE9D04" d="M163.394,86.191c2.43-2.428,6.367-2.428,8.797,0c2.43,2.43,2.43,6.367,0,8.796
					c-2.43,2.433-6.367,2.433-8.797,0C160.966,92.561,160.966,88.621,163.394,86.191z"/>
				<circle opacity="0.26" fill="#DE9D04" cx="127.635" cy="56.817" r="3.879"/>
				<path opacity="0.26" fill="#DE9D04" d="M136.972,62.896c1.518-1.516,3.973-1.516,5.486,0c1.516,1.515,1.516,3.97,0,5.488
					c-1.514,1.512-3.969,1.512-5.486,0C135.458,66.865,135.458,64.41,136.972,62.896z"/>
				<circle opacity="0.75" fill="#DE9D04" cx="121.255" cy="63.197" r="5.143"/>
				<circle opacity="0.26" fill="#DE9D04" cx="134.229" cy="65.638" r="5.143"/>
				<circle opacity="0.26" fill="#DE9D04" cx="134.624" cy="79.653" r="5.144"/>
				<circle opacity="0.26" fill="#DE9D04" cx="142.06" cy="84.48" r="5.144"/>
				<circle opacity="0.49" fill="#DE9D04" cx="140.674" cy="80.878" r="5.143"/>
				<path opacity="0.49" fill="#DE9D04" d="M138.407,80.828c2.01-2.01,5.264-2.01,7.273,0c2.01,2.008,2.01,5.266,0,7.275
					c-2.01,2.006-5.264,2.006-7.273,0C136.397,86.094,136.397,82.836,138.407,80.828z"/>
				<circle opacity="0.75" fill="#DE9D04" cx="128.509" cy="73.536" r="6.22"/>
				<path opacity="0.26" fill="#DE9D04" d="M122.124,62.326c2.428-2.426,6.367-2.426,8.795,0c2.43,2.429,2.43,6.367,0,8.799
					c-2.43,2.43-6.367,2.43-8.797,0C119.692,68.696,119.692,64.755,122.124,62.326z"/>
				<path opacity="0.49" fill="#DE9D04" d="M134.448,67.593c2.43-2.429,6.367-2.426,8.795,0c2.43,2.433,2.432,6.368,0,8.799
					c-2.428,2.427-6.365,2.427-8.795,0C132.019,73.963,132.019,70.025,134.448,67.593z"/>
				<path opacity="0.49" fill="#DE9D04" d="M143.366,85.317c2.428-2.426,6.369-2.426,8.795,0c2.43,2.43,2.43,6.367,0,8.798
					c-2.426,2.428-6.367,2.428-8.795,0C140.937,91.685,140.937,87.747,143.366,85.317z"/>
				<circle opacity="0.49" fill="#DE9D04" cx="142.763" cy="93.162" r="6.221"/>
				<circle opacity="0.26" fill="#DE9D04" cx="156.547" cy="113.401" r="5.143"/>
				<circle opacity="0.26" fill="#DE9D04" cx="150.114" cy="112.197" r="5.143"/>
				<path opacity="0.75" fill="#DE9D04" d="M163.263,100.134c3.066,1.55,4.293,5.292,2.742,8.358
					c-1.553,3.064-5.293,4.291-8.361,2.74c-3.064-1.555-4.289-5.295-2.738-8.359S160.198,98.583,163.263,100.134z"/>
				<path opacity="0.26" fill="#DE9D04" d="M100.802,56.264c-1.516-1.518-1.516-3.972,0-5.488c1.516-1.516,3.971-1.516,5.484,0
					c1.516,1.517,1.516,3.971,0,5.488C104.772,57.776,102.317,57.776,100.802,56.264z"/>
				<circle opacity="0.26" fill="#DE9D04" cx="103.544" cy="59.004" r="5.143"/>
				<path opacity="0.26" fill="#DE9D04" d="M113.923,62.248c-2.01-2.011-2.01-5.268,0-7.274c2.008-2.011,5.264-2.011,7.273,0
					c2.008,2.007,2.008,5.264,0,7.274C119.187,64.254,115.931,64.259,113.923,62.248z"/>
				<path opacity="0.49" fill="#DE9D04" d="M115.146,56.197c-2.006-2.009-2.006-5.264,0-7.273c2.01-2.007,5.268-2.007,7.275,0
					c2.01,2.01,2.01,5.266,0,7.273C120.413,58.208,117.155,58.208,115.146,56.197z"/>
				<circle opacity="0.26" fill="#DE9D04" cx="136.684" cy="54.206" r="3.879"/>
				<path opacity="0.26" fill="#DE9D04" d="M122.972,59.638c-2.01-2.011-2.01-5.269,0-7.275c2.008-2.011,5.266-2.011,7.271,0
					c2.014,2.007,2.014,5.267,0,7.275C128.237,61.645,124.979,61.646,122.972,59.638z"/>
				<path opacity="0.49" fill="#DE9D04" d="M124.194,53.588c-2.01-2.009-2.006-5.267,0-7.275c2.01-2.008,5.27-2.008,7.279,0
					c2.006,2.009,2.006,5.267,0,7.275C129.464,55.596,126.204,55.599,124.194,53.588z"/>
				<circle opacity="0.75" fill="#DE9D04" cx="111.442" cy="64.726" r="6.219"/>
				<circle opacity="0.49" fill="#DE9D04" cx="109.898" cy="54.389" r="6.22"/>
				<path opacity="0.26" fill="#DE9D04" d="M149.739,60.896c1.516-1.516,3.973-1.516,5.486,0c1.518,1.515,1.518,3.972,0,5.484
					c-1.514,1.519-3.971,1.519-5.486,0C148.226,64.867,148.226,62.412,149.739,60.896z"/>
				<path opacity="0.26" fill="#DE9D04" d="M161.823,69.717c1.512-1.513,3.969-1.513,5.484,0c1.516,1.516,1.516,3.973,0,5.486
					s-3.973,1.514-5.484,0C160.306,73.689,160.306,71.232,161.823,69.717z"/>
				<circle opacity="0.26" fill="#DE9D04" cx="154.512" cy="107.798" r="3.879"/>
				<circle opacity="0.75" fill="#DE9D04" cx="146.103" cy="70.018" r="5.144"/>
				<path opacity="0.26" fill="#DE9D04" d="M155.44,68.824c2.012-2.01,5.268-2.01,7.277,0c2.006,2.005,2.006,5.265,0,7.273
					c-2.01,2.01-5.266,2.01-7.277,0C153.433,74.089,153.433,70.833,155.44,68.824z"/>
				<path opacity="0.26" fill="#DE9D04" d="M146.974,69.15c2.428-2.43,6.363-2.43,8.795,0c2.428,2.429,2.428,6.367,0,8.796
					c-2.432,2.43-6.367,2.427-8.795,0C144.544,75.518,144.542,71.579,146.974,69.15z"/>
				<path opacity="0.26" fill="#DE9D04" d="M143.144,72.326c2.43-2.431,6.367-2.431,8.797,0c2.426,2.428,2.426,6.366,0,8.795
					c-2.43,2.43-6.371,2.43-8.797,0C140.714,78.695,140.714,74.755,143.144,72.326z"/>
				<circle opacity="0.26" fill="#DE9D04" cx="157.678" cy="68.833" r="6.219"/>
				<circle opacity="0.26" fill="#DE9D04" cx="151.562" cy="62.716" r="6.22"/>
				<circle opacity="0.26" fill="#DE9D04" cx="140.401" cy="55.974" r="6.22"/>
				<path opacity="0.49" fill="#DE9D04" d="M159.296,74.417c2.432-2.429,6.369-2.429,8.795,0c2.43,2.431,2.43,6.368,0.004,8.797
					c-2.43,2.429-6.367,2.429-8.799,0C156.87,80.785,156.866,76.848,159.296,74.417z"/>
				<circle opacity="0.26" fill="#DE9D04" cx="142.407" cy="65.431" r="5.143"/>
				<circle opacity="0.49" fill="#DE9D04" cx="143.634" cy="59.383" r="5.143"/>
				<circle opacity="0.49" fill="#DE9D04" cx="133.053" cy="54.111" r="5.144"/>
				<path opacity="0.49" fill="#DE9D04" d="M130.353,65.608c-2.432-2.429-2.432-6.368,0-8.796c2.426-2.429,6.363-2.43,8.795,0
					c2.43,2.428,2.426,6.367,0,8.796C136.718,68.037,132.78,68.037,130.353,65.608z"/>
				<circle opacity="0.49" fill="#DE9D04" cx="173.254" cy="93.641" r="6.22"/>
				<path opacity="0.49" fill="#DE9D04" d="M166.915,89.496c-2.432-2.429-2.432-6.367,0-8.796c2.428-2.43,6.365-2.43,8.795,0
					c2.432,2.429,2.428,6.367,0,8.796C173.28,91.925,169.345,91.925,166.915,89.496z"/>
				<circle opacity="0.49" fill="#DE9D04" cx="139.13" cy="85.135" r="6.22"/>
				<path opacity="0.49" fill="#DE9D04" d="M112.114,77.764c-2.428-2.43-2.428-6.365,0-8.796c2.43-2.426,6.367-2.426,8.797,0
					c2.432,2.431,2.43,6.37,0,8.796C118.481,80.193,114.544,80.195,112.114,77.764z"/>
				<circle opacity="0.26" fill="#DE9D04" cx="114.55" cy="48.326" r="3.88"/>
			</g>
		</g>
		<g>
			<defs>
				<path id="SVGID_9_" d="M153.685,61.788c4.113,28.129-8.502,38.867-8.502,38.867c0.906,2.983,1.211,2.327,1.211,2.327
					c14.393-15.824,11.467-37.783,11.467-37.783C155.298,63.033,153.685,61.788,153.685,61.788z"/>
			</defs>
			<clipPath id="SVGID_10_">
				<use xlink:href="#SVGID_9_"  overflow="visible"/>
			</clipPath>
			<g clip-path="url(#SVGID_10_)">
				<path opacity="0.26" fill="#F6D448" d="M159.642,78.836c1.723-1.275,4.154-0.911,5.428,0.81c1.273,1.722,0.91,4.15-0.813,5.425
					c-1.723,1.275-4.15,0.912-5.426-0.813C157.558,82.538,157.921,80.108,159.642,78.836z"/>
				<path opacity="0.26" fill="#F6D448" d="M170.286,89.346c1.723-1.275,4.152-0.912,5.426,0.813
					c1.273,1.719,0.912,4.15-0.813,5.425c-1.719,1.274-4.148,0.91-5.424-0.813C168.202,93.049,168.563,90.619,170.286,89.346z"/>
				<path opacity="0.75" fill="#F6D448" d="M151.636,83.184c2.285-1.689,5.508-1.207,7.195,1.074
					c1.689,2.284,1.209,5.506-1.076,7.199c-2.283,1.688-5.504,1.203-7.195-1.077C148.87,88.096,149.353,84.875,151.636,83.184z"/>
				<path opacity="0.26" fill="#F6D448" d="M164.108,87.518c2.281-1.688,5.506-1.208,7.193,1.075
					c1.691,2.283,1.211,5.506-1.076,7.195c-2.281,1.688-5.504,1.208-7.193-1.075C161.343,92.428,161.825,89.205,164.108,87.518z"/>
				<circle opacity="0.26" fill="#F6D448" cx="165.486" cy="105.57" r="5.144"/>
				<path opacity="0.49" fill="#F6D448" d="M168.229,103.545c2.281-1.691,5.502-1.211,7.193,1.076
					c1.689,2.281,1.207,5.504-1.074,7.191c-2.287,1.691-5.508,1.208-7.197-1.075S165.944,105.232,168.229,103.545z"/>
				<circle opacity="0.75" fill="#F6D448" cx="160.341" cy="98.617" r="6.22"/>
				<circle opacity="0.26" fill="#F6D448" cx="159.384" cy="91.588" r="6.219"/>
				<circle opacity="0.26" fill="#F6D448" cx="152.198" cy="106.716" r="6.221"/>
				<circle opacity="0.49" fill="#F6D448" cx="170.794" cy="98.62" r="6.22"/>
				<path opacity="0.26" fill="#F6D448" d="M133.765,56.159c1.721-1.272,4.152-0.909,5.428,0.813
					c1.271,1.724,0.91,4.151-0.813,5.427c-1.725,1.273-4.152,0.91-5.426-0.813C131.679,59.865,132.042,57.438,133.765,56.159z"/>
				<path opacity="0.26" fill="#F6D448" d="M144.409,66.671c1.723-1.274,4.148-0.909,5.426,0.813
					c1.273,1.722,0.91,4.151-0.813,5.425s-4.15,0.91-5.426-0.809C142.323,70.375,142.687,67.945,144.409,66.671z"/>
				<path opacity="0.75" fill="#F6D448" d="M125.759,60.51c2.285-1.688,5.506-1.207,7.195,1.076
					c1.686,2.283,1.207,5.504-1.078,7.195c-2.285,1.689-5.506,1.209-7.193-1.077C122.993,65.421,123.472,62.2,125.759,60.51z"/>
				<circle opacity="0.26" fill="#F6D448" cx="141.289" cy="68.98" r="5.144"/>
				<path opacity="0.26" fill="#F6D448" d="M136.55,78.763c2.283-1.688,5.504-1.206,7.191,1.075
					c1.691,2.283,1.209,5.504-1.072,7.195c-2.285,1.691-5.504,1.207-7.195-1.075C133.782,83.675,134.267,80.453,136.55,78.763z"/>
				<path opacity="0.26" fill="#F6D448" d="M143.188,84.639c2.283-1.691,5.504-1.209,7.193,1.074
					c1.691,2.281,1.211,5.506-1.074,7.193c-2.285,1.693-5.508,1.211-7.195-1.074C140.425,89.55,140.903,86.326,143.188,84.639z"/>
				<circle opacity="0.49" fill="#F6D448" cx="145.409" cy="85.005" r="5.144"/>
				<path opacity="0.49" fill="#F6D448" d="M143.175,84.619c2.283-1.689,5.502-1.207,7.195,1.077
					c1.688,2.282,1.205,5.504-1.076,7.194c-2.287,1.688-5.504,1.207-7.195-1.076C140.411,89.529,140.892,86.31,143.175,84.619z"/>
				<path opacity="0.75" fill="#F6D448" d="M130.763,70.943c2.764-2.043,6.656-1.46,8.699,1.301
					c2.047,2.761,1.463,6.656-1.297,8.701c-2.762,2.042-6.658,1.459-8.701-1.301C127.421,76.881,128.001,72.984,130.763,70.943z"/>
				<path opacity="0.26" fill="#F6D448" d="M129.808,63.914c2.76-2.041,6.654-1.457,8.699,1.3c2.041,2.762,1.459,6.658-1.301,8.702
					c-2.762,2.043-6.66,1.46-8.701-1.301C126.46,69.854,127.044,65.958,129.808,63.914z"/>
				<path opacity="0.49" fill="#F6D448" d="M141.218,70.946c2.762-2.044,6.654-1.46,8.699,1.3c2.041,2.764,1.461,6.658-1.301,8.701
					c-2.762,2.041-6.656,1.461-8.701-1.302C137.874,76.884,138.454,72.99,141.218,70.946z"/>
				<circle opacity="0.49" fill="#F6D448" cx="151.116" cy="94.794" r="6.219"/>
				<circle opacity="0.49" fill="#F6D448" cx="145.855" cy="99.324" r="6.22"/>
				<path opacity="0.26" fill="#F6D448" d="M159.278,115.322c2.314,1.645,2.859,4.854,1.217,7.17
					c-1.645,2.317-4.855,2.863-7.17,1.221c-2.318-1.645-2.865-4.855-1.219-7.174C153.745,114.224,156.958,113.678,159.278,115.322z"
					/>
				<path opacity="0.26" fill="#F6D448" d="M153.093,113.178c2.314,1.644,2.861,4.853,1.219,7.172
					c-1.645,2.316-4.855,2.861-7.172,1.219c-2.318-1.643-2.863-4.855-1.219-7.172C147.562,112.082,150.774,111.535,153.093,113.178z
					"/>
				<circle opacity="0.75" fill="#F6D448" cx="161.306" cy="112.461" r="6.219"/>
				<circle opacity="0.26" fill="#F6D448" cx="112.733" cy="52.455" r="3.88"/>
				<path opacity="0.26" fill="#F6D448" d="M107.786,60.939c-1.688-2.285-1.207-5.505,1.076-7.193
					c2.285-1.688,5.506-1.208,7.193,1.075c1.693,2.283,1.211,5.504-1.074,7.195C112.7,63.704,109.478,63.225,107.786,60.939z"/>
				<circle opacity="0.26" fill="#F6D448" cx="125.841" cy="59.563" r="5.143"/>
				<circle opacity="0.49" fill="#F6D448" cx="127.949" cy="53.762" r="5.144"/>
				<circle opacity="0.26" fill="#F6D448" cx="145.407" cy="58.036" r="3.879"/>
				<circle opacity="0.26" fill="#F6D448" cx="135.178" cy="58.319" r="5.145"/>
				<path opacity="0.49" fill="#F6D448" d="M133.147,55.578c-1.688-2.285-1.207-5.506,1.078-7.195
					c2.283-1.688,5.506-1.208,7.195,1.075c1.688,2.284,1.205,5.505-1.078,7.196C138.062,58.342,134.841,57.862,133.147,55.578z"/>
				<circle opacity="0.75" fill="#F6D448" cx="118.887" cy="64.707" r="6.218"/>
				<path opacity="0.49" fill="#F6D448" d="M113.892,57.954c-2.045-2.762-1.459-6.657,1.299-8.699c2.762-2.042,6.658-1.46,8.701,1.3
					c2.043,2.762,1.459,6.658-1.299,8.7C119.827,61.299,115.935,60.715,113.892,57.954z"/>
				<circle opacity="0.26" fill="#F6D448" cx="159.639" cy="69.701" r="3.879"/>
				<path opacity="0.26" fill="#F6D448" d="M167.976,77.094c1.723-1.272,4.148-0.91,5.426,0.811
					c1.273,1.722,0.912,4.153-0.813,5.429c-1.723,1.271-4.15,0.907-5.426-0.813C165.89,80.797,166.251,78.367,167.976,77.094z"/>
				<path opacity="0.26" fill="#F6D448" d="M152.808,110.558c1.723-1.274,4.15-0.912,5.426,0.81c1.277,1.723,0.912,4.15-0.813,5.426
					c-1.721,1.275-4.15,0.911-5.424-0.81C150.724,114.259,151.085,111.832,152.808,110.558z"/>
				<circle opacity="0.75" fill="#F6D448" cx="152.385" cy="75.067" r="5.143"/>
				<path opacity="0.26" fill="#F6D448" d="M161.796,75.267c2.287-1.69,5.504-1.208,7.197,1.076
					c1.689,2.282,1.205,5.505-1.074,7.191c-2.287,1.691-5.506,1.208-7.195-1.075C159.032,80.175,159.515,76.954,161.796,75.267z"/>
				<circle opacity="0.26" fill="#F6D448" cx="157.073" cy="79.338" r="6.22"/>
				<path opacity="0.26" fill="#F6D448" d="M149.114,76.909c2.766-2.04,6.658-1.459,8.701,1.302c2.043,2.763,1.463,6.66-1.299,8.701
					c-2.762,2.043-6.658,1.46-8.701-1.301C145.772,82.85,146.353,78.954,149.114,76.909z"/>
				<path opacity="0.26" fill="#F6D448" d="M160.31,70.605c2.762-2.043,6.654-1.46,8.697,1.3c2.045,2.761,1.461,6.657-1.301,8.699
					c-2.764,2.044-6.656,1.462-8.701-1.3C156.964,76.543,157.548,72.646,160.31,70.605z"/>
				<circle opacity="0.26" fill="#F6D448" cx="158.863" cy="68.652" r="6.22"/>
				<circle opacity="0.26" fill="#F6D448" cx="148.823" cy="60.334" r="6.218"/>
				<circle opacity="0.49" fill="#F6D448" cx="168.482" cy="86.369" r="6.22"/>
				<circle opacity="0.26" fill="#F6D448" cx="149.409" cy="69.984" r="5.143"/>
				<circle opacity="0.49" fill="#F6D448" cx="151.515" cy="64.184" r="5.144"/>
				<path opacity="0.49" fill="#F6D448" d="M137.694,60.463c-1.691-2.283-1.209-5.505,1.076-7.193
					c2.283-1.69,5.504-1.207,7.195,1.076c1.688,2.283,1.207,5.504-1.076,7.191C142.604,63.229,139.384,62.748,137.694,60.463z"/>
				<circle opacity="0.49" fill="#F6D448" cx="142.458" cy="64.675" r="6.22"/>
				<path opacity="0.49" fill="#F6D448" d="M170.745,106.145c-2.043-2.761-1.461-6.657,1.301-8.702
					c2.758-2.041,6.656-1.458,8.699,1.302c2.043,2.764,1.461,6.66-1.301,8.701C176.683,109.487,172.786,108.905,170.745,106.145z"/>
				<path opacity="0.49" fill="#F6D448" d="M170.089,97.406c-2.045-2.761-1.461-6.656,1.301-8.695
					c2.762-2.047,6.654-1.465,8.697,1.301c2.045,2.76,1.461,6.652-1.301,8.697C176.024,100.752,172.13,100.17,170.089,97.406z"/>
				<circle opacity="0.49" fill="#F6D448" cx="143.252" cy="88.986" r="6.219"/>
				<path opacity="0.49" fill="#F6D448" d="M117.624,77.703c-2.041-2.762-1.461-6.657,1.305-8.699
					c2.76-2.043,6.654-1.459,8.697,1.301c2.045,2.762,1.459,6.654-1.301,8.699C123.565,81.046,119.669,80.465,117.624,77.703z"/>
				<circle opacity="0.26" fill="#F6D448" cx="124.387" cy="48.947" r="3.88"/>
			</g>
		</g>
	</g>
	<g>
		<g>
			<path fill="#5C5957" d="M12.418,144.846c0,0.81-0.251,1.482-0.753,2.017c-0.502,0.534-1.154,0.801-1.955,0.801
				c-0.774,0-1.403-0.267-1.887-0.801s-0.726-1.207-0.726-2.017v-1.18c0-0.808,0.242-1.479,0.726-2.017s1.113-0.806,1.887-0.806
				c0.801,0,1.453,0.268,1.955,0.804c0.502,0.535,0.753,1.208,0.753,2.019V144.846z M11.522,143.657
				c0-0.607-0.164-1.104-0.492-1.493c-0.328-0.389-0.768-0.583-1.32-0.583c-0.522,0-0.938,0.194-1.25,0.583
				c-0.311,0.389-0.466,0.886-0.466,1.493v1.188c0,0.612,0.155,1.113,0.466,1.502c0.312,0.389,0.728,0.583,1.25,0.583
				c0.555,0,0.996-0.194,1.322-0.581s0.49-0.889,0.49-1.504V143.657z"/>
			<path fill="#5C5957" d="M16.72,146.839c-0.155,0.265-0.354,0.468-0.597,0.61c-0.243,0.143-0.523,0.214-0.842,0.214
				c-0.538,0-0.956-0.171-1.257-0.515c-0.3-0.343-0.451-0.877-0.451-1.603v-2.904h0.897v2.914c0,0.524,0.077,0.886,0.232,1.083
				s0.396,0.296,0.724,0.296c0.318,0,0.582-0.064,0.79-0.193c0.208-0.129,0.365-0.312,0.471-0.549v-3.551h0.897v4.926h-0.806
				L16.72,146.839z"/>
			<path fill="#5C5957" d="M20.135,141.453v1.188h0.933v0.665h-0.933v2.991c0,0.23,0.048,0.393,0.143,0.486
				c0.096,0.095,0.223,0.142,0.38,0.142c0.052,0,0.109-0.007,0.173-0.021c0.064-0.014,0.117-0.028,0.16-0.043l0.123,0.614
				c-0.067,0.055-0.166,0.1-0.296,0.135c-0.13,0.034-0.259,0.052-0.387,0.052c-0.364,0-0.654-0.109-0.87-0.33
				c-0.215-0.22-0.323-0.565-0.323-1.035v-2.991h-0.783v-0.665h0.783v-1.188H20.135z"/>
			<path fill="#5C5957" d="M24.445,143.434l-0.46-0.027c-0.237,0-0.437,0.057-0.599,0.169c-0.163,0.112-0.288,0.271-0.375,0.474
				v3.519h-0.897v-4.926h0.801l0.086,0.72c0.14-0.255,0.312-0.454,0.517-0.597c0.205-0.143,0.441-0.214,0.708-0.214
				c0.067,0,0.13,0.005,0.191,0.016c0.061,0.011,0.111,0.022,0.15,0.034L24.445,143.434z"/>
			<path fill="#5C5957" d="M28.339,147.567c-0.031-0.148-0.054-0.279-0.071-0.394s-0.026-0.229-0.029-0.344
				c-0.167,0.236-0.385,0.435-0.653,0.594c-0.269,0.16-0.558,0.239-0.867,0.239c-0.513,0-0.904-0.131-1.172-0.394
				s-0.403-0.624-0.403-1.086c0-0.471,0.19-0.838,0.571-1.104s0.897-0.398,1.55-0.398h0.975v-0.487c0-0.288-0.088-0.517-0.264-0.686
				c-0.176-0.168-0.425-0.252-0.747-0.252c-0.292,0-0.527,0.072-0.706,0.218c-0.179,0.146-0.269,0.32-0.269,0.523l-0.851,0.01
				l-0.009-0.027c-0.021-0.358,0.146-0.687,0.503-0.983c0.356-0.298,0.817-0.446,1.381-0.446c0.559,0,1.008,0.142,1.348,0.426
				c0.34,0.283,0.51,0.692,0.51,1.227v2.372c0,0.176,0.009,0.346,0.027,0.51c0.019,0.164,0.052,0.325,0.1,0.482H28.339z
				 M26.851,146.912c0.325,0,0.618-0.083,0.878-0.25c0.261-0.167,0.431-0.358,0.51-0.574v-0.801h-1.006
				c-0.361,0-0.65,0.091-0.867,0.272c-0.217,0.183-0.326,0.396-0.326,0.643c0,0.218,0.068,0.392,0.205,0.519
				C26.382,146.849,26.583,146.912,26.851,146.912z"/>
			<path fill="#5C5957" d="M33.303,146.243c0-0.197-0.075-0.358-0.225-0.482c-0.15-0.125-0.435-0.234-0.854-0.328
				c-0.58-0.124-1.025-0.299-1.336-0.523s-0.467-0.525-0.467-0.901c0-0.4,0.171-0.744,0.512-1.029
				c0.342-0.285,0.784-0.428,1.327-0.428c0.559,0,1.011,0.151,1.356,0.455c0.346,0.304,0.512,0.657,0.497,1.061l-0.009,0.027h-0.856
				c0-0.212-0.093-0.405-0.28-0.578s-0.423-0.259-0.708-0.259c-0.315,0-0.552,0.071-0.708,0.214s-0.234,0.313-0.234,0.51
				c0,0.194,0.067,0.345,0.203,0.45c0.135,0.106,0.414,0.204,0.835,0.292c0.604,0.127,1.062,0.308,1.375,0.541
				c0.313,0.234,0.469,0.539,0.469,0.915c0,0.438-0.177,0.794-0.53,1.07s-0.816,0.414-1.386,0.414c-0.628,0-1.123-0.159-1.484-0.478
				c-0.361-0.319-0.533-0.69-0.514-1.115l0.009-0.027h0.856c0.015,0.318,0.134,0.551,0.355,0.698
				c0.222,0.147,0.481,0.221,0.779,0.221c0.318,0,0.568-0.067,0.749-0.202S33.303,146.452,33.303,146.243z"/>
		</g>
		<g>
			<path fill="#5C5957" d="M12.418,157.482c0,0.811-0.251,1.483-0.753,2.018c-0.502,0.534-1.154,0.801-1.955,0.801
				c-0.774,0-1.403-0.267-1.887-0.801s-0.726-1.207-0.726-2.018v-1.179c0-0.808,0.242-1.479,0.726-2.017s1.113-0.806,1.887-0.806
				c0.801,0,1.453,0.268,1.955,0.804c0.502,0.535,0.753,1.208,0.753,2.019V157.482z M11.522,156.295
				c0-0.607-0.164-1.105-0.492-1.493c-0.328-0.389-0.768-0.583-1.32-0.583c-0.522,0-0.938,0.194-1.25,0.583
				c-0.311,0.388-0.466,0.886-0.466,1.493v1.188c0,0.613,0.155,1.114,0.466,1.503c0.312,0.389,0.728,0.583,1.25,0.583
				c0.555,0,0.996-0.194,1.322-0.581s0.49-0.889,0.49-1.505V156.295z"/>
			<path fill="#5C5957" d="M17.248,158.534c0-0.3-0.107-0.552-0.323-0.756c-0.215-0.203-0.595-0.376-1.138-0.519
				c-0.674-0.167-1.199-0.413-1.577-0.737c-0.378-0.325-0.567-0.733-0.567-1.225c0-0.52,0.203-0.952,0.61-1.298
				s0.935-0.519,1.584-0.519c0.698,0,1.254,0.197,1.668,0.594s0.615,0.858,0.604,1.387l-0.014,0.027h-0.856
				c0-0.377-0.131-0.688-0.394-0.934s-0.599-0.369-1.008-0.369c-0.419,0-0.74,0.102-0.963,0.306
				c-0.223,0.203-0.334,0.467-0.334,0.792c0,0.288,0.122,0.528,0.366,0.722c0.245,0.192,0.641,0.361,1.19,0.507
				c0.668,0.174,1.176,0.429,1.525,0.766c0.349,0.337,0.523,0.752,0.523,1.247c0,0.534-0.21,0.964-0.63,1.288
				c-0.42,0.325-0.969,0.487-1.646,0.487c-0.64,0-1.206-0.179-1.696-0.537s-0.728-0.838-0.712-1.438l0.009-0.027h0.856
				c0,0.416,0.158,0.736,0.473,0.963c0.316,0.226,0.672,0.339,1.07,0.339c0.425,0,0.761-0.096,1.008-0.287
				C17.124,159.122,17.248,158.862,17.248,158.534z"/>
			<path fill="#5C5957" d="M24.263,158.084l0.009,0.027c0.012,0.622-0.207,1.143-0.656,1.562s-1.042,0.628-1.78,0.628
				c-0.75,0-1.36-0.266-1.833-0.797c-0.472-0.531-0.708-1.205-0.708-2.021v-1.179c0-0.816,0.236-1.491,0.708-2.023
				c0.472-0.533,1.083-0.799,1.833-0.799s1.346,0.199,1.789,0.599c0.443,0.398,0.659,0.928,0.646,1.586l-0.009,0.027h-0.86
				c0-0.464-0.137-0.831-0.41-1.102c-0.273-0.27-0.659-0.405-1.156-0.405c-0.501,0-0.9,0.202-1.197,0.605
				c-0.297,0.404-0.446,0.904-0.446,1.503v1.188c0,0.604,0.149,1.108,0.446,1.512s0.696,0.605,1.197,0.605
				c0.498,0,0.883-0.134,1.156-0.402s0.41-0.64,0.41-1.113H24.263z"/>
			<path fill="#5C5957" d="M28.175,158.881c0-0.197-0.075-0.358-0.226-0.483c-0.15-0.124-0.435-0.233-0.854-0.327
				c-0.58-0.125-1.025-0.299-1.336-0.523c-0.312-0.225-0.467-0.525-0.467-0.901c0-0.401,0.171-0.744,0.512-1.029
				s0.784-0.428,1.327-0.428c0.558,0,1.011,0.151,1.356,0.455c0.346,0.304,0.511,0.657,0.496,1.061l-0.009,0.027h-0.856
				c0-0.212-0.093-0.405-0.28-0.578c-0.187-0.173-0.423-0.26-0.708-0.26c-0.316,0-0.552,0.071-0.708,0.215
				c-0.156,0.143-0.234,0.313-0.234,0.51c0,0.194,0.067,0.344,0.203,0.45c0.135,0.106,0.413,0.203,0.835,0.292
				c0.604,0.127,1.062,0.308,1.375,0.541c0.313,0.234,0.469,0.539,0.469,0.915c0,0.438-0.177,0.794-0.531,1.07
				s-0.815,0.414-1.386,0.414c-0.628,0-1.123-0.159-1.484-0.478c-0.361-0.319-0.533-0.69-0.515-1.116l0.009-0.027h0.856
				c0.015,0.319,0.133,0.552,0.355,0.699s0.481,0.221,0.778,0.221c0.319,0,0.568-0.067,0.749-0.202
				C28.085,159.262,28.175,159.09,28.175,158.881z"/>
		</g>
		<g>
			<path fill="#5B5857" d="M11.563,167.069c-0.838,0.995-1.404,1.874-1.698,2.636c-0.295,0.762-0.442,1.616-0.442,2.563v0.724H8.526
				v-0.724c0-1.002,0.185-1.904,0.554-2.707c0.368-0.803,0.901-1.634,1.6-2.492H7.165v-0.706h4.398V167.069z"/>
			<path fill="#5B5857" d="M16.57,168.058c0,0.346-0.097,0.649-0.291,0.912s-0.452,0.459-0.773,0.59
				c0.376,0.131,0.678,0.339,0.905,0.624s0.342,0.614,0.342,0.987c0,0.61-0.198,1.082-0.594,1.416
				c-0.396,0.334-0.901,0.501-1.514,0.501c-0.65,0-1.181-0.167-1.592-0.501s-0.616-0.806-0.616-1.416
				c0-0.373,0.115-0.702,0.348-0.987s0.546-0.495,0.94-0.629c-0.34-0.127-0.608-0.322-0.806-0.585s-0.296-0.566-0.296-0.912
				c0-0.58,0.186-1.023,0.558-1.33c0.371-0.307,0.856-0.46,1.454-0.46c0.564,0,1.028,0.154,1.391,0.463
				C16.39,167.038,16.57,167.48,16.57,168.058z M15.86,171.153c0-0.361-0.117-0.659-0.353-0.893s-0.526-0.351-0.872-0.351
				c-0.376,0-0.688,0.117-0.933,0.351c-0.246,0.233-0.369,0.531-0.369,0.893c0,0.373,0.122,0.672,0.366,0.896
				s0.56,0.337,0.945,0.337c0.346,0,0.635-0.113,0.867-0.339C15.744,171.821,15.86,171.523,15.86,171.153z M15.674,168.071
				c0-0.319-0.1-0.582-0.298-0.788c-0.199-0.206-0.445-0.31-0.74-0.31c-0.324,0-0.592,0.1-0.801,0.298
				c-0.21,0.199-0.314,0.466-0.314,0.8c0,0.336,0.106,0.609,0.318,0.819c0.213,0.209,0.481,0.313,0.807,0.313
				c0.294,0,0.539-0.104,0.734-0.313C15.576,168.681,15.674,168.407,15.674,168.071z"/>
			<path fill="#5B5857" d="M17.695,167.639c0-0.386,0.124-0.711,0.373-0.975s0.581-0.396,0.997-0.396s0.748,0.132,0.997,0.395
				s0.373,0.588,0.373,0.977v0.351c0,0.385-0.123,0.708-0.371,0.97c-0.247,0.261-0.577,0.392-0.99,0.392
				c-0.419,0-0.753-0.131-1.004-0.392c-0.25-0.262-0.375-0.585-0.375-0.97V167.639z M18.359,167.989
				c0,0.225,0.062,0.415,0.185,0.571s0.3,0.234,0.53,0.234c0.222,0,0.394-0.078,0.515-0.232c0.121-0.155,0.183-0.346,0.183-0.573
				v-0.351c0-0.225-0.062-0.417-0.185-0.576s-0.297-0.239-0.521-0.239c-0.228,0-0.402,0.08-0.523,0.239s-0.183,0.352-0.183,0.576
				V167.989z M19.307,172.491l-0.496-0.305l3.237-5.181l0.496,0.305L19.307,172.491z M20.904,171.367
				c0-0.386,0.125-0.71,0.374-0.973c0.249-0.262,0.581-0.394,0.997-0.394c0.412,0,0.744,0.132,0.994,0.394
				c0.251,0.263,0.376,0.587,0.376,0.973v0.354c0,0.389-0.125,0.714-0.373,0.975c-0.249,0.261-0.578,0.392-0.988,0.392
				c-0.419,0-0.754-0.131-1.004-0.392s-0.376-0.586-0.376-0.975V171.367z M21.569,171.722c0,0.228,0.062,0.42,0.185,0.576
				s0.3,0.234,0.53,0.234c0.222,0,0.393-0.078,0.515-0.234c0.121-0.156,0.182-0.349,0.182-0.576v-0.354
				c0-0.225-0.062-0.416-0.187-0.574c-0.124-0.157-0.297-0.236-0.519-0.236c-0.225,0-0.398,0.079-0.521,0.236
				c-0.123,0.158-0.185,0.35-0.185,0.574V171.722z"/>
		</g>
	</g>
	<g>
		<g>
			<path fill="#5C5957" d="M22.246,70.166v4.402c0,0.729-0.237,1.298-0.71,1.708c-0.473,0.41-1.083,0.615-1.83,0.615
				c-0.719,0-1.308-0.206-1.766-0.617c-0.458-0.411-0.688-0.979-0.688-1.705v-4.402h0.897v4.402c0,0.507,0.145,0.904,0.435,1.191
				c0.29,0.287,0.664,0.43,1.122,0.43c0.486,0,0.881-0.144,1.186-0.43c0.305-0.287,0.458-0.684,0.458-1.191v-4.402H22.246z"/>
			<path fill="#5C5957" d="M24.565,74.135v2.659h-0.896v-6.628h2.536c0.707,0,1.257,0.182,1.65,0.546
				c0.393,0.364,0.589,0.844,0.589,1.439c0,0.601-0.197,1.082-0.589,1.443c-0.393,0.361-0.943,0.542-1.65,0.542H24.565z
				 M24.565,73.434h1.639c0.449,0,0.785-0.121,1.006-0.362c0.222-0.241,0.333-0.546,0.333-0.913s-0.112-0.674-0.334-0.919
				c-0.223-0.246-0.558-0.369-1.004-0.369h-1.639V73.434z"/>
			<path fill="#5C5957" d="M33.337,73.862h-2.795v2.932h-0.897v-6.628h4.157v0.706h-3.26v2.285h2.795V73.862z"/>
		</g>
		<g>
			<path fill="#5C5957" d="M19.814,89.432h-0.901v-5.8l-1.443,0.014v-0.692l2.344-0.246V89.432z"/>
			<path fill="#5C5957" d="M25.897,87.201h0.915v0.701h-0.915v1.53h-0.893v-1.53h-2.845v-0.505l2.791-4.594h0.947V87.201z
				 M23.12,87.201h1.885v-3.109l-0.027-0.004l-0.087,0.228L23.12,87.201z"/>
			<path fill="#5C5957" d="M27.554,84.078c0-0.385,0.125-0.71,0.373-0.974c0.249-0.264,0.582-0.396,0.997-0.396
				c0.416,0,0.748,0.131,0.997,0.394c0.249,0.263,0.374,0.588,0.374,0.977v0.351c0,0.385-0.124,0.708-0.371,0.97
				c-0.248,0.261-0.578,0.392-0.99,0.392c-0.419,0-0.753-0.131-1.004-0.392c-0.25-0.261-0.375-0.584-0.375-0.97V84.078z
				 M28.219,84.428c0,0.225,0.062,0.415,0.185,0.571s0.3,0.234,0.53,0.234c0.222,0,0.393-0.077,0.515-0.232
				c0.121-0.155,0.182-0.346,0.182-0.574v-0.351c0-0.225-0.062-0.417-0.184-0.576c-0.123-0.16-0.297-0.239-0.521-0.239
				c-0.228,0-0.402,0.08-0.523,0.239c-0.122,0.159-0.182,0.351-0.182,0.576V84.428z M29.166,88.931l-0.496-0.305l3.237-5.181
				l0.496,0.305L29.166,88.931z M30.764,87.806c0-0.385,0.125-0.709,0.373-0.972c0.249-0.262,0.582-0.394,0.997-0.394
				c0.413,0,0.745,0.131,0.995,0.394c0.25,0.263,0.375,0.587,0.375,0.972v0.355c0,0.389-0.125,0.713-0.374,0.974
				c-0.249,0.261-0.578,0.392-0.988,0.392c-0.419,0-0.753-0.13-1.004-0.392c-0.25-0.261-0.375-0.585-0.375-0.974V87.806z
				 M31.428,88.161c0,0.228,0.062,0.42,0.185,0.576s0.3,0.234,0.53,0.234c0.222,0,0.393-0.078,0.515-0.234
				c0.121-0.156,0.182-0.349,0.182-0.576v-0.355c0-0.225-0.063-0.416-0.187-0.574s-0.297-0.237-0.519-0.237
				c-0.225,0-0.398,0.079-0.521,0.237s-0.185,0.349-0.185,0.574V88.161z"/>
		</g>
	</g>
	<g>
		<g>
			<path fill="#5C5957" d="M22.417,19.456c0,0.811-0.251,1.483-0.753,2.017s-1.154,0.801-1.956,0.801
				c-0.773,0-1.403-0.267-1.887-0.801c-0.484-0.534-0.726-1.207-0.726-2.017v-1.179c0-0.807,0.242-1.479,0.726-2.017
				c0.484-0.537,1.113-0.806,1.887-0.806c0.802,0,1.453,0.268,1.956,0.803c0.502,0.536,0.753,1.209,0.753,2.019V19.456z
				 M21.52,18.268c0-0.607-0.164-1.105-0.492-1.493c-0.328-0.389-0.768-0.583-1.32-0.583c-0.522,0-0.938,0.194-1.25,0.583
				c-0.311,0.388-0.466,0.886-0.466,1.493v1.188c0,0.613,0.155,1.114,0.466,1.502c0.311,0.389,0.728,0.583,1.25,0.583
				c0.556,0,0.997-0.193,1.323-0.58c0.326-0.387,0.489-0.889,0.489-1.505V18.268z"/>
			<path fill="#5C5957" d="M27.246,20.508c0-0.3-0.108-0.552-0.323-0.756c-0.215-0.203-0.595-0.376-1.138-0.519
				c-0.674-0.167-1.2-0.413-1.577-0.737c-0.378-0.325-0.567-0.733-0.567-1.225c0-0.519,0.203-0.952,0.61-1.297
				c0.407-0.346,0.935-0.519,1.584-0.519c0.698,0,1.254,0.198,1.668,0.594c0.414,0.396,0.615,0.858,0.603,1.386l-0.014,0.027h-0.856
				c0-0.376-0.131-0.687-0.394-0.933c-0.263-0.246-0.599-0.369-1.008-0.369c-0.419,0-0.74,0.102-0.963,0.305
				c-0.223,0.203-0.335,0.467-0.335,0.792c0,0.289,0.123,0.529,0.367,0.722s0.641,0.362,1.19,0.507
				c0.667,0.173,1.176,0.428,1.525,0.765c0.349,0.337,0.523,0.752,0.523,1.247c0,0.534-0.21,0.964-0.63,1.289
				c-0.421,0.325-0.969,0.487-1.646,0.487c-0.64,0-1.206-0.179-1.696-0.538c-0.49-0.358-0.728-0.837-0.712-1.438l0.009-0.027h0.855
				c0,0.416,0.158,0.737,0.474,0.963s0.672,0.339,1.07,0.339c0.425,0,0.761-0.096,1.008-0.287
				C27.123,21.095,27.246,20.835,27.246,20.508z"/>
			<path fill="#5C5957" d="M34.261,20.057l0.009,0.027c0.012,0.622-0.207,1.143-0.656,1.562s-1.042,0.628-1.78,0.628
				c-0.75,0-1.361-0.266-1.833-0.797c-0.472-0.531-0.708-1.205-0.708-2.021v-1.179c0-0.816,0.236-1.491,0.708-2.023
				c0.472-0.533,1.083-0.799,1.833-0.799c0.75,0,1.346,0.2,1.789,0.599c0.443,0.399,0.658,0.928,0.646,1.586l-0.009,0.027h-0.86
				c0-0.464-0.137-0.832-0.41-1.102c-0.273-0.27-0.659-0.405-1.156-0.405c-0.501,0-0.9,0.202-1.197,0.605
				c-0.298,0.404-0.446,0.904-0.446,1.502v1.188c0,0.604,0.148,1.108,0.446,1.512c0.297,0.403,0.696,0.605,1.197,0.605
				c0.498,0,0.883-0.134,1.156-0.403c0.273-0.269,0.41-0.639,0.41-1.113H34.261z"/>
			<path fill="#5C5957" d="M36.425,22.179h-0.901V15.55h0.901V22.179z"/>
			<path fill="#5C5957" d="M38.968,19.52v2.659h-0.896V15.55h2.536c0.707,0,1.257,0.182,1.65,0.546
				c0.393,0.364,0.589,0.844,0.589,1.438c0,0.601-0.197,1.082-0.589,1.443c-0.393,0.361-0.943,0.542-1.65,0.542H38.968z
				 M38.968,18.819h1.639c0.449,0,0.784-0.121,1.006-0.362s0.333-0.546,0.333-0.913s-0.112-0.674-0.334-0.919
				c-0.223-0.246-0.558-0.369-1.004-0.369h-1.639V18.819z"/>
		</g>
		<g>
			<path fill="#5C5957" d="M19.499,28.092c0.261,0,0.519,0.025,0.774,0.077c0.255,0.052,0.466,0.117,0.633,0.196l-0.191,0.688
				c-0.173-0.076-0.355-0.137-0.546-0.185c-0.191-0.047-0.414-0.07-0.669-0.07c-0.416,0-0.753,0.177-1.013,0.533
				c-0.259,0.355-0.389,0.804-0.389,1.347v0.515c0.185-0.185,0.404-0.331,0.658-0.437c0.253-0.106,0.526-0.159,0.817-0.159
				c0.57,0,1.022,0.191,1.354,0.573c0.332,0.382,0.499,0.885,0.499,1.507c0,0.68-0.186,1.223-0.558,1.628
				c-0.372,0.405-0.873,0.607-1.504,0.607c-0.613,0-1.126-0.233-1.539-0.699c-0.413-0.466-0.619-1.103-0.619-1.91v-1.525
				c0-0.777,0.221-1.419,0.662-1.926C18.309,28.346,18.853,28.092,19.499,28.092z M19.285,31.265c-0.283,0-0.524,0.06-0.727,0.18
				c-0.202,0.12-0.355,0.282-0.462,0.485v0.46c0,0.562,0.122,1.005,0.366,1.332c0.245,0.326,0.544,0.489,0.899,0.489
				c0.373,0,0.661-0.142,0.863-0.425c0.202-0.284,0.303-0.653,0.303-1.109c0-0.431-0.109-0.774-0.326-1.029
				S19.679,31.265,19.285,31.265z"/>
			<path fill="#5C5957" d="M22.303,29.462c0-0.385,0.125-0.71,0.374-0.974c0.249-0.264,0.581-0.396,0.997-0.396
				c0.416,0,0.748,0.131,0.997,0.394c0.249,0.263,0.373,0.588,0.373,0.977v0.351c0,0.385-0.124,0.708-0.371,0.97
				c-0.247,0.261-0.577,0.392-0.99,0.392c-0.419,0-0.753-0.131-1.004-0.392c-0.25-0.261-0.375-0.584-0.375-0.97V29.462z
				 M22.968,29.813c0,0.225,0.062,0.415,0.185,0.571s0.3,0.234,0.53,0.234c0.222,0,0.393-0.077,0.515-0.232
				c0.121-0.155,0.182-0.346,0.182-0.574v-0.351c0-0.225-0.062-0.417-0.185-0.576c-0.123-0.16-0.296-0.239-0.521-0.239
				c-0.228,0-0.402,0.08-0.523,0.239c-0.122,0.159-0.183,0.351-0.183,0.576V29.813z M23.915,34.315l-0.496-0.305l3.237-5.181
				l0.496,0.305L23.915,34.315z M25.513,33.191c0-0.385,0.125-0.709,0.374-0.972c0.249-0.262,0.581-0.394,0.997-0.394
				c0.413,0,0.744,0.131,0.995,0.394c0.25,0.263,0.375,0.587,0.375,0.972v0.355c0,0.389-0.125,0.713-0.373,0.974
				c-0.249,0.261-0.579,0.392-0.988,0.392c-0.418,0-0.753-0.13-1.003-0.392c-0.25-0.261-0.376-0.585-0.376-0.974V33.191z
				 M26.178,33.546c0,0.228,0.062,0.42,0.184,0.576c0.123,0.156,0.3,0.234,0.53,0.234c0.222,0,0.393-0.078,0.515-0.234
				s0.182-0.349,0.182-0.576v-0.355c0-0.225-0.063-0.416-0.187-0.574c-0.125-0.158-0.298-0.237-0.519-0.237
				c-0.225,0-0.398,0.079-0.521,0.237c-0.123,0.158-0.184,0.349-0.184,0.574V33.546z"/>
		</g>
	</g>
	<g>
		<g>
			<path fill="#5C5957" d="M186.37,19.63l0.009,0.027c0.012,0.622-0.207,1.143-0.655,1.562c-0.449,0.419-1.043,0.628-1.78,0.628
				c-0.75,0-1.36-0.265-1.833-0.796c-0.472-0.531-0.707-1.205-0.707-2.021V17.85c0-0.816,0.235-1.491,0.707-2.023
				c0.473-0.533,1.083-0.799,1.833-0.799c0.749,0,1.346,0.199,1.789,0.599c0.443,0.399,0.658,0.928,0.646,1.586l-0.009,0.027h-0.861
				c0-0.464-0.136-0.832-0.409-1.102s-0.658-0.405-1.156-0.405c-0.501,0-0.9,0.202-1.197,0.605
				c-0.298,0.404-0.446,0.904-0.446,1.502v1.188c0,0.604,0.148,1.108,0.446,1.511c0.297,0.404,0.696,0.606,1.197,0.606
				c0.498,0,0.883-0.134,1.156-0.403c0.273-0.269,0.409-0.639,0.409-1.113H186.37z"/>
			<path fill="#5C5957" d="M191.16,18.678h-2.722v2.372h3.187v0.701h-4.084v-6.628h4.034v0.706h-3.137v2.144h2.722V18.678z"/>
			<path fill="#5C5957" d="M192.986,21.751v-6.628h2.162c0.692,0,1.234,0.149,1.626,0.448s0.587,0.747,0.587,1.345
				c0,0.285-0.088,0.541-0.264,0.767c-0.177,0.226-0.41,0.398-0.701,0.517c0.434,0.061,0.777,0.249,1.031,0.564
				c0.253,0.316,0.38,0.688,0.38,1.116c0,0.607-0.197,1.07-0.592,1.391s-0.929,0.48-1.603,0.48H192.986z M193.883,17.941h1.453
				c0.333,0,0.605-0.092,0.814-0.275s0.314-0.439,0.314-0.767c0-0.358-0.113-0.626-0.34-0.804c-0.226-0.178-0.552-0.266-0.977-0.266
				h-1.266V17.941z M193.883,18.642v2.408h1.73c0.409,0,0.728-0.101,0.953-0.303c0.227-0.202,0.34-0.488,0.34-0.858
				c0-0.367-0.115-0.663-0.346-0.888c-0.231-0.225-0.542-0.344-0.934-0.359h-0.06H193.883z"/>
			<path fill="#5C5957" d="M202.367,20.044h-2.494l-0.592,1.708h-0.915l2.39-6.628h0.77l2.34,6.628h-0.915L202.367,20.044z
				 M200.133,19.293h1.979l-0.965-2.845h-0.027L200.133,19.293z"/>
			<path fill="#5C5957" d="M208.51,20.081c0-0.3-0.108-0.552-0.324-0.756c-0.215-0.203-0.595-0.376-1.138-0.519
				c-0.674-0.167-1.199-0.413-1.577-0.737s-0.567-0.733-0.567-1.225c0-0.519,0.204-0.952,0.61-1.297
				c0.406-0.346,0.935-0.519,1.584-0.519c0.698,0,1.255,0.198,1.669,0.594c0.414,0.396,0.615,0.858,0.604,1.387l-0.014,0.027H208.5
				c0-0.376-0.131-0.687-0.394-0.933c-0.263-0.246-0.599-0.369-1.009-0.369c-0.419,0-0.739,0.102-0.963,0.305
				c-0.223,0.203-0.334,0.467-0.334,0.792c0,0.288,0.122,0.529,0.366,0.722c0.244,0.192,0.642,0.362,1.19,0.507
				c0.668,0.173,1.176,0.428,1.525,0.765c0.349,0.337,0.523,0.752,0.523,1.247c0,0.534-0.21,0.964-0.631,1.289
				c-0.42,0.325-0.969,0.487-1.646,0.487c-0.641,0-1.206-0.179-1.696-0.537c-0.49-0.358-0.728-0.837-0.712-1.438l0.009-0.027h0.856
				c0,0.416,0.157,0.737,0.473,0.963c0.316,0.226,0.673,0.339,1.07,0.339c0.425,0,0.761-0.096,1.009-0.287
				C208.386,20.668,208.51,20.408,208.51,20.081z"/>
		</g>
		<g>
			<path fill="#5C5957" d="M185.664,34.389h-4.115v-0.614l2.08-2.481c0.37-0.449,0.621-0.806,0.754-1.072
				c0.132-0.266,0.197-0.534,0.197-0.804c0-0.307-0.089-0.558-0.269-0.753c-0.179-0.196-0.426-0.293-0.741-0.293
				c-0.392,0-0.69,0.12-0.895,0.359c-0.205,0.24-0.308,0.539-0.308,0.897h-0.865l-0.009-0.027c-0.016-0.54,0.165-0.998,0.541-1.373
				c0.377-0.375,0.889-0.562,1.535-0.562c0.592,0,1.058,0.164,1.397,0.491c0.34,0.328,0.51,0.751,0.51,1.271
				c0,0.349-0.097,0.69-0.289,1.024c-0.193,0.333-0.486,0.752-0.881,1.256l-1.671,1.958l0.009,0.023h3.019V34.389z"/>
			<path fill="#5C5957" d="M186.588,29.035c0-0.385,0.125-0.71,0.374-0.974c0.249-0.264,0.581-0.396,0.997-0.396
				c0.415,0,0.748,0.131,0.997,0.394c0.248,0.263,0.373,0.588,0.373,0.977v0.351c0,0.385-0.124,0.708-0.371,0.97
				c-0.247,0.261-0.577,0.392-0.99,0.392c-0.419,0-0.754-0.131-1.004-0.392c-0.25-0.261-0.376-0.584-0.376-0.97V29.035z
				 M187.253,29.386c0,0.225,0.062,0.415,0.185,0.571s0.3,0.234,0.53,0.234c0.222,0,0.393-0.077,0.515-0.232
				c0.121-0.155,0.182-0.346,0.182-0.574v-0.351c0-0.225-0.062-0.417-0.185-0.576c-0.122-0.159-0.296-0.239-0.521-0.239
				c-0.228,0-0.402,0.08-0.523,0.239c-0.122,0.16-0.183,0.352-0.183,0.576V29.386z M188.2,33.888l-0.496-0.305l3.236-5.181
				l0.496,0.305L188.2,33.888z M189.798,32.764c0-0.385,0.124-0.709,0.373-0.972c0.249-0.262,0.581-0.394,0.997-0.394
				c0.413,0,0.744,0.131,0.995,0.394c0.25,0.263,0.375,0.587,0.375,0.972v0.355c0,0.389-0.124,0.713-0.373,0.974
				c-0.249,0.261-0.578,0.392-0.987,0.392c-0.419,0-0.754-0.13-1.004-0.392c-0.251-0.261-0.376-0.585-0.376-0.974V32.764z
				 M190.463,33.119c0,0.228,0.062,0.419,0.184,0.576c0.123,0.156,0.3,0.234,0.531,0.234c0.221,0,0.393-0.078,0.514-0.234
				c0.122-0.157,0.183-0.349,0.183-0.576v-0.355c0-0.225-0.063-0.416-0.187-0.574c-0.125-0.158-0.298-0.237-0.52-0.237
				c-0.225,0-0.398,0.079-0.521,0.237c-0.122,0.158-0.184,0.349-0.184,0.574V33.119z"/>
		</g>
	</g>
	<g>
		<g>
			<path fill="#5C5957" d="M191.015,60.564l0.009,0.027c0.013,0.623-0.206,1.143-0.655,1.562c-0.449,0.419-1.042,0.628-1.78,0.628
				c-0.749,0-1.36-0.266-1.832-0.796c-0.472-0.531-0.708-1.205-0.708-2.021v-1.179c0-0.816,0.236-1.491,0.708-2.023
				s1.083-0.799,1.832-0.799c0.75,0,1.347,0.2,1.789,0.599c0.443,0.399,0.659,0.928,0.646,1.587l-0.009,0.027h-0.86
				c0-0.464-0.137-0.832-0.41-1.102c-0.272-0.27-0.658-0.405-1.156-0.405c-0.5,0-0.899,0.202-1.197,0.605
				c-0.297,0.403-0.445,0.904-0.445,1.502v1.188c0,0.604,0.148,1.108,0.445,1.511c0.298,0.404,0.697,0.605,1.197,0.605
				c0.498,0,0.884-0.134,1.156-0.403c0.273-0.269,0.41-0.64,0.41-1.113H191.015z"/>
			<path fill="#5C5957" d="M197.199,62.685h-0.897l-3.191-5.062l-0.027,0.009v5.053h-0.896v-6.628h0.896l3.191,5.058l0.027-0.009
				v-5.049h0.897V62.685z"/>
			<path fill="#5C5957" d="M202.453,59.612h-2.722v2.372h3.187v0.701h-4.084v-6.628h4.033v0.706h-3.136v2.145h2.722V59.612z"/>
			<path fill="#5C5957" d="M207.703,60.978h-2.495l-0.592,1.707h-0.915l2.39-6.628h0.77l2.34,6.628h-0.915L207.703,60.978z
				 M205.468,60.227h1.979l-0.965-2.846h-0.027L205.468,60.227z"/>
		</g>
		<g>
			<path fill="#5C5957" d="M190.31,75.323h-4.116v-0.615l2.081-2.481c0.37-0.449,0.621-0.807,0.753-1.072
				c0.133-0.265,0.198-0.533,0.198-0.803c0-0.307-0.09-0.558-0.269-0.753s-0.427-0.294-0.742-0.294c-0.392,0-0.689,0.12-0.895,0.36
				s-0.308,0.539-0.308,0.897h-0.864l-0.01-0.027c-0.015-0.541,0.166-0.998,0.542-1.373c0.376-0.375,0.888-0.563,1.534-0.563
				c0.592,0,1.058,0.164,1.397,0.492s0.51,0.751,0.51,1.27c0,0.349-0.096,0.691-0.289,1.024c-0.192,0.334-0.486,0.753-0.881,1.257
				l-1.671,1.958l0.01,0.022h3.019V75.323z"/>
			<path fill="#5C5957" d="M191.233,69.969c0-0.386,0.124-0.71,0.373-0.975c0.249-0.264,0.581-0.396,0.997-0.396
				s0.748,0.131,0.997,0.394c0.249,0.262,0.373,0.588,0.373,0.977v0.35c0,0.386-0.123,0.709-0.37,0.97
				c-0.248,0.261-0.578,0.392-0.99,0.392c-0.419,0-0.754-0.13-1.004-0.392c-0.251-0.261-0.376-0.584-0.376-0.97V69.969z
				 M191.898,70.319c0,0.225,0.062,0.416,0.184,0.572c0.123,0.156,0.3,0.234,0.531,0.234c0.221,0,0.393-0.078,0.514-0.232
				c0.122-0.155,0.183-0.346,0.183-0.574v-0.35c0-0.225-0.062-0.417-0.185-0.576c-0.123-0.159-0.297-0.239-0.521-0.239
				c-0.228,0-0.402,0.08-0.523,0.239c-0.121,0.16-0.182,0.352-0.182,0.576V70.319z M192.845,74.822l-0.496-0.305l3.237-5.181
				l0.496,0.305L192.845,74.822z M194.443,73.698c0-0.386,0.124-0.709,0.373-0.972s0.581-0.394,0.997-0.394
				c0.412,0,0.744,0.131,0.994,0.394c0.251,0.263,0.376,0.586,0.376,0.972v0.355c0,0.389-0.124,0.713-0.373,0.974
				c-0.249,0.261-0.578,0.392-0.988,0.392c-0.419,0-0.753-0.13-1.004-0.392c-0.25-0.261-0.375-0.585-0.375-0.974V73.698z
				 M195.107,74.053c0,0.228,0.062,0.419,0.185,0.576s0.3,0.234,0.53,0.234c0.222,0,0.394-0.078,0.515-0.234
				s0.182-0.348,0.182-0.576v-0.355c0-0.225-0.062-0.416-0.187-0.574c-0.124-0.158-0.297-0.237-0.519-0.237
				c-0.225,0-0.398,0.079-0.521,0.237s-0.185,0.349-0.185,0.574V74.053z"/>
		</g>
	</g>
	<g>
		<line fill="none" stroke="#043988" x1="47.212" y1="144.297" x2="75.783" y2="144.297"/>
		<path fill="#043988" d="M45.015,141.883c-1.335,0-2.416,1.08-2.416,2.414c0,1.335,1.081,2.418,2.416,2.418
			c1.332,0,2.414-1.083,2.414-2.418C47.429,142.963,46.347,141.883,45.015,141.883z M45.015,145.537
			c-0.686,0-1.242-0.553-1.242-1.24c0-0.684,0.557-1.238,1.242-1.238c0.684,0,1.239,0.555,1.239,1.238
			C46.254,144.984,45.698,145.537,45.015,145.537z"/>
	</g>
	<g>
		<line fill="#DB6714" stroke="#DB6714" x1="56.772" y1="18.586" x2="133.13" y2="18.586"/>
		<path fill="#DB6714" d="M54.575,16.171c-1.334,0-2.416,1.08-2.416,2.415c0,1.334,1.082,2.416,2.416,2.416
			c1.332,0,2.414-1.082,2.414-2.416C56.989,17.251,55.907,16.171,54.575,16.171z M54.575,19.825c-0.686,0-1.242-0.555-1.242-1.239
			c0-0.686,0.557-1.24,1.242-1.24c0.684,0,1.238,0.555,1.238,1.24C55.813,19.271,55.259,19.825,54.575,19.825z"/>
	</g>
	<g>
		<line fill="#DE9D04" stroke="#DE9D04" x1="171.308" y1="18.586" x2="147.202" y2="18.586"/>
		<path fill="#DE9D04" d="M171.091,18.586c0,1.334,1.078,2.416,2.414,2.416c1.334,0,2.414-1.082,2.414-2.416
			c0-1.335-1.08-2.415-2.414-2.415C172.169,16.171,171.091,17.251,171.091,18.586z M172.265,18.586c0-0.686,0.557-1.24,1.24-1.24
			c0.686,0,1.238,0.555,1.238,1.24c0,0.685-0.553,1.239-1.238,1.239C172.821,19.825,172.265,19.271,172.265,18.586z"/>
	</g>
	<path fill="#F6D448" d="M185.267,63.464c0,1.335,1.08,2.415,2.414,2.415c1.336,0,2.418-1.08,2.418-2.415
		c0-1.333-1.082-2.414-2.418-2.414C186.347,61.05,185.267,62.131,185.267,63.464z M186.442,63.464c0-0.684,0.555-1.239,1.238-1.239
		c0.688,0,1.24,0.556,1.24,1.239c0,0.685-0.553,1.24-1.24,1.24C186.997,64.704,186.442,64.148,186.442,63.464z"/>
	<g>
		<line fill="#D5001E" stroke="#D5001E" x1="46.905" y1="73.408" x2="55.462" y2="73.408"/>
		<path fill="#D5001E" d="M44.708,70.99c-1.332,0-2.414,1.082-2.414,2.418c0,1.332,1.082,2.414,2.414,2.414
			c1.334,0,2.416-1.082,2.416-2.414C47.124,72.072,46.042,70.99,44.708,70.99z M44.708,74.646c-0.686,0-1.24-0.555-1.24-1.238
			c0-0.688,0.555-1.241,1.24-1.241c0.684,0,1.24,0.554,1.24,1.241C45.948,74.092,45.392,74.646,44.708,74.646z"/>
	</g>
	<line fill="none" stroke="#D5001E" x1="55.462" y1="73.408" x2="55.462" y2="58.083"/>
	<line fill="none" stroke="#D5001E" x1="55.462" y1="58.083" x2="82.921" y2="58.083"/>
	<line fill="none" stroke="#DB6714" x1="133.13" y1="18.854" x2="133.13" y2="57.396"/>
	<line fill="none" stroke="#DE9D04" x1="147.202" y1="18.586" x2="147.202" y2="54.785"/>
	<line fill="none" stroke="#F6D448" x1="155.516" y1="63.652" x2="189.032" y2="63.652"/>
</g>
</svg>
