<?xml version="1.0" encoding="utf-8"?>
<!-- Generator: Adobe Illustrator 14.0.0, SVG Export Plug-In . SVG Version: 6.00 Build 43363)  -->
<!DOCTYPE svg PUBLIC "-//W3C//DTD SVG 1.1//EN" "http://www.w3.org/Graphics/SVG/1.1/DTD/svg11.dtd">
<svg version="1.1" id="Layer_1" xmlns="http://www.w3.org/2000/svg" xmlns:xlink="http://www.w3.org/1999/xlink" x="0px" y="0px"
	 width="841.89px" height="595.279px" viewBox="0 0 841.89 595.279" enable-background="new 0 0 841.89 595.279"
	 xml:space="preserve">
	 <defs>
	    <style type="text/css">
	      <![CDATA[
	          @font-face {
			    font-family: RobotoRegular;
			    src: url('Roboto-Regular-webfont.svg#RobotoRegular') format("svg");
	        }
	        @font-face {
			    font-family: RobotoBold;
			    font-weight: bold;
			    src: url('Roboto-Bold-webfont.svg#RobotoBold') format("svg");
	        }
	      ]]>
	   </style>
	  </defs>
<g>
	<defs>
		<filter id="Adobe_OpacityMaskFilter" filterUnits="userSpaceOnUse" x="351.974" y="393.766" width="139.631" height="13.557">
			<feFlood  style="flood-color:white;flood-opacity:1" result="back"/>
			<feBlend  in="SourceGraphic" in2="back" mode="normal"/>
		</filter>
	</defs>
	<mask maskUnits="userSpaceOnUse" x="351.974" y="393.766" width="139.631" height="13.557" id="SVGID_1_">
		<g filter="url(#Adobe_OpacityMaskFilter)">
			<defs>
				
					<filter id="Adobe_OpacityMaskFilter_1_" filterUnits="userSpaceOnUse" x="351.974" y="393.766" width="139.631" height="13.557">
					<feFlood  style="flood-color:white;flood-opacity:1" result="back"/>
					<feBlend  in="SourceGraphic" in2="back" mode="normal"/>
				</filter>
			</defs>
			<mask maskUnits="userSpaceOnUse" x="351.974" y="393.766" width="139.631" height="13.557" id="SVGID_1_">
				<g filter="url(#Adobe_OpacityMaskFilter_1_)">
				</g>
			</mask>
			
				<linearGradient id="SVGID_2_" gradientUnits="userSpaceOnUse" x1="-242.4626" y1="634.0559" x2="-102.8318" y2="634.0559" gradientTransform="matrix(-1 0 0 -1 249.1421 1034.6001)">
				<stop  offset="0" style="stop-color:#1A1A1A"/>
				<stop  offset="1" style="stop-color:#FFFFFF"/>
			</linearGradient>
			<rect x="351.974" y="393.766" mask="url(#SVGID_1_)" fill="url(#SVGID_2_)" width="139.631" height="13.557"/>
		</g>
	</mask>
	
		<linearGradient id="SVGID_3_" gradientUnits="userSpaceOnUse" x1="-242.4626" y1="634.0559" x2="-102.8318" y2="634.0559" gradientTransform="matrix(-1 0 0 -1 249.1421 1034.6001)">
		<stop  offset="0" style="stop-color:#D7581C"/>
		<stop  offset="1" style="stop-color:#DB6612"/>
	</linearGradient>
	<rect x="351.974" y="393.766" fill="url(#SVGID_3_)" width="139.631" height="13.557"/>
	<g opacity="0.4">
		<g>
			<text transform="matrix(1 0 0 1 497.9065 404.1692)" fill="#DB1F26" font-family='RobotoBold,sans-serif' font-size="11.619">-</text>
		</g>
	</g>
	<g>
		<g>
			<text transform="matrix(1 0 0 1 339.5554 404.1692)" fill="#DB1F26" font-family='RobotoBold,sans-serif' font-size="11.619">+</text>
		</g>
	</g>
</g>
<g>
	<g opacity="0.1">
		<g>
			<text transform="matrix(1 0 0 1 367.3962 199.0842)" fill="#DF6D27" font-family='RobotoBold,sans-serif' font-size="11.619">3%</text>
		</g>
	</g>
	<g opacity="0.6">
		<g>
			<text transform="matrix(1 0 0 1 470.2961 216.1448)" fill="#DF6D27" font-family='RobotoBold,sans-serif' font-size="11.619">15%</text>
		</g>
	</g>
	<g>
		<g>
			<text transform="matrix(1 0 0 1 464.4739 365.1008)" fill="#DF6D27" font-family='RobotoBold,sans-serif' font-size="11.619">50%</text>
		</g>
	</g>
	<g opacity="0.2">
		<g>
			<text transform="matrix(1 0 0 1 364.2556 305.3596)" fill="#DF6D27" font-family='RobotoBold,sans-serif' font-size="11.619">7%</text>
		</g>
	</g>
	<g opacity="0.8">
		<g>
			<text transform="matrix(1 0 0 1 368.5203 356.8049)" fill="#DF6D27" font-family='RobotoBold,sans-serif' font-size="11.619">25%</text>
		</g>
	</g>
	<line fill="#DB6612" stroke="#D6001C" stroke-width="0.5" x1="470.937" y1="321.562" x2="470.937" y2="348.957"/>
	<g>
		<line opacity="0.7" fill="none" stroke="#DB6612" stroke-width="0.5" x1="421.125" y1="353.374" x2="393.73" y2="353.374"/>
	</g>
	<line opacity="0.1" fill="#DB6612" stroke="#D6001C" stroke-width="0.5" x1="374.086" y1="201.821" x2="374.086" y2="229.215"/>
	<g>
		<polygon opacity="0.6" fill="#DB6612" points="486.482,272.005 487.157,272.477 487.966,272.68 488.839,273.218 489.784,273.757 
			490.863,274.837 491.134,275.039 490.796,275.51 489.718,276.992 488.909,277.869 488.236,278.88 487.695,278.946 
			487.023,278.813 486.618,278.341 486.212,277.869 485.943,277.263 486.011,276.656 486.618,276.588 486.952,275.712 
			487.023,274.432 486.952,273.489 486.618,272.948 486.212,272.477 486.212,271.938 		"/>
		<polygon opacity="0.6" fill="#DB6612" points="485.943,271.062 486.55,271.4 487.292,271.871 488.032,272.14 488.839,272.545 
			489.316,272.882 489.919,273.218 490.661,273.757 491.267,274.163 491.874,274.364 492.48,273.826 493.491,273.015 
			494.368,271.938 495.042,271.13 495.515,270.657 495.784,269.848 495.919,269.309 494.907,269.041 494.032,269.175 
			493.425,269.378 493.087,270.322 492.347,270.724 491.402,270.86 490.323,270.86 489.316,270.86 488.708,270.591 488.032,270.186 
			487.63,269.848 487.089,269.848 486.482,270.186 486.146,270.657 		"/>
		<path opacity="0.6" fill="#DB6612" d="M488.101,254.281h0.607l0.877,0.336l0.807,0.404l1.08,0.068h1.277h1.08l0.943,0.135
			l0.742,0.404l0.471,0.607v0.472l0.404,1.01v0.741l0.135,1.079l-0.203,0.405h-1.145h-1.348l-0.877-0.337l-0.605-0.135l-0.404,0.135
			l-0.471,0.471l-0.07,0.54l-0.135,0.607h-0.672l-0.34-0.472l-0.873,0.066h-0.34l-0.203-0.471l0.543-0.944v-0.674l-1.014-0.201
			l-0.943,0.134l-0.537,0.539l-0.945,0.539c0,0-0.471,0.135-0.672,0.135c-0.205,0-0.674,0.068-0.674-0.135
			c0-0.202,0.605-1.011,0.605-1.011l0.473-0.808l1.012-1.551L488.101,254.281z"/>
		<path opacity="0.6" fill="#DB6612" d="M484.193,260.818l-0.34,0.877l0.137,0.607l0.336,0.538l-0.133,0.81l-0.135,0.606
			l0.402,0.203l0.811,0.068l1.076-0.203l0.877-0.606l1.08-0.673l0.404-0.068l1.076,0.202l0.135,0.673l-0.27,0.336l-0.334,1.146
			v0.473l0.201,0.268l0.605,0.136l0.473-0.607l0.877-0.607h0.605l1.281-0.2l1.076-0.27l0.811-0.743l0.539-0.405l0.605-0.133h1.148
			v-0.675c0,0,0.064-0.808-0.137-0.875c-0.203-0.068-0.404-0.742-0.404-0.742l-0.338-0.27l-1.617-0.27h-1.078l-0.943-0.066h-0.809
			l-0.338,0.672l-0.539,0.743l-0.807,0.134l-0.609-0.471l-0.674,0.067l-0.471,0.27l-0.471-0.405l-0.473-0.673l0.336-1.011
			l0.473-0.674h-0.607l-0.74,0.404l-0.34,0.54l-0.605,0.269l-0.404,0.067l-0.941,0.068L484.193,260.818z"/>
		<path opacity="0.2" fill="#DB6612" d="M397.094,269.153l11.547,0.179l0.314-0.765l0.404-1.123l0.089-1.124v-0.944l0.182-0.718
			l0.178-0.583l0.315,0.043l0.18,0.225l0.09,0.54l0.404,0.765l0.361,1.211l0.222,1.89l0.541,0.538l3.011,2.472l1.213,0.179
			l4.896,0.181l10.695,0.447l7.771,0.541l-0.043,0.404l-0.316,1.033l-1.078,3.011c0,0-0.133-0.09-0.088,1.303
			s0.045,4.314,0.045,4.314l0.268,1.167c0,0,0.045,1.302-0.492,2.021c-0.541,0.719-0.809,2.066-0.809,2.066l-0.406,2.517
			l-0.447,0.719l-0.945,0.495l-0.764,0.718l-0.631,0.899l-0.27,0.809l-0.535,0.314l-0.945,0.63l-0.766,0.675l-0.896,1.481
			l-0.811,1.169l-0.674,0.896l-0.584,0.677l-0.09,0.627l-0.043,0.9l0.312,0.492l-0.045,0.317v0.762h-1.438l-0.135-0.493l0.135-0.899
			l-0.135-0.495l-0.357-0.72l-0.676-0.044l-0.719,0.495l-0.404,0.357c0,0-0.629,0-0.898,0s-0.9-0.269-0.9-0.269l-0.537,0.091
			l-1.664,0.089l-1.078-0.45c0,0-0.179-0.179-0.762-0.581c-0.586-0.406-1.035-0.362-1.215-0.362s-1.124-0.089-1.573,0.092
			c-0.449,0.178-0.225,0.224-0.674,0.224s-0.989,0.358-1.123,0.449c-0.137,0.09-0.583,0.811-0.583,0.811l-0.271,0.495l-0.81-0.046
			h-0.313l-0.403-0.406l-0.944-0.583l-0.763-0.181l-0.854-0.585l-0.313-0.447l-0.225-1.528v-0.584l0.359-0.27l0.134-0.584v-0.493
			l-6.92-0.047l-0.134-1.303l-0.271-1.302l-0.224-0.314l-0.405-0.314l-0.226-0.585h0.765l0.134-0.943l-0.179-1.348l-0.36-0.538
			l-0.359-2.384l-0.449-0.358l0.54-0.495l2.022-2.965l0.045-2.786l-0.405-0.539l-0.225-0.764l0.134-0.584
			c0,0,0.268-0.854,0.134-1.033c-0.134-0.181-0.268-0.405-0.404-0.539c-0.135-0.136-1.168-0.404-1.168-0.404
			s-1.076-0.405-1.212-0.405c-0.136,0-3.056,0.046-3.056,0.046l0.09-1.797l-0.406-0.765l0.225-0.943L397.094,269.153z"/>
		<path opacity="0.2" fill="#DB6612" d="M411.202,302.355l0.224,1.036c0,0,0.495,0.628,0.54,0.807c0.044,0.182,0.044,0.9,0.044,0.9
			l-0.63,0.719l-0.089,1.168c0,0,0.226,0.897,0.179,1.033c-0.044,0.134-0.718,1.033-0.718,1.033l-0.629,0.719l-0.091,0.674
			l0.54,0.674l-0.405,0.808c0,0-0.223,0.452-0.27,0.63c-0.044,0.183,0.226,0.583,0.226,0.811c0,0.224,0.358,0.988,0.358,1.123
			c0,0.134,0.228,0.718,0.228,0.718v1.214l0.133,1.661v0.989l1.349,0.134l0.314,0.092h1.708l1.932-0.046l1.258,0.269l0.854,0.272
			l0.493,0.492l0.405,0.809l0.182,1.078v0.988l0.312,0.271l0.359,0.583l0.089,0.809l0.181,1.078l0.314,0.404l1.08-0.089l0.537-0.315
			l0.629-0.314l0.811,0.046l0.359,0.403l0.494,0.09l0.359-0.447l0.09-1.034l0.809-0.63l0.135-0.629l0.494-0.629l0.584-0.675
			l1.797-0.943l0.674-0.673l1.123-1.034l1.799-1.393c0,0,0-0.583,0.045-0.719c0.043-0.133,0.492-0.675,0.492-0.675l0.094-0.809
			l0.627-0.989l0.943-1.302l0.719-0.942l0.719-0.586l0.316-0.225v-2.65l-1.035-0.315l-1.395-0.449c0,0-1.48-0.765-1.705-0.942
			c-0.225-0.18-0.854-0.449-1.035-0.586c-0.18-0.135-0.896-0.179-1.123-0.179c-0.225,0-0.719,0.091-0.943-0.09
			c-0.223-0.179,0-1.438,0-1.438s-0.809-0.224-0.896-0.405c-0.092-0.179,0.088-0.403-0.182-0.539
			c-0.27-0.134-0.943-0.134-1.256-0.134c-0.316,0-1.08,0-1.08,0l-0.27-0.854l0.359-0.406l0.225-0.536l0.18-0.675l-0.359,0.133
			l-0.225,0.183l-0.764,0.312h-0.854c0,0-0.854,0.047-0.988,0.047c-0.137,0-0.988,0.087-0.988,0.087s-0.763,0-1.034,0
			c-0.27,0-0.675,0.047-0.944-0.134c-0.27-0.18-0.809-0.358-0.944-0.402c-0.136-0.045-1.032-0.632-1.032-0.632
			s-0.359-0.179-0.539-0.179c-0.181,0-0.944,0.134-1.078,0.134c-0.135,0-1.124,0.36-1.124,0.36l-0.583,0.451l-0.586,0.448
			l-0.583,0.584l-0.449,0.046c0,0-0.674-0.091-0.854-0.135C412.056,302.85,411.202,302.355,411.202,302.355z"/>
		<path opacity="0.2" fill="#DB6612" d="M439.325,284.159l0.811,0.495l0.766,0.584l0.764,0.134l0.764,0.72l0.943,0.269l0.18-1.212
			l0.582-0.36l1.35-0.044l0.135,0.808l0.18,0.584l0.539,0.091l0.943-0.091l0.764,0.091l0.629,0.359l0.314,0.179l0.988,0.045v-0.494
			l0.943-0.224l0.674-0.406l0.943-0.223l0.945-0.271l0.809-0.18l0.539,0.045l0.045,1.394l-0.316,0.18l0.092,2.382l0.314,0.403
			l0.404,0.541l0.27,0.178v1.483l-0.088,0.27l-0.406-0.045l-0.494-0.403l-0.541-0.229l-0.584,0.047l-0.178,0.54v0.447l-0.811,0.182
			l-0.539,0.09v0.585v1.257l0.182,0.492v0.271l0.09,0.539l-0.584,0.047l-0.855,0.089l-0.494,0.944l-0.18,0.718l-0.045,0.72
			l0.182,0.583l0.268,0.314l0.359,0.54l0.047,0.404l-0.541,0.448l-0.494,0.539l-0.18,0.495l0.09,0.54l0.406,0.178l0.178,0.315v0.809
			v0.405l-0.539,0.405l-0.674,0.358l-0.494,0.537l-0.135,0.362l-0.494-0.271l-0.854-0.181h-1.033l-1.168-0.044
			c0,0-0.584,0.133-0.719,0.133s-0.811,0.226-0.811,0.226l-0.537,0.449l-1.078-0.089l-1.439,0.225c0,0-0.629,0.134-0.762,0.134
			c-0.135,0-0.766,0.631-0.766,0.631l-0.674,0.808l-0.494,0.539l-0.809,0.943l-0.852-0.63l-0.945-0.493c0,0-0.539-0.313-0.764-0.313
			s-1.123-0.539-1.258-0.539c-0.133,0-0.764-0.496-0.9-0.54c-0.135-0.046-0.359-0.358-0.764-0.495
			c-0.404-0.134-0.852-0.312-0.852-0.312l-0.406-0.45l-0.09-0.494l-0.674-0.406l-0.178-0.807v-0.722l-0.137-0.628l-0.135-1.256
			l0.584-1.305l0.674-0.36l0.674-0.582l0.314-0.945l1.305-1.527l0.762-0.269l0.855-0.36l0.135-0.449l0.359-0.988l0.674-0.942
			l0.582-0.271l0.809-0.628l0.273-0.763l0.4-1.753l0.494-0.944l0.227-0.946c0,0,0-0.58,0.18-0.942
			c0.18-0.36,0.225-1.213,0.404-1.302c0.182-0.089,0.361-0.943,0.361-0.943L439.325,284.159z"/>
		<polygon opacity="0.7" fill="#DB6612" points="424.906,326.708 424.906,328.417 424.816,329.764 424.816,331.247 424.232,331.92 
			423.962,332.102 424.275,332.281 424.681,332.281 424.995,332.012 425.265,332.144 425.804,333 426.118,333.628 426.3,334.483 
			427.152,334.885 428.187,335.066 429.173,335.156 430.251,335.2 431.331,335.336 431.734,335.652 432.677,335.92 434.115,336.234 
			435.238,336.279 435.552,335.965 435.599,335.47 435.87,334.885 436.947,334.841 437.531,334.795 438.027,334.258 
			438.382,333.941 439.325,333.941 440.587,333.941 441.573,333.941 441.8,334.436 442.247,334.661 442.697,334.616 
			443.282,334.169 443.866,334.031 444.495,334.031 445.214,334.031 445.661,334.301 445.978,334.301 446.247,333.809 
			446.427,333.179 446.876,332.73 447.011,332.324 447.325,332.102 447.279,331.426 446.876,331.112 446.292,331.112 
			445.753,331.068 445.529,330.888 445.573,330.212 445.573,329.674 443.056,329.674 442.831,328.687 442.743,327.697 
			442.339,327.023 441.755,326.53 441.708,325.944 441.573,324.686 441.484,323.698 440.902,323.115 440.134,323.024 
			437.353,322.981 436.677,322.529 436.226,322.26 435.687,322.126 435.238,322.035 433.982,321.946 432.544,321.855 
			432.05,321.855 431.06,321.855 430.298,321.9 429.443,321.9 428.993,321.9 428.23,322.26 427.466,322.89 426.702,323.608 
			426.433,324.238 425.534,325.226 425.22,325.857 		"/>
		<path opacity="0.7" fill="#DB6612" d="M430.116,320.912l1.303,0.091l1.35,0.088h1.076l1.037,0.091l0.809,0.178l0.852,0.54
			l0.629,0.181h1.26h0.986h1.17l0.629,0.137l0.268,0.403l0.406,0.403l0.357,0.359l0.182,0.494v0.721v0.538l0.043,0.585l0.18,0.449
			l0.227,0.089l0.135,0.449l0.314,0.406l0.09,0.491l-0.045,0.72l0.045,0.405l0.943,0.044h1.258l0.404,0.091l0.225,0.449l0.045,0.63
			l0.135,0.268l0.629,0.045l0.631,0.227l0.133,0.223l0.449-0.134l0.449-0.719l0.943-0.539c0,0,0.449-0.358,0.539-0.495
			c0.092-0.133,1.393-0.897,1.393-0.897l0.854-0.766l0.496-0.403l0.896-0.358l0.629-0.225l0.496-0.091l0.586-0.585l2.289-0.046
			l0.359-0.627l1.035-0.631l0.535-0.224l0.902-0.09l0.582-0.133l-0.045-0.407l0.045-0.402l0.541-0.54v-0.809h-0.676l-0.672-0.449
			h-0.811l-0.762,0.315l-0.721,0.269l-0.629,0.314l-0.764,0.269c0,0,0,0.36-0.135,0.406c-0.135,0.045-1.303,0.045-1.303,0.045
			l-1.033,0.044l-0.494-0.225l-0.406-0.811l-0.178-0.582c0,0-0.223-0.584-0.27-0.718c-0.047-0.138-0.047-1.034-0.047-1.034
			l-0.043-0.943l0.043-0.629l0.135-0.631l-0.674-0.18c0,0-0.672,0-0.807-0.27c-0.137-0.269-0.541-0.808-0.541-0.942
			c0-0.134-0.225-0.674-0.225-0.896c0-0.227-0.043-0.721-0.043-1.036c0-0.313-0.047-0.494-0.047-0.629
			c0-0.136-0.312-0.896-0.312-0.896l-0.496-0.361l-0.674-0.091l-0.539,0.136l-1.168,0.225h-1.438l-0.584,0.045l-0.27,0.585
			l-0.18,0.45l-0.674-0.314l-0.809-0.315l-0.449-0.675c0,0-0.271-0.404-0.586-0.448c-0.312-0.046-0.672-0.046-1.123-0.046
			c-0.449,0-1.705,0-1.705,0l-0.855-0.269l-0.539-0.046l-0.539,0.268l-0.762,0.405l-0.541,0.722l-1.033,0.808l-0.809,0.988
			l-0.225,0.674l-0.586,0.854l-0.088,0.72l-0.406,0.628l-0.043,0.586l-0.404,0.672l-0.809,0.584l-0.855,0.766L430.116,320.912z"/>
		<path fill="#DB6612" d="M461.435,320.823l1.211-0.717l0.719-0.138l1.35-0.089l0.898-0.224h0.494h0.674l0.9-0.271l0.762-0.403
			l0.406-0.182l0.494-0.224l0.357-0.36l0.494-0.583l0.18-0.81l0.18-0.585l0.045-0.536l0.629-0.405l0.271,0.18l0.225,0.494
			c0,0,0.357,0.18,0.494,0.268c0.133,0.091,0.719,0.183,0.719,0.183h0.943h0.404l0.045,1.438l0.225,0.404l-0.045,0.405l-0.404,0.269
			l-0.719,0.404l-0.314,0.179l-0.629,0.181l-0.586,0.449l-0.312,0.584l-0.406,0.627l-0.225,0.361v0.496l-0.852,0.087
			c0,0-1.213,0-1.35,0c-0.133,0-1.076,0-1.076,0l-0.406-0.358v-0.449h-0.629l-0.449,0.047v0.717l-0.314,0.36
			c0,0-1.078-0.046-1.213-0.046s-0.629-0.18-0.629-0.18l-0.674-0.178l-0.359,0.403l-0.359,0.135l-0.225-0.404l0.268-0.63
			l-0.178-0.493l-0.449-0.18L461.435,320.823z"/>
		<path fill="#DB6612" d="M472.218,315.386l0.537,0.225l0.494,0.225l1.438-0.18l0.361-0.403l0.449-0.451l0.361-0.492l0.582-0.72
			l0.539-0.766l0.27-0.492l0.359-0.943l0.18-0.854l0.9-0.449c0,0,0.312-0.181,0.312-0.36c0-0.179,0.135-1.124,0.135-1.124
			l0.135-1.524v-1.17l-0.314-0.898l-0.584-0.358l-0.674-0.493l-0.539-0.137h-1.033l-0.449,0.179l-0.404,0.27l-0.404,0.314v0.541
			l0.043,0.494l0.092,0.673l0.27,0.586l-0.27,0.404l-0.045,0.356v0.677l-0.135,0.853l-0.27,1.033l-0.27,0.584l-0.449,0.539
			l-0.225,0.584l-0.225,0.405l-0.719,0.136l-0.539,0.269l-0.047,0.763l-0.045,0.765l-0.088,0.854L472.218,315.386z"/>
		<path fill="#DB6612" d="M437.318,310.353l0.035,0.406l1.178-0.034h1.145l1.215,0.066l1.617,0.035l0.809,0.405l0.371,0.402
			l0.338,0.405h0.639l0.201-0.271c0,0,0.17-0.235,0.404-0.235c0.238,0,0.844,0.033,1.08,0s0.506-0.203,0.641-0.203
			c0.133,0,1.043-0.099,1.043-0.099s0.742-0.137,0.844-0.137s0.908,0,0.908,0l0.574,0.203l0.336,0.336l0.338,0.405l0.203,0.708
			l0.203,0.74v0.742l0.166,0.639l0.102,0.338l0.27,0.439l0.404,0.471l0.473,0.27l0.404,0.102l0.504,0.235l0.17,0.473l-0.033,0.572
			l-0.068,0.539l-0.203,0.473v0.672l0.035,0.641l0.201,0.54l0.17,0.303l0.301,0.474l0.035,0.469l0.068,0.34h0.572l0.842-0.036
			l0.168-0.438l0.371-0.47l0.572-0.204l0.203,0.204c0,0,0.471,0.032,0.574-0.035c0.1-0.068,0.404-0.235,0.404-0.235l0.74-0.237
			l0.537-0.302l0.439-0.237l0.877-0.201l0.742-0.167l0.504-0.203l0.541-0.168l0.775-0.169l0.74-0.101l0.504-0.103l0.574-0.067h1.01
			l0.709-0.032l0.742-0.271c0,0,0.773-0.336,0.773-0.438c0-0.1,0.742-0.573,0.742-0.573l0.404-0.572l0.338-0.843l0.301-0.809
			l0.271-0.506l0.336-0.606l0.373-0.474l0.199-0.673l0.238-0.773l0.438-0.539l1.01-0.035l0.27-0.438l0.338-0.809l0.436-0.572
			c0,0,0.035-0.438,0.035-0.604c0-0.171,0.238-1.148,0.238-1.148l-0.137-0.572l-0.234-0.304l0.098-0.706l0.34-0.203l-0.035-0.605
			l-0.371-0.271c0,0,0.035-0.471,0.035-0.605c0-0.136,0.305-0.676,0.305-0.676l0.166-0.269c0,0,0.035-0.471,0.27-0.607
			c0.236-0.135,0.473-0.201,0.473-0.201l0.27-0.033l0.303,0.067h0.777h0.537l0.066-0.303l-0.74-0.675c0,0-0.438-0.642-0.473-0.74
			c-0.033-0.102,0.068-1.114,0.068-1.114l0.168-1.009l0.373-0.204h0.572l0.066-0.538l0.27-0.641l0.371-0.438l0.336-0.404l0.035-0.81
			l-0.844-0.403l-0.605-0.27l-0.709-0.27c0,0-0.438,0-0.539,0s-0.742,0-0.742,0h-0.469l-0.508,0.202h-0.438l-0.133-0.473
			l-0.139-0.674l-0.535-0.471l-0.34-0.438l-0.371-0.17c0,0-0.471-0.066-0.605-0.066c-0.133,0-0.74,0-0.74,0l-0.338-0.033
			l-0.607-0.236l-1.178-0.641l-0.777-0.606l-0.57-0.472c0,0-0.406-0.033-0.541-0.033s-0.639,0.066-0.639,0.066l-0.068,0.337
			l-0.473,0.033l-0.809-0.033l-0.572-0.608l-0.168-0.402l-0.17-0.369l-0.471-0.305l-0.605-0.102l-0.607,0.035l-1.213,0.842
			l-2.055,1.313l-1.854,0.909l-0.844,0.271l-0.539,0.236l-0.068-0.911c0,0-0.404-0.472-0.504-0.472c-0.102,0-0.641,0-0.641,0
			l-0.404,0.506l-0.572,0.201l-0.338,0.101l0.033,0.979l0.203,0.706l-0.035,0.777l-0.135,0.572l-0.604,0.337l-0.541-0.067
			l-0.572,0.271l-0.068,0.605l-0.068,1.011l0.34,0.471l0.064,0.573l0.068,0.606l-0.068,0.572l-0.504,0.37l-0.236,0.44l0.102,0.54
			l0.268,0.134l0.104,0.573l-0.137,0.774l0.102,0.641c0,0-0.201,0.204-0.268,0.404c-0.068,0.202-0.641,0.742-0.641,0.742
			l-0.775,0.304l-0.641,0.605l-0.369,0.404l-0.439-0.506c0,0-0.539-0.369-0.707-0.369s-0.676,0-0.676,0h-1.012l-0.908-0.034
			l-0.539,0.102l-0.371,0.438l-0.539,0.2l-0.775,0.068l-0.709,0.134l-0.908,0.135l-0.674,0.034c0,0-0.404,0.033-0.506,0.136
			c-0.102,0.099-0.504,0.235-0.605,0.572s-0.979,1.348-0.979,1.348s-0.641,0.811-0.742,0.977
			C437.318,309.815,437.318,310.353,437.318,310.353z"/>
		<path opacity="0.7" fill="#DB6612" d="M426.792,335.696v0.989l0.045,0.985l0.09,0.539l0.764,0.048h0.988l0.898,0.046l0.988,0.131
			l1.348,0.362l0.811,0.358l0.627,0.137l0.811,0.268l0.721,0.181l0.582,0.314l3.146,3.009l0.672,0.225l0.9-0.045h0.988
			c0,0,0.27-0.134,0.357,0.138c0.092,0.269,0.271,0.58,0.271,0.58l-0.092,0.54l-0.225,0.495l-0.539,0.584l-0.223,0.496l0.537,0.134
			l0.541,0.225l0.359-0.54l0.764-0.674l0.674-0.583l1.213-0.63c0,0,0.314-0.271,0.359-0.449c0.045-0.178,0.359-1.304,0.359-1.304
			l0.27-0.985l0.09-1.081v-1.033l-0.045-1.214c0,0,0-0.898,0-1.031c0-0.136-0.045-1.124-0.045-1.124l-0.135-0.628l-0.809-0.631
			h-0.721l-0.582,0.225l-0.359,0.314l-0.404,0.092l-0.764,0.224l-0.404-0.181l-0.27-0.314l-0.271-0.313l-0.674,0.045l-0.584,0.044
			l-0.898,0.134h-0.584l-0.494,0.541l-0.402,0.315l-0.766-0.046l-0.27,0.269l-0.404,0.54l-0.227,0.495h-0.539h-0.627l-0.674-0.091
			l-0.941-0.091l-0.902-0.224l-0.762-0.27l-0.719-0.226l-0.721-0.089h-0.494l-1.123-0.182l-0.854-0.087L426.792,335.696z"/>
		<path opacity="0.7" fill="#DB6612" d="M412.415,350.163l0.718-0.09l0.631-0.405l0.717-0.269l0.676,0.134l0.627,0.676l1.035,0.896
			l0.854,0.944v0.585l0.359,0.404l0.494-0.135l0.582-0.317l0.407-0.223l0.448,0.406l0.271,0.312l0.403,0.54l0.586,0.495l0.673-0.134
			l0.582,0.583l0.676,0.312l0.494,0.358l0.584,0.677l0.449,0.583l0.674-0.044l0.719,0.54l0.135,0.446l0.494,0.451l0.494,0.675
			c0,0,0.18,0,0.314,0.087c0.135,0.093,0.676,0.449,0.676,0.449l0.357,0.408l-0.045,1.032l-0.359,0.495c0,0-0.584,0.313-0.584,0.45
			c0,0.132-0.045,1.84-0.045,1.84l0.449-0.359l0.674-0.495l0.943-0.449l0.404-0.762l0.766-0.81l0.268-1.169l0.404-1.124l0.406-0.673
			v-1.169l0.402-0.672l0.541-0.449l0.043-1.035l0.988-0.225l0.496-0.356l0.135-1.081l0.629-0.449l0.449-1.887l0.402-0.224
			l0.631,0.178l0.045,0.314l0.494,0.181l0.361-0.403l0.492-0.136h0.676l-0.045,1.078l-0.451,0.45l-0.537,0.763l-0.943,0.853
			l-0.451,0.81l-0.406,0.631l-0.895,0.58l-0.992,0.633c0,0-0.584,0.269-0.717,0.356c-0.135,0.091-0.496,0.317-0.496,0.317
			l0.047,0.539l0.357-0.046l0.494-0.044l0.764-0.361l0.898-0.674l0.857-0.808l0.852-0.811l0.941-1.076l1.08-1.482l0.674-1.26
			l0.764-1.571l0.316-0.854l0.449-1.033l-0.404-0.27l-0.584-0.135l-0.092-0.854l0.359-0.898l0.494-0.764v-0.359l-1.213,0.091
			l-0.988-0.225l-0.717-0.18l-0.945-0.946l-0.539-0.627l-0.719-0.674c0,0-0.764-0.448-0.941-0.584
			c-0.182-0.135-1.037-0.359-1.037-0.359s-0.943-0.36-1.213-0.404c-0.268-0.043-1.078-0.043-1.348-0.181
			c-0.27-0.134-1.393-0.314-1.527-0.358s-0.811-0.36-1.662-0.314c-0.854,0.046-1.932,0.046-2.246,0.046s-0.988,0-0.988,0
			l-0.674,0.493l-0.764,0.539l-1.033,0.493l-0.809,0.495l-0.721,0.449l-0.718,0.403l-7.996,8.087L412.415,350.163z"/>
		<path opacity="0.6" fill="#DB6612" d="M455.851,240.531l0.775,0.066l0.674,0.574l0.574,0.067l0.906,0.034l0.746,0.303l0.467,0.641
			l0.947,0.708c0,0,0.473,0.64,0.473,0.74c0,0.103,0.131,0.574,0.131,0.708c0,0.135,0,0.708-0.1,0.742
			c-0.1,0.033-0.74,0.673-0.74,0.673l-0.168,0.641l0.066,0.809l0.473,0.403l0.605-0.168l0.303-0.674l0.742-0.405h0.607l0.303-0.403
			c0,0,0.303-0.372,0.537-0.372c0.238,0,1.281-0.034,1.281-0.034l0.541-0.27l0.438-0.201l0.844,0.168l0.707,0.336l0.842,0.54
			l0.639,0.304l1.113,0.135l0.639,0.168l-0.064,0.641l-0.473,0.505l-0.74,0.405l-0.305,0.201l-1.078,0.237l-0.473,0.942
			l-0.539,0.943l-0.404,0.708c0,0-0.066,1.213-0.066,1.819s0.303,1.146,0.303,1.381c0,0.236,0.234,0.944,0,1.214
			c-0.236,0.269-0.438,1.112-0.674,1.313c-0.236,0.203-0.135,1.113-0.135,1.113l0.066,0.539l0.643,0.742l-0.137,0.977l-0.404,0.539
			l-0.875,0.068c0,0-0.541-0.236-0.674-0.236c-0.135,0-0.844,0.033-0.844,0.033l-0.773,0.068l-0.508,0.271l-0.742,0.638
			l-0.639,0.676l-0.877,0.842l-0.84,0.337l-1.484,0.406l-0.943,0.808l-0.439,1.009l-0.1,0.676c0,0-0.201,0.841-0.236,0.975
			c-0.033,0.136-0.541,0.877-0.607,0.979c-0.066,0.1-0.404,1.179-0.404,1.279c0,0.102,0.068,1.214,0.068,1.214l0.236,0.54
			c0,0,0.234,0.538,0.135,0.639c-0.102,0.101-0.066,1.449-0.066,1.449l-0.406,0.54c0,0-0.572-0.202-0.707-0.235
			c-0.135-0.034-0.607-0.338-0.607-0.338s-0.305-0.876-0.336-1.078c-0.033-0.202-0.066-0.977-0.203-1.146
			c-0.135-0.168-0.438-0.371-0.605-0.608c-0.17-0.235-0.641-0.773-0.641-0.875c0-0.102,0.068-0.774,0.068-0.876
			c0-0.103,0.402-0.944,0.402-0.944s0.742-0.303,0.877-0.371c0.133-0.067,0.338-1.012,0.338-1.012v-0.875
			c0,0-0.102-0.135-0.338-0.405c-0.236-0.27-1.754-0.134-1.754-0.134l-0.807-0.505l-0.844-1.079c0,0-0.436-0.673-0.404-0.81
			c0.035-0.134,0.338-1.415,0.338-1.415l0.168-3.202l-0.102-1.078l-0.336-0.708c0,0-1.551-1.011-1.686-1.011
			s-0.943-0.202-0.943-0.202l-0.201-0.439l1.01-1.179l1.215-0.606l0.775-0.674l0.807-1.279l0.979-1.585l0.809-1.145l0.707-1.113
			l0.168-0.673l0.203-0.674l0.135-0.607c0,0,0.168-0.437,0.236-0.539c0.066-0.1,0.473-0.842,0.473-0.842s0.234-1.011,0.234-1.112
			c0-0.102,0.168-0.843,0.168-0.943c0-0.102,0.338-1.181,0.338-1.181L455.851,240.531z"/>
		<path opacity="0.6" fill="#DB6612" d="M454.671,278.813l0.068-1.079l0.471-1.01l0.742-0.405l0.471-0.471l0.607-0.676l0.605,0.137
			l0.406,0.604l0.471,0.54l0.607,0.202l0.809,0.405l0.537-0.068l0.811-0.471l0.607-0.27h1.078l0.402-0.473l0.945-0.809l0.605-1.01
			l0.203-0.541v-0.741l-0.135-0.271l-0.068-0.741l0.338-0.47h0.674l0.404,0.269c0,0,0.674-0.067,0.945,0
			c0.268,0.067,0.471,0.404,0.471,0.404h0.941l0.742-0.203l0.943-0.403l1.146-0.27l0.877-0.337l0.539-0.876l0.605-0.403l0.875-0.404
			l0.541,0.269l0.135,0.405l0.135,0.605l0.135,0.945l0.539,0.47l0.676,0.137l1.211-0.81l0.74-0.741l0.742-0.202l0.539-0.808
			l0.473-0.54l0.539-0.203h0.471l0.473,0.203l0.674,0.271l0.541,0.201l0.873,0.606l0.473,0.405l0.539,0.404l0.541,0.404l0.27,0.943
			l-0.066,0.607l0.135,0.47l0.604,0.339v0.336l-0.068,2.089l-0.535,0.269l-0.541,0.271v0.742l0.133,0.538l0.34,0.674l0.471,0.742
			l0.742,0.674l0.674,0.337l-0.338,1.011l-1.012,1.215l-0.877,1.01l-0.738,0.876l-0.068-0.404l-0.607-0.405l-0.74-0.066
			l-0.676,0.202c0,0-0.268,0.404-0.268,0.606s0.066,0.605,0.066,0.605v0.81l-0.338,0.674l-0.471,0.877l0.135,1.279l0.135,0.674
			l0.201,0.539l-0.066,0.607l-0.135,0.406l0.066,1.818l0.135,1.415l-0.066,0.809l0.271,0.539v0.675l-0.137,1.215l-0.338,0.738
			l-0.133,1.079l-0.271,0.944l-0.338,0.605v1.146l0.271,0.2v0.542l-0.943,0.874l-0.877,1.079l-0.471,0.135l-0.676-0.404
			l-0.336-0.674l-0.135-0.674l-0.539-0.403l-0.338-0.607l-0.133-0.676l0.066-0.538l0.607-0.674l0.471-0.876l0.674-0.674l0.404-0.876
			v-1.011l-1.078-0.81l-1.012-0.402l-0.875-0.337h-0.943h-0.943l-0.471-0.271l-0.205-0.539l-0.74-0.741l-0.605-0.338
			c0,0-0.742-0.136-1.01-0.136c-0.271,0-0.744-0.2-0.744-0.2l-1.01-0.337l-0.809-0.675l-0.809-0.405l-0.471-0.2l-1.014-0.068
			l-0.738,0.135l-0.541,0.203l-0.27-0.54l-0.203-0.674l-0.404-0.539l-1.145-0.203l-0.607,0.069l-1.01,0.268l-1.014,0.742
			l-1.211,0.607l-1.012,0.674l-0.943,0.471l-0.674,0.54l0.068-0.943c0,0,0.133-1.012-0.068-1.214
			c-0.203-0.201-0.473-1.011-0.473-1.011l-0.469-0.74l-0.137-1.349l0.137-0.606l0.133-1.146v-1.482l-0.27-0.809l-0.203-1.349
			l0.34-0.674l0.199-0.877l-0.336-1.076L454.671,278.813z"/>
		<path opacity="0.6" fill="#DB6612" d="M471.79,246.8h0.539l0.809,0.27l0.203,0.337l-0.338,0.47l-0.135,0.54l0.068,0.539
			l0.471,0.742l0.336,0.809l0.406,0.74v0.742l0.201,0.808v1.551l0.27,2.359l0.066,1.01l0.137,0.741l0.27,1.349l0.27,0.74l0.203,0.54
			l0.672,0.471l0.203,0.607c0,0-0.133,0.403-0.336,0.47c-0.203,0.068-0.473,0.742-0.473,0.742l0.066,0.944l0.27,0.742l0.137,0.672
			l-0.27,0.81l-1.148,0.675l-1.145,0.876l-0.809,0.74l-0.877,0.944l-0.943,0.541l-0.943,0.067l-0.605,0.403l-0.676,0.203h-0.807
			l-0.539-0.066l-0.809-0.271l-1.01-0.202l-0.541,0.068l-0.336,0.405l-0.475,0.539l-0.066,0.809v0.673l-0.201,0.809l-0.406,0.54
			l-0.537,0.54l-0.742,0.202l-0.74,0.403l-0.742,0.405l-0.744,0.269c0,0-0.268-0.203-0.672-0.269
			c-0.402-0.068-0.402-0.068-0.402-0.068l-0.473-0.607l-0.271-0.471l-0.402-0.27h-0.877l-0.068-1.011l-0.066-0.875V271.6
			l-0.201-0.74l-0.137-1.079l0.338-0.875l0.404-0.741l0.471-1.08l0.27-1.078l0.203-0.74l0.404-0.406l0.539-0.404l0.607-0.203
			l0.742-0.27l0.875-0.336l0.877-0.81l0.674-0.741l0.605-0.472l0.877-0.134l0.674-0.067l0.742,0.134h0.74l0.811-0.336l0.471-0.876
			l0.066-0.944l-0.203-0.541l-0.334-0.606l0.135-0.875l0.133-0.674l0.27-0.539l0.404-0.54l-0.201-0.674l-0.068-1.011l-0.135-1.213
			v-0.809l0.135-0.875l0.404-0.674l0.539-0.944l0.674-0.203l1.416-0.809l0.605-0.808L471.79,246.8z"/>
		<path opacity="0.6" fill="#DB6612" d="M474.284,246.866l-0.27,0.607l-0.203,0.539l0.068,0.743l0.068,0.335l0.268,0.472l0.27,0.539
			l0.201,0.405v0.673l0.34,0.674l0.066,0.742v1.078l0.066,0.741l0.068,1.147l0.135,1.146l0.066,1.145l0.137,0.876
			c0,0,0.066,0.405,0.133,0.742c0.068,0.337,0.473,1.078,0.473,1.078l0.674,0.337l0.27,0.471l-0.135,0.81
			c0,0,0.068,0.268-0.135,0.47c-0.203,0.203-0.135,0.674-0.135,0.674l0.742,0.067l0.943-0.067l0.875-0.066h0.74l0.607,0.202
			l0.742,0.471l0.605,0.741l0.539-0.067l0.676-0.674l0.402-0.471l-0.201-0.607l-0.201-0.471v-0.876l0.402-0.876l0.135-1.01
			l0.676-1.147l0.941-1.146l0.676-1.145l0.607-1.079l0.539-1.011l0.943-0.606l-1.754-1.55l-1.482-1.146l-0.404-0.605
			c0,0-0.607-0.405-0.809-0.405s-0.877-0.405-0.877-0.405l-0.943-0.674l-1.01-0.674l-1.012-0.539l-1.01-0.539h-1.078h-1.414h-0.676
			L474.284,246.866z"/>
		<polygon opacity="0.6" fill="#DB6612" points="474.755,268.299 475.497,268.906 475.767,269.444 475.835,269.917 476.171,270.455 
			476.171,270.724 476.372,271.062 476.845,270.791 477.249,270.322 477.654,269.648 478.327,269.648 478.732,269.041 
			479.339,268.5 480.214,267.962 480.888,267.759 481.564,267.894 482.304,268.165 483.046,268.299 483.718,268.837 
			484.597,269.309 485.066,269.917 485.808,269.848 486.55,269.309 487.089,268.974 487.695,269.378 488.437,269.848 
			489.111,270.051 489.919,270.388 491.202,270.322 492.279,270.253 492.48,269.848 492.952,269.108 493.425,268.771 
			494.099,268.568 494.841,268.568 495.581,268.568 496.322,268.568 496.591,268.097 496.863,267.356 497.132,266.479 
			497.538,265.2 497.538,264.255 496.997,263.918 496.189,263.85 495.648,264.187 495.177,264.593 494.57,264.929 494.032,265.2 
			493.156,265.333 492.48,265.333 491.874,265.603 491.134,265.94 490.796,266.412 490.323,266.95 489.517,267.018 489.042,266.613 
			488.839,265.873 488.839,265.131 488.976,264.187 489.042,263.85 488.708,263.716 488.101,263.85 487.495,264.255 
			486.687,264.862 486.079,265.2 485.001,265.131 484.529,265.131 483.921,265.131 482.98,265.131 482.103,265.2 481.361,265.131 
			480.755,264.388 480.011,263.985 479.406,263.985 478.124,263.85 476.372,263.783 476.509,264.323 476.577,264.795 
			476.845,265.535 476.845,265.873 476.509,266.479 476.036,267.018 475.429,267.556 		"/>
		<path opacity="0.1" fill="#DB6612" d="M351.264,262.233l1.707,1.078c0,0,7.909,2.426,9.706,2.426c0.359,0,0.898,0.451,0.898,0.451
			l1.077,0.718c0,0,10.065,5.482,11.145,5.572c1.078,0.089,1.078-0.358,1.078-0.358l0.629-0.541l0.629-0.628l1.078-0.18l1.257,0.36
			l1.258-0.539h0.81l0.628-0.269l0.271-0.72l1.167-0.269l1.528-0.09l0.358-0.81l0.54-0.359v-0.808l1.169-0.72l0.089-0.81
			l3.595-0.179l0.449,0.899l0.898,0.809l1.168,1.167l1.08-0.09l0.989,0.181h5.93l5.212-0.091l0.897-0.719l0.093-1.796l0.628-1.439
			l0.181-1.528l-0.541-1.257l-0.36-0.899l7.641-15.456l0.359-1.348l0.358-0.718l-1.438,0.359l-1.168-0.809l-1.168-0.988
			l-2.966-0.271l-0.898-1.348c0,0-1.797-2.475-1.977-2.516c-0.27,0.27-0.141-0.717-0.141-0.717l-0.062-1.25l-0.167-1.01l-0.663-0.08
			h-1.103l-1.459,0.023l-0.384,0.1l-0.604,0.831l-0.899,1.192l-0.417,0.662c0,0-0.177,0.877-0.19,0.921
			c-0.012,0.044-0.257,0.348-0.257,0.348l-0.563,0.237l-0.965-0.013l-0.696-0.516l-0.439-0.516l-0.596,0.111
			c0,0-0.504,0.327-0.538,0.349c-0.036,0.022-0.371,0.539-0.371,0.539l-0.045,0.898l-0.079,1.372l-0.528,0.101l-0.596,0.011
			c0,0-0.584-0.324-0.651-0.358c-0.067-0.035-0.403-0.383-0.403-0.383s-0.518-0.46-0.573-0.516c-0.057-0.056-0.439-0.55-0.439-0.55
			s-0.471-0.461-0.494-0.506c-0.021-0.045-0.257-0.438-0.257-0.438v-0.337l0.023-0.797l-0.07-1.561c0,0-0.112-0.608-0.122-0.641
			c-0.011-0.033-0.191-1.057-0.191-1.089c0-0.034-0.022-1.022-0.022-1.022s-0.057-0.832-0.103-0.921
			c-0.043-0.089-0.37-0.617-0.426-0.696c-0.057-0.079-0.415-0.741-0.415-0.741l-0.406-1c0,0-0.259-0.719-0.358-0.865
			c-0.103-0.147-0.371-0.708-0.394-0.741c-0.022-0.034-0.136-0.281-0.136-0.281l-1.043-0.012l-0.158-0.235l-0.326,0.102
			l-0.325,0.303l-0.82,0.359l-0.169,0.707l-0.562,0.619l-0.584,0.627l-0.797,0.113l-0.642,0.235l-0.516,0.407l-0.607,0.459
			l-0.82,0.876l-0.695,0.169l-0.654,0.146l-0.402-0.292l-0.035-0.405h-0.516l-0.392,0.079l-0.181,0.473l-0.763-0.012l-0.945-0.01
			l-0.303-0.214c0,0-0.235-0.316-0.269-0.349c-0.035-0.033-0.482-0.405-0.482-0.405l-0.383-0.292l-1.472-0.123l-0.045-2.136
			l-0.415-0.651l-0.249-0.371l-0.235-0.236l-0.528,0.405l-0.462,0.313l-0.257,0.483l-0.651,0.394l-0.551-0.696l-0.168-0.36
			l-0.327,0.484l-0.325,0.438l-1.751,0.011l-1.203-0.068l-1.707-0.044c0,0-0.359,0.09-0.394,0.102
			c-0.034,0.011-0.495,0.257-0.495,0.257s-0.157,0.348-0.146,0.382c0.012,0.035,0.091,0.73,0.091,0.73l0.055,0.518
			c0,0,0.112,0.19,0.27,0.204c0.158,0.01,0.673,0.01,0.673,0.01s0.642,0.034,0.697,0.034c0.056,0,0.292,0.191,0.292,0.191
			s0.236,0.19,0.259,0.235c0.022,0.045,0.27,0.449,0.27,0.449l0.102,0.506c0,0,0,0.472,0,0.506c0,0.034-0.114,0.449-0.114,0.449
			h-0.393l-0.695,0.045l-0.181-0.18l-0.595-0.045l-0.528,0.213l-0.696,0.034l0.011,0.628l-0.021,1.955l0.337,0.325
			c0,0,0.403,0.225,0.448,0.271c0.044,0.045,0.315,0.235,0.383,0.292c0.066,0.056,0.336,0.158,0.336,0.158l0.057,0.954l-0.068,0.46
			l0.483,0.646l0.22,0.623l-0.203,2.46v1.13c0,0-0.288,0.875-0.288,1.026c0,0.152-0.386,1.097-0.386,1.097l-0.018,1.129
			c0,0-0.22,0.336-0.235,0.455c-0.017,0.119-0.052,1.516-0.052,1.516s-0.253,0.674-0.271,0.775c-0.016,0.101,0,0.977,0,0.977
			s-0.371,1.129-0.42,1.214c-0.051,0.083-0.371,0.605-0.439,0.623c-0.066,0.017-0.708-0.017-0.791-0.017
			c-0.084,0-0.741-0.235-0.792-0.287c-0.05-0.051-0.354-0.253-0.354-0.253h-0.758l-0.573,0.221l-0.237,0.42l-0.892,0.354
			l-1.264,0.118l-1.146,0.034l-0.674,0.287l-0.775,0.454l-0.538,0.405c0,0-0.842,0.572-0.842,0.623c0,0.053-0.743,0.961-0.809,1.045
			c-0.067,0.085-0.287,0.843-0.287,0.843l-0.118,0.539l-0.37,0.522c0,0-0.304,0.454-0.32,0.505
			c-0.016,0.049,0.101,0.775,0.101,0.775l0.118,0.488l-0.337,0.894l-0.622,0.572c0,0-0.691,0.372-0.691,0.438
			C351.691,261.542,351.264,262.233,351.264,262.233z"/>
		<path opacity="0.1" fill="#DB6612" d="M385.355,219.268c0.135,0,1.416,0,1.416,0l0.607,0.641l0.607,0.471l1.28,0.136l0.876,0.1
			l0.336,0.675l0.743,0.066h0.841l0.337-0.504l0.102-0.743l0.607-0.336l0.841-0.235h1.314l0.574-0.169l0.809-0.573l0.774-0.405
			l0.639-0.302l0.944-0.102l0.672-0.809l0.709-0.91l0.102-0.673l1.482,0.066l0.337,0.675l-0.337,0.573l-0.27,0.538l0.033,0.673
			l0.675,0.102l0.707,0.305l0.472,0.774l0.271,0.607l-0.17,0.607l-0.506,0.504l-0.135,0.64l-0.336,1.112l0.035,0.54l-0.205,0.438
			v1.28l0.034,0.674l0.372,0.506l0.336,0.673l0.034,1.044l0.506,0.304l0.807,0.707l0.44,0.608l1.044,0.673l0.303,0.405l0.067,1.988
			v1.112l-0.471,0.202h-1.483l-1.448-0.033c0,0-0.305,0.337-0.438,0.37s-0.876,0.91-0.876,0.91l-0.337,0.706v0.406l-0.337,0.27
			l-0.269,0.337l-0.336,0.471l-0.068,0.607l-0.203,0.303l-0.505,0.101l-0.303-0.303l-0.304-0.405l-0.708-0.438l-0.539-0.202
			l-0.606,0.134l-0.473,0.438l-0.47,0.336l-0.506,0.641l-0.101,1.685l-0.235,0.202l-0.506-0.336l-0.776-0.943l-0.47-0.54
			l-0.271-0.27l0.405-0.573v-0.64l-0.134-0.371l-0.303-0.505l-0.104-0.64l-0.1-0.843l-0.1-0.708l-0.067-1.144v-1.249l-0.337-0.605
			l-0.405-0.472l-0.337-0.573l-0.369-0.776l-0.271-0.674l-0.371-0.842l-0.134-0.371l-0.54-0.472h-0.304l0.034-1.281
			c0,0-0.54,0-0.639-0.033c-0.102-0.034-0.911-0.034-0.911-0.034l-0.438,0.034l-0.706-0.134l-0.238-0.136h-0.303
			c0,0-0.1-2.73-0.1-2.831c0-0.101,0.403-0.573,0.403-0.573l0.238-0.371v-1.011l-0.81-0.54l-0.54-0.168l-0.506-0.168l-0.202-0.27
			L385.355,219.268z"/>
		<path opacity="0.1" fill="#DB6612" d="M407.461,231.13l-0.033,2.562l0.066,1.077c0,0,0.202,1.687,0.202,1.854
			c0,0.169,0.203,0.877,0.203,0.877l0.604,0.437l0.34,0.405l0.167,0.775l0.438,0.573l0.573,0.674l0.54,0.572l0.675,0.067
			l0.639,0.067l0.236,0.102l0.539-0.202l0.473,0.033l0.505,0.337l0.572,0.674l0.707,0.269l0.742,0.438l0.71,0.033l0.368-0.336
			l0.573-0.101l0.642,0.336l-0.067,0.54l-0.068,0.574l-0.337,0.134l-0.337,0.808l-0.203,0.776l-0.506,0.572l-0.74,1.889
			l-6.301,12.737l0.033,0.507l0.471,0.572l0.068,0.54c0,0,0.438,0.403,0.404,0.505c-0.034,0.1,0,0.875,0,0.875l0.404,0.438
			l0.303,0.438l0.304,0.876l0.439,0.506l0.101,0.91l0.033,1.347l0.774,0.573l0.91,0.742l0.608,0.639l0.739,0.639l0.505,0.137
			l1.416,0.101l1.887,0.203l0.506,0.201l4.785,0.202l4.484,0.033l2.963,0.237h3l4.078,0.167l1.213,0.035l0.438-1.112l1.01-1.65
			c0,0,0.742-0.742,0.844-0.808c0.102-0.068,0.605-0.675,0.605-0.675l0.373-1.011l0.1-1.044l-0.137-0.708l-0.371-0.404l0.102-1.044
			l0.406-0.574l0.168-0.773l0.203-0.743c0,0,0.27-0.168,0.438-0.27c0.168-0.1,1.045-0.842,1.045-0.842l0.674-0.404l0.336-0.506
			l0.541-0.977l0.033-0.91l-0.033-0.875l-0.371-0.068l-0.674-0.303l-0.271-0.674l0.844-1.012l2.156-1.854l1.146-0.506l0.844-1.078
			l1.684-2.697l1.18-1.583l0.066-1.112l0.27-0.675l0.439-0.774l0.471-1.111l0.168-1.686l0.338-0.438v-1.078l-0.607-0.372h-1.043
			l-0.305-0.54c0,0-1.045-0.134-1.213-0.201c-0.168-0.068-0.842-0.134-0.842-0.134l-0.979-0.102l-0.875-0.168l-0.574,0.067
			l-0.404,0.404l-2.09,2.258l-1.178,1.449l-0.91,0.505l-0.977,0.035l-0.539-0.338l-0.473,0.034l-0.27,0.404l-0.203,0.405
			l-0.605-0.237l-0.574-0.471l-1.615-0.303c0,0-0.504-0.236-0.607-0.304s-0.539-0.674-0.539-0.674l-0.506-1.112l-0.27-0.236h-0.775
			l-1.045,0.64l-0.975,0.471l-1.553,0.304l-0.402-0.405l0.201-0.74l0.877-0.17l-0.068-0.403l-1.01-0.135c0,0-0.539-0.573-0.676-0.64
			c-0.135-0.067-0.639-0.876-0.639-0.876l-0.137-0.842l-0.504-0.641l-1.045-1.448c0,0-0.168-0.877-0.338-1.146
			c-0.168-0.27-0.27-0.808-0.27-1.011c0-0.201-0.438-0.809-0.641-0.978c-0.203-0.168-0.404-0.978-0.537-1.179
			c-0.137-0.201-0.676-0.673-0.676-0.673l-1.043-0.606l-1.078-0.775c0,0-0.811-0.169-0.943-0.27
			c-0.137-0.102-0.912-0.405-0.979-0.54c-0.068-0.135-0.201-1.012-0.201-1.012l-0.102-0.944l-0.404-0.504c0,0-0.743,0-0.844,0
			c-0.099,0-0.876,0.236-0.876,0.236l-0.403,0.303h-0.877l-0.473-0.101l-0.099,0.438l0.032,0.741v0.675l-0.1,0.303h-0.911h-0.572
			l-1.584-0.134l-0.81,0.066c0,0-0.908-0.066-1.077-0.032c-0.169,0.032-1.146,0.674-1.146,0.674l-0.876,0.337l-0.91,0.438
			l-1.484,0.505L408,230.927L407.461,231.13z"/>
		<path opacity="0.1" fill="#DB6612" d="M423.3,226.985l1.008,0.336l0.678,0.136l0.604-0.102l0.271-0.304l0.842-0.033h0.707
			l0.607,0.303l0.641,0.068l0.875-0.034l0.875-0.573c0,0,0.373-0.572,0.475-0.741c0.1-0.169,0.738-1.685,0.738-1.685l0.943-1.618
			l0.877-1.347l0.912-1.113l0.707-0.606l0.607,0.472l0.438,0.538c0,0,0.066,0.709,0.066,0.844s0.033,1.718,0.033,1.718l0.17,0.506
			l0.371,0.572c0,0,0.268,0.305,0.268,0.472c0,0.169,0.137,0.978,0.102,1.078c-0.033,0.102,0.238,1.214,0.238,1.214l0.303,0.606
			l0.639,0.674l0.707,0.539l0.811,0.134l0.402,0.405l0.404,0.675l-0.102,0.807c0,0-0.334,0.135-0.436,0.27
			c-0.102,0.137-0.877,0.91-1.248,1.248c-0.371,0.335-1.01,1.28-1.01,1.28l-0.943,0.775c0,0-0.676,0.472-0.945,0.573
			c-0.268,0.102-0.674,0.506-0.674,0.607c0,0.101-0.436,1.112-0.436,1.112l-0.506,0.708l-0.607,0.775l-0.236,0.942
			c0,0-0.17,0.204-0.371,0.204c-0.203,0-0.74,0-0.74,0s-0.271-0.438-0.373-0.539c-0.1-0.102-0.438-0.708-0.537-1.011
			c-0.1-0.303-0.607-1.113-0.607-1.113s-0.336-0.539-0.506-0.776c-0.168-0.234-0.504-0.909-0.674-1.078
			c-0.166-0.168-0.471-0.573-0.471-0.573s-0.068-0.741-0.102-0.91c-0.033-0.167-0.336-1.18-0.572-1.382
			c-0.238-0.201-0.641-1.313-0.742-1.415c-0.102-0.101-0.305-0.641-0.605-0.742c-0.303-0.1-0.742-0.27-1.012-0.438
			s-0.844-0.371-1.012-0.405c-0.166-0.033-0.504-0.438-0.875-0.504c-0.371-0.067-0.574-0.236-0.742-0.371
			c-0.17-0.135-0.641-0.607-0.641-0.843C422.894,227.086,423.3,226.985,423.3,226.985z"/>
		<path opacity="0.1" fill="#DB6612" d="M399.542,286.698c0,0-1.282-0.236-1.484-0.236c-0.202,0-1.381,0.031-1.617,0
			c-0.236-0.033-1.146-0.102-1.146-0.102l-0.809-0.539l-0.371-0.639l-0.505-0.271l-1.247-0.201l-0.808-0.169l-0.474-0.438
			l-0.436-0.538l-0.27-0.506l-0.371-0.236l-0.639,0.27h-0.573l-0.371-0.338l-0.507-0.302l-0.572-0.035l-1.178,0.135l-0.81-0.369
			l-0.675-0.776l-0.942-0.842l-0.54-0.539l-0.506-0.708l-0.369-1.111l0.067-1.516l-0.205-0.709l-0.167-0.876l0.438-0.404
			l0.034-1.753l-0.305-0.64h-0.774c0,0-1.348,0.035-1.55,0.035c-0.201,0-1.382,0.304-1.382,0.304l-0.81,0.235l-0.167-0.235
			l0.269-0.371l0.404-0.439c0,0,0.541-0.1,0.641-0.1c0.101,0,0.843,0,0.843,0l1.043-0.034l1.079-0.203h1.246l0.506-0.337
			l0.472-0.639l0.403-0.438h1.754c0,0,0.506-0.034,0.573-0.203c0.065-0.167,0.135-0.774,0.135-0.774l0.605-0.371l0.136-0.775
			l0.301-0.405l0.574-0.033l0.439-0.809l0.438-0.37l0.639,0.034h1.043l0.642,0.505l0.977,0.64l0.639,0.708l0.641,0.675l0.506,0.337
			l0.472,0.066l0.405-0.1h0.506l0.314,0.887l-0.089,0.495l0.134,0.674l0.089,0.629l-0.045,1.122l-0.224,0.811l0.135,1.122
			l0.089,0.585v0.584l-0.044,0.854l0.179,0.225l0.091,0.449l1.214-0.091l1.615,0.045h1.574l0.18,0.54l0.854,0.134l0.493,0.225
			l-0.088,0.404l-0.495,0.54l-0.044,0.629l0.314,0.854l0.494,0.854l0.046,1.661l-0.404,0.449l-0.81,1.169L399.542,286.698z"/>
		<path opacity="0.1" fill="#DB6612" d="M446.45,255.764l1.012,0.133l0.807,0.338l1.012,0.404l0.338,0.674l0.334,1.349l-0.133,1.482
			l-0.068,1.348l-0.27,0.674l-0.27,0.673l0.068,0.741l0.809,0.539l0.471,0.676l0.607,0.74l1.012,0.472h1.01l0.27,0.742l-0.336,0.606
			l-0.676,0.336l-0.471,0.606l-0.135,0.742l-0.135,0.74l0.336,0.541l0.607,0.808l0.404,0.607l0.135,0.741l0.201,0.607l0.473,0.741
			l0.404,0.337l0.607,0.404l0.742,0.135l0.27,0.404l-0.473,0.337l-0.605,0.674l-0.406,0.607l-0.471,0.808l-0.068,1.012v0.605
			l0.809,0.54c0,0,0.068,0.136,0,0.405c-0.066,0.268,0,1.413,0,1.413l-0.338,0.473v0.809l0.271,0.473l-0.068,0.809l-0.537,0.067
			l-1.619,0.674l-1.145,0.269l-1.35,0.204l-0.74,0.133l-0.135,0.405l-1.012-0.538l-0.674-0.271l-0.605-0.269l-0.676-0.405
			l-0.537-0.54h-0.539l-1.08,0.068l-0.74,0.539l-0.338,0.673l-0.809-0.269l-0.674-0.27l-0.473-0.539l-0.605-1.079
			c0,0,0.135-0.54-0.137-0.54c-0.268,0-1.008,0.54-1.008,0.54l-0.338-1.213v-2.224l0.27-2.426l0.674-1.955l0.607-1.145l0.27-1.214
			l0.135-1.416l0.404-0.809l1.078-1.146l0.539-0.541l0.539-0.808l0.404-0.877l0.27-1.145V265.2l-0.27-0.945l0.066-1.01l0.271-1.146
			l1.01-0.54l0.943-0.808l0.674-0.742l0.404-1.011l0.27-1.146v-1.011l-0.605-0.741L446.45,255.764z"/>
		<path opacity="0.1" fill="#DB6612" d="M439.507,241.677l0.406-0.269l0.537-0.136l0.338,0.136l0.406,0.2l0.471-0.269l0.402-0.404
			l0.473-0.27l0.473,0.203l0.336-0.203l0.607-0.539l0.742-0.068l0.607-0.875l0.537-0.81l0.135-0.673l0.201-0.674l-1.078-0.067
			l-0.74-0.135h-0.943l-0.473,0.068h-0.943l-0.607-0.204l-0.807-0.269l-0.674,0.136l-0.271,0.74l-0.066,0.607l-0.068,0.741
			c0,0,0.135,0.742,0,0.943c-0.135,0.203-0.203,1.079-0.203,1.079l-0.064,0.943L439.507,241.677z"/>
		<polygon opacity="0.1" fill="#DB6612" points="442.271,236.016 442.945,235.545 442.673,234.938 442.138,235.005 441.73,235.679 
					"/>
		<path opacity="0.1" fill="#DB6612" d="M441.665,234.062l-0.338,0.876l-0.068,0.472c0,0-0.404-0.134-0.605-0.134
			c-0.203,0-1.012-0.135-1.012-0.135l0.338-0.607l0.607-0.74L441.665,234.062z"/>
		<polygon opacity="0.1" fill="#DB6612" points="437.62,236.488 436.88,237.296 436.745,236.488 436.947,235.612 437.689,235.207 
			438.363,235.207 438.363,235.612 438.095,236.219 		"/>
		<polygon opacity="0.1" fill="#DB6612" points="435.599,238.577 434.991,239.252 434.452,240.128 433.845,240.464 434.249,239.386 
			434.857,238.308 435.329,238.037 		"/>
		<polygon opacity="0.1" fill="#DB6612" points="438.027,238.375 437.552,238.51 437.284,238.846 437.689,238.981 438.095,239.184 
			438.833,238.779 438.363,238.24 		"/>
		<polygon opacity="0.1" fill="#DB6612" points="438.294,237.028 438.833,237.028 438.902,236.219 438.431,236.42 		"/>
		<polygon opacity="0.1" fill="#DB6612" points="438.632,240.329 438.566,240.869 437.956,240.869 437.888,240.262 437.956,239.858 
			438.363,239.858 		"/>
	</g>
	<g opacity="0.2">
		<line opacity="0.7" fill="none" stroke="#DB6612" stroke-width="0.5" x1="410.475" y1="298.832" x2="383.08" y2="298.832"/>
	</g>
	<line opacity="0.6" fill="none" stroke="#DB6612" stroke-width="0.5" x1="480.956" y1="221.51" x2="480.956" y2="248.904"/>
</g>
</svg>
