<?xml version="1.0" encoding="utf-8"?>
<!-- Generator: Adobe Illustrator 14.0.0, SVG Export Plug-In . SVG Version: 6.00 Build 43363)  -->
<!DOCTYPE svg PUBLIC "-//W3C//DTD SVG 1.0//EN" "http://www.w3.org/TR/2001/REC-SVG-20010904/DTD/svg10.dtd">
<svg version="1.0" id="Camada_1" xmlns="http://www.w3.org/2000/svg" xmlns:xlink="http://www.w3.org/1999/xlink" x="0px" y="0px"
	 width="159.788px" height="126.661px" viewBox="0 0 159.788 126.661" enable-background="new 0 0 159.788 126.661"
	 xml:space="preserve">
<g>
	<g>
		<path fill="#F4D256" d="M6.081,84.568v-3.092h23.915v3.092c0,0-2.709,2.208-11.958,2.208C8.791,86.776,6.081,84.568,6.081,84.568z
			"/>
		<path fill="#DC9928" d="M29.996,81.476c0,1.28-5.354,2.317-11.958,2.317c-6.604,0-11.957-1.037-11.957-2.317
			c0-1.283,5.354-2.319,11.957-2.319C24.642,79.157,29.996,80.193,29.996,81.476z"/>
	</g>
	<g>
		<g>
			<path fill="#F4D256" d="M19.572,80.955c-0.22-0.001-0.396,0.035-0.524,0.113c-0.133,0.077-0.259,0.214-0.382,0.412
				c-0.215,0.374-0.478,0.651-0.786,0.83c-0.313,0.181-0.758,0.272-1.321,0.272c-0.52-0.001-0.926-0.093-1.211-0.275
				c-0.275-0.182-0.396-0.431-0.363-0.744l-0.912-0.003l0.141-0.398l0.895,0.004c0.152-0.302,0.399-0.536,0.742-0.704
				c0.333-0.17,0.731-0.248,1.199-0.239l0.018,0.005l-0.089,0.713c-0.294-0.002-0.528,0.037-0.7,0.119
				c-0.177,0.081-0.28,0.197-0.311,0.347c-0.032,0.155,0.017,0.27,0.145,0.34c0.127,0.071,0.313,0.106,0.557,0.106
				c0.222,0.001,0.404-0.035,0.546-0.109c0.14-0.074,0.292-0.216,0.455-0.424c0.218-0.367,0.463-0.641,0.738-0.821
				c0.267-0.18,0.628-0.268,1.087-0.264c0.44,0.004,0.808,0.097,1.108,0.276c0.311,0.182,0.53,0.425,0.656,0.734l0.815,0.004
				l0.121,0.391l-0.843-0.003c0.025,0.314-0.104,0.572-0.396,0.774c-0.302,0.204-0.788,0.303-1.454,0.296l-0.028-0.008l-0.055-0.702
				c0.377,0.001,0.639-0.052,0.782-0.153c0.143-0.104,0.198-0.237,0.172-0.4c-0.025-0.163-0.109-0.283-0.254-0.365
				C19.979,80.997,19.796,80.956,19.572,80.955z"/>
		</g>
	</g>
</g>
<g>
	<g>
		<g>
			<path fill="#F4D256" d="M44.954,84.86v-3.095H68.87v3.095c0,0-2.71,2.208-11.958,2.208S44.954,84.86,44.954,84.86z"/>
			<path fill="#DC9928" d="M68.87,81.765c0,1.283-5.354,2.32-11.958,2.32s-11.958-1.037-11.958-2.32
				c0-1.278,5.354-2.317,11.958-2.317S68.87,80.487,68.87,81.765z"/>
		</g>
		<g>
			<g>
				<path fill="#F4D256" d="M58.446,81.246c-0.221-0.001-0.396,0.037-0.525,0.112c-0.133,0.077-0.258,0.217-0.382,0.414
					c-0.215,0.374-0.478,0.65-0.785,0.831c-0.314,0.18-0.759,0.27-1.321,0.27c-0.52,0-0.927-0.091-1.212-0.272
					c-0.275-0.184-0.395-0.433-0.361-0.744l-0.913-0.003l0.141-0.401l0.895,0.005c0.152-0.302,0.4-0.535,0.743-0.705
					c0.333-0.167,0.729-0.247,1.197-0.237l0.018,0.005l-0.089,0.712c-0.294-0.002-0.527,0.037-0.699,0.12
					c-0.177,0.081-0.28,0.196-0.311,0.345c-0.032,0.157,0.016,0.271,0.144,0.342c0.129,0.07,0.314,0.106,0.557,0.106
					c0.224,0.001,0.406-0.035,0.546-0.11c0.14-0.073,0.292-0.214,0.456-0.423c0.217-0.367,0.464-0.642,0.738-0.821
					c0.266-0.18,0.628-0.268,1.087-0.264c0.44,0.004,0.809,0.097,1.108,0.276c0.31,0.181,0.529,0.426,0.655,0.734l0.816,0.004
					l0.12,0.39l-0.843-0.003c0.025,0.314-0.104,0.573-0.396,0.775c-0.301,0.204-0.788,0.302-1.454,0.296l-0.028-0.009l-0.055-0.702
					c0.377,0,0.639-0.051,0.783-0.152c0.143-0.104,0.199-0.236,0.172-0.401c-0.025-0.161-0.11-0.283-0.254-0.363
					C58.852,81.289,58.669,81.248,58.446,81.246z"/>
			</g>
		</g>
	</g>
	<g>
		<g>
			<path fill="#F4D256" d="M44.954,81.196v-3.092H68.87v3.092c0,0-2.71,2.21-11.958,2.21S44.954,81.196,44.954,81.196z"/>
			<ellipse fill="#DC9928" cx="56.912" cy="78.104" rx="11.958" ry="2.319"/>
		</g>
		<g>
			<g>
				<path fill="#F4D256" d="M58.446,77.582c-0.221-0.001-0.396,0.037-0.524,0.114c-0.134,0.077-0.259,0.215-0.383,0.413
					c-0.215,0.373-0.478,0.649-0.785,0.831c-0.314,0.179-0.759,0.271-1.321,0.271c-0.52-0.001-0.927-0.093-1.213-0.273
					c-0.274-0.185-0.395-0.432-0.36-0.745l-0.913-0.003l0.141-0.401l0.895,0.005c0.151-0.301,0.4-0.535,0.742-0.704
					c0.334-0.166,0.73-0.246,1.198-0.237l0.018,0.005l-0.089,0.711c-0.294-0.002-0.527,0.039-0.699,0.121
					c-0.177,0.081-0.28,0.196-0.311,0.344c-0.032,0.157,0.016,0.271,0.144,0.343c0.128,0.07,0.314,0.105,0.557,0.105
					c0.224,0.001,0.406-0.035,0.546-0.108c0.14-0.075,0.292-0.216,0.456-0.424c0.217-0.367,0.464-0.641,0.738-0.822
					c0.266-0.18,0.628-0.268,1.087-0.264c0.44,0.004,0.809,0.098,1.108,0.276c0.31,0.181,0.529,0.426,0.655,0.734l0.816,0.004
					l0.12,0.39l-0.843-0.003c0.025,0.316-0.104,0.573-0.396,0.776c-0.301,0.203-0.788,0.301-1.454,0.295l-0.028-0.007l-0.055-0.704
					c0.377,0,0.639-0.05,0.783-0.152c0.143-0.103,0.199-0.236,0.173-0.4c-0.026-0.162-0.11-0.283-0.254-0.363
					C58.852,77.625,58.669,77.583,58.446,77.582z"/>
			</g>
		</g>
	</g>
	<g>
		<g>
			<path fill="#F4D256" d="M44.954,77.532v-3.09H68.87v3.09c0,0-2.71,2.21-11.958,2.21S44.954,77.532,44.954,77.532z"/>
			<ellipse fill="#DC9928" cx="56.912" cy="74.442" rx="11.958" ry="2.317"/>
		</g>
		<g>
			<g>
				<path fill="#F4D256" d="M58.446,73.92c-0.221-0.001-0.396,0.036-0.525,0.112c-0.133,0.078-0.258,0.216-0.382,0.413
					c-0.215,0.375-0.478,0.65-0.785,0.831c-0.314,0.18-0.759,0.271-1.321,0.271c-0.52-0.001-0.927-0.092-1.213-0.273
					c-0.274-0.184-0.394-0.432-0.36-0.744l-0.913-0.003l0.141-0.4l0.894,0.004c0.152-0.301,0.401-0.535,0.744-0.705
					c0.333-0.166,0.729-0.246,1.197-0.237l0.018,0.005l-0.089,0.713c-0.294-0.002-0.527,0.037-0.699,0.119
					c-0.177,0.081-0.28,0.196-0.311,0.346c-0.032,0.156,0.016,0.271,0.144,0.341c0.128,0.071,0.314,0.106,0.557,0.106
					c0.224,0.001,0.406-0.035,0.546-0.109s0.292-0.215,0.456-0.424c0.217-0.367,0.464-0.641,0.738-0.821
					c0.266-0.18,0.628-0.268,1.087-0.264c0.44,0.004,0.809,0.097,1.108,0.277c0.311,0.181,0.529,0.425,0.655,0.733l0.816,0.004
					l0.121,0.391l-0.844-0.003c0.025,0.314-0.104,0.572-0.396,0.774c-0.301,0.204-0.788,0.303-1.454,0.296l-0.028-0.008
					l-0.055-0.703c0.377,0,0.639-0.051,0.783-0.152c0.143-0.104,0.199-0.235,0.172-0.401c-0.025-0.16-0.109-0.282-0.254-0.363
					C58.852,73.962,58.669,73.921,58.446,73.92z"/>
			</g>
		</g>
	</g>
	<g>
		<g>
			<path fill="#F4D256" d="M44.954,73.87v-3.092H68.87v3.092c0,0-2.71,2.211-11.958,2.211S44.954,73.87,44.954,73.87z"/>
			<ellipse fill="#DC9928" cx="56.912" cy="70.778" rx="11.958" ry="2.319"/>
		</g>
		<g>
			<g>
				<path fill="#F4D256" d="M58.446,70.257c-0.221-0.001-0.396,0.037-0.524,0.112c-0.134,0.078-0.259,0.215-0.383,0.413
					c-0.215,0.374-0.478,0.65-0.785,0.831c-0.314,0.18-0.759,0.271-1.321,0.271c-0.52-0.001-0.927-0.092-1.213-0.273
					c-0.274-0.184-0.395-0.432-0.36-0.745l-0.913-0.003l0.141-0.399l0.894,0.004c0.152-0.302,0.401-0.536,0.743-0.704
					c0.334-0.167,0.73-0.247,1.198-0.238l0.018,0.006l-0.089,0.712c-0.294-0.002-0.527,0.038-0.7,0.119
					c-0.176,0.081-0.279,0.196-0.31,0.346c-0.032,0.157,0.016,0.27,0.144,0.342c0.128,0.069,0.314,0.105,0.557,0.106
					c0.223,0,0.406-0.037,0.546-0.11c0.14-0.075,0.292-0.215,0.456-0.424c0.217-0.366,0.464-0.64,0.738-0.822
					c0.266-0.18,0.628-0.268,1.087-0.264c0.44,0.004,0.809,0.098,1.108,0.277c0.311,0.181,0.529,0.425,0.655,0.733l0.816,0.004
					l0.121,0.392l-0.844-0.003c0.025,0.314-0.104,0.571-0.396,0.775c-0.301,0.202-0.788,0.301-1.454,0.294l-0.028-0.007
					l-0.055-0.704c0.377,0,0.639-0.05,0.783-0.152c0.143-0.102,0.199-0.235,0.173-0.4c-0.026-0.161-0.11-0.283-0.254-0.363
					C58.852,70.298,58.669,70.258,58.446,70.257z"/>
			</g>
		</g>
	</g>
</g>
<g>
	<g>
		<g>
			<path fill="#F4D256" d="M84.991,85.318v-3.092h23.914v3.092c0,0-2.71,2.211-11.957,2.211
				C87.7,87.529,84.991,85.318,84.991,85.318z"/>
			<ellipse fill="#DC9928" cx="96.948" cy="82.226" rx="11.957" ry="2.319"/>
		</g>
		<g>
			<g>
				<path fill="#F4D256" d="M98.483,81.704c-0.221-0.001-0.396,0.037-0.526,0.114c-0.132,0.078-0.259,0.215-0.383,0.413
					c-0.213,0.372-0.477,0.65-0.785,0.83c-0.313,0.181-0.758,0.271-1.32,0.271c-0.52-0.001-0.927-0.092-1.212-0.274
					c-0.275-0.183-0.396-0.431-0.362-0.744l-0.913-0.003l0.141-0.399l0.896,0.004c0.151-0.302,0.399-0.536,0.741-0.705
					c0.335-0.167,0.73-0.246,1.199-0.237l0.018,0.005l-0.089,0.711c-0.294-0.002-0.527,0.037-0.7,0.12
					c-0.176,0.082-0.279,0.197-0.311,0.347c-0.031,0.156,0.017,0.27,0.145,0.34c0.128,0.071,0.314,0.106,0.556,0.106
					c0.224,0.001,0.407-0.035,0.548-0.108c0.14-0.075,0.291-0.216,0.455-0.425c0.218-0.365,0.463-0.64,0.737-0.82
					c0.268-0.181,0.628-0.269,1.088-0.265c0.44,0.004,0.808,0.098,1.108,0.276c0.311,0.181,0.53,0.426,0.654,0.734l0.816,0.004
					l0.12,0.39l-0.843-0.003c0.027,0.316-0.103,0.573-0.394,0.775c-0.303,0.204-0.788,0.302-1.455,0.296l-0.028-0.007l-0.055-0.704
					c0.377,0,0.639-0.05,0.783-0.152c0.142-0.104,0.199-0.236,0.173-0.4c-0.026-0.162-0.111-0.283-0.255-0.364
					C98.888,81.747,98.707,81.706,98.483,81.704z"/>
			</g>
		</g>
	</g>
	<g>
		<g>
			<path fill="#F4D256" d="M84.973,81.474l0.025-3.093l23.915,0.191l-0.026,3.095c0,0-2.727,2.188-11.975,2.112
				S84.973,81.474,84.973,81.474z"/>
			<ellipse transform="matrix(1 0.008 -0.008 1 0.6312 -0.7735)" fill="#DC9928" cx="96.956" cy="78.477" rx="11.958" ry="2.32"/>
		</g>
		<g>
			<g>
				<path fill="#F4D256" d="M98.504,77.969c-0.22-0.003-0.396,0.035-0.525,0.11c-0.133,0.077-0.262,0.214-0.388,0.411
					c-0.22,0.372-0.487,0.647-0.797,0.826c-0.318,0.18-0.763,0.269-1.325,0.267c-0.519-0.003-0.923-0.097-1.205-0.28
					c-0.271-0.184-0.387-0.434-0.35-0.747l-0.909-0.007l0.146-0.399l0.891,0.008c0.157-0.302,0.406-0.533,0.751-0.701
					c0.334-0.166,0.73-0.243,1.198-0.232l0.019,0.005l-0.099,0.713c-0.294-0.005-0.527,0.034-0.7,0.117
					c-0.177,0.08-0.282,0.194-0.313,0.343c-0.033,0.156,0.013,0.271,0.139,0.342c0.126,0.072,0.313,0.107,0.553,0.109
					c0.223,0.002,0.406-0.034,0.547-0.106c0.143-0.073,0.295-0.215,0.461-0.422c0.223-0.367,0.472-0.638,0.75-0.817
					c0.268-0.179,0.63-0.265,1.09-0.259c0.439,0.006,0.808,0.102,1.107,0.282c0.308,0.182,0.524,0.427,0.646,0.736l0.817,0.008
					l0.117,0.39l-0.847-0.007c0.022,0.316-0.112,0.573-0.406,0.773c-0.307,0.203-0.795,0.299-1.461,0.289l-0.029-0.008l-0.042-0.702
					c0.376,0.001,0.639-0.049,0.785-0.15c0.144-0.101,0.203-0.234,0.178-0.398c-0.022-0.162-0.106-0.283-0.248-0.365
					C98.913,78.013,98.73,77.971,98.504,77.969z"/>
			</g>
		</g>
	</g>
	<g>
		<g>
			<path fill="#F4D256" d="M84.991,77.821v-3.09h23.914v3.09c0,0-2.71,2.211-11.957,2.211C87.7,80.032,84.991,77.821,84.991,77.821z
				"/>
			<ellipse fill="#DC9928" cx="96.948" cy="74.731" rx="11.957" ry="2.317"/>
		</g>
		<g>
			<g>
				<path fill="#F4D256" d="M98.483,74.208c-0.221-0.001-0.396,0.035-0.526,0.113c-0.132,0.077-0.259,0.214-0.383,0.411
					c-0.213,0.373-0.476,0.651-0.785,0.831c-0.313,0.181-0.758,0.271-1.32,0.271c-0.52-0.001-0.927-0.092-1.212-0.274
					c-0.275-0.183-0.396-0.431-0.362-0.744l-0.913-0.003l0.141-0.399l0.896,0.004c0.151-0.301,0.399-0.535,0.741-0.703
					c0.335-0.17,0.731-0.248,1.199-0.24l0.018,0.005l-0.089,0.714c-0.294-0.002-0.527,0.037-0.7,0.118
					c-0.176,0.082-0.279,0.197-0.31,0.347c-0.032,0.157,0.017,0.27,0.144,0.34c0.128,0.071,0.314,0.106,0.556,0.106
					c0.224,0.001,0.407-0.035,0.548-0.108c0.14-0.075,0.291-0.215,0.455-0.425c0.218-0.367,0.463-0.641,0.737-0.821
					c0.268-0.18,0.628-0.267,1.088-0.263c0.44,0.004,0.808,0.096,1.108,0.276c0.311,0.181,0.53,0.425,0.655,0.734l0.815,0.004
					l0.12,0.39l-0.843-0.003c0.027,0.315-0.104,0.572-0.394,0.776c-0.303,0.202-0.788,0.301-1.455,0.294l-0.028-0.007l-0.055-0.703
					c0.377,0.001,0.639-0.051,0.783-0.153c0.142-0.102,0.199-0.235,0.173-0.398c-0.025-0.162-0.112-0.285-0.255-0.366
					C98.888,74.25,98.707,74.209,98.483,74.208z"/>
			</g>
		</g>
	</g>
	<g>
		<g>
			<path fill="#F4D256" d="M84.991,74.075v-3.092h23.914v3.092c0,0-2.71,2.208-11.957,2.208
				C87.7,76.283,84.991,74.075,84.991,74.075z"/>
			<path fill="#DC9928" d="M108.905,70.983c0,1.28-5.354,2.317-11.957,2.317s-11.957-1.037-11.957-2.317
				c0-1.283,5.354-2.322,11.957-2.322S108.905,69.7,108.905,70.983z"/>
		</g>
		<g>
			<g>
				<path fill="#F4D256" d="M98.483,70.461c-0.221-0.001-0.396,0.036-0.526,0.112c-0.132,0.077-0.259,0.215-0.383,0.413
					c-0.213,0.373-0.476,0.65-0.785,0.831c-0.313,0.18-0.758,0.271-1.32,0.271c-0.52-0.001-0.927-0.092-1.212-0.273
					c-0.275-0.184-0.396-0.432-0.362-0.744l-0.913-0.003l0.141-0.4l0.896,0.004c0.151-0.301,0.399-0.535,0.741-0.703
					c0.335-0.168,0.731-0.248,1.199-0.239l0.018,0.005l-0.089,0.713c-0.294-0.002-0.527,0.037-0.7,0.119
					c-0.176,0.081-0.279,0.197-0.31,0.346c-0.032,0.156,0.016,0.271,0.144,0.341c0.129,0.07,0.314,0.106,0.556,0.106
					c0.224,0.001,0.407-0.036,0.548-0.11c0.14-0.073,0.291-0.214,0.455-0.423c0.218-0.368,0.463-0.642,0.737-0.822
					c0.268-0.179,0.628-0.267,1.088-0.263c0.44,0.004,0.808,0.097,1.108,0.277c0.311,0.179,0.53,0.425,0.654,0.733l0.816,0.004
					l0.12,0.389l-0.843-0.003c0.027,0.316-0.104,0.573-0.394,0.776c-0.303,0.203-0.788,0.303-1.455,0.296l-0.028-0.008l-0.055-0.703
					c0.377,0,0.639-0.051,0.783-0.153c0.142-0.103,0.199-0.236,0.173-0.4c-0.025-0.16-0.111-0.282-0.255-0.363
					C98.888,70.503,98.707,70.462,98.483,70.461z"/>
			</g>
		</g>
	</g>
	<g>
		<g>
			<path fill="#F4D256" d="M84.991,70.327v-3.092h23.914v3.092c0,0-2.71,2.208-11.957,2.208
				C87.7,72.535,84.991,70.327,84.991,70.327z"/>
			<ellipse fill="#DC9928" cx="96.948" cy="67.235" rx="11.957" ry="2.319"/>
		</g>
		<g>
			<g>
				<path fill="#F4D256" d="M98.483,66.713c-0.221-0.002-0.396,0.036-0.526,0.112c-0.132,0.076-0.259,0.216-0.383,0.414
					c-0.213,0.372-0.476,0.649-0.785,0.83c-0.313,0.18-0.758,0.27-1.32,0.27c-0.52,0-0.927-0.091-1.212-0.272
					c-0.275-0.184-0.396-0.433-0.363-0.744l-0.912-0.003l0.141-0.401l0.896,0.005c0.151-0.301,0.398-0.535,0.741-0.705
					c0.334-0.167,0.73-0.247,1.199-0.238l0.018,0.006l-0.089,0.712c-0.294-0.002-0.527,0.037-0.7,0.12
					c-0.176,0.081-0.28,0.197-0.31,0.345c-0.032,0.157,0.016,0.271,0.144,0.342c0.129,0.07,0.314,0.106,0.556,0.106
					c0.224,0.001,0.407-0.037,0.548-0.11c0.14-0.073,0.291-0.214,0.455-0.423c0.218-0.368,0.463-0.643,0.737-0.823
					c0.268-0.178,0.628-0.268,1.088-0.264c0.44,0.004,0.808,0.098,1.108,0.279c0.311,0.179,0.53,0.424,0.655,0.733l0.815,0.004
					l0.121,0.39l-0.843-0.003c0.026,0.314-0.104,0.573-0.395,0.775c-0.303,0.203-0.788,0.302-1.455,0.296l-0.028-0.009l-0.055-0.702
					c0.377,0,0.639-0.051,0.783-0.153c0.142-0.103,0.199-0.235,0.173-0.4c-0.025-0.161-0.111-0.282-0.255-0.363
					C98.888,66.755,98.707,66.714,98.483,66.713z"/>
			</g>
		</g>
	</g>
	<g>
		<g>
			<path fill="#F4D256" d="M84.991,66.579v-3.095h23.914v3.095c0,0-2.71,2.208-11.957,2.208
				C87.7,68.787,84.991,66.579,84.991,66.579z"/>
			<path fill="#DC9928" d="M108.905,63.484c0,1.283-5.354,2.322-11.957,2.322s-11.957-1.039-11.957-2.322
				c0-1.278,5.354-2.32,11.957-2.32S108.905,62.206,108.905,63.484z"/>
		</g>
		<g>
			<g>
				<path fill="#F4D256" d="M98.483,62.964c-0.221-0.001-0.396,0.036-0.526,0.112c-0.132,0.077-0.259,0.216-0.383,0.414
					c-0.213,0.373-0.476,0.649-0.785,0.83c-0.313,0.18-0.758,0.271-1.32,0.271c-0.52-0.001-0.927-0.093-1.212-0.274
					c-0.275-0.184-0.396-0.432-0.362-0.744l-0.913-0.003l0.141-0.4l0.896,0.004c0.151-0.302,0.399-0.536,0.742-0.705
					c0.334-0.166,0.729-0.245,1.198-0.236l0.018,0.004l-0.089,0.713c-0.294-0.002-0.527,0.037-0.7,0.119
					c-0.176,0.081-0.279,0.197-0.31,0.346c-0.032,0.156,0.016,0.271,0.144,0.341c0.129,0.07,0.314,0.106,0.556,0.106
					c0.224,0.001,0.407-0.036,0.548-0.11c0.14-0.073,0.291-0.214,0.455-0.423c0.218-0.368,0.463-0.642,0.737-0.822
					c0.268-0.179,0.628-0.267,1.088-0.263c0.44,0.004,0.808,0.097,1.108,0.277c0.311,0.179,0.53,0.425,0.654,0.733l0.816,0.004
					l0.121,0.391l-0.843-0.003c0.026,0.314-0.104,0.572-0.395,0.774c-0.303,0.203-0.788,0.303-1.455,0.296l-0.028-0.007
					l-0.055-0.704c0.377,0,0.639-0.05,0.783-0.153c0.142-0.103,0.199-0.234,0.173-0.4c-0.025-0.16-0.111-0.282-0.255-0.363
					C98.888,63.006,98.707,62.965,98.483,62.964z"/>
			</g>
		</g>
	</g>
	<g>
		<g>
			<path fill="#F4D256" d="M84.991,62.828v-3.093h23.914v3.093c0,0-2.71,2.21-11.957,2.21C87.7,65.038,84.991,62.828,84.991,62.828z
				"/>
			<path fill="#DC9928" d="M108.905,59.735c0,1.283-5.354,2.322-11.957,2.322s-11.957-1.039-11.957-2.322
				c0-1.278,5.354-2.317,11.957-2.317S108.905,58.457,108.905,59.735z"/>
		</g>
		<g>
			<g>
				<path fill="#F4D256" d="M98.483,59.215c-0.221-0.001-0.396,0.037-0.526,0.113c-0.132,0.076-0.259,0.216-0.383,0.413
					c-0.213,0.373-0.476,0.65-0.785,0.831c-0.313,0.18-0.758,0.271-1.32,0.271c-0.52-0.001-0.927-0.093-1.212-0.274
					c-0.275-0.184-0.396-0.433-0.362-0.744l-0.913-0.003l0.141-0.401l0.896,0.005c0.151-0.302,0.399-0.537,0.742-0.705
					c0.334-0.166,0.729-0.245,1.198-0.237l0.018,0.005l-0.089,0.712c-0.294-0.002-0.527,0.037-0.7,0.12
					c-0.176,0.081-0.279,0.196-0.31,0.345c-0.032,0.157,0.016,0.271,0.144,0.342c0.129,0.07,0.314,0.106,0.556,0.106
					c0.224,0.001,0.407-0.035,0.548-0.11c0.14-0.073,0.291-0.214,0.455-0.423c0.218-0.367,0.463-0.642,0.737-0.821
					c0.268-0.18,0.628-0.268,1.088-0.264c0.44,0.004,0.808,0.097,1.108,0.276c0.311,0.181,0.53,0.426,0.654,0.734l0.816,0.004
					l0.12,0.39l-0.843-0.003c0.027,0.314-0.103,0.573-0.394,0.775c-0.303,0.203-0.788,0.302-1.455,0.296l-0.028-0.007l-0.055-0.704
					c0.377,0,0.639-0.05,0.783-0.153c0.142-0.103,0.199-0.235,0.173-0.4c-0.025-0.161-0.112-0.283-0.255-0.363
					C98.888,59.258,98.707,59.217,98.483,59.215z"/>
			</g>
		</g>
	</g>
	<g>
		<g>
			<path fill="#F4D256" d="M84.991,59.082v-3.09h23.914v3.09c0,0-2.71,2.21-11.957,2.21C87.7,61.292,84.991,59.082,84.991,59.082z"
				/>
			<path fill="#DC9928" d="M108.905,55.992c0,1.278-5.354,2.317-11.957,2.317s-11.957-1.039-11.957-2.317
				c0-1.283,5.354-2.32,11.957-2.32S108.905,54.708,108.905,55.992z"/>
		</g>
		<g>
			<g>
				<path fill="#F4D256" d="M98.483,55.467c-0.221-0.001-0.396,0.037-0.526,0.113c-0.132,0.078-0.259,0.215-0.383,0.412
					c-0.213,0.373-0.477,0.651-0.785,0.831c-0.313,0.182-0.758,0.271-1.32,0.271c-0.52-0.001-0.927-0.091-1.212-0.274
					c-0.275-0.182-0.396-0.431-0.362-0.744l-0.913-0.003l0.141-0.399l0.896,0.004c0.151-0.3,0.399-0.534,0.742-0.704
					c0.334-0.168,0.73-0.247,1.198-0.239l0.018,0.006l-0.089,0.712c-0.294-0.002-0.527,0.037-0.7,0.119
					c-0.176,0.082-0.279,0.197-0.31,0.347c-0.032,0.157,0.016,0.271,0.144,0.34c0.128,0.071,0.314,0.106,0.556,0.106
					c0.224,0.001,0.407-0.035,0.548-0.108c0.14-0.074,0.291-0.216,0.455-0.425c0.218-0.367,0.463-0.641,0.737-0.82
					c0.268-0.181,0.628-0.268,1.088-0.264c0.44,0.004,0.808,0.096,1.108,0.276c0.311,0.181,0.53,0.425,0.654,0.733l0.816,0.004
					l0.12,0.391l-0.843-0.003c0.027,0.315-0.103,0.573-0.394,0.775c-0.303,0.203-0.788,0.302-1.455,0.295l-0.028-0.007l-0.055-0.703
					c0.377,0.001,0.639-0.05,0.783-0.153c0.142-0.103,0.199-0.235,0.173-0.399c-0.026-0.162-0.112-0.283-0.255-0.365
					C98.888,55.509,98.707,55.468,98.483,55.467z"/>
			</g>
		</g>
	</g>
	<g>
		<g>
			<path fill="#F4D256" d="M84.991,55.335v-3.093h23.914v3.093c0,0-2.71,2.208-11.957,2.208
				C87.7,57.543,84.991,55.335,84.991,55.335z"/>
			<ellipse fill="#DC9928" cx="96.948" cy="52.243" rx="11.957" ry="2.317"/>
		</g>
		<g>
			<g>
				<path fill="#F4D256" d="M98.483,51.72c-0.221-0.001-0.396,0.036-0.526,0.113c-0.132,0.078-0.259,0.215-0.383,0.413
					c-0.213,0.373-0.476,0.65-0.785,0.83c-0.313,0.181-0.758,0.271-1.32,0.271c-0.52,0-0.927-0.091-1.211-0.273
					c-0.276-0.183-0.396-0.431-0.363-0.744l-0.913-0.003l0.141-0.399l0.896,0.004c0.151-0.301,0.399-0.535,0.742-0.704
					c0.334-0.169,0.73-0.248,1.198-0.238l0.018,0.004l-0.089,0.712c-0.294-0.001-0.526,0.038-0.7,0.12
					c-0.176,0.082-0.279,0.197-0.31,0.347c-0.032,0.155,0.017,0.27,0.144,0.34c0.129,0.071,0.314,0.106,0.556,0.106
					c0.224,0.001,0.407-0.035,0.548-0.109c0.14-0.074,0.291-0.215,0.455-0.424c0.218-0.367,0.463-0.641,0.737-0.821
					c0.268-0.179,0.628-0.267,1.088-0.263c0.44,0.004,0.808,0.095,1.108,0.275c0.311,0.182,0.53,0.426,0.655,0.735l0.815,0.004
					l0.12,0.39l-0.843-0.003c0.027,0.315-0.104,0.572-0.394,0.774c-0.303,0.204-0.788,0.302-1.455,0.297l-0.028-0.008l-0.055-0.703
					c0.377,0.001,0.639-0.051,0.783-0.153c0.142-0.102,0.199-0.235,0.173-0.4c-0.026-0.161-0.112-0.283-0.255-0.364
					C98.888,51.762,98.707,51.721,98.483,51.72z"/>
			</g>
		</g>
	</g>
	<g>
		<g>
			<path fill="#F4D256" d="M84.991,51.586v-3.092h23.914v3.092c0,0-2.71,2.208-11.957,2.208
				C87.7,53.794,84.991,51.586,84.991,51.586z"/>
			<path fill="#DC9928" d="M108.905,48.495c0,1.278-5.354,2.317-11.957,2.317s-11.957-1.039-11.957-2.317
				c0-1.283,5.354-2.322,11.957-2.322S108.905,47.211,108.905,48.495z"/>
		</g>
		<g>
			<g>
				<path fill="#F4D256" d="M98.483,47.971c-0.221-0.001-0.396,0.037-0.526,0.113c-0.132,0.078-0.259,0.216-0.383,0.413
					c-0.213,0.374-0.476,0.651-0.785,0.831c-0.313,0.181-0.758,0.271-1.32,0.271c-0.52,0-0.927-0.091-1.211-0.274
					c-0.276-0.182-0.396-0.43-0.363-0.743l-0.913-0.003l0.141-0.399l0.896,0.004c0.151-0.301,0.398-0.535,0.741-0.705
					c0.335-0.168,0.731-0.248,1.199-0.238l0.018,0.005l-0.089,0.712c-0.294-0.002-0.527,0.039-0.7,0.121
					c-0.176,0.081-0.28,0.197-0.31,0.346c-0.032,0.155,0.017,0.27,0.144,0.341c0.129,0.07,0.314,0.105,0.556,0.105
					c0.224,0.001,0.407-0.035,0.548-0.109c0.14-0.073,0.291-0.215,0.455-0.423c0.218-0.368,0.463-0.642,0.737-0.822
					c0.268-0.179,0.628-0.269,1.088-0.264c0.44,0.004,0.808,0.096,1.108,0.276c0.311,0.181,0.53,0.426,0.655,0.735l0.815,0.004
					l0.12,0.389l-0.843-0.003c0.027,0.316-0.104,0.573-0.394,0.776c-0.303,0.203-0.788,0.301-1.455,0.296l-0.028-0.01l-0.055-0.702
					c0.377,0.001,0.639-0.05,0.783-0.152c0.142-0.103,0.199-0.236,0.173-0.4c-0.026-0.162-0.111-0.282-0.255-0.364
					C98.888,48.015,98.707,47.973,98.483,47.971z"/>
			</g>
		</g>
	</g>
</g>
<g>
	<g>
		<g>
			<path fill="#F4D256" d="M127.551,85.381V82.29h23.916v3.092c0,0-2.71,2.211-11.958,2.211S127.551,85.381,127.551,85.381z"/>
			<ellipse fill="#DC9928" cx="139.509" cy="82.29" rx="11.958" ry="2.319"/>
		</g>
		<g>
			<g>
				<path fill="#F4D256" d="M141.043,81.769c-0.221-0.001-0.396,0.036-0.525,0.113c-0.132,0.078-0.258,0.215-0.382,0.413
					c-0.215,0.373-0.478,0.65-0.785,0.83c-0.315,0.181-0.758,0.271-1.321,0.271c-0.52-0.001-0.926-0.092-1.211-0.274
					c-0.275-0.183-0.396-0.43-0.363-0.744l-0.912-0.003l0.141-0.399l0.894,0.004c0.152-0.301,0.401-0.535,0.744-0.704
					c0.332-0.167,0.73-0.247,1.198-0.238l0.017,0.006l-0.089,0.711c-0.294-0.002-0.527,0.038-0.699,0.119
					c-0.177,0.082-0.28,0.197-0.311,0.347c-0.032,0.157,0.016,0.27,0.144,0.341c0.129,0.07,0.314,0.105,0.557,0.105
					c0.223,0.001,0.405-0.035,0.546-0.108c0.14-0.073,0.291-0.216,0.456-0.424c0.219-0.366,0.464-0.64,0.738-0.82
					c0.266-0.181,0.628-0.269,1.087-0.265c0.439,0.004,0.808,0.097,1.108,0.276c0.311,0.181,0.53,0.425,0.655,0.734l0.816,0.004
					l0.12,0.39l-0.844-0.003c0.026,0.315-0.103,0.574-0.395,0.776c-0.301,0.203-0.787,0.302-1.453,0.295l-0.029-0.008l-0.055-0.703
					c0.378,0.001,0.639-0.049,0.783-0.153c0.143-0.102,0.199-0.234,0.172-0.4c-0.025-0.161-0.11-0.283-0.254-0.363
					C141.451,81.812,141.268,81.77,141.043,81.769z"/>
			</g>
		</g>
	</g>
	<g>
		<g>
			<path fill="#F4D256" d="M127.551,81.638v-3.093h23.916v3.093c0,0-2.71,2.208-11.958,2.208S127.551,81.638,127.551,81.638z"/>
			<ellipse fill="#DC9928" cx="139.509" cy="78.545" rx="11.958" ry="2.32"/>
		</g>
		<g>
			<g>
				<path fill="#F4D256" d="M141.043,78.025c-0.221-0.001-0.396,0.036-0.525,0.112c-0.132,0.077-0.258,0.215-0.382,0.413
					c-0.215,0.372-0.478,0.649-0.785,0.83c-0.315,0.18-0.758,0.271-1.321,0.271c-0.52-0.001-0.926-0.093-1.212-0.274
					c-0.274-0.184-0.395-0.432-0.362-0.744l-0.913-0.003l0.141-0.399l0.895,0.004c0.152-0.302,0.401-0.536,0.743-0.704
					c0.333-0.168,0.73-0.247,1.199-0.237l0.017,0.004l-0.089,0.713c-0.295-0.002-0.528,0.037-0.699,0.118
					c-0.177,0.081-0.28,0.197-0.311,0.347c-0.032,0.156,0.015,0.271,0.144,0.34c0.128,0.071,0.314,0.106,0.557,0.106
					c0.223,0.001,0.405-0.035,0.546-0.109c0.14-0.073,0.291-0.214,0.456-0.423c0.219-0.367,0.464-0.641,0.738-0.821
					c0.266-0.181,0.628-0.269,1.087-0.265c0.439,0.004,0.808,0.097,1.108,0.277c0.311,0.181,0.53,0.425,0.655,0.733l0.816,0.004
					l0.121,0.391l-0.844-0.003c0.025,0.315-0.104,0.573-0.396,0.776c-0.301,0.202-0.787,0.301-1.453,0.294l-0.029-0.007
					l-0.055-0.704c0.378,0.001,0.639-0.049,0.783-0.153c0.143-0.101,0.199-0.234,0.172-0.398c-0.025-0.162-0.109-0.283-0.253-0.364
					C141.451,78.066,141.268,78.026,141.043,78.025z"/>
			</g>
		</g>
	</g>
	<g>
		<g>
			<path fill="#F4D256" d="M127.551,77.892v-3.093h23.916v3.093c0,0-2.71,2.21-11.958,2.21S127.551,77.892,127.551,77.892z"/>
			<ellipse fill="#DC9928" cx="139.509" cy="74.799" rx="11.958" ry="2.32"/>
		</g>
		<g>
			<g>
				<path fill="#F4D256" d="M141.043,74.279c-0.221-0.001-0.396,0.037-0.525,0.113c-0.132,0.077-0.258,0.217-0.382,0.414
					c-0.215,0.373-0.478,0.65-0.785,0.83c-0.315,0.181-0.758,0.272-1.321,0.272c-0.52-0.001-0.926-0.093-1.211-0.275
					c-0.275-0.183-0.396-0.432-0.363-0.745l-0.912-0.003l0.141-0.399l0.895,0.005c0.152-0.302,0.4-0.535,0.743-0.705
					c0.332-0.168,0.73-0.247,1.198-0.237l0.017,0.005l-0.089,0.711c-0.294-0.002-0.527,0.038-0.699,0.12
					c-0.177,0.082-0.28,0.197-0.311,0.346c-0.032,0.157,0.016,0.271,0.144,0.342c0.129,0.07,0.314,0.106,0.557,0.106
					c0.223,0.001,0.405-0.035,0.546-0.11c0.14-0.073,0.291-0.215,0.456-0.423c0.219-0.367,0.464-0.642,0.738-0.821
					c0.266-0.18,0.628-0.268,1.087-0.264c0.439,0.004,0.808,0.095,1.108,0.275c0.311,0.182,0.53,0.425,0.655,0.735l0.816,0.004
					l0.12,0.39l-0.844-0.003c0.026,0.314-0.103,0.573-0.395,0.775c-0.301,0.204-0.787,0.302-1.453,0.296l-0.029-0.009l-0.055-0.702
					c0.378,0,0.639-0.05,0.783-0.152c0.143-0.104,0.198-0.237,0.172-0.401c-0.026-0.162-0.11-0.283-0.254-0.365
					C141.451,74.323,141.268,74.281,141.043,74.279z"/>
			</g>
		</g>
	</g>
	<g>
		<g>
			<path fill="#F4D256" d="M127.551,74.148v-3.092h23.916v3.092c0,0-2.71,2.208-11.958,2.208S127.551,74.148,127.551,74.148z"/>
			<ellipse fill="#DC9928" cx="139.509" cy="71.056" rx="11.958" ry="2.317"/>
		</g>
		<g>
			<g>
				<path fill="#F4D256" d="M141.043,70.534c-0.221-0.001-0.396,0.037-0.525,0.114c-0.132,0.077-0.258,0.215-0.382,0.412
					c-0.215,0.373-0.478,0.65-0.785,0.831c-0.315,0.18-0.758,0.271-1.321,0.271c-0.52-0.001-0.926-0.093-1.211-0.274
					c-0.275-0.184-0.396-0.433-0.363-0.744l-0.913-0.003l0.142-0.401l0.895,0.005c0.151-0.301,0.4-0.535,0.742-0.704
					c0.333-0.167,0.731-0.248,1.199-0.238l0.017,0.006l-0.089,0.711c-0.295-0.002-0.528,0.039-0.699,0.12
					c-0.177,0.082-0.28,0.197-0.311,0.345c-0.032,0.157,0.016,0.271,0.144,0.342c0.129,0.07,0.314,0.107,0.557,0.107
					c0.222,0.001,0.405-0.038,0.546-0.11c0.14-0.074,0.291-0.215,0.456-0.423c0.219-0.368,0.464-0.642,0.738-0.822
					c0.266-0.18,0.628-0.268,1.087-0.264c0.439,0.004,0.808,0.098,1.108,0.276c0.311,0.181,0.53,0.426,0.655,0.734l0.816,0.004
					l0.12,0.39l-0.844-0.003c0.026,0.314-0.103,0.573-0.395,0.776c-0.301,0.203-0.787,0.301-1.453,0.295l-0.029-0.007l-0.055-0.704
					c0.378,0,0.639-0.051,0.783-0.153c0.143-0.102,0.198-0.235,0.172-0.399c-0.025-0.162-0.11-0.283-0.254-0.364
					C141.451,70.577,141.268,70.536,141.043,70.534z"/>
			</g>
		</g>
	</g>
	<g>
		<g>
			<path fill="#F4D256" d="M127.551,70.404V67.31h23.916v3.094c0,0-2.71,2.208-11.958,2.208S127.551,70.404,127.551,70.404z"/>
			<ellipse fill="#DC9928" cx="139.509" cy="67.31" rx="11.958" ry="2.321"/>
		</g>
		<g>
			<g>
				<path fill="#F4D256" d="M141.043,66.789c-0.221-0.001-0.396,0.038-0.525,0.115c-0.132,0.077-0.258,0.215-0.382,0.412
					c-0.215,0.374-0.478,0.65-0.785,0.83c-0.315,0.181-0.758,0.271-1.321,0.271c-0.52-0.001-0.926-0.092-1.211-0.274
					c-0.275-0.183-0.396-0.431-0.363-0.743l-0.913-0.003l0.141-0.4L136.578,67c0.152-0.301,0.401-0.536,0.744-0.705
					c0.332-0.168,0.73-0.247,1.198-0.237l0.017,0.004l-0.089,0.712c-0.294-0.002-0.527,0.039-0.699,0.121
					c-0.177,0.081-0.28,0.197-0.311,0.346c-0.032,0.156,0.016,0.27,0.144,0.341c0.129,0.07,0.314,0.105,0.557,0.105
					c0.223,0.001,0.405-0.035,0.546-0.109c0.14-0.073,0.291-0.214,0.456-0.423c0.219-0.367,0.464-0.642,0.738-0.822
					c0.266-0.179,0.628-0.267,1.087-0.263c0.439,0.004,0.808,0.095,1.108,0.276c0.311,0.18,0.53,0.425,0.655,0.734l0.816,0.004
					l0.12,0.389l-0.844-0.003c0.026,0.316-0.103,0.574-0.395,0.776c-0.301,0.203-0.787,0.303-1.453,0.296l-0.029-0.008l-0.055-0.703
					c0.378,0,0.639-0.05,0.783-0.153c0.143-0.103,0.198-0.236,0.172-0.4c-0.026-0.162-0.11-0.282-0.254-0.364
					C141.451,66.833,141.268,66.791,141.043,66.789z"/>
			</g>
		</g>
	</g>
	<g>
		<g>
			<path fill="#F4D256" d="M127.551,66.658v-3.092h23.916v3.092c0,0-2.71,2.211-11.958,2.211S127.551,66.658,127.551,66.658z"/>
			<ellipse fill="#DC9928" cx="139.509" cy="63.566" rx="11.958" ry="2.317"/>
		</g>
		<g>
			<g>
				<path fill="#F4D256" d="M141.043,63.044c-0.221-0.002-0.396,0.036-0.525,0.113c-0.132,0.077-0.258,0.215-0.382,0.412
					c-0.215,0.374-0.478,0.65-0.785,0.831c-0.315,0.18-0.758,0.271-1.321,0.271c-0.52-0.001-0.926-0.092-1.211-0.273
					c-0.275-0.184-0.396-0.431-0.363-0.744l-0.913-0.003l0.142-0.401l0.895,0.005c0.151-0.301,0.4-0.535,0.742-0.704
					c0.333-0.167,0.731-0.248,1.199-0.238l0.017,0.005l-0.089,0.712c-0.295-0.002-0.528,0.039-0.699,0.12
					c-0.177,0.081-0.28,0.196-0.311,0.345c-0.032,0.157,0.016,0.271,0.144,0.342c0.129,0.07,0.314,0.106,0.557,0.106
					c0.223,0.001,0.405-0.037,0.546-0.109c0.14-0.074,0.291-0.215,0.456-0.423c0.219-0.368,0.464-0.642,0.738-0.822
					c0.266-0.18,0.628-0.268,1.087-0.264c0.439,0.004,0.808,0.097,1.108,0.277c0.311,0.18,0.53,0.425,0.655,0.733l0.816,0.004
					l0.12,0.39l-0.844-0.003c0.026,0.314-0.103,0.573-0.395,0.776c-0.301,0.203-0.787,0.302-1.453,0.295l-0.029-0.008l-0.055-0.703
					c0.378,0,0.639-0.051,0.783-0.153c0.143-0.102,0.198-0.235,0.172-0.399c-0.025-0.162-0.11-0.284-0.254-0.364
					C141.451,63.086,141.268,63.045,141.043,63.044z"/>
			</g>
		</g>
	</g>
	<g>
		<g>
			<path fill="#F4D256" d="M127.551,62.912V59.82h23.916v3.092c0,0-2.71,2.208-11.958,2.208S127.551,62.912,127.551,62.912z"/>
			<ellipse fill="#DC9928" cx="139.509" cy="59.82" rx="11.958" ry="2.319"/>
		</g>
		<g>
			<g>
				<path fill="#F4D256" d="M141.043,59.299c-0.221-0.001-0.396,0.036-0.525,0.112c-0.132,0.077-0.258,0.215-0.382,0.413
					c-0.215,0.373-0.478,0.65-0.785,0.83c-0.315,0.18-0.758,0.271-1.321,0.271c-0.52-0.001-0.926-0.093-1.211-0.274
					c-0.275-0.183-0.396-0.431-0.363-0.744l-0.913-0.003l0.141-0.399l0.895,0.004c0.152-0.302,0.401-0.536,0.743-0.705
					c0.333-0.167,0.731-0.248,1.199-0.238l0.017,0.005l-0.089,0.714c-0.295-0.002-0.528,0.037-0.699,0.118
					c-0.177,0.081-0.28,0.197-0.311,0.347c-0.032,0.155,0.016,0.27,0.144,0.341c0.128,0.07,0.314,0.105,0.557,0.105
					c0.223,0.001,0.405-0.035,0.546-0.109c0.14-0.074,0.291-0.214,0.456-0.423c0.219-0.368,0.464-0.642,0.738-0.822
					c0.266-0.18,0.628-0.268,1.087-0.264c0.439,0.004,0.808,0.098,1.108,0.278c0.311,0.179,0.53,0.424,0.655,0.733l0.816,0.004
					l0.12,0.389l-0.844-0.003c0.026,0.314-0.103,0.573-0.395,0.776c-0.301,0.203-0.787,0.301-1.453,0.295l-0.029-0.007l-0.055-0.703
					c0.378,0,0.639-0.051,0.783-0.153c0.143-0.103,0.198-0.236,0.172-0.4c-0.025-0.16-0.11-0.283-0.254-0.364
					C141.451,59.34,141.268,59.3,141.043,59.299z"/>
			</g>
		</g>
	</g>
	<g>
		<g>
			<path fill="#F4D256" d="M127.551,59.166v-3.09h23.916v3.09c0,0-2.71,2.21-11.958,2.21S127.551,59.166,127.551,59.166z"/>
			<ellipse fill="#DC9928" cx="139.509" cy="56.076" rx="11.958" ry="2.317"/>
		</g>
		<g>
			<g>
				<path fill="#F4D256" d="M141.043,55.552c-0.221-0.001-0.396,0.037-0.525,0.114c-0.132,0.078-0.258,0.215-0.382,0.413
					c-0.215,0.374-0.478,0.65-0.785,0.83c-0.315,0.182-0.758,0.271-1.321,0.271c-0.52-0.001-0.926-0.091-1.211-0.274
					c-0.275-0.183-0.396-0.431-0.363-0.744l-0.912-0.003l0.14-0.399l0.895,0.004c0.152-0.301,0.401-0.535,0.744-0.705
					c0.332-0.166,0.729-0.246,1.198-0.237l0.017,0.005l-0.089,0.711c-0.294-0.002-0.527,0.039-0.699,0.121
					c-0.177,0.081-0.28,0.196-0.311,0.346c-0.032,0.156,0.016,0.27,0.144,0.341c0.129,0.07,0.314,0.106,0.557,0.106
					c0.223,0.001,0.405-0.036,0.546-0.109c0.14-0.074,0.291-0.216,0.456-0.424c0.219-0.367,0.464-0.641,0.738-0.821
					c0.266-0.18,0.628-0.268,1.087-0.264c0.439,0.004,0.808,0.097,1.108,0.276c0.311,0.18,0.53,0.425,0.655,0.734l0.816,0.004
					l0.12,0.389l-0.844-0.003c0.026,0.316-0.103,0.574-0.395,0.776c-0.301,0.204-0.787,0.303-1.453,0.296l-0.029-0.008l-0.055-0.703
					c0.378,0,0.639-0.051,0.783-0.153c0.143-0.103,0.199-0.234,0.172-0.4c-0.026-0.162-0.11-0.283-0.254-0.364
					C141.451,55.596,141.268,55.554,141.043,55.552z"/>
			</g>
		</g>
	</g>
	<g>
		<g>
			<path fill="#F4D256" d="M127.551,55.421V52.33h23.916v3.092c0,0-2.71,2.208-11.958,2.208S127.551,55.421,127.551,55.421z"/>
			<ellipse fill="#DC9928" cx="139.509" cy="52.33" rx="11.958" ry="2.319"/>
		</g>
		<g>
			<g>
				<path fill="#F4D256" d="M141.043,51.809c-0.221-0.001-0.396,0.035-0.525,0.112c-0.132,0.077-0.258,0.215-0.382,0.413
					c-0.215,0.373-0.478,0.649-0.785,0.83c-0.315,0.18-0.758,0.271-1.321,0.271c-0.52-0.001-0.926-0.093-1.212-0.274
					c-0.274-0.184-0.396-0.431-0.362-0.744l-0.913-0.003l0.141-0.399l0.895,0.004c0.152-0.302,0.401-0.536,0.743-0.704
					c0.333-0.167,0.73-0.247,1.199-0.238l0.017,0.004l-0.089,0.714c-0.295-0.002-0.528,0.037-0.699,0.118
					c-0.177,0.081-0.28,0.197-0.311,0.347c-0.032,0.155,0.016,0.27,0.144,0.34c0.129,0.07,0.314,0.106,0.557,0.106
					c0.223,0.001,0.405-0.035,0.546-0.109c0.14-0.074,0.291-0.214,0.456-0.423c0.219-0.368,0.464-0.642,0.738-0.822
					c0.266-0.18,0.628-0.268,1.087-0.264c0.439,0.004,0.808,0.098,1.108,0.277c0.311,0.181,0.53,0.425,0.655,0.733l0.816,0.004
					l0.121,0.391l-0.844-0.003c0.025,0.315-0.104,0.572-0.396,0.776c-0.301,0.202-0.787,0.301-1.453,0.294l-0.029-0.007
					l-0.055-0.704c0.378,0,0.639-0.05,0.783-0.153c0.143-0.101,0.199-0.234,0.172-0.399c-0.025-0.161-0.11-0.283-0.253-0.363
					C141.451,51.85,141.268,51.81,141.043,51.809z"/>
			</g>
		</g>
	</g>
	<g>
		<g>
			<path fill="#F4D256" d="M127.551,51.675v-3.092h23.916v3.092c0,0-2.71,2.211-11.958,2.211S127.551,51.675,127.551,51.675z"/>
			<ellipse fill="#DC9928" cx="139.509" cy="48.583" rx="11.958" ry="2.319"/>
		</g>
		<g>
			<g>
				<path fill="#F4D256" d="M141.043,48.063c-0.221-0.001-0.396,0.036-0.525,0.113c-0.132,0.078-0.258,0.216-0.382,0.413
					c-0.215,0.374-0.478,0.65-0.785,0.83c-0.315,0.181-0.758,0.272-1.321,0.272c-0.52-0.001-0.926-0.093-1.211-0.275
					c-0.275-0.183-0.396-0.431-0.363-0.744l-0.912-0.003l0.141-0.399l0.894,0.004c0.152-0.301,0.401-0.535,0.744-0.704
					c0.332-0.169,0.73-0.247,1.198-0.238l0.017,0.006l-0.089,0.711c-0.294-0.002-0.527,0.038-0.699,0.12
					c-0.177,0.081-0.28,0.196-0.311,0.346c-0.032,0.157,0.016,0.271,0.144,0.341c0.128,0.071,0.314,0.106,0.557,0.106
					c0.223,0.001,0.405-0.035,0.546-0.109c0.14-0.073,0.291-0.216,0.456-0.424c0.219-0.367,0.464-0.641,0.738-0.82
					c0.266-0.181,0.628-0.269,1.087-0.265c0.439,0.004,0.808,0.097,1.108,0.276c0.311,0.182,0.53,0.425,0.655,0.734l0.816,0.004
					l0.121,0.391l-0.844-0.003c0.025,0.314-0.104,0.573-0.396,0.775c-0.301,0.203-0.787,0.302-1.453,0.295l-0.029-0.008
					l-0.055-0.703c0.378,0.001,0.639-0.049,0.783-0.152c0.143-0.103,0.198-0.236,0.172-0.401c-0.025-0.161-0.11-0.283-0.254-0.364
					C141.451,48.106,141.268,48.064,141.043,48.063z"/>
			</g>
		</g>
	</g>
	<g>
		<g>
			<path fill="#F4D256" d="M127.551,47.932v-3.093h23.916v3.093c0,0-2.71,2.208-11.958,2.208S127.551,47.932,127.551,47.932z"/>
			<ellipse fill="#DC9928" cx="139.509" cy="44.839" rx="11.958" ry="2.32"/>
		</g>
		<g>
			<g>
				<path fill="#F4D256" d="M141.043,44.318c-0.221-0.001-0.396,0.037-0.525,0.113c-0.132,0.077-0.258,0.215-0.382,0.412
					c-0.215,0.374-0.478,0.65-0.785,0.831c-0.315,0.18-0.758,0.271-1.321,0.271c-0.52-0.001-0.926-0.093-1.212-0.274
					c-0.274-0.184-0.395-0.432-0.362-0.744l-0.913-0.003l0.142-0.4l0.894,0.004c0.152-0.301,0.401-0.535,0.743-0.703
					c0.333-0.168,0.731-0.248,1.199-0.239l0.017,0.007l-0.089,0.711c-0.295-0.002-0.528,0.038-0.7,0.12
					c-0.176,0.081-0.279,0.196-0.31,0.345c-0.032,0.157,0.015,0.272,0.144,0.341c0.129,0.07,0.314,0.107,0.557,0.108
					c0.222,0.001,0.405-0.037,0.546-0.111c0.14-0.073,0.291-0.215,0.456-0.423c0.219-0.368,0.464-0.642,0.738-0.822
					c0.266-0.18,0.628-0.268,1.087-0.264c0.439,0.004,0.808,0.098,1.108,0.277c0.311,0.181,0.53,0.425,0.655,0.733l0.816,0.004
					l0.121,0.391L142.823,45c0.025,0.314-0.104,0.573-0.396,0.776c-0.301,0.202-0.787,0.301-1.453,0.294l-0.029-0.007l-0.055-0.704
					c0.378,0.001,0.639-0.051,0.783-0.153c0.143-0.101,0.199-0.234,0.172-0.398c-0.025-0.162-0.109-0.283-0.254-0.365
					C141.451,44.36,141.268,44.319,141.043,44.318z"/>
			</g>
		</g>
	</g>
	<g>
		<g>
			<path fill="#F4D256" d="M127.551,44.188v-3.095h23.916v3.095c0,0-2.71,2.208-11.958,2.208S127.551,44.188,127.551,44.188z"/>
			<ellipse fill="#DC9928" cx="139.509" cy="41.093" rx="11.958" ry="2.322"/>
		</g>
		<g>
			<g>
				<path fill="#F4D256" d="M141.043,40.573c-0.221-0.001-0.396,0.036-0.525,0.113c-0.132,0.077-0.258,0.215-0.382,0.413
					c-0.215,0.374-0.478,0.65-0.785,0.83c-0.315,0.182-0.758,0.271-1.321,0.271c-0.52-0.001-0.926-0.091-1.211-0.274
					c-0.275-0.183-0.396-0.431-0.363-0.743l-0.913-0.003l0.142-0.4l0.894,0.004c0.153-0.302,0.401-0.535,0.744-0.704
					c0.332-0.169,0.73-0.247,1.198-0.238l0.017,0.006l-0.089,0.711c-0.294-0.002-0.527,0.038-0.699,0.12
					c-0.177,0.082-0.28,0.197-0.311,0.346c-0.032,0.157,0.016,0.27,0.144,0.341c0.129,0.07,0.314,0.105,0.557,0.105
					c0.223,0.001,0.405-0.035,0.546-0.108c0.14-0.073,0.291-0.216,0.456-0.424c0.219-0.367,0.464-0.641,0.738-0.82
					c0.266-0.181,0.628-0.269,1.087-0.265c0.439,0.004,0.808,0.096,1.108,0.276c0.311,0.181,0.53,0.426,0.655,0.734l0.816,0.004
					l0.12,0.39l-0.844-0.003c0.026,0.315-0.103,0.574-0.395,0.776c-0.301,0.202-0.787,0.302-1.453,0.295l-0.029-0.008l-0.055-0.703
					c0.378,0.001,0.639-0.051,0.783-0.153c0.143-0.102,0.198-0.235,0.172-0.398c-0.025-0.163-0.109-0.283-0.254-0.366
					C141.451,40.616,141.268,40.574,141.043,40.573z"/>
			</g>
		</g>
	</g>
	<g>
		<g>
			<path fill="#F4D256" d="M127.551,40.442v-3.093h23.916v3.093c0,0-2.71,2.21-11.958,2.21S127.551,40.442,127.551,40.442z"/>
			<ellipse fill="#DC9928" cx="139.509" cy="37.349" rx="11.958" ry="2.317"/>
		</g>
		<g>
			<g>
				<path fill="#F4D256" d="M141.043,36.828c-0.221-0.001-0.396,0.037-0.525,0.113c-0.132,0.077-0.258,0.215-0.382,0.412
					c-0.215,0.374-0.478,0.65-0.785,0.831c-0.315,0.18-0.758,0.271-1.321,0.271c-0.52-0.001-0.926-0.093-1.212-0.274
					c-0.274-0.184-0.395-0.431-0.362-0.744l-0.913-0.003l0.142-0.4l0.894,0.004c0.152-0.301,0.401-0.535,0.743-0.703
					c0.333-0.168,0.731-0.248,1.199-0.239l0.017,0.006l-0.089,0.712c-0.295-0.002-0.528,0.038-0.7,0.12
					c-0.176,0.08-0.279,0.196-0.31,0.345c-0.032,0.157,0.016,0.271,0.144,0.341c0.129,0.07,0.314,0.106,0.557,0.106
					c0.223,0.001,0.405-0.036,0.546-0.109c0.14-0.073,0.291-0.215,0.456-0.423c0.219-0.368,0.464-0.642,0.738-0.821
					c0.266-0.181,0.628-0.269,1.087-0.265c0.439,0.004,0.808,0.097,1.108,0.277c0.311,0.181,0.53,0.425,0.655,0.733l0.816,0.004
					l0.121,0.391l-0.844-0.003c0.025,0.314-0.104,0.573-0.396,0.776c-0.301,0.202-0.787,0.301-1.453,0.294l-0.029-0.007
					l-0.055-0.704c0.378,0.001,0.639-0.051,0.783-0.153c0.143-0.101,0.199-0.234,0.172-0.398c-0.025-0.162-0.109-0.283-0.254-0.365
					C141.451,36.871,141.268,36.829,141.043,36.828z"/>
			</g>
		</g>
	</g>
	<g>
		<g>
			<path fill="#F4D256" d="M127.551,36.696v-3.09h23.916v3.09c0,0-2.71,2.21-11.958,2.21S127.551,36.696,127.551,36.696z"/>
			<path fill="#DC9928" d="M151.467,33.606c0,1.278-5.354,2.317-11.958,2.317c-6.604,0-11.958-1.039-11.958-2.317
				c0-1.283,5.354-2.32,11.958-2.32C146.114,31.286,151.467,32.323,151.467,33.606z"/>
		</g>
		<g>
			<g>
				<path fill="#F4D256" d="M141.043,33.083c-0.221-0.001-0.396,0.037-0.525,0.114c-0.132,0.077-0.258,0.213-0.382,0.412
					c-0.215,0.372-0.478,0.65-0.785,0.83c-0.315,0.181-0.758,0.271-1.321,0.271c-0.52,0-0.926-0.091-1.211-0.273
					c-0.275-0.183-0.396-0.432-0.363-0.745l-0.912-0.003l0.141-0.399l0.895,0.005c0.151-0.301,0.4-0.535,0.742-0.704
					c0.333-0.169,0.731-0.248,1.199-0.238l0.017,0.005l-0.089,0.712c-0.295-0.002-0.527,0.037-0.699,0.119
					c-0.177,0.082-0.28,0.197-0.311,0.346c-0.032,0.157,0.016,0.271,0.144,0.342c0.129,0.07,0.314,0.104,0.557,0.105
					c0.223,0,0.405-0.036,0.546-0.108c0.14-0.074,0.291-0.215,0.456-0.424c0.219-0.367,0.464-0.642,0.738-0.821
					c0.266-0.18,0.628-0.268,1.087-0.264c0.439,0.004,0.808,0.095,1.108,0.276c0.311,0.18,0.53,0.424,0.655,0.734l0.816,0.004
					l0.12,0.389l-0.844-0.003c0.026,0.315-0.103,0.574-0.395,0.776c-0.301,0.203-0.787,0.302-1.453,0.296l-0.029-0.009l-0.055-0.702
					c0.378,0,0.639-0.051,0.783-0.153c0.143-0.103,0.198-0.236,0.172-0.399c-0.025-0.162-0.11-0.284-0.254-0.366
					C141.451,33.126,141.268,33.085,141.043,33.083z"/>
			</g>
		</g>
	</g>
	<g>
		<g>
			<path fill="#F4D256" d="M127.551,32.952V29.86h23.916v3.092c0,0-2.71,2.208-11.958,2.208S127.551,32.952,127.551,32.952z"/>
			<ellipse fill="#DC9928" cx="139.509" cy="29.86" rx="11.958" ry="2.317"/>
		</g>
		<g>
			<g>
				<path fill="#F4D256" d="M141.043,29.337c-0.221-0.001-0.396,0.037-0.525,0.112c-0.132,0.079-0.258,0.217-0.382,0.414
					c-0.215,0.374-0.478,0.65-0.785,0.831c-0.315,0.181-0.758,0.271-1.321,0.271c-0.52-0.001-0.926-0.092-1.211-0.274
					c-0.275-0.184-0.396-0.433-0.363-0.744l-0.913-0.003l0.142-0.401l0.895,0.005c0.151-0.301,0.4-0.535,0.743-0.705
					c0.332-0.167,0.73-0.247,1.198-0.237l0.017,0.005l-0.089,0.712c-0.295-0.002-0.528,0.039-0.7,0.121
					c-0.176,0.08-0.279,0.195-0.31,0.344c-0.032,0.157,0.016,0.271,0.144,0.343c0.129,0.069,0.314,0.105,0.557,0.105
					c0.223,0.001,0.405-0.037,0.546-0.109c0.14-0.074,0.291-0.215,0.456-0.424c0.219-0.367,0.464-0.641,0.738-0.821
					c0.266-0.18,0.628-0.268,1.087-0.264c0.439,0.004,0.808,0.097,1.108,0.276c0.311,0.181,0.53,0.426,0.655,0.734l0.816,0.004
					l0.12,0.39l-0.844-0.003c0.026,0.314-0.103,0.573-0.395,0.776c-0.301,0.203-0.787,0.301-1.453,0.295l-0.029-0.009l-0.055-0.702
					c0.378,0,0.639-0.051,0.783-0.152c0.143-0.103,0.198-0.236,0.172-0.401c-0.025-0.161-0.11-0.283-0.254-0.363
					C141.451,29.38,141.268,29.339,141.043,29.337z"/>
			</g>
		</g>
	</g>
	<g>
		<g>
			<path fill="#F4D256" d="M127.551,29.206v-3.092h23.916v3.092c0,0-2.71,2.208-11.958,2.208S127.551,29.206,127.551,29.206z"/>
			<ellipse fill="#DC9928" cx="139.509" cy="26.114" rx="11.958" ry="2.319"/>
		</g>
		<g>
			<g>
				<path fill="#F4D256" d="M141.043,25.591c-0.221-0.001-0.396,0.037-0.525,0.114c-0.132,0.077-0.258,0.215-0.382,0.413
					c-0.215,0.372-0.478,0.649-0.785,0.831c-0.315,0.179-0.758,0.271-1.321,0.271c-0.52-0.001-0.926-0.093-1.212-0.273
					c-0.274-0.185-0.396-0.432-0.362-0.745l-0.913-0.003l0.142-0.401l0.895,0.005c0.151-0.301,0.4-0.535,0.742-0.704
					c0.333-0.166,0.73-0.246,1.199-0.237l0.017,0.004l-0.089,0.712c-0.295-0.002-0.528,0.039-0.699,0.12
					c-0.177,0.082-0.28,0.197-0.311,0.345c-0.032,0.157,0.016,0.271,0.144,0.343c0.129,0.069,0.314,0.105,0.557,0.105
					c0.223,0.001,0.405-0.035,0.546-0.109c0.14-0.074,0.291-0.215,0.456-0.423c0.219-0.367,0.464-0.642,0.738-0.822
					c0.266-0.18,0.628-0.268,1.087-0.264c0.439,0.004,0.808,0.098,1.108,0.276c0.311,0.181,0.53,0.426,0.655,0.734l0.816,0.004
					l0.12,0.39l-0.844-0.003c0.026,0.316-0.103,0.573-0.395,0.776c-0.301,0.203-0.787,0.301-1.453,0.295l-0.029-0.007l-0.055-0.704
					c0.378,0,0.639-0.05,0.783-0.153c0.143-0.102,0.198-0.235,0.172-0.399c-0.025-0.162-0.11-0.283-0.253-0.363
					C141.451,25.634,141.268,25.593,141.043,25.591z"/>
			</g>
		</g>
	</g>
	<g>
		<g>
			<path fill="#F4D256" d="M127.551,25.459v-3.092h23.916v3.092c0,0-2.71,2.21-11.958,2.21S127.551,25.459,127.551,25.459z"/>
			<ellipse fill="#DC9928" cx="139.509" cy="22.368" rx="11.958" ry="2.319"/>
		</g>
		<g>
			<g>
				<path fill="#F4D256" d="M141.043,21.846c-0.221-0.001-0.396,0.037-0.525,0.114c-0.132,0.077-0.258,0.216-0.382,0.413
					c-0.215,0.373-0.478,0.651-0.785,0.83c-0.315,0.181-0.758,0.272-1.321,0.272c-0.52-0.001-0.926-0.093-1.211-0.275
					c-0.275-0.182-0.396-0.431-0.363-0.744l-0.912-0.003l0.14-0.398l0.895,0.004c0.152-0.303,0.401-0.537,0.744-0.706
					c0.332-0.168,0.729-0.246,1.198-0.237l0.017,0.005l-0.089,0.711c-0.294-0.002-0.527,0.039-0.699,0.12
					c-0.177,0.082-0.28,0.197-0.311,0.348c-0.032,0.155,0.016,0.27,0.144,0.34c0.128,0.071,0.314,0.105,0.557,0.105
					c0.223,0.001,0.405-0.034,0.546-0.109c0.14-0.073,0.291-0.215,0.456-0.423c0.219-0.366,0.464-0.642,0.738-0.821
					c0.266-0.18,0.628-0.268,1.087-0.264c0.439,0.004,0.808,0.095,1.108,0.276c0.311,0.182,0.53,0.425,0.655,0.734l0.816,0.004
					l0.121,0.391l-0.844-0.003c0.025,0.315-0.104,0.572-0.396,0.774c-0.301,0.203-0.787,0.303-1.453,0.296l-0.029-0.008
					l-0.055-0.702c0.378,0.001,0.639-0.051,0.783-0.153c0.143-0.104,0.198-0.237,0.172-0.401c-0.026-0.162-0.11-0.283-0.254-0.364
					C141.451,21.89,141.268,21.848,141.043,21.846z"/>
			</g>
		</g>
	</g>
	<g>
		<g>
			<path fill="#F4D256" d="M127.551,21.715v-3.092h23.916v3.092c0,0-2.71,2.208-11.958,2.208S127.551,21.715,127.551,21.715z"/>
			<path fill="#DC9928" d="M151.467,18.624c0,1.283-5.354,2.317-11.958,2.317c-6.604,0-11.958-1.034-11.958-2.317
				c0-1.281,5.354-2.32,11.958-2.32C146.114,16.303,151.467,17.342,151.467,18.624z"/>
		</g>
		<g>
			<g>
				<path fill="#F4D256" d="M141.043,18.102c-0.221-0.002-0.396,0.036-0.525,0.113c-0.132,0.077-0.258,0.215-0.382,0.412
					c-0.215,0.374-0.478,0.65-0.785,0.831c-0.315,0.18-0.758,0.271-1.321,0.271c-0.52-0.001-0.926-0.093-1.211-0.274
					c-0.275-0.184-0.396-0.432-0.363-0.744l-0.913-0.003l0.142-0.401l0.895,0.005c0.151-0.301,0.4-0.535,0.742-0.704
					c0.333-0.167,0.731-0.247,1.199-0.238l0.017,0.006l-0.089,0.711c-0.295-0.002-0.527,0.037-0.699,0.12
					c-0.177,0.082-0.28,0.197-0.311,0.345c-0.032,0.157,0.015,0.272,0.144,0.344c0.129,0.068,0.314,0.105,0.557,0.106
					c0.222,0,0.405-0.038,0.546-0.111c0.14-0.074,0.291-0.215,0.456-0.424c0.219-0.367,0.464-0.641,0.738-0.82
					c0.266-0.181,0.628-0.269,1.087-0.265c0.439,0.004,0.808,0.097,1.108,0.277c0.311,0.18,0.53,0.425,0.655,0.733l0.816,0.004
					l0.121,0.392l-0.844-0.003c0.025,0.313-0.104,0.573-0.396,0.775c-0.301,0.202-0.787,0.302-1.453,0.294l-0.029-0.007
					l-0.055-0.704c0.378,0,0.639-0.051,0.783-0.153c0.143-0.102,0.199-0.233,0.172-0.399c-0.025-0.162-0.11-0.283-0.254-0.364
					C141.451,18.144,141.268,18.103,141.043,18.102z"/>
			</g>
		</g>
	</g>
	<g>
		<g>
			<path fill="#F4D256" d="M127.551,17.972v-3.093h23.916v3.093c0,0-2.71,2.208-11.958,2.208S127.551,17.972,127.551,17.972z"/>
			<ellipse fill="#DC9928" cx="139.509" cy="14.879" rx="11.958" ry="2.319"/>
		</g>
		<g>
			<g>
				<path fill="#F4D256" d="M141.043,14.356c-0.221-0.001-0.396,0.037-0.525,0.113c-0.132,0.078-0.258,0.216-0.382,0.414
					c-0.215,0.373-0.478,0.65-0.785,0.83c-0.315,0.181-0.758,0.271-1.321,0.271c-0.52,0-0.926-0.091-1.211-0.274
					c-0.275-0.182-0.396-0.43-0.363-0.742l-0.913-0.003l0.141-0.4l0.895,0.004c0.152-0.301,0.401-0.535,0.744-0.705
					c0.332-0.168,0.729-0.246,1.198-0.237l0.017,0.005l-0.089,0.711c-0.294-0.002-0.527,0.039-0.699,0.121
					c-0.177,0.082-0.28,0.197-0.311,0.346c-0.032,0.155,0.016,0.27,0.144,0.341c0.129,0.07,0.314,0.105,0.557,0.105
					c0.223,0.001,0.405-0.035,0.546-0.109c0.14-0.073,0.291-0.215,0.456-0.423c0.219-0.368,0.464-0.642,0.738-0.822
					c0.266-0.179,0.628-0.267,1.087-0.263c0.439,0.004,0.808,0.096,1.108,0.276c0.311,0.18,0.53,0.426,0.655,0.734l0.816,0.004
					l0.12,0.389l-0.844-0.003c0.026,0.316-0.104,0.573-0.395,0.776c-0.301,0.203-0.787,0.301-1.453,0.296l-0.029-0.008l-0.055-0.704
					c0.378,0.001,0.639-0.05,0.783-0.152c0.143-0.103,0.198-0.236,0.172-0.4c-0.025-0.16-0.11-0.282-0.254-0.364
					C141.451,14.4,141.268,14.358,141.043,14.356z"/>
			</g>
		</g>
	</g>
	<g>
		<g>
			<path fill="#F4D256" d="M127.551,14.225v-3.092h23.916v3.092c0,0-2.71,2.211-11.958,2.211S127.551,14.225,127.551,14.225z"/>
			<ellipse fill="#DC9928" cx="139.509" cy="11.133" rx="11.958" ry="2.319"/>
		</g>
		<g>
			<g>
				<path fill="#F4D256" d="M141.043,10.612c-0.221-0.001-0.396,0.036-0.525,0.113c-0.132,0.077-0.258,0.215-0.382,0.412
					c-0.215,0.373-0.478,0.65-0.785,0.831c-0.315,0.181-0.758,0.271-1.321,0.271c-0.52-0.001-0.926-0.092-1.212-0.274
					c-0.274-0.184-0.395-0.431-0.362-0.744l-0.913-0.003l0.142-0.4l0.895,0.004c0.151-0.301,0.4-0.535,0.743-0.703
					c0.332-0.169,0.73-0.248,1.198-0.239l0.017,0.005l-0.089,0.713c-0.295-0.002-0.527,0.038-0.699,0.12
					c-0.177,0.08-0.28,0.196-0.311,0.345c-0.032,0.156,0.016,0.271,0.144,0.343c0.129,0.068,0.314,0.104,0.557,0.104
					c0.223,0.001,0.405-0.035,0.546-0.109c0.14-0.072,0.291-0.215,0.456-0.423c0.219-0.368,0.464-0.642,0.738-0.822
					c0.266-0.18,0.628-0.267,1.087-0.263c0.439,0.004,0.808,0.096,1.108,0.276c0.311,0.181,0.53,0.425,0.654,0.733l0.816,0.004
					l0.121,0.391l-0.844-0.003c0.026,0.314-0.103,0.572-0.395,0.776c-0.301,0.202-0.787,0.301-1.453,0.294l-0.029-0.008
					l-0.055-0.703c0.377,0,0.639-0.05,0.783-0.153c0.143-0.103,0.198-0.234,0.172-0.399c-0.025-0.161-0.11-0.283-0.254-0.364
					C141.451,10.655,141.268,10.613,141.043,10.612z"/>
			</g>
		</g>
	</g>
</g>
<g>
	<path fill="#FFFFFF" d="M11.564,95.444h-2.09v2.21H8.61v-5.183h3.317v0.694H9.474v1.584h2.09V95.444z"/>
	<path fill="#FFFFFF" d="M13.582,97.654h-0.864v-5.183h0.864V97.654z"/>
	<path fill="#FFFFFF" d="M18.79,97.654h-0.865l-2.296-3.733l-0.021,0.007v3.727h-0.864v-5.183h0.864l2.296,3.734l0.021-0.008v-3.727
		h0.865V97.654z"/>
	<path fill="#FFFFFF" d="M22.772,95.323h-2.029v1.641h2.393v0.69h-3.257v-5.183h3.231v0.694h-2.367v1.463h2.029V95.323z"/>
	<path fill="#FFFFFF" d="M24.779,95.689v1.965h-0.864v-5.183H25.9c0.572,0,1.021,0.147,1.344,0.443
		c0.324,0.296,0.486,0.684,0.486,1.166c0,0.486-0.162,0.876-0.486,1.169c-0.323,0.293-0.771,0.439-1.344,0.439H24.779z
		 M24.779,94.995H25.9c0.32,0,0.562-0.085,0.723-0.256c0.162-0.171,0.242-0.388,0.242-0.651s-0.08-0.482-0.242-0.658
		c-0.161-0.176-0.402-0.264-0.723-0.264h-1.121V94.995z"/>
	<path fill="#FFFFFF" d="M14.238,104.572c0,0.591-0.144,1.056-0.43,1.395c-0.285,0.34-0.678,0.51-1.176,0.51
		s-0.893-0.171-1.182-0.511c-0.29-0.341-0.435-0.806-0.435-1.394v-1.523c0-0.586,0.144-1.051,0.431-1.392
		c0.287-0.342,0.68-0.513,1.179-0.513c0.498,0,0.892,0.171,1.18,0.513c0.288,0.341,0.433,0.806,0.433,1.392V104.572z M13.81,102.98
		c0-0.453-0.103-0.812-0.308-1.076s-0.498-0.397-0.877-0.397c-0.38,0-0.673,0.134-0.878,0.399s-0.308,0.624-0.308,1.074v1.655
		c0,0.448,0.104,0.808,0.312,1.077c0.207,0.27,0.501,0.403,0.881,0.403c0.377,0,0.668-0.134,0.872-0.401
		c0.204-0.269,0.306-0.628,0.306-1.079V102.98z"/>
	<path fill="#FFFFFF" d="M15.612,106.336l-0.378,0.982h-0.291l0.245-0.993v-0.594h0.424V106.336z"/>
	<path fill="#FFFFFF" d="M18.388,106.401h-0.427v-4.815l-1.229,0.149v-0.342l1.655-0.249V106.401z"/>
	<path fill="#FFFFFF" d="M20.473,102.215c0-0.302,0.093-0.556,0.279-0.762c0.187-0.207,0.432-0.31,0.735-0.31
		c0.301,0,0.545,0.103,0.731,0.31c0.186,0.206,0.279,0.46,0.279,0.762v0.273c0,0.3-0.093,0.552-0.278,0.757
		c-0.185,0.205-0.427,0.308-0.726,0.308c-0.306,0-0.553-0.103-0.74-0.308s-0.281-0.457-0.281-0.757V102.215z M20.815,102.489
		c0,0.209,0.059,0.387,0.176,0.534c0.118,0.147,0.285,0.221,0.504,0.221c0.211,0,0.374-0.073,0.489-0.221s0.173-0.325,0.173-0.534
		v-0.273c0-0.209-0.059-0.389-0.175-0.538s-0.281-0.224-0.494-0.224c-0.214,0-0.379,0.074-0.497,0.224
		c-0.117,0.149-0.176,0.329-0.176,0.538V102.489z M21.598,105.97l-0.264-0.171l2.53-4.051l0.264,0.171L21.598,105.97z
		 M23.079,105.13c0-0.299,0.093-0.552,0.279-0.759c0.187-0.206,0.432-0.31,0.735-0.31c0.301,0,0.545,0.104,0.732,0.31
		c0.188,0.207,0.281,0.46,0.281,0.759v0.277c0,0.302-0.093,0.555-0.279,0.76c-0.186,0.205-0.429,0.309-0.728,0.309
		c-0.307,0-0.553-0.104-0.74-0.309s-0.281-0.458-0.281-0.76V105.13z M23.423,105.408c0,0.211,0.059,0.391,0.175,0.537
		c0.116,0.147,0.283,0.221,0.502,0.221c0.211,0,0.374-0.073,0.489-0.221c0.115-0.146,0.173-0.326,0.173-0.537v-0.277
		c0-0.216-0.059-0.396-0.175-0.541s-0.281-0.218-0.494-0.218c-0.214,0-0.379,0.073-0.495,0.22c-0.116,0.146-0.175,0.325-0.175,0.539
		V105.408z"/>
</g>
<g>
	<path fill="#FFFFFF" d="M41.644,96.963h2.428v0.69H40.78v-5.183h0.864V96.963z"/>
	<path fill="#FFFFFF" d="M46.349,97.729c-0.562,0-1.002-0.178-1.318-0.532c-0.316-0.355-0.475-0.814-0.475-1.38v-0.142
		c0-0.565,0.158-1.031,0.475-1.397s0.726-0.549,1.227-0.547c0.517,0,0.908,0.16,1.174,0.479c0.267,0.319,0.399,0.745,0.399,1.279
		v0.466h-2.382l-0.007,0.019c0.01,0.315,0.093,0.571,0.249,0.769c0.157,0.197,0.393,0.295,0.708,0.295
		c0.235,0,0.438-0.028,0.611-0.085c0.172-0.057,0.331-0.139,0.479-0.246l0.281,0.566c-0.147,0.128-0.342,0.236-0.584,0.324
		S46.666,97.729,46.349,97.729z M46.257,94.425c-0.226,0-0.406,0.081-0.541,0.244c-0.136,0.162-0.22,0.374-0.253,0.635l0.007,0.019
		h1.506v-0.068c0-0.246-0.058-0.446-0.173-0.6C46.688,94.502,46.506,94.425,46.257,94.425z"/>
	<path fill="#FFFFFF" d="M49.454,92.86h-0.865v-0.759h0.865V92.86z M49.454,97.654h-0.865v-3.852h0.865V97.654z"/>
	<path fill="#FFFFFF" d="M52.078,95.782c0-0.614,0.131-1.11,0.395-1.486s0.634-0.564,1.11-0.564c0.209,0,0.396,0.043,0.561,0.127
		s0.309,0.204,0.429,0.361v-2.118h0.865v5.553h-0.701l-0.104-0.487c-0.123,0.183-0.272,0.322-0.448,0.418s-0.378,0.145-0.608,0.145
		c-0.473,0-0.84-0.173-1.104-0.517s-0.395-0.796-0.395-1.356V95.782z M52.942,95.856c0,0.356,0.068,0.64,0.205,0.851
		c0.136,0.212,0.353,0.317,0.649,0.317c0.183,0,0.338-0.039,0.465-0.117c0.127-0.079,0.23-0.19,0.311-0.335v-1.68
		c-0.08-0.143-0.185-0.254-0.313-0.333s-0.28-0.119-0.456-0.119c-0.294,0-0.511,0.124-0.651,0.372c-0.14,0.248-0.21,0.571-0.21,0.97
		V95.856z"/>
	<path fill="#FFFFFF" d="M57.999,97.729c-0.562,0-1.002-0.178-1.318-0.532c-0.316-0.355-0.475-0.814-0.475-1.38v-0.142
		c0-0.565,0.158-1.031,0.475-1.397s0.726-0.549,1.227-0.547c0.517,0,0.908,0.16,1.174,0.479c0.267,0.319,0.399,0.745,0.399,1.279
		v0.466h-2.382l-0.007,0.019c0.01,0.315,0.093,0.571,0.249,0.769c0.157,0.197,0.393,0.295,0.708,0.295
		c0.235,0,0.438-0.028,0.611-0.085c0.172-0.057,0.331-0.139,0.479-0.246l0.281,0.566c-0.147,0.128-0.342,0.236-0.584,0.324
		S58.315,97.729,57.999,97.729z M57.907,94.425c-0.226,0-0.406,0.081-0.541,0.244c-0.136,0.162-0.22,0.374-0.253,0.635l0.007,0.019
		h1.506v-0.068c0-0.246-0.058-0.446-0.173-0.6C58.337,94.502,58.156,94.425,57.907,94.425z"/>
	<path fill="#FFFFFF" d="M63.021,97.654h-0.864v-5.183h0.864V97.654z"/>
	<path fill="#FFFFFF" d="M64.875,93.802l0.05,0.556c0.126-0.197,0.284-0.351,0.476-0.461s0.406-0.166,0.646-0.166
		c0.401,0,0.714,0.124,0.938,0.371c0.225,0.246,0.336,0.632,0.336,1.156v2.396h-0.864v-2.389c0-0.299-0.059-0.511-0.175-0.637
		s-0.292-0.188-0.526-0.188c-0.186,0-0.346,0.035-0.48,0.104c-0.136,0.07-0.244,0.167-0.324,0.29v2.819h-0.865v-3.852H64.875z"/>
	<path fill="#FFFFFF" d="M69.792,97.038c0.197,0,0.363-0.062,0.5-0.185s0.205-0.28,0.205-0.47h0.782l0.008,0.021
		c0.009,0.36-0.134,0.671-0.43,0.933c-0.295,0.261-0.65,0.392-1.065,0.392c-0.556,0-0.983-0.184-1.285-0.551
		c-0.301-0.366-0.452-0.828-0.452-1.386v-0.125c0-0.555,0.151-1.017,0.452-1.385c0.302-0.367,0.729-0.552,1.281-0.552
		c0.448,0,0.813,0.135,1.093,0.404s0.415,0.611,0.406,1.027l-0.008,0.021h-0.782c0-0.212-0.065-0.391-0.196-0.538
		c-0.131-0.146-0.302-0.221-0.513-0.221c-0.309,0-0.53,0.119-0.665,0.358c-0.136,0.238-0.203,0.533-0.203,0.884v0.125
		c0,0.358,0.067,0.655,0.201,0.892S69.478,97.038,69.792,97.038z"/>
	<path fill="#FFFFFF" d="M72.963,97.654h-0.861v-0.829h0.861V97.654z"/>
	<path fill="#FFFFFF" d="M47.844,104.07h-2.029v1.641h2.393v0.69h-3.257v-5.183h3.231v0.694h-2.367v1.463h2.029V104.07z"/>
	<path fill="#FFFFFF" d="M51.062,105.347c0-0.133-0.057-0.242-0.17-0.329c-0.112-0.087-0.325-0.164-0.639-0.233
		c-0.453-0.092-0.8-0.229-1.039-0.409c-0.24-0.18-0.359-0.422-0.359-0.726c0-0.323,0.136-0.599,0.409-0.828
		c0.272-0.229,0.632-0.344,1.078-0.344c0.461,0,0.831,0.118,1.112,0.354s0.416,0.521,0.404,0.853l-0.007,0.021h-0.83
		c0-0.156-0.062-0.293-0.185-0.407c-0.123-0.115-0.288-0.173-0.495-0.173c-0.209,0-0.367,0.047-0.477,0.143
		c-0.109,0.095-0.164,0.211-0.164,0.349c0,0.13,0.051,0.234,0.153,0.313c0.102,0.078,0.312,0.147,0.63,0.21
		c0.473,0.095,0.828,0.234,1.068,0.418c0.239,0.184,0.359,0.43,0.359,0.738c0,0.347-0.144,0.63-0.43,0.849
		c-0.285,0.22-0.662,0.33-1.13,0.33c-0.5,0-0.896-0.129-1.185-0.385c-0.29-0.257-0.428-0.551-0.413-0.883l0.007-0.021h0.805
		c0.009,0.224,0.09,0.386,0.242,0.487c0.151,0.103,0.337,0.153,0.555,0.153c0.221,0,0.393-0.044,0.515-0.132
		S51.062,105.492,51.062,105.347z"/>
	<path fill="#FFFFFF" d="M56.063,104.603c0,0.561-0.132,1.013-0.396,1.356s-0.63,0.517-1.1,0.517c-0.219,0-0.412-0.04-0.58-0.118
		c-0.169-0.078-0.313-0.193-0.435-0.345v1.868h-0.864v-5.332h0.729l0.085,0.484c0.123-0.181,0.272-0.318,0.447-0.413
		c0.174-0.095,0.376-0.143,0.606-0.143c0.475,0,0.844,0.188,1.108,0.564s0.397,0.872,0.397,1.486V104.603z M55.202,104.529
		c0-0.394-0.074-0.716-0.223-0.967c-0.148-0.25-0.37-0.375-0.664-0.375c-0.181,0-0.333,0.038-0.459,0.115s-0.227,0.185-0.303,0.322
		v1.74c0.076,0.136,0.177,0.239,0.303,0.312s0.281,0.108,0.466,0.108c0.295,0,0.515-0.108,0.661-0.325
		c0.146-0.217,0.219-0.503,0.219-0.856V104.529z"/>
	<path fill="#FFFFFF" d="M56.658,104.44c0-0.574,0.156-1.045,0.471-1.411c0.314-0.367,0.745-0.551,1.291-0.551
		c0.553,0,0.986,0.184,1.301,0.551c0.314,0.366,0.472,0.837,0.472,1.411v0.074c0,0.579-0.157,1.051-0.472,1.415
		s-0.746,0.547-1.294,0.547c-0.551,0-0.983-0.184-1.298-0.549s-0.471-0.836-0.471-1.413V104.44z M57.522,104.514
		c0,0.378,0.073,0.684,0.221,0.919c0.147,0.234,0.375,0.352,0.684,0.352c0.302,0,0.527-0.117,0.678-0.354
		c0.151-0.236,0.227-0.542,0.227-0.917v-0.074c0-0.368-0.075-0.671-0.227-0.909c-0.15-0.239-0.379-0.358-0.685-0.358
		c-0.302,0-0.526,0.119-0.675,0.358c-0.148,0.238-0.223,0.541-0.223,0.909V104.514z"/>
	<path fill="#FFFFFF" d="M62.865,103.33l-0.37-0.015c-0.169,0-0.31,0.035-0.422,0.106s-0.2,0.173-0.262,0.303v2.677h-0.864v-3.852
		h0.79l0.057,0.56c0.098-0.197,0.223-0.352,0.376-0.463c0.152-0.111,0.329-0.168,0.528-0.168c0.052,0,0.101,0.005,0.146,0.013
		c0.045,0.009,0.087,0.019,0.125,0.03L62.865,103.33z"/>
	<path fill="#FFFFFF" d="M64.672,101.614v0.936h0.69v0.641h-0.69v2.129c0,0.159,0.034,0.272,0.104,0.34
		c0.068,0.067,0.16,0.102,0.273,0.102c0.048,0,0.094-0.004,0.14-0.013c0.045-0.008,0.087-0.02,0.128-0.033l0.093,0.633
		c-0.074,0.041-0.161,0.072-0.262,0.095c-0.102,0.022-0.206,0.034-0.315,0.034c-0.318,0-0.567-0.094-0.749-0.28
		c-0.182-0.186-0.272-0.479-0.272-0.877v-2.129h-0.587v-0.641h0.587v-0.936H64.672z"/>
	<path fill="#FFFFFF" d="M67.694,106.476c-0.562,0-1.002-0.178-1.318-0.532c-0.316-0.355-0.475-0.814-0.475-1.38v-0.142
		c0-0.565,0.158-1.031,0.475-1.397s0.726-0.549,1.227-0.547c0.517,0,0.908,0.16,1.174,0.479c0.267,0.319,0.399,0.745,0.399,1.279
		v0.466h-2.382l-0.007,0.019c0.01,0.315,0.093,0.571,0.249,0.769c0.157,0.197,0.393,0.295,0.708,0.295
		c0.235,0,0.438-0.028,0.611-0.085c0.172-0.057,0.331-0.139,0.479-0.246l0.281,0.566c-0.147,0.128-0.342,0.236-0.584,0.324
		S68.01,106.476,67.694,106.476z M67.602,103.172c-0.226,0-0.406,0.081-0.541,0.244c-0.136,0.162-0.22,0.374-0.253,0.635
		l0.007,0.019h1.506v-0.068c0-0.246-0.058-0.446-0.173-0.6C68.033,103.25,67.851,103.172,67.602,103.172z"/>
	<path fill="#FFFFFF" d="M53.113,113.32c0,0.591-0.144,1.056-0.43,1.395c-0.285,0.34-0.678,0.51-1.176,0.51
		s-0.893-0.171-1.182-0.511c-0.29-0.341-0.435-0.806-0.435-1.394v-1.523c0-0.586,0.144-1.051,0.431-1.392
		c0.287-0.342,0.68-0.513,1.179-0.513c0.498,0,0.892,0.171,1.18,0.513c0.288,0.341,0.433,0.806,0.433,1.392V113.32z M52.685,111.728
		c0-0.453-0.103-0.812-0.308-1.076s-0.498-0.397-0.877-0.397c-0.38,0-0.673,0.134-0.878,0.399s-0.308,0.624-0.308,1.074v1.655
		c0,0.448,0.104,0.808,0.312,1.077c0.207,0.27,0.501,0.403,0.881,0.403c0.377,0,0.668-0.134,0.872-0.401
		c0.204-0.269,0.306-0.628,0.306-1.079V111.728z"/>
	<path fill="#FFFFFF" d="M54.487,115.084l-0.378,0.982h-0.291l0.245-0.993v-0.594h0.424V115.084z"/>
	<path fill="#FFFFFF" d="M57.978,113.48h0.812v0.359h-0.812v1.31h-0.423v-1.31h-2.382v-0.242l2.339-3.631h0.466V113.48z
		 M55.679,113.48h1.876v-2.955l-0.021-0.007l-0.182,0.388L55.679,113.48z"/>
	<path fill="#FFFFFF" d="M59.348,110.963c0-0.302,0.093-0.556,0.279-0.762c0.187-0.207,0.432-0.31,0.735-0.31
		c0.301,0,0.545,0.103,0.731,0.31c0.186,0.206,0.279,0.46,0.279,0.762v0.273c0,0.3-0.093,0.552-0.278,0.757
		c-0.185,0.205-0.427,0.308-0.726,0.308c-0.306,0-0.553-0.103-0.74-0.308s-0.281-0.457-0.281-0.757V110.963z M59.69,111.237
		c0,0.209,0.059,0.387,0.176,0.534c0.118,0.147,0.285,0.221,0.504,0.221c0.211,0,0.374-0.073,0.489-0.221s0.173-0.325,0.173-0.534
		v-0.273c0-0.209-0.059-0.389-0.175-0.538s-0.281-0.224-0.494-0.224c-0.214,0-0.379,0.074-0.497,0.224
		c-0.117,0.149-0.176,0.329-0.176,0.538V111.237z M60.473,114.718l-0.264-0.171l2.53-4.051l0.264,0.171L60.473,114.718z
		 M61.954,113.878c0-0.299,0.093-0.552,0.279-0.759c0.187-0.206,0.432-0.31,0.735-0.31c0.301,0,0.545,0.104,0.732,0.31
		c0.188,0.207,0.281,0.46,0.281,0.759v0.277c0,0.302-0.093,0.555-0.279,0.76c-0.186,0.205-0.429,0.309-0.728,0.309
		c-0.307,0-0.553-0.104-0.74-0.309s-0.281-0.458-0.281-0.76V113.878z M62.298,114.156c0,0.211,0.059,0.391,0.175,0.537
		c0.116,0.147,0.283,0.221,0.502,0.221c0.211,0,0.374-0.073,0.489-0.221c0.115-0.146,0.173-0.326,0.173-0.537v-0.277
		c0-0.216-0.059-0.396-0.175-0.541s-0.281-0.218-0.494-0.218c-0.214,0-0.379,0.073-0.495,0.22c-0.116,0.146-0.175,0.325-0.175,0.539
		V114.156z"/>
</g>
<g>
	<path fill="#FFFFFF" d="M87.283,96.323c0-0.216-0.076-0.393-0.229-0.53s-0.424-0.261-0.813-0.37
		c-0.558-0.154-0.987-0.356-1.29-0.607c-0.303-0.25-0.454-0.577-0.454-0.98c0-0.417,0.166-0.762,0.499-1.032
		c0.332-0.271,0.759-0.405,1.281-0.405c0.56,0,1.008,0.149,1.344,0.45c0.335,0.3,0.497,0.671,0.485,1.112l-0.007,0.021h-0.833
		c0-0.273-0.091-0.49-0.272-0.651c-0.182-0.162-0.423-0.242-0.725-0.242c-0.291,0-0.517,0.068-0.674,0.206
		c-0.158,0.138-0.237,0.315-0.237,0.534c0,0.199,0.087,0.363,0.26,0.493c0.174,0.129,0.461,0.252,0.861,0.368
		c0.544,0.151,0.958,0.358,1.242,0.621c0.285,0.262,0.428,0.598,0.428,1.006c0,0.429-0.169,0.771-0.506,1.028
		c-0.337,0.256-0.779,0.385-1.327,0.385c-0.527,0-0.986-0.141-1.378-0.421c-0.392-0.279-0.581-0.675-0.569-1.185l0.007-0.021h0.833
		c0,0.311,0.107,0.545,0.322,0.703c0.215,0.157,0.477,0.236,0.785,0.236c0.306,0,0.544-0.064,0.714-0.194
		C87.198,96.718,87.283,96.543,87.283,96.323z"/>
	<path fill="#FFFFFF" d="M89.97,97.654h-0.864v-5.183h0.864V97.654z"/>
	<path fill="#FFFFFF" d="M95.177,97.654h-0.865l-2.296-3.733l-0.021,0.007v3.727H91.13v-5.183h0.864l2.296,3.734l0.021-0.008v-3.727
		h0.865V97.654z"/>
	<path fill="#FFFFFF" d="M100.054,95.959l0.007,0.021c0.01,0.522-0.16,0.943-0.509,1.266c-0.349,0.321-0.82,0.482-1.413,0.482
		c-0.603,0-1.092-0.204-1.467-0.611c-0.375-0.406-0.563-0.927-0.563-1.561v-0.985c0-0.632,0.186-1.151,0.556-1.562
		c0.37-0.409,0.853-0.613,1.448-0.613c0.61,0,1.09,0.155,1.44,0.466c0.35,0.312,0.52,0.737,0.511,1.278l-0.008,0.021h-0.836
		c0-0.346-0.094-0.611-0.281-0.795s-0.463-0.276-0.826-0.276c-0.351,0-0.629,0.14-0.834,0.419c-0.206,0.278-0.309,0.63-0.309,1.055
		v0.993c0,0.43,0.104,0.784,0.313,1.063c0.209,0.279,0.493,0.418,0.854,0.418c0.354,0,0.622-0.092,0.806-0.277
		c0.185-0.185,0.276-0.452,0.276-0.801H100.054z"/>
	<path fill="#FFFFFF" d="M104.965,95.529c0,0.634-0.198,1.158-0.596,1.575c-0.397,0.416-0.914,0.625-1.551,0.625
		c-0.619,0-1.123-0.209-1.513-0.625c-0.389-0.417-0.583-0.941-0.583-1.575v-0.933c0-0.631,0.193-1.155,0.582-1.573
		c0.388-0.417,0.893-0.626,1.514-0.626c0.634,0,1.15,0.209,1.549,0.626c0.398,0.418,0.598,0.942,0.598,1.573V95.529z
		 M104.101,94.589c0-0.432-0.115-0.787-0.346-1.064s-0.542-0.416-0.937-0.416c-0.382,0-0.683,0.139-0.901,0.416
		c-0.22,0.277-0.33,0.633-0.33,1.064v0.939c0,0.437,0.11,0.794,0.331,1.073s0.521,0.418,0.9,0.418c0.396,0,0.709-0.139,0.938-0.416
		c0.229-0.277,0.344-0.636,0.344-1.075V94.589z"/>
	<path fill="#FFFFFF" d="M107.471,96.248l0.093,0.378h0.021l0.089-0.37l1.239-3.784h0.922l-1.852,5.183h-0.822l-1.847-5.183h0.922
		L107.471,96.248z"/>
	<path fill="#FFFFFF" d="M94.58,106.401h-0.427v-4.815l-1.229,0.149v-0.342l1.655-0.249V106.401z"/>
	<path fill="#FFFFFF" d="M96.666,102.215c0-0.302,0.093-0.556,0.279-0.762c0.187-0.207,0.432-0.31,0.735-0.31
		c0.301,0,0.545,0.103,0.731,0.31c0.186,0.206,0.279,0.46,0.279,0.762v0.273c0,0.3-0.093,0.552-0.278,0.757
		c-0.185,0.205-0.427,0.308-0.726,0.308c-0.306,0-0.553-0.103-0.74-0.308s-0.281-0.457-0.281-0.757V102.215z M97.007,102.489
		c0,0.209,0.059,0.387,0.176,0.534c0.118,0.147,0.285,0.221,0.504,0.221c0.211,0,0.374-0.073,0.489-0.221s0.173-0.325,0.173-0.534
		v-0.273c0-0.209-0.059-0.389-0.175-0.538s-0.281-0.224-0.494-0.224c-0.214,0-0.379,0.074-0.497,0.224
		c-0.117,0.149-0.176,0.329-0.176,0.538V102.489z M97.791,105.97l-0.264-0.171l2.53-4.051l0.264,0.171L97.791,105.97z
		 M99.271,105.13c0-0.299,0.093-0.552,0.279-0.759c0.187-0.206,0.432-0.31,0.735-0.31c0.301,0,0.545,0.104,0.732,0.31
		c0.188,0.207,0.281,0.46,0.281,0.759v0.277c0,0.302-0.093,0.555-0.279,0.76c-0.186,0.205-0.429,0.309-0.728,0.309
		c-0.307,0-0.553-0.104-0.74-0.309s-0.281-0.458-0.281-0.76V105.13z M99.616,105.408c0,0.211,0.059,0.391,0.175,0.537
		c0.116,0.147,0.283,0.221,0.502,0.221c0.211,0,0.374-0.073,0.489-0.221c0.115-0.146,0.173-0.326,0.173-0.537v-0.277
		c0-0.216-0.059-0.396-0.175-0.541s-0.281-0.218-0.494-0.218c-0.214,0-0.379,0.073-0.495,0.22c-0.116,0.146-0.175,0.325-0.175,0.539
		V105.408z"/>
</g>
<g>
	<path fill="#FFFFFF" d="M124.241,96.963h2.428v0.69h-3.292v-5.183h0.864V96.963z"/>
	<path fill="#FFFFFF" d="M128.946,97.729c-0.562,0-1.002-0.178-1.318-0.532c-0.316-0.355-0.475-0.814-0.475-1.38v-0.142
		c0-0.565,0.158-1.031,0.475-1.397s0.726-0.549,1.227-0.547c0.517,0,0.908,0.16,1.174,0.479c0.267,0.319,0.399,0.745,0.399,1.279
		v0.466h-2.382l-0.007,0.019c0.01,0.315,0.093,0.571,0.249,0.769c0.157,0.197,0.393,0.295,0.708,0.295
		c0.235,0,0.438-0.028,0.611-0.085c0.172-0.057,0.331-0.139,0.479-0.246l0.281,0.566c-0.147,0.128-0.342,0.236-0.584,0.324
		S129.262,97.729,128.946,97.729z M128.854,94.425c-0.226,0-0.406,0.081-0.541,0.244c-0.136,0.162-0.22,0.374-0.253,0.635
		l0.007,0.019h1.506v-0.068c0-0.246-0.058-0.446-0.173-0.6C129.285,94.502,129.103,94.425,128.854,94.425z"/>
	<path fill="#FFFFFF" d="M132.05,92.86h-0.865v-0.759h0.865V92.86z M132.05,97.654h-0.865v-3.852h0.865V97.654z"/>
	<path fill="#FFFFFF" d="M134.674,95.782c0-0.614,0.131-1.11,0.395-1.486s0.634-0.564,1.11-0.564c0.209,0,0.396,0.043,0.561,0.127
		s0.309,0.204,0.429,0.361v-2.118h0.865v5.553h-0.701l-0.104-0.487c-0.123,0.183-0.272,0.322-0.448,0.418s-0.378,0.145-0.608,0.145
		c-0.473,0-0.84-0.173-1.104-0.517s-0.395-0.796-0.395-1.356V95.782z M135.539,95.856c0,0.356,0.068,0.64,0.205,0.851
		c0.136,0.212,0.353,0.317,0.649,0.317c0.183,0,0.338-0.039,0.465-0.117c0.127-0.079,0.23-0.19,0.311-0.335v-1.68
		c-0.08-0.143-0.185-0.254-0.313-0.333s-0.28-0.119-0.456-0.119c-0.294,0-0.511,0.124-0.651,0.372c-0.14,0.248-0.21,0.571-0.21,0.97
		V95.856z"/>
	<path fill="#FFFFFF" d="M140.595,97.729c-0.562,0-1.002-0.178-1.318-0.532c-0.316-0.355-0.475-0.814-0.475-1.38v-0.142
		c0-0.565,0.158-1.031,0.475-1.397s0.726-0.549,1.227-0.547c0.517,0,0.908,0.16,1.174,0.479c0.267,0.319,0.399,0.745,0.399,1.279
		v0.466h-2.382l-0.007,0.019c0.01,0.315,0.093,0.571,0.249,0.769c0.157,0.197,0.393,0.295,0.708,0.295
		c0.235,0,0.438-0.028,0.611-0.085c0.172-0.057,0.331-0.139,0.479-0.246l0.281,0.566c-0.147,0.128-0.342,0.236-0.584,0.324
		S140.912,97.729,140.595,97.729z M140.503,94.425c-0.226,0-0.406,0.081-0.541,0.244c-0.136,0.162-0.22,0.374-0.253,0.635
		l0.007,0.019h1.506v-0.068c0-0.246-0.058-0.446-0.173-0.6C140.934,94.502,140.752,94.425,140.503,94.425z"/>
	<path fill="#FFFFFF" d="M145.618,97.654h-0.864v-5.183h0.864V97.654z"/>
	<path fill="#FFFFFF" d="M147.472,93.802l0.05,0.556c0.126-0.197,0.284-0.351,0.476-0.461s0.406-0.166,0.646-0.166
		c0.401,0,0.714,0.124,0.938,0.371c0.225,0.246,0.336,0.632,0.336,1.156v2.396h-0.864v-2.389c0-0.299-0.059-0.511-0.175-0.637
		s-0.292-0.188-0.526-0.188c-0.186,0-0.346,0.035-0.48,0.104c-0.136,0.07-0.244,0.167-0.324,0.29v2.819h-0.865v-3.852H147.472z"/>
	<path fill="#FFFFFF" d="M152.388,97.038c0.197,0,0.363-0.062,0.5-0.185s0.205-0.28,0.205-0.47h0.782l0.008,0.021
		c0.009,0.36-0.134,0.671-0.43,0.933c-0.295,0.261-0.65,0.392-1.065,0.392c-0.556,0-0.983-0.184-1.285-0.551
		c-0.301-0.366-0.452-0.828-0.452-1.386v-0.125c0-0.555,0.151-1.017,0.452-1.385c0.302-0.367,0.729-0.552,1.281-0.552
		c0.448,0,0.813,0.135,1.093,0.404s0.415,0.611,0.406,1.027l-0.008,0.021h-0.782c0-0.212-0.065-0.391-0.196-0.538
		c-0.131-0.146-0.302-0.221-0.513-0.221c-0.309,0-0.53,0.119-0.665,0.358c-0.136,0.238-0.203,0.533-0.203,0.884v0.125
		c0,0.358,0.067,0.655,0.201,0.892S152.075,97.038,152.388,97.038z"/>
	<path fill="#FFFFFF" d="M155.56,97.654h-0.861v-0.829h0.861V97.654z"/>
	<path fill="#FFFFFF" d="M131.945,104.707l0.007,0.021c0.01,0.522-0.16,0.943-0.509,1.266c-0.349,0.321-0.82,0.482-1.413,0.482
		c-0.603,0-1.092-0.204-1.467-0.611c-0.375-0.406-0.563-0.927-0.563-1.561v-0.985c0-0.632,0.186-1.151,0.556-1.562
		c0.37-0.409,0.853-0.613,1.448-0.613c0.61,0,1.09,0.155,1.44,0.466c0.35,0.312,0.52,0.737,0.511,1.278l-0.008,0.021h-0.836
		c0-0.346-0.094-0.611-0.281-0.795s-0.463-0.276-0.826-0.276c-0.351,0-0.629,0.14-0.834,0.419c-0.206,0.278-0.309,0.63-0.309,1.055
		v0.993c0,0.43,0.104,0.784,0.313,1.063c0.209,0.279,0.493,0.418,0.854,0.418c0.354,0,0.622-0.092,0.806-0.277
		c0.185-0.185,0.276-0.452,0.276-0.801H131.945z"/>
	<path fill="#FFFFFF" d="M135.098,105.832c-0.119,0.206-0.271,0.365-0.458,0.477c-0.186,0.111-0.401,0.168-0.646,0.168
		c-0.413,0-0.735-0.137-0.969-0.408c-0.232-0.271-0.349-0.693-0.349-1.265v-2.254h0.861v2.261c0,0.367,0.054,0.62,0.16,0.756
		c0.107,0.137,0.273,0.205,0.499,0.205c0.208,0,0.384-0.037,0.524-0.112c0.142-0.074,0.252-0.184,0.333-0.325v-2.784h0.865v3.852
		h-0.744L135.098,105.832z"/>
	<path fill="#FFFFFF" d="M137.747,106.401h-0.865v-5.553h0.865V106.401z"/>
	<path fill="#FFFFFF" d="M139.821,101.614v0.936h0.69v0.641h-0.69v2.129c0,0.159,0.034,0.272,0.104,0.34
		c0.068,0.067,0.16,0.102,0.273,0.102c0.048,0,0.094-0.004,0.14-0.013c0.045-0.008,0.087-0.02,0.128-0.033l0.093,0.633
		c-0.074,0.041-0.161,0.072-0.262,0.095c-0.102,0.022-0.206,0.034-0.315,0.034c-0.318,0-0.567-0.094-0.749-0.28
		c-0.182-0.186-0.272-0.479-0.272-0.877v-2.129h-0.587v-0.641h0.587v-0.936H139.821z"/>
	<path fill="#FFFFFF" d="M143.612,105.832c-0.119,0.206-0.271,0.365-0.458,0.477c-0.186,0.111-0.401,0.168-0.646,0.168
		c-0.413,0-0.735-0.137-0.969-0.408c-0.232-0.271-0.349-0.693-0.349-1.265v-2.254h0.861v2.261c0,0.367,0.054,0.62,0.16,0.756
		c0.107,0.137,0.273,0.205,0.499,0.205c0.208,0,0.384-0.037,0.524-0.112c0.142-0.074,0.252-0.184,0.333-0.325v-2.784h0.865v3.852
		h-0.744L143.612,105.832z"/>
	<path fill="#FFFFFF" d="M147.256,103.33l-0.37-0.015c-0.169,0-0.31,0.035-0.422,0.106s-0.2,0.173-0.262,0.303v2.677h-0.864v-3.852
		h0.79l0.057,0.56c0.098-0.197,0.223-0.352,0.376-0.463c0.152-0.111,0.329-0.168,0.528-0.168c0.052,0,0.101,0.005,0.146,0.013
		c0.045,0.009,0.087,0.019,0.125,0.03L147.256,103.33z"/>
	<path fill="#FFFFFF" d="M150.218,106.401c-0.031-0.098-0.057-0.192-0.076-0.285c-0.021-0.092-0.034-0.185-0.041-0.277
		c-0.116,0.181-0.272,0.332-0.467,0.454s-0.411,0.184-0.651,0.184c-0.4,0-0.709-0.104-0.924-0.311
		c-0.215-0.206-0.321-0.489-0.321-0.851c0-0.372,0.146-0.662,0.44-0.87c0.295-0.207,0.709-0.312,1.242-0.312h0.673v-0.338
		c0-0.201-0.059-0.359-0.176-0.474c-0.117-0.113-0.288-0.171-0.511-0.171c-0.197,0-0.354,0.047-0.47,0.141s-0.175,0.216-0.175,0.365
		l-0.833,0.004l-0.003-0.021c-0.017-0.304,0.119-0.573,0.407-0.809c0.288-0.234,0.664-0.353,1.127-0.353
		c0.448,0,0.81,0.114,1.085,0.342c0.275,0.229,0.413,0.556,0.413,0.982v1.712c0,0.159,0.011,0.312,0.032,0.458
		c0.021,0.146,0.056,0.289,0.104,0.429H150.218z M149.161,105.782c0.216,0,0.411-0.055,0.586-0.164s0.29-0.233,0.347-0.374v-0.569
		h-0.687c-0.252,0-0.448,0.063-0.591,0.188c-0.143,0.124-0.214,0.271-0.214,0.439c0,0.146,0.048,0.264,0.145,0.351
		C148.842,105.739,148.981,105.782,149.161,105.782z"/>
	<path fill="#FFFFFF" d="M138.495,115.149h-3.153v-0.327l1.704-1.99c0.304-0.358,0.515-0.651,0.631-0.881
		c0.116-0.229,0.174-0.455,0.174-0.678c0-0.315-0.085-0.564-0.254-0.746c-0.17-0.182-0.421-0.272-0.753-0.272
		c-0.37,0-0.655,0.11-0.854,0.33c-0.199,0.219-0.299,0.5-0.299,0.842h-0.398l-0.008-0.021c-0.012-0.423,0.125-0.78,0.409-1.073
		c0.285-0.293,0.668-0.439,1.15-0.439c0.443,0,0.794,0.124,1.05,0.373c0.256,0.25,0.385,0.587,0.385,1.012
		c0,0.279-0.085,0.56-0.253,0.84c-0.169,0.279-0.417,0.619-0.744,1.018l-1.402,1.638l0.007,0.018h2.609V115.149z"/>
	<path fill="#FFFFFF" d="M139.228,110.963c0-0.302,0.093-0.556,0.279-0.762c0.187-0.207,0.432-0.31,0.735-0.31
		c0.301,0,0.545,0.103,0.731,0.31c0.186,0.206,0.279,0.46,0.279,0.762v0.273c0,0.3-0.093,0.552-0.278,0.757
		c-0.185,0.205-0.427,0.308-0.726,0.308c-0.306,0-0.553-0.103-0.74-0.308s-0.281-0.457-0.281-0.757V110.963z M139.57,111.237
		c0,0.209,0.059,0.387,0.176,0.534c0.118,0.147,0.285,0.221,0.504,0.221c0.211,0,0.374-0.073,0.489-0.221s0.173-0.325,0.173-0.534
		v-0.273c0-0.209-0.059-0.389-0.175-0.538s-0.281-0.224-0.494-0.224c-0.214,0-0.379,0.074-0.497,0.224
		c-0.117,0.149-0.176,0.329-0.176,0.538V111.237z M140.353,114.718l-0.264-0.171l2.53-4.051l0.264,0.171L140.353,114.718z
		 M141.833,113.878c0-0.299,0.093-0.552,0.279-0.759c0.187-0.206,0.432-0.31,0.735-0.31c0.301,0,0.545,0.104,0.732,0.31
		c0.188,0.207,0.281,0.46,0.281,0.759v0.277c0,0.302-0.093,0.555-0.279,0.76c-0.186,0.205-0.429,0.309-0.728,0.309
		c-0.307,0-0.553-0.104-0.74-0.309s-0.281-0.458-0.281-0.76V113.878z M142.178,114.156c0,0.211,0.059,0.391,0.175,0.537
		c0.116,0.147,0.283,0.221,0.502,0.221c0.211,0,0.374-0.073,0.489-0.221c0.115-0.146,0.173-0.326,0.173-0.537v-0.277
		c0-0.216-0.059-0.396-0.175-0.541s-0.281-0.218-0.494-0.218c-0.214,0-0.379,0.073-0.495,0.22c-0.116,0.146-0.175,0.325-0.175,0.539
		V114.156z"/>
</g>
</svg>
