<?xml version="1.0" encoding="utf-8"?>
<!-- Generator: Adobe Illustrator 14.0.0, SVG Export Plug-In . SVG Version: 6.00 Build 43363)  -->
<!DOCTYPE svg PUBLIC "-//W3C//DTD SVG 1.0//EN" "http://www.w3.org/TR/2001/REC-SVG-20010904/DTD/svg10.dtd">
<svg version="1.0" id="Camada_1" xmlns="http://www.w3.org/2000/svg" xmlns:xlink="http://www.w3.org/1999/xlink" x="0px" y="0px"
	 width="168px" height="155px" viewBox="0 0 168 155" enable-background="new 0 0 168 155" xml:space="preserve">
<circle opacity="0.47" fill="#043988" cx="83.681" cy="50.918" r="48.357"/>
<path opacity="0.88" fill="#F6D448" d="M164.702,104.543c0,26.703-21.649,48.354-48.356,48.354
	c-26.705,0-48.356-21.65-48.356-48.354c0-26.709,21.651-48.359,48.356-48.359C143.053,56.184,164.702,77.834,164.702,104.543z"/>
<path opacity="0.47" fill="#D5001E" d="M103.224,104.543c0,26.703-21.649,48.354-48.358,48.354
	c-26.704,0-48.354-21.65-48.354-48.354c0-26.709,21.651-48.359,48.354-48.359C81.574,56.184,103.224,77.834,103.224,104.543z"/>
<g>
	<g>
		<path fill="#FFFFFF" d="M73.174,20.038h-1.754v5.45h-1.541v-5.45h-1.723v-1.186h5.018V20.038z"/>
		<path fill="#FFFFFF" d="M75.375,25.488H73.83v-4.931h1.545V25.488z M74.787,18.543h1.691l0.009,0.027l-1.28,1.185h-1.358
			L74.787,18.543z"/>
		<path fill="#FFFFFF" d="M78.137,19.331v1.227h0.779v1.066h-0.779v2.26c0,0.177,0.036,0.304,0.107,0.381
			c0.071,0.077,0.167,0.116,0.289,0.116c0.079,0,0.142-0.003,0.189-0.009c0.047-0.007,0.107-0.019,0.18-0.037l0.105,1.14
			c-0.155,0.039-0.295,0.067-0.419,0.084s-0.272,0.025-0.442,0.025c-0.507,0-0.893-0.135-1.155-0.405s-0.394-0.699-0.394-1.285
			v-2.27h-0.688v-1.066h0.688v-1.227H78.137z"/>
		<path fill="#FFFFFF" d="M82.635,24.75c-0.146,0.268-0.335,0.474-0.567,0.617c-0.232,0.145-0.5,0.217-0.804,0.217
			c-0.51,0-0.911-0.18-1.201-0.538c-0.291-0.358-0.436-0.913-0.436-1.663v-2.825h1.536v2.834c0,0.386,0.049,0.65,0.148,0.793
			c0.099,0.144,0.251,0.215,0.458,0.215c0.164,0,0.309-0.023,0.433-0.068c0.125-0.046,0.231-0.114,0.319-0.205v-3.568h1.541v4.931
			h-1.24L82.635,24.75z"/>
		<path fill="#FFFFFF" d="M86.522,25.488h-1.545v-7.109h1.545V25.488z"/>
		<path fill="#FFFFFF" d="M87.261,22.978c0-0.741,0.21-1.346,0.629-1.812c0.419-0.467,1.004-0.7,1.755-0.7
			c0.753,0,1.34,0.233,1.759,0.7c0.419,0.466,0.629,1.07,0.629,1.812v0.096c0,0.744-0.21,1.349-0.629,1.813s-1.003,0.697-1.75,0.697
			c-0.757,0-1.345-0.232-1.764-0.697s-0.629-1.069-0.629-1.813V22.978z M88.801,23.073c0,0.413,0.064,0.737,0.194,0.973
			c0.129,0.235,0.349,0.354,0.658,0.354c0.301,0,0.517-0.119,0.647-0.355c0.13-0.237,0.195-0.561,0.195-0.971v-0.096
			c0-0.401-0.065-0.723-0.195-0.964c-0.131-0.242-0.35-0.362-0.656-0.362c-0.304,0-0.521,0.121-0.649,0.364
			c-0.13,0.243-0.194,0.563-0.194,0.962V23.073z"/>
		<path fill="#FFFFFF" d="M95.281,24.103c0-0.121-0.069-0.229-0.207-0.325c-0.139-0.096-0.39-0.182-0.755-0.258
			c-0.574-0.112-1.007-0.286-1.299-0.521c-0.291-0.235-0.438-0.561-0.438-0.974c0-0.435,0.183-0.803,0.547-1.104
			c0.365-0.303,0.858-0.454,1.481-0.454c0.656,0,1.179,0.146,1.567,0.44c0.39,0.293,0.574,0.672,0.557,1.137l-0.01,0.027h-1.494
			c0-0.194-0.049-0.342-0.146-0.442c-0.097-0.1-0.257-0.15-0.479-0.15c-0.161,0-0.296,0.044-0.405,0.133
			c-0.109,0.088-0.164,0.2-0.164,0.337c0,0.131,0.063,0.241,0.189,0.333c0.126,0.091,0.38,0.173,0.763,0.246
			c0.604,0.118,1.052,0.295,1.34,0.53c0.289,0.235,0.434,0.569,0.434,1.001c0,0.443-0.197,0.809-0.591,1.096
			s-0.913,0.431-1.561,0.431c-0.672,0-1.202-0.17-1.593-0.511c-0.391-0.34-0.576-0.72-0.559-1.139l0.01-0.027h1.395
			c0.006,0.233,0.076,0.402,0.212,0.506c0.135,0.103,0.327,0.154,0.576,0.154c0.207,0,0.363-0.04,0.47-0.12
			C95.229,24.366,95.281,24.252,95.281,24.103z"/>
		<path fill="#FFFFFF" d="M61.633,34.451l0.009,0.027c0.012,0.756-0.201,1.33-0.64,1.72c-0.439,0.391-1.061,0.586-1.866,0.586
			c-0.82,0-1.479-0.251-1.976-0.752c-0.497-0.501-0.745-1.157-0.745-1.969v-1.386c0-0.808,0.239-1.463,0.718-1.966
			s1.111-0.755,1.898-0.755c0.842,0,1.493,0.196,1.953,0.588c0.46,0.393,0.685,0.962,0.672,1.709l-0.014,0.027h-1.5
			c0-0.407-0.086-0.698-0.26-0.875c-0.173-0.176-0.457-0.264-0.852-0.264c-0.346,0-0.612,0.139-0.797,0.417
			c-0.186,0.277-0.278,0.647-0.278,1.109v1.395c0,0.465,0.102,0.837,0.306,1.116c0.204,0.28,0.495,0.42,0.875,0.42
			c0.353,0,0.607-0.089,0.763-0.265c0.157-0.176,0.235-0.471,0.235-0.884H61.633z"/>
		<path fill="#FFFFFF" d="M64.59,36.784c-0.748,0-1.333-0.227-1.757-0.679c-0.424-0.453-0.636-1.025-0.636-1.719v-0.173
			c0-0.754,0.2-1.367,0.599-1.841c0.399-0.475,0.978-0.71,1.734-0.707c0.665,0,1.181,0.199,1.547,0.598
			c0.366,0.397,0.549,0.943,0.549,1.636v0.807h-2.826l-0.009,0.027c0.024,0.258,0.12,0.467,0.287,0.627
			c0.167,0.159,0.407,0.239,0.72,0.239c0.295,0,0.54-0.024,0.736-0.073c0.196-0.049,0.42-0.126,0.672-0.232l0.369,0.938
			c-0.212,0.155-0.498,0.286-0.856,0.393C65.362,36.731,64.985,36.784,64.59,36.784z M64.531,32.852
			c-0.246,0-0.428,0.078-0.545,0.234c-0.117,0.156-0.185,0.368-0.203,0.636l0.009,0.022h1.331v-0.118
			c0-0.255-0.045-0.448-0.134-0.579C64.899,32.917,64.747,32.852,64.531,32.852z"/>
		<path fill="#FFFFFF" d="M70.004,33.07l-0.501-0.005c-0.176,0-0.321,0.032-0.433,0.098s-0.196,0.157-0.25,0.276v3.249h-1.541
			v-4.931h1.449l0.055,0.725c0.104-0.259,0.24-0.459,0.41-0.602c0.17-0.144,0.369-0.215,0.597-0.215c0.07,0,0.132,0.005,0.187,0.014
			c0.055,0.01,0.113,0.023,0.173,0.041L70.004,33.07z"/>
		<path fill="#FFFFFF" d="M72.415,30.531v1.227h0.779v1.066h-0.779v2.26c0,0.177,0.036,0.304,0.107,0.381
			c0.071,0.077,0.167,0.116,0.289,0.116c0.079,0,0.142-0.003,0.189-0.009c0.047-0.007,0.107-0.019,0.18-0.037l0.105,1.14
			c-0.155,0.039-0.295,0.067-0.419,0.084s-0.272,0.025-0.442,0.025c-0.507,0-0.893-0.135-1.155-0.405s-0.394-0.699-0.394-1.285
			v-2.27h-0.688v-1.066h0.688v-1.227H72.415z"/>
		<path fill="#FFFFFF" d="M75.555,30.613H74.01v-1.034h1.545V30.613z M75.555,36.688H74.01v-4.931h1.545V36.688z"/>
		<path fill="#FFFFFF" d="M76.85,36.688v-3.864h-0.716v-1.066h0.716v-0.237c0-0.656,0.202-1.16,0.606-1.511s0.979-0.526,1.723-0.526
			c0.255,0,0.509,0.022,0.761,0.068c0.252,0.046,0.533,0.11,0.843,0.196l-0.209,1.212c-0.261-0.066-0.479-0.117-0.654-0.15
			s-0.391-0.05-0.649-0.05c-0.283,0-0.5,0.065-0.652,0.198c-0.152,0.132-0.228,0.319-0.228,0.563v0.237h0.966v1.066H78.39v3.864
			H76.85z M81.489,36.688h-1.545v-4.931h1.545V36.688z"/>
		<path fill="#FFFFFF" d="M84.542,35.6c0.21,0,0.366-0.058,0.47-0.171c0.104-0.114,0.155-0.279,0.155-0.495h1.403l0.009,0.027
			c0.013,0.538-0.174,0.977-0.558,1.315c-0.385,0.339-0.878,0.508-1.479,0.508c-0.75,0-1.328-0.231-1.734-0.695
			c-0.406-0.463-0.608-1.066-0.608-1.812v-0.104c0-0.741,0.202-1.345,0.606-1.81c0.404-0.465,0.98-0.697,1.728-0.697
			c0.626,0,1.126,0.174,1.502,0.522c0.375,0.348,0.557,0.824,0.544,1.429l-0.009,0.027h-1.403c0-0.234-0.054-0.425-0.16-0.572
			s-0.264-0.221-0.474-0.221c-0.298,0-0.505,0.119-0.622,0.357c-0.117,0.238-0.176,0.56-0.176,0.964v0.104
			c0,0.413,0.059,0.737,0.176,0.971C84.028,35.482,84.238,35.6,84.542,35.6z"/>
		<path fill="#FFFFFF" d="M90.057,36.684c-0.058-0.103-0.107-0.22-0.148-0.351s-0.072-0.268-0.094-0.41
			c-0.134,0.262-0.298,0.47-0.494,0.627c-0.196,0.156-0.452,0.234-0.768,0.234c-0.517,0-0.919-0.133-1.206-0.398
			c-0.287-0.267-0.431-0.629-0.431-1.087c0-0.489,0.185-0.867,0.552-1.133s0.925-0.398,1.673-0.398h0.633v-0.352
			c0-0.209-0.05-0.37-0.15-0.482c-0.1-0.112-0.253-0.169-0.46-0.169c-0.18,0-0.313,0.042-0.398,0.125
			c-0.087,0.084-0.13,0.214-0.13,0.39l-1.495-0.004l-0.009-0.027c-0.021-0.45,0.166-0.826,0.563-1.128
			c0.396-0.303,0.92-0.454,1.57-0.454c0.61,0,1.104,0.152,1.483,0.456c0.378,0.304,0.567,0.738,0.567,1.304v1.859
			c0,0.261,0.021,0.504,0.065,0.729c0.044,0.226,0.11,0.45,0.198,0.675L90.057,36.684z M88.972,35.686
			c0.188,0,0.354-0.044,0.499-0.132s0.245-0.193,0.303-0.314v-0.651h-0.619c-0.246,0-0.424,0.059-0.533,0.178
			c-0.109,0.118-0.164,0.269-0.164,0.451c0,0.14,0.048,0.253,0.144,0.339C88.696,35.643,88.819,35.686,88.972,35.686z"/>
		<path fill="#FFFFFF" d="M94.268,35.6c0.209,0,0.366-0.058,0.469-0.171c0.104-0.114,0.155-0.279,0.155-0.495h1.403l0.01,0.027
			c0.012,0.538-0.174,0.977-0.559,1.315s-0.877,0.508-1.479,0.508c-0.751,0-1.329-0.231-1.734-0.695
			c-0.405-0.463-0.608-1.066-0.608-1.812v-0.104c0-0.741,0.202-1.345,0.606-1.81c0.403-0.465,0.979-0.697,1.727-0.697
			c0.626,0,1.127,0.174,1.502,0.522c0.375,0.348,0.557,0.824,0.545,1.429l-0.01,0.027h-1.403c0-0.234-0.053-0.425-0.159-0.572
			s-0.265-0.221-0.475-0.221c-0.298,0-0.505,0.119-0.622,0.357c-0.116,0.238-0.175,0.56-0.175,0.964v0.104
			c0,0.413,0.059,0.737,0.175,0.971C93.753,35.482,93.964,35.6,94.268,35.6z M94.859,36.643l-0.045,0.278
			c0.194,0.033,0.356,0.112,0.487,0.237c0.131,0.124,0.196,0.308,0.196,0.551c0,0.347-0.147,0.622-0.442,0.825
			s-0.716,0.306-1.263,0.306l-0.031-0.848c0.124,0,0.223-0.029,0.294-0.087s0.106-0.146,0.106-0.265
			c0-0.115-0.046-0.196-0.139-0.243c-0.093-0.048-0.25-0.077-0.472-0.089l0.142-0.666H94.859z"/>
		<path fill="#FFFFFF" d="M96.729,34.178c0-0.741,0.21-1.346,0.629-1.812c0.419-0.467,1.004-0.7,1.755-0.7
			c0.753,0,1.34,0.233,1.759,0.7c0.419,0.466,0.629,1.07,0.629,1.812v0.096c0,0.744-0.21,1.349-0.629,1.813s-1.003,0.697-1.75,0.697
			c-0.757,0-1.345-0.232-1.764-0.697s-0.629-1.069-0.629-1.813V34.178z M100.885,29.675c0,0.292-0.091,0.542-0.273,0.75
			s-0.41,0.312-0.684,0.312c-0.213,0-0.463-0.063-0.75-0.191c-0.287-0.127-0.51-0.191-0.667-0.191c-0.101,0-0.185,0.05-0.251,0.148
			s-0.101,0.217-0.101,0.354l-0.811-0.229c0-0.285,0.09-0.533,0.271-0.745c0.181-0.211,0.408-0.316,0.682-0.316
			c0.17,0,0.409,0.063,0.718,0.189c0.309,0.126,0.542,0.188,0.699,0.188c0.095,0,0.178-0.048,0.249-0.146s0.106-0.216,0.106-0.355
			L100.885,29.675z M98.269,34.273c0,0.413,0.064,0.737,0.194,0.973c0.129,0.235,0.349,0.354,0.658,0.354
			c0.301,0,0.517-0.119,0.647-0.355c0.13-0.237,0.195-0.561,0.195-0.971v-0.096c0-0.401-0.065-0.723-0.195-0.964
			c-0.131-0.242-0.35-0.362-0.656-0.362c-0.304,0-0.521,0.121-0.649,0.364c-0.13,0.243-0.194,0.563-0.194,0.962V34.273z"/>
		<path fill="#FFFFFF" d="M104.367,36.784c-0.747,0-1.333-0.227-1.757-0.679c-0.424-0.453-0.636-1.025-0.636-1.719v-0.173
			c0-0.754,0.2-1.367,0.6-1.841c0.399-0.475,0.978-0.71,1.733-0.707c0.666,0,1.182,0.199,1.548,0.598
			c0.366,0.397,0.549,0.943,0.549,1.636v0.807h-2.825l-0.01,0.027c0.024,0.258,0.12,0.467,0.287,0.627
			c0.167,0.159,0.407,0.239,0.721,0.239c0.294,0,0.54-0.024,0.735-0.073c0.196-0.049,0.42-0.126,0.673-0.232l0.369,0.938
			c-0.213,0.155-0.499,0.286-0.857,0.393S104.762,36.784,104.367,36.784z M104.308,32.852c-0.246,0-0.428,0.078-0.544,0.234
			c-0.117,0.156-0.185,0.368-0.203,0.636l0.009,0.022h1.331v-0.118c0-0.255-0.045-0.448-0.135-0.579
			C104.677,32.917,104.523,32.852,104.308,32.852z"/>
		<path fill="#FFFFFF" d="M109.626,35.303c0-0.121-0.069-0.229-0.207-0.325c-0.139-0.096-0.39-0.182-0.755-0.258
			c-0.574-0.112-1.007-0.286-1.299-0.521c-0.291-0.235-0.438-0.561-0.438-0.974c0-0.435,0.183-0.803,0.547-1.104
			c0.365-0.303,0.858-0.454,1.481-0.454c0.656,0,1.179,0.146,1.567,0.44c0.39,0.293,0.574,0.672,0.557,1.137l-0.01,0.027h-1.494
			c0-0.194-0.049-0.342-0.146-0.442c-0.097-0.1-0.257-0.15-0.479-0.15c-0.161,0-0.296,0.044-0.405,0.133
			c-0.109,0.088-0.164,0.2-0.164,0.337c0,0.131,0.063,0.241,0.189,0.333c0.126,0.091,0.38,0.173,0.763,0.246
			c0.604,0.118,1.052,0.295,1.34,0.53c0.289,0.235,0.434,0.569,0.434,1.001c0,0.443-0.197,0.809-0.591,1.096
			s-0.913,0.431-1.561,0.431c-0.672,0-1.202-0.17-1.593-0.511c-0.391-0.34-0.576-0.72-0.559-1.139l0.01-0.027h1.395
			c0.006,0.233,0.076,0.402,0.212,0.506c0.135,0.103,0.327,0.154,0.576,0.154c0.207,0,0.363-0.04,0.47-0.12
			C109.573,35.566,109.626,35.452,109.626,35.303z"/>
		<path fill="#FFFFFF" d="M68.129,45.651l0.009,0.027c0.012,0.756-0.201,1.33-0.64,1.72c-0.439,0.391-1.061,0.586-1.866,0.586
			c-0.82,0-1.479-0.251-1.976-0.752c-0.497-0.501-0.745-1.157-0.745-1.969v-1.386c0-0.808,0.239-1.463,0.718-1.966
			s1.111-0.755,1.898-0.755c0.842,0,1.493,0.196,1.953,0.588c0.46,0.393,0.685,0.962,0.672,1.709l-0.014,0.027h-1.5
			c0-0.407-0.086-0.698-0.26-0.875c-0.173-0.176-0.457-0.264-0.852-0.264c-0.346,0-0.612,0.139-0.797,0.417
			c-0.186,0.277-0.278,0.647-0.278,1.109v1.395c0,0.465,0.102,0.837,0.306,1.116c0.204,0.28,0.495,0.42,0.875,0.42
			c0.353,0,0.607-0.089,0.763-0.265c0.157-0.176,0.235-0.471,0.235-0.884H68.129z"/>
		<path fill="#FFFFFF" d="M71.748,47.884c-0.058-0.103-0.107-0.22-0.148-0.351s-0.072-0.268-0.093-0.41
			c-0.134,0.262-0.299,0.47-0.495,0.627c-0.196,0.156-0.452,0.234-0.768,0.234c-0.517,0-0.918-0.133-1.205-0.398
			c-0.287-0.267-0.431-0.629-0.431-1.087c0-0.489,0.184-0.867,0.551-1.133s0.925-0.398,1.672-0.398h0.634v-0.352
			c0-0.209-0.05-0.37-0.15-0.482c-0.101-0.112-0.254-0.169-0.46-0.169c-0.179,0-0.312,0.042-0.399,0.125
			c-0.086,0.084-0.13,0.214-0.13,0.39l-1.495-0.004l-0.009-0.027c-0.021-0.45,0.167-0.826,0.563-1.128
			c0.396-0.303,0.92-0.454,1.57-0.454c0.611,0,1.105,0.152,1.483,0.456c0.378,0.304,0.567,0.738,0.567,1.304v1.859
			c0,0.261,0.022,0.504,0.066,0.729c0.044,0.226,0.11,0.45,0.198,0.675L71.748,47.884z M70.663,46.886
			c0.188,0,0.354-0.044,0.499-0.132s0.245-0.193,0.303-0.314v-0.651h-0.62c-0.246,0-0.424,0.059-0.533,0.178
			c-0.109,0.118-0.164,0.269-0.164,0.451c0,0.14,0.048,0.253,0.144,0.339C70.387,46.843,70.511,46.886,70.663,46.886z"/>
		<path fill="#FFFFFF" d="M73.644,45.433c0-0.769,0.168-1.389,0.503-1.859c0.336-0.472,0.809-0.707,1.42-0.707
			c0.228,0,0.434,0.053,0.617,0.157c0.184,0.105,0.349,0.255,0.495,0.449v-2.693h1.541v7.109H76.87l-0.105-0.602
			c-0.149,0.225-0.323,0.397-0.521,0.518c-0.199,0.12-0.428,0.18-0.686,0.18c-0.607,0-1.079-0.225-1.413-0.675
			c-0.334-0.449-0.501-1.043-0.501-1.781V45.433z M75.184,45.528c0,0.4,0.058,0.713,0.175,0.937c0.117,0.223,0.313,0.335,0.59,0.335
			c0.161,0,0.303-0.03,0.426-0.089c0.123-0.06,0.224-0.146,0.303-0.263v-1.991c-0.079-0.131-0.179-0.23-0.301-0.301
			s-0.261-0.104-0.419-0.104c-0.273,0-0.471,0.126-0.592,0.378s-0.182,0.586-0.182,1.003V45.528z"/>
		<path fill="#FFFFFF" d="M81.942,47.884c-0.058-0.103-0.107-0.22-0.148-0.351s-0.072-0.268-0.093-0.41
			c-0.134,0.262-0.299,0.47-0.495,0.627c-0.196,0.156-0.452,0.234-0.768,0.234c-0.517,0-0.918-0.133-1.205-0.398
			c-0.287-0.267-0.431-0.629-0.431-1.087c0-0.489,0.184-0.867,0.551-1.133s0.925-0.398,1.672-0.398h0.634v-0.352
			c0-0.209-0.05-0.37-0.15-0.482c-0.101-0.112-0.254-0.169-0.46-0.169c-0.179,0-0.312,0.042-0.399,0.125
			c-0.086,0.084-0.13,0.214-0.13,0.39l-1.495-0.004l-0.009-0.027c-0.021-0.45,0.167-0.826,0.563-1.128
			c0.396-0.303,0.92-0.454,1.57-0.454c0.611,0,1.105,0.152,1.483,0.456c0.378,0.304,0.567,0.738,0.567,1.304v1.859
			c0,0.261,0.022,0.504,0.066,0.729c0.044,0.226,0.11,0.45,0.198,0.675L81.942,47.884z M80.858,46.886
			c0.188,0,0.354-0.044,0.499-0.132s0.245-0.193,0.303-0.314v-0.651h-0.62c-0.246,0-0.424,0.059-0.533,0.178
			c-0.109,0.118-0.164,0.269-0.164,0.451c0,0.14,0.048,0.253,0.144,0.339C80.582,46.843,80.706,46.886,80.858,46.886z"/>
		<path fill="#FFFFFF" d="M86.614,46.503c0-0.121-0.069-0.229-0.208-0.325c-0.138-0.096-0.39-0.182-0.754-0.258
			c-0.574-0.112-1.007-0.286-1.299-0.521s-0.438-0.561-0.438-0.974c0-0.435,0.182-0.803,0.547-1.104
			c0.364-0.303,0.858-0.454,1.481-0.454c0.656,0,1.179,0.146,1.567,0.44c0.389,0.293,0.574,0.672,0.556,1.137l-0.009,0.027h-1.495
			c0-0.194-0.049-0.342-0.146-0.442c-0.098-0.1-0.257-0.15-0.479-0.15c-0.161,0-0.296,0.044-0.405,0.133
			c-0.109,0.088-0.164,0.2-0.164,0.337c0,0.131,0.063,0.241,0.188,0.333c0.126,0.091,0.381,0.173,0.764,0.246
			c0.604,0.118,1.051,0.295,1.34,0.53c0.288,0.235,0.433,0.569,0.433,1.001c0,0.443-0.196,0.809-0.59,1.096
			s-0.914,0.431-1.561,0.431c-0.672,0-1.203-0.17-1.593-0.511c-0.391-0.34-0.577-0.72-0.558-1.139l0.009-0.027h1.395
			c0.006,0.233,0.077,0.402,0.212,0.506c0.136,0.103,0.327,0.154,0.577,0.154c0.206,0,0.362-0.04,0.469-0.12
			C86.561,46.767,86.614,46.652,86.614,46.503z"/>
		<path fill="#FFFFFF" d="M90.588,41.731v1.227h0.779v1.066h-0.779v2.26c0,0.177,0.035,0.304,0.106,0.381s0.168,0.116,0.29,0.116
			c0.079,0,0.142-0.003,0.188-0.009c0.048-0.007,0.107-0.019,0.181-0.037l0.104,1.14c-0.155,0.039-0.295,0.067-0.419,0.084
			c-0.125,0.017-0.272,0.025-0.442,0.025c-0.508,0-0.893-0.135-1.155-0.405s-0.395-0.699-0.395-1.285v-2.27h-0.688v-1.066h0.688
			v-1.227H90.588z"/>
		<path fill="#FFFFFF" d="M94.84,44.271l-0.502-0.005c-0.176,0-0.32,0.032-0.433,0.098s-0.196,0.157-0.251,0.276v3.249h-1.54v-4.931
			h1.449l0.055,0.725c0.104-0.259,0.24-0.459,0.41-0.602c0.17-0.144,0.369-0.215,0.597-0.215c0.07,0,0.133,0.005,0.188,0.014
			c0.055,0.01,0.112,0.023,0.173,0.041L94.84,44.271z"/>
		<path fill="#FFFFFF" d="M95.108,45.378c0-0.741,0.21-1.346,0.629-1.812c0.419-0.467,1.004-0.7,1.755-0.7
			c0.753,0,1.34,0.233,1.759,0.7c0.419,0.466,0.629,1.07,0.629,1.812v0.096c0,0.744-0.21,1.349-0.629,1.813s-1.003,0.697-1.75,0.697
			c-0.757,0-1.345-0.232-1.764-0.697s-0.629-1.069-0.629-1.813V45.378z M96.648,45.474c0,0.413,0.064,0.737,0.194,0.973
			c0.129,0.235,0.349,0.354,0.658,0.354c0.301,0,0.517-0.119,0.647-0.355c0.13-0.237,0.195-0.561,0.195-0.971v-0.096
			c0-0.401-0.065-0.723-0.195-0.964c-0.131-0.242-0.35-0.362-0.656-0.362c-0.304,0-0.521,0.121-0.649,0.364
			c-0.13,0.243-0.194,0.563-0.194,0.962V45.474z"/>
		<path fill="#FFFFFF" d="M103.13,46.503c0-0.121-0.069-0.229-0.207-0.325c-0.139-0.096-0.39-0.182-0.755-0.258
			c-0.574-0.112-1.007-0.286-1.299-0.521c-0.291-0.235-0.438-0.561-0.438-0.974c0-0.435,0.183-0.803,0.547-1.104
			c0.365-0.303,0.858-0.454,1.481-0.454c0.656,0,1.179,0.146,1.567,0.44c0.39,0.293,0.574,0.672,0.557,1.137l-0.01,0.027h-1.494
			c0-0.194-0.049-0.342-0.146-0.442c-0.097-0.1-0.257-0.15-0.479-0.15c-0.161,0-0.296,0.044-0.405,0.133
			c-0.109,0.088-0.164,0.2-0.164,0.337c0,0.131,0.063,0.241,0.189,0.333c0.126,0.091,0.38,0.173,0.763,0.246
			c0.604,0.118,1.052,0.295,1.34,0.53c0.289,0.235,0.434,0.569,0.434,1.001c0,0.443-0.197,0.809-0.591,1.096
			s-0.913,0.431-1.561,0.431c-0.672,0-1.202-0.17-1.593-0.511c-0.391-0.34-0.576-0.72-0.559-1.139l0.01-0.027h1.395
			c0.006,0.233,0.076,0.402,0.212,0.506c0.135,0.103,0.327,0.154,0.576,0.154c0.207,0,0.363-0.04,0.47-0.12
			C103.077,46.767,103.13,46.652,103.13,46.503z"/>
	</g>
</g>
<g>
	<g>
		<path fill="#FFFFFF" d="M19.238,108.405v2.543h-1.54v-6.636h2.311c0.769,0,1.378,0.178,1.827,0.533
			c0.45,0.355,0.675,0.842,0.675,1.459c0,0.343-0.09,0.638-0.271,0.884c-0.181,0.246-0.447,0.446-0.8,0.602
			c0.407,0.115,0.7,0.308,0.877,0.576c0.178,0.27,0.267,0.604,0.267,1.005v0.42c0,0.173,0.026,0.37,0.078,0.592
			s0.141,0.38,0.269,0.475v0.091h-1.591c-0.122-0.094-0.201-0.26-0.237-0.497c-0.037-0.236-0.055-0.46-0.055-0.67v-0.4
			c0-0.316-0.083-0.558-0.251-0.725c-0.167-0.167-0.412-0.251-0.733-0.251H19.238z M19.238,107.221h0.779
			c0.31,0,0.547-0.071,0.711-0.212c0.164-0.142,0.246-0.345,0.246-0.608c0-0.271-0.084-0.488-0.253-0.654
			c-0.168-0.166-0.406-0.248-0.713-0.248h-0.771V107.221z"/>
		<path fill="#FFFFFF" d="M25.746,111.044c-0.748,0-1.333-0.227-1.757-0.679c-0.424-0.453-0.636-1.025-0.636-1.719v-0.173
			c0-0.754,0.2-1.367,0.599-1.841c0.399-0.475,0.978-0.71,1.734-0.707c0.665,0,1.181,0.199,1.547,0.598
			c0.366,0.397,0.549,0.943,0.549,1.636v0.807h-2.826l-0.009,0.027c0.024,0.258,0.12,0.467,0.287,0.627
			c0.167,0.159,0.407,0.239,0.72,0.239c0.295,0,0.54-0.024,0.736-0.073c0.196-0.049,0.42-0.126,0.672-0.232l0.369,0.938
			c-0.212,0.155-0.498,0.286-0.856,0.393C26.518,110.991,26.141,111.044,25.746,111.044z M25.687,107.111
			c-0.246,0-0.428,0.078-0.545,0.234c-0.117,0.156-0.185,0.368-0.203,0.636l0.009,0.022h1.331v-0.118
			c0-0.255-0.045-0.448-0.134-0.579C26.055,107.177,25.902,107.111,25.687,107.111z"/>
		<path fill="#FFFFFF" d="M30.544,109.859c0.21,0,0.366-0.058,0.47-0.171c0.103-0.114,0.155-0.279,0.155-0.495h1.404l0.009,0.027
			c0.012,0.538-0.174,0.977-0.558,1.315s-0.877,0.508-1.479,0.508c-0.75,0-1.328-0.231-1.734-0.695
			c-0.406-0.463-0.608-1.066-0.608-1.812v-0.104c0-0.741,0.202-1.345,0.606-1.81c0.404-0.465,0.98-0.697,1.728-0.697
			c0.625,0,1.126,0.174,1.501,0.522c0.375,0.348,0.557,0.824,0.544,1.429l-0.009,0.027h-1.404c0-0.234-0.053-0.425-0.16-0.572
			c-0.106-0.147-0.264-0.221-0.474-0.221c-0.298,0-0.505,0.119-0.622,0.357c-0.117,0.238-0.176,0.56-0.176,0.964v0.104
			c0,0.413,0.059,0.737,0.176,0.971C30.03,109.742,30.241,109.859,30.544,109.859z"/>
		<path fill="#FFFFFF" d="M36.182,110.21c-0.146,0.268-0.335,0.474-0.567,0.617c-0.232,0.145-0.5,0.217-0.804,0.217
			c-0.51,0-0.911-0.18-1.201-0.538c-0.291-0.358-0.436-0.913-0.436-1.663v-2.825h1.536v2.834c0,0.386,0.049,0.65,0.148,0.793
			c0.099,0.144,0.251,0.215,0.458,0.215c0.164,0,0.309-0.023,0.433-0.068c0.125-0.046,0.231-0.114,0.319-0.205v-3.568h1.541v4.931
			h-1.24L36.182,110.21z"/>
		<path fill="#FFFFFF" d="M41.182,107.33l-0.501-0.005c-0.176,0-0.321,0.032-0.433,0.098s-0.196,0.157-0.25,0.276v3.249h-1.541
			v-4.931h1.449l0.055,0.725c0.104-0.259,0.24-0.459,0.41-0.602c0.17-0.144,0.369-0.215,0.597-0.215c0.07,0,0.132,0.005,0.187,0.014
			c0.055,0.01,0.113,0.023,0.173,0.041L41.182,107.33z"/>
		<path fill="#FFFFFF" d="M44.317,109.563c0-0.121-0.069-0.229-0.208-0.325s-0.39-0.182-0.754-0.258
			c-0.574-0.112-1.007-0.286-1.299-0.521c-0.292-0.235-0.438-0.561-0.438-0.974c0-0.435,0.182-0.803,0.547-1.104
			c0.364-0.303,0.858-0.454,1.481-0.454c0.656,0,1.179,0.146,1.568,0.44c0.389,0.293,0.574,0.672,0.556,1.137l-0.009,0.027h-1.495
			c0-0.194-0.048-0.342-0.146-0.442c-0.097-0.1-0.257-0.15-0.479-0.15c-0.161,0-0.296,0.044-0.406,0.133
			c-0.109,0.088-0.164,0.2-0.164,0.337c0,0.131,0.063,0.241,0.189,0.333c0.126,0.091,0.381,0.173,0.764,0.246
			c0.604,0.118,1.051,0.295,1.34,0.53s0.433,0.569,0.433,1.001c0,0.443-0.196,0.809-0.59,1.096s-0.914,0.431-1.561,0.431
			c-0.671,0-1.203-0.17-1.593-0.511c-0.391-0.34-0.577-0.72-0.558-1.139l0.009-0.027h1.395c0.006,0.233,0.077,0.402,0.212,0.506
			c0.135,0.103,0.328,0.154,0.577,0.154c0.207,0,0.363-0.04,0.469-0.12C44.264,109.826,44.317,109.712,44.317,109.563z"/>
		<path fill="#FFFFFF" d="M46.318,108.438c0-0.741,0.209-1.346,0.629-1.812c0.419-0.467,1.004-0.7,1.754-0.7
			c0.753,0,1.34,0.233,1.759,0.7c0.419,0.466,0.629,1.07,0.629,1.812v0.096c0,0.744-0.209,1.349-0.629,1.813
			s-1.002,0.697-1.75,0.697c-0.756,0-1.344-0.232-1.764-0.697s-0.629-1.069-0.629-1.813V108.438z M47.858,108.533
			c0,0.413,0.064,0.737,0.193,0.973c0.129,0.235,0.349,0.354,0.659,0.354c0.301,0,0.517-0.119,0.647-0.355
			c0.131-0.237,0.196-0.561,0.196-0.971v-0.096c0-0.401-0.065-0.723-0.196-0.964c-0.13-0.242-0.349-0.362-0.656-0.362
			c-0.304,0-0.52,0.121-0.649,0.364c-0.129,0.243-0.193,0.563-0.193,0.962V108.533z"/>
		<path fill="#FFFFFF" d="M54.339,109.563c0-0.121-0.069-0.229-0.208-0.325s-0.39-0.182-0.754-0.258
			c-0.574-0.112-1.007-0.286-1.299-0.521c-0.292-0.235-0.438-0.561-0.438-0.974c0-0.435,0.182-0.803,0.547-1.104
			c0.364-0.303,0.858-0.454,1.481-0.454c0.656,0,1.179,0.146,1.568,0.44c0.389,0.293,0.574,0.672,0.556,1.137l-0.009,0.027h-1.495
			c0-0.194-0.048-0.342-0.146-0.442c-0.097-0.1-0.257-0.15-0.479-0.15c-0.161,0-0.296,0.044-0.406,0.133
			c-0.109,0.088-0.164,0.2-0.164,0.337c0,0.131,0.063,0.241,0.189,0.333c0.126,0.091,0.381,0.173,0.764,0.246
			c0.604,0.118,1.051,0.295,1.34,0.53s0.433,0.569,0.433,1.001c0,0.443-0.196,0.809-0.59,1.096s-0.914,0.431-1.561,0.431
			c-0.671,0-1.203-0.17-1.593-0.511c-0.391-0.34-0.577-0.72-0.558-1.139l0.009-0.027h1.395c0.006,0.233,0.077,0.402,0.212,0.506
			c0.135,0.103,0.328,0.154,0.577,0.154c0.207,0,0.363-0.04,0.469-0.12C54.286,109.826,54.339,109.712,54.339,109.563z"/>
	</g>
</g>
<g>
	<path fill="#FFFFFF" d="M83.568,81.921h0.837v1.492h-0.837v1.749h-1.926v-1.749h-3.298l-0.114-1.185l3.412-5.344v-0.017h1.926
		V81.921z M79.882,81.921h1.76V79.34l-0.034-0.006l-0.21,0.428L79.882,81.921z"/>
	<path fill="#FFFFFF" d="M85.402,81.517l0.479-4.648h4.859v1.492h-3.299l-0.211,1.726c0.156-0.109,0.354-0.199,0.596-0.268
		s0.504-0.106,0.789-0.113c0.771-0.016,1.364,0.221,1.78,0.709s0.624,1.18,0.624,2.076c0,0.802-0.232,1.467-0.695,1.997
		c-0.464,0.529-1.192,0.795-2.188,0.795c-0.79,0-1.477-0.208-2.06-0.624s-0.863-0.966-0.84-1.649l0.006-0.034l1.885-0.114
		c0,0.293,0.093,0.522,0.276,0.689c0.185,0.167,0.429,0.251,0.732,0.251c0.356,0,0.605-0.108,0.746-0.325
		c0.141-0.216,0.211-0.541,0.211-0.974c0-0.456-0.082-0.814-0.245-1.077c-0.163-0.262-0.422-0.393-0.774-0.393
		c-0.255,0-0.461,0.055-0.618,0.165c-0.158,0.11-0.267,0.249-0.328,0.416L85.402,81.517z"/>
	<path fill="#FFFFFF" d="M79.608,90.647l0.048,0.57c0.136-0.208,0.306-0.368,0.512-0.48c0.206-0.113,0.442-0.17,0.708-0.17
		c0.269,0,0.5,0.059,0.694,0.176s0.34,0.295,0.438,0.534c0.133-0.226,0.304-0.4,0.513-0.524c0.208-0.124,0.453-0.186,0.731-0.186
		c0.42,0,0.75,0.151,0.991,0.453s0.361,0.766,0.361,1.394v2.548h-1.352v-2.548c0-0.309-0.043-0.521-0.129-0.637
		c-0.086-0.115-0.216-0.173-0.389-0.173c-0.13,0-0.245,0.023-0.345,0.069c-0.1,0.047-0.184,0.111-0.253,0.193
		c0,0.046,0.001,0.085,0.004,0.118c0.002,0.033,0.004,0.065,0.004,0.098v2.879h-1.348v-2.548c0-0.312-0.042-0.524-0.128-0.639
		c-0.085-0.114-0.216-0.171-0.395-0.171c-0.123,0-0.233,0.023-0.333,0.069c-0.1,0.047-0.184,0.111-0.253,0.193v3.095H78.34v-4.314
		H79.608z"/>
	<path fill="#FFFFFF" d="M86.786,89.646h-1.353v-0.905h1.353V89.646z M86.786,94.962h-1.353v-4.314h1.353V94.962z"/>
	<path fill="#FFFFFF" d="M89.023,94.962h-1.353v-6.221h1.353V94.962z"/>
</g>
<g>
	<g>
		<path fill="#FFFFFF" d="M108.793,107.74v2.274h-1.541v-6.636h2.534c0.787,0,1.411,0.201,1.873,0.602
			c0.462,0.401,0.692,0.929,0.692,1.582s-0.23,1.18-0.692,1.579s-1.086,0.599-1.873,0.599H108.793z M108.793,106.556h0.993
			c0.334,0,0.59-0.092,0.766-0.275c0.176-0.185,0.265-0.42,0.265-0.709c0-0.295-0.088-0.536-0.263-0.725s-0.431-0.282-0.768-0.282
			h-0.993V106.556z"/>
		<path fill="#FFFFFF" d="M115.911,110.01c-0.058-0.103-0.107-0.22-0.148-0.351s-0.072-0.268-0.094-0.41
			c-0.134,0.262-0.298,0.47-0.494,0.627c-0.196,0.156-0.452,0.234-0.768,0.234c-0.517,0-0.919-0.133-1.206-0.398
			c-0.287-0.267-0.431-0.629-0.431-1.087c0-0.489,0.185-0.867,0.552-1.133s0.925-0.398,1.673-0.398h0.633v-0.352
			c0-0.209-0.05-0.37-0.15-0.482c-0.1-0.112-0.253-0.169-0.46-0.169c-0.18,0-0.313,0.042-0.398,0.125
			c-0.087,0.084-0.13,0.214-0.13,0.39l-1.495-0.004l-0.009-0.027c-0.021-0.45,0.166-0.826,0.563-1.128
			c0.396-0.303,0.92-0.454,1.57-0.454c0.61,0,1.104,0.152,1.483,0.456c0.378,0.304,0.567,0.738,0.567,1.304v1.859
			c0,0.261,0.021,0.504,0.065,0.729c0.044,0.226,0.11,0.45,0.198,0.675L115.911,110.01z M114.826,109.012
			c0.188,0,0.354-0.044,0.499-0.132s0.245-0.193,0.303-0.314v-0.651h-0.619c-0.246,0-0.424,0.059-0.533,0.178
			c-0.109,0.118-0.164,0.269-0.164,0.451c0,0.14,0.048,0.253,0.144,0.339C114.551,108.969,114.674,109.012,114.826,109.012z"/>
		<path fill="#FFFFFF" d="M120.737,106.396l-0.502-0.005c-0.176,0-0.32,0.032-0.433,0.098s-0.196,0.157-0.251,0.276v3.249h-1.54
			v-4.931h1.449l0.055,0.725c0.104-0.259,0.24-0.459,0.41-0.602c0.17-0.144,0.369-0.215,0.597-0.215c0.07,0,0.133,0.005,0.188,0.014
			c0.055,0.01,0.112,0.023,0.173,0.041L120.737,106.396z"/>
		<path fill="#FFFFFF" d="M123.148,103.857v1.227h0.779v1.066h-0.779v2.26c0,0.177,0.035,0.304,0.106,0.381s0.168,0.116,0.29,0.116
			c0.079,0,0.142-0.003,0.188-0.009c0.048-0.007,0.107-0.019,0.181-0.037l0.104,1.14c-0.155,0.039-0.295,0.067-0.419,0.084
			c-0.125,0.017-0.272,0.025-0.442,0.025c-0.508,0-0.893-0.135-1.155-0.405s-0.395-0.699-0.395-1.285v-2.27h-0.688v-1.066h0.688
			v-1.227H123.148z"/>
		<path fill="#FFFFFF" d="M126.288,103.939h-1.545v-1.034h1.545V103.939z M126.288,110.015h-1.545v-4.931h1.545V110.015z"/>
		<path fill="#FFFFFF" d="M129.342,108.926c0.209,0,0.366-0.058,0.469-0.171c0.104-0.114,0.155-0.279,0.155-0.495h1.403l0.01,0.027
			c0.012,0.538-0.174,0.977-0.559,1.315s-0.877,0.508-1.479,0.508c-0.751,0-1.329-0.231-1.734-0.695
			c-0.405-0.463-0.608-1.066-0.608-1.812v-0.104c0-0.741,0.202-1.345,0.606-1.81c0.403-0.465,0.979-0.697,1.727-0.697
			c0.626,0,1.127,0.174,1.502,0.522c0.375,0.348,0.557,0.824,0.545,1.429l-0.01,0.027h-1.403c0-0.234-0.053-0.425-0.159-0.572
			s-0.265-0.221-0.475-0.221c-0.298,0-0.505,0.119-0.622,0.357c-0.116,0.238-0.175,0.56-0.175,0.964v0.104
			c0,0.413,0.059,0.737,0.175,0.971C128.827,108.809,129.038,108.926,129.342,108.926z"/>
		<path fill="#FFFFFF" d="M133.621,103.939h-1.545v-1.034h1.545V103.939z M133.621,110.015h-1.545v-4.931h1.545V110.015z"/>
		<path fill="#FFFFFF" d="M139.131,107.654c0,0.741-0.167,1.336-0.501,1.784c-0.335,0.448-0.806,0.672-1.413,0.672
			c-0.237,0-0.447-0.046-0.631-0.137c-0.185-0.091-0.345-0.224-0.481-0.396v2.333h-1.54v-6.826h1.454l0.045,0.537
			c0.137-0.2,0.301-0.355,0.49-0.465s0.408-0.164,0.654-0.164c0.61,0,1.084,0.235,1.419,0.707c0.336,0.471,0.504,1.091,0.504,1.859
			V107.654z M137.595,107.559c0-0.417-0.061-0.751-0.182-1.003c-0.122-0.252-0.316-0.378-0.584-0.378
			c-0.173,0-0.319,0.031-0.439,0.096c-0.12,0.063-0.215,0.156-0.285,0.277v2.061c0.073,0.106,0.17,0.185,0.29,0.236
			s0.268,0.078,0.444,0.078c0.271,0,0.464-0.112,0.581-0.335c0.116-0.224,0.175-0.536,0.175-0.937V107.559z"/>
		<path fill="#FFFFFF" d="M142.658,110.01c-0.058-0.103-0.107-0.22-0.148-0.351s-0.072-0.268-0.094-0.41
			c-0.134,0.262-0.298,0.47-0.494,0.627c-0.196,0.156-0.452,0.234-0.768,0.234c-0.517,0-0.919-0.133-1.206-0.398
			c-0.287-0.267-0.431-0.629-0.431-1.087c0-0.489,0.185-0.867,0.552-1.133s0.925-0.398,1.673-0.398h0.633v-0.352
			c0-0.209-0.05-0.37-0.15-0.482c-0.1-0.112-0.253-0.169-0.46-0.169c-0.18,0-0.313,0.042-0.398,0.125
			c-0.087,0.084-0.13,0.214-0.13,0.39l-1.495-0.004l-0.009-0.027c-0.021-0.45,0.166-0.826,0.563-1.128
			c0.396-0.303,0.92-0.454,1.57-0.454c0.61,0,1.104,0.152,1.483,0.456c0.378,0.304,0.567,0.738,0.567,1.304v1.859
			c0,0.261,0.021,0.504,0.065,0.729c0.044,0.226,0.11,0.45,0.198,0.675L142.658,110.01z M141.573,109.012
			c0.188,0,0.354-0.044,0.499-0.132s0.245-0.193,0.303-0.314v-0.651h-0.619c-0.246,0-0.424,0.059-0.533,0.178
			c-0.109,0.118-0.164,0.269-0.164,0.451c0,0.14,0.048,0.253,0.144,0.339C141.298,108.969,141.421,109.012,141.573,109.012z"/>
		<path fill="#FFFFFF" d="M146.869,108.926c0.209,0,0.366-0.058,0.469-0.171c0.104-0.114,0.155-0.279,0.155-0.495h1.403l0.01,0.027
			c0.012,0.538-0.174,0.977-0.559,1.315s-0.877,0.508-1.479,0.508c-0.751,0-1.329-0.231-1.734-0.695
			c-0.405-0.463-0.608-1.066-0.608-1.812v-0.104c0-0.741,0.202-1.345,0.606-1.81c0.403-0.465,0.979-0.697,1.727-0.697
			c0.626,0,1.127,0.174,1.502,0.522c0.375,0.348,0.557,0.824,0.545,1.429l-0.01,0.027h-1.403c0-0.234-0.053-0.425-0.159-0.572
			s-0.265-0.221-0.475-0.221c-0.298,0-0.505,0.119-0.622,0.357c-0.116,0.238-0.175,0.56-0.175,0.964v0.104
			c0,0.413,0.059,0.737,0.175,0.971C146.354,108.809,146.565,108.926,146.869,108.926z M147.461,109.969l-0.045,0.278
			c0.194,0.033,0.356,0.112,0.487,0.237c0.131,0.124,0.196,0.308,0.196,0.551c0,0.347-0.147,0.622-0.442,0.825
			s-0.716,0.306-1.263,0.306l-0.031-0.848c0.124,0,0.223-0.029,0.294-0.087s0.106-0.146,0.106-0.265
			c0-0.115-0.046-0.196-0.139-0.243c-0.093-0.048-0.25-0.077-0.472-0.089l0.142-0.666H147.461z"/>
		<path fill="#FFFFFF" d="M152.384,110.01c-0.058-0.103-0.107-0.22-0.148-0.351s-0.072-0.268-0.094-0.41
			c-0.134,0.262-0.298,0.47-0.494,0.627c-0.196,0.156-0.452,0.234-0.768,0.234c-0.517,0-0.919-0.133-1.206-0.398
			c-0.287-0.267-0.431-0.629-0.431-1.087c0-0.489,0.185-0.867,0.552-1.133s0.925-0.398,1.673-0.398h0.633v-0.352
			c0-0.209-0.05-0.37-0.15-0.482c-0.1-0.112-0.253-0.169-0.46-0.169c-0.18,0-0.313,0.042-0.398,0.125
			c-0.087,0.084-0.13,0.214-0.13,0.39l-1.495-0.004l-0.009-0.027c-0.021-0.45,0.166-0.826,0.563-1.128
			c0.396-0.303,0.92-0.454,1.57-0.454c0.61,0,1.104,0.152,1.483,0.456c0.378,0.304,0.567,0.738,0.567,1.304v1.859
			c0,0.261,0.021,0.504,0.065,0.729c0.044,0.226,0.11,0.45,0.198,0.675L152.384,110.01z M153.331,103.001
			c0,0.292-0.091,0.542-0.273,0.75c-0.182,0.208-0.41,0.312-0.684,0.312c-0.212,0-0.462-0.063-0.749-0.191
			c-0.287-0.127-0.51-0.191-0.668-0.191c-0.101,0-0.184,0.05-0.251,0.148c-0.066,0.099-0.1,0.217-0.1,0.354l-0.812-0.229
			c0-0.285,0.091-0.533,0.271-0.745c0.181-0.211,0.407-0.316,0.681-0.316c0.171,0,0.41,0.063,0.718,0.189
			c0.309,0.126,0.542,0.188,0.7,0.188c0.094,0,0.177-0.048,0.248-0.146s0.107-0.216,0.107-0.355L153.331,103.001z M151.299,109.012
			c0.188,0,0.354-0.044,0.499-0.132s0.245-0.193,0.303-0.314v-0.651h-0.619c-0.246,0-0.424,0.059-0.533,0.178
			c-0.109,0.118-0.164,0.269-0.164,0.451c0,0.14,0.048,0.253,0.144,0.339C151.023,108.969,151.146,109.012,151.299,109.012z"/>
		<path fill="#FFFFFF" d="M154.279,107.504c0-0.741,0.21-1.346,0.629-1.812c0.419-0.467,1.004-0.7,1.755-0.7
			c0.753,0,1.34,0.233,1.759,0.7c0.419,0.466,0.629,1.07,0.629,1.812v0.096c0,0.744-0.21,1.349-0.629,1.813s-1.003,0.697-1.75,0.697
			c-0.757,0-1.345-0.232-1.764-0.697s-0.629-1.069-0.629-1.813V107.504z M155.819,107.6c0,0.413,0.064,0.737,0.194,0.973
			c0.129,0.235,0.349,0.354,0.658,0.354c0.301,0,0.517-0.119,0.647-0.355c0.13-0.237,0.195-0.561,0.195-0.971v-0.096
			c0-0.401-0.065-0.723-0.195-0.964c-0.131-0.242-0.35-0.362-0.656-0.362c-0.304,0-0.521,0.121-0.649,0.364
			c-0.13,0.243-0.194,0.563-0.194,0.962V107.6z"/>
		<path fill="#FFFFFF" d="M110.675,119.456c0-0.237-0.077-0.419-0.232-0.545s-0.436-0.261-0.843-0.403
			c-0.823-0.268-1.436-0.552-1.835-0.854s-0.599-0.737-0.599-1.306c0-0.556,0.232-1.006,0.697-1.349
			c0.465-0.344,1.056-0.516,1.772-0.516c0.757,0,1.365,0.178,1.827,0.531s0.686,0.853,0.67,1.497l-0.009,0.027h-1.495
			c0-0.313-0.085-0.54-0.255-0.682c-0.17-0.141-0.427-0.212-0.771-0.212c-0.279,0-0.499,0.068-0.66,0.205s-0.242,0.306-0.242,0.506
			c0,0.194,0.083,0.351,0.249,0.468c0.165,0.116,0.475,0.264,0.927,0.439c0.769,0.228,1.351,0.506,1.746,0.834
			c0.395,0.328,0.592,0.777,0.592,1.349c0,0.584-0.228,1.04-0.684,1.37c-0.455,0.329-1.06,0.494-1.813,0.494
			c-0.75,0-1.386-0.177-1.907-0.531c-0.521-0.354-0.774-0.91-0.759-1.67l0.009-0.027h1.5c0,0.386,0.095,0.66,0.284,0.822
			c0.19,0.163,0.481,0.244,0.873,0.244c0.322,0,0.563-0.063,0.72-0.191C110.596,119.829,110.675,119.662,110.675,119.456z"/>
		<path fill="#FFFFFF" d="M112.758,118.704c0-0.741,0.21-1.346,0.629-1.812c0.419-0.467,1.004-0.7,1.755-0.7
			c0.753,0,1.34,0.233,1.759,0.7c0.419,0.466,0.629,1.07,0.629,1.812v0.096c0,0.744-0.21,1.349-0.629,1.813s-1.003,0.697-1.75,0.697
			c-0.757,0-1.345-0.232-1.764-0.697s-0.629-1.069-0.629-1.813V118.704z M114.298,118.8c0,0.413,0.064,0.737,0.194,0.973
			c0.129,0.235,0.349,0.354,0.658,0.354c0.301,0,0.517-0.119,0.647-0.355c0.13-0.237,0.195-0.561,0.195-0.971v-0.096
			c0-0.401-0.065-0.723-0.195-0.964c-0.131-0.242-0.35-0.362-0.656-0.362c-0.304,0-0.521,0.121-0.649,0.364
			c-0.13,0.243-0.194,0.563-0.194,0.962V118.8z"/>
		<path fill="#FFFFFF" d="M120.318,120.126c0.209,0,0.366-0.058,0.469-0.171c0.104-0.114,0.155-0.279,0.155-0.495h1.403l0.01,0.027
			c0.012,0.538-0.174,0.977-0.559,1.315s-0.877,0.508-1.479,0.508c-0.751,0-1.329-0.231-1.734-0.695
			c-0.405-0.463-0.608-1.066-0.608-1.812v-0.104c0-0.741,0.202-1.345,0.606-1.81c0.403-0.465,0.979-0.697,1.727-0.697
			c0.626,0,1.127,0.174,1.502,0.522c0.375,0.348,0.557,0.824,0.545,1.429l-0.01,0.027h-1.403c0-0.234-0.053-0.425-0.159-0.572
			s-0.265-0.221-0.475-0.221c-0.298,0-0.505,0.119-0.622,0.357c-0.116,0.238-0.175,0.56-0.175,0.964v0.104
			c0,0.413,0.059,0.737,0.175,0.971C119.804,120.009,120.015,120.126,120.318,120.126z"/>
		<path fill="#FFFFFF" d="M124.598,115.14h-1.545v-1.034h1.545V115.14z M124.598,121.215h-1.545v-4.931h1.545V121.215z"/>
		<path fill="#FFFFFF" d="M128.39,121.21c-0.058-0.103-0.107-0.22-0.148-0.351s-0.072-0.268-0.094-0.41
			c-0.134,0.262-0.298,0.47-0.494,0.627c-0.196,0.156-0.452,0.234-0.768,0.234c-0.517,0-0.919-0.133-1.206-0.398
			c-0.287-0.267-0.431-0.629-0.431-1.087c0-0.489,0.185-0.867,0.552-1.133s0.925-0.398,1.673-0.398h0.633v-0.352
			c0-0.209-0.05-0.37-0.15-0.482c-0.1-0.112-0.253-0.169-0.46-0.169c-0.18,0-0.313,0.042-0.398,0.125
			c-0.087,0.084-0.13,0.214-0.13,0.39l-1.495-0.004l-0.009-0.027c-0.021-0.45,0.166-0.826,0.563-1.128
			c0.396-0.303,0.92-0.454,1.57-0.454c0.61,0,1.104,0.152,1.483,0.456c0.378,0.304,0.567,0.738,0.567,1.304v1.859
			c0,0.261,0.021,0.504,0.065,0.729c0.044,0.226,0.11,0.45,0.198,0.675L128.39,121.21z M127.305,120.212
			c0.188,0,0.354-0.044,0.499-0.132s0.245-0.193,0.303-0.314v-0.651h-0.619c-0.246,0-0.424,0.059-0.533,0.178
			c-0.109,0.118-0.164,0.269-0.164,0.451c0,0.14,0.048,0.253,0.144,0.339C127.029,120.169,127.152,120.212,127.305,120.212z"/>
		<path fill="#FFFFFF" d="M132.104,121.215h-1.545v-7.109h1.545V121.215z"/>
	</g>
</g>
</svg>
