<?xml version="1.0" encoding="utf-8"?>
<!-- Generator: Adobe Illustrator 14.0.0, SVG Export Plug-In . SVG Version: 6.00 Build 43363)  -->
<!DOCTYPE svg PUBLIC "-//W3C//DTD SVG 1.0//EN" "http://www.w3.org/TR/2001/REC-SVG-20010904/DTD/svg10.dtd">
<svg version="1.0" id="Camada_1" xmlns="http://www.w3.org/2000/svg" xmlns:xlink="http://www.w3.org/1999/xlink" x="0px" y="0px"
	 width="210.5px" height="211px" viewBox="0 0 210.5 211" enable-background="new 0 0 210.5 211" xml:space="preserve">
<g>
	<g>
		<path fill="#FFFFFF" d="M30.197,10.104v4.958c0,0.82-0.242,1.461-0.726,1.922c-0.484,0.462-1.106,0.692-1.867,0.692
			c-0.751,0-1.364-0.231-1.84-0.694c-0.477-0.463-0.714-1.104-0.714-1.92v-4.958h0.593v4.958c0,0.643,0.184,1.152,0.551,1.53
			s0.837,0.566,1.41,0.566c0.586,0,1.066-0.188,1.442-0.564c0.375-0.375,0.563-0.887,0.563-1.532v-4.958H30.197z"/>
		<path fill="#FFFFFF" d="M32.524,14.467v3.102h-0.593v-7.465h2.479c0.754,0,1.338,0.2,1.751,0.6c0.413,0.4,0.62,0.927,0.62,1.579
			c0,0.663-0.207,1.193-0.62,1.59s-0.997,0.595-1.751,0.595H32.524z M32.524,13.944h1.887c0.593,0,1.037-0.156,1.334-0.469
			c0.296-0.313,0.444-0.707,0.444-1.182c0-0.479-0.148-0.876-0.444-1.192c-0.297-0.316-0.741-0.475-1.334-0.475h-1.887V13.944z"/>
		<path fill="#FFFFFF" d="M42.067,14.072h-3.305v3.497H38.17v-7.465h4.4v0.522h-3.808v2.918h3.305V14.072z"/>
		<path fill="#FFFFFF" d="M46.804,16.149c0-0.26-0.104-0.486-0.309-0.68c-0.206-0.193-0.577-0.352-1.114-0.475
			c-0.632-0.136-1.103-0.323-1.41-0.561c-0.308-0.238-0.462-0.57-0.462-0.998c0-0.424,0.172-0.782,0.517-1.076
			c0.344-0.294,0.799-0.441,1.365-0.441c0.596,0,1.072,0.157,1.428,0.47s0.525,0.698,0.509,1.156l-0.01,0.03h-0.549
			c0-0.304-0.126-0.569-0.378-0.795s-0.585-0.338-1-0.338c-0.428,0-0.751,0.098-0.968,0.292c-0.218,0.195-0.326,0.422-0.326,0.682
			c0,0.253,0.093,0.463,0.279,0.629c0.186,0.165,0.557,0.312,1.113,0.438c0.626,0.144,1.1,0.344,1.421,0.601
			c0.32,0.256,0.481,0.602,0.481,1.035c0,0.462-0.181,0.837-0.541,1.126c-0.36,0.288-0.838,0.433-1.43,0.433
			c-0.649,0-1.159-0.16-1.529-0.481s-0.546-0.704-0.526-1.148l0.01-0.031h0.544c0.022,0.4,0.181,0.69,0.472,0.872
			c0.291,0.181,0.635,0.271,1.03,0.271c0.428,0,0.766-0.099,1.012-0.298C46.68,16.664,46.804,16.425,46.804,16.149z"/>
	</g>
	<g>
		<g>
			<polygon fill="#D3EAF7" points="30.655,50.143 14.495,72.26 23.86,70.504 29.003,77.174 38.785,52.617 			"/>
			<polygon fill="#D3EAF7" points="41.832,50.143 57.988,72.26 48.627,70.504 43.484,77.174 33.701,52.617 			"/>
			<g>
				<g>
					<path stroke="#DD9A28" stroke-width="2" d="M54.362,44.883c-0.41,9.791-8.675,17.395-18.466,16.982
						c-9.79-0.404-17.396-8.674-16.983-18.461c0.405-9.791,8.675-17.396,18.464-16.99C47.169,26.836,54.771,35.098,54.362,44.883z"
						/>
				</g>
			</g>
		</g>
		<g>
			<g>
				<path fill="#D3EAF7" d="M34.025,45.211h0.935V46.5h-0.935v1.8h-1.663v-1.8h-3.379l-0.079-0.997l3.44-5.497h1.681V45.211z
					 M30.414,45.211h1.948v-3.014l-0.034-0.005l-0.171,0.37L30.414,45.211z"/>
				<path fill="#D3EAF7" d="M35.819,41.6c0-0.49,0.159-0.898,0.476-1.225c0.317-0.327,0.759-0.49,1.325-0.49
					c0.573,0,1.018,0.162,1.333,0.487c0.314,0.324,0.473,0.733,0.473,1.228v0.438c0,0.49-0.158,0.896-0.473,1.219
					c-0.315,0.323-0.756,0.484-1.322,0.484c-0.569,0-1.014-0.161-1.333-0.484c-0.318-0.322-0.479-0.729-0.479-1.219V41.6z
					 M36.925,42.039c0,0.221,0.061,0.405,0.183,0.556c0.121,0.15,0.296,0.225,0.523,0.225c0.221,0,0.391-0.074,0.51-0.225
					c0.12-0.15,0.18-0.335,0.18-0.556V41.6c0-0.221-0.061-0.407-0.183-0.562c-0.121-0.153-0.294-0.23-0.518-0.23
					c-0.225,0-0.396,0.077-0.516,0.23c-0.12,0.154-0.18,0.341-0.18,0.562V42.039z M37.904,47.678l-0.809-0.427l4.05-6.483
					l0.81,0.428L37.904,47.678z M39.784,46.265c0-0.485,0.16-0.892,0.479-1.219c0.319-0.326,0.762-0.49,1.327-0.49
					c0.57,0,1.014,0.163,1.331,0.487c0.316,0.325,0.476,0.732,0.476,1.222v0.439c0,0.493-0.158,0.901-0.474,1.225
					c-0.314,0.322-0.755,0.484-1.321,0.484c-0.569,0-1.015-0.163-1.336-0.487c-0.321-0.325-0.481-0.732-0.481-1.222V46.265z
					 M40.89,46.705c0,0.216,0.065,0.401,0.196,0.555c0.131,0.154,0.303,0.231,0.516,0.231c0.247,0,0.424-0.071,0.53-0.214
					c0.105-0.143,0.159-0.333,0.159-0.572v-0.439c0-0.216-0.061-0.401-0.183-0.555c-0.121-0.154-0.294-0.231-0.519-0.231
					c-0.228,0-0.401,0.077-0.521,0.231c-0.12,0.153-0.18,0.339-0.18,0.555V46.705z"/>
			</g>
		</g>
	</g>
</g>
<g>
	<g>
		<path fill="#FFFFFF" d="M98.729,14.447c0,0.964-0.255,1.743-0.764,2.338s-1.191,0.892-2.047,0.892
			c-0.844,0-1.516-0.297-2.018-0.892c-0.503-0.595-0.754-1.374-0.754-2.338v-1.216c0-0.96,0.25-1.739,0.751-2.338
			c0.501-0.598,1.172-0.896,2.016-0.896c0.855,0,1.539,0.299,2.05,0.896c0.51,0.599,0.766,1.378,0.766,2.338V14.447z M98.141,13.221
			c0-0.807-0.197-1.456-0.591-1.948s-0.938-0.738-1.637-0.738c-0.686,0-1.219,0.246-1.601,0.738s-0.573,1.142-0.573,1.948v1.226
			c0,0.813,0.192,1.466,0.575,1.958c0.384,0.492,0.918,0.738,1.604,0.738c0.701,0,1.247-0.245,1.637-0.735
			c0.391-0.49,0.586-1.145,0.586-1.961V13.221z"/>
		<path fill="#FFFFFF" d="M104.314,15.753c0-0.382-0.146-0.698-0.439-0.948c-0.293-0.249-0.79-0.483-1.491-0.702
			c-0.768-0.219-1.352-0.491-1.751-0.817c-0.4-0.327-0.601-0.771-0.601-1.331c0-0.57,0.224-1.04,0.672-1.407s1.02-0.551,1.714-0.551
			c0.731,0,1.319,0.207,1.764,0.623c0.444,0.415,0.66,0.942,0.646,1.581l-0.01,0.031h-0.553c0-0.492-0.172-0.901-0.517-1.226
			c-0.344-0.325-0.787-0.487-1.331-0.487c-0.56,0-0.998,0.138-1.316,0.413c-0.317,0.275-0.477,0.612-0.477,1.013
			c0,0.379,0.145,0.691,0.433,0.936s0.796,0.473,1.523,0.685c0.758,0.229,1.335,0.511,1.733,0.846s0.598,0.779,0.598,1.333
			c0,0.581-0.232,1.049-0.698,1.402s-1.053,0.53-1.761,0.53s-1.326-0.187-1.853-0.562c-0.527-0.374-0.782-0.92-0.766-1.638
			l0.01-0.031h0.548c0,0.578,0.209,1.008,0.628,1.29c0.418,0.282,0.896,0.423,1.433,0.423c0.55,0,0.997-0.131,1.343-0.393
			C104.142,16.505,104.314,16.167,104.314,15.753z"/>
		<path fill="#FFFFFF" d="M111.319,15.236l0.01,0.031c0.014,0.731-0.217,1.315-0.691,1.753s-1.097,0.656-1.867,0.656
			c-0.8,0-1.445-0.3-1.937-0.899c-0.49-0.6-0.735-1.377-0.735-2.33v-1.216c0-0.95,0.245-1.727,0.735-2.33
			c0.491-0.603,1.137-0.904,1.937-0.904c0.78,0,1.405,0.213,1.875,0.641c0.469,0.427,0.697,1.015,0.684,1.764l-0.01,0.03h-0.554
			c0-0.602-0.177-1.07-0.53-1.407c-0.354-0.336-0.843-0.505-1.465-0.505c-0.629,0-1.134,0.253-1.514,0.759
			c-0.381,0.506-0.57,1.153-0.57,1.943v1.226c0,0.8,0.189,1.451,0.57,1.956c0.38,0.504,0.885,0.756,1.514,0.756
			c0.622,0,1.11-0.164,1.465-0.492c0.354-0.328,0.53-0.805,0.53-1.431H111.319z"/>
		<path fill="#FFFFFF" d="M113.597,17.569h-0.593v-7.465h0.593V17.569z"/>
		<path fill="#FFFFFF" d="M116.18,14.467v3.102h-0.593v-7.465h2.479c0.754,0,1.338,0.2,1.751,0.6c0.413,0.4,0.62,0.927,0.62,1.579
			c0,0.663-0.207,1.193-0.62,1.59s-0.997,0.595-1.751,0.595H116.18z M116.18,13.944h1.887c0.593,0,1.037-0.156,1.334-0.469
			c0.296-0.313,0.444-0.707,0.444-1.182c0-0.479-0.148-0.876-0.444-1.192c-0.297-0.316-0.741-0.475-1.334-0.475h-1.887V13.944z"/>
		<path fill="#FFFFFF" d="M124.888,16.149c0-0.26-0.104-0.486-0.309-0.68c-0.206-0.193-0.577-0.352-1.114-0.475
			c-0.632-0.136-1.103-0.323-1.41-0.561c-0.308-0.238-0.462-0.57-0.462-0.998c0-0.424,0.172-0.782,0.517-1.076
			c0.344-0.294,0.799-0.441,1.365-0.441c0.596,0,1.072,0.157,1.428,0.47s0.525,0.698,0.509,1.156l-0.01,0.03h-0.549
			c0-0.304-0.126-0.569-0.378-0.795s-0.585-0.338-1-0.338c-0.428,0-0.751,0.098-0.968,0.292c-0.218,0.195-0.326,0.422-0.326,0.682
			c0,0.253,0.093,0.463,0.279,0.629c0.186,0.165,0.557,0.312,1.113,0.438c0.626,0.144,1.1,0.344,1.421,0.601
			c0.32,0.256,0.481,0.602,0.481,1.035c0,0.462-0.181,0.837-0.541,1.126c-0.36,0.288-0.838,0.433-1.43,0.433
			c-0.649,0-1.159-0.16-1.529-0.481s-0.546-0.704-0.526-1.148l0.01-0.031h0.544c0.022,0.4,0.181,0.69,0.472,0.872
			c0.291,0.181,0.635,0.271,1.03,0.271c0.428,0,0.766-0.099,1.012-0.298C124.764,16.664,124.888,16.425,124.888,16.149z"/>
	</g>
	<g>
		<g>
			<polygon fill="#F6D448" points="103.707,50.143 87.549,72.26 96.912,70.504 102.055,77.174 111.84,52.617 			"/>
			<polygon fill="#F6D448" points="114.884,50.143 131.04,72.26 121.682,70.504 116.538,77.174 106.754,52.617 			"/>
			<g>
				<g>
					<path stroke="#DD9A28" stroke-width="2" d="M127.414,44.883c-0.41,9.791-8.675,17.395-18.466,16.982
						c-9.789-0.404-17.394-8.674-16.983-18.461c0.408-9.791,8.676-17.396,18.465-16.99
						C120.221,26.836,127.824,35.098,127.414,44.883z"/>
				</g>
			</g>
		</g>
		<g>
			<g>
				<path fill="#F6D448" d="M107.87,48.299h-5.565v-1.088l2.568-2.905c0.384-0.452,0.656-0.835,0.817-1.148
					c0.162-0.313,0.242-0.601,0.242-0.862c0-0.342-0.085-0.615-0.256-0.82s-0.428-0.308-0.77-0.308c-0.36,0-0.64,0.131-0.837,0.393
					s-0.296,0.595-0.296,0.997h-1.618l-0.012-0.034c-0.019-0.737,0.225-1.36,0.729-1.871s1.183-0.767,2.033-0.767
					s1.512,0.218,1.982,0.652c0.472,0.435,0.707,1.019,0.707,1.752c0,0.497-0.132,0.951-0.396,1.361
					c-0.264,0.41-0.719,0.978-1.364,1.703l-1.367,1.641l0.012,0.028h3.39V48.299z"/>
				<path fill="#F6D448" d="M108.872,41.6c0-0.49,0.159-0.898,0.476-1.225c0.317-0.327,0.759-0.49,1.325-0.49
					c0.573,0,1.018,0.162,1.333,0.487c0.314,0.324,0.473,0.733,0.473,1.228v0.438c0,0.49-0.158,0.896-0.473,1.219
					c-0.315,0.323-0.756,0.484-1.322,0.484c-0.569,0-1.014-0.161-1.333-0.484c-0.318-0.322-0.479-0.729-0.479-1.219V41.6z
					 M109.978,42.039c0,0.221,0.061,0.405,0.183,0.556c0.121,0.15,0.296,0.225,0.523,0.225c0.221,0,0.391-0.074,0.51-0.225
					c0.12-0.15,0.18-0.335,0.18-0.556V41.6c0-0.221-0.061-0.407-0.183-0.562c-0.121-0.153-0.294-0.23-0.518-0.23
					c-0.225,0-0.396,0.077-0.516,0.23c-0.12,0.154-0.18,0.341-0.18,0.562V42.039z M110.957,47.678l-0.809-0.427l4.05-6.483
					l0.81,0.428L110.957,47.678z M112.837,46.265c0-0.485,0.16-0.892,0.479-1.219c0.319-0.326,0.762-0.49,1.327-0.49
					c0.57,0,1.014,0.163,1.331,0.487c0.316,0.325,0.476,0.732,0.476,1.222v0.439c0,0.493-0.158,0.901-0.474,1.225
					c-0.314,0.322-0.755,0.484-1.321,0.484c-0.569,0-1.015-0.163-1.336-0.487c-0.321-0.325-0.481-0.732-0.481-1.222V46.265z
					 M113.942,46.705c0,0.216,0.065,0.401,0.196,0.555c0.131,0.154,0.303,0.231,0.516,0.231c0.247,0,0.424-0.071,0.53-0.214
					c0.105-0.143,0.159-0.333,0.159-0.572v-0.439c0-0.216-0.061-0.401-0.183-0.555c-0.121-0.154-0.294-0.231-0.519-0.231
					c-0.228,0-0.401,0.077-0.521,0.231c-0.12,0.153-0.18,0.339-0.18,0.555V46.705z"/>
			</g>
		</g>
	</g>
</g>
<g>
	<g>
		<path fill="#FFFFFF" d="M169.464,15.237l0.01,0.031c0.014,0.731-0.217,1.315-0.691,1.753s-1.097,0.656-1.867,0.656
			c-0.8,0-1.445-0.3-1.937-0.899c-0.49-0.6-0.735-1.377-0.735-2.33v-1.216c0-0.95,0.245-1.727,0.735-2.33
			c0.491-0.603,1.137-0.904,1.937-0.904c0.78,0,1.405,0.213,1.875,0.641c0.469,0.427,0.697,1.015,0.684,1.764l-0.01,0.03h-0.554
			c0-0.602-0.177-1.07-0.53-1.407c-0.354-0.336-0.843-0.505-1.465-0.505c-0.629,0-1.134,0.253-1.514,0.759
			c-0.381,0.506-0.57,1.153-0.57,1.943v1.226c0,0.8,0.189,1.451,0.57,1.956c0.38,0.504,0.885,0.756,1.514,0.756
			c0.622,0,1.11-0.164,1.465-0.492c0.354-0.328,0.53-0.805,0.53-1.431H169.464z"/>
		<path fill="#FFFFFF" d="M176.295,17.57h-0.593l-4.085-6.389l-0.029,0.006v6.383h-0.593v-7.465h0.593l4.085,6.373l0.029-0.006
			v-6.367h0.593V17.57z"/>
		<path fill="#FFFFFF" d="M181.951,13.956h-3.226v3.097h3.729v0.518h-4.322v-7.465h4.297v0.522h-3.704v2.805h3.226V13.956z"/>
		<path fill="#FFFFFF" d="M187.474,15.488h-3.156l-0.727,2.082h-0.612l2.643-7.465h0.559l2.623,7.465h-0.613L187.474,15.488z
			 M184.505,14.94h2.776l-1.363-3.958h-0.03L184.505,14.94z"/>
	</g>
	<g>
		<g>
			<polygon fill="#DB4E26" points="170.911,50.143 154.751,72.26 164.116,70.504 169.262,77.174 179.044,52.617 			"/>
			<polygon fill="#DB4E26" points="182.088,50.143 198.244,72.26 188.883,70.504 183.742,77.174 173.96,52.617 			"/>
			<g>
				<path stroke="#DD9A28" stroke-width="2" d="M194.618,44.883c-0.41,9.791-8.675,17.395-18.466,16.982
					c-9.789-0.404-17.394-8.674-16.98-18.461c0.405-9.791,8.672-17.396,18.461-16.99C187.425,26.836,195.026,35.098,194.618,44.883z
					"/>
			</g>
		</g>
		<g>
			<path fill="#DB4E26" d="M170.144,45.297c0,0.972-0.256,1.735-0.767,2.29s-1.188,0.832-2.03,0.832
				c-0.851,0-1.532-0.277-2.045-0.832s-0.77-1.318-0.77-2.29v-2.284c0-0.969,0.256-1.732,0.767-2.29
				c0.511-0.559,1.189-0.838,2.036-0.838c0.844,0,1.522,0.279,2.037,0.838c0.515,0.558,0.771,1.321,0.771,2.29V45.297z
				 M168.486,42.842c0-0.532-0.103-0.944-0.306-1.236c-0.203-0.293-0.484-0.438-0.846-0.438c-0.364,0-0.646,0.146-0.846,0.438
				c-0.199,0.292-0.299,0.704-0.299,1.236v2.614c0,0.543,0.101,0.96,0.302,1.251c0.201,0.29,0.486,0.436,0.854,0.436
				c0.36,0,0.641-0.146,0.84-0.436c0.199-0.291,0.3-0.708,0.3-1.251V42.842z"/>
			<path fill="#DB4E26" d="M173.061,48.225l-0.906,1.795h-1.11l0.398-1.846v-1.299h1.618V48.225z"/>
			<path fill="#DB4E26" d="M179.925,48.299h-5.565v-1.088l2.568-2.905c0.384-0.452,0.656-0.835,0.817-1.148
				c0.162-0.313,0.242-0.601,0.242-0.862c0-0.342-0.085-0.615-0.256-0.82s-0.428-0.308-0.77-0.308c-0.36,0-0.64,0.131-0.837,0.393
				s-0.296,0.595-0.296,0.997h-1.618l-0.012-0.034c-0.019-0.737,0.225-1.36,0.729-1.871s1.183-0.767,2.033-0.767
				s1.512,0.218,1.982,0.652c0.472,0.435,0.707,1.019,0.707,1.752c0,0.497-0.132,0.951-0.396,1.361
				c-0.264,0.41-0.719,0.978-1.364,1.703l-1.367,1.641l0.012,0.028h3.39V48.299z"/>
			<path fill="#DB4E26" d="M180.928,41.6c0-0.49,0.159-0.898,0.476-1.225c0.317-0.327,0.759-0.49,1.325-0.49
				c0.573,0,1.018,0.162,1.333,0.487c0.314,0.324,0.473,0.733,0.473,1.228v0.438c0,0.49-0.158,0.896-0.473,1.219
				c-0.315,0.323-0.756,0.484-1.322,0.484c-0.569,0-1.014-0.161-1.333-0.484c-0.318-0.322-0.479-0.729-0.479-1.219V41.6z
				 M182.033,42.039c0,0.221,0.061,0.405,0.183,0.556c0.121,0.15,0.296,0.225,0.523,0.225c0.221,0,0.391-0.074,0.51-0.225
				c0.12-0.15,0.18-0.335,0.18-0.556V41.6c0-0.221-0.061-0.407-0.183-0.562c-0.121-0.153-0.294-0.23-0.518-0.23
				c-0.225,0-0.396,0.077-0.516,0.23c-0.12,0.154-0.18,0.341-0.18,0.562V42.039z M183.013,47.678l-0.809-0.427l4.05-6.483
				l0.81,0.428L183.013,47.678z M184.893,46.265c0-0.485,0.16-0.892,0.479-1.219c0.319-0.326,0.762-0.49,1.327-0.49
				c0.57,0,1.014,0.163,1.331,0.487c0.316,0.325,0.476,0.732,0.476,1.222v0.439c0,0.493-0.158,0.901-0.474,1.225
				c-0.314,0.322-0.755,0.484-1.321,0.484c-0.569,0-1.015-0.163-1.336-0.487c-0.321-0.325-0.481-0.732-0.481-1.222V46.265z
				 M185.998,46.705c0,0.216,0.065,0.401,0.196,0.555c0.131,0.154,0.303,0.231,0.516,0.231c0.247,0,0.424-0.071,0.53-0.214
				c0.105-0.143,0.159-0.333,0.159-0.572v-0.439c0-0.216-0.061-0.401-0.183-0.555c-0.121-0.154-0.294-0.231-0.519-0.231
				c-0.228,0-0.401,0.077-0.521,0.231c-0.12,0.153-0.18,0.339-0.18,0.555V46.705z"/>
		</g>
	</g>
</g>
<g>
	<g>
		<g>
			<path fill="#FFFFFF" d="M167.065,123.049l0.01,0.031c0.014,0.73-0.217,1.314-0.691,1.752s-1.097,0.656-1.867,0.656
				c-0.8,0-1.445-0.299-1.937-0.898c-0.49-0.6-0.735-1.377-0.735-2.33v-1.217c0-0.949,0.245-1.727,0.735-2.33
				c0.491-0.602,1.137-0.904,1.937-0.904c0.78,0,1.405,0.213,1.875,0.641c0.469,0.428,0.697,1.016,0.684,1.764l-0.01,0.031h-0.554
				c0-0.602-0.177-1.07-0.53-1.408c-0.354-0.336-0.843-0.504-1.465-0.504c-0.629,0-1.134,0.252-1.514,0.758
				c-0.381,0.506-0.57,1.154-0.57,1.943v1.227c0,0.799,0.189,1.451,0.57,1.955c0.38,0.504,0.885,0.756,1.514,0.756
				c0.622,0,1.11-0.164,1.465-0.492c0.354-0.328,0.53-0.805,0.53-1.43H167.065z"/>
			<path fill="#FFFFFF" d="M172.415,121.768h-3.226v3.096h3.729v0.518h-4.322v-7.465h4.297v0.523h-3.704v2.805h3.226V121.768z"/>
			<path fill="#FFFFFF" d="M174.174,125.381v-7.465h2.099c0.748,0,1.331,0.164,1.749,0.49s0.627,0.818,0.627,1.475
				c0,0.371-0.101,0.697-0.304,0.979c-0.202,0.279-0.475,0.479-0.817,0.594c0.455,0.059,0.826,0.264,1.114,0.615
				c0.288,0.354,0.432,0.766,0.432,1.236c0,0.666-0.208,1.18-0.624,1.539c-0.417,0.357-0.975,0.537-1.673,0.537H174.174z
				 M174.767,121.264h1.729c0.497-0.01,0.882-0.133,1.153-0.371s0.407-0.582,0.407-1.033c0-0.471-0.151-0.826-0.454-1.064
				c-0.303-0.236-0.746-0.355-1.329-0.355h-1.506V121.264z M174.767,121.781v3.082h2.01c0.53,0,0.947-0.135,1.25-0.408
				c0.303-0.271,0.454-0.65,0.454-1.141c0-0.447-0.148-0.811-0.446-1.088c-0.299-0.279-0.697-0.428-1.198-0.445h-0.079H174.767z"/>
			<path fill="#FFFFFF" d="M184.176,123.299h-3.156l-0.727,2.082h-0.612l2.643-7.465h0.559l2.623,7.465h-0.613L184.176,123.299z
				 M181.207,122.752h2.776l-1.363-3.959h-0.03L181.207,122.752z"/>
			<path fill="#FFFFFF" d="M190.671,123.566c0-0.383-0.146-0.699-0.439-0.949c-0.293-0.248-0.79-0.482-1.491-0.701
				c-0.768-0.219-1.352-0.492-1.751-0.818c-0.4-0.326-0.601-0.77-0.601-1.33c0-0.57,0.224-1.041,0.672-1.408s1.02-0.551,1.714-0.551
				c0.731,0,1.319,0.207,1.764,0.623s0.66,0.943,0.646,1.582l-0.01,0.031h-0.553c0-0.492-0.172-0.902-0.517-1.227
				c-0.344-0.324-0.787-0.486-1.331-0.486c-0.56,0-0.998,0.137-1.316,0.412c-0.317,0.275-0.477,0.613-0.477,1.014
				c0,0.379,0.145,0.691,0.433,0.936s0.796,0.473,1.523,0.684c0.758,0.229,1.335,0.512,1.733,0.846
				c0.398,0.336,0.598,0.779,0.598,1.334c0,0.58-0.232,1.049-0.698,1.402s-1.053,0.529-1.761,0.529s-1.326-0.186-1.853-0.561
				c-0.527-0.375-0.782-0.92-0.766-1.639l0.01-0.031h0.548c0,0.578,0.209,1.008,0.628,1.291c0.418,0.281,0.896,0.422,1.433,0.422
				c0.55,0,0.997-0.131,1.343-0.393C190.498,124.318,190.671,123.98,190.671,123.566z"/>
			<path fill="#FFFFFF" d="M170.056,137.09h0.03l2.677-6.572h0.722v7.465h-0.593v-6.271l-0.03-0.004l-2.578,6.275h-0.425
				l-2.638-6.43l-0.029,0.006v6.424h-0.593v-7.465h0.79L170.056,137.09z"/>
			<path fill="#FFFFFF" d="M175.321,137.982v-7.465h2.193c0.879,0,1.605,0.303,2.181,0.912c0.574,0.607,0.861,1.389,0.861,2.344
				v0.957c0,0.955-0.287,1.734-0.861,2.342c-0.575,0.605-1.302,0.91-2.181,0.91H175.321z M175.914,131.039v6.426h1.601
				c0.711,0,1.297-0.258,1.758-0.775c0.461-0.516,0.691-1.168,0.691-1.959v-0.973c0-0.779-0.231-1.428-0.693-1.943
				c-0.463-0.516-1.048-0.775-1.756-0.775H175.914z"/>
			<path fill="#FFFFFF" d="M186.183,136.166c0-0.381-0.146-0.697-0.439-0.947s-0.79-0.484-1.491-0.703
				c-0.768-0.219-1.352-0.49-1.751-0.816c-0.4-0.328-0.601-0.771-0.601-1.332c0-0.57,0.224-1.039,0.672-1.406
				s1.02-0.551,1.714-0.551c0.731,0,1.319,0.207,1.764,0.623c0.444,0.414,0.66,0.941,0.646,1.58l-0.01,0.031h-0.553
				c0-0.492-0.172-0.9-0.517-1.225c-0.344-0.326-0.787-0.488-1.331-0.488c-0.56,0-0.998,0.139-1.316,0.414
				c-0.317,0.275-0.477,0.611-0.477,1.012c0,0.379,0.145,0.691,0.433,0.936s0.796,0.473,1.523,0.686
				c0.758,0.229,1.335,0.51,1.733,0.846c0.398,0.334,0.598,0.779,0.598,1.332c0,0.582-0.232,1.049-0.698,1.402
				s-1.053,0.531-1.761,0.531s-1.326-0.188-1.853-0.563c-0.527-0.373-0.782-0.92-0.766-1.637l0.01-0.031h0.548
				c0,0.578,0.209,1.008,0.628,1.289c0.418,0.283,0.896,0.424,1.433,0.424c0.55,0,0.997-0.131,1.343-0.393
				S186.183,136.58,186.183,136.166z"/>
		</g>
	</g>
	<g>
		<g>
			<g>
				<polygon fill="#DB4E26" points="170.588,176.113 154.698,197.875 163.905,196.145 168.962,202.713 178.587,178.547 				"/>
			</g>
			<g>
				<polygon fill="#DB4E26" points="181.594,176.113 197.478,197.875 188.268,196.145 183.215,202.713 173.591,178.547 				"/>
			</g>
			<g>
				<g>
					<path fill="#DB4E26" d="M197.904,174.582c0.05-0.045,0.106-0.084,0.143-0.127c0.208-0.188,0.411-0.289,0.411-0.289
						l-0.143-0.018c0.616-0.742,0.978-1.701,0.978-2.746c0-1.379-0.64-2.609-1.631-3.4l0.008,0.002c0,0-0.526-0.51-0.582-1.047
						c-0.009-0.092,0.005-0.197,0.042-0.293c0.16-0.25,0.301-0.521,0.417-0.809c0.089-0.111,0.149-0.191,0.149-0.191l-0.1,0.031
						c0.35-0.984,0.35-2.098-0.082-3.133c-0.451-1.061-1.263-1.848-2.234-2.283l0.089-0.012c0,0-0.901-0.406-1.072-0.926
						c-0.179-0.518,0.099-1.197,0.099-1.197l-0.069,0.053c0.168-1.289-0.237-2.646-1.233-3.639
						c-1.025-1.029-2.447-1.432-3.775-1.213c-0.2-0.002-0.432-0.051-0.62-0.145c-0.253-0.141-0.442-0.457-0.566-0.74
						c-0.343-1.266-1.243-2.355-2.551-2.887c-1.148-0.475-2.373-0.41-3.425,0.059l0.016-0.023c0,0-0.092,0.055-0.227,0.127
						c-0.032,0.012-0.058,0.029-0.095,0.041c-0.296,0.135-0.73,0.301-1.049,0.215c-0.293-0.08-0.548-0.301-0.715-0.475
						c-0.793-1.137-2.107-1.885-3.583-1.885c-1.314,0-2.477,0.584-3.275,1.492v-0.084c0,0-0.405,0.611-0.938,0.752
						c-0.524,0.139-1.368-0.383-1.368-0.383l0.047,0.092c-0.969-0.344-2.055-0.352-3.082,0.068
						c-1.089,0.443-1.892,1.283-2.337,2.283l-0.026-0.078c0,0-0.027,0.164-0.096,0.391c-0.023,0.074-0.055,0.145-0.073,0.225
						c-0.092,0.26-0.234,0.533-0.436,0.67c-0.451,0.311-1.176,0.23-1.176,0.23l0.02,0.002c-1.223-0.08-2.458,0.342-3.384,1.266
						c-0.898,0.904-1.325,2.109-1.262,3.289l-0.039-0.037c0,0,0.191,0.713-0.051,1.197c-0.096,0.191-0.298,0.355-0.506,0.475
						c-1.31,0.316-2.466,1.234-3.006,2.588c-0.549,1.326-0.388,2.756,0.299,3.896l-0.11-0.055c0,0,0.396,0.617,0.312,1.16
						c-0.076,0.537-0.901,1.092-0.901,1.092h0.024c-0.876,0.797-1.437,1.953-1.437,3.238c0,1.389,0.663,2.633,1.684,3.434
						c0.172,0.17,0.393,0.428,0.461,0.723c0.124,0.523-0.413,1.354-0.413,1.354l0.042-0.02c-0.424,1.037-0.458,2.232,0.008,3.34
						c0.622,1.48,1.961,2.432,3.44,2.631c0.13,0.066,0.265,0.145,0.365,0.252c0.11,0.109,0.173,0.264,0.226,0.426
						c-0.047,1.18,0.377,2.359,1.275,3.256c0.864,0.873,2.014,1.289,3.146,1.27l-0.003,0.012c0,0,0.017,0,0.032-0.012
						c0.146-0.002,0.293-0.014,0.442-0.029c0.309-0.006,0.7,0.027,0.933,0.209c0.253,0.189,0.405,0.51,0.49,0.742
						c0.016,0.064,0.046,0.115,0.058,0.174c0.024,0.08,0.034,0.135,0.034,0.135l0.006-0.02c0.411,1.1,1.265,2.029,2.438,2.502
						c0.923,0.389,1.904,0.416,2.804,0.17l-0.014,0.008c0,0,0.023-0.004,0.05-0.018c0.19-0.059,0.38-0.121,0.56-0.203
						c0.268-0.066,0.561-0.109,0.793-0.027c0.11,0.041,0.215,0.105,0.306,0.184c0.782,1.172,2.115,1.951,3.639,1.951
						c1.259,0,2.393-0.539,3.191-1.398v0.041c0,0,0.039-0.061,0.097-0.156c0.076-0.094,0.161-0.188,0.234-0.293
						c0.148-0.156,0.325-0.307,0.528-0.385c0.51-0.191,1.396,0.25,1.396,0.25l-0.055-0.088c1.004,0.385,2.14,0.408,3.214-0.035
						c1.128-0.451,1.961-1.332,2.391-2.373l0.014,0.074c0,0,0.239-0.963,0.711-1.234c0.474-0.273,1.19-0.131,1.19-0.131
						l-0.064-0.051c1.185,0.047,2.37-0.365,3.27-1.268c0.861-0.859,1.283-1.982,1.272-3.104l0.028,0.025c0,0-0.018-0.07-0.034-0.178
						c0-0.117-0.008-0.238-0.026-0.35c0-0.219,0.026-0.465,0.135-0.674c0.247-0.486,1.202-0.756,1.202-0.756l-0.059-0.018
						c1.131-0.396,2.101-1.258,2.588-2.461c0.479-1.168,0.399-2.428-0.09-3.488c-0.068-0.262-0.105-0.551-0.019-0.781
						C197.678,174.848,197.783,174.709,197.904,174.582z M186.453,180.635c-0.857,0.859-1.281,1.979-1.275,3.113
						c-1.033-0.449-2.231-0.492-3.357-0.035c-1.17,0.477-2.023,1.416-2.435,2.512c-0.767-0.682-1.778-1.096-2.883-1.096
						c-0.951,0-1.824,0.299-2.532,0.809c-0.445-0.975-1.247-1.783-2.313-2.225c-1.151-0.465-2.382-0.41-3.432,0.064
						c0.006-1.137-0.413-2.279-1.272-3.143c-0.88-0.869-2.023-1.293-3.159-1.273c0.15-0.818,0.079-1.684-0.266-2.504
						c-0.472-1.117-1.362-1.936-2.403-2.359c0.801-0.791,1.297-1.881,1.297-3.096c0-1.428-0.686-2.682-1.748-3.48
						c1.281-0.342,2.377-1.256,2.907-2.559c0.459-1.123,0.413-2.328-0.034-3.365c1.085-0.023,2.171-0.439,3.001-1.271
						c0.858-0.857,1.28-1.992,1.272-3.113c1.027,0.443,2.24,0.486,3.367,0.029c1.137-0.459,1.972-1.359,2.396-2.412
						c0.774,0.695,1.794,1.123,2.92,1.123c1.299,0,2.461-0.572,3.262-1.479c0.374,1.209,1.263,2.254,2.529,2.768
						c1.118,0.457,2.322,0.414,3.354-0.029c-0.007,1.121,0.419,2.256,1.276,3.113c0.795,0.791,1.811,1.209,2.849,1.264
						c-0.693,1.148-0.861,2.617-0.296,3.957c0.472,1.113,1.352,1.93,2.398,2.346c-0.802,0.789-1.292,1.891-1.292,3.109
						c0,0.949,0.301,1.82,0.813,2.535c-0.751,0.463-1.385,1.168-1.74,2.053c-0.46,1.129-0.419,2.336,0.026,3.375
						C188.517,179.328,187.346,179.744,186.453,180.635z"/>
				</g>
				<g>
					<g>
						<g>
							<path d="M191.412,171.348c-0.33,7.986-7.154,14.195-15.24,13.861c-8.083-0.344-14.356-7.09-14.015-15.076
								c0.333-7.988,7.16-14.197,15.245-13.865C185.478,156.609,191.752,163.354,191.412,171.348z"/>
							<path fill="#B52125" d="M176.796,186.242c-0.219,0-0.441-0.006-0.662-0.014c-4.185-0.178-8.055-1.947-10.891-4.994
								c-2.833-3.051-4.294-7.008-4.124-11.146c0.364-8.545,7.594-15.207,16.319-14.842c8.643,0.357,15.37,7.604,15.009,16.143
								C192.095,179.715,185.225,186.242,176.796,186.242L176.796,186.242z M176.774,157.279c-7.314,0-13.284,5.666-13.583,12.898
								c-0.156,3.59,1.119,7.023,3.578,9.666c2.458,2.648,5.817,4.188,9.446,4.342c7.583,0.307,13.853-5.461,14.165-12.887
								c0.313-7.41-5.53-13.689-13.029-14.004C177.161,157.281,176.967,157.279,176.774,157.279L176.774,157.279z"/>
						</g>
					</g>
				</g>
			</g>
		</g>
		<g>
			<path fill="#DB4E26" d="M173.376,174.824h-1.657v-6.848h-1.715v-1.27l3.372-0.297V174.824z"/>
			<path fill="#DB4E26" d="M176.076,168.125c0-0.49,0.159-0.898,0.476-1.225c0.317-0.326,0.759-0.49,1.325-0.49
				c0.573,0,1.018,0.162,1.333,0.488c0.314,0.324,0.473,0.732,0.473,1.227v0.439c0,0.49-0.158,0.896-0.473,1.219
				c-0.315,0.322-0.756,0.484-1.322,0.484c-0.569,0-1.014-0.162-1.333-0.484c-0.318-0.322-0.479-0.729-0.479-1.219V168.125z
				 M177.182,168.564c0,0.221,0.061,0.404,0.183,0.555c0.121,0.15,0.296,0.225,0.523,0.225c0.221,0,0.391-0.074,0.51-0.225
				c0.12-0.15,0.18-0.334,0.18-0.555v-0.439c0-0.221-0.061-0.406-0.183-0.561c-0.121-0.154-0.294-0.23-0.518-0.23
				c-0.225,0-0.396,0.076-0.516,0.23c-0.12,0.154-0.18,0.34-0.18,0.561V168.564z M178.161,174.203l-0.809-0.426l4.05-6.484
				l0.81,0.428L178.161,174.203z M180.041,172.791c0-0.486,0.16-0.893,0.479-1.219c0.319-0.326,0.762-0.49,1.327-0.49
				c0.57,0,1.014,0.162,1.331,0.486c0.316,0.326,0.476,0.732,0.476,1.223v0.439c0,0.492-0.158,0.9-0.474,1.225
				c-0.314,0.322-0.755,0.484-1.321,0.484c-0.569,0-1.015-0.164-1.336-0.488s-0.481-0.732-0.481-1.221V172.791z M181.146,173.23
				c0,0.215,0.065,0.4,0.196,0.555s0.303,0.23,0.516,0.23c0.247,0,0.424-0.07,0.53-0.213c0.105-0.143,0.159-0.334,0.159-0.572
				v-0.439c0-0.217-0.061-0.402-0.183-0.555c-0.121-0.154-0.294-0.232-0.519-0.232c-0.228,0-0.401,0.078-0.521,0.232
				c-0.12,0.152-0.18,0.338-0.18,0.555V173.23z"/>
		</g>
	</g>
</g>
<g>
	<g>
		<g>
			<path fill="#FFFFFF" d="M99.862,123.049l0.01,0.031c0.014,0.73-0.217,1.314-0.691,1.752s-1.097,0.656-1.867,0.656
				c-0.8,0-1.445-0.299-1.937-0.898c-0.49-0.6-0.735-1.377-0.735-2.33v-1.217c0-0.949,0.245-1.727,0.735-2.33
				c0.491-0.602,1.137-0.904,1.937-0.904c0.78,0,1.405,0.213,1.875,0.641c0.469,0.428,0.697,1.016,0.684,1.764l-0.01,0.031h-0.554
				c0-0.602-0.177-1.07-0.53-1.408c-0.354-0.336-0.843-0.504-1.465-0.504c-0.629,0-1.134,0.252-1.514,0.758
				c-0.381,0.506-0.57,1.154-0.57,1.943v1.227c0,0.799,0.189,1.451,0.57,1.955c0.38,0.504,0.885,0.756,1.514,0.756
				c0.622,0,1.11-0.164,1.465-0.492c0.354-0.328,0.53-0.805,0.53-1.43H99.862z"/>
			<path fill="#FFFFFF" d="M105.212,121.768h-3.226v3.096h3.729v0.518h-4.322v-7.465h4.297v0.523h-3.704v2.805h3.226V121.768z"/>
			<path fill="#FFFFFF" d="M106.971,125.381v-7.465h2.099c0.748,0,1.331,0.164,1.749,0.49s0.627,0.818,0.627,1.475
				c0,0.371-0.101,0.697-0.304,0.979c-0.202,0.279-0.475,0.479-0.817,0.594c0.455,0.059,0.826,0.264,1.114,0.615
				c0.288,0.354,0.432,0.766,0.432,1.236c0,0.666-0.208,1.18-0.624,1.539c-0.417,0.357-0.975,0.537-1.673,0.537H106.971z
				 M107.563,121.264h1.729c0.497-0.01,0.882-0.133,1.153-0.371s0.407-0.582,0.407-1.033c0-0.471-0.151-0.826-0.454-1.064
				c-0.303-0.236-0.746-0.355-1.329-0.355h-1.506V121.264z M107.563,121.781v3.082h2.01c0.53,0,0.947-0.135,1.25-0.408
				c0.303-0.271,0.454-0.65,0.454-1.141c0-0.447-0.148-0.811-0.446-1.088c-0.299-0.279-0.697-0.428-1.198-0.445h-0.079H107.563z"/>
			<path fill="#FFFFFF" d="M116.973,123.299h-3.156l-0.727,2.082h-0.612l2.643-7.465h0.559l2.623,7.465h-0.613L116.973,123.299z
				 M114.004,122.752h2.776l-1.363-3.959h-0.03L114.004,122.752z"/>
			<path fill="#FFFFFF" d="M123.468,123.566c0-0.383-0.146-0.699-0.439-0.949c-0.293-0.248-0.79-0.482-1.491-0.701
				c-0.768-0.219-1.352-0.492-1.751-0.818c-0.4-0.326-0.601-0.77-0.601-1.33c0-0.57,0.224-1.041,0.672-1.408s1.02-0.551,1.714-0.551
				c0.731,0,1.319,0.207,1.764,0.623s0.66,0.943,0.646,1.582l-0.01,0.031h-0.553c0-0.492-0.172-0.902-0.517-1.227
				c-0.344-0.324-0.787-0.486-1.331-0.486c-0.56,0-0.998,0.137-1.316,0.412c-0.317,0.275-0.477,0.613-0.477,1.014
				c0,0.379,0.145,0.691,0.433,0.936s0.796,0.473,1.523,0.684c0.758,0.229,1.335,0.512,1.733,0.846
				c0.398,0.336,0.598,0.779,0.598,1.334c0,0.58-0.232,1.049-0.698,1.402s-1.053,0.529-1.761,0.529s-1.326-0.186-1.853-0.561
				c-0.527-0.375-0.782-0.92-0.766-1.639l0.01-0.031h0.548c0,0.578,0.209,1.008,0.628,1.291c0.418,0.281,0.896,0.422,1.433,0.422
				c0.55,0,0.997-0.131,1.343-0.393C123.295,124.318,123.468,123.98,123.468,123.566z"/>
			<path fill="#FFFFFF" d="M100.262,136.166c0-0.381-0.146-0.697-0.439-0.947s-0.79-0.484-1.491-0.703
				c-0.768-0.219-1.352-0.49-1.751-0.816c-0.4-0.328-0.601-0.771-0.601-1.332c0-0.57,0.224-1.039,0.672-1.406
				s1.02-0.551,1.714-0.551c0.731,0,1.319,0.207,1.764,0.623c0.444,0.414,0.66,0.941,0.646,1.58l-0.01,0.031h-0.553
				c0-0.492-0.172-0.9-0.517-1.225c-0.344-0.326-0.787-0.488-1.331-0.488c-0.56,0-0.998,0.139-1.316,0.414
				c-0.317,0.275-0.477,0.611-0.477,1.012c0,0.379,0.145,0.691,0.433,0.936s0.796,0.473,1.523,0.686
				c0.758,0.229,1.335,0.51,1.733,0.846c0.398,0.334,0.598,0.779,0.598,1.332c0,0.582-0.232,1.049-0.698,1.402
				s-1.053,0.531-1.761,0.531s-1.326-0.188-1.853-0.563c-0.527-0.373-0.782-0.92-0.766-1.637l0.01-0.031h0.548
				c0,0.578,0.209,1.008,0.628,1.289c0.418,0.283,0.896,0.424,1.433,0.424c0.55,0,0.997-0.131,1.343-0.393
				S100.262,136.58,100.262,136.166z"/>
			<path fill="#FFFFFF" d="M105.558,137.982c-0.036-0.195-0.063-0.363-0.082-0.504c-0.018-0.139-0.026-0.283-0.026-0.43
				c-0.185,0.301-0.443,0.549-0.775,0.746c-0.333,0.197-0.715,0.295-1.146,0.295c-0.523,0-0.93-0.145-1.218-0.434
				s-0.432-0.682-0.432-1.176c0-0.496,0.209-0.898,0.627-1.205c0.418-0.309,0.962-0.463,1.63-0.463h1.314v-0.686
				c0-0.396-0.121-0.709-0.363-0.934c-0.242-0.227-0.584-0.338-1.025-0.338c-0.404,0-0.731,0.102-0.98,0.307
				c-0.248,0.205-0.373,0.463-0.373,0.775h-0.548l-0.01-0.031c-0.02-0.418,0.152-0.783,0.516-1.1
				c0.364-0.316,0.839-0.475,1.426-0.475c0.586,0,1.057,0.156,1.412,0.467s0.534,0.756,0.534,1.338v2.727
				c0,0.195,0.01,0.385,0.031,0.57c0.021,0.184,0.058,0.367,0.106,0.549H105.558z M103.592,137.547c0.454,0,0.848-0.113,1.181-0.336
				c0.332-0.225,0.558-0.512,0.677-0.865v-1.061h-1.319c-0.48,0-0.878,0.119-1.19,0.355c-0.313,0.238-0.469,0.525-0.469,0.859
				c0,0.314,0.1,0.568,0.299,0.76S103.242,137.547,103.592,137.547z"/>
			<path fill="#FFFFFF" d="M111.109,137.08c-0.171,0.324-0.4,0.574-0.688,0.748s-0.63,0.262-1.025,0.262
				c-0.563,0-1.004-0.199-1.323-0.596c-0.32-0.396-0.479-1.012-0.479-1.846v-3.215h0.593v3.227c0,0.676,0.111,1.162,0.333,1.455
				c0.223,0.295,0.538,0.441,0.946,0.441c0.444,0,0.799-0.104,1.064-0.311c0.265-0.207,0.452-0.49,0.561-0.848v-3.965h0.593v5.549
				h-0.523L111.109,137.08z M110.374,130.189h0.726l0.015,0.029l-1.229,1.334h-0.528L110.374,130.189z"/>
			<path fill="#FFFFFF" d="M113.011,135.254c0-0.885,0.181-1.594,0.541-2.125c0.361-0.531,0.864-0.797,1.51-0.797
				c0.365,0,0.686,0.08,0.96,0.24c0.275,0.162,0.503,0.389,0.685,0.682v-3.27h0.593v7.998h-0.484l-0.084-0.805
				c-0.181,0.293-0.411,0.52-0.691,0.676c-0.28,0.158-0.609,0.236-0.988,0.236c-0.639,0-1.138-0.248-1.499-0.74
				c-0.36-0.494-0.541-1.156-0.541-1.988V135.254z M113.604,135.361c0,0.67,0.13,1.203,0.388,1.6
				c0.259,0.396,0.648,0.596,1.169,0.596c0.382,0,0.699-0.088,0.953-0.264s0.451-0.42,0.593-0.73v-2.631
				c-0.135-0.314-0.326-0.57-0.573-0.77c-0.247-0.197-0.568-0.297-0.963-0.297c-0.521,0-0.911,0.221-1.173,0.664
				c-0.263,0.443-0.394,1.018-0.394,1.725V135.361z"/>
			<path fill="#FFFFFF" d="M120.904,138.09c-0.691,0-1.253-0.254-1.685-0.762s-0.646-1.16-0.646-1.955v-0.283
				c0-0.799,0.218-1.459,0.654-1.979s0.977-0.779,1.622-0.779c0.649,0,1.15,0.217,1.505,0.648c0.354,0.432,0.53,1.014,0.53,1.746
				v0.477h-3.719v0.17c0,0.631,0.153,1.156,0.462,1.572c0.308,0.418,0.733,0.627,1.276,0.627c0.326,0,0.626-0.057,0.899-0.168
				c0.272-0.109,0.5-0.26,0.682-0.447l0.252,0.42c-0.188,0.205-0.435,0.375-0.739,0.51S121.329,138.09,120.904,138.09z
				 M120.85,132.855c-0.454,0-0.828,0.168-1.121,0.508c-0.293,0.338-0.464,0.766-0.514,1.285l0.015,0.031h3.063v-0.127
				c0-0.492-0.124-0.898-0.373-1.219C121.671,133.016,121.314,132.855,120.85,132.855z"/>
		</g>
	</g>
	<g>
		<g>
			<g>
				<polygon fill="#DC9928" points="103.358,176.111 87.395,197.971 96.641,196.232 101.718,202.83 111.389,178.561 				"/>
			</g>
			<g>
				<polygon fill="#DC9928" points="114.403,176.111 130.368,197.971 121.111,196.232 116.037,202.83 106.373,178.561 				"/>
			</g>
			<g>
				<g>
					<path fill="#F4D256" d="M130.799,174.58c0.036-0.041,0.093-0.082,0.137-0.139c0.208-0.178,0.413-0.285,0.413-0.285l-0.15-0.012
						c0.622-0.748,0.991-1.709,0.991-2.766c0-1.381-0.643-2.615-1.644-3.414l0.018,0.006c0,0-0.542-0.514-0.59-1.053
						c-0.009-0.094,0.002-0.197,0.034-0.293c0.166-0.256,0.31-0.525,0.415-0.813c0.091-0.109,0.159-0.188,0.159-0.188l-0.096,0.025
						c0.349-0.988,0.349-2.105-0.089-3.145c-0.444-1.068-1.27-1.857-2.242-2.295l0.089-0.012c0,0-0.907-0.406-1.078-0.932
						c-0.182-0.514,0.103-1.201,0.103-1.201l-0.068,0.055c0.169-1.295-0.246-2.658-1.244-3.656
						c-1.027-1.035-2.454-1.438-3.787-1.219c-0.207-0.012-0.438-0.047-0.626-0.146c-0.254-0.141-0.449-0.463-0.559-0.74
						c-0.355-1.271-1.261-2.367-2.575-2.908c-1.148-0.463-2.381-0.406-3.432,0.063l0.007-0.021c0,0-0.091,0.055-0.228,0.123
						c-0.025,0.023-0.058,0.027-0.089,0.051c-0.297,0.139-0.734,0.301-1.056,0.209c-0.291-0.07-0.554-0.293-0.722-0.477
						c-0.793-1.137-2.105-1.885-3.599-1.885c-1.314,0-2.488,0.58-3.292,1.49l0.004-0.076c0,0-0.405,0.609-0.937,0.75
						c-0.53,0.139-1.376-0.387-1.376-0.387l0.043,0.086c-0.966-0.34-2.06-0.34-3.09,0.074c-1.094,0.451-1.909,1.293-2.35,2.295
						l-0.033-0.078c0,0-0.03,0.17-0.082,0.393c-0.037,0.07-0.063,0.152-0.085,0.225c-0.091,0.264-0.226,0.539-0.433,0.674
						c-0.451,0.316-1.188,0.223-1.188,0.223l0.014,0.012c-1.217-0.078-2.449,0.344-3.384,1.271
						c-0.907,0.914-1.333,2.117-1.278,3.309l-0.036-0.041c0,0,0.188,0.717-0.053,1.205c-0.089,0.189-0.289,0.35-0.504,0.473
						c-1.319,0.318-2.475,1.248-3.03,2.594c-0.542,1.338-0.376,2.779,0.314,3.916l-0.114-0.053c0,0,0.399,0.627,0.319,1.166
						c-0.087,0.541-0.909,1.1-0.909,1.1h0.032c-0.889,0.799-1.447,1.959-1.447,3.246c0,1.402,0.656,2.648,1.687,3.445
						c0.175,0.18,0.39,0.439,0.465,0.732c0.123,0.529-0.42,1.357-0.42,1.357l0.037-0.021c-0.42,1.047-0.447,2.254,0.022,3.365
						c0.617,1.48,1.964,2.438,3.459,2.643c0.123,0.057,0.253,0.139,0.355,0.244c0.107,0.111,0.176,0.268,0.224,0.43
						c-0.041,1.176,0.376,2.373,1.278,3.27c0.877,0.881,2.025,1.303,3.167,1.283l0,0c0,0,0.014,0,0.036,0
						c0.144-0.004,0.285-0.02,0.434-0.035c0.314-0.006,0.706,0.031,0.945,0.213c0.253,0.188,0.403,0.512,0.488,0.75
						c0.022,0.053,0.036,0.107,0.059,0.166c0.019,0.08,0.032,0.137,0.032,0.137l0.007-0.02c0.412,1.105,1.267,2.037,2.449,2.521
						c0.928,0.375,1.916,0.41,2.816,0.162l-0.014,0.012c0,0,0.021-0.01,0.055-0.025c0.188-0.053,0.365-0.121,0.557-0.201
						c0.262-0.068,0.563-0.117,0.795-0.027c0.111,0.039,0.212,0.107,0.31,0.176c0.786,1.184,2.124,1.963,3.65,1.963
						c1.27,0,2.402-0.541,3.206-1.396v0.041c0,0,0.039-0.064,0.096-0.158c0.087-0.098,0.16-0.189,0.235-0.291
						c0.141-0.158,0.33-0.314,0.537-0.385c0.518-0.197,1.404,0.25,1.404,0.25l-0.066-0.092c1.014,0.391,2.16,0.408,3.233-0.027
						c1.137-0.467,1.967-1.342,2.399-2.395l0.019,0.076c0,0,0.232-0.963,0.711-1.236c0.477-0.275,1.196-0.129,1.196-0.129
						l-0.058-0.053c1.179,0.047,2.377-0.371,3.279-1.279c0.863-0.857,1.285-1.99,1.278-3.111l0.032,0.016
						c0,0-0.025-0.064-0.039-0.174c-0.004-0.115-0.009-0.234-0.025-0.348c0-0.227,0.021-0.465,0.135-0.676
						c0.242-0.486,1.201-0.766,1.201-0.766l-0.053-0.014c1.133-0.398,2.105-1.264,2.601-2.471c0.475-1.172,0.4-2.439-0.092-3.506
						c-0.068-0.264-0.104-0.557-0.024-0.783C130.563,174.846,130.676,174.701,130.799,174.58z M119.289,180.65
						c-0.861,0.867-1.285,1.996-1.281,3.131c-1.036-0.443-2.246-0.494-3.377-0.033c-1.173,0.484-2.021,1.41-2.438,2.516
						c-0.775-0.686-1.789-1.105-2.901-1.105c-0.952,0-1.82,0.316-2.552,0.822c-0.438-0.973-1.24-1.793-2.313-2.232
						c-1.162-0.473-2.391-0.408-3.453,0.064c0.019-1.143-0.407-2.287-1.277-3.162c-0.869-0.865-2.023-1.299-3.173-1.275
						c0.155-0.816,0.08-1.693-0.269-2.514c-0.472-1.121-1.355-1.951-2.408-2.363c0.807-0.797,1.308-1.895,1.308-3.119
						c0-1.426-0.692-2.691-1.752-3.49c1.267-0.35,2.374-1.258,2.912-2.578c0.462-1.123,0.421-2.332-0.034-3.371
						c1.096-0.025,2.183-0.447,3.012-1.279c0.864-0.863,1.288-2,1.281-3.131c1.037,0.449,2.254,0.5,3.377,0.035
						c1.144-0.463,1.98-1.363,2.408-2.426c0.777,0.697,1.803,1.127,2.933,1.127c1.311,0,2.475-0.578,3.277-1.48
						c0.369,1.213,1.269,2.256,2.529,2.779c1.135,0.465,2.345,0.414,3.384-0.035c-0.005,1.133,0.414,2.268,1.287,3.131
						c0.786,0.793,1.81,1.213,2.855,1.27c-0.709,1.16-0.868,2.623-0.303,3.971c0.482,1.119,1.364,1.938,2.42,2.361
						c-0.81,0.801-1.311,1.898-1.311,3.117c0,0.953,0.305,1.832,0.822,2.547c-0.766,0.479-1.388,1.176-1.754,2.064
						c-0.461,1.139-0.415,2.348,0.033,3.387C121.365,179.336,120.187,179.76,119.289,180.65z"/>
				</g>
				<g>
					<g>
						<g>
							<path d="M123.933,171.328c-0.333,8.021-7.109,14.256-15.142,13.92c-8.019-0.338-14.258-7.111-13.921-15.143
								c0.335-8.023,7.112-14.258,15.145-13.92C118.04,156.52,124.268,163.297,123.933,171.328z"/>
							<path fill="#DD9A28" d="M109.415,186.289c-0.219,0-0.439-0.008-0.663-0.012c-4.158-0.172-7.996-1.963-10.808-5.02
								c-2.821-3.063-4.279-7.033-4.097-11.193c0.355-8.586,7.537-15.279,16.208-14.908c8.572,0.363,15.267,7.631,14.905,16.211
								C124.609,179.74,117.78,186.289,109.415,186.289L109.415,186.289z M109.391,157.197c-7.26,0-13.191,5.691-13.495,12.953
								c-0.147,3.611,1.117,7.063,3.56,9.717c2.44,2.654,5.774,4.197,9.379,4.352c7.533,0.314,13.754-5.48,14.073-12.938
								c0.31-7.441-5.491-13.754-12.94-14.068C109.773,157.201,109.582,157.197,109.391,157.197L109.391,157.197z"/>
						</g>
					</g>
				</g>
			</g>
		</g>
		<g>
			<path fill="#F6D448" d="M103.575,171.754c0,0.875-0.229,1.563-0.689,2.061c-0.46,0.5-1.069,0.748-1.828,0.748
				c-0.766,0-1.379-0.248-1.84-0.748c-0.462-0.498-0.692-1.186-0.692-2.061v-2.057c0-0.871,0.229-1.559,0.689-2.061
				s1.07-0.754,1.833-0.754c0.759,0,1.369,0.252,1.833,0.754c0.463,0.502,0.694,1.189,0.694,2.061V171.754z M102.083,169.543
				c0-0.479-0.091-0.848-0.274-1.111c-0.183-0.264-0.437-0.395-0.761-0.395c-0.328,0-0.582,0.131-0.762,0.395
				s-0.269,0.633-0.269,1.111v2.354c0,0.49,0.09,0.865,0.271,1.127c0.181,0.26,0.438,0.391,0.769,0.391
				c0.325,0,0.577-0.131,0.757-0.391c0.179-0.262,0.269-0.637,0.269-1.127V169.543z"/>
			<path fill="#F6D448" d="M106.2,174.389l-0.814,1.615h-1l0.358-1.662v-1.168h1.456V174.389z"/>
			<path fill="#F6D448" d="M111.666,171.676h0.841v1.16h-0.841v1.619h-1.497v-1.619h-3.04l-0.072-0.898l3.097-4.947h1.513V171.676z
				 M108.415,171.676h1.754v-2.711l-0.031-0.006l-0.153,0.334L108.415,171.676z"/>
			<path fill="#F6D448" d="M113.281,168.426c0-0.441,0.143-0.809,0.428-1.102c0.285-0.295,0.683-0.441,1.192-0.441
				c0.516,0,0.916,0.146,1.199,0.439c0.284,0.291,0.426,0.66,0.426,1.104v0.395c0,0.441-0.142,0.807-0.426,1.098
				c-0.283,0.291-0.68,0.436-1.189,0.436c-0.513,0-0.912-0.145-1.199-0.436s-0.431-0.656-0.431-1.098V168.426z M114.275,168.82
				c0,0.199,0.055,0.365,0.164,0.5s0.267,0.203,0.472,0.203c0.198,0,0.352-0.068,0.459-0.203s0.162-0.301,0.162-0.5v-0.395
				c0-0.197-0.055-0.365-0.164-0.504c-0.11-0.139-0.266-0.209-0.467-0.209c-0.202,0-0.356,0.07-0.464,0.209
				c-0.108,0.139-0.162,0.307-0.162,0.504V168.82z M115.157,173.896l-0.728-0.385l3.646-5.834l0.728,0.385L115.157,173.896z
				 M116.85,172.625c0-0.438,0.144-0.803,0.431-1.098c0.287-0.293,0.686-0.439,1.194-0.439c0.513,0,0.912,0.145,1.197,0.438
				s0.428,0.658,0.428,1.1v0.395c0,0.445-0.142,0.813-0.425,1.104c-0.284,0.289-0.681,0.436-1.189,0.436
				c-0.513,0-0.914-0.146-1.203-0.439c-0.288-0.291-0.433-0.658-0.433-1.1V172.625z M117.844,173.02c0,0.195,0.06,0.361,0.177,0.5
				c0.118,0.139,0.273,0.207,0.465,0.207c0.222,0,0.381-0.063,0.477-0.191s0.144-0.301,0.144-0.516v-0.395
				c0-0.195-0.055-0.361-0.164-0.5s-0.265-0.207-0.467-0.207c-0.205,0-0.361,0.068-0.469,0.207c-0.108,0.139-0.162,0.305-0.162,0.5
				V173.02z"/>
		</g>
	</g>
</g>
<g>
	<g>
		<g>
			<path fill="#FFFFFF" d="M26.81,123.049l0.01,0.031c0.014,0.73-0.217,1.314-0.691,1.752s-1.097,0.656-1.867,0.656
				c-0.8,0-1.445-0.299-1.937-0.898c-0.49-0.6-0.735-1.377-0.735-2.33v-1.217c0-0.949,0.245-1.727,0.735-2.33
				c0.491-0.602,1.137-0.904,1.937-0.904c0.78,0,1.405,0.213,1.875,0.641c0.469,0.428,0.697,1.016,0.684,1.764l-0.01,0.031h-0.554
				c0-0.602-0.177-1.07-0.53-1.408c-0.354-0.336-0.843-0.504-1.465-0.504c-0.629,0-1.134,0.252-1.514,0.758
				c-0.381,0.506-0.57,1.154-0.57,1.943v1.227c0,0.799,0.189,1.451,0.57,1.955c0.38,0.504,0.885,0.756,1.514,0.756
				c0.622,0,1.11-0.164,1.465-0.492c0.354-0.328,0.53-0.805,0.53-1.43H26.81z"/>
			<path fill="#FFFFFF" d="M32.159,121.768h-3.226v3.096h3.729v0.518h-4.322v-7.465h4.297v0.523h-3.704v2.805h3.226V121.768z"/>
			<path fill="#FFFFFF" d="M33.918,125.381v-7.465h2.099c0.748,0,1.331,0.164,1.749,0.49s0.627,0.818,0.627,1.475
				c0,0.371-0.101,0.697-0.304,0.979c-0.202,0.279-0.475,0.479-0.817,0.594c0.455,0.059,0.826,0.264,1.114,0.615
				c0.288,0.354,0.432,0.766,0.432,1.236c0,0.666-0.208,1.18-0.624,1.539c-0.417,0.357-0.975,0.537-1.673,0.537H33.918z
				 M34.511,121.264h1.729c0.497-0.01,0.882-0.133,1.153-0.371s0.407-0.582,0.407-1.033c0-0.471-0.151-0.826-0.454-1.064
				c-0.303-0.236-0.746-0.355-1.329-0.355h-1.506V121.264z M34.511,121.781v3.082h2.01c0.53,0,0.947-0.135,1.25-0.408
				c0.303-0.271,0.454-0.65,0.454-1.141c0-0.447-0.148-0.811-0.446-1.088c-0.299-0.279-0.697-0.428-1.198-0.445h-0.079H34.511z"/>
			<path fill="#FFFFFF" d="M43.92,123.299h-3.156l-0.727,2.082h-0.612l2.643-7.465h0.559l2.623,7.465h-0.613L43.92,123.299z
				 M40.951,122.752h2.776l-1.363-3.959h-0.03L40.951,122.752z"/>
			<path fill="#FFFFFF" d="M50.415,123.566c0-0.383-0.146-0.699-0.439-0.949c-0.293-0.248-0.79-0.482-1.491-0.701
				c-0.768-0.219-1.352-0.492-1.751-0.818c-0.4-0.326-0.601-0.77-0.601-1.33c0-0.57,0.224-1.041,0.672-1.408s1.02-0.551,1.714-0.551
				c0.731,0,1.319,0.207,1.764,0.623s0.66,0.943,0.646,1.582l-0.01,0.031h-0.553c0-0.492-0.172-0.902-0.517-1.227
				c-0.344-0.324-0.787-0.486-1.331-0.486c-0.56,0-0.998,0.137-1.316,0.412c-0.317,0.275-0.477,0.613-0.477,1.014
				c0,0.379,0.145,0.691,0.433,0.936s0.796,0.473,1.523,0.684c0.758,0.229,1.335,0.512,1.733,0.846
				c0.398,0.336,0.598,0.779,0.598,1.334c0,0.58-0.232,1.049-0.698,1.402s-1.053,0.529-1.761,0.529s-1.326-0.186-1.853-0.561
				c-0.527-0.375-0.782-0.92-0.766-1.639l0.01-0.031h0.548c0,0.578,0.209,1.008,0.628,1.291c0.418,0.281,0.896,0.422,1.433,0.422
				c0.55,0,0.997-0.131,1.343-0.393C50.242,124.318,50.415,123.98,50.415,123.566z"/>
			<path fill="#FFFFFF" d="M19.146,134.367h-3.226v3.098h3.729v0.518h-4.322v-7.465h4.297v0.521h-3.704v2.805h3.226V134.367z"/>
			<path fill="#FFFFFF" d="M20.439,135.254c0-0.885,0.181-1.594,0.541-2.125c0.361-0.531,0.864-0.797,1.51-0.797
				c0.365,0,0.686,0.08,0.96,0.24c0.275,0.162,0.503,0.389,0.685,0.682v-3.27h0.593v7.998h-0.484l-0.084-0.805
				c-0.181,0.293-0.411,0.52-0.691,0.676c-0.28,0.158-0.609,0.236-0.988,0.236c-0.639,0-1.138-0.248-1.499-0.74
				c-0.36-0.494-0.541-1.156-0.541-1.988V135.254z M21.032,135.361c0,0.67,0.13,1.203,0.388,1.6
				c0.259,0.396,0.648,0.596,1.169,0.596c0.382,0,0.699-0.088,0.953-0.264s0.451-0.42,0.593-0.73v-2.631
				c-0.135-0.314-0.326-0.57-0.573-0.77c-0.247-0.197-0.568-0.297-0.963-0.297c-0.521,0-0.911,0.221-1.173,0.664
				c-0.263,0.443-0.394,1.018-0.394,1.725V135.361z"/>
			<path fill="#FFFFFF" d="M29.801,137.08c-0.171,0.324-0.4,0.574-0.688,0.748s-0.63,0.262-1.025,0.262
				c-0.563,0-1.004-0.199-1.323-0.596c-0.32-0.396-0.479-1.012-0.479-1.846v-3.215h0.593v3.227c0,0.676,0.111,1.162,0.333,1.455
				c0.223,0.295,0.538,0.441,0.946,0.441c0.444,0,0.799-0.104,1.064-0.311c0.265-0.207,0.452-0.49,0.561-0.848v-3.965h0.593v5.549
				h-0.523L29.801,137.08z"/>
			<path fill="#FFFFFF" d="M33.891,137.572c0.379,0,0.714-0.117,1.005-0.35c0.292-0.232,0.438-0.555,0.438-0.969h0.528l0.01,0.031
				c0.014,0.512-0.181,0.941-0.582,1.287c-0.402,0.346-0.868,0.518-1.398,0.518c-0.711,0-1.266-0.26-1.662-0.779
				s-0.595-1.186-0.595-1.994V135.1c0-0.807,0.197-1.469,0.593-1.988c0.395-0.52,0.948-0.779,1.659-0.779
				c0.573,0,1.051,0.18,1.433,0.539c0.382,0.357,0.566,0.83,0.553,1.414l-0.01,0.031h-0.528c0-0.445-0.14-0.799-0.42-1.064
				c-0.279-0.264-0.622-0.396-1.027-0.396c-0.56,0-0.977,0.213-1.25,0.641s-0.409,0.961-0.409,1.604v0.217
				c0,0.652,0.136,1.191,0.409,1.617S33.328,137.572,33.891,137.572z"/>
			<path fill="#FFFFFF" d="M40.524,137.982c-0.036-0.195-0.063-0.363-0.082-0.504c-0.018-0.139-0.026-0.283-0.026-0.43
				c-0.185,0.301-0.443,0.549-0.775,0.746c-0.333,0.197-0.715,0.295-1.146,0.295c-0.523,0-0.93-0.145-1.218-0.434
				s-0.432-0.682-0.432-1.176c0-0.496,0.209-0.898,0.627-1.205c0.418-0.309,0.962-0.463,1.63-0.463h1.314v-0.686
				c0-0.396-0.121-0.709-0.363-0.934c-0.242-0.227-0.584-0.338-1.025-0.338c-0.404,0-0.731,0.102-0.98,0.307
				c-0.248,0.205-0.373,0.463-0.373,0.775h-0.548l-0.01-0.031c-0.02-0.418,0.152-0.783,0.516-1.1
				c0.364-0.316,0.839-0.475,1.426-0.475c0.586,0,1.057,0.156,1.412,0.467s0.534,0.756,0.534,1.338v2.727
				c0,0.195,0.01,0.385,0.031,0.57c0.021,0.184,0.058,0.367,0.106,0.549H40.524z M38.559,137.547c0.454,0,0.848-0.113,1.181-0.336
				c0.332-0.225,0.558-0.512,0.677-0.865v-1.061h-1.319c-0.48,0-0.878,0.119-1.19,0.355c-0.313,0.238-0.469,0.525-0.469,0.859
				c0,0.314,0.1,0.568,0.299,0.76S38.209,137.547,38.559,137.547z"/>
			<path fill="#FFFFFF" d="M44.535,137.572c0.379,0,0.714-0.117,1.005-0.35c0.292-0.232,0.438-0.555,0.438-0.969h0.528l0.01,0.031
				c0.014,0.512-0.181,0.941-0.582,1.287c-0.402,0.346-0.868,0.518-1.398,0.518c-0.711,0-1.266-0.26-1.662-0.779
				s-0.595-1.186-0.595-1.994V135.1c0-0.807,0.197-1.469,0.593-1.988c0.395-0.52,0.948-0.779,1.659-0.779
				c0.573,0,1.051,0.18,1.433,0.539c0.382,0.357,0.566,0.83,0.553,1.414l-0.01,0.031h-0.528c0-0.445-0.14-0.799-0.42-1.064
				c-0.279-0.264-0.622-0.396-1.027-0.396c-0.56,0-0.977,0.213-1.25,0.641s-0.409,0.961-0.409,1.604v0.217
				c0,0.652,0.136,1.191,0.409,1.617S43.973,137.572,44.535,137.572z M44.679,138.027l-0.06,0.328c0.26,0.031,0.47,0.115,0.63,0.25
				s0.239,0.344,0.239,0.627c0,0.311-0.13,0.561-0.39,0.746c-0.261,0.188-0.633,0.279-1.116,0.279l-0.035-0.398
				c0.297,0,0.546-0.053,0.749-0.158c0.202-0.104,0.304-0.256,0.304-0.457c0-0.195-0.068-0.332-0.205-0.408
				c-0.137-0.078-0.377-0.129-0.719-0.156l0.143-0.652H44.679z"/>
			<path fill="#FFFFFF" d="M51.169,137.982c-0.036-0.195-0.063-0.363-0.082-0.504c-0.018-0.139-0.026-0.283-0.026-0.43
				c-0.185,0.301-0.443,0.549-0.775,0.746c-0.333,0.197-0.715,0.295-1.146,0.295c-0.523,0-0.93-0.145-1.218-0.434
				s-0.432-0.682-0.432-1.176c0-0.496,0.209-0.898,0.627-1.205c0.418-0.309,0.962-0.463,1.63-0.463h1.314v-0.686
				c0-0.396-0.121-0.709-0.363-0.934c-0.242-0.227-0.584-0.338-1.025-0.338c-0.404,0-0.731,0.102-0.98,0.307
				c-0.248,0.205-0.373,0.463-0.373,0.775h-0.548l-0.01-0.031c-0.02-0.418,0.152-0.783,0.516-1.1
				c0.364-0.316,0.839-0.475,1.426-0.475c0.586,0,1.057,0.156,1.412,0.467s0.534,0.756,0.534,1.338v2.727
				c0,0.195,0.01,0.385,0.031,0.57c0.021,0.184,0.058,0.367,0.106,0.549H51.169z M51.268,130.287c0,0.301-0.091,0.549-0.271,0.748
				c-0.182,0.197-0.407,0.297-0.677,0.297c-0.244,0-0.492-0.094-0.746-0.281c-0.254-0.189-0.469-0.283-0.646-0.283
				c-0.155,0-0.285,0.061-0.391,0.18s-0.158,0.271-0.158,0.457l-0.396-0.092c0-0.295,0.09-0.541,0.268-0.742
				c0.178-0.199,0.403-0.299,0.677-0.299c0.214,0,0.456,0.094,0.726,0.281c0.271,0.188,0.492,0.281,0.667,0.281
				c0.151,0,0.281-0.061,0.391-0.184c0.108-0.123,0.162-0.279,0.162-0.467L51.268,130.287z M49.203,137.547
				c0.454,0,0.848-0.113,1.181-0.336c0.332-0.225,0.558-0.512,0.677-0.865v-1.061h-1.319c-0.48,0-0.878,0.119-1.19,0.355
				c-0.313,0.238-0.469,0.525-0.469,0.859c0,0.314,0.1,0.568,0.299,0.76S48.854,137.547,49.203,137.547z"/>
			<path fill="#FFFFFF" d="M52.893,135.127c0-0.818,0.216-1.488,0.647-2.01c0.432-0.523,1.003-0.785,1.714-0.785
				c0.715,0,1.287,0.262,1.719,0.785c0.432,0.521,0.647,1.191,0.647,2.01v0.168c0,0.82-0.215,1.492-0.645,2.014
				c-0.43,0.52-1.001,0.781-1.712,0.781c-0.718,0-1.292-0.262-1.724-0.781c-0.432-0.521-0.647-1.193-0.647-2.014V135.127z
				 M53.485,135.295c0,0.643,0.156,1.184,0.47,1.621c0.313,0.438,0.749,0.656,1.309,0.656c0.55,0,0.982-0.219,1.297-0.656
				s0.472-0.979,0.472-1.621v-0.168c0-0.633-0.158-1.17-0.475-1.611c-0.315-0.439-0.75-0.66-1.304-0.66
				c-0.553,0-0.986,0.221-1.299,0.66c-0.313,0.441-0.47,0.979-0.47,1.611V135.295z"/>
		</g>
	</g>
	<g>
		<g>
			<g>
				<polygon fill="#274391" points="30.341,176.109 14.492,197.816 23.679,196.094 28.723,202.643 38.327,178.541 				"/>
			</g>
			<g>
				<polygon fill="#274391" points="41.317,176.109 57.172,197.816 47.984,196.094 42.935,202.643 33.34,178.541 				"/>
			</g>
			<g>
				<g>
					<path fill="#91C1E4" d="M57.601,174.586c0.047-0.041,0.092-0.086,0.137-0.131c0.21-0.182,0.409-0.287,0.409-0.287l-0.147-0.014
						c0.62-0.744,0.984-1.707,0.984-2.746c0-1.373-0.637-2.596-1.634-3.391l0.016,0.002c0,0-0.531-0.5-0.58-1.047
						c-0.012-0.092,0-0.186,0.03-0.287c0.169-0.252,0.31-0.521,0.418-0.809c0.091-0.113,0.15-0.186,0.15-0.186l-0.096,0.027
						c0.353-0.982,0.353-2.088-0.079-3.127c-0.451-1.057-1.268-1.842-2.232-2.277l0.086-0.01c0,0-0.895-0.408-1.074-0.928
						c-0.174-0.514,0.112-1.193,0.112-1.193l-0.074,0.055c0.162-1.285-0.245-2.633-1.236-3.625
						c-1.021-1.031-2.434-1.428-3.758-1.217c-0.209-0.01-0.432-0.047-0.622-0.145c-0.255-0.137-0.439-0.457-0.567-0.736
						c-0.344-1.26-1.241-2.354-2.547-2.885c-1.14-0.465-2.366-0.404-3.409,0.064l0.009-0.025c0,0-0.092,0.057-0.223,0.123
						c-0.027,0.018-0.063,0.025-0.094,0.043c-0.287,0.139-0.729,0.301-1.048,0.215c-0.289-0.076-0.545-0.291-0.721-0.475
						c-0.779-1.135-2.087-1.875-3.57-1.875c-1.304,0-2.466,0.572-3.269,1.484l0.005-0.078c0,0-0.402,0.613-0.932,0.748
						c-0.526,0.133-1.363-0.389-1.363-0.389l0.039,0.088c-0.959-0.338-2.045-0.346-3.065,0.076
						c-1.088,0.445-1.899,1.281-2.337,2.277l-0.029-0.08c0,0-0.03,0.178-0.093,0.389c-0.023,0.078-0.051,0.15-0.074,0.23
						c-0.098,0.256-0.231,0.527-0.428,0.668c-0.454,0.309-1.181,0.221-1.181,0.221l0.015,0.01c-1.211-0.08-2.444,0.342-3.364,1.268
						c-0.902,0.895-1.326,2.094-1.267,3.279l-0.041-0.037c0,0,0.191,0.709-0.041,1.195c-0.1,0.186-0.301,0.346-0.504,0.471
						c-1.317,0.316-2.461,1.234-3.016,2.576c-0.534,1.322-0.369,2.758,0.312,3.885l-0.11-0.051c0,0,0.399,0.619,0.313,1.162
						c-0.082,0.535-0.901,1.096-0.901,1.096l0.031-0.002c-0.885,0.797-1.44,1.936-1.44,3.221c0,1.395,0.658,2.627,1.677,3.426
						c0.174,0.17,0.388,0.432,0.456,0.719c0.136,0.531-0.41,1.359-0.41,1.359l0.042-0.021c-0.416,1.031-0.45,2.223,0.013,3.332
						c0.62,1.479,1.955,2.422,3.427,2.623c0.135,0.064,0.271,0.143,0.375,0.252c0.097,0.105,0.165,0.258,0.22,0.424
						c-0.049,1.174,0.369,2.355,1.264,3.246c0.87,0.875,2.011,1.285,3.151,1.273l-0.007,0.004c0,0,0.02-0.004,0.038-0.004
						c0.141,0,0.288-0.023,0.428-0.035c0.311-0.002,0.705,0.027,0.939,0.209c0.252,0.186,0.4,0.506,0.485,0.744
						c0.018,0.057,0.038,0.109,0.059,0.166c0.023,0.088,0.038,0.137,0.038,0.137l0.007-0.025c0.404,1.102,1.257,2.029,2.428,2.51
						c0.92,0.381,1.897,0.408,2.792,0.16l-0.005,0.014c0,0,0.021-0.014,0.048-0.021c0.187-0.057,0.377-0.125,0.556-0.201
						c0.258-0.068,0.559-0.113,0.784-0.033c0.116,0.043,0.221,0.109,0.313,0.188c0.779,1.176,2.109,1.945,3.625,1.945
						c1.263,0,2.394-0.537,3.181-1.395l0.007,0.047c0,0,0.037-0.063,0.099-0.154c0.078-0.098,0.159-0.195,0.232-0.297
						c0.141-0.156,0.321-0.305,0.527-0.383c0.509-0.191,1.396,0.244,1.396,0.244l-0.056-0.09c0.997,0.385,2.138,0.41,3.202-0.023
						c1.124-0.455,1.954-1.334,2.379-2.379l0.021,0.078c0,0,0.229-0.967,0.703-1.23c0.479-0.271,1.189-0.129,1.189-0.129
						l-0.056-0.045c1.172,0.041,2.362-0.373,3.255-1.273c0.859-0.855,1.283-1.98,1.276-3.1l0.025,0.025c0,0-0.019-0.064-0.03-0.172
						c-0.009-0.119-0.019-0.236-0.031-0.355c0-0.215,0.031-0.457,0.132-0.664c0.255-0.488,1.198-0.762,1.198-0.762l-0.049-0.012
						c1.125-0.396,2.084-1.256,2.572-2.447c0.479-1.174,0.401-2.432-0.09-3.49c-0.068-0.262-0.109-0.553-0.018-0.775
						C57.371,174.852,57.479,174.703,57.601,174.586z M46.168,180.617c-0.854,0.863-1.271,1.984-1.266,3.105
						c-1.035-0.441-2.236-0.49-3.357-0.031c-1.167,0.48-2.012,1.406-2.424,2.502c-0.769-0.68-1.771-1.096-2.881-1.096
						c-0.942,0-1.81,0.307-2.521,0.814c-0.448-0.969-1.245-1.785-2.313-2.221c-1.142-0.463-2.378-0.406-3.421,0.068
						c0.012-1.133-0.41-2.277-1.274-3.143c-0.865-0.865-2.015-1.293-3.151-1.271c0.158-0.809,0.083-1.67-0.268-2.496
						c-0.463-1.113-1.348-1.93-2.395-2.35c0.804-0.789,1.303-1.879,1.303-3.092c0-1.424-0.69-2.68-1.736-3.475
						c1.262-0.342,2.354-1.244,2.887-2.549c0.463-1.119,0.41-2.322-0.036-3.357c1.091-0.02,2.169-0.443,3.001-1.268
						c0.848-0.863,1.271-1.984,1.266-3.107c1.029,0.449,2.231,0.492,3.355,0.035c1.14-0.463,1.969-1.359,2.398-2.41
						c0.767,0.695,1.781,1.119,2.904,1.119c1.299,0,2.459-0.57,3.255-1.469c0.375,1.205,1.263,2.242,2.52,2.76
						c1.123,0.457,2.324,0.414,3.354-0.035c-0.002,1.123,0.417,2.244,1.27,3.107c0.792,0.787,1.81,1.203,2.846,1.256
						c-0.697,1.156-0.858,2.617-0.295,3.947c0.466,1.117,1.35,1.938,2.39,2.354c-0.796,0.791-1.292,1.877-1.292,3.092
						c0,0.943,0.308,1.818,0.815,2.527c-0.761,0.473-1.382,1.166-1.742,2.055c-0.459,1.121-0.406,2.332,0.032,3.359
						C48.231,179.311,47.063,179.732,46.168,180.617z"/>
				</g>
				<g>
					<g>
						<g>
							<path d="M50.782,171.354c-0.33,7.967-7.063,14.16-15.034,13.828c-7.969-0.328-14.162-7.064-13.825-15.033
								c0.331-7.971,7.069-14.168,15.034-13.836C44.928,156.654,51.115,163.385,50.782,171.354z"/>
							<path fill="#274391" d="M36.363,186.213c-0.216,0-0.438-0.006-0.661-0.012c-4.12-0.168-7.937-1.945-10.732-4.984
								c-2.803-3.033-4.243-6.984-4.074-11.115c0.362-8.527,7.49-15.17,16.104-14.811c8.521,0.363,15.161,7.588,14.801,16.105
								C51.455,179.705,44.678,186.213,36.363,186.213L36.363,186.213z M36.34,157.322c-7.214,0-13.095,5.66-13.398,12.865
								c-0.154,3.58,1.105,7.006,3.527,9.648c2.425,2.641,5.736,4.176,9.322,4.326c7.478,0.311,13.665-5.447,13.969-12.85
								c0.312-7.4-5.454-13.664-12.85-13.975C36.719,157.328,36.534,157.322,36.34,157.322L36.34,157.322z"/>
						</g>
					</g>
				</g>
			</g>
		</g>
		<g>
			<path fill="#D3EAF7" d="M30.521,171.754c0,0.875-0.229,1.563-0.689,2.061c-0.46,0.5-1.069,0.748-1.828,0.748
				c-0.766,0-1.379-0.248-1.84-0.748c-0.462-0.498-0.692-1.186-0.692-2.061v-2.057c0-0.871,0.229-1.559,0.689-2.061
				s1.07-0.754,1.833-0.754c0.759,0,1.369,0.252,1.833,0.754c0.463,0.502,0.694,1.189,0.694,2.061V171.754z M29.029,169.543
				c0-0.479-0.091-0.848-0.274-1.111c-0.183-0.264-0.437-0.395-0.761-0.395c-0.328,0-0.582,0.131-0.762,0.395
				s-0.269,0.633-0.269,1.111v2.354c0,0.49,0.09,0.865,0.271,1.127c0.181,0.26,0.438,0.391,0.769,0.391
				c0.325,0,0.577-0.131,0.757-0.391c0.179-0.262,0.269-0.637,0.269-1.127V169.543z"/>
			<path fill="#D3EAF7" d="M33.146,174.389l-0.814,1.615h-1l0.358-1.662v-1.168h1.456V174.389z"/>
			<path fill="#D3EAF7" d="M38.612,171.676h0.841v1.16h-0.841v1.619h-1.497v-1.619h-3.04l-0.072-0.898l3.097-4.947h1.513V171.676z
				 M35.361,171.676h1.754v-2.711l-0.031-0.006l-0.153,0.334L35.361,171.676z"/>
			<path fill="#D3EAF7" d="M40.228,168.426c0-0.441,0.143-0.809,0.428-1.102c0.285-0.295,0.683-0.441,1.192-0.441
				c0.516,0,0.916,0.146,1.199,0.439c0.284,0.291,0.426,0.66,0.426,1.104v0.395c0,0.441-0.142,0.807-0.426,1.098
				c-0.283,0.291-0.68,0.436-1.189,0.436c-0.513,0-0.912-0.145-1.199-0.436s-0.431-0.656-0.431-1.098V168.426z M41.222,168.82
				c0,0.199,0.055,0.365,0.164,0.5s0.267,0.203,0.472,0.203c0.198,0,0.352-0.068,0.459-0.203s0.162-0.301,0.162-0.5v-0.395
				c0-0.197-0.055-0.365-0.164-0.504c-0.11-0.139-0.266-0.209-0.467-0.209c-0.202,0-0.356,0.07-0.464,0.209
				c-0.108,0.139-0.162,0.307-0.162,0.504V168.82z M42.104,173.896l-0.728-0.385l3.646-5.834l0.728,0.385L42.104,173.896z
				 M43.796,172.625c0-0.438,0.144-0.803,0.431-1.098c0.287-0.293,0.686-0.439,1.194-0.439c0.513,0,0.912,0.145,1.197,0.438
				s0.428,0.658,0.428,1.1v0.395c0,0.445-0.142,0.813-0.425,1.104c-0.284,0.289-0.681,0.436-1.189,0.436
				c-0.513,0-0.914-0.146-1.203-0.439c-0.288-0.291-0.433-0.658-0.433-1.1V172.625z M44.79,173.02c0,0.195,0.06,0.361,0.177,0.5
				c0.118,0.139,0.273,0.207,0.465,0.207c0.222,0,0.381-0.063,0.477-0.191s0.144-0.301,0.144-0.516v-0.395
				c0-0.195-0.055-0.361-0.164-0.5s-0.265-0.207-0.467-0.207c-0.205,0-0.361,0.068-0.469,0.207c-0.108,0.139-0.162,0.305-0.162,0.5
				V173.02z"/>
		</g>
	</g>
</g>
</svg>
