<?xml version="1.0" encoding="utf-8"?>
<!-- Generator: Adobe Illustrator 14.0.0, SVG Export Plug-In . SVG Version: 6.00 Build 43363)  -->
<!DOCTYPE svg PUBLIC "-//W3C//DTD SVG 1.0//EN" "http://www.w3.org/TR/2001/REC-SVG-20010904/DTD/svg10.dtd">
<svg version="1.0" id="Camada_1" xmlns="http://www.w3.org/2000/svg" xmlns:xlink="http://www.w3.org/1999/xlink" x="0px" y="0px"
	 width="268.522px" height="126.661px" viewBox="0 0 268.522 126.661" enable-background="new 0 0 268.522 126.661"
	 xml:space="preserve">
<path opacity="0.7" fill="#F3D354" d="M38.171,24.454c11.045,0,19.998,7.273,19.998,16.244c0,8.976-8.953,16.247-19.998,16.247
	c-1.057,0,1.016,0.127,0,0c-4.294,4.295-12.537,4.867-17.493,4.981v-1.051c2.677-1.31,4.998-3.7,4.998-6.43
	c0-0.379-0.03-0.755-0.085-1.122c-4.521-2.976-7.413-7.526-7.413-12.626C18.178,31.727,27.13,24.454,38.171,24.454"/>
<g>
	<g>
		<path fill="#FFFFFF" d="M7.118,81.889v3.102H6.525v-7.465h2.479c0.754,0,1.338,0.2,1.751,0.6c0.413,0.4,0.62,0.927,0.62,1.579
			c0,0.663-0.207,1.193-0.62,1.59s-0.997,0.595-1.751,0.595H7.118z M7.118,81.366h1.887c0.593,0,1.037-0.156,1.334-0.469
			c0.296-0.313,0.444-0.707,0.444-1.182c0-0.479-0.148-0.876-0.444-1.192c-0.297-0.316-0.741-0.475-1.334-0.475H7.118V81.366z"/>
		<path fill="#FFFFFF" d="M15.955,84.991c-0.036-0.195-0.063-0.362-0.082-0.503c-0.018-0.14-0.026-0.283-0.026-0.431
			c-0.185,0.302-0.443,0.55-0.775,0.746c-0.333,0.197-0.715,0.295-1.146,0.295c-0.523,0-0.93-0.145-1.218-0.433
			c-0.288-0.289-0.432-0.682-0.432-1.177c0-0.496,0.209-0.897,0.627-1.205s0.962-0.462,1.63-0.462h1.314v-0.687
			c0-0.396-0.121-0.708-0.363-0.934s-0.584-0.338-1.025-0.338c-0.404,0-0.731,0.103-0.98,0.308
			c-0.248,0.205-0.373,0.463-0.373,0.774h-0.548l-0.01-0.031c-0.02-0.417,0.152-0.783,0.516-1.1
			c0.364-0.316,0.839-0.475,1.426-0.475c0.586,0,1.057,0.156,1.412,0.467c0.355,0.312,0.534,0.757,0.534,1.338v2.728
			c0,0.195,0.01,0.385,0.031,0.569s0.058,0.368,0.106,0.549H15.955z M13.989,84.555c0.454,0,0.848-0.112,1.181-0.336
			c0.332-0.224,0.558-0.512,0.677-0.864v-1.062h-1.319c-0.48,0-0.878,0.119-1.19,0.356c-0.313,0.238-0.469,0.524-0.469,0.859
			c0,0.314,0.1,0.567,0.299,0.759S13.64,84.555,13.989,84.555z"/>
		<path fill="#FFFFFF" d="M20.45,79.971l-0.42-0.03c-0.372,0-0.678,0.108-0.916,0.325c-0.239,0.217-0.409,0.516-0.512,0.895v3.83
			H18.01v-5.548h0.519l0.074,0.923v0.062c0.155-0.342,0.362-0.608,0.622-0.8c0.261-0.191,0.57-0.287,0.929-0.287
			c0.072,0,0.142,0.007,0.208,0.019c0.065,0.012,0.12,0.024,0.163,0.038L20.45,79.971z"/>
		<path fill="#FFFFFF" d="M22.47,78.023v1.42h1.176v0.503H22.47v3.614c0,0.362,0.063,0.62,0.19,0.771
			c0.127,0.152,0.295,0.229,0.506,0.229c0.072,0,0.143-0.004,0.21-0.013s0.147-0.023,0.239-0.044l0.09,0.456
			c-0.079,0.042-0.178,0.075-0.294,0.101c-0.117,0.025-0.233,0.038-0.349,0.038c-0.375,0-0.668-0.123-0.877-0.369
			s-0.313-0.636-0.313-1.169v-3.614h-0.924v-0.503h0.924v-1.42H22.47z"/>
		<path fill="#FFFFFF" d="M25.463,77.854h-0.588v-0.861h0.588V77.854z M25.463,84.991h-0.588v-5.548h0.588V84.991z"/>
		<path fill="#FFFFFF" d="M29.054,84.581c0.379,0,0.714-0.116,1.005-0.349c0.292-0.232,0.438-0.556,0.438-0.969h0.528l0.01,0.03
			c0.014,0.513-0.181,0.942-0.582,1.287c-0.402,0.346-0.868,0.518-1.398,0.518c-0.711,0-1.266-0.26-1.662-0.779
			s-0.595-1.185-0.595-1.994v-0.216c0-0.807,0.197-1.47,0.593-1.989c0.395-0.52,0.948-0.779,1.659-0.779
			c0.573,0,1.051,0.18,1.433,0.539c0.382,0.358,0.566,0.83,0.553,1.415l-0.01,0.03h-0.528c0-0.444-0.14-0.799-0.42-1.063
			c-0.279-0.265-0.622-0.397-1.027-0.397c-0.56,0-0.977,0.214-1.25,0.641c-0.273,0.428-0.409,0.962-0.409,1.604v0.216
			c0,0.653,0.136,1.192,0.409,1.617C28.072,84.368,28.491,84.581,29.054,84.581z"/>
		<path fill="#FFFFFF" d="M32.966,77.854h-0.588v-0.861h0.588V77.854z M32.966,84.991h-0.588v-5.548h0.588V84.991z"/>
		<path fill="#FFFFFF" d="M38.903,82.371c0,0.831-0.182,1.493-0.544,1.987c-0.362,0.493-0.861,0.74-1.496,0.74
			c-0.372,0-0.699-0.073-0.98-0.221c-0.282-0.146-0.512-0.354-0.689-0.625v2.871h-0.593v-7.681h0.455l0.108,0.867
			c0.178-0.308,0.408-0.546,0.691-0.716c0.283-0.169,0.615-0.254,0.998-0.254c0.642,0,1.144,0.267,1.506,0.798
			s0.544,1.24,0.544,2.125V82.371z M38.311,82.263c0-0.704-0.136-1.278-0.405-1.723c-0.271-0.444-0.665-0.667-1.186-0.667
			c-0.392,0-0.712,0.098-0.961,0.293c-0.248,0.194-0.437,0.447-0.565,0.759v2.687c0.139,0.301,0.334,0.537,0.588,0.71
			s0.569,0.259,0.948,0.259c0.518,0,0.91-0.201,1.179-0.605c0.268-0.402,0.402-0.938,0.402-1.604V82.263z"/>
		<path fill="#FFFFFF" d="M43.616,84.991c-0.036-0.195-0.063-0.362-0.082-0.503c-0.018-0.14-0.026-0.283-0.026-0.431
			c-0.185,0.302-0.443,0.55-0.775,0.746c-0.333,0.197-0.715,0.295-1.146,0.295c-0.523,0-0.93-0.145-1.218-0.433
			c-0.288-0.289-0.432-0.682-0.432-1.177c0-0.496,0.209-0.897,0.627-1.205s0.962-0.462,1.63-0.462h1.314v-0.687
			c0-0.396-0.121-0.708-0.363-0.934s-0.584-0.338-1.025-0.338c-0.404,0-0.731,0.103-0.98,0.308
			c-0.248,0.205-0.373,0.463-0.373,0.774h-0.548l-0.01-0.031c-0.02-0.417,0.152-0.783,0.516-1.1
			c0.364-0.316,0.839-0.475,1.426-0.475c0.586,0,1.057,0.156,1.412,0.467c0.355,0.312,0.534,0.757,0.534,1.338v2.728
			c0,0.195,0.01,0.385,0.031,0.569s0.058,0.368,0.106,0.549H43.616z M41.65,84.555c0.454,0,0.848-0.112,1.181-0.336
			c0.332-0.224,0.558-0.512,0.677-0.864v-1.062h-1.319c-0.48,0-0.878,0.119-1.19,0.356c-0.313,0.238-0.469,0.524-0.469,0.859
			c0,0.314,0.1,0.567,0.299,0.759S41.301,84.555,41.65,84.555z"/>
		<path fill="#FFFFFF" d="M47.626,84.581c0.379,0,0.714-0.116,1.005-0.349c0.292-0.232,0.438-0.556,0.438-0.969h0.528l0.01,0.03
			c0.014,0.513-0.181,0.942-0.582,1.287c-0.402,0.346-0.868,0.518-1.398,0.518c-0.711,0-1.266-0.26-1.662-0.779
			s-0.595-1.185-0.595-1.994v-0.216c0-0.807,0.197-1.47,0.593-1.989c0.395-0.52,0.948-0.779,1.659-0.779
			c0.573,0,1.051,0.18,1.433,0.539c0.382,0.358,0.566,0.83,0.553,1.415l-0.01,0.03h-0.528c0-0.444-0.14-0.799-0.42-1.063
			c-0.279-0.265-0.622-0.397-1.027-0.397c-0.56,0-0.977,0.214-1.25,0.641c-0.273,0.428-0.409,0.962-0.409,1.604v0.216
			c0,0.653,0.136,1.192,0.409,1.617C46.645,84.368,47.063,84.581,47.626,84.581z M47.77,85.037l-0.06,0.328
			c0.26,0.031,0.47,0.114,0.63,0.249s0.239,0.344,0.239,0.628c0,0.311-0.13,0.56-0.39,0.746c-0.261,0.187-0.633,0.279-1.116,0.279
			l-0.035-0.399c0.297,0,0.546-0.053,0.749-0.157c0.202-0.104,0.304-0.257,0.304-0.458c0-0.195-0.068-0.331-0.205-0.408
			s-0.377-0.129-0.719-0.156l0.143-0.651H47.77z"/>
		<path fill="#FFFFFF" d="M54.261,84.991c-0.036-0.195-0.063-0.362-0.082-0.503c-0.018-0.14-0.026-0.283-0.026-0.431
			c-0.185,0.302-0.443,0.55-0.775,0.746c-0.333,0.197-0.715,0.295-1.146,0.295c-0.523,0-0.93-0.145-1.218-0.433
			c-0.288-0.289-0.432-0.682-0.432-1.177c0-0.496,0.209-0.897,0.627-1.205s0.962-0.462,1.63-0.462h1.314v-0.687
			c0-0.396-0.121-0.708-0.363-0.934s-0.584-0.338-1.025-0.338c-0.404,0-0.731,0.103-0.98,0.308
			c-0.248,0.205-0.373,0.463-0.373,0.774h-0.548l-0.01-0.031c-0.02-0.417,0.152-0.783,0.516-1.1
			c0.364-0.316,0.839-0.475,1.426-0.475c0.586,0,1.057,0.156,1.412,0.467c0.355,0.312,0.534,0.757,0.534,1.338v2.728
			c0,0.195,0.01,0.385,0.031,0.569s0.058,0.368,0.106,0.549H54.261z M54.359,77.295c0,0.301-0.091,0.55-0.271,0.748
			c-0.182,0.198-0.407,0.298-0.677,0.298c-0.244,0-0.492-0.095-0.746-0.282c-0.254-0.188-0.469-0.282-0.646-0.282
			c-0.155,0-0.285,0.06-0.391,0.18c-0.105,0.119-0.158,0.271-0.158,0.456l-0.396-0.092c0-0.294,0.09-0.541,0.268-0.741
			s0.403-0.3,0.677-0.3c0.214,0,0.456,0.094,0.726,0.282c0.271,0.188,0.492,0.281,0.667,0.281c0.151,0,0.281-0.062,0.391-0.185
			c0.108-0.123,0.162-0.278,0.162-0.466L54.359,77.295z M52.295,84.555c0.454,0,0.848-0.112,1.181-0.336
			c0.332-0.224,0.558-0.512,0.677-0.864v-1.062h-1.319c-0.48,0-0.878,0.119-1.19,0.356c-0.313,0.238-0.469,0.524-0.469,0.859
			c0,0.314,0.1,0.567,0.299,0.759S51.945,84.555,52.295,84.555z"/>
		<path fill="#FFFFFF" d="M55.983,82.135c0-0.817,0.216-1.487,0.647-2.01c0.432-0.523,1.003-0.785,1.714-0.785
			c0.715,0,1.287,0.262,1.719,0.785c0.432,0.522,0.647,1.192,0.647,2.01v0.169c0,0.82-0.215,1.491-0.645,2.013
			c-0.43,0.521-1.001,0.781-1.712,0.781c-0.718,0-1.292-0.261-1.724-0.781c-0.432-0.521-0.647-1.192-0.647-2.013V82.135z
			 M56.576,82.304c0,0.643,0.156,1.183,0.47,1.62c0.313,0.438,0.749,0.656,1.309,0.656c0.55,0,0.982-0.219,1.297-0.656
			s0.472-0.978,0.472-1.62v-0.169c0-0.633-0.158-1.169-0.475-1.61c-0.315-0.44-0.75-0.661-1.304-0.661
			c-0.553,0-0.986,0.221-1.299,0.661c-0.313,0.441-0.47,0.978-0.47,1.61V82.304z"/>
		<path fill="#FFFFFF" d="M8.417,97.699c-0.691,0-1.253-0.254-1.685-0.761c-0.432-0.508-0.646-1.16-0.646-1.956V94.7
			c0-0.8,0.218-1.46,0.654-1.979s0.977-0.779,1.622-0.779c0.649,0,1.15,0.217,1.505,0.649c0.354,0.432,0.53,1.014,0.53,1.745v0.477
			H6.679v0.17c0,0.632,0.153,1.157,0.462,1.573c0.308,0.418,0.733,0.626,1.276,0.626c0.326,0,0.626-0.056,0.899-0.167
			c0.272-0.11,0.5-0.26,0.682-0.448l0.252,0.42c-0.188,0.205-0.435,0.376-0.739,0.511S8.842,97.699,8.417,97.699z M8.362,92.464
			c-0.454,0-0.828,0.169-1.121,0.508c-0.293,0.338-0.464,0.767-0.514,1.286l0.015,0.031h3.063v-0.128
			c0-0.492-0.124-0.898-0.373-1.218C9.184,92.625,8.827,92.464,8.362,92.464z"/>
		<path fill="#FFFFFF" d="M12.097,92.043l0.055,0.913c0.171-0.321,0.399-0.571,0.684-0.749c0.285-0.178,0.623-0.267,1.016-0.267
			c0.408,0,0.749,0.103,1.022,0.306s0.469,0.514,0.588,0.931c0.161-0.387,0.391-0.689,0.688-0.908s0.658-0.328,1.079-0.328
			c0.57,0,1.011,0.197,1.321,0.59c0.312,0.394,0.467,1.002,0.467,1.825v3.235h-0.593v-3.245c0-0.684-0.116-1.167-0.351-1.448
			c-0.233-0.282-0.557-0.424-0.968-0.424c-0.451,0-0.8,0.144-1.047,0.429s-0.403,0.653-0.47,1.104c0,0.038,0.001,0.075,0.003,0.113
			c0.001,0.037,0.002,0.085,0.002,0.144v3.327h-0.598v-3.245c0-0.67-0.117-1.149-0.353-1.438c-0.236-0.289-0.56-0.434-0.971-0.434
			c-0.415,0-0.745,0.109-0.991,0.326c-0.245,0.217-0.417,0.51-0.516,0.879v3.912h-0.593v-5.548H12.097z"/>
		<path fill="#FFFFFF" d="M28.11,95.258l0.01,0.031c0.014,0.731-0.217,1.315-0.691,1.753s-1.097,0.656-1.867,0.656
			c-0.8,0-1.445-0.3-1.937-0.899c-0.49-0.6-0.735-1.377-0.735-2.33v-1.216c0-0.95,0.245-1.727,0.735-2.33
			c0.491-0.603,1.137-0.904,1.937-0.904c0.78,0,1.405,0.213,1.875,0.641c0.469,0.427,0.697,1.015,0.684,1.764l-0.01,0.03h-0.554
			c0-0.602-0.177-1.07-0.53-1.407c-0.354-0.336-0.843-0.505-1.465-0.505c-0.629,0-1.134,0.253-1.514,0.759
			c-0.381,0.506-0.57,1.153-0.57,1.943v1.226c0,0.8,0.189,1.451,0.57,1.956c0.38,0.504,0.885,0.756,1.514,0.756
			c0.622,0,1.11-0.164,1.465-0.492c0.354-0.328,0.53-0.805,0.53-1.431H28.11z"/>
		<path fill="#FFFFFF" d="M29.173,94.736c0-0.817,0.216-1.487,0.647-2.01c0.432-0.523,1.003-0.785,1.714-0.785
			c0.715,0,1.287,0.262,1.719,0.785c0.432,0.522,0.647,1.192,0.647,2.01v0.169c0,0.82-0.215,1.491-0.645,2.013
			c-0.43,0.521-1.001,0.781-1.712,0.781c-0.718,0-1.292-0.261-1.724-0.781c-0.432-0.521-0.647-1.192-0.647-2.013V94.736z
			 M29.766,94.905c0,0.643,0.156,1.183,0.47,1.62c0.313,0.438,0.749,0.656,1.309,0.656c0.55,0,0.982-0.219,1.297-0.656
			s0.472-0.978,0.472-1.62v-0.169c0-0.633-0.158-1.169-0.475-1.61c-0.315-0.44-0.75-0.661-1.304-0.661
			c-0.553,0-0.986,0.221-1.299,0.661c-0.313,0.441-0.47,0.978-0.47,1.61V94.905z"/>
		<path fill="#FFFFFF" d="M35.658,92.043l0.055,0.964c0.175-0.338,0.406-0.601,0.696-0.786c0.29-0.187,0.634-0.28,1.032-0.28
			c0.58,0,1.021,0.185,1.324,0.552s0.454,0.94,0.454,1.72v3.379h-0.593v-3.374c0-0.636-0.114-1.085-0.343-1.348
			c-0.229-0.264-0.555-0.396-0.976-0.396c-0.422,0-0.762,0.108-1.021,0.323c-0.259,0.216-0.445,0.504-0.561,0.866v3.928h-0.593
			v-5.548H35.658z"/>
		<path fill="#FFFFFF" d="M43.967,96.171c0-0.26-0.104-0.486-0.309-0.68c-0.206-0.193-0.577-0.352-1.114-0.475
			c-0.632-0.136-1.103-0.323-1.41-0.561c-0.308-0.238-0.462-0.57-0.462-0.998c0-0.424,0.172-0.782,0.517-1.076
			c0.344-0.294,0.799-0.441,1.365-0.441c0.596,0,1.072,0.157,1.428,0.47s0.525,0.698,0.509,1.156l-0.01,0.03h-0.549
			c0-0.304-0.126-0.569-0.378-0.795s-0.585-0.338-1-0.338c-0.428,0-0.751,0.098-0.968,0.292c-0.218,0.195-0.326,0.422-0.326,0.682
			c0,0.253,0.093,0.463,0.279,0.629c0.186,0.165,0.557,0.312,1.113,0.438c0.626,0.144,1.1,0.344,1.421,0.601
			c0.32,0.256,0.481,0.602,0.481,1.035c0,0.462-0.181,0.837-0.541,1.126c-0.36,0.288-0.838,0.433-1.43,0.433
			c-0.649,0-1.159-0.16-1.529-0.481s-0.546-0.704-0.526-1.148l0.01-0.031h0.544c0.022,0.4,0.181,0.69,0.472,0.872
			c0.291,0.181,0.635,0.271,1.03,0.271c0.428,0,0.766-0.099,1.012-0.298C43.843,96.686,43.967,96.448,43.967,96.171z"/>
		<path fill="#FFFFFF" d="M47.947,97.699c-0.691,0-1.253-0.254-1.685-0.761c-0.432-0.508-0.646-1.16-0.646-1.956V94.7
			c0-0.8,0.218-1.46,0.654-1.979s0.977-0.779,1.622-0.779c0.649,0,1.15,0.217,1.505,0.649c0.354,0.432,0.53,1.014,0.53,1.745v0.477
			h-3.719v0.17c0,0.632,0.153,1.157,0.462,1.573c0.308,0.418,0.733,0.626,1.276,0.626c0.326,0,0.626-0.056,0.899-0.167
			c0.272-0.11,0.5-0.26,0.682-0.448l0.252,0.42c-0.188,0.205-0.435,0.376-0.739,0.511S48.372,97.699,47.947,97.699z M47.893,92.464
			c-0.454,0-0.828,0.169-1.121,0.508c-0.293,0.338-0.464,0.767-0.514,1.286l0.015,0.031h3.063v-0.128
			c0-0.492-0.124-0.898-0.373-1.218C48.714,92.625,48.357,92.464,47.893,92.464z"/>
		<path fill="#FFFFFF" d="M51.785,97.591h-0.588v-7.998h0.588V97.591z"/>
		<path fill="#FFFFFF" d="M54.013,92.987c0.182-0.331,0.419-0.588,0.714-0.771c0.295-0.183,0.64-0.274,1.035-0.274
			c0.563,0,0.995,0.182,1.296,0.544c0.302,0.362,0.452,0.925,0.452,1.687v3.42h-0.593v-3.43c0-0.602-0.114-1.033-0.343-1.295
			c-0.229-0.262-0.545-0.393-0.946-0.393c-0.415,0-0.757,0.105-1.024,0.315c-0.269,0.211-0.466,0.491-0.591,0.844v3.958H53.42
			v-7.998h0.593V92.987z"/>
		<path fill="#FFFFFF" d="M58.721,94.736c0-0.817,0.216-1.487,0.647-2.01c0.432-0.523,1.003-0.785,1.714-0.785
			c0.715,0,1.287,0.262,1.719,0.785c0.432,0.522,0.647,1.192,0.647,2.01v0.169c0,0.82-0.215,1.491-0.645,2.013
			c-0.43,0.521-1.001,0.781-1.712,0.781c-0.718,0-1.292-0.261-1.724-0.781c-0.432-0.521-0.647-1.192-0.647-2.013V94.736z
			 M59.313,94.905c0,0.643,0.156,1.183,0.47,1.62c0.313,0.438,0.749,0.656,1.309,0.656c0.55,0,0.982-0.219,1.297-0.656
			s0.472-0.978,0.472-1.62v-0.169c0-0.633-0.158-1.169-0.475-1.61c-0.315-0.44-0.75-0.661-1.304-0.661
			c-0.553,0-0.986,0.221-1.299,0.661c-0.313,0.441-0.47,0.978-0.47,1.61V94.905z"/>
		<path fill="#FFFFFF" d="M67.884,96.171c0-0.26-0.104-0.486-0.309-0.68c-0.206-0.193-0.577-0.352-1.114-0.475
			c-0.632-0.136-1.103-0.323-1.41-0.561c-0.308-0.238-0.462-0.57-0.462-0.998c0-0.424,0.172-0.782,0.517-1.076
			c0.344-0.294,0.799-0.441,1.365-0.441c0.596,0,1.072,0.157,1.428,0.47s0.525,0.698,0.509,1.156l-0.01,0.03h-0.549
			c0-0.304-0.126-0.569-0.378-0.795s-0.585-0.338-1-0.338c-0.428,0-0.751,0.098-0.968,0.292c-0.218,0.195-0.326,0.422-0.326,0.682
			c0,0.253,0.093,0.463,0.279,0.629c0.186,0.165,0.557,0.312,1.113,0.438c0.626,0.144,1.1,0.344,1.421,0.601
			c0.32,0.256,0.481,0.602,0.481,1.035c0,0.462-0.181,0.837-0.541,1.126c-0.36,0.288-0.838,0.433-1.43,0.433
			c-0.649,0-1.159-0.16-1.529-0.481s-0.546-0.704-0.526-1.148l0.01-0.031h0.544c0.022,0.4,0.18,0.69,0.472,0.872
			c0.291,0.181,0.635,0.271,1.03,0.271c0.428,0,0.766-0.099,1.012-0.298C67.76,96.686,67.884,96.448,67.884,96.171z"/>
		<path fill="#FFFFFF" d="M70.393,97.499l-0.523,1.416h-0.405l0.341-1.431v-0.856h0.588V97.499z"/>
		<path fill="#FFFFFF" d="M11.479,107.858l0.01,0.031c0.014,0.731-0.217,1.315-0.691,1.753s-1.097,0.656-1.867,0.656
			c-0.8,0-1.445-0.3-1.937-0.899c-0.49-0.6-0.735-1.377-0.735-2.33v-1.216c0-0.95,0.245-1.727,0.735-2.33
			c0.491-0.603,1.137-0.904,1.937-0.904c0.78,0,1.405,0.213,1.875,0.641c0.469,0.427,0.697,1.015,0.684,1.764l-0.01,0.03h-0.554
			c0-0.602-0.177-1.07-0.53-1.407c-0.354-0.336-0.843-0.505-1.465-0.505c-0.629,0-1.134,0.253-1.514,0.759
			c-0.381,0.506-0.57,1.153-0.57,1.943v1.226c0,0.8,0.189,1.451,0.57,1.956c0.38,0.504,0.885,0.756,1.514,0.756
			c0.622,0,1.11-0.164,1.465-0.492c0.354-0.328,0.53-0.805,0.53-1.431H11.479z"/>
		<path fill="#FFFFFF" d="M12.541,107.335c0-0.817,0.216-1.487,0.647-2.01c0.432-0.523,1.003-0.785,1.714-0.785
			c0.715,0,1.287,0.262,1.719,0.785c0.432,0.522,0.647,1.192,0.647,2.01v0.169c0,0.82-0.215,1.491-0.645,2.013
			c-0.43,0.521-1.001,0.781-1.712,0.781c-0.718,0-1.292-0.261-1.724-0.781c-0.432-0.521-0.647-1.192-0.647-2.013V107.335z
			 M13.134,107.504c0,0.643,0.156,1.183,0.47,1.62c0.313,0.438,0.749,0.656,1.309,0.656c0.55,0,0.982-0.219,1.297-0.656
			s0.472-0.978,0.472-1.62v-0.169c0-0.633-0.158-1.169-0.475-1.61c-0.315-0.44-0.75-0.661-1.304-0.661
			c-0.553,0-0.986,0.221-1.299,0.661c-0.313,0.441-0.47,0.978-0.47,1.61V107.504z"/>
		<path fill="#FFFFFF" d="M19.007,104.643l0.055,0.913c0.171-0.321,0.399-0.571,0.684-0.749c0.285-0.178,0.623-0.267,1.016-0.267
			c0.408,0,0.749,0.103,1.022,0.306s0.469,0.514,0.588,0.931c0.161-0.387,0.391-0.689,0.688-0.908s0.658-0.328,1.079-0.328
			c0.57,0,1.011,0.197,1.321,0.59c0.312,0.394,0.467,1.002,0.467,1.825v3.235h-0.593v-3.245c0-0.684-0.116-1.167-0.351-1.448
			c-0.233-0.282-0.557-0.424-0.968-0.424c-0.451,0-0.8,0.144-1.047,0.429s-0.403,0.653-0.47,1.104c0,0.038,0.001,0.075,0.003,0.113
			c0.001,0.037,0.002,0.085,0.002,0.144v3.327h-0.598v-3.245c0-0.67-0.117-1.149-0.353-1.438c-0.236-0.289-0.56-0.434-0.971-0.434
			c-0.415,0-0.745,0.109-0.991,0.326c-0.245,0.217-0.417,0.51-0.516,0.879v3.912h-0.593v-5.548H19.007z"/>
		<path fill="#FFFFFF" d="M28.131,103.054h-0.588v-0.861h0.588V103.054z M28.131,110.191h-0.588v-5.548h0.588V110.191z"/>
		<path fill="#FFFFFF" d="M32.967,108.771c0-0.26-0.104-0.486-0.309-0.68c-0.206-0.193-0.577-0.352-1.114-0.475
			c-0.632-0.136-1.103-0.323-1.41-0.561c-0.308-0.238-0.462-0.57-0.462-0.998c0-0.424,0.172-0.782,0.517-1.076
			c0.344-0.294,0.799-0.441,1.365-0.441c0.596,0,1.072,0.157,1.428,0.47s0.525,0.698,0.509,1.156l-0.01,0.03h-0.549
			c0-0.304-0.126-0.569-0.378-0.795s-0.585-0.338-1-0.338c-0.428,0-0.751,0.098-0.968,0.292c-0.218,0.195-0.326,0.422-0.326,0.682
			c0,0.253,0.093,0.463,0.279,0.629c0.186,0.165,0.557,0.312,1.113,0.438c0.626,0.144,1.1,0.344,1.421,0.601
			c0.32,0.256,0.481,0.602,0.481,1.035c0,0.462-0.181,0.837-0.541,1.126c-0.36,0.288-0.838,0.433-1.43,0.433
			c-0.649,0-1.159-0.16-1.529-0.481s-0.546-0.704-0.526-1.148l0.01-0.031h0.544c0.022,0.4,0.181,0.69,0.472,0.872
			c0.291,0.181,0.635,0.271,1.03,0.271c0.428,0,0.766-0.099,1.012-0.298C32.843,109.286,32.967,109.047,32.967,108.771z"/>
		<path fill="#FFFFFF" d="M38.118,108.771c0-0.26-0.104-0.486-0.309-0.68c-0.206-0.193-0.577-0.352-1.114-0.475
			c-0.632-0.136-1.103-0.323-1.41-0.561c-0.308-0.238-0.462-0.57-0.462-0.998c0-0.424,0.172-0.782,0.517-1.076
			c0.344-0.294,0.799-0.441,1.365-0.441c0.596,0,1.072,0.157,1.428,0.47s0.525,0.698,0.509,1.156l-0.01,0.03h-0.549
			c0-0.304-0.126-0.569-0.378-0.795s-0.585-0.338-1-0.338c-0.428,0-0.751,0.098-0.968,0.292c-0.218,0.195-0.326,0.422-0.326,0.682
			c0,0.253,0.093,0.463,0.279,0.629c0.186,0.165,0.557,0.312,1.113,0.438c0.626,0.144,1.1,0.344,1.421,0.601
			c0.32,0.256,0.481,0.602,0.481,1.035c0,0.462-0.181,0.837-0.541,1.126c-0.36,0.288-0.838,0.433-1.43,0.433
			c-0.649,0-1.159-0.16-1.529-0.481s-0.546-0.704-0.526-1.148l0.01-0.031h0.544c0.022,0.4,0.18,0.69,0.472,0.872
			c0.291,0.181,0.635,0.271,1.03,0.271c0.428,0,0.766-0.099,1.012-0.298C37.994,109.286,38.118,109.047,38.118,108.771z"/>
		<path fill="#FFFFFF" d="M39.738,107.335c0-0.817,0.216-1.487,0.647-2.01c0.432-0.523,1.003-0.785,1.714-0.785
			c0.715,0,1.287,0.262,1.719,0.785c0.432,0.522,0.647,1.192,0.647,2.01v0.169c0,0.82-0.215,1.491-0.645,2.013
			c-0.43,0.521-1.001,0.781-1.712,0.781c-0.718,0-1.292-0.261-1.724-0.781c-0.432-0.521-0.647-1.192-0.647-2.013V107.335z
			 M40.331,107.504c0,0.643,0.156,1.183,0.47,1.62c0.313,0.438,0.749,0.656,1.309,0.656c0.55,0,0.982-0.219,1.297-0.656
			s0.472-0.978,0.472-1.62v-0.169c0-0.633-0.158-1.169-0.475-1.61c-0.315-0.44-0.75-0.661-1.304-0.661
			c-0.553,0-0.986,0.221-1.299,0.661c-0.313,0.441-0.47,0.978-0.47,1.61V107.504z M43.744,102.5c0,0.301-0.09,0.55-0.271,0.748
			c-0.181,0.198-0.406,0.298-0.677,0.298c-0.243,0-0.492-0.094-0.746-0.282c-0.253-0.188-0.469-0.282-0.646-0.282
			c-0.155,0-0.285,0.061-0.391,0.18c-0.105,0.12-0.158,0.271-0.158,0.456l-0.395-0.092c0-0.294,0.089-0.541,0.267-0.741
			c0.178-0.199,0.403-0.3,0.677-0.3c0.214,0,0.456,0.094,0.726,0.282c0.271,0.188,0.492,0.282,0.667,0.282
			c0.151,0,0.282-0.062,0.391-0.185s0.163-0.279,0.163-0.467L43.744,102.5z"/>
		<path fill="#FFFFFF" d="M47.73,110.298c-0.691,0-1.253-0.254-1.685-0.761c-0.432-0.508-0.646-1.16-0.646-1.956v-0.282
			c0-0.8,0.218-1.46,0.654-1.979s0.977-0.779,1.622-0.779c0.649,0,1.15,0.217,1.505,0.649c0.354,0.432,0.53,1.014,0.53,1.745v0.477
			h-3.719v0.17c0,0.632,0.153,1.157,0.462,1.573c0.308,0.418,0.733,0.626,1.276,0.626c0.326,0,0.626-0.056,0.899-0.167
			c0.272-0.11,0.5-0.26,0.682-0.448l0.252,0.42c-0.188,0.205-0.435,0.376-0.739,0.511S48.155,110.298,47.73,110.298z
			 M47.676,105.064c-0.454,0-0.828,0.169-1.121,0.508c-0.293,0.338-0.464,0.767-0.514,1.286l0.015,0.031h3.063v-0.128
			c0-0.492-0.124-0.898-0.373-1.218C48.497,105.224,48.141,105.064,47.676,105.064z"/>
		<path fill="#FFFFFF" d="M54.107,108.771c0-0.26-0.104-0.486-0.309-0.68c-0.206-0.193-0.577-0.352-1.114-0.475
			c-0.632-0.136-1.103-0.323-1.41-0.561c-0.308-0.238-0.462-0.57-0.462-0.998c0-0.424,0.172-0.782,0.517-1.076
			c0.344-0.294,0.799-0.441,1.365-0.441c0.596,0,1.072,0.157,1.428,0.47s0.525,0.698,0.509,1.156l-0.01,0.03h-0.549
			c0-0.304-0.126-0.569-0.378-0.795s-0.585-0.338-1-0.338c-0.428,0-0.751,0.098-0.968,0.292c-0.218,0.195-0.326,0.422-0.326,0.682
			c0,0.253,0.093,0.463,0.279,0.629c0.186,0.165,0.557,0.312,1.113,0.438c0.626,0.144,1.1,0.344,1.421,0.601
			c0.32,0.256,0.481,0.602,0.481,1.035c0,0.462-0.181,0.837-0.541,1.126c-0.36,0.288-0.838,0.433-1.43,0.433
			c-0.649,0-1.159-0.16-1.529-0.481s-0.546-0.704-0.526-1.148l0.01-0.031h0.544c0.022,0.4,0.181,0.69,0.472,0.872
			c0.291,0.181,0.635,0.271,1.03,0.271c0.428,0,0.766-0.099,1.012-0.298C53.983,109.286,54.107,109.047,54.107,108.771z"/>
		<path fill="#FFFFFF" d="M60.548,110.298c-0.691,0-1.253-0.254-1.685-0.761c-0.432-0.508-0.646-1.16-0.646-1.956v-0.282
			c0-0.8,0.218-1.46,0.654-1.979s0.977-0.779,1.622-0.779c0.649,0,1.15,0.217,1.505,0.649c0.354,0.432,0.53,1.014,0.53,1.745v0.477
			H58.81v0.17c0,0.632,0.153,1.157,0.462,1.573c0.308,0.418,0.733,0.626,1.276,0.626c0.326,0,0.626-0.056,0.899-0.167
			c0.272-0.11,0.5-0.26,0.682-0.448l0.252,0.42c-0.188,0.205-0.435,0.376-0.739,0.511S60.973,110.298,60.548,110.298z
			 M60.493,105.064c-0.454,0-0.828,0.169-1.121,0.508c-0.293,0.338-0.464,0.767-0.514,1.286l0.015,0.031h3.063v-0.128
			c0-0.492-0.124-0.898-0.373-1.218C61.314,105.224,60.958,105.064,60.493,105.064z"/>
		<path fill="#FFFFFF" d="M11.479,120.458l0.01,0.031c0.014,0.731-0.217,1.315-0.691,1.753s-1.097,0.656-1.867,0.656
			c-0.8,0-1.445-0.3-1.937-0.899c-0.49-0.6-0.735-1.377-0.735-2.33v-1.216c0-0.95,0.245-1.727,0.735-2.33
			c0.491-0.603,1.137-0.904,1.937-0.904c0.78,0,1.405,0.213,1.875,0.641c0.469,0.427,0.697,1.015,0.684,1.764l-0.01,0.03h-0.554
			c0-0.602-0.177-1.07-0.53-1.407c-0.354-0.336-0.843-0.505-1.465-0.505c-0.629,0-1.134,0.253-1.514,0.759
			c-0.381,0.506-0.57,1.153-0.57,1.943v1.226c0,0.8,0.189,1.451,0.57,1.956c0.38,0.504,0.885,0.756,1.514,0.756
			c0.622,0,1.11-0.164,1.465-0.492c0.354-0.328,0.53-0.805,0.53-1.431H11.479z"/>
		<path fill="#FFFFFF" d="M12.541,119.936c0-0.817,0.216-1.487,0.647-2.01c0.432-0.523,1.003-0.785,1.714-0.785
			c0.715,0,1.287,0.262,1.719,0.785c0.432,0.522,0.647,1.192,0.647,2.01v0.169c0,0.82-0.215,1.491-0.645,2.013
			c-0.43,0.521-1.001,0.781-1.712,0.781c-0.718,0-1.292-0.261-1.724-0.781c-0.432-0.521-0.647-1.192-0.647-2.013V119.936z
			 M13.134,120.105c0,0.643,0.156,1.183,0.47,1.62c0.313,0.438,0.749,0.656,1.309,0.656c0.55,0,0.982-0.219,1.297-0.656
			s0.472-0.978,0.472-1.62v-0.169c0-0.633-0.158-1.169-0.475-1.61c-0.315-0.44-0.75-0.661-1.304-0.661
			c-0.553,0-0.986,0.221-1.299,0.661c-0.313,0.441-0.47,0.978-0.47,1.61V120.105z"/>
		<path fill="#FFFFFF" d="M19.007,117.244l0.055,0.913c0.171-0.321,0.399-0.571,0.684-0.749c0.285-0.178,0.623-0.267,1.016-0.267
			c0.408,0,0.749,0.103,1.022,0.306s0.469,0.514,0.588,0.931c0.161-0.387,0.391-0.689,0.688-0.908s0.658-0.328,1.079-0.328
			c0.57,0,1.011,0.197,1.321,0.59c0.312,0.394,0.467,1.002,0.467,1.825v3.235h-0.593v-3.245c0-0.684-0.116-1.167-0.351-1.448
			c-0.233-0.282-0.557-0.424-0.968-0.424c-0.451,0-0.8,0.144-1.047,0.429s-0.403,0.653-0.47,1.104c0,0.038,0.001,0.075,0.003,0.113
			c0.001,0.037,0.002,0.085,0.002,0.144v3.327h-0.598v-3.245c0-0.67-0.117-1.149-0.353-1.438c-0.236-0.289-0.56-0.434-0.971-0.434
			c-0.415,0-0.745,0.109-0.991,0.326c-0.245,0.217-0.417,0.51-0.516,0.879v3.912h-0.593v-5.548H19.007z"/>
		<path fill="#FFFFFF" d="M28.131,115.655h-0.588v-0.861h0.588V115.655z M28.131,122.792h-0.588v-5.548h0.588V122.792z"/>
		<path fill="#FFFFFF" d="M30.689,115.824v1.42h1.176v0.503h-1.176v3.614c0,0.362,0.063,0.62,0.19,0.771
			c0.127,0.152,0.295,0.229,0.506,0.229c0.072,0,0.143-0.004,0.21-0.013s0.147-0.023,0.239-0.044l0.09,0.456
			c-0.079,0.042-0.178,0.075-0.294,0.101c-0.117,0.025-0.233,0.038-0.349,0.038c-0.375,0-0.668-0.123-0.877-0.369
			s-0.313-0.636-0.313-1.169v-3.614h-0.924v-0.503h0.924v-1.42H30.689z"/>
		<path fill="#FFFFFF" d="M35.051,122.899c-0.691,0-1.253-0.254-1.685-0.761c-0.432-0.508-0.646-1.16-0.646-1.956V119.9
			c0-0.8,0.218-1.46,0.654-1.979s0.977-0.779,1.622-0.779c0.649,0,1.15,0.217,1.505,0.649c0.354,0.432,0.53,1.014,0.53,1.745v0.477
			h-3.719v0.17c0,0.632,0.153,1.157,0.462,1.573c0.308,0.418,0.733,0.626,1.276,0.626c0.326,0,0.626-0.056,0.899-0.167
			c0.272-0.11,0.5-0.26,0.682-0.448l0.252,0.42c-0.188,0.205-0.435,0.376-0.739,0.511S35.476,122.899,35.051,122.899z
			 M34.996,117.665c-0.454,0-0.828,0.169-1.121,0.508c-0.293,0.338-0.464,0.767-0.514,1.286l0.015,0.031h3.063v-0.128
			c0-0.492-0.124-0.898-0.373-1.218C35.817,117.825,35.461,117.665,34.996,117.665z M36.325,116.136v0.093h-0.554l-0.824-0.861
			l-0.82,0.861h-0.543v-0.107l1.121-1.134h0.484L36.325,116.136z"/>
		<path fill="#FFFFFF" d="M41.428,121.372c0-0.26-0.104-0.486-0.309-0.68c-0.206-0.193-0.577-0.352-1.114-0.475
			c-0.632-0.136-1.103-0.323-1.41-0.561c-0.308-0.238-0.462-0.57-0.462-0.998c0-0.424,0.172-0.782,0.517-1.076
			c0.344-0.294,0.799-0.441,1.365-0.441c0.596,0,1.072,0.157,1.428,0.47s0.525,0.698,0.509,1.156l-0.01,0.03h-0.549
			c0-0.304-0.126-0.569-0.378-0.795s-0.585-0.338-1-0.338c-0.428,0-0.751,0.098-0.968,0.292c-0.218,0.195-0.326,0.422-0.326,0.682
			c0,0.253,0.093,0.463,0.279,0.629c0.186,0.165,0.557,0.312,1.113,0.438c0.626,0.144,1.1,0.344,1.421,0.601
			c0.32,0.256,0.481,0.602,0.481,1.035c0,0.462-0.181,0.837-0.541,1.126c-0.36,0.288-0.838,0.433-1.43,0.433
			c-0.649,0-1.159-0.16-1.529-0.481s-0.546-0.704-0.526-1.148l0.01-0.031h0.544c0.022,0.4,0.181,0.69,0.472,0.872
			c0.291,0.181,0.635,0.271,1.03,0.271c0.428,0,0.766-0.099,1.012-0.298C41.304,121.886,41.428,121.648,41.428,121.372z"/>
	</g>
</g>
<g>
	<path fill="#FFFFFF" d="M30.547,41.895c0,1.167-0.307,2.083-0.919,2.748c-0.613,0.665-1.426,0.998-2.438,0.998
		c-1.021,0-1.839-0.333-2.454-0.998s-0.923-1.581-0.923-2.748v-2.741c0-1.162,0.307-2.078,0.92-2.748
		c0.612-0.67,1.427-1.005,2.443-1.005c1.012,0,1.826,0.335,2.444,1.005c0.617,0.67,0.926,1.586,0.926,2.748V41.895z M28.558,38.949
		c0-0.638-0.122-1.133-0.365-1.483c-0.244-0.351-0.583-0.526-1.016-0.526c-0.438,0-0.775,0.176-1.015,0.526
		s-0.359,0.846-0.359,1.483v3.138c0,0.651,0.121,1.151,0.362,1.5s0.583,0.523,1.025,0.523c0.433,0,0.77-0.175,1.009-0.523
		s0.358-0.849,0.358-1.5V38.949z"/>
	<path fill="#FFFFFF" d="M34.047,45.409l-1.087,2.153h-1.333l0.479-2.215v-1.559h1.941V45.409z"/>
	<path fill="#FFFFFF" d="M42.284,45.498h-6.679v-1.306l3.083-3.486c0.46-0.542,0.787-1.002,0.981-1.378
		c0.193-0.376,0.29-0.721,0.29-1.035c0-0.41-0.103-0.738-0.308-0.984s-0.513-0.369-0.923-0.369c-0.433,0-0.768,0.157-1.005,0.472
		s-0.355,0.713-0.355,1.196h-1.941l-0.014-0.041c-0.022-0.884,0.269-1.633,0.875-2.246c0.606-0.612,1.42-0.919,2.44-0.919
		s1.813,0.261,2.379,0.782c0.565,0.522,0.848,1.223,0.848,2.103c0,0.597-0.158,1.142-0.475,1.634
		c-0.317,0.492-0.863,1.174-1.638,2.044l-1.641,1.969l0.014,0.034h4.067V45.498z"/>
	<path fill="#FFFFFF" d="M43.487,37.458c0-0.588,0.19-1.078,0.571-1.47c0.38-0.392,0.91-0.588,1.589-0.588
		c0.688,0,1.222,0.194,1.6,0.584s0.567,0.881,0.567,1.474v0.526c0,0.588-0.189,1.075-0.567,1.463s-0.907,0.581-1.586,0.581
		c-0.684,0-1.217-0.193-1.6-0.581s-0.574-0.875-0.574-1.463V37.458z M44.813,37.985c0,0.265,0.073,0.486,0.219,0.666
		c0.146,0.181,0.355,0.271,0.629,0.271c0.265,0,0.469-0.09,0.612-0.271c0.144-0.18,0.215-0.401,0.215-0.666v-0.526
		c0-0.265-0.073-0.489-0.219-0.674s-0.354-0.276-0.622-0.276s-0.475,0.092-0.618,0.276s-0.216,0.409-0.216,0.674V37.985z
		 M45.989,44.752l-0.971-0.513l4.86-7.779l0.971,0.513L45.989,44.752z M48.245,43.057c0-0.583,0.191-1.071,0.574-1.463
		s0.914-0.588,1.593-0.588c0.684,0,1.216,0.194,1.597,0.584c0.38,0.39,0.57,0.879,0.57,1.467v0.526c0,0.593-0.189,1.082-0.567,1.47
		s-0.907,0.581-1.586,0.581c-0.684,0-1.218-0.195-1.603-0.585c-0.386-0.39-0.578-0.878-0.578-1.466V43.057z M49.571,43.583
		c0,0.26,0.079,0.481,0.236,0.666s0.363,0.277,0.618,0.277c0.296,0,0.508-0.086,0.636-0.257s0.191-0.399,0.191-0.687v-0.526
		c0-0.26-0.073-0.482-0.219-0.667s-0.354-0.276-0.622-0.276c-0.273,0-0.481,0.092-0.625,0.276s-0.216,0.407-0.216,0.667V43.583z"/>
</g>
<path opacity="0.7" fill="#D5001E" d="M109.283,24.454c11.043,0,19.996,7.273,19.996,16.244c0,8.976-8.953,16.247-19.996,16.247
	c-1.059,0-2.102-0.068-3.117-0.195c-4.294,4.295-9.423,5.063-14.379,5.177v-1.051c2.678-1.31,4.999-3.7,4.999-6.43
	c0-0.379-0.03-0.755-0.085-1.122c-4.52-2.976-7.412-7.526-7.412-12.626C89.289,31.727,98.24,24.454,109.283,24.454"/>
<g>
	<g>
		<path fill="#FFFFFF" d="M93.606,85.242H90.45l-0.727,2.082h-0.612l2.643-7.465h0.559l2.623,7.465h-0.613L93.606,85.242z
			 M90.638,84.694h2.776l-1.363-3.958h-0.03L90.638,84.694z"/>
		<path fill="#FFFFFF" d="M99.109,85.904c0-0.26-0.104-0.486-0.309-0.68c-0.206-0.193-0.577-0.352-1.114-0.475
			c-0.632-0.136-1.103-0.323-1.41-0.561c-0.308-0.238-0.462-0.57-0.462-0.998c0-0.424,0.172-0.782,0.517-1.076
			c0.344-0.294,0.799-0.441,1.365-0.441c0.596,0,1.072,0.157,1.428,0.47s0.525,0.698,0.509,1.156l-0.01,0.03h-0.549
			c0-0.304-0.126-0.569-0.378-0.795s-0.585-0.338-1-0.338c-0.428,0-0.751,0.098-0.968,0.292c-0.218,0.195-0.326,0.422-0.326,0.682
			c0,0.253,0.093,0.463,0.279,0.629c0.186,0.165,0.557,0.312,1.113,0.438c0.626,0.144,1.1,0.344,1.421,0.601
			c0.32,0.256,0.481,0.602,0.481,1.035c0,0.462-0.181,0.837-0.541,1.126c-0.36,0.288-0.838,0.433-1.43,0.433
			c-0.649,0-1.159-0.16-1.529-0.481s-0.546-0.704-0.526-1.148l0.01-0.031h0.544c0.022,0.4,0.181,0.69,0.472,0.872
			c0.291,0.181,0.635,0.271,1.03,0.271c0.428,0,0.766-0.099,1.012-0.298C98.985,86.418,99.109,86.18,99.109,85.904z"/>
		<path fill="#FFFFFF" d="M104.261,85.904c0-0.26-0.104-0.486-0.309-0.68c-0.206-0.193-0.577-0.352-1.114-0.475
			c-0.632-0.136-1.103-0.323-1.41-0.561c-0.308-0.238-0.462-0.57-0.462-0.998c0-0.424,0.172-0.782,0.517-1.076
			c0.344-0.294,0.799-0.441,1.365-0.441c0.596,0,1.072,0.157,1.428,0.47s0.525,0.698,0.509,1.156l-0.01,0.03h-0.549
			c0-0.304-0.126-0.569-0.378-0.795s-0.585-0.338-1-0.338c-0.428,0-0.751,0.098-0.968,0.292c-0.218,0.195-0.326,0.422-0.326,0.682
			c0,0.253,0.093,0.463,0.279,0.629c0.186,0.165,0.557,0.312,1.113,0.438c0.626,0.144,1.1,0.344,1.421,0.601
			c0.32,0.256,0.481,0.602,0.481,1.035c0,0.462-0.181,0.837-0.541,1.126c-0.36,0.288-0.838,0.433-1.43,0.433
			c-0.649,0-1.159-0.16-1.529-0.481s-0.546-0.704-0.526-1.148l0.01-0.031h0.544c0.022,0.4,0.18,0.69,0.472,0.872
			c0.291,0.181,0.635,0.271,1.03,0.271c0.428,0,0.766-0.099,1.012-0.298C104.137,86.418,104.261,86.18,104.261,85.904z"/>
		<path fill="#FFFFFF" d="M108.242,87.431c-0.691,0-1.253-0.254-1.685-0.761c-0.432-0.508-0.646-1.16-0.646-1.956v-0.282
			c0-0.8,0.218-1.46,0.654-1.979s0.977-0.779,1.622-0.779c0.649,0,1.15,0.217,1.505,0.649c0.354,0.432,0.53,1.014,0.53,1.745v0.477
			h-3.719v0.17c0,0.632,0.153,1.157,0.462,1.573c0.308,0.418,0.733,0.626,1.276,0.626c0.326,0,0.626-0.056,0.899-0.167
			c0.272-0.11,0.5-0.26,0.682-0.448l0.252,0.42c-0.188,0.205-0.435,0.376-0.739,0.511S108.667,87.431,108.242,87.431z
			 M108.188,82.197c-0.454,0-0.828,0.169-1.121,0.508c-0.293,0.338-0.464,0.767-0.514,1.286l0.015,0.031h3.063v-0.128
			c0-0.492-0.124-0.898-0.373-1.218C109.009,82.357,108.652,82.197,108.188,82.197z"/>
		<path fill="#FFFFFF" d="M111.941,81.776l0.055,0.964c0.175-0.338,0.406-0.601,0.696-0.786c0.29-0.187,0.634-0.28,1.032-0.28
			c0.58,0,1.021,0.185,1.324,0.552s0.454,0.94,0.454,1.72v3.379h-0.593V83.95c0-0.636-0.114-1.085-0.343-1.348
			c-0.229-0.264-0.555-0.396-0.976-0.396c-0.422,0-0.762,0.108-1.021,0.323c-0.259,0.216-0.445,0.504-0.561,0.866v3.928h-0.593
			v-5.548H111.941z"/>
		<path fill="#FFFFFF" d="M117.973,80.356v1.42h1.176v0.503h-1.176v3.614c0,0.362,0.063,0.62,0.19,0.771
			c0.127,0.152,0.295,0.229,0.506,0.229c0.072,0,0.143-0.004,0.21-0.013s0.147-0.023,0.239-0.044l0.09,0.456
			c-0.079,0.042-0.178,0.075-0.294,0.101c-0.117,0.025-0.233,0.038-0.349,0.038c-0.375,0-0.668-0.123-0.877-0.369
			s-0.313-0.636-0.313-1.169v-3.614h-0.924v-0.503h0.924v-1.42H117.973z"/>
		<path fill="#FFFFFF" d="M119.973,84.468c0-0.817,0.216-1.487,0.647-2.01c0.432-0.523,1.003-0.785,1.714-0.785
			c0.715,0,1.287,0.262,1.719,0.785c0.432,0.522,0.647,1.192,0.647,2.01v0.169c0,0.82-0.215,1.491-0.645,2.013
			c-0.43,0.521-1.001,0.781-1.712,0.781c-0.718,0-1.292-0.261-1.724-0.781c-0.432-0.521-0.647-1.192-0.647-2.013V84.468z
			 M120.565,84.637c0,0.643,0.156,1.183,0.47,1.62c0.313,0.438,0.749,0.656,1.309,0.656c0.55,0,0.982-0.219,1.297-0.656
			s0.472-0.978,0.472-1.62v-0.169c0-0.633-0.158-1.169-0.475-1.61c-0.315-0.44-0.75-0.661-1.304-0.661
			c-0.553,0-0.986,0.221-1.299,0.661c-0.313,0.441-0.47,0.978-0.47,1.61V84.637z"/>
		<path fill="#FFFFFF" d="M129.137,85.904c0-0.26-0.104-0.486-0.309-0.68c-0.206-0.193-0.577-0.352-1.114-0.475
			c-0.632-0.136-1.103-0.323-1.41-0.561c-0.308-0.238-0.462-0.57-0.462-0.998c0-0.424,0.172-0.782,0.517-1.076
			c0.344-0.294,0.799-0.441,1.365-0.441c0.596,0,1.072,0.157,1.428,0.47s0.525,0.698,0.509,1.156l-0.01,0.03h-0.549
			c0-0.304-0.126-0.569-0.378-0.795s-0.585-0.338-1-0.338c-0.428,0-0.751,0.098-0.968,0.292c-0.218,0.195-0.326,0.422-0.326,0.682
			c0,0.253,0.093,0.463,0.279,0.629c0.186,0.165,0.557,0.312,1.113,0.438c0.626,0.144,1.1,0.344,1.421,0.601
			c0.32,0.256,0.481,0.602,0.481,1.035c0,0.462-0.181,0.837-0.541,1.126c-0.36,0.288-0.838,0.433-1.43,0.433
			c-0.649,0-1.159-0.16-1.529-0.481s-0.546-0.704-0.526-1.148l0.01-0.031h0.544c0.022,0.4,0.181,0.69,0.472,0.872
			c0.291,0.181,0.635,0.271,1.03,0.271c0.428,0,0.766-0.099,1.012-0.298C129.013,86.418,129.137,86.18,129.137,85.904z"/>
	</g>
</g>
<g>
	<path fill="#FFFFFF" d="M98.186,41.109l0.574-5.564h5.551v1.6h-3.917l-0.273,2.324c0.187-0.137,0.422-0.25,0.704-0.339
		s0.59-0.138,0.923-0.146c0.925-0.014,1.642,0.272,2.15,0.857c0.508,0.586,0.762,1.407,0.762,2.465c0,0.976-0.275,1.775-0.827,2.399
		s-1.395,0.937-2.529,0.937c-0.916,0-1.7-0.243-2.352-0.729s-0.966-1.151-0.943-1.999l0.014-0.034l1.921-0.089
		c0,0.415,0.125,0.738,0.376,0.971s0.579,0.349,0.984,0.349c0.474,0,0.819-0.155,1.036-0.465c0.216-0.31,0.324-0.752,0.324-1.326
		s-0.118-1.031-0.355-1.371c-0.237-0.339-0.588-0.509-1.053-0.509c-0.383,0-0.676,0.07-0.878,0.212
		c-0.203,0.142-0.348,0.333-0.435,0.574L98.186,41.109z"/>
	<path fill="#FFFFFF" d="M106.218,41.109l0.574-5.564h5.551v1.6h-3.917l-0.273,2.324c0.187-0.137,0.422-0.25,0.704-0.339
		s0.59-0.138,0.923-0.146c0.925-0.014,1.642,0.272,2.15,0.857c0.508,0.586,0.762,1.407,0.762,2.465c0,0.976-0.275,1.775-0.827,2.399
		s-1.395,0.937-2.529,0.937c-0.916,0-1.7-0.243-2.352-0.729s-0.966-1.151-0.943-1.999l0.014-0.034l1.921-0.089
		c0,0.415,0.125,0.738,0.376,0.971s0.579,0.349,0.984,0.349c0.474,0,0.819-0.155,1.036-0.465c0.216-0.31,0.324-0.752,0.324-1.326
		s-0.118-1.031-0.355-1.371c-0.237-0.339-0.588-0.509-1.053-0.509c-0.383,0-0.676,0.07-0.878,0.212
		c-0.203,0.142-0.348,0.333-0.435,0.574L106.218,41.109z"/>
	<path fill="#FFFFFF" d="M117.258,39.646c0.474,0,0.826-0.123,1.057-0.369c0.229-0.246,0.345-0.593,0.345-1.039
		c0-0.374-0.121-0.684-0.362-0.93s-0.579-0.369-1.012-0.369c-0.364,0-0.671,0.111-0.919,0.335c-0.249,0.224-0.373,0.508-0.373,0.854
		h-1.928l-0.014-0.041c-0.027-0.779,0.273-1.422,0.902-1.928s1.406-0.759,2.331-0.759c1.03,0,1.848,0.242,2.454,0.728
		s0.909,1.182,0.909,2.089c0,0.456-0.131,0.874-0.393,1.254c-0.263,0.381-0.621,0.681-1.077,0.899
		c0.52,0.196,0.921,0.493,1.203,0.892c0.282,0.399,0.424,0.881,0.424,1.446c0,0.911-0.329,1.628-0.987,2.149
		c-0.659,0.522-1.503,0.783-2.533,0.783c-0.907,0-1.7-0.246-2.379-0.738s-1.007-1.183-0.984-2.071l0.014-0.041h1.941
		c0,0.374,0.131,0.687,0.394,0.939c0.262,0.253,0.6,0.38,1.015,0.38c0.456,0,0.825-0.135,1.107-0.403s0.424-0.608,0.424-1.019
		c0-0.524-0.132-0.913-0.396-1.166s-0.651-0.379-1.162-0.379h-1.101v-1.497H117.258z"/>
</g>
<path opacity="0.7" fill="#DB6714" d="M175.726,23.377c11.044,0,19.998,7.273,19.998,16.243c0,8.976-8.954,16.247-19.998,16.247
	c-1.059,0-2.101-0.066-3.116-0.196c-4.295,4.293-9.421,5.065-14.378,5.177v-1.05c2.676-1.311,4.999-3.701,4.999-6.431
	c0-0.379-0.032-0.755-0.085-1.121c-4.521-2.977-7.414-7.526-7.414-12.626C155.731,30.651,164.684,23.377,175.726,23.377"/>
<g>
	<g>
		<path fill="#FFFFFF" d="M157.015,84.119c0-0.382-0.146-0.698-0.439-0.948c-0.293-0.249-0.79-0.483-1.491-0.702
			c-0.768-0.219-1.352-0.491-1.751-0.817c-0.4-0.327-0.601-0.771-0.601-1.331c0-0.57,0.224-1.04,0.672-1.407s1.02-0.551,1.714-0.551
			c0.731,0,1.319,0.207,1.764,0.623c0.444,0.415,0.66,0.942,0.646,1.581l-0.01,0.031h-0.553c0-0.492-0.172-0.901-0.517-1.226
			c-0.344-0.325-0.787-0.487-1.331-0.487c-0.56,0-0.998,0.138-1.316,0.413c-0.317,0.275-0.477,0.612-0.477,1.013
			c0,0.379,0.145,0.691,0.433,0.936s0.796,0.473,1.523,0.685c0.758,0.229,1.335,0.511,1.733,0.846s0.598,0.779,0.598,1.333
			c0,0.581-0.232,1.049-0.698,1.402s-1.053,0.53-1.761,0.53s-1.326-0.187-1.853-0.562c-0.527-0.374-0.782-0.92-0.766-1.638
			l0.01-0.031h0.548c0,0.578,0.209,1.008,0.628,1.29c0.418,0.282,0.896,0.423,1.433,0.423c0.55,0,0.997-0.131,1.343-0.393
			C156.842,84.871,157.015,84.533,157.015,84.119z"/>
		<path fill="#FFFFFF" d="M162.424,85.032c-0.171,0.325-0.4,0.574-0.688,0.748c-0.288,0.175-0.63,0.262-1.025,0.262
			c-0.563,0-1.004-0.198-1.323-0.595c-0.32-0.396-0.479-1.012-0.479-1.846v-3.215h0.593v3.226c0,0.677,0.111,1.162,0.333,1.456
			c0.223,0.294,0.538,0.44,0.946,0.44c0.444,0,0.799-0.104,1.064-0.31c0.265-0.207,0.452-0.49,0.561-0.849v-3.964h0.593v5.548
			h-0.523L162.424,85.032z"/>
		<path fill="#FFFFFF" d="M168.86,83.314c0,0.831-0.182,1.493-0.544,1.987c-0.362,0.493-0.861,0.74-1.496,0.74
			c-0.372,0-0.699-0.073-0.98-0.221c-0.282-0.146-0.512-0.354-0.689-0.625v2.871h-0.593v-7.681h0.455l0.108,0.867
			c0.178-0.308,0.408-0.546,0.691-0.716c0.283-0.169,0.615-0.254,0.998-0.254c0.642,0,1.144,0.267,1.506,0.798
			s0.544,1.24,0.544,2.125V83.314z M168.268,83.207c0-0.704-0.136-1.278-0.405-1.723c-0.271-0.444-0.665-0.667-1.186-0.667
			c-0.392,0-0.712,0.098-0.961,0.293c-0.248,0.194-0.437,0.447-0.565,0.759v2.687c0.139,0.301,0.334,0.537,0.588,0.71
			s0.569,0.259,0.948,0.259c0.518,0,0.91-0.201,1.179-0.605c0.268-0.402,0.402-0.938,0.402-1.604V83.207z"/>
		<path fill="#FFFFFF" d="M170.851,85.934h-0.588v-7.998h0.588V85.934z"/>
		<path fill="#FFFFFF" d="M174.516,86.042c-0.691,0-1.253-0.254-1.685-0.761c-0.432-0.508-0.646-1.16-0.646-1.956v-0.282
			c0-0.8,0.218-1.46,0.654-1.979s0.977-0.779,1.622-0.779c0.649,0,1.15,0.217,1.505,0.649c0.354,0.432,0.53,1.014,0.53,1.745v0.477
			h-3.719v0.17c0,0.632,0.153,1.157,0.462,1.573c0.308,0.418,0.733,0.626,1.276,0.626c0.326,0,0.626-0.056,0.899-0.167
			c0.272-0.11,0.5-0.26,0.682-0.448l0.252,0.42c-0.188,0.205-0.435,0.376-0.739,0.511S174.94,86.042,174.516,86.042z
			 M174.461,80.807c-0.454,0-0.828,0.169-1.121,0.508c-0.293,0.338-0.464,0.767-0.514,1.286l0.015,0.031h3.063v-0.128
			c0-0.492-0.124-0.898-0.373-1.218C175.282,80.967,174.926,80.807,174.461,80.807z M175.79,79.279v0.093h-0.554l-0.824-0.861
			l-0.82,0.861h-0.543v-0.107l1.121-1.134h0.484L175.79,79.279z"/>
		<path fill="#FFFFFF" d="M178.215,80.386l0.055,0.964c0.175-0.338,0.406-0.601,0.696-0.786c0.29-0.187,0.634-0.28,1.032-0.28
			c0.58,0,1.021,0.185,1.324,0.552s0.454,0.94,0.454,1.72v3.379h-0.593V82.56c0-0.636-0.114-1.085-0.343-1.348
			c-0.229-0.264-0.555-0.396-0.976-0.396c-0.422,0-0.762,0.108-1.021,0.323c-0.259,0.216-0.445,0.504-0.561,0.866v3.928h-0.593
			v-5.548H178.215z"/>
		<path fill="#FFFFFF" d="M185.278,85.524c0.379,0,0.714-0.116,1.005-0.349c0.292-0.232,0.438-0.556,0.438-0.969h0.528l0.01,0.03
			c0.014,0.513-0.181,0.942-0.582,1.287c-0.402,0.346-0.868,0.518-1.398,0.518c-0.711,0-1.266-0.26-1.662-0.779
			s-0.595-1.185-0.595-1.994v-0.216c0-0.807,0.197-1.47,0.593-1.989c0.395-0.52,0.948-0.779,1.659-0.779
			c0.573,0,1.051,0.18,1.433,0.539c0.382,0.358,0.566,0.83,0.553,1.415l-0.01,0.03h-0.528c0-0.444-0.14-0.799-0.42-1.063
			c-0.279-0.265-0.622-0.397-1.027-0.397c-0.56,0-0.977,0.214-1.25,0.641c-0.273,0.428-0.409,0.962-0.409,1.604v0.216
			c0,0.653,0.136,1.192,0.409,1.617C184.297,85.311,184.716,85.524,185.278,85.524z"/>
		<path fill="#FFFFFF" d="M189.19,78.797h-0.588v-0.861h0.588V78.797z M189.19,85.934h-0.588v-5.548h0.588V85.934z"/>
		<path fill="#FFFFFF" d="M194.209,85.934c-0.036-0.195-0.063-0.362-0.082-0.503c-0.018-0.14-0.026-0.283-0.026-0.431
			c-0.185,0.302-0.443,0.55-0.775,0.746c-0.333,0.197-0.715,0.295-1.146,0.295c-0.523,0-0.93-0.145-1.218-0.433
			c-0.288-0.289-0.432-0.682-0.432-1.177c0-0.496,0.209-0.897,0.627-1.205s0.962-0.462,1.63-0.462h1.314v-0.687
			c0-0.396-0.121-0.708-0.363-0.934s-0.584-0.338-1.025-0.338c-0.404,0-0.731,0.103-0.98,0.308
			c-0.248,0.205-0.373,0.463-0.373,0.774h-0.548l-0.01-0.031c-0.02-0.417,0.152-0.783,0.516-1.1
			c0.364-0.316,0.839-0.475,1.426-0.475c0.586,0,1.057,0.156,1.412,0.467c0.355,0.312,0.534,0.757,0.534,1.338v2.728
			c0,0.195,0.01,0.385,0.031,0.569s0.058,0.368,0.106,0.549H194.209z M192.243,85.499c0.454,0,0.848-0.112,1.181-0.336
			c0.332-0.224,0.558-0.512,0.677-0.864v-1.062h-1.319c-0.48,0-0.878,0.119-1.19,0.356c-0.313,0.238-0.469,0.524-0.469,0.859
			c0,0.314,0.1,0.567,0.299,0.759S191.894,85.499,192.243,85.499z"/>
		<path fill="#FFFFFF" d="M199.465,84.514c0-0.26-0.104-0.486-0.309-0.68c-0.207-0.193-0.578-0.352-1.115-0.475
			c-0.631-0.136-1.102-0.323-1.41-0.561c-0.307-0.238-0.461-0.57-0.461-0.998c0-0.424,0.172-0.782,0.516-1.076
			s0.799-0.441,1.365-0.441c0.596,0,1.072,0.157,1.428,0.47s0.525,0.698,0.51,1.156l-0.01,0.03h-0.549
			c0-0.304-0.127-0.569-0.379-0.795s-0.584-0.338-1-0.338c-0.428,0-0.75,0.098-0.967,0.292c-0.219,0.195-0.326,0.422-0.326,0.682
			c0,0.253,0.092,0.463,0.279,0.629c0.186,0.165,0.557,0.312,1.113,0.438c0.625,0.144,1.1,0.344,1.42,0.601
			c0.32,0.256,0.482,0.602,0.482,1.035c0,0.462-0.182,0.837-0.541,1.126c-0.361,0.288-0.838,0.433-1.43,0.433
			c-0.65,0-1.16-0.16-1.529-0.481c-0.371-0.321-0.547-0.704-0.527-1.148l0.01-0.031h0.545c0.021,0.4,0.18,0.69,0.471,0.872
			c0.291,0.181,0.635,0.271,1.031,0.271c0.428,0,0.766-0.099,1.012-0.298C199.34,85.029,199.465,84.791,199.465,84.514z"/>
	</g>
</g>
<g>
	<path fill="#FFFFFF" d="M169.118,45.276h-1.989v-8.217h-2.058v-1.524l4.047-0.355V45.276z"/>
	<path fill="#FFFFFF" d="M178.928,37.907c0,0.492-0.128,0.929-0.383,1.309c-0.255,0.381-0.606,0.679-1.053,0.893
		c0.542,0.224,0.973,0.543,1.292,0.96s0.479,0.895,0.479,1.433c0,0.921-0.32,1.637-0.96,2.149c-0.641,0.513-1.46,0.77-2.458,0.77
		c-1.044,0-1.9-0.257-2.57-0.77s-1.005-1.229-1.005-2.149c0-0.538,0.165-1.016,0.496-1.433c0.33-0.417,0.777-0.736,1.343-0.96
		c-0.47-0.214-0.837-0.512-1.104-0.893c-0.267-0.38-0.4-0.816-0.4-1.309c0-0.875,0.299-1.549,0.896-2.021s1.374-0.707,2.331-0.707
		c0.916,0,1.661,0.235,2.235,0.707S178.928,37.032,178.928,37.907z M177.267,42.405c0-0.442-0.138-0.806-0.413-1.091
		c-0.276-0.284-0.617-0.427-1.022-0.427c-0.446,0-0.818,0.143-1.114,0.427c-0.296,0.285-0.444,0.648-0.444,1.091
		c0,0.451,0.147,0.812,0.441,1.08s0.671,0.403,1.131,0.403c0.41,0,0.75-0.135,1.019-0.403S177.267,42.856,177.267,42.405z
		 M176.938,37.996c0-0.392-0.103-0.703-0.308-0.934c-0.205-0.229-0.472-0.345-0.8-0.345c-0.374,0-0.672,0.112-0.896,0.338
		s-0.335,0.539-0.335,0.94c0,0.405,0.114,0.732,0.342,0.98c0.228,0.249,0.528,0.373,0.902,0.373c0.328,0,0.593-0.123,0.793-0.369
		S176.938,38.406,176.938,37.996z"/>
	<path fill="#FFFFFF" d="M184.314,35.179c0.388,0,0.746,0.035,1.077,0.105c0.33,0.071,0.657,0.175,0.98,0.312l-0.355,1.463
		c-0.31-0.104-0.588-0.184-0.834-0.236c-0.246-0.052-0.531-0.078-0.854-0.078c-0.583,0-1.054,0.224-1.411,0.67
		c-0.358,0.446-0.537,1.068-0.537,1.866v0.321c0.265-0.26,0.58-0.462,0.947-0.605c0.366-0.144,0.775-0.215,1.227-0.215
		c0.853,0,1.518,0.302,1.996,0.905c0.479,0.604,0.718,1.392,0.718,2.362c0,0.998-0.31,1.81-0.93,2.434s-1.429,0.937-2.427,0.937
		c-1.039,0-1.886-0.355-2.539-1.066c-0.654-0.711-0.981-1.684-0.981-2.919v-2.085c0-1.263,0.37-2.273,1.111-3.032
		C182.242,35.558,183.18,35.179,184.314,35.179z M183.891,40.292c-0.36,0-0.666,0.058-0.919,0.174s-0.45,0.277-0.592,0.482v0.533
		c0,0.766,0.141,1.358,0.421,1.777s0.65,0.629,1.11,0.629c0.415,0,0.745-0.175,0.991-0.523s0.369-0.787,0.369-1.315
		c0-0.547-0.124-0.977-0.372-1.289C184.65,40.449,184.314,40.292,183.891,40.292z"/>
</g>
<path fill="#A1C8E7" d="M238.668,23.377c11.043,0,19.996,7.273,19.996,16.243c0,8.976-8.953,16.247-19.996,16.247
	c-1.059,0-2.102-0.066-3.117-0.196c-4.295,4.293-9.422,5.065-14.377,5.177v-1.05c2.676-1.311,4.998-3.701,4.998-6.431
	c0-0.379-0.031-0.755-0.086-1.121c-4.52-2.977-7.412-7.526-7.412-12.626C218.674,30.651,227.625,23.377,238.668,23.377"/>
<g>
	<g>
		<path fill="#FFFFFF" d="M219.155,83.601l0.01,0.031c0.014,0.731-0.217,1.315-0.691,1.753s-1.098,0.656-1.867,0.656
			c-0.801,0-1.445-0.3-1.938-0.899c-0.49-0.6-0.734-1.377-0.734-2.33v-1.216c0-0.95,0.244-1.727,0.734-2.33
			c0.492-0.603,1.137-0.904,1.938-0.904c0.779,0,1.404,0.213,1.875,0.641c0.469,0.427,0.697,1.015,0.684,1.764l-0.01,0.03H218.6
			c0-0.602-0.176-1.07-0.529-1.407c-0.355-0.336-0.844-0.505-1.465-0.505c-0.629,0-1.135,0.253-1.514,0.759
			c-0.381,0.506-0.57,1.153-0.57,1.943v1.226c0,0.8,0.189,1.451,0.57,1.956c0.379,0.504,0.885,0.756,1.514,0.756
			c0.621,0,1.109-0.164,1.465-0.492c0.354-0.328,0.529-0.805,0.529-1.431H219.155z"/>
		<path fill="#FFFFFF" d="M220.215,83.079c0-0.817,0.217-1.487,0.648-2.01c0.432-0.523,1.002-0.785,1.713-0.785
			c0.715,0,1.287,0.262,1.719,0.785c0.432,0.522,0.648,1.192,0.648,2.01v0.169c0,0.82-0.215,1.491-0.645,2.013
			c-0.43,0.521-1.002,0.781-1.713,0.781c-0.717,0-1.291-0.261-1.723-0.781c-0.432-0.521-0.648-1.192-0.648-2.013V83.079z
			 M220.809,83.248c0,0.643,0.156,1.183,0.469,1.62s0.75,0.656,1.309,0.656c0.551,0,0.982-0.219,1.297-0.656s0.473-0.978,0.473-1.62
			v-0.169c0-0.633-0.158-1.169-0.475-1.61c-0.316-0.44-0.75-0.661-1.305-0.661c-0.553,0-0.986,0.221-1.299,0.661
			c-0.313,0.441-0.469,0.978-0.469,1.61V83.248z"/>
		<path fill="#FFFFFF" d="M226.702,80.386l0.055,0.964c0.174-0.338,0.406-0.601,0.695-0.786c0.291-0.187,0.635-0.28,1.033-0.28
			c0.58,0,1.021,0.185,1.324,0.552s0.453,0.94,0.453,1.72v3.379h-0.592V82.56c0-0.636-0.115-1.085-0.344-1.348
			c-0.229-0.264-0.555-0.396-0.975-0.396c-0.422,0-0.762,0.108-1.021,0.323c-0.258,0.216-0.445,0.504-0.561,0.866v3.928h-0.592
			v-5.548H226.702z"/>
		<path fill="#FFFFFF" d="M233.331,84.544l0.172,0.651h0.029l0.189-0.651l1.451-4.158h0.613l-2.031,5.548h-0.475l-2.033-5.548h0.611
			L233.331,84.544z"/>
		<path fill="#FFFFFF" d="M237.42,78.797h-0.588v-0.861h0.588V78.797z M237.42,85.934h-0.588v-5.548h0.588V85.934z"/>
		<path fill="#FFFFFF" d="M238.823,83.207c0-0.885,0.182-1.594,0.541-2.125c0.361-0.531,0.865-0.798,1.51-0.798
			c0.365,0,0.686,0.081,0.961,0.241c0.275,0.161,0.502,0.388,0.684,0.682v-3.271h0.594v7.998h-0.484l-0.084-0.805
			c-0.182,0.294-0.412,0.52-0.691,0.677c-0.281,0.157-0.609,0.235-0.988,0.235c-0.639,0-1.139-0.247-1.5-0.74
			c-0.359-0.494-0.541-1.156-0.541-1.987V83.207z M239.417,83.314c0,0.67,0.129,1.203,0.387,1.6c0.26,0.396,0.648,0.595,1.17,0.595
			c0.381,0,0.699-0.088,0.953-0.264s0.451-0.42,0.592-0.73v-2.631c-0.135-0.314-0.326-0.57-0.572-0.769
			c-0.248-0.198-0.568-0.298-0.963-0.298c-0.521,0-0.912,0.222-1.174,0.664c-0.262,0.443-0.393,1.018-0.393,1.726V83.314z"/>
		<path fill="#FFFFFF" d="M248.071,85.934c-0.037-0.195-0.064-0.362-0.082-0.503c-0.018-0.14-0.027-0.283-0.027-0.431
			c-0.184,0.302-0.443,0.55-0.775,0.746c-0.332,0.197-0.715,0.295-1.146,0.295c-0.523,0-0.93-0.145-1.217-0.433
			c-0.289-0.289-0.432-0.682-0.432-1.177c0-0.496,0.209-0.897,0.627-1.205s0.961-0.462,1.629-0.462h1.314v-0.687
			c0-0.396-0.121-0.708-0.363-0.934s-0.584-0.338-1.025-0.338c-0.404,0-0.73,0.103-0.98,0.308c-0.248,0.205-0.373,0.463-0.373,0.774
			h-0.547l-0.01-0.031c-0.02-0.417,0.152-0.783,0.516-1.1s0.838-0.475,1.426-0.475c0.586,0,1.057,0.156,1.412,0.467
			c0.355,0.312,0.533,0.757,0.533,1.338v2.728c0,0.195,0.01,0.385,0.031,0.569s0.059,0.368,0.107,0.549H248.071z M246.104,85.499
			c0.455,0,0.848-0.112,1.182-0.336c0.332-0.224,0.557-0.512,0.676-0.864v-1.062h-1.318c-0.48,0-0.879,0.119-1.191,0.356
			c-0.313,0.238-0.469,0.524-0.469,0.859c0,0.314,0.1,0.567,0.299,0.759S245.754,85.499,246.104,85.499z"/>
		<path fill="#FFFFFF" d="M249.893,83.207c0-0.885,0.18-1.594,0.541-2.125s0.863-0.798,1.51-0.798c0.365,0,0.686,0.081,0.959,0.241
			c0.275,0.161,0.504,0.388,0.686,0.682v-3.271h0.592v7.998h-0.484l-0.084-0.805c-0.18,0.294-0.41,0.52-0.691,0.677
			c-0.279,0.157-0.609,0.235-0.988,0.235c-0.639,0-1.137-0.247-1.498-0.74c-0.361-0.494-0.541-1.156-0.541-1.987V83.207z
			 M250.485,83.314c0,0.67,0.131,1.203,0.389,1.6s0.648,0.595,1.168,0.595c0.383,0,0.699-0.088,0.953-0.264s0.451-0.42,0.594-0.73
			v-2.631c-0.135-0.314-0.326-0.57-0.574-0.769c-0.246-0.198-0.568-0.298-0.963-0.298c-0.52,0-0.91,0.222-1.172,0.664
			c-0.264,0.443-0.395,1.018-0.395,1.726V83.314z"/>
		<path fill="#FFFFFF" d="M259.139,85.934c-0.035-0.195-0.063-0.362-0.082-0.503c-0.018-0.14-0.025-0.283-0.025-0.431
			c-0.186,0.302-0.443,0.55-0.775,0.746c-0.334,0.197-0.715,0.295-1.146,0.295c-0.523,0-0.93-0.145-1.219-0.433
			c-0.287-0.289-0.432-0.682-0.432-1.177c0-0.496,0.209-0.897,0.627-1.205s0.963-0.462,1.631-0.462h1.314v-0.687
			c0-0.396-0.121-0.708-0.363-0.934s-0.584-0.338-1.025-0.338c-0.404,0-0.732,0.103-0.98,0.308s-0.373,0.463-0.373,0.774h-0.549
			l-0.01-0.031c-0.02-0.417,0.152-0.783,0.516-1.1c0.365-0.316,0.84-0.475,1.426-0.475s1.057,0.156,1.412,0.467
			c0.355,0.312,0.535,0.757,0.535,1.338v2.728c0,0.195,0.01,0.385,0.031,0.569s0.057,0.368,0.105,0.549H259.139z M257.174,85.499
			c0.453,0,0.848-0.112,1.18-0.336s0.559-0.512,0.678-0.864v-1.062h-1.32c-0.48,0-0.877,0.119-1.189,0.356
			c-0.313,0.238-0.469,0.524-0.469,0.859c0,0.314,0.1,0.567,0.299,0.759S256.825,85.499,257.174,85.499z"/>
		<path fill="#FFFFFF" d="M264.395,84.514c0-0.26-0.104-0.486-0.309-0.68s-0.576-0.352-1.113-0.475
			c-0.633-0.136-1.104-0.323-1.41-0.561c-0.309-0.238-0.463-0.57-0.463-0.998c0-0.424,0.172-0.782,0.518-1.076
			c0.344-0.294,0.799-0.441,1.365-0.441c0.596,0,1.072,0.157,1.428,0.47s0.525,0.698,0.508,1.156l-0.01,0.03h-0.549
			c0-0.304-0.125-0.569-0.377-0.795s-0.586-0.338-1-0.338c-0.428,0-0.752,0.098-0.969,0.292c-0.217,0.195-0.326,0.422-0.326,0.682
			c0,0.253,0.094,0.463,0.279,0.629c0.186,0.165,0.557,0.312,1.113,0.438c0.627,0.144,1.1,0.344,1.422,0.601
			c0.32,0.256,0.48,0.602,0.48,1.035c0,0.462-0.18,0.837-0.541,1.126c-0.359,0.288-0.838,0.433-1.43,0.433
			c-0.648,0-1.158-0.16-1.529-0.481c-0.369-0.321-0.545-0.704-0.525-1.148l0.01-0.031h0.543c0.023,0.4,0.18,0.69,0.473,0.872
			c0.291,0.181,0.635,0.271,1.029,0.271c0.428,0,0.766-0.099,1.012-0.298C264.272,85.029,264.395,84.791,264.395,84.514z"/>
	</g>
</g>
<g>
	<path fill="#FFFFFF" d="M238.614,38.257c0.473,0,0.826-0.123,1.057-0.369c0.229-0.246,0.344-0.593,0.344-1.039
		c0-0.374-0.121-0.684-0.361-0.93c-0.242-0.246-0.58-0.369-1.012-0.369c-0.365,0-0.672,0.111-0.92,0.335s-0.373,0.508-0.373,0.854
		h-1.928l-0.014-0.041c-0.027-0.779,0.273-1.422,0.902-1.928s1.406-0.759,2.332-0.759c1.029,0,1.848,0.242,2.453,0.728
		c0.607,0.485,0.91,1.182,0.91,2.089c0,0.456-0.131,0.874-0.393,1.254c-0.264,0.381-0.621,0.681-1.078,0.899
		c0.52,0.196,0.922,0.493,1.203,0.892c0.283,0.399,0.424,0.881,0.424,1.446c0,0.911-0.328,1.628-0.986,2.149
		c-0.66,0.522-1.504,0.783-2.533,0.783c-0.908,0-1.701-0.246-2.379-0.738c-0.68-0.492-1.008-1.183-0.984-2.071l0.014-0.041h1.941
		c0,0.374,0.131,0.687,0.393,0.939s0.6,0.38,1.016,0.38c0.455,0,0.824-0.135,1.107-0.403c0.281-0.269,0.424-0.608,0.424-1.019
		c0-0.524-0.133-0.913-0.396-1.166c-0.266-0.253-0.652-0.379-1.162-0.379h-1.102v-1.497H238.614z"/>
</g>
</svg>
